<svg xmlns="http://www.w3.org/2000/svg" viewBox="0 0 100 100"><defs><style>.cls-1{isolation:isolate;}.cls-2{fill:#e5bdb7;}.cls-3,.cls-4{fill:#353434;}.cls-26,.cls-28,.cls-30,.cls-4{mix-blend-mode:screen;}.cls-5{fill:#dedede;}.cls-31,.cls-6{fill:none;}.cls-6{stroke:#53575e;stroke-miterlimit:10;stroke-width:0.13px;}.cls-7{fill:#f92905;}.cls-8{fill:#b21a02;}.cls-13,.cls-14,.cls-16,.cls-22,.cls-9{mix-blend-mode:multiply;}.cls-10{fill:#b01a02;}.cls-11{fill:#e12404;}.cls-12,.cls-13,.cls-28{fill:#53575e;}.cls-13,.cls-14{opacity:0.5;}.cls-15,.cls-26{fill:#ffe8d9;}.cls-16,.cls-17{fill:#eec7b2;}.cls-18,.cls-27,.cls-29{fill:#fff;}.cls-19{fill:#68d3d8;}.cls-20,.cls-22{fill:#00bfd1;}.cls-21{fill:#00798e;}.cls-23{fill:#da432f;}.cls-24{fill:#ecae82;}.cls-25{fill:#f78982;}.cls-25,.cls-27{opacity:0.8;}.cls-29{opacity:0.3;}</style></defs><title>Asset 21</title><g class="cls-1"><g id="Layer_2" data-name="Layer 2"><g id="Layer_1-2" data-name="Layer 1"><rect class="cls-2" width="100" height="100"/><path class="cls-3" d="M13.35,63.87s.81,3,1.81,5.61,1.05,3.39.45,3.52a7.9,7.9,0,0,0-2,.76c-.58.34-.1-2.49-1.42-7.67-.5-2-.4-3,.23-3.25S13.35,63.87,13.35,63.87Z"/><path class="cls-3" d="M19.95,67.7a8.3,8.3,0,0,1-5.05-2.2c-1.75-1.37-2.4-1.42-2.3-2.14s1.16-.47,2.35,0a12.74,12.74,0,0,0,2.43.75A7.75,7.75,0,0,0,19.95,67.7Z"/><path class="cls-3" d="M10.77,76.4s1.79-2.64,4-3.3a.84.84,0,0,1,1.21.78c0,.45-1.85,1.16-3.65,3.22-.76,1-1,1-1.58.49C10.39,77.24,10.46,76.89,10.77,76.4Z"/><path class="cls-3" d="M10.63,77.43a5.57,5.57,0,0,0,.84.67c.48.3.26.52.1,1a5.2,5.2,0,0,0-.07,2.69c-1-.45-1.68-1.69-1.47-3.65C10.13,77.32,10.42,77.2,10.63,77.43Z"/><path class="cls-4" d="M13,63.18s1-.05,4,1.18c-.24.42.35,1.35.77,1.87C16.06,65.55,12.28,63.52,13,63.18Z"/><path class="cls-5" d="M13.5,63.49a18.7,18.7,0,0,1,3.14,1A5,5,0,0,0,13.5,63.49Z"/><path class="cls-4" d="M14.46,70c-.54-2.38-1-5.13-1.63-5.54s-.13-1.05-.71-1.05c-.12,0-.2.09-.26.24a7.19,7.19,0,0,0,.29,2.43c.3,1.2.51,2.26.65,3.2.59,1.41.52,2.9.81,3.41S15,72.39,14.46,70Z"/><path class="cls-5" d="M12.23,64.44s.42,2.72,1.41,6.89A22.24,22.24,0,0,1,12.23,64.44Z"/><path class="cls-4" d="M12.36,76c1.29-1.33,3.43-2.35,2.34-2.42s-2.5,1.2-2.7,1.38a11.9,11.9,0,0,0-1,1.19C10.43,77.09,11.15,77.22,12.36,76Z"/><path class="cls-5" d="M10.87,76.61a11.54,11.54,0,0,1,2.95-2.7C13,74,11.36,75.55,10.87,76.61Z"/><path class="cls-4" d="M10.47,78c-.51,0-.41,1.51-.41,1.51h0a3.07,3.07,0,0,0,.95,2l.24.1C10.2,79.69,11,78,10.47,78Z"/><path class="cls-5" d="M10.25,78.4A5.65,5.65,0,0,0,11,81.31,3.1,3.1,0,0,1,10.25,78.4Z"/><path class="cls-6" d="M69.08,62.71a96.61,96.61,0,0,1-21.66.53c.19,1.9.22,3.09.22,3.09,6,.16,16.29.16,23.05-1.51,11.67-3.76,16.72-7.61,18.47-12.09C86.9,56.29,80.23,61.18,69.08,62.71Z"/><path class="cls-7" d="M81.8,21.65a27.22,27.22,0,0,0-8.13-6.58C52,10.29,39.93,25,37.38,28.59h0c1-.07,1.14,5-.33,10,7.59,5.79,9.73,18.71,10.33,24.65a96.61,96.61,0,0,0,21.66-.53c11.15-1.53,17.82-6.41,20.08-10a11.86,11.86,0,0,0,.76-4.36C90.34,36.2,86,26.54,81.8,21.65Z"/><path class="cls-8" d="M73.67,15.07c-8.21-4.28-18.35-3.71-30.5,0C23.44,22.49,21.49,36.9,21.49,36.9a20.25,20.25,0,0,1,8.31-1.15c1.42-1.95,5.26-6.92,7.58-7.16C39.93,25,52,10.29,73.67,15.07Z"/><ellipse class="cls-3" cx="29.29" cy="28.89" rx="3.24" ry="2.01" transform="translate(-9.92 16.42) rotate(-26.96)"/><path class="cls-3" d="M38.28,24.61a39.12,39.12,0,0,0,4.09,1.93c2.43,1,5.74,1.77,9.28-3.53s1.87-7.07-2.32-6.74-9.83,2.54-11.87,6.07A1.62,1.62,0,0,0,38.28,24.61Z"/><g class="cls-9"><path class="cls-10" d="M58.66,12.12c4.88.11,6.22,1,1.67,1.2-8.08.37-17.08,5.57-20.8,9.84s-8.08,9-12.63,8.36,2.69-8.17,2.69-8.17h-.12c-7.06,6.69-8,13.55-8,13.55a20.25,20.25,0,0,1,8.31-1.15c1.42-1.95,5.26-6.92,7.58-7.16C39.93,25,52,10.29,73.67,15.07A29.06,29.06,0,0,0,58.66,12.12Z"/></g><path class="cls-3" d="M37.42,28.59c-2.31.19-6.19,5.21-7.62,7.17a13.92,13.92,0,0,1,7.29,2.84C38.55,33.6,38.38,28.52,37.42,28.59Z"/><g class="cls-9"><path class="cls-11" d="M85.63,27.58c3.38,8.94,1.52,17.76-6.32,21.57-11.23,5.46-18.52.47-25.08-8.34-5-6.7-9.81-9.53-7.71-14.85,3.53-9,10.54-10.51,15.78-11.7C47.72,15.51,39.45,25.7,37.38,28.59h0c1-.07,1.14,5-.33,10,7.59,5.79,9.73,18.71,10.33,24.65a96.61,96.61,0,0,0,21.66-.53c11.15-1.53,17.82-6.41,20.08-10a11.86,11.86,0,0,0,.76-4.36A43.68,43.68,0,0,0,85.63,27.58Z"/></g><g class="cls-9"><path class="cls-10" d="M77.86,58.22c-12,3.18-23.59,3.48-24.39-5.87C51.77,41,45.7,37.91,40.92,32.73S46.4,20,46.4,20l0,0a36.45,36.45,0,0,0-9,8.63h0c1-.07,1.14,5-.33,10,7.59,5.79,9.73,18.71,10.33,24.65a96.61,96.61,0,0,0,21.66-.53c11.15-1.53,17.82-6.41,20.08-10,.12-.29.21-.6.3-.9C87.22,54.24,83.64,56.69,77.86,58.22Z"/></g><path class="cls-12" d="M69.08,62.71a96.61,96.61,0,0,1-21.66.53c.19,1.9.22,3.09.22,3.09,6,.16,16.29.16,23.05-1.51,11.67-3.76,16.72-7.61,18.47-12.09C86.9,56.29,80.23,61.18,69.08,62.71Z"/><path class="cls-3" d="M80,23c1.6,1.08,2.72,1,3.28.51a23.17,23.17,0,0,0-1.47-1.91,30.32,30.32,0,0,0-2.41-2.51C78.91,20,78.22,21.86,80,23Z"/><path class="cls-3" d="M82.9,34.86c-2.75,3.44-1.22,9.63,3.44,10.74,1.83.44,2.93.23,3.58-.17A45,45,0,0,0,88.11,33.9C86.61,33.24,84.5,32.86,82.9,34.86Z"/><path class="cls-13" d="M58.28,64.75c-.65-.41,11.21-.32,18.48-3.15,2.46-.92,1.31.41-1.13,1.48,8.21-3.22,12.06-6.56,13.54-10.35-2.26,3.56-8.93,8.44-20.08,10a96.61,96.61,0,0,1-21.66.53c.19,1.9.22,3.09.22,3.09a127.76,127.76,0,0,0,18-.61h0S59.56,66.28,58.28,64.75Z"/><path class="cls-12" d="M18.2,49.57s-1.56-12.9,7.28-15.75S37.27,31.24,44.73,38s8.75,20.83,8.11,24.6c-1,3.14-6.36,5.25-9.68,5.72s-5.34.46-5.34-2S33,44.41,18.2,49.57Z"/><g class="cls-14"><path class="cls-12" d="M44.73,38C39.1,32.89,36,31.49,31.08,32.33c9.74.42,17.38,9.87,18.64,17.71,1.33,8.32-6.35,10.28-10.24,4.32C34.68,47,28.34,43.66,23.62,44c-4.23.28-3.44-5.06-3.23-6.16-3,4.83-2.2,11.76-2.2,11.76C33,44.41,37.82,63.76,37.82,66.25s2,2.49,5.34,2,8.66-2.58,9.68-5.72C53.49,58.79,52.19,44.69,44.73,38Z"/></g><ellipse class="cls-3" cx="50.96" cy="35.37" rx="3.28" ry="4.67" transform="translate(-10.78 41.4) rotate(-40.33)"/><ellipse class="cls-3" cx="61.47" cy="55.06" rx="3.56" ry="3.02" transform="translate(-20.71 62.59) rotate(-47.09)"/><path class="cls-3" d="M64.47,34.4a5.69,5.69,0,0,0-1.26,4.15c.31,2.36,4.83,4.2,7.45,3.09s1.94-4.83-.58-7.24S65.72,32.56,64.47,34.4Z"/><path class="cls-3" d="M62.89,22.7s2.41,2.47,7.4.68,1.52-6.45-3.41-5.46S62.21,22.28,62.89,22.7Z"/><ellipse class="cls-3" cx="82.03" cy="52.02" rx="2.32" ry="2.48"/><g class="cls-9"><path class="cls-12" d="M44.73,38c-.87-.78-1.67-1.47-2.43-2.08C52.2,44.34,53.37,60.41,49.93,64a6.44,6.44,0,0,1-11.16-3.07c-2.17-12.58-14.83-15.5-17.9-14.46A2.36,2.36,0,0,1,18.13,46a23.14,23.14,0,0,0,.07,3.6C33,44.41,37.82,63.76,37.82,66.25s2,2.49,5.34,2,8.66-2.58,9.68-5.72C53.49,58.79,52.19,44.69,44.73,38Z"/></g><path d="M15.38,56l-2.53-1.71a6.51,6.51,0,0,0,2.64.72Z"/><polygon points="14.17 53.83 15.4 54.6 15.54 54.29 14.17 53.83"/><polygon points="15.08 53.27 15.64 54.01 15.82 53.8 15.08 53.27"/><path class="cls-15" d="M17.55,61.69a4.88,4.88,0,0,0,1.78,5.78c3.25,2.53,11.78,2.27,16.45.8s2.62-6.8.66-11.43a16.56,16.56,0,0,0-12.76-9.56c-4.27-.58-7.69,3.16-7.2,8.14C17.06,59.12,17.55,61.69,17.55,61.69Z"/><path class="cls-16" d="M18.83,65.61s.11-.55,1.25.15a9,9,0,0,0,5.36,1c-.38-.32-.31-.63-.31-.63a4,4,0,0,0,1.94,1.12c-.21.34-1.16,0-1.16,0s-1,1.72-3.82,1.21C19.58,68,19.91,67,19.91,67S18.77,66.37,18.83,65.61Z"/><g class="cls-9"><path class="cls-17" d="M19.15,62.82c1.47-.34,2.63-2.43,2-6.27-.51-3.32-2.81-4.69-4.52-4.1a9,9,0,0,0-.19,3c.58,3.69,1.07,6.27,1.07,6.27a3.87,3.87,0,0,0-.21.69A2.64,2.64,0,0,0,19.15,62.82Z"/></g><path class="cls-16" d="M25.92,56.34A8.71,8.71,0,0,0,25,63.25a3.65,3.65,0,0,0,4.51,2.36A3.53,3.53,0,0,0,29,67.48s.71-3.89,5.51-3.64c-.76-.63-2.27-.21-2.27-.21a8.8,8.8,0,0,0,.59-6.32,4.34,4.34,0,0,0-2.94-2.92A3.78,3.78,0,0,0,26,56.2Z"/><polygon points="32.82 59.87 35.76 58.97 32.68 58.76 32.82 59.87"/><polygon points="32.68 58.44 33.72 58.09 32.63 58.04 32.68 58.44"/><polygon points="32.52 57.72 33.47 57.19 32.38 57.42 32.52 57.72"/><path class="cls-18" d="M26.58,56.07S24.91,57.75,25,61.39a4.12,4.12,0,0,0,1.53,3.27,4.11,4.11,0,0,0,3.6.45A4.5,4.5,0,0,0,32.5,62a8.16,8.16,0,0,0,.14-4,5.48,5.48,0,0,0-1-2A3.4,3.4,0,0,0,26.58,56.07Z"/><g class="cls-9"><path class="cls-5" d="M32.64,58a5.48,5.48,0,0,0-1-2,3.4,3.4,0,0,0-5,.11S24.91,57.75,25,61.39a4.12,4.12,0,0,0,1.53,3.27,4.11,4.11,0,0,0,3.6.45A4.5,4.5,0,0,0,32.5,62,8.16,8.16,0,0,0,32.64,58ZM29.15,64.5C27.37,64.44,26,62.41,26.07,60s1.58-4.38,3.35-4.32,3.15,2.08,3.08,4.53S30.92,64.55,29.15,64.5Z"/></g><path class="cls-18" d="M15.39,57.22s.36,4.31,2.56,4.52,3.49-1.87,2.56-6S14.94,51.5,15.39,57.22Z"/><path class="cls-19" d="M16.52,58.3c0,1.51.94,2.7,2,2.66s1.91-1.28,1.87-2.78-.94-2.69-2-2.66S16.48,56.8,16.52,58.3Z"/><path class="cls-20" d="M16.52,58.3c0,1.51.94,2.7,2,2.66s1.91-1.28,1.87-2.78-.94-2.69-2-2.66S16.48,56.8,16.52,58.3Z"/><path class="cls-19" d="M17,58.39c0,1.15.72,2.05,1.54,2s1.45-1,1.43-2.13-.72-2.06-1.54-2S17,57.23,17,58.39Z"/><path class="cls-21" d="M17.66,58.43c0,.75.47,1.34,1,1.32s1-.64.93-1.39-.47-1.34-1-1.32S17.64,57.68,17.66,58.43Z"/><path class="cls-22" d="M20.36,57.74a3.8,3.8,0,0,1,0,.43c0,1.5-.8,2.75-1.87,2.78s-2-1.15-2-2.66a3.07,3.07,0,0,1,0-.41A3,3,0,0,0,20.36,57.74Z"/><path class="cls-18" d="M18.38,57.45c.07.6.48,1,.9,1s.71-.59.64-1.18-.47-1-.9-1S18.31,56.85,18.38,57.45Z"/><path class="cls-18" d="M18.89,59.09c0,.22.18.38.33.36s.27-.21.24-.44-.18-.38-.34-.36S18.86,58.87,18.89,59.09Z"/><path class="cls-19" d="M27.53,60.7c-.09,1.76.87,3.22,2.15,3.26s2.38-1.36,2.47-3.12-.87-3.22-2.15-3.26S27.62,58.94,27.53,60.7Z"/><path class="cls-20" d="M27.53,60.7c-.09,1.76.87,3.22,2.15,3.26s2.38-1.36,2.47-3.12-.87-3.22-2.15-3.26S27.62,58.94,27.53,60.7Z"/><path class="cls-19" d="M28.07,60.83c-.07,1.35.67,2.46,1.64,2.49s1.82-1,1.89-2.39-.66-2.46-1.64-2.49S28.13,59.49,28.07,60.83Z"/><path class="cls-21" d="M28.9,60.95c0,.85.42,1.56,1,1.58s1.16-.66,1.2-1.51-.43-1.56-1-1.58S28.94,60.09,28.9,60.95Z"/><path class="cls-22" d="M32.14,60.33a4.83,4.83,0,0,1,0,.51C32.06,62.6,30.95,64,29.67,64s-2.24-1.5-2.15-3.26c0-.16,0-.32.05-.48C28.92,61.22,30.93,61.51,32.14,60.33Z"/><path class="cls-18" d="M29.81,59.84c0,.71.47,1.25,1,1.21s.9-.63.87-1.34-.47-1.25-1-1.21S29.78,59.14,29.81,59.84Z"/><path class="cls-18" d="M30.27,61.8c0,.26.17.46.36.45s.33-.23.32-.5-.17-.46-.36-.45S30.26,61.54,30.27,61.8Z"/><path class="cls-3" d="M17.43,51.78s1.21-1.77,2.38.56c.28.56.2-1.41-1.09-1.65S17.11,51.94,17.43,51.78Z"/><path class="cls-16" d="M17.43,52.09s1.21-1.77,2.38.56c.28.56.2-1.41-1.09-1.65S17.11,52.26,17.43,52.09Z"/><path class="cls-16" d="M26.81,53.74a1.74,1.74,0,0,1,2.74.08c.48.52,0-1-1.17-1.21S26.45,53.86,26.81,53.74Z"/><path class="cls-3" d="M26.81,53.43a1.74,1.74,0,0,1,2.74.08c.48.53,0-1-1.17-1.21S26.45,53.55,26.81,53.43Z"/><g class="cls-9"><path class="cls-5" d="M20.51,55.78a4.06,4.06,0,0,0-1.67-2.62c2.1,4.62,1.13,7.61-1.07,7.22-1.32-.24-2-2.7-2.35-4.83a8.38,8.38,0,0,0,0,1.68s.36,4.31,2.56,4.52S21.44,59.88,20.51,55.78Z"/></g><path class="cls-3" d="M31.6,56a3.4,3.4,0,0,0-5,.11A7.14,7.14,0,0,0,25,60.52h0s1.43-4.13,4.65-3.81c2.31.23,3,2,3.12,3.64A5.44,5.44,0,0,0,31.6,56Z"/><path class="cls-4" d="M26.77,57.22a3.58,3.58,0,0,1,4.9-.11c.57.63-.25-2.11-2.68-1.89S25.87,58.07,26.77,57.22Z"/><path class="cls-3" d="M17.41,52.65c2.17.16,3.43,1.69,3.43,6a6.44,6.44,0,0,0-2.65-4.19c-1.64-1.07-2.86-.05-2.86,1.52C15.16,53.38,16.48,52.57,17.41,52.65Z"/><path class="cls-4" d="M19.77,55.51s-1.5-2.62-3.39-1.78c-.84.35.68-1.64,2.49-.27S20.44,56.53,19.77,55.51Z"/><path class="cls-3" d="M28.54,64.87a4.44,4.44,0,0,1-3.35-2.18h0a4.39,4.39,0,0,0,1.45,2.24A3.6,3.6,0,0,0,30,65.2a4.45,4.45,0,0,0,2-1.88A4.17,4.17,0,0,1,28.54,64.87Z"/><path class="cls-16" d="M29,67.43s0,0,0-.08,0-.13.05-.22.06-.21.1-.34a3.36,3.36,0,0,1,.17-.43l.11-.24.14-.24a1.84,1.84,0,0,1,.16-.26c.06-.08.12-.17.18-.26a4.39,4.39,0,0,1,.45-.48c.09-.08.16-.16.25-.23l.28-.2.14-.1.15-.08.3-.16c.2-.1.42-.16.61-.24s.41-.09.6-.14a1.44,1.44,0,0,1,.28,0l.26,0a2.25,2.25,0,0,1,.46,0l.35,0,.31,0-.31,0H33.7a4,4,0,0,0-.45.05l-.25,0a1.65,1.65,0,0,0-.27.05l-.57.16c-.19.08-.39.15-.58.25l-.29.16-.14.08-.13.1-.27.19L30.5,65a6.05,6.05,0,0,0-.44.45l-.19.24c-.06.08-.12.16-.17.23l-.15.23-.13.22c-.08.14-.14.29-.21.41s-.11.23-.13.33A2.25,2.25,0,0,0,29,67.43Z"/><path class="cls-3" d="M16.32,60.49a2.17,2.17,0,0,0,2.2,1.24c1.63-.13,2.17-2.15,2.17-2.15s0,2.6-2,2.79C17.21,62.41,16.54,61,16.32,60.49Z"/><path class="cls-5" d="M27.82,56.13a2.57,2.57,0,0,1,1.92-.35C30.79,56,29.11,54.59,27.82,56.13Z"/><path class="cls-5" d="M19.52,54.62a2.58,2.58,0,0,0-1.59-1.12C16.86,53.28,19,52.69,19.52,54.62Z"/><path class="cls-23" d="M25.8,67.15c.13-.2.09-.32-.14-.27a8.53,8.53,0,0,1-5.72-1.08c-1-.68-1.73-.26.16,1.16C20.1,67,23.35,68.37,25.8,67.15Z"/><path class="cls-23" d="M20.1,67c-.26.18.73,1.57,3,1.36a3.81,3.81,0,0,0,2.69-1.17C23.35,68.37,20.1,67,20.1,67Z"/><path class="cls-24" d="M25.16,66.28l.07.06.18.15.12.09.13.1.15.1.16.1.16.09.16.08.15.07.14.06a3,3,0,0,1,.3.13,2.2,2.2,0,0,1-.33,0,.47.47,0,0,1-.16,0l-.17-.05a1.23,1.23,0,0,1-.18-.06l-.18-.1-.17-.11-.15-.12-.13-.13-.1-.12A1.11,1.11,0,0,1,25.16,66.28Z"/><g class="cls-9"><path class="cls-23" d="M25.66,66.89a8.53,8.53,0,0,1-5.72-1.08c-.63-.43-1.16-.42-1,0,.18-.08.31.07.77.35a9.54,9.54,0,0,0,4,1.17c.79,0-1.18.64-3.82-.55l.23.17s3.25,1.41,5.7.19C25.93,67,25.89,66.83,25.66,66.89Z"/></g><g class="cls-9"><path class="cls-23" d="M20.1,67c-.08.05,0,.21.1.41a.86.86,0,0,1,.59.06,6.83,6.83,0,0,0,3,.4c1.19-.09-1.41.77-3.08,0h0a3.77,3.77,0,0,0,2.37.48,3.81,3.81,0,0,0,2.69-1.17C23.35,68.37,20.1,67,20.1,67Z"/></g><g class="cls-9"><path class="cls-17" d="M36.45,56.85a16.56,16.56,0,0,0-12.76-9.56A6,6,0,0,0,18.59,49c7.95-5.73,20.79,9.36,17.43,16-2.72,5.35-10.45,4.43-14.62,3.59,4,1.35,10.51,1,14.38-.25C40.45,66.81,38.4,61.47,36.45,56.85Z"/></g><ellipse class="cls-25" cx="32.01" cy="65.82" rx="2.59" ry="1.62" transform="translate(-28.39 24.49) rotate(-29.68)"/><ellipse class="cls-18" cx="30.84" cy="65.29" rx="0.67" ry="0.31" transform="translate(-38.92 46.65) rotate(-49.76)"/><ellipse class="cls-18" cx="31.8" cy="64.46" rx="0.3" ry="0.14" transform="translate(-27.26 23.5) rotate(-29)"/><path class="cls-4" d="M17.55,61.69a1.89,1.89,0,0,0,2.4-.54A1.38,1.38,0,0,1,17.55,61.69Z"/><path class="cls-4" d="M26.45,64.22a3.56,3.56,0,0,0,3.17.75A2.25,2.25,0,0,1,26.45,64.22Z"/><ellipse class="cls-26" cx="21.56" cy="48.71" rx="1.32" ry="0.48" transform="translate(-7.52 4.08) rotate(-9.22)"/><ellipse class="cls-26" cx="23.97" cy="48.57" rx="0.24" ry="0.66" transform="translate(-26.18 69.02) rotate(-85.91)"/><path class="cls-27" d="M19.51,66.15a6.1,6.1,0,0,0,1.34.66c.58.16-.16.24-.8-.11C19.62,66.45,19.28,66,19.51,66.15Z"/><ellipse class="cls-27" cx="21.29" cy="67.02" rx="0.07" ry="0.14" transform="translate(-48.97 69.79) rotate(-74.63)"/><path class="cls-26" d="M17.6,63.11A4.37,4.37,0,0,0,19,66.89C17.78,66.25,16.87,63.94,17.6,63.11Z"/><path class="cls-26" d="M20,65.56a12.1,12.1,0,0,0,4.81,1.07C23.71,67,20.94,66.33,20,65.56Z"/><path class="cls-26" d="M21.45,56.87s.83,5.14-1.86,6C21.12,63.06,22.72,61.53,21.45,56.87Z"/><ellipse class="cls-16" cx="20.18" cy="50.68" rx="0.28" ry="0.23"/><ellipse class="cls-16" cx="25.34" cy="52.15" rx="0.28" ry="0.23"/><path class="cls-3" d="M20,50.66s-2.21-5.29-7.2-6.24c-1.45-.16-1.47.88-2.19.76s-.92-2,1.89-1.5,5.46,2.21,7.71,6.7C20.4,50.71,20.15,50.8,20,50.66Z"/><path class="cls-3" d="M25.45,52.24s3.65-6.27,7-6.45c1.52,0,1.47.55,2.23.87s1-1,0-1.52-2.73-.76-6.24,2.52a14.56,14.56,0,0,0-3.31,4.46A.2.2,0,0,0,25.45,52.24Z"/><path class="cls-4" d="M10.72,44.79s.68-1.06,2.73-.58-.87-.67-2.22-.42C10.23,44.08,10.2,45,10.72,44.79Z"/><path class="cls-18" d="M10.57,44.3s.77-1.54,5,.72C14.46,44.14,11.06,43,10.57,44.3Z"/><path class="cls-4" d="M29.48,47s2.69-2.44,4.64-1.24c.89.66,1.27.41.84-.31S32.37,44.38,29.48,47Z"/><path class="cls-18" d="M29.42,47s2.42-2.18,4.28-2a1.81,1.81,0,0,1,1.42.89s-.37-1.19-2-.94A7.27,7.27,0,0,0,29.42,47Z"/><path class="cls-28" d="M23.48,35.88s10.35-6.71,20.29,6.21c3.48,4.56.91-3.81-6.79-7.7C32.18,31.9,26.3,32.81,23.48,35.88Z"/><ellipse class="cls-28" cx="46.52" cy="47.04" rx="0.81" ry="1.59" transform="translate(-13.37 18.92) rotate(-20.17)"/><path d="M37.42,28.59l.26-.38c.17-.24.43-.61.78-1s.79-1,1.3-1.56,1.12-1.24,1.82-1.91c.34-.34.72-.68,1.1-1l.6-.52c.2-.18.41-.36.63-.53l.65-.53.69-.52c.45-.36,1-.69,1.45-1a35.48,35.48,0,0,1,3.2-1.93,37.12,37.12,0,0,1,3.5-1.63l.91-.33c.31-.11.61-.23.92-.32l.92-.28.46-.14.46-.12.93-.23c.31-.08.62-.13.93-.19l.92-.17c.3-.05.61-.08.91-.12l.9-.11c.29,0,.59,0,.88-.07.59,0,1.15-.08,1.71-.07h.82c.27,0,.54,0,.8,0l1.51.09c.48,0,.94.1,1.38.16l.64.08c.21,0,.41.07.6.1l1.08.2.48.09.43.1,1.26.32.45.12L73.22,15l-1.28-.24-.43-.08L71,14.61l-1.08-.14c-.2,0-.39-.06-.6-.07l-.64,0c-.44,0-.89-.08-1.37-.1l-1.49,0c-.26,0-.52,0-.79,0l-.81,0c-.55,0-1.11.07-1.68.12-.28,0-.58,0-.86.09l-.88.13c-.29,0-.59.08-.89.14l-.89.18c-.6.11-1.2.28-1.81.43l-.46.12-.45.14-.91.28c-.3.09-.6.21-.89.31l-.9.33a36,36,0,0,0-3.45,1.58C49.07,18.69,48,19.33,47,20c-.49.34-1,.66-1.45,1l-.69.5L44.2,22c-.44.33-.84.68-1.25,1s-.77.65-1.12,1l-.52.47-.49.46c-.32.29-.61.6-.89.87-.54.56-1,1.05-1.38,1.48s-.66.75-.85,1Z"/><path class="cls-11" d="M29.42,26.19S36.56,15.64,56.18,13C50.53,11.9,34.54,16.6,29.42,26.19Z"/><path class="cls-29" d="M71,15.24S62.81,13,56.63,19.39,65,38.56,78.78,37.82,83.15,17.9,71,15.24Z"/><path class="cls-18" d="M57,17.58s16-7.66,25.92,7.45C81.2,17.89,68.4,10.86,57,17.58Z"/><path class="cls-18" d="M84.52,27.28c.18.61.14,1.16-.1,1.23s-.57-.37-.76-1-.13-1.16.11-1.23S84.34,26.66,84.52,27.28Z"/><path class="cls-12" d="M36.87,29A13.45,13.45,0,0,0,34,31.23c-.38.38,2.44,1.1,2.83.24S37.78,28.65,36.87,29Z"/><path class="cls-3" d="M45.33,67.87a34.51,34.51,0,0,0,3.91-1.67c3.92-.81,7.46-1.35,7.83-.36s-6.6,2.73-9.33,2.81A2.88,2.88,0,0,1,45.33,67.87Z"/><path class="cls-3" d="M56.12,65.71s-1.28,2-2.8,4.85-2.83,4.88-2.23,8.27c.08.39,2.75-1.57,2.6-2.28a10.39,10.39,0,0,1,1.5-6.32c1.65-2.79,2.7-3.36,2.2-4.25S56.29,65.37,56.12,65.71Z"/><path class="cls-3" d="M51.23,78.7a21.31,21.31,0,0,1,3.24,2.6c1,1.2,1.16,1.88,1.71,1.74s2.11-1.3,1-2.55c-.93-1-3.25-1.66-4.44-2.86A16.34,16.34,0,0,1,51.23,78.7Z"/><path class="cls-3" d="M56.81,82.4A.8.8,0,0,0,57,83.48c.58.54,1.94,1.84.72,4.44,1.72-.44,4.18-5.05-.44-6.17A2.48,2.48,0,0,1,56.81,82.4Z"/><path class="cls-4" d="M56.06,65.33A22.68,22.68,0,0,0,50.4,66l-1.6.89C47.54,67.54,55.89,66.62,56.06,65.33Z"/><path class="cls-5" d="M50.59,66.3s3.47-.66,5.08-.81C55,65.25,52,65.73,50.59,66.3Z"/><path class="cls-4" d="M56.21,68.62c.52-.93.92-1.84.64-2-.61-.42-4,4.81-5,8.41s1.32,2.42,1.83.2a11.26,11.26,0,0,1,1.55-5C55.56,69.58,55.9,69.06,56.21,68.62Z"/><path class="cls-3" d="M51.8,75c1-3.6,4.44-8.82,5-8.41.28.2-.12,1.11-.64,2,1-1.47,1.56-2,1.17-2.65-.5-.89-1.09-.59-1.26-.26,0,0-1.28,2-2.8,4.85s-2.83,4.88-2.23,8.27c.08.39,2.75-1.57,2.6-2.28a5.33,5.33,0,0,1-.05-1.35C53.12,77.41,50.85,78.45,51.8,75Z"/><path class="cls-5" d="M56.33,68s-3,3.78-2.94,7C52.74,74.24,53.91,70.5,56.33,68Z"/><path class="cls-4" d="M52.87,78.64c-.05.26,1.68,1.37,2.52,2.41s2.45.55,1.81-.57a5.94,5.94,0,0,0-1.6-1.09C53.51,78.53,52.92,78.38,52.87,78.64Z"/><path class="cls-5" d="M53.92,79a9.15,9.15,0,0,1,3,1.84C57.12,80.16,54.6,78.9,53.92,79Z"/><g class="cls-30"><path class="cls-3" d="M57.64,82.52c-.69.45,2.18,1.4.37,5.28,1.15-.59,2.4-2.72,1.69-4.34C59.16,82.77,58.39,82.07,57.64,82.52Z"/></g><path class="cls-5" d="M58.4,82.85A3.44,3.44,0,0,1,59,86.62C60.21,85.44,59.44,83.15,58.4,82.85Z"/><path class="cls-3" d="M60.59,63.91s-1.61,1.25-.4,1.63a2.77,2.77,0,0,0,3.51-1.63,18.43,18.43,0,0,1,3.45-4.27c.57-.5,1.15-1.38.8-1.74s-2.6,1.23-4.26,3S60.59,63.91,60.59,63.91Z"/><path class="cls-3" d="M68.92,72.65s-1.4-.4-1.31-1.45a68.71,68.71,0,0,0-.09-9c-.3-2.48-.11-4,.56-4s.88.68.82,1.32a25.22,25.22,0,0,0,.74,8.22c.65,1.74,1,2.68.88,2.85S69,71.55,68.92,72.65Z"/><path class="cls-3" d="M71.49,71.58s-.93-1.46-1.56-1-1.66,1.49-1,2.32,2,2.58,2.84,3.51,1.46,1.69,2.32,1.18,1.06-1.24.24-2.44S71.49,71.58,71.49,71.58Z"/><path class="cls-3" d="M74.57,76.87s-.31.6.47,1A3.61,3.61,0,0,1,76.75,82a2.88,2.88,0,0,0,.35-4.57C75.5,76.11,74.63,76.57,74.57,76.87Z"/><path class="cls-4" d="M62.77,63.37c2.14-2.64,4.47-4.36,3.94-4.54s-2.39,1.57-3.36,2.43c-1.17,1.23-2.19,2.14-2.58,2.49l0,0C59.78,64.84,60.63,66,62.77,63.37Z"/><path class="cls-4" d="M67.94,62.38a19.6,19.6,0,0,1,.4,5.45c-.12,2.42.35,3,1,2.61A1.54,1.54,0,0,0,70,68.59l-.34-.91a14.06,14.06,0,0,1-.58-2.82,31.26,31.26,0,0,1-.55-4.76C68.57,58.56,67.53,59.76,67.94,62.38Z"/><path class="cls-4" d="M70.1,71.3c-.68.59.61,2.61,2.62,4.51s1.93.08,1.15-1.29c-.61-.8-1.41-1.78-1.91-2.38S70.57,70.89,70.1,71.3Z"/><path class="cls-4" d="M77.1,77.44a4.21,4.21,0,0,0-1.32-.8.46.46,0,0,0-.4.24c-.31.59,2.15,1.49,1.86,3.87a1.78,1.78,0,0,0,.84-1.43A2.6,2.6,0,0,0,77.1,77.44Z"/><path class="cls-5" d="M65.51,59.7s-2.9,2.6-4.52,4.48A16.77,16.77,0,0,1,65.51,59.7Z"/><path class="cls-5" d="M68.41,60.86s.41,5.45,1.32,7.53C68.87,67.47,68.16,62.42,68.41,60.86Z"/><path class="cls-5" d="M70.78,71.75A26.54,26.54,0,0,1,74,75.4,11,11,0,0,0,70.78,71.75Z"/><path class="cls-5" d="M76.11,77.07a2.82,2.82,0,0,1,1.62,2.73A2.17,2.17,0,0,0,76.11,77.07Z"/><path class="cls-3" d="M71.88,62.57a4.62,4.62,0,0,0,.57-.35,9,9,0,0,0,1.65-1.92c.53-.73,1-1.5,1.5-2.24,1.42-2.1,2.54-3.83,3-3.8s1.22.51-.21,2.44a19.92,19.92,0,0,0-2.27,4.14c-.71,1.52-.95,2.91-3.49,3.05-.37,0-1.19.09-1.43-.31s.17-.63.36-.77A3.06,3.06,0,0,1,71.88,62.57Z"/><path class="cls-3" d="M80,57s1.57,4.9,2.17,7.17c.42,1.36.6,1.47,1.05,1.68A1,1,0,0,1,83.79,67a2,2,0,0,1-2,1.47c-1.26,0-1.16-.95-.95-1.44s-.17-1.44-.45-2.87-1.37-4.86-1.72-6-.73-2.83.32-3.25S79.77,56.25,80,57Z"/><path class="cls-3" d="M83.31,69.05s2,1.72,2.66,2.41.63.66.66,1.33.74.74,1.44.11,1.12-1.29-.21-2.52S83.72,66.71,83,67.23,83.09,68.91,83.31,69.05Z"/><path class="cls-3" d="M88.06,72.9s1.57,2.17.21,4.13c1.75-.24,1.86-2.44,1.65-3.57C89.6,71.85,87.71,71.57,88.06,72.9Z"/><g class="cls-30"><path class="cls-3" d="M72.09,62.51c-1.35,1,1.31.44,2.7-1.27s3.3-5.56,2.9-5.6S76.4,56.87,76.28,57l-.68,1c-.51.75-1,1.51-1.5,2.24a9,9,0,0,1-1.65,1.92l-.17.11A1.09,1.09,0,0,1,72.09,62.51Z"/></g><g class="cls-30"><path class="cls-3" d="M79.17,55.4c-.4.16.07,2.63,1,5.41s1.71,5,1.43,5.8.36,1.19.72.59.32-.68,1-.59a.5.5,0,0,0,.51-.18.92.92,0,0,0-.53-.59c-.45-.21-.63-.32-1.05-1.68-.25-1-.68-2.4-1.09-3.74A8.72,8.72,0,0,1,79.8,57.3C79.52,55.64,79.56,55.24,79.17,55.4Z"/></g><g class="cls-30"><path class="cls-3" d="M83.58,67.6c-.36.28,2.11,2,3.06,3s1.92.88,1.22-.24c-.63-.58-1.59-1.43-2.5-2.11h0S83.93,67.32,83.58,67.6Z"/></g><g class="cls-30"><path class="cls-3" d="M89.92,73.46a2,2,0,0,0-.32-.76c-.21-.19-.55-.45-.82-.29s1.11,1.79.32,3.69a1.91,1.91,0,0,0,.66-.32A4.57,4.57,0,0,0,89.92,73.46Z"/></g><path class="cls-5" d="M76.76,56.53A40.88,40.88,0,0,1,73.05,62C74.11,61.5,76.56,57.14,76.76,56.53Z"/><path class="cls-5" d="M79.74,57.67s1.88,5.22,2.45,7A42.72,42.72,0,0,1,79.74,57.67Z"/><path class="cls-5" d="M84.18,67.86s2.49,1.8,3.71,2.85A10.88,10.88,0,0,0,84.18,67.86Z"/><path class="cls-5" d="M89.32,72.72a3.69,3.69,0,0,1,.24,2.89A2.42,2.42,0,0,0,89.32,72.72Z"/><path class="cls-31" d="M75.62,63.08l-1.47.55A13.94,13.94,0,0,0,75.62,63.08Z"/><path class="cls-3" d="M73,63.94a2.05,2.05,0,0,0-1,.43q1.09-.37,2.09-.74C73.8,63.75,73.42,63.85,73,63.94Z"/></g></g></g></svg>