<svg xmlns="http://www.w3.org/2000/svg" viewBox="0 0 100 100"><defs><style>.cls-1{isolation:isolate;}.cls-2{fill:#e5c6b7;}.cls-3{fill:#d69c7a;}.cls-10,.cls-19,.cls-20,.cls-23,.cls-4,.cls-7{mix-blend-mode:multiply;}.cls-5{opacity:0.3;}.cls-12,.cls-21,.cls-24,.cls-5,.cls-8{mix-blend-mode:screen;}.cls-6,.cls-7,.cls-8{fill:#d8a182;}.cls-12,.cls-8{opacity:0.6;}.cls-9{fill:#fff;}.cls-10,.cls-13,.cls-23{opacity:0.5;}.cls-11{fill:#ce885f;}.cls-14{fill:#ed8480;}.cls-15{fill:#eb566c;}.cls-16{fill:#c0595a;}.cls-17{fill:#e27f7f;}.cls-18,.cls-21{fill:#f79797;}.cls-19{fill:#d86666;}.cls-20{fill:#c6665c;opacity:0.8;}.cls-22,.cls-23,.cls-24{fill:#99898c;}</style></defs><title>Asset 13</title><g class="cls-1"><g id="Layer_2" data-name="Layer 2"><g id="Layer_1-2" data-name="Layer 1"><rect class="cls-2" width="100" height="100"/><path class="cls-3" d="M44,64.16S32.24,54.49,31.16,55c0,0-.89,11,6.94,23.17a2.54,2.54,0,0,0,3.26-1.21C41.08,75,40.94,67.15,44,64.16Z"/><g class="cls-4"><path class="cls-3" d="M44,64.16S32.24,54.49,31.16,55a36.56,36.56,0,0,0,2.32,13.78h0s-2.31-8.8.55-9.13,6.49,3.63,6.05,8.58C39.7,73,39.07,79,36.53,75.49c.48.87,1,1.75,1.58,2.64a2.54,2.54,0,0,0,3.26-1.21C41.08,75,40.94,67.15,44,64.16Z"/></g><g class="cls-5"><path class="cls-6" d="M33.07,63S32.93,67.37,36,73.21c1.88,3.21,2.84-2.72,1.91-6.44S33.25,60.24,33.07,63Z"/></g><path class="cls-3" d="M75.09,58.46C74.23,58.1,65,65,65,65a9.92,9.92,0,0,1,1,7.45C65.7,73.6,65.94,74,65.94,74s1.06,1.21,2.77-.12C68.71,73.9,76.31,65.25,75.09,58.46Z"/><g class="cls-4"><path class="cls-3" d="M75.09,58.46C74.23,58.1,65,65,65,65a10.51,10.51,0,0,1,1.19,3.25,4.13,4.13,0,0,1,2.46-3.71c3-1.19,4.91-.59,2.79,3.47s-5.48,6.5-5.25,3.66c-.05.26-.12.52-.2.78C65.7,73.6,65.94,74,65.94,74s1.06,1.21,2.77-.12C68.71,73.9,76.31,65.25,75.09,58.46Z"/></g><path class="cls-6" d="M90,43.57c-.42-7.34-3.52-11.28-9.7-16.8s-10.13-6.49-15.76-6.37S49,25.68,43.75,28.84a20.36,20.36,0,0,1,3.88,12.08c-.13,4.91-13.91,13-16.39,13.27a4.93,4.93,0,0,1-1.55,1.42,3.75,3.75,0,0,0,.43-.18c1.33-.66,3.32.72,6.94,4.1a24.5,24.5,0,0,0,12.48,6.33c1.57,1.21,1.81,8.68,1.87,12.61a1.32,1.32,0,0,0,1.09,1,2.51,2.51,0,0,0,1.81-.39A96.64,96.64,0,0,0,61.47,66c5.85-.36,11.44-4.8,13.07-7.24a24.92,24.92,0,0,1,5.21,16.08,3.41,3.41,0,0,0,4-.47h0c.13-.7.78-2.35,2.13-6.14C87.89,62.19,90.38,50.91,90,43.57Z"/><path class="cls-6" d="M85.13,25.53c-1.88-1.35-4.51-1.41-5.56.88l1,1.21s1.41-3.36,3.88-1.44c-.74.34-1.83,2.51,0,3.4s2.85-1.68,1.46-3.36c.77-.31,1.21-.08,1.38-.45S85.76,25.32,85.13,25.53Zm-.2,1.24s1,1,.38,1.84S83.47,27.83,84.93,26.76Z"/><path class="cls-7" d="M80,26.24c.16.24.44.86.77.24a2.33,2.33,0,0,1,1.88-1.22c.8-.14,2.5.74,2.09,1a2.29,2.29,0,0,0-.82,3c-1.11-1-.16-2.8.5-3.1-2.47-1.92-3.88,1.44-3.88,1.44l-1-1.21a3.12,3.12,0,0,1,1.11-1.33C80.07,25.55,79.91,26.12,80,26.24Z"/><path class="cls-8" d="M85.2,29.58s.4-.14.71-.88c.47-1.11-.23-2.52-1.73-3.46-.56-.29.63-.2,1.62,1.15S86.26,29.72,85.2,29.58Z"/><path class="cls-7" d="M87.22,25.78v0l-.06-.07a2.63,2.63,0,0,0-1.62,0c-.11,0-.11,0-.38-.19C85.79,25.32,87.39,25.41,87.22,25.78Z"/><path class="cls-7" d="M84.95,28.84s-.59.17-.92-.57.56-1.7.9-1.5a1.5,1.5,0,0,0-.69,1.3C84.33,28.55,84.55,28.84,84.95,28.84Z"/><path class="cls-9" d="M86,29.06s1.13-1.63-1-3.51C86.06,26.28,86.91,27.75,86,29.06Z"/><g class="cls-10"><path class="cls-6" d="M90,43.57c-.42-7.31-3.5-11.25-9.64-16.74a24.76,24.76,0,0,1,7.76,15.62C89,51,85.9,64.34,83,64s-3.86-2.29-7.36-6.64C68.89,49.87,72,42.75,70,43s-2.53,5.67-.48,9.41,2.53,6.51-.72,8-5.85,1.18-6.85-4.7-3.44-6.24-2.08-1.36c2.71,13.21-7.24,20.05-8,13.9s-6.69-9.74-8.05-11.55-1.63-1.36.45,2.35c2.8,4.16.82,4.15-4.25.81-6.24-5.25-3.71-6.6,4-11.75,8-5.61,5.43-12.57,3.44-16.28-1.81-3.37-.33-4.65,2.33-6.28-2.28,1.17-4.38,2.35-6,3.34a20.36,20.36,0,0,1,3.88,12.08c-.13,4.91-13.91,13-16.39,13.27a4.93,4.93,0,0,1-1.55,1.42,3.75,3.75,0,0,0,.43-.18c1.33-.66,3.32.72,6.94,4.1a24.5,24.5,0,0,0,12.48,6.33c1.57,1.21,1.81,8.68,1.87,12.61a1.32,1.32,0,0,0,1.09,1,2.51,2.51,0,0,0,1.81-.39A96.64,96.64,0,0,0,61.47,66c5.85-.36,11.44-4.8,13.07-7.24a24.92,24.92,0,0,1,5.21,16.08,3.41,3.41,0,0,0,4-.47h0c.13-.7.78-2.35,2.13-6.14C87.89,62.19,90.38,50.91,90,43.57Z"/></g><path class="cls-11" d="M89.52,51.86a100.41,100.41,0,0,1-3,12.55c-2.05,6.69-6,10.52-6.32,5.55s-4-10.34-7.09-13.58a13.08,13.08,0,0,1-3.54-10.91c.26-.9-.17-1.41-.6-.3-1.19,4.39,1.75,9.54,3.75,11.8s-2.85,5.37-5.84,6.64-4.39,1-4.6-1.83A41.56,41.56,0,0,0,61,53.26c-.81-2.77-1.19-1.36-.47,1.06,1.15,5.84.81,10.52-.51,13.59a51.77,51.77,0,0,1-5.88,9.8c-1.66,2-2.17-.51-2.47-4.6s-.38-5.41-2.09-8.31A69.3,69.3,0,0,0,44,57.35c-.81-1-.64-.17,1,2.09s2.85,3.83,1.36,4.43c-.91.36-3-.3-4.57-.87a23.09,23.09,0,0,0,7.79,2.85c1.57,1.21,1.81,8.68,1.87,12.61a1.32,1.32,0,0,0,1.09,1,2.51,2.51,0,0,0,1.81-.39A96.64,96.64,0,0,0,61.47,66c5.85-.36,11.44-4.8,13.07-7.24a24.92,24.92,0,0,1,5.21,16.08,3.41,3.41,0,0,0,4-.47h0c.13-.7.78-2.35,2.13-6.14a93.77,93.77,0,0,0,3.64-16.31Z"/><g class="cls-4"><path class="cls-11" d="M48.13,41a14.39,14.39,0,0,0-2.23-10c-.69-1.22-1.18-2-.76-3l-1.39.82a20.36,20.36,0,0,1,3.88,12.08c-.13,4.91-13.91,13-16.39,13.27a4.93,4.93,0,0,1-1.55,1.42,3.75,3.75,0,0,0,.43-.18,1.81,1.81,0,0,1,1.39,0A13.2,13.2,0,0,1,34,53.69C38,51.53,47.48,46.34,48.13,41Z"/></g><path class="cls-6" d="M31.23,54.18c2.49-.26,16.26-8.36,16.39-13.27a20.36,20.36,0,0,0-3.88-12.08c3.4-2.79,2.06-12.19,1.7-12.37s-2.55.73-5.21,2.61-4.31,4.79-3.09,7.82c-3.94-2.42-8.37.18-10.49,2.37a36.58,36.58,0,0,0-4.43,6.43c-1.38-.07-3.63,1.94-4.77,2.9a7.59,7.59,0,0,1-4.52,2.35c-2.89.6-3,4.16-2.89,8s5.07,4,9,3.86C21.55,54,23.24,54.39,25.53,54c1.78,1.67,3,2,4.15,1.63A4.93,4.93,0,0,0,31.23,54.18Z"/><g class="cls-12"><path class="cls-6" d="M25.68,35.18a18.91,18.91,0,0,1,9.67,1c2.54,1.07,5.43-.24,4.46-4s-5.56-7-10-4.57C25.95,30,23,35.43,25.68,35.18Z"/></g><g class="cls-10"><path class="cls-6" d="M39.05,29.36s-2.9-4.2-.74-7.34c2.59-3.76,5.36-3.7,5.36-3.7a6.81,6.81,0,0,1,.06,7.15A12,12,0,0,1,39.05,29.36Z"/></g><g class="cls-10"><path class="cls-6" d="M43.75,28.84c3.4-2.79,2.06-12.19,1.7-12.37a.51.51,0,0,0-.3,0c.4,2.52,1,8.74-1.82,11.21-2.65,2-2.89,3.38-3,4S42,30.21,43,29.9s2.11,1.69,2.84,5.55-1,3-3,2.05a5.74,5.74,0,0,0-4.34-.24c3.74.36,6.63,1.33,6.69,4s-2.59,5.25-6.33,8.08S32,53.85,32.65,52.46c.48-1.33-1.75,1.87-2.65,1.81s1-5.07,2.11-4.94,3.38-.36,3.62-1.09-4,.9-6-2.65c-.84-1.09-.54,1.27.18,2.35s-.42,3.38-3,4.7-4,.85-5.19.3.9-.42,1.69-.9-2.11.18-1.69-2a8.11,8.11,0,0,0-3.86-8.75c-1-.6.42-2.23,2.47-4s10.43-2,14.48-.54c-2.65-1.27-8.82-1.79-10.93-1.61-.78-.06,1.58-5.57,5-7.62a4,4,0,0,0,.58-.42,12.33,12.33,0,0,0-2.9,2.18,36.58,36.58,0,0,0-4.43,6.43c-1.38-.07-3.63,1.94-4.77,2.9a7.59,7.59,0,0,1-4.52,2.35c-2.89.6-3,4.16-2.89,8s5.07,4,9,3.86C21.55,54,23.24,54.39,25.53,54c1.78,1.67,3,2,4.15,1.63a4.93,4.93,0,0,0,1.55-1.42c2.49-.26,16.26-8.36,16.39-13.27A20.36,20.36,0,0,0,43.75,28.84Z"/></g><path class="cls-6" d="M25.49,30.65a3.86,3.86,0,0,1-4.37-3.6c-.63-4.16-1.69-8.6-1.41-8.67s3.6,2,6,3.38,3.67,2.82,4.09,5.22A44.29,44.29,0,0,0,25.49,30.65Z"/><g class="cls-10"><path class="cls-6" d="M26.71,22.39c1.19.91,1.82,2.26,1,2.67s-2.41-1.1-3.58-2.15A32.91,32.91,0,0,1,20.82,20c-.54-.75,0,.51.39,1.12s-1.09,5.49,2.26,7.45c2.08.82.78,2-.69.82-1-.79-1.66-2.88-2-4.13.1.6.2,1.2.29,1.79a3.86,3.86,0,0,0,4.37,3.6A44.29,44.29,0,0,1,29.79,27,6.58,6.58,0,0,0,26.71,22.39Z"/></g><g class="cls-12"><path class="cls-6" d="M20.89,19.26s5.43,2.68,6.09,3.88-.18,1.33-2.23-.12S20,19.07,20.89,19.26Z"/></g><g class="cls-13"><path class="cls-9" d="M21.35,19.63a31.54,31.54,0,0,1,4.81,3.26C26.88,23.51,24.48,20.64,21.35,19.63Z"/></g><path class="cls-11" d="M27.83,34.43c0,.6-.29,1.06-.54,1s-.41-.54-.36-1.14.29-1.06.54-1S27.88,33.83,27.83,34.43Z"/><ellipse class="cls-9" cx="27.53" cy="34.06" rx="0.43" ry="0.2" transform="translate(-7.32 60.58) rotate(-88.33)"/><path class="cls-11" d="M34.46,34.85c-.05.6-.29,1.06-.54,1s-.41-.53-.36-1.13.29-1.06.54-1S34.51,34.25,34.46,34.85Z"/><path class="cls-9" d="M34.36,34.49c0,.24-.1.42-.21.42s-.2-.2-.19-.43.1-.42.21-.42S34.36,34.25,34.36,34.49Z"/><g class="cls-10"><path class="cls-6" d="M26.12,32.37s1.53-1.78,2.6.08C28.39,30.8,27.11,30,26.12,32.37Z"/></g><g class="cls-10"><path class="cls-6" d="M32.42,32.15s1.53-1.78,2.6.08C34.69,30.58,33.41,29.79,32.42,32.15Z"/></g><path class="cls-11" d="M26.1,32.14s1.53-1.78,2.6.08C28.37,30.57,27.09,29.79,26.1,32.14Z"/><path class="cls-11" d="M32.4,31.92s1.53-1.78,2.6.08C34.67,30.35,33.39,29.57,32.4,31.92Z"/><path class="cls-11" d="M30.27,51c.64-1.4.87-2.39,1.6-2.22,1.84.35,4-.38,3.12-.35-4.61.67-5.07-2.48-5.1-2.19A3.17,3.17,0,0,0,30.62,48c.52.64.35.49-.5,2.36-.79,2.07-3.8,3.23-5.47,3.73.28,0,.57-.07.88-.12a10.5,10.5,0,0,0,1.35,1.09C28.62,55.15,29.65,52.35,30.27,51Z"/><g class="cls-13"><path class="cls-9" d="M24.84,35.57s6.3-1.15,10.35,1.07C33.34,35.48,30.35,34.49,24.84,35.57Z"/></g><path class="cls-14" d="M26.71,28.73a6.54,6.54,0,0,0-3-5.59,9.77,9.77,0,0,1-2.18-1.82s-.63,4.54,1.52,6.4A5.74,5.74,0,0,0,26.71,28.73Z"/><g class="cls-10"><path class="cls-14" d="M23.75,23.15a9.77,9.77,0,0,1-2.18-1.82s-.54,4,1.13,6c0,0-.9-3-.24-3.74s2.83,2.35,2.83,3.44,0,1.51-1.15,1.21a1,1,0,0,0-.27,0,5.74,5.74,0,0,0,2.83.56A6.54,6.54,0,0,0,23.75,23.15Z"/></g><path class="cls-14" d="M43.38,18.87S35.12,21.22,39.28,29C41.81,26.71,45.91,25.14,43.38,18.87Z"/><path class="cls-15" d="M29.86,51.31a8.39,8.39,0,0,1-3.93,2.55c.58.7,1.14,1.06,1.86.6A7.91,7.91,0,0,0,29.86,51.31Z"/><g class="cls-10"><path class="cls-16" d="M25.93,53.86a4,4,0,0,0,.41.44,1,1,0,0,1,.42-.11c1.06,0,1.88-.88,2.68-1.94a7.45,7.45,0,0,0,.41-.93A8.39,8.39,0,0,1,25.93,53.86Z"/></g><path class="cls-17" d="M20.1,45c-1.75-3.26-4.52-4.7-6.57-4.16-.41.11-.76.19-1.08.26C10,42,9.92,45.33,10,49c.11,3.48,4.15,3.92,7.86,3.88l.4,0C20.52,52.82,21.85,48.24,20.1,45Z"/><g class="cls-10"><path class="cls-17" d="M18.84,47.27a9.32,9.32,0,0,0-3.5-5.61,2.17,2.17,0,0,1-.79-1,3.43,3.43,0,0,0-1,.11c-.41.11-.76.19-1.08.26C10,42,9.92,45.33,10,49c.11,3.48,4.15,3.92,7.86,3.88l.4,0c2.23,0,3.56-4.59,1.81-7.84a10.85,10.85,0,0,0-.79-1.26C21.65,47.57,19.25,49.23,18.84,47.27Z"/></g><path class="cls-18" d="M18.51,48.37c-.77-3.63-2.81-6.91-5.33-7.25a2,2,0,0,0-1.32.26,2.83,2.83,0,0,0-.58.49,4.66,4.66,0,0,0-.85,1.6A18.24,18.24,0,0,0,10,49c.07,2.06,1.5,3.05,3.43,3.51C17.78,53.16,19.26,51.89,18.51,48.37Z"/><path class="cls-19" d="M11,45.59a2.77,2.77,0,0,1,.29,2.12c-.18,1.14-.14,1.82.41,1.69C12.7,49.15,12.09,46.69,11,45.59Z"/><path class="cls-19" d="M14.49,45.74A2.77,2.77,0,0,1,15,47.82c-.06,1.15.05,1.82.59,1.63C16.61,49.09,15.74,46.72,14.49,45.74Z"/><g class="cls-10"><path class="cls-18" d="M18.51,48.37c-.77-3.63-2.81-6.91-5.33-7.25a2,2,0,0,0-1.32.26,2.83,2.83,0,0,0-.58.49,3.44,3.44,0,0,0-.29.38c1.62-2.2,4.75.61,6,3s-.18,3.24-.88,1.83-2.47-2.53-1.94-1.59.59,2.18,0,2.59-1.35-.06-1.88-1.3c-.62-1.44-1.88-2.3-1.53-1.41.59,1.06.41,3-.24,3.06-.31,0-.43-.64-.47-1.34,0,.62,0,1.26,0,1.91.07,2.06,1.5,3.05,3.43,3.51C17.78,53.16,19.26,51.89,18.51,48.37Z"/></g><path class="cls-20" d="M10.24,49.69s2.47,4.3,8,1.71C17,52.58,12.12,54,10.24,49.69Z"/><path class="cls-21" d="M12,42.21s-1.59.94-1.71,4.65C9.83,44.74,10.59,42.27,12,42.21Z"/><g class="cls-10"><path class="cls-14" d="M39.44,26.25a4.91,4.91,0,0,1,2.24-5.49c2.14-1.12,2.39,2.75,2.39,2.75h0a8,8,0,0,0-.68-4.65S35.12,21.22,39.28,29c1.22-1.1,2.8-2,3.83-3.41C42.29,26.43,39.88,28,39.44,26.25Z"/></g><g class="cls-12"><path class="cls-6" d="M38.43,21.45s2.08-3,5.17-3.47c.54-.08,1.39,1.77,1.43,3.59.08,1.66.31-1.43,0-3.78-.23-1.12-.69-.81-1.66-.31S38.67,19.56,38.43,21.45Z"/></g><g class="cls-12"><path class="cls-6" d="M25.92,51.13c2.43-.32,3.08-2.8,2.62-5s1-3.17,1.18-2.35,1,2.53,4.7,3.35S41.3,42.9,40.12,40s-6-3.88-12.23-4.15-8.53,3.21-8.53,3.21c-1,1.36,1.4,2.39,2.57,5.47S22.48,51.58,25.92,51.13Z"/></g><g class="cls-13"><path class="cls-9" d="M24.16,36.66s-5,.8-2.76,5.34C19.86,40.28,19.72,37,24.16,36.66Z"/></g><g class="cls-13"><path class="cls-9" d="M32.44,27a10.37,10.37,0,0,0-7,5.88C25.74,30,29.36,26.88,32.44,27Z"/></g><g class="cls-12"><path class="cls-6" d="M54.42,24.54s10.15-5.07,16.52-2.6S85.43,32,86.73,40s-.13,19.51-5.07,19.38-9.89-10.67-9.63-17c.13-2.6-7.28-1.69-4.55,7.67,1.69,5.2,1.69,8.2-.78,8.59s-4.29-5.07-5.2-8.33-3.38-1.56-2.86,2.34.26,12.88-3.12,14.7-2.08-3.77-7.29-9c-4-4-5.6-7.94-2.34-10A10.48,10.48,0,0,0,50.69,37C49.52,31.83,48.56,27.79,54.42,24.54Z"/></g><g class="cls-13"><path class="cls-9" d="M59.6,23.69s11.7-5.55,21.59,7.12C80.35,27.79,71.31,17.9,59.6,23.69Z"/></g><g class="cls-13"><path class="cls-9" d="M83,33a20.81,20.81,0,0,1,3.62,10.13C87,49,88.43,37.38,83,33Z"/></g><g class="cls-13"><path class="cls-9" d="M46.69,55.24a20.51,20.51,0,0,1,6.06,9C53.63,66.69,52.41,58.21,46.69,55.24Z"/></g><g class="cls-5"><path class="cls-6" d="M66.75,67.92a27.24,27.24,0,0,1-.22,3.64c-.22,1.1,2.3-.2,3-3.25C70.44,64,66.64,65.27,66.75,67.92Z"/></g><path class="cls-22" d="M38.11,78.13a3.77,3.77,0,0,0-1.46,2c-.5,1.49.44,1.91,1,1.63a3.72,3.72,0,0,0,3.87-.53c1-1,.75-3.23-.11-4.36A2.54,2.54,0,0,1,38.11,78.13Z"/><g class="cls-10"><path class="cls-22" d="M41.37,76.92a2.54,2.54,0,0,1-3.26,1.21,2.55,2.55,0,0,0-.47.39A4.13,4.13,0,0,0,39,78.7c1.89,0,2.34-1.44,2.44.38a2.35,2.35,0,0,1-2.72,2.53c-1.41-.1-1-1.19-.61-2.34-.61.67-.87,2.08-1.25,1.83S36.73,80,36.73,80h0l-.07.19c-.5,1.49.44,1.91,1,1.63a3.72,3.72,0,0,0,3.87-.53C42.48,80.24,42.23,78,41.37,76.92Z"/></g><path class="cls-22" d="M65.94,74s-1.84,1.84-1.75,3.2a.75.75,0,0,0,1.09.57c1.54.6,3.71,0,3.83-1.69s-.39-2.2-.39-2.2C67,75.23,65.94,74,65.94,74Z"/><path class="cls-23" d="M68.71,73.9C67,75.23,65.94,74,65.94,74l-.21.22c.74,1.22,2.65.06,2.67,1.18a1.94,1.94,0,0,1-2,2c-1-.07-.84-.9-.66-1.81-.52.66-.36,1.79-1,1.63s-.19-1.22-.06-1.58a3,3,0,0,0-.5,1.59.75.75,0,0,0,1.09.57c1.54.6,3.71,0,3.83-1.69S68.71,73.9,68.71,73.9Z"/><path class="cls-22" d="M52.49,79.45a1.32,1.32,0,0,1-1.09-1c-3.86,2.89-3,4.4-1.81,4.4-.06.36.24.85,2.11.66,2.41-.3,2.89-3,2.59-4.46A2.51,2.51,0,0,1,52.49,79.45Z"/><path class="cls-22" d="M79.76,74.81a7,7,0,0,0-2.16,3c-.45,1.2,1,1.13,1,1.13s.79.75,3.22.27,1.91-4.09,1.91-4.63a1.39,1.39,0,0,1,0-.23h0A3.41,3.41,0,0,1,79.76,74.81Z"/><g class="cls-10"><path class="cls-22" d="M54.3,79.06a2.51,2.51,0,0,1-1.81.39,1.32,1.32,0,0,1-1.09-1l-.23.18a2.63,2.63,0,0,0,1.13,1.13c.9.38,1.35-.22,1.12.9s-.83,2.24-2.21,2.24-.93-1.6-.26-2.95c-.74.74-1.41,2.18-1.76,1.89s.05-1.16.21-1.57c-1.44,1.7-.73,2.59.19,2.59-.06.36.24.85,2.11.66C54.12,83.22,54.6,80.56,54.3,79.06Z"/></g><path class="cls-23" d="M83.73,74.56a1.39,1.39,0,0,1,0-.23h0a3.41,3.41,0,0,1-4,.47,2,2,0,0,0-.28.21,1.86,1.86,0,0,0,2.09.74c1.07-.21,1.44-.37,1.42.76a2.67,2.67,0,0,1-2.87,2.39c-1.51-.27-1.32-1.42-.74-2.52-.72.7-1,2-1.2,1.84-.6-.45.27-2,.27-2h0a7.51,7.51,0,0,0-.84,1.57c-.45,1.2,1,1.13,1,1.13s.79.75,3.22.27S83.73,75.11,83.73,74.56Z"/><path class="cls-24" d="M37.72,78.95a3.9,3.9,0,0,0-.78,1.63C36.85,81.19,36.41,79.68,37.72,78.95Z"/><path class="cls-24" d="M50.82,79.18a6.29,6.29,0,0,0-1.26,2A2.31,2.31,0,0,1,50.82,79.18Z"/><path class="cls-24" d="M65.48,75a7.18,7.18,0,0,0-.6,1.44c-.14.61-.28-.09.09-.93S65.72,74.72,65.48,75Z"/><path class="cls-24" d="M79.08,76a7.11,7.11,0,0,0-.81,1.34c-.22.58-.26-.13.23-.91S79.36,75.74,79.08,76Z"/></g></g></g></svg>