<svg xmlns="http://www.w3.org/2000/svg" viewBox="0 0 100 100"><defs><style>.cls-1{isolation:isolate;}.cls-2{fill:#e5cfb7;}.cls-3,.cls-5,.cls-8{fill:#cc7206;}.cls-17,.cls-4,.cls-7,.cls-9{fill:#782600;}.cls-14,.cls-17,.cls-18,.cls-22,.cls-5,.cls-6{mix-blend-mode:multiply;}.cls-16,.cls-17,.cls-18,.cls-25,.cls-6{opacity:0.5;}.cls-16,.cls-23,.cls-25,.cls-26,.cls-7,.cls-8{mix-blend-mode:screen;}.cls-10,.cls-9{opacity:0.8;}.cls-11,.cls-25{fill:#f91;}.cls-12,.cls-18{fill:#c97106;}.cls-13,.cls-26{fill:#fed57b;}.cls-15{fill:#d35e00;}.cls-16,.cls-20,.cls-23{fill:#fff;}.cls-19{fill:#762b04;}.cls-21,.cls-22{fill:#573220;}.cls-24{fill:#8b1b00;}</style></defs><title>Asset 11</title><g class="cls-1"><g id="Layer_2" data-name="Layer 2"><g id="Layer_1-2" data-name="Layer 1"><rect class="cls-2" width="100" height="100"/><path class="cls-3" d="M31.34,78.49s-9.59-1.31-11-7.11C19.69,67.8,24,62.28,25.06,60s1.8-3-.61-6.2l.06-.09a.83.83,0,0,1-.88.25,1,1,0,0,1,.19.15A3.64,3.64,0,0,1,25,57.19c-.28,1.46-2.8,5.77-4.74,8.88s-2.25,6,.95,9.2,7.15,4.93,10.19,4.77C32.08,80.06,32.26,79.84,31.34,78.49Z"/><path class="cls-4" d="M24.52,53.71c.74-1,1-1.31.29-1.89s-.55-.95-.47-1.66a3,3,0,0,0-.55-1.62,3.52,3.52,0,0,0-.24,1.18c-.24-2-3.36-3.51-4.74-3.35,1.34.59.91,1,.28,2.29s-1.15,2.53-.28,3.79a1.88,1.88,0,0,0,2.65,2c.78-.24,1.26-.4,1.57-.47a.61.61,0,0,1,.33-.05.48.48,0,0,1,.28.06A.83.83,0,0,0,24.52,53.71Z"/><path class="cls-5" d="M31.34,78.49s-.7-.1-1.74-.35c0,.5-.13,1.07-1.4.7-2-.59-9.06-3.05-9.33-8.85-.12,1.74.55,3.47,2.39,5.29,3.2,3.16,7.15,4.93,10.19,4.77C32.08,80.06,32.26,79.84,31.34,78.49Z"/><g class="cls-6"><path class="cls-4" d="M24.81,51.82c-.75-.59-.55-.95-.47-1.66a1.47,1.47,0,0,0,0-.44c-.23.7-.63,1.22-.21,1.62.62.59.79,1.42.14,1.38s-.69-1.21-1.31-.28c-1,1.76-3.76.48-2.59-.79-1.1.31-1.69-1.21-.79-2.31s.79-2.14.48-2.52c.44-.14,1.47.38,1.78.54a5.19,5.19,0,0,0-3-1c1.34.59.91,1,.28,2.29s-1.15,2.53-.28,3.79a1.88,1.88,0,0,0,2.65,2c.78-.24,1.26-.4,1.57-.47a.61.61,0,0,1,.33-.05.48.48,0,0,1,.28.06.83.83,0,0,0,.88-.25C25.26,52.68,25.54,52.4,24.81,51.82Z"/></g><path class="cls-7" d="M20.81,47.27a4.8,4.8,0,0,1,2.53,3.31C23.66,49.52,22.7,47.82,20.81,47.27Z"/><path class="cls-8" d="M21.88,64.36s-3.46,4-2.07,7.56C18.59,69.85,19.09,67.36,21.88,64.36Z"/><path class="cls-3" d="M69,62.28s1.86-2.41,2.69-2.14S76,67.8,72.1,71.8c-3.51,3.31-8.69,5.93-9.38,8.76,3.45-1.79,4.28-1.45,5.17,0,1.93-.48,3.24,1.93,2.69,4.07s-2.69,3.93-4.21,3c-1.66.83-9.1-.41-10.76-.48s-1.24-.48-3.79-.35-3,.62-4.35-.21.21-2.69,2.48-3.93S64.59,70.69,69,62.28Z"/><g class="cls-6"><path class="cls-3" d="M71.69,60.14c-.83-.28-2.69,2.14-2.69,2.14-4.42,8.41-16.76,19.17-19,20.41s-3.86,3.11-2.48,3.93,1.79.35,4.35.21,2.14.28,3.79.35,9.1,1.31,10.76.48c1.52.9,3.66-.9,4.21-3s-.76-4.55-2.69-4.07c-.9-1.45-1.72-1.79-5.17,0,.49-2,3.24-3.91,6-6a22.29,22.29,0,0,1-3,1.48c-3.24,1.31-2.35-2.14-.07-4.9s4-5.72,5.31-7.45,2.83,2.9,2.71,5.16C74.63,64.93,72.34,60.36,71.69,60.14Z"/></g><path class="cls-9" d="M67.9,80.55l0,.07.11.22a3.29,3.29,0,0,1,.15.35l.08.22c0,.08,0,.17.07.25l0,.14s0,.09,0,.14,0,.2.06.3a5.11,5.11,0,0,1,.05.66c0,.11,0,.23,0,.35s0,.24,0,.36l0,.18,0,.18-.07.37c-.06.24-.14.47-.22.7s-.19.44-.29.65l-.34.57c-.11.18-.24.33-.35.48L67,87c-.05.07-.11.12-.16.18l-.27.28-.23.24.19-.27.22-.31a1.82,1.82,0,0,0,.13-.19l.14-.22.15-.24c0-.08.11-.16.15-.25l.29-.57c.09-.2.17-.42.26-.63s.14-.45.2-.68l.07-.35,0-.17,0-.17c0-.12,0-.23,0-.35s0-.23,0-.34,0-.44,0-.64l0-.3v-.14l0-.13,0-.25-.05-.23c0-.14-.07-.26-.1-.36l-.08-.23Z"/><g class="cls-6"><path class="cls-3" d="M69,85.81c-1.1-.47.31-2-.63-3.36,0,1.57-1.68,2.26-4.62,1.89-6.66-.74-1.1-10.07,1.26-13.37a46.5,46.5,0,0,0,5.19-9.18c.45-1.16,1-1.56,1.43-1.66C70.84,59.9,69,62.28,69,62.28c-4.42,8.41-16.76,19.17-19,20.41s-3.86,3.11-2.48,3.93,1.79.35,4.35.21,2.14.28,3.79.35,9.1,1.31,10.76.48c1.36.8,3.21-.55,4-2.37C69.94,85.75,69.44,86,69,85.81Z"/></g><path class="cls-3" d="M33.48,62.28s-3.1-1.52-4.34-.48-3.45,7.31-1.52,12.55c1.45,2.69,3.59,4.14,4.07,5.24-1.1.35-1.66,1.93-1.66,1.93s-3.1-1.31-2.62,3.66c.48,2.62,3.93,3.86,4.76,3.1a3.39,3.39,0,0,0,2.76-.21,2.46,2.46,0,0,0,3.1-1c.55-.83,6.14-2.55,6-5.66S33.48,62.28,33.48,62.28Z"/><g class="cls-6"><path class="cls-3" d="M44,81.45c-.14-3.1-10.55-19.17-10.55-19.17s-3.1-1.52-4.34-.48c-.88.73-2.24,4.08-2.28,7.83.16-1.67.72-5.8,2.51-6.78,2.25-1.23,2.87,2,4.15,5.89s2.25,6.71,1.23,8.45-3,2.23-6.27-1.48c1.32,1.85,2.82,3,3.21,3.88-1.1.35-1.66,1.93-1.66,1.93s-3.1-1.31-2.62,3.66c.48,2.62,3.93,3.86,4.76,3.1a3.39,3.39,0,0,0,2.76-.21,2.46,2.46,0,0,0,3.1-1C38.59,86.28,44.17,84.56,44,81.45Z"/></g><g class="cls-10"><path class="cls-4" d="M30,81.52a3.28,3.28,0,0,0-.13.31c0,.1-.08.22-.13.36s-.08.3-.12.48a5.46,5.46,0,0,0-.09.58,4.66,4.66,0,0,0,0,.65c0,.11,0,.22,0,.34s0,.23.05.35a4.47,4.47,0,0,0,.19.68c0,.11.09.22.13.33s.1.22.16.32a6,6,0,0,0,.37.59c.13.18.27.35.4.51s.27.3.4.43l.18.19.17.16.29.26.26.22-.29-.18-.32-.22-.2-.14-.2-.17c-.15-.11-.29-.26-.45-.4l-.22-.24c-.08-.08-.14-.18-.22-.27a4.84,4.84,0,0,1-.4-.61c-.06-.11-.11-.22-.17-.34s-.1-.23-.14-.35a4.58,4.58,0,0,1-.19-.73,4,4,0,0,1-.06-.73,4.21,4.21,0,0,1,.06-.68,4.63,4.63,0,0,1,.14-.59,4.19,4.19,0,0,1,.36-.83A2.66,2.66,0,0,1,30,81.52Z"/><path class="cls-4" d="M31.69,79.59l.1,0a.79.79,0,0,1,.32-.05,1.3,1.3,0,0,1,.5.12,3,3,0,0,1,.28.16l.14.1.14.12a3.91,3.91,0,0,1,.52.59l.24.35.22.39c.08.13.14.27.21.41a4.59,4.59,0,0,1,.2.43l.18.44,0,.11,0,.12.08.22c0,.15.09.31.13.47s.08.31.1.47a8.86,8.86,0,0,1,.14.92c0,.15,0,.3,0,.44s0,.28,0,.42a7.55,7.55,0,0,1,0,.78,6.27,6.27,0,0,1-.08.65,4.07,4.07,0,0,1-.12.49,1.32,1.32,0,0,1-.06.18A.67.67,0,0,1,35,88l-.06.1,0-.1a.66.66,0,0,0,0-.13,1.66,1.66,0,0,0,0-.18,4.31,4.31,0,0,0,.06-.49c0-.19,0-.41,0-.64s0-.49,0-.76,0-.27,0-.41,0-.29,0-.43-.09-.59-.15-.89-.07-.3-.11-.45-.08-.29-.13-.44l-.07-.23,0-.11,0-.11-.17-.44c-.05-.14-.12-.28-.18-.42s-.12-.28-.19-.41l-.2-.38-.22-.35a4.64,4.64,0,0,0-.46-.59L32.93,80l-.12-.11-.24-.17a1.33,1.33,0,0,0-.46-.16.91.91,0,0,0-.32,0Z"/><path class="cls-4" d="M34.48,82.33s0-.1.07-.27a3.75,3.75,0,0,1,.29-.68,2.17,2.17,0,0,1,.28-.42,1.21,1.21,0,0,1,.47-.36.75.75,0,0,1,.33-.06.77.77,0,0,1,.33.09,1.72,1.72,0,0,1,.5.42,4.1,4.1,0,0,1,.35.52,4.92,4.92,0,0,1,.25.54,5.46,5.46,0,0,1,.29,1,4.3,4.3,0,0,1,.08.73c0,.09,0,.16,0,.21v.07s0-.1,0-.27-.09-.42-.18-.7a7.65,7.65,0,0,0-.37-.95c-.07-.17-.17-.34-.26-.5a3.4,3.4,0,0,0-.33-.47,1.49,1.49,0,0,0-.41-.36.63.63,0,0,0-.23-.07.55.55,0,0,0-.23,0,1.15,1.15,0,0,0-.4.27,3,3,0,0,0-.3.36,5.61,5.61,0,0,0-.37.62Z"/></g><g class="cls-6"><path class="cls-3" d="M44,81.45c-.14-3.1-10.55-19.17-10.55-19.17a10.39,10.39,0,0,0-1.8-.65c1.19,1.56,2.06,4.94,4.14,8,2.76,4,3.49,5.26,4.06,8.26S38,82.34,36.57,81.06c1.33,2,.66,4.33-.25,4.28s-.87-2.7-2-3.26c.77,2,.15,4.43-1.43,4.59s-2.85-.82-3.47-3.06c-.3,1.58.46,3.16-.51,2.85-1.13-.36-1.46-2.53-1.52-3a8.28,8.28,0,0,0,0,1.72c.48,2.62,3.93,3.86,4.76,3.1a3.39,3.39,0,0,0,2.76-.21,2.46,2.46,0,0,0,3.1-1C38.59,86.28,44.17,84.56,44,81.45Z"/></g><path class="cls-11" d="M57.44,89.44a3.38,3.38,0,0,0,3.29-.27A2.07,2.07,0,0,0,63,89.07c.65.65,2.49.11,3.29-2.1s.54-5.83-2.21-4.81c0,0-1.13-2.59-3.18.06-.33-.54-1.24-.54-1.24-.54a12,12,0,0,1,1.84-6c1.94-3.29,5.83-8.58,7.94-13.06S71,54.52,69,49.22s-33.08.08-33.08.08S32.17,55,32.09,58.23,33.27,64.6,37,69.84s6.21,8.25,6.74,12.08a2,2,0,0,0-3.36,1c-.49-.92-1.49-1.47-2.28.41s-1.22,3.53.23,5,2.38,1.69,3.17,1.1a2.41,2.41,0,0,0,3.17,0s2.55.86,3.57-2.44c1.47.4,3.12-.18,4.05-.13s2.67.62,3.34.4A2.87,2.87,0,0,0,57.44,89.44Z"/><g class="cls-6"><path class="cls-12" d="M57.44,89.44a3.22,3.22,0,0,0,3.29-.27A2.07,2.07,0,0,0,63,89.07c.65.65,2.49.11,3.29-2.1s.54-5.83-2.21-4.81c0,0-1.13-2.59-3.18.06-.33-.54-1.24-.54-1.24-.54a12,12,0,0,1,1.84-6c.51-.87,1.16-1.88,1.88-3h0c-2.21,3.4-3.49.92-3.77-1.19s.55-5.79,4-8.92,3.86-8.18,5.43-8.36,1.1,6.53,1.1,6.53v0c1.19-3.68.55-7-1.17-11.54-2-5.29-33.08.08-33.08.08S32.17,55,32.09,58.23c0,.3,0,.6,0,.9l.06,0s1.1-5.89,3.58-6.71,1.66,4.78,4.69,9.38,3.86,8.09,3.86,11-1.66,3.73-5.93-.93c2.89,4.06,4.85,6.76,5.31,10.06a2,2,0,0,0-3.36,1c-.49-.92-1.49-1.47-2.28.41s-1.22,3.53.23,5,2.38,1.69,3.17,1.1a2.41,2.41,0,0,0,3.17,0s2.52.88,3.57-2.38a9.28,9.28,0,0,0,3.42-.16,6.46,6.46,0,0,1,2.16.21,5.86,5.86,0,0,0,1.8.17A3.07,3.07,0,0,0,57.44,89.44Z"/></g><path class="cls-13" d="M42,46.59s-3.14,5-3,6.94a1.33,1.33,0,0,1,1.08-1s-1.52,2.6-.32,4.77c.11-1.19.64-1.27.64-1.27a4.49,4.49,0,0,0,1.18,4.22,1.94,1.94,0,0,1,0-1.18s-.2,1.32,2,2.4a7,7,0,0,1,3.45,4.37,2.22,2.22,0,0,0,0-1.45A9.28,9.28,0,0,1,47.69,67c.21,1.1.62,0,.76-.62s.28,1.52,2.21,2.76c1.1.9,1.93-1.38,3-2.48a4,4,0,0,0,0,2.14,6.12,6.12,0,0,1,3-3.38c2.14-.83,2.28-1.86,2.35-2.41l.28,1s.28-1.31,2.69-2.69,4.48-3.79,4-6.69l.42,1.1a9.67,9.67,0,0,0,.83-4.41C67.07,48.76,42,46.59,42,46.59Z"/><g class="cls-10"><path class="cls-4" d="M40.32,82.93s-.06.1-.13.27a5.31,5.31,0,0,0-.27.75c0,.16-.08.34-.11.52a5.44,5.44,0,0,0-.06.59,5.05,5.05,0,0,0,0,.62,4.77,4.77,0,0,0,.09.64c0,.11,0,.21.08.31s.06.21.1.31.15.4.23.59l.13.27.14.26.14.24.14.22c.09.14.17.27.25.37l.21.29.18.24-.22-.21A3.51,3.51,0,0,1,41,89l-.15-.16-.15-.19c-.11-.13-.21-.28-.32-.44l-.16-.25c-.06-.09-.1-.18-.15-.28a5.4,5.4,0,0,1-.26-.6c0-.11-.07-.22-.11-.32s-.06-.22-.08-.33a4.86,4.86,0,0,1-.09-.68,4.42,4.42,0,0,1,0-.66,4.52,4.52,0,0,1,.1-.61,4.43,4.43,0,0,1,.16-.53,3.81,3.81,0,0,1,.37-.73A2,2,0,0,1,40.32,82.93Z"/><path class="cls-4" d="M43.69,81.92a3.08,3.08,0,0,1,.22.25c.06.09.15.19.22.32l.13.2.13.23c.09.16.18.34.26.54a5.75,5.75,0,0,1,.23.63c0,.11.08.22.1.34l.08.35c0,.12,0,.24.06.36l.05.37c0,.25,0,.49,0,.74s0,.48,0,.71-.06.45-.08.66-.09.4-.12.58a4.32,4.32,0,0,1-.13.48l-.13.37-.11.32.06-.33.07-.38c0-.14,0-.31.08-.49l0-.28c0-.1,0-.2,0-.3s0-.43,0-.65,0-.46,0-.7,0-.48,0-.71l0-.36a3.13,3.13,0,0,0-.06-.35l-.07-.34c0-.11-.06-.22-.08-.33s-.12-.43-.19-.62-.07-.19-.1-.28-.07-.18-.11-.26l-.1-.24-.1-.21c-.06-.13-.13-.24-.18-.34L43.74,82Z"/><path class="cls-4" d="M44.8,84.35a3.84,3.84,0,0,1,.37-.62l.22-.28.13-.15.15-.14c.06,0,.1-.1.17-.14l.09-.06.1-.06.11,0,.12,0h.27a1.12,1.12,0,0,1,.43.24,2.63,2.63,0,0,1,.3.31,4.67,4.67,0,0,1,.42.61,4.4,4.4,0,0,1,.31.65l-.44-.57c-.14-.16-.29-.35-.47-.54a2.87,2.87,0,0,0-.29-.26.87.87,0,0,0-.31-.17.46.46,0,0,0-.32.06,1.76,1.76,0,0,0-.32.2l-.28.24-.25.24-.36.37Z"/></g><g class="cls-10"><path class="cls-4" d="M56.62,85.18a5.22,5.22,0,0,1,.28-.69c.1-.2.22-.43.36-.67s.15-.24.23-.36l.26-.36c.09-.12.19-.23.29-.34a4.56,4.56,0,0,1,.61-.58c.1-.08.21-.15.3-.21a2,2,0,0,1,.27-.15l.12-.05.11,0,.2-.06-.17.1-.09.06-.1.07-.11.09-.12.1-.13.11-.13.12c-.08.09-.18.18-.27.28l-.27.32-.27.34c-.18.23-.35.47-.51.69l-.23.33-.2.29Z"/><path class="cls-4" d="M60.89,82.21a5.52,5.52,0,0,1,.56,1c.07.16.14.34.21.53a6,6,0,0,1,.18.61A6.49,6.49,0,0,1,62,85a6.68,6.68,0,0,1,.05.7,5.38,5.38,0,0,1,0,.7c0,.12,0,.23,0,.34l-.07.33c0,.1-.06.21-.09.31l-.11.29-.12.27-.13.24a4.39,4.39,0,0,1-.26.4l-.23.29-.22.24.17-.27c.05-.09.11-.2.18-.32s.06-.13.1-.2.07-.14.1-.22.07-.16.1-.25l.1-.27.08-.29.07-.3.06-.32c0-.11,0-.21,0-.33a5.51,5.51,0,0,0,0-.67,6.23,6.23,0,0,0,0-.67c0-.22-.06-.44-.1-.65a10.37,10.37,0,0,0-.3-1.13A9.61,9.61,0,0,0,60.89,82.21Z"/><path class="cls-4" d="M64.08,82.16a6.26,6.26,0,0,1,.47,1.1c.06.17.11.36.16.56s.1.41.13.64a6.7,6.7,0,0,1,.08.69,6.23,6.23,0,0,1,0,.72c0,.12,0,.24,0,.36s0,.24-.06.36-.05.23-.09.35l-.05.17-.06.16a2.51,2.51,0,0,1-.14.31,2.6,2.6,0,0,1-.16.28,2.51,2.51,0,0,1-.18.25,2.23,2.23,0,0,1-.18.22,3.87,3.87,0,0,1-.36.34l-.3.23-.28.17.25-.21.27-.26c.09-.11.21-.22.31-.37A1.92,1.92,0,0,0,64,88a2.16,2.16,0,0,0,.15-.25,2.54,2.54,0,0,0,.14-.27c0-.1.09-.19.12-.3a4.63,4.63,0,0,0,.17-.64c0-.11,0-.23.06-.34s0-.23,0-.35a5.89,5.89,0,0,0,0-.69c0-.11,0-.23,0-.34s0-.22,0-.33-.06-.43-.09-.63-.08-.39-.12-.56C64.24,82.61,64.08,82.16,64.08,82.16Z"/></g><g class="cls-14"><path class="cls-12" d="M65.41,87.52c-1-.21,0-2.55-.83-3.38.14,1.86-.41,3.72-1.58,3.45s-.55-2.21-1.34-3.83c.25,1.41-.32,4.45-2.53,4.18s-2.28-2.76-.83-5.24c-.76.48-1,.83-1.52-.14-1.93-3.72-1.72-8.69-1.93-14.62-.9,1.93-.48,8.14.14,10.83s-.07,5.73-3.38,6.07-4.46-1.77-3.62-5c.71-2.77.44-9.79-.73-11.3C48,78,46.45,81.59,44.8,84.35c1.11-1.38,2-1.38,2.48.34s0,3.48-1.08,3.37-.22-1.57-1.07-2.91A2.63,2.63,0,0,1,42.59,88c-1.64.07-2.85-.8-3-3.32-.66,1.61.66,4-.62,3.22a3.3,3.3,0,0,1-1.5-3,3.27,3.27,0,0,0,.77,3.46c1.45,1.45,2.38,1.69,3.17,1.1a2.41,2.41,0,0,0,3.17,0s2.52.88,3.57-2.38a9.28,9.28,0,0,0,3.42-.16,6.46,6.46,0,0,1,2.16.21,5.86,5.86,0,0,0,1.8.17,3.07,3.07,0,0,0,1.87,2.23,3.22,3.22,0,0,0,3.29-.27A2.07,2.07,0,0,0,63,89.07c.61.61,2.28.17,3.15-1.74A.86.86,0,0,1,65.41,87.52Z"/></g><g class="cls-14"><path class="cls-12" d="M40.74,54c-.1.58.68-.58.68-.58s.58,2.14,5.24,2.72,6.11,3.2,4.27,5c-.68.68,3.2.19,4.56-2.91,1.16-1.94,3.3-2,7.18-3,3.24-.81,5.6-2,6.91-4.4-.18-.53-.37-1.08-.59-1.64-2-5.29-33.08.08-33.08.08s-.48.72-1.1,1.8a17.67,17.67,0,0,0,4,.38A1.92,1.92,0,0,1,40.74,54Z"/></g><path class="cls-4" d="M53.56,10s-.46,1.58-3,2.81-3.06,1.53-3.17,2.55l-.3-.92L46.61,16s-.67-1.28-1.28-1.33c.41,2.2-1.48,3-5.11,6s-10,8.17-12.92,7.15c.56,1,.87,1,.87,1a7.2,7.2,0,0,0-4.8,4.49c-1.12,3.58,3.17,5.36.66,7a1.13,1.13,0,0,0,1.12-.15s-2,3.37.1,4.49,5.11-.21,4.44,3.07c.46.15.87-1.38.87-1.38s-.61,3.83,6.28,4.24c3.68.21,4.49.51,4.19,1.94.56.1.92-.61.92-.61s-1.07,2.71,5,3.47c4.29.92,7.1,2.45,4.85,5.36,2.09-.87,2.5-2,3.22-3.22s2-2,4.54-2.4,9-2.14,9.45-5.26a5.2,5.2,0,0,0,.92.87c-.26-.87.31-2.5,3-3s3.27-2.14,3.07-4c.56.82,1.12.56,1.12.56s-1.43-1.12.25-2.2a7.47,7.47,0,0,0,3.47-8.53c.71.21.82.51.82.51s.15-2.2-2.45-4.14a1.54,1.54,0,0,1,1.28.56s0-1.84-3.32-2.76a10.79,10.79,0,0,1-4.65-2.91c-1.38-1.38-10.54-5-9.85-7.41-1,0-1.52,1.24-1.52,1.24s-.69-1.93-1.86-2.21A1.61,1.61,0,0,1,59.48,18a7.76,7.76,0,0,0-2.23-2.46C55.44,14.05,53.68,11.49,53.56,10Z"/><g class="cls-6"><path class="cls-4" d="M79.2,30a1.54,1.54,0,0,1,1.28.56s0-1.84-3.32-2.76a10.79,10.79,0,0,1-4.65-2.91c-1.38-1.38-10.54-5-9.85-7.41-1,0-1.52,1.24-1.52,1.24s-.69-1.93-1.86-2.21A1.61,1.61,0,0,1,59.48,18a7.76,7.76,0,0,0-2.23-2.46,11.48,11.48,0,0,1-1-.91v0a13.06,13.06,0,0,1,3.49,5.24,4.24,4.24,0,0,0,.46-1.74A9.83,9.83,0,0,1,61,20.83s0-.64,1.65-1.38c.74,1.1-.55,2,.46,3.49s.28,3.68.28,3.68l1.75-1.93s.28,3.31,1.29,2.39c0,.64,2.76,2.76,7.08,2s6,4,6,4a7.54,7.54,0,0,0-4.87-1.29C77.51,33,77,37.66,74,40.23c-4-8.74-21.89-8.09-30.55-5.75S33,43.36,34.38,45.1C27,43.17,28.49,37,28.12,38s-1.93,1.2-1.93,1.2,1.29-1.2,0-3.86,2.53-5.66,6.24-6.45a12.24,12.24,0,0,1,6.15.08V27.8l1.1.39.39-2.68.95.87a7.23,7.23,0,0,1,.71-1.81c-.71-1.81-.47-3.86,2.21-5.67s2-2.68,2-2.68,1.34,1.5,1.1,1a2.18,2.18,0,0,1,.08-1.34l.55.87c-.24-.95.39-1.81,3.31-3.55a5,5,0,0,0,2.5-3.13,5.63,5.63,0,0,1-2.93,2.71c-2.5,1.23-3.06,1.53-3.17,2.55l-.3-.92L46.61,16s-.67-1.28-1.28-1.33c.41,2.2-1.48,3-5.11,6s-10,8.17-12.92,7.15c.56,1,.87,1,.87,1a7.2,7.2,0,0,0-4.8,4.49c-1.12,3.58,3.17,5.36.66,7a1.13,1.13,0,0,0,1.12-.15s-2,3.37.1,4.49,5.11-.21,4.44,3.07c.46.15.87-1.38.87-1.38s-.61,3.83,6.28,4.24c3.68.21,4.49.51,4.19,1.94.56.1.92-.61.92-.61s-1.07,2.71,5,3.47c4.29.92,7.1,2.45,4.85,5.36,2.09-.87,2.5-2,3.22-3.22s2-2,4.54-2.4,9-2.14,9.45-5.26a5.2,5.2,0,0,0,.92.87c-.26-.87.31-2.5,3-3s3.27-2.14,3.07-4c.56.82,1.12.56,1.12.56s-1.43-1.12.25-2.2a7.47,7.47,0,0,0,3.47-8.53c.71.21.82.51.82.51S81.8,31.91,79.2,30Z"/></g><path class="cls-11" d="M41,23.89s-.68-1-.54-4-3.34-4.09-7.23-1.08c-3.13,2.72-3.49,6.49-1.5,8.08,1.91,1.11,3.28,1.13,5.93.88a10.41,10.41,0,0,1-.6-1.1s1.38.39,1.93.48c-.26-1.34.93-3.29.93-3.29s.4.84.75,1.43A1.66,1.66,0,0,1,41,23.89Z"/><path class="cls-15" d="M32.69,22.26s.93-2.37,2.92-2.84c1.44-.34,2.94,1.39,2.95,3.52s-1.69,3.32-4.19,2.84S32.32,23.26,32.69,22.26Z"/><g class="cls-14"><path class="cls-15" d="M35.62,19.42c-2,.47-2.92,2.84-2.92,2.84a4.7,4.7,0,0,0-.26,1.05c.16-.57.93-2.88,3-2.82,2.39.06,3.14,6-1.47,5.16l0,0,.44.11c2.49.48,4.2-.71,4.19-2.84S37.05,19.08,35.62,19.42Z"/></g><g class="cls-6"><path class="cls-12" d="M41,23.89s-.68-1-.54-4c.1-2.23-1.79-3.4-4.37-2.62h.08c2.41-.49,3.67.55,3.75,2.35s-.83,3.26-1.34,1.17S36,18,34,19.82,31.51,24,32.63,25.14s.55,1.69-.6,1c-2.2-1.54-.8-4.71-.4-5.51-1.61,2.4-1.52,5,.07,6.31,1.91,1.11,3.28,1.13,5.93.88a10.41,10.41,0,0,1-.6-1.1s1.38.39,1.93.48c-.26-1.34.93-3.29.93-3.29s.4.84.75,1.43A1.66,1.66,0,0,1,41,23.89Z"/></g><path class="cls-16" d="M34.51,18.8A6.36,6.36,0,0,0,31.64,24c-.35,1.39-1.26-.44.23-3.17S36.06,17.92,34.51,18.8Z"/><path class="cls-11" d="M63.85,23s.68-1,.54-4,3.34-4.09,7.23-1.08c3.13,2.73,3.49,6.5,1.5,8.08-1.91,1.11-3.28,1.13-5.93.88a10.22,10.22,0,0,0,.6-1.1s-1.38.4-1.93.48c.26-1.34-.93-3.29-.93-3.29s-.4.84-.75,1.43A1.67,1.67,0,0,0,63.85,23Z"/><path class="cls-15" d="M72.14,21.34S71.21,19,69.22,18.5c-1.44-.34-2.94,1.39-2.95,3.52s1.69,3.32,4.19,2.84S72.51,22.34,72.14,21.34Z"/><g class="cls-14"><path class="cls-15" d="M69.22,18.5c2,.47,2.92,2.84,2.92,2.84a4.56,4.56,0,0,1,.26,1.05c-.16-.57-.93-2.88-3-2.82-2.39.06-3.14,6,1.48,5.16l0,0-.44.11c-2.49.48-4.2-.71-4.19-2.84S67.78,18.16,69.22,18.5Z"/></g><g class="cls-6"><path class="cls-12" d="M63.85,23s.68-1,.54-4c-.1-2.23,1.79-3.4,4.37-2.62h-.08c-2.41-.49-3.67.55-3.74,2.35s.82,3.27,1.33,1.18,2.59-2.82,4.6-1,2.45,4.16,1.32,5.32-.55,1.69.6,1c2.2-1.53.8-4.7.4-5.51,1.61,2.4,1.52,5.05-.07,6.31-1.91,1.11-3.28,1.13-5.93.88a10.22,10.22,0,0,0,.6-1.1s-1.38.4-1.93.48c.26-1.34-.93-3.29-.93-3.29s-.4.84-.75,1.43A1.67,1.67,0,0,0,63.85,23Z"/></g><path class="cls-16" d="M70.32,17.88A6.35,6.35,0,0,1,73.19,23c.35,1.39,1.26-.43-.23-3.16S68.77,17,70.32,17.88Z"/><path class="cls-17" d="M43.59,23.65S39.54,28,39.7,30l1.35,1L39.23,31S42,32.54,43,34.37c0,0-5.87,1.59-7.3,4.92l1.51-.64a4.71,4.71,0,0,0-1.67,3.26,4.47,4.47,0,0,1,3.25-.48l-1.11,1A12.16,12.16,0,0,1,46.37,47a2.52,2.52,0,0,0,3.32.6c-.76.88-.79,1.28-.79,1.28a6.2,6.2,0,0,1,1.86-.79,3.48,3.48,0,0,0,0,1.43,9.71,9.71,0,0,1,1.83-1.86,12.9,12.9,0,0,0,.64,1.4l.27-1.34,1.43.52s-.45-.88-.21-1a14.16,14.16,0,0,1,2.8.46l-.55-1s1.71-.3,2.19-1.46,5.53-7.58,10.36-6.09a5.4,5.4,0,0,0-1.2-1.56,4.09,4.09,0,0,1,2.14.84,5.3,5.3,0,0,0-2-2.51,2.89,2.89,0,0,1,1.74.33c-.84-1.13-3.2-2.51-9.37-3.42.4-1.49,1.2-2.32,1.74-2.43-1.16-.4-1.42-.18-1.42-.18a1.52,1.52,0,0,1,1.24-.69S61,25,57.8,23.62c-1.82.58-5.34,2.91-5.81,4.8a2.16,2.16,0,0,1-.36-1.24,4.49,4.49,0,0,0-1.13,3.12,8.87,8.87,0,0,1-1.41-2.54l-.29,1A9,9,0,0,0,43.59,23.65Z"/><path class="cls-11" d="M44.07,24.31s-3.84,4.15-3.69,6l1.28.91-1.73.08s2.64,1.43,3.54,3.16c0,0-5.58,1.51-6.93,4.67l1.43-.6a4.48,4.48,0,0,0-1.58,3.09,4.25,4.25,0,0,1,3.09-.45l-1.06.91a11.54,11.54,0,0,1,8.29,4.37,2.39,2.39,0,0,0,3.15.57c-.72.84-.75,1.21-.75,1.21a5.89,5.89,0,0,1,1.76-.75,3.3,3.3,0,0,0,0,1.36,9.15,9.15,0,0,1,1.74-1.76,13,13,0,0,0,.61,1.33l.26-1.27,1.36.49s-.44-.84-.2-1a13.57,13.57,0,0,1,2.66.43l-.52-1s1.62-.29,2.08-1.39,5.25-7.2,9.84-5.78a5.14,5.14,0,0,0-1.14-1.48,3.89,3.89,0,0,1,2,.79,5,5,0,0,0-1.9-2.38,2.75,2.75,0,0,1,1.66.31c-.79-1.07-3-2.38-8.9-3.24.38-1.42,1.14-2.21,1.66-2.31-1.1-.38-1.34-.17-1.34-.17a1.43,1.43,0,0,1,1.17-.65s-1.28-4.21-4.35-5.52c-1.72.55-5.07,2.76-5.52,4.55a2,2,0,0,1-.34-1.17,4.26,4.26,0,0,0-1.07,3,8.43,8.43,0,0,1-1.34-2.42l-.28.93A8.52,8.52,0,0,0,44.07,24.31Z"/><g class="cls-6"><path class="cls-12" d="M67.52,37.45a3.89,3.89,0,0,1,2,.79,5,5,0,0,0-1.9-2.38,2.75,2.75,0,0,1,1.66.31c-.79-1.07-3-2.38-8.9-3.24.38-1.42,1.14-2.21,1.66-2.31-1.1-.38-1.34-.17-1.34-.17a1.43,1.43,0,0,1,1.17-.65s-1.28-4.21-4.35-5.52c-1.54.49-4.38,2.31-5.28,4v.07c2.27-2.3,4.68-3.56,6.12-2.72s2.59,2.94,2.2,3.29a9.05,9.05,0,0,0-.95,2.45c-.42,1.12-.87,1.12-2.9,1.4,10.07.39,10.9,4.12,10.9,4.12s-1.75,0-1.89.38c1.08.07,1.36.91.56.63S65,37.72,62.27,39s-2.86,0-2-.49,1.57-1,.45-.84-1.57.49-2,0S58,36,57.84,36.39a1,1,0,0,1-.94.63c-.45,0-.63-.42-.77-1.37-.49-1.78-2.8-3.14-2.06-2.38s1.71,1.78.09,1.44c-3.6-.77-7.91,1.29-7.91,1.29a20.65,20.65,0,0,1,2.3-2.57c-1.56,1.1-4.41,2.94-4,4.87s.18,3.59-2,2.67-1.84-2.21-3.31-1.66c.37-1.29,2.94-3,.28-1.93.83-1.2,5.33-2.85,8.19-4.31-1.19,0-2.95,1.27-3.4.35s-.18-2.3-1.47-2.85c-2.48-1.29-.18-3.59,1.1-4.69,1.11-1,3.65,1.1,4.33,1.69a8.77,8.77,0,0,0-4.11-3.27s-3.84,4.15-3.69,6l1.28.91-1.73.08s2.64,1.43,3.54,3.16c0,0-5.58,1.51-6.93,4.67l1.43-.6a4.48,4.48,0,0,0-1.58,3.09,4.25,4.25,0,0,1,3.09-.45l-1.06.91a11.54,11.54,0,0,1,8.29,4.37,2.39,2.39,0,0,0,3.15.57c-.72.84-.75,1.21-.75,1.21a5.89,5.89,0,0,1,1.76-.75,3.3,3.3,0,0,0,0,1.36,9.15,9.15,0,0,1,1.74-1.76,13,13,0,0,0,.61,1.33l.26-1.27,1.36.49s-.44-.84-.2-1a13.57,13.57,0,0,1,2.66.43l-.52-1s1.62-.29,2.08-1.39,5.25-7.2,9.84-5.78A5.14,5.14,0,0,0,67.52,37.45Z"/></g><path class="cls-13" d="M50.1,41.7s-3.77-2.48-5.06-.46.77,3.15,2.39,3.4,3,.62,3.65-1.53c1.49,1.49,2.69,2,4.76.17s3.27-3.94,2.78-5.06-2.74-1.29-4.64.87A8.25,8.25,0,0,1,50.1,41.7Z"/><path class="cls-18" d="M47.53,32.32s-2.33-2-4-2l.77-2.18S47.5,30.29,47.53,32.32Z"/><path class="cls-18" d="M52.24,30.41s.27,1.82.86,1.37,3.34-3.52,6-2.15a5.87,5.87,0,0,0-1.85-2.74A14.11,14.11,0,0,0,52.89,31C52.74,31.4,52.36,30.71,52.24,30.41Z"/><path class="cls-19" d="M47.53,32s-2.33-2-4-2l.77-2.18S47.5,29.93,47.53,32Z"/><path class="cls-19" d="M52.24,30s.27,1.82.86,1.37,3.34-3.52,6-2.15a5.87,5.87,0,0,0-1.85-2.74,14.11,14.11,0,0,0-4.32,4.14C52.74,31,52.36,30.34,52.24,30Z"/><path d="M46,32.36c0,.61-.2,1.09-.45,1.09s-.46-.5-.46-1.11.2-1.1.45-1.09S46,31.76,46,32.36Z"/><path class="cls-20" d="M45.9,32c0,.24-.06.43-.17.44s-.21-.18-.23-.42.06-.44.17-.44S45.88,31.77,45.9,32Z"/><path d="M56.38,31.13c0,.61-.2,1.09-.45,1.09s-.46-.5-.46-1.11.2-1.09.45-1.09S56.37,30.52,56.38,31.13Z"/><ellipse class="cls-20" cx="56.04" cy="30.78" rx="0.2" ry="0.43" transform="translate(-1.64 3.2) rotate(-3.23)"/><path class="cls-21" d="M45.92,36.74s4.42-2.62,9.15-1.42c1.7.55,0,4-2.76,6.25S43.11,38.3,45.92,36.74Z"/><path class="cls-22" d="M49.42,41.82s-.29-2.07-1.28-2.6-1.51-.37-1.53,0S48.67,39.79,49.42,41.82Z"/><path class="cls-22" d="M52.73,41.14s-.19-1.53.8-2.16,1.28-1.17.77-1.3-1.84.82-2.2,1.41S52.66,40.48,52.73,41.14Z"/><ellipse class="cls-23" cx="53.13" cy="35.55" rx="0.18" ry="0.46" transform="translate(11.38 83.97) rotate(-83.02)"/><path class="cls-23" d="M46.16,37.37A12,12,0,0,1,52,35.68C53.08,35.72,50.29,34.49,46.16,37.37Z"/><path class="cls-24" d="M44.13,34.24l.16-.08.46-.21.33-.13.4-.15.46-.15.51-.15.56-.15.61-.14c.42-.1.86-.17,1.32-.25l.7-.1c.24,0,.48-.07.72-.09l.74-.07.37,0,.37,0c.5,0,1-.06,1.48,0h1.44l1.34.06,1.2.11.53.05.48.06.78.11.67.1-.68,0-.78-.06-.48,0-.53,0-1.2-.06-1.34,0H53.34c-.49,0-1,0-1.47.06l-.37,0-.37,0-.73.06L49,33.06c-.46.08-.9.13-1.31.21l-.61.12-.56.12-.52.13-.46.12-.41.12-.34.11-.47.17Z"/><g class="cls-6"><path class="cls-21" d="M55.07,35.31l-.38-.09c1.22.48-.1,1.67-1.66,2.1-1.81.5-1.35,2.7-2.89,2.7S48,38.14,46.21,38.14c-.91,0-1-.43-.85-.85-1,2,4.46,6.32,7,4.28C55.07,39.31,56.77,35.86,55.07,35.31Z"/></g><path class="cls-11" d="M48.09,45.19s2.08.62,2.7-.62c.5-.93.54,0,1.73.38a3.76,3.76,0,0,0,3.35-1.19,1,1,0,0,1,1.77.35c.19.85-.27,1.42-1.39,1.5s-.73.15-.39.42-.34.42-1.42.15.12,1.12-1.12.35-.42.66-.85,0-1,.12-1.58.46-.35-.39-.08-.77-.89.66-2.31.35S47.21,45.07,48.09,45.19Z"/><path class="cls-25" d="M47.73,35.47s1.28-2.68,3.11-2.81,2.55,2,2.55,2A14.3,14.3,0,0,0,47.73,35.47Z"/><path class="cls-16" d="M49.36,34.92a20.82,20.82,0,0,1,2.46-.34c-.19-1.74-.52-2-1-1.93S49.36,34.92,49.36,34.92Z"/><path class="cls-19" d="M60.28,38.07l-.15.06-.2.07-.23.07-.13,0-.13,0a1.31,1.31,0,0,1-.26,0,.86.86,0,0,1-.25-.08,1.24,1.24,0,0,1-.23-.15,1.74,1.74,0,0,1-.19-.19,2.72,2.72,0,0,1-.29-.42A5,5,0,0,1,58,37a1.75,1.75,0,0,0,.09.52,1.83,1.83,0,0,0,.24.5,1.51,1.51,0,0,0,.21.25,1.24,1.24,0,0,0,.29.2l.1,0v.08a1.53,1.53,0,0,1,0,.2c0,.08,0,.17-.06.26l-.1.3-.13.33-.15.34c-.05.12-.11.24-.17.35l-.18.35-.18.33-.33.58-.33.58a4.25,4.25,0,0,0,.46-.48l.2-.25c.07-.09.14-.19.21-.3s.14-.21.21-.33.13-.23.19-.35.11-.25.17-.37.09-.25.14-.36.07-.24.1-.35,0-.22.05-.32,0-.2,0-.28a1,1,0,0,0,0-.21s0,0,0-.07l.2,0a1.41,1.41,0,0,0,.33,0l.15,0,.14,0,.24-.12.1-.06.08-.06.13-.11.1-.1Z"/><path class="cls-23" d="M47,33.21a37.83,37.83,0,0,1,7.76-.74A13.58,13.58,0,0,0,47,33.21Z"/><path class="cls-26" d="M45.44,42s.4-1.37,1.61-1,1.89.92,2.73,1.21.92,2.16-1.21,2S44.92,43.27,45.44,42Z"/><path class="cls-26" d="M51.9,42.39a13.87,13.87,0,0,0,2.85-3c.74-1.44,2.09-1.65,2.81-1.09s.48,2.89-2,4.7S51.22,43.08,51.9,42.39Z"/><path d="M47.64,42.51l-1.1.09-1.13.1-1.29.14c-.44,0-.88.1-1.29.17l-.59.1-.52.1-.44.1-.18,0-.15,0-.29.09.28-.11.15-.06.18-.06c.13,0,.27-.09.44-.12S42,43,42.23,43l.59-.12c.41-.07.85-.13,1.29-.18s.88-.09,1.29-.12.8,0,1.14-.06h1.11Z"/><path d="M47.64,41.55l-.27,0-.71-.09-1-.11c-.37,0-.76-.07-1.15-.09l-.59,0-.57,0h-1l-.4,0-.31,0-.27,0,.27,0,.31-.05.4,0,.48,0h1.11l.59,0c.4,0,.79.06,1.16.11s.71.1,1,.15C47.26,41.44,47.64,41.55,47.64,41.55Z"/><path d="M47.55,41.28l-.22,0-.58-.12-.82-.18L45,40.73l-.93-.21-.43-.09-.39-.08-.33-.06-.25,0-.22,0h.48l.33,0,.39.05.44.07.94.19.93.23.81.22.57.17Z"/><path d="M53.36,42.42l.25,0,.64-.09.91-.12L56.22,42l1.05-.1.92-.08.65,0h.25l-.24,0-.65.1-.91.12-1,.12-1.05.1-.92.08-.65,0Z"/><path d="M53.56,41.77s.32-.15.81-.32c.25-.08.54-.18.85-.27L55.7,41l.51-.11.51-.1.5-.07.47,0h.78l.27,0,.24,0h-.51l-.35,0-.42,0-.46.06-.49.08-.51.1-.5.11-.49.12-.45.11-.41.11-.6.17Z"/><path d="M53.49,41.21l.23-.11.6-.26.87-.33c.32-.11.67-.22,1-.32l.52-.14.51-.11.49-.08.44-.05.37,0h.54l-.25,0a2.49,2.49,0,0,0-.28,0l-.36,0-.43.08-.48.1c-.33.08-.68.16-1,.26l-.52.15-.5.15-.88.28-.62.21Z"/><g class="cls-6"><path class="cls-4" d="M81.34,32.62c-.12.44-.5.61-1.33.22,1.43,3.46-1.18,7.08-2.79,7.76a2.12,2.12,0,0,0-1.43,2.11,1.52,1.52,0,0,0-1.43-.93,3.12,3.12,0,0,1-1.94,4.56c-2.19.51-2.87,1.18-3.12,2.61-.67-.84-.51-2.78-1.77-.42-2.7,6.07-12.14,4.81-12.31,6.16a6.56,6.56,0,0,1-1.6,2.87s-.84-3.46-5.31-3.71S43.58,51.31,42.48,50a1.56,1.56,0,0,1-.84,1.26s.17-2.19-3-2c-6.83.25-8.35-5.4-8.35-5.4a3.86,3.86,0,0,1-.5,1.85c-.17-.59-.59-1.85-3.29-1.6a2.07,2.07,0,0,1-2.24-1.2,1.83,1.83,0,0,0,1,1.77c2.09,1.12,5.11-.21,4.44,3.07.46.15.87-1.38.87-1.38s-.61,3.83,6.28,4.24c3.68.21,4.49.51,4.19,1.94.56.1.92-.61.92-.61s-1.07,2.71,5,3.47c4.29.92,7.1,2.45,4.85,5.36,2.09-.87,2.5-2,3.22-3.22s2-2,4.54-2.4,9-2.14,9.45-5.26a5.2,5.2,0,0,0,.92.87c-.26-.87.31-2.5,3-3s3.27-2.14,3.07-4c.56.82,1.12.56,1.12.56s-1.43-1.12.25-2.2a7.47,7.47,0,0,0,3.47-8.53c.71.21.82.51.82.51A3.71,3.71,0,0,0,81.34,32.62Z"/></g><path class="cls-7" d="M53.42,12.36s-4.8,2.77-4.25,4.93C48.29,15.73,49.16,14,53.42,12.36Z"/><path class="cls-7" d="M47.18,18.06s-3.4,1.2-3.34,3.53C42.9,20.32,44.1,17.93,47.18,18.06Z"/><path class="cls-7" d="M51.94,14.29s-1.83,1.7-1,3.34C49.82,17.21,50.05,15.47,51.94,14.29Z"/><path class="cls-25" d="M33.6,57.57a21.66,21.66,0,0,0,3.69,10.65C40.23,72.91,31.67,64.53,33.6,57.57Z"/><path class="cls-25" d="M69,58.81A25.43,25.43,0,0,1,63.71,70C61.78,71.77,69,67.54,69,58.81Z"/><path class="cls-26" d="M42.3,55.15s1.24,1.41,4.34,1.63,5.18,2.76,3.5,4.51c-1,.79,3,1,4.9-1.24A12.26,12.26,0,0,1,61.56,56c2.87-.9,3.21,1.63,1.3,2.7A9.25,9.25,0,0,0,59.76,62a1.68,1.68,0,0,1,0-1.24c.28-.56-1.13.56-1.18,1.75s-1.18,1.13-2.25,1.69a6,6,0,0,0-1.91,2.25,5.63,5.63,0,0,1,.62-2c.51-.84-1.91,1-2.59,2.48s-2.25.23-3.21-2.31c-.57-1.8-.62.17-.73.79s-1-1.58-1.07-2.53-.45.73-.45,1.12a7.57,7.57,0,0,0-3.1-3.61,4.46,4.46,0,0,1-2-2.87c.06-.62-.56-.06-.56.67S40,54.47,42.3,55.15Z"/></g></g></g></svg>