<svg xmlns="http://www.w3.org/2000/svg" viewBox="0 0 100 100"><defs><style>.cls-1{isolation:isolate;}.cls-2{fill:#e5c7b7;}.cls-3{fill:#21211f;}.cls-4,.cls-5{fill:#3c3c3b;}.cls-5{opacity:0.4;}.cls-23,.cls-24,.cls-25,.cls-5,.cls-8,.cls-9{mix-blend-mode:multiply;}.cls-6{fill:#5c5b5b;}.cls-26,.cls-7{fill:#a2623b;}.cls-23,.cls-24,.cls-8{fill:#be6837;}.cls-10,.cls-26,.cls-8{opacity:0.5;}.cls-25,.cls-9{fill:#83502e;}.cls-24,.cls-9{opacity:0.6;}.cls-10{fill:#d2d2d2;}.cls-11{fill:#764829;}.cls-12{fill:#3b1b0f;}.cls-13{fill:#150100;}.cls-14{fill:#3f1b0c;}.cls-15{fill:#fff;}.cls-16{fill:#713b30;}.cls-16,.cls-26{mix-blend-mode:screen;}.cls-17{fill:#5e301c;}.cls-18{fill:#694023;}.cls-19{fill:#575756;}.cls-20{fill:#2b1701;}.cls-21{fill:#b4b4b4;}.cls-22{fill:#4f3017;}.cls-23{opacity:0.2;}.cls-25{opacity:0.3;}</style></defs><title>Asset 16</title><g class="cls-1"><g id="Layer_2" data-name="Layer 2"><g id="Layer_1-2" data-name="Layer 1"><rect class="cls-2" width="100" height="100"/><path class="cls-3" d="M69.91,59.54c-.06-1.29-1.94-1.33-2.86-1.27s-1.77.3-2.67.37a19.49,19.49,0,0,0-2,.2,4.84,4.84,0,0,0-.59-.06,12.51,12.51,0,0,0-2.07.19,5.23,5.23,0,0,0-2.51.92c-.5.36-.3.73.29.72s1.24-.23,1.85-.31c.26,0,.54,0,.82-.06a7.45,7.45,0,0,0-3.51,2.48.74.74,0,0,0-.13.78c.17.27.79-.15.94-.25A12.13,12.13,0,0,1,61,61.13a9.58,9.58,0,0,0-1.72,1,12,12,0,0,0-1.4,1.29,2.3,2.3,0,0,0-.77,1.4c.06.95,1.2,0,1.52-.28.64-.52,1.19-1.12,1.86-1.62l.16-.11c-.24.19-.48.38-.71.59a5.73,5.73,0,0,0-1.1,1.33c-.1.16-.58.83-.35,1.05.52.5,2-.94,2.35-1.21l1.25-1-.39.45a3.45,3.45,0,0,0-1,1.67c0,.77,1.78-.76,1.88-.85l.8-.63h0a3.79,3.79,0,0,1,.73-.52,3.91,3.91,0,0,1,1.44-.56,6.12,6.12,0,0,0,2.12-.64C68.75,61.95,70,60.87,69.91,59.54Z"/><path class="cls-4" d="M69.62,60.13A3.9,3.9,0,0,1,67,62.61a3.2,3.2,0,0,1-1,.27h0l-.18,0a7.79,7.79,0,0,0-2.17.9l-.29.22c-.43.28-.82.62-1.21.94a7.81,7.81,0,0,1-.77.57.45.45,0,0,1-.46.09.74.74,0,0,1,.09-.31,6.06,6.06,0,0,1,1-1.4c.33-.39.69-.75,1-1.11a8.3,8.3,0,0,0,.56-.72c-.7.56-1.4,1.11-2.09,1.69-.44.36-.88.71-1.33,1l0,0a3,3,0,0,1-1.12.84.26.26,0,0,1-.34-.36,3.42,3.42,0,0,1,.52-.86,8,8,0,0,1,1.69-1.73c.24-.19.48-.36.73-.54s.47-.39.72-.58a10.09,10.09,0,0,0-2.44,1.62c-.47.39-.89.84-1.36,1.24a4.81,4.81,0,0,1-.62.46l-.2.11c-.75.39-.37-.53-.28-.72a8.78,8.78,0,0,1,3.54-3,5.25,5.25,0,0,1,.77-.49l-.14.06A3.72,3.72,0,0,0,61,61a5.3,5.3,0,0,0-1.43.69c-.52.33-1,.68-1.52,1a10.19,10.19,0,0,1-.87.62c-.33.19-.66.15-.55-.26a2.23,2.23,0,0,1,.42-.62,8.12,8.12,0,0,1,3.76-2.3l.45-.15.45-.17a15.5,15.5,0,0,1,2-.47h-.06a7,7,0,0,0-1.09.11,11.29,11.29,0,0,0-2,.6c-.27,0-.54,0-.81.05-.42.07-.85.09-1.27.16a2.23,2.23,0,0,1-1.26,0c-.26-.12.67-.63.7-.64A8.13,8.13,0,0,1,60.66,59c.47-.07.93-.09,1.4-.12H62s0,0,0,0c.27,0,.62,0,.89,0h.23l.81,0a20.29,20.29,0,0,0,2.23-.26C67.29,58.44,70,58.23,69.62,60.13Z"/><path class="cls-5" d="M57.17,60.34a2.23,2.23,0,0,0,1.26,0h.1a1.5,1.5,0,0,1,.12-.92,3.73,3.73,0,0,0-.77.32S56.91,60.22,57.17,60.34Z"/><path class="cls-5" d="M58.61,60.29c.36,0,.73-.07,1.09-.13s.54,0,.81-.05a11.29,11.29,0,0,1,2-.6,7,7,0,0,1,1.09-.11h.06a15.5,15.5,0,0,0-2,.47l-.45.17-.45.15a13.59,13.59,0,0,0-1.79.75,2.85,2.85,0,0,0,.77.6A4.82,4.82,0,0,1,61,61a3.72,3.72,0,0,1,.66-.15l.14-.06a5.25,5.25,0,0,0-.77.49,7.39,7.39,0,0,0-.8.43l0,0a6.56,6.56,0,0,0,1.31.35,6.29,6.29,0,0,1,.89-.47c-.22.16-.42.33-.63.5l.39.05a12.53,12.53,0,0,0,1.31.07l.18-.15-.1.15a12.44,12.44,0,0,0,2.3-.23,13,13,0,0,0,3.55-1.21,2.41,2.41,0,0,0,.25-.67c.39-1.9-2.33-1.69-3.47-1.49a20.29,20.29,0,0,1-2.23.26l-.81,0h-.23c-.27,0-.62-.05-.89,0,0,0,0,0,0,0h.07c-.47,0-.93.05-1.4.12a17.33,17.33,0,0,0-1.91.33A1.43,1.43,0,0,0,58.61,60.29Z"/><path class="cls-6" d="M61.66,61.09c-.41.23-.86.39-1.26.63a13.86,13.86,0,0,0-1.25.87,4.29,4.29,0,0,0-1.84,2.25c0,.07.07,0,.1,0a8.26,8.26,0,0,1,2.13-2.32c.68-.52,1.44-.92,2.13-1.43C61.68,61.09,61.67,61.08,61.66,61.09Z"/><path class="cls-6" d="M62.69,61.55c-.8.57-1.56,1.16-2.31,1.79a4.59,4.59,0,0,0-1.56,2c0,.05.06,0,.07,0a6.49,6.49,0,0,1,1-1.23,8.65,8.65,0,0,1,1-1c.61-.51,1.21-1,1.77-1.59C62.71,61.55,62.7,61.55,62.69,61.55Z"/><path class="cls-6" d="M61.18,60.19a9.56,9.56,0,0,0-2.69,1.16A5.2,5.2,0,0,0,56.85,63c0,.06,0,.06.08,0a6.66,6.66,0,0,1,.77-.68c.31-.27.59-.56.92-.8a12.07,12.07,0,0,1,2.56-1.38S61.19,60.19,61.18,60.19Z"/><path class="cls-6" d="M61.68,59.11c-1.32-.07-3.26.08-4.24,1.09h0c1.31-.71,2.81-.69,4.23-1C61.71,59.19,61.74,59.11,61.68,59.11Z"/><path class="cls-6" d="M64,61.95a10.79,10.79,0,0,1-1.7,2A4.71,4.71,0,0,0,61,65.48c0,.05.06,0,.08,0,.94-1.14,2.41-2.08,2.84-3.55Z"/><path class="cls-3" d="M45.28,64.67c-.23-1.18-2-1-2.8-.8s-1.59.51-2.41.69A18.13,18.13,0,0,0,38.2,65a4.53,4.53,0,0,0-.55,0,11.77,11.77,0,0,0-1.88.45,4.89,4.89,0,0,0-2.2,1.17c-.41.4-.18.71.36.63a16.75,16.75,0,0,0,1.67-.53c.24-.06.5-.11.75-.16a6.92,6.92,0,0,0-2.91,2.74.69.69,0,0,0,0,.74c.19.23.71-.24.83-.35a11.36,11.36,0,0,1,3-2.43,9.18,9.18,0,0,0-1.46,1.14,11.16,11.16,0,0,0-1.13,1.38,2.15,2.15,0,0,0-.53,1.39c.18.87,1.1-.17,1.36-.46.52-.56,1-1.19,1.5-1.73l.13-.12c-.2.2-.4.41-.58.63a5.41,5.41,0,0,0-.84,1.37c-.07.16-.43.84-.18,1,.55.4,1.72-1.12,2-1.43l1-1.06c-.1.15-.21.31-.3.46a3.25,3.25,0,0,0-.67,1.67c.06.72,1.54-.93,1.63-1l.66-.69h0a3.57,3.57,0,0,1,.61-.58,3.66,3.66,0,0,1,1.26-.7,5.68,5.68,0,0,0,1.88-.87C44.52,67,45.51,65.88,45.28,64.67Z"/><path class="cls-4" d="M45.08,65.25A3.62,3.62,0,0,1,43,67.87a2.88,2.88,0,0,1-.88.38h0l-.16.06a7.24,7.24,0,0,0-1.89,1.12l-.24.24a14.19,14.19,0,0,0-1,1,7,7,0,0,1-.64.63.42.42,0,0,1-.41.15.7.7,0,0,1,0-.3,5.56,5.56,0,0,1,.72-1.42c.26-.4.54-.78.82-1.16a8.2,8.2,0,0,0,.42-.74c-.57.61-1.15,1.21-1.71,1.83-.35.39-.72.77-1.09,1.14l0,0a2.73,2.73,0,0,1-.92.92.24.24,0,0,1-.36-.29,3,3,0,0,1,.36-.86,7.44,7.44,0,0,1,1.34-1.82c.19-.2.4-.4.6-.59s.38-.43.58-.63a9.39,9.39,0,0,0-2,1.82c-.38.42-.72.89-1.09,1.32a4.79,4.79,0,0,1-.51.51l-.17.13c-.64.45-.41-.45-.35-.63a6.9,6.9,0,0,1,2.19-2.76,7.32,7.32,0,0,1,.69-.5,5.27,5.27,0,0,1,.64-.55l-.12.07a3.69,3.69,0,0,0-.6.23A5,5,0,0,0,36,68c-.44.37-.86.76-1.26,1.17a8.94,8.94,0,0,1-.72.69c-.28.22-.59.22-.54-.16a2,2,0,0,1,.31-.62,7.57,7.57,0,0,1,3.17-2.61l.39-.2L37.7,66a14.11,14.11,0,0,1,1.81-.7h-.06a6.44,6.44,0,0,0-1,.24,10.51,10.51,0,0,0-1.79.82,6.79,6.79,0,0,0-.74.15c-.38.12-.77.19-1.15.31a2.08,2.08,0,0,1-1.16.19c-.25-.08.53-.66.56-.69a7.59,7.59,0,0,1,2.48-1c.42-.13.85-.21,1.28-.3l-.06,0s0,0,0,0a8.24,8.24,0,0,1,.82-.1h0l.19,0,.75-.14a19,19,0,0,0,2-.53C42.71,64,45.2,63.44,45.08,65.25Z"/><path class="cls-5" d="M37.89,65.12l.06,0-.21,0a1,1,0,0,0-.06.75,7.7,7.7,0,0,1,.78-.31,6.44,6.44,0,0,1,1-.24h.06a14.8,14.8,0,0,0-1.77.68,1.13,1.13,0,0,0,.12.18,3,3,0,0,0,1.52.9,6.07,6.07,0,0,0,2.54.15,6.25,6.25,0,0,0,2.9-1.09,2.28,2.28,0,0,0,.27-.91c.12-1.81-2.37-1.26-3.39-.92a19,19,0,0,1-2,.53l-.75.14-.19,0h0a8.24,8.24,0,0,0-.82.1S37.88,65.12,37.89,65.12Z"/><path class="cls-6" d="M37.86,67.17c-.35.26-.74.47-1.08.75a13.4,13.4,0,0,0-1,1,4,4,0,0,0-1.41,2.32c0,.07.07,0,.09,0a7.67,7.67,0,0,1,1.66-2.42c.56-.57,1.21-1,1.78-1.6C37.88,67.17,37.87,67.16,37.86,67.17Z"/><path class="cls-6" d="M38.88,67.46c-.66.63-1.29,1.27-1.9,2a4.3,4.3,0,0,0-1.18,2.05c0,.05.06,0,.07,0a6,6,0,0,1,.76-1.26,7.91,7.91,0,0,1,.84-1c.49-.55,1-1.1,1.42-1.7Z"/><path class="cls-6" d="M37.31,66.41A8.84,8.84,0,0,0,35,67.82a4.9,4.9,0,0,0-1.3,1.77c0,.06.05.05.08,0a6.57,6.57,0,0,1,.62-.73c.25-.29.47-.59.75-.86a11.16,11.16,0,0,1,2.18-1.6S37.32,66.4,37.31,66.41Z"/><path class="cls-6" d="M37.62,65.34c-1.23.11-3,.5-3.78,1.55h0c1.11-.83,2.5-1,3.77-1.47C37.66,65.41,37.68,65.34,37.62,65.34Z"/><path class="cls-6" d="M40.1,67.66a10.06,10.06,0,0,1-1.31,2,4.39,4.39,0,0,0-.92,1.6c0,.05.06,0,.07,0,.72-1.18,2-2.24,2.16-3.65Z"/><path class="cls-3" d="M23.39,64.86c-.19-.21-1.13-.77-1-1.07h0a.53.53,0,0,0-.08.27,2.51,2.51,0,0,0-1.3.09c-.63.14-1.26.25-1.88.43a21,21,0,0,0-2.17.42,10.51,10.51,0,0,0-2.46,1.09,3,3,0,0,0-1.4,1.43c-.12.36.24.36.5.28-.18.28-.51.93-.18,1.11s.94-.24,1.29-.56a.77.77,0,0,0-.08.8c.31.5,1.77-1,2-1.18a9.59,9.59,0,0,1,2.68-1.62q-.25.17-.48.37a6,6,0,0,0-1.27,1.58c-.1.18-.36.62-.1.76s.74-.54.88-.69a8.47,8.47,0,0,1,2.23-1.77A6.24,6.24,0,0,1,23,66c.26,0,.62-.16.6-.49A.87.87,0,0,0,23.39,64.86Z"/><path class="cls-4" d="M22.65,66a6.38,6.38,0,0,0-1.63.3,7.74,7.74,0,0,0-1.47.82,6.47,6.47,0,0,0-1.18,1c-.17.18-.32.39-.49.57a.49.49,0,0,1-.13.18c-.09.07-.32.18-.37,0s.16-.61.39-.83a6.33,6.33,0,0,1,2.11-2l.26-.13a.34.34,0,0,0,.09-.13l-.74.42,0,0c-1.62.49-2.72,1.66-4,2.65l0,0a1.4,1.4,0,0,1-.31.18c-.18.07-.37,0-.39-.19,0-.38.32-.66.57-.88h0a6.45,6.45,0,0,1,.6-.59,9,9,0,0,1,1.28-.89c.44-.27.89-.52,1.34-.79.16-.1.49-.23.58-.42h0c-.12.2-.58.35-.78.45l-.78.39a9.84,9.84,0,0,0-1.54.95,5.48,5.48,0,0,0-1.14,1.11l-.36.26-.05.06a1,1,0,0,1-.46.28c-.25.07-.53,0-.5-.31a1.07,1.07,0,0,1,.14-.38.69.69,0,0,1,.08-.13l0,0,0,0A4.18,4.18,0,0,1,15,66.68a13.11,13.11,0,0,1,2.89-1.38s0,0,0,0a7.92,7.92,0,0,0-4.2,2.34.19.19,0,0,1-.14.12c-.16,0-.35,0-.35-.24a.4.4,0,0,1,0-.19h0a1.58,1.58,0,0,1,.33-.44,4.42,4.42,0,0,1,1.14-.82,13.6,13.6,0,0,1,1.54-.72,12.43,12.43,0,0,1,2.39-.61h0l.08,0c.38-.07.75-.15,1.13-.24h0l.63-.09c.7-.09,1.39-.36,2,0h0l.44.35a1.4,1.4,0,0,1,.37.43C23.82,65.88,22.93,65.93,22.65,66Z"/><path class="cls-5" d="M17.85,65.31l.06,0s0,0,0,0l0,0a2.65,2.65,0,0,0,.81.24A.83.83,0,0,0,19,65.3h0a.7.7,0,0,1-.3.27,6.2,6.2,0,0,0,1.11.06,9.85,9.85,0,0,0,3.32-.7,1.32,1.32,0,0,0-.19-.18l-.44-.35h0c-.66-.38-1.34-.11-2,0l-.63.09h0c-.38.1-.75.17-1.13.24l-.08,0h0L17.5,65A.75.75,0,0,0,17.85,65.31Z"/><path class="cls-7" d="M88.83,58.39c-1-2.1-3-3.54-4.93-4.71-2.58-1.59-5.55-2.51-8-4.34A14.89,14.89,0,0,1,73,46.75c-.61-.77-1.32-1.5-1.91-2.31a2,2,0,0,0-.19-.27c-.12-.18-.24-.37-.34-.55,0,0,0,0,0,0l.17.37a.53.53,0,0,0-.19-.1.1.1,0,0,0-.11.05c-.49.88.33,2.5.62,3.35.53,1.52.76,3.12,1.33,4.62.09.48.17,1,.28,1.43,0,.13.21,0,.21-.07s0-.43,0-.65c.09.56.12,1.16.21,1.69a10.48,10.48,0,0,0,.43,1.7c0,.06.07.06.12,0a6.59,6.59,0,0,0,1,2.78.21.21,0,0,0,.31,0,6.8,6.8,0,0,0,1.44,2.36,9.43,9.43,0,0,0,.89,1.55c.12.17.38-.06.32-.23l-.06-.16a6.89,6.89,0,0,0,.6,1A4.08,4.08,0,0,0,80,65a6.72,6.72,0,0,0,.67.53c.13.09.33-.1.27-.24l0-.07a5.71,5.71,0,0,0,2.78,1.23,6.3,6.3,0,0,0,4-.66A4.17,4.17,0,0,0,89.28,64a.12.12,0,0,0,.1,0C90.5,62.39,89.53,59.86,88.83,58.39Z"/><path class="cls-8" d="M88.83,58.39c-1-2.1-3-3.54-4.93-4.71-2.58-1.59-5.55-2.51-8-4.34A14.89,14.89,0,0,1,73,46.75c-.61-.77-1.32-1.5-1.91-2.31a2,2,0,0,0-.19-.27c-.12-.18-.24-.37-.34-.55,0,0,0,0,0,0l.17.37a.53.53,0,0,0-.19-.1.1.1,0,0,0-.11.05c-.49.88.33,2.5.62,3.35.53,1.52.76,3.12,1.33,4.62.09.48.17,1,.28,1.43,0,.13.21,0,.21-.07s0-.43,0-.65c.09.56.12,1.16.21,1.69a10.48,10.48,0,0,0,.43,1.7c0,.06.07.06.12,0a6.59,6.59,0,0,0,1,2.78.21.21,0,0,0,.31,0,6.8,6.8,0,0,0,1.44,2.36,9.43,9.43,0,0,0,.89,1.55c.12.17.38-.06.32-.23l-.06-.16a6.89,6.89,0,0,0,.6,1A4.08,4.08,0,0,0,80,65a6.72,6.72,0,0,0,.67.53c.13.09.33-.1.27-.24l0-.07a5.71,5.71,0,0,0,2.78,1.23,6.3,6.3,0,0,0,4-.66A4.17,4.17,0,0,0,89.28,64a.12.12,0,0,0,.1,0C90.5,62.39,89.53,59.86,88.83,58.39Zm-4.92,1.82a12.24,12.24,0,0,0-1.31-1.36,2.09,2.09,0,0,1,.05.46c0,.06-.09.13-.14.08s-.3-.32-.46-.48a3.18,3.18,0,0,1,.63,1.8s-.08.13-.13.09a6,6,0,0,1-1-1.14,8.94,8.94,0,0,1,.68,2.07c0,.05-.07.15-.13.11a10.23,10.23,0,0,1-1.56-1.6c0,.29,0,.57,0,.86,0,0-.1.14-.14.08A4.27,4.27,0,0,1,79.7,59c-.07.29-.12.59-.19.89,0,0-.12.13-.15.05a10.36,10.36,0,0,1-.24-2.82c-.2.72-.26,1.46-.39,2.19,0,0-.11.12-.14.06a6.56,6.56,0,0,1-.65-2.17c0,.37,0,.74-.09,1.1,0,.06-.11.12-.15,0a6.88,6.88,0,0,1-.38-1,3.31,3.31,0,0,1-.19,1.07s-.13.13-.15.05a18.89,18.89,0,0,0-.55-2.18c0,.12,0,.24,0,.36s-.1.14-.14.08a4.19,4.19,0,0,1-.67-1.52c0,.1,0,.2,0,.3s-.1.14-.14.08a5.31,5.31,0,0,1-.8-3c0,.21,0,.42-.06.64,0,.06-.11.14-.15.07A4.77,4.77,0,0,1,74.09,51a3.72,3.72,0,0,0-.14.67c0,.05-.13.15-.15.07-.13-.7-.17-1.42-.23-2.13a.06.06,0,0,1,0,0,2.81,2.81,0,0,1,0-.38s.11-.14.14-.08a7.4,7.4,0,0,0,.41.67,3.58,3.58,0,0,0-.16-.58c0-.06.07-.13.13-.11a4.39,4.39,0,0,1,1.67,1.75c-.13-.22-.26-.44-.37-.67,0-.06.08-.13.13-.11a4.73,4.73,0,0,1,1.6,1.35l-.24-.46c0-.06.08-.14.13-.11a8.34,8.34,0,0,1,1.67,1.71c0-.28,0-.56,0-.84,0-.06.14-.15.15-.07a3.76,3.76,0,0,0,.94,1.78c-.11-.34-.26-.67-.37-1,0-.06.09-.15.14-.1A17.81,17.81,0,0,0,81.44,54c-.1-.18-.2-.35-.29-.53s.08-.13.13-.11a5.16,5.16,0,0,1,2.36,3.27c0,.06-.07.14-.13.11a2.85,2.85,0,0,1-.46-.33,5.1,5.1,0,0,1,.72,1.72c0,.07-.08.14-.14.1s-.4-.36-.59-.55a6,6,0,0,1,1,2.44C84.06,60.17,84,60.27,83.91,60.21Z"/><path class="cls-8" d="M88.83,58.39c-1-2.1-3-3.54-4.93-4.71l-.48-.28a6.27,6.27,0,0,1,1.22,1.29s0,.09-.07.07c-.48-.23-.94-.51-1.44-.69a3.92,3.92,0,0,1,2.34,2.38s-.05.09-.08.06A2.32,2.32,0,0,0,84.5,56a7,7,0,0,0,1.7,1.53s0,.08-.06.08a7.31,7.31,0,0,1-1.25-.3,4.89,4.89,0,0,1,1.41,2.52s-.06.1-.08.06a7,7,0,0,0-.81-.94,7.47,7.47,0,0,1,.42.69,3,3,0,0,1,.28,2.15s-.07.07-.09,0c-.16-.4-.32-.8-.51-1.18a3.33,3.33,0,0,1-.33,2.42s-.07.06-.08,0c-.14-.58-.19-1.38-.66-1.81a5.13,5.13,0,0,1,.07,3s-.07.07-.09,0a5.59,5.59,0,0,0-1.19-1.69c.14.29.29.57.45.85,0,0,0,.09-.07.07-.4-.22-.8-.42-1.19-.66a7.79,7.79,0,0,1,1,1.38s0,.07-.07.07a6.07,6.07,0,0,1-2.42-1.17,6.22,6.22,0,0,1,.39,1.1s0,.09-.08.06a4.21,4.21,0,0,1-1.33-1.69l.19,1s-.05.1-.08.06a11,11,0,0,1-1.33-2.2c.06.29.11.59.15.88,0,0-.06.08-.08,0a8.48,8.48,0,0,1-1.17-2.24c0,.44.08.88.08,1.32,0,0-.07.08-.09,0a11.93,11.93,0,0,1-.78-2c0,.39,0,.78,0,1.17,0,0-.07.08-.09,0a10.61,10.61,0,0,1-1-3.41,6.17,6.17,0,0,0-.14,1.33s-.07.09-.09,0a6.53,6.53,0,0,1-.28-2.08c-.09.29-.16.59-.26.88,0,0-.08.08-.09,0-.1-.87-.14-1.75-.19-2.62a3.39,3.39,0,0,0-.21,1.28s-.07.09-.09,0a14.89,14.89,0,0,1-.53-3.66,5.42,5.42,0,0,0-.21,1.19s-.08.09-.09,0a21.25,21.25,0,0,0-.37-2.21A8.17,8.17,0,0,1,73,53.68c0,.22.05.43.09.63a10.48,10.48,0,0,0,.43,1.7c0,.06.07.06.12,0a6.59,6.59,0,0,0,1,2.78.21.21,0,0,0,.31,0,6.8,6.8,0,0,0,1.44,2.36,9.43,9.43,0,0,0,.89,1.55c.12.17.38-.06.32-.23l-.06-.16a6.89,6.89,0,0,0,.6,1A4.08,4.08,0,0,0,80,65a6.72,6.72,0,0,0,.67.53c.13.09.33-.1.27-.24l0-.07a5.71,5.71,0,0,0,2.78,1.23,6.3,6.3,0,0,0,4-.66A4.17,4.17,0,0,0,89.28,64a.12.12,0,0,0,.1,0C90.5,62.39,89.53,59.86,88.83,58.39Z"/><path class="cls-7" d="M20.16,30.45a1.82,1.82,0,0,0-.82-2,2.56,2.56,0,0,0-2.68.76,1.61,1.61,0,0,0-.41,2.14,1.72,1.72,0,0,0,2,.72s.09-.08.06-.13l0,0a.49.49,0,0,0,.42-.17.08.08,0,0,0,0-.1h0a1.64,1.64,0,0,0,1.45-1.16S20.18,30.46,20.16,30.45Z"/><path class="cls-9" d="M19.83,30.59a1.45,1.45,0,0,0-.63-1.54,1.94,1.94,0,0,0-2.06.6,1.29,1.29,0,0,0-.32,1.68c.31.45,1,.88,1.56.57,0,0,.07-.06,0-.1l0,0a.36.36,0,0,0,.32-.13.07.07,0,0,0,0-.08h0a1.27,1.27,0,0,0,1.11-.91S19.84,30.6,19.83,30.59Z"/><path class="cls-7" d="M72.89,49A32.79,32.79,0,0,0,72,44.42a13.21,13.21,0,0,0-1.77-3.94,16.67,16.67,0,0,0-2.93-3,15.83,15.83,0,0,0-7.88-3.2,38.4,38.4,0,0,0-9.19-.71A13.61,13.61,0,0,0,48,34c-1.42,0-2.87.06-4.3.06-3,0-6.34-.05-9.16-1.31-1.42-.63-2.86-1.22-4.29-1.82a15.33,15.33,0,0,0-3.58-1.21c-.73-.12-1.44-.28-2.17-.34a18.34,18.34,0,0,0-2.24.17,5.44,5.44,0,0,0-1.17.19,5.18,5.18,0,0,0-.81.2,13.2,13.2,0,0,0-7.48,6c-.64,1.09-1.5,2.31-1.39,3.63a5.55,5.55,0,0,0,.82,1.9,11.62,11.62,0,0,0,1.07,1.8A6,6,0,0,0,18,45.6l.44.11a8.12,8.12,0,0,0,1.27.19c0,.11.05.21.07.32A7.32,7.32,0,0,1,19.74,49c-.16.82-.35,1.64-.48,2.47A11,11,0,0,1,18.11,54c-.63,1.53-1.47,3-2,4.55a7.72,7.72,0,0,0-.1,3.6,3.94,3.94,0,0,0,5.22,2.94,5.6,5.6,0,0,0,2.19-1.33,27,27,0,0,1,2.37-3.39c.32-.38.66-.8,1-1.16l0,0a9,9,0,0,0,.79-.75.13.13,0,0,1,.16-.11l.14.06a.09.09,0,0,1,.07,0A26.61,26.61,0,0,0,32,59.38h.19l.14.07c.28.07.56.15.84.24a3.25,3.25,0,0,1,2.38,1.81c.3.69.59,1.41.9,2.1,1.38,2.16,3.73,3.82,6.34,2.82a4.91,4.91,0,0,0,2.85-3.37,26,26,0,0,0,5.63-.58,16.59,16.59,0,0,0,3.61-1.36c.68-.34,1.38-.64,2.07-.94a12.12,12.12,0,0,0,4.92,1.13,14,14,0,0,0,7.2-1.7,8.79,8.79,0,0,0,4-6.33A13.86,13.86,0,0,0,72.89,49Z"/><path class="cls-8" d="M12.11,40.07c.4.23.94.33,1.21.74A11.8,11.8,0,0,1,14,42.36a3.06,3.06,0,0,0,1.11,1.25,6.37,6.37,0,0,1-.91-2.68s.05-.09.1-.09c.88-.11,2.3-1,2-2a2,2,0,0,0-1.28-1.23c-.92-.35-2.62-.52-3.31.35a4,4,0,0,0-.3,1.06A1.39,1.39,0,0,0,12.11,40.07Z"/><path class="cls-8" d="M22.31,35.64s-.09,0-.07-.06c.15-.54.31-1.39-.17-1.83a1,1,0,0,0-1.51.24A.51.51,0,0,1,21,34S21,34,21,34a2.4,2.4,0,0,0-.19,2.45.07.07,0,0,1,0,0,.61.61,0,0,1-.05.53,2.44,2.44,0,0,0-.29,1.46,3.4,3.4,0,0,1,3.35-2.76A2.15,2.15,0,0,0,22.31,35.64Z"/><path class="cls-10" d="M20.58,41.5l.16.13c.06,0,.16,0,.14-.11a1.81,1.81,0,0,0-.46-.74c.05,0,.14-.08.1-.14l-.1-.12c.05,0,.1-.11.06-.16a1.71,1.71,0,0,0-.34-.3c.06,0,.13-.1.07-.15a1.78,1.78,0,0,0-.31-.21c.06,0,.11-.09.06-.14a3,3,0,0,0-.34-.28s.08-.09,0-.12a2.26,2.26,0,0,0-.35-.27.07.07,0,0,0,0-.08,2.07,2.07,0,0,0-.5-.43l0,0a1.87,1.87,0,0,0-1-.23c-.12,0-.05-.15,0-.17h0l.25-.05a3.08,3.08,0,0,0-1.21,0c-.1,0-.07-.1,0-.14l.22-.16a3.39,3.39,0,0,0-.79.37c-.05,0-.14,0-.11-.06a2.36,2.36,0,0,1,.12-.29c-.24.28-.44.47-.8.06a2.82,2.82,0,0,0-3.53-.07.13.13,0,0,1-.08,0,3.78,3.78,0,0,0-.43,1.94,5.55,5.55,0,0,0,.82,1.9,11.62,11.62,0,0,0,1.07,1.8A6,6,0,0,0,18,45.6l.44.11.39.08a1.73,1.73,0,0,0,.73-.38,2.66,2.66,0,0,0,.71-1,.07.07,0,0,0,.08,0c.26-.15.22-.57.15-.9l0,0,.11.3c0,.07.12,0,.13,0a1.3,1.3,0,0,0,0-.61.59.59,0,0,0,0-.13v0a1.59,1.59,0,0,0-.17-1l.12.1c.06.05.17-.05.13-.12A4,4,0,0,0,20.58,41.5Z"/><path class="cls-11" d="M19,43.12a3.24,3.24,0,0,0,.2-1.32c-.2,1.26-.81,2.35-2.3,2.39a2.22,2.22,0,0,1-1.48-.56v0h0a4.42,4.42,0,0,1-.7-.77,9,9,0,0,1-1.21-3.42s0,0,0,0c.17,1.61.56,3.3,1.81,4.3-.09.19-.09.39-.31.51s-.75-.08-1-.29c0,0,0,0,0,0,.3.37.64.65,1.12.43a.86.86,0,0,0,.42-.54,3.76,3.76,0,0,0,.75.4A2.3,2.3,0,0,0,19,43.12Z"/><path class="cls-12" d="M13.69,37.27c-.9,0-2.33.44-2.06,1.62a.06.06,0,0,1,0,0,1.76,1.76,0,0,0,.4.74,2.42,2.42,0,0,0,1.85.77A2.45,2.45,0,0,0,15.35,40a1.83,1.83,0,0,0,.51-1.69A2.41,2.41,0,0,0,13.69,37.27Z"/><path class="cls-13" d="M15.89,38.4c-.08,1-1.18,1.62-2.34,1.58a2.23,2.23,0,0,1-1.77-.72,1.09,1.09,0,0,1-.1-.19,1.79,1.79,0,0,0,.35.57,2.42,2.42,0,0,0,1.85.77A2.45,2.45,0,0,0,15.35,40,1.93,1.93,0,0,0,15.89,38.4Z"/><ellipse class="cls-14" cx="21.36" cy="35.27" rx="1.15" ry="0.5" transform="translate(-14.4 55.8) rotate(-88.66)"/><ellipse class="cls-15" cx="21.6" cy="34.78" rx="0.15" ry="0.35" transform="translate(-1.93 1.28) rotate(-3.24)"/><path class="cls-11" d="M29.33,37.25s0,0,0,0a3.36,3.36,0,0,1,1.08,1.52c-.23-.18-.44-.4-.68-.57,0,0-.11,0-.08.08a5.15,5.15,0,0,1,.44.64,2.52,2.52,0,0,1,0,1.81,3.18,3.18,0,0,0-.39-1s0,0,0,0a2.69,2.69,0,0,1,.2,1.45,2.44,2.44,0,0,0-.44-.65c-.06-.07-.17.05-.16.12a2.16,2.16,0,0,1-.84,2.24,1,1,0,0,0,0-.63h0a1.69,1.69,0,0,1-.69,1.36,4,4,0,0,1-.82.51,3.44,3.44,0,0,0,.5-.94s0,0,0,0a4.62,4.62,0,0,1-2.75,1.91c-.07,0-.84.35-.64.2a3.34,3.34,0,0,0,.49-.47l0,0,.23-.26s0-.07,0,0c-.31.17,0,0-.47.38a4.36,4.36,0,0,1-1.74.64c-.06,0-.15.16,0,.16a2.44,2.44,0,0,0,1.44-.41l-.26.22s0,.1,0,.09a5,5,0,0,0,2.95-1.1,3,3,0,0,0,1.53-1,1.47,1.47,0,0,0,.21-.34,3,3,0,0,0,1-1.16,1.52,1.52,0,0,0,.13-.88c.08.18.15.37.23.59s.22,0,.24-.08a1.58,1.58,0,0,0,.13-.76.13.13,0,0,0,.11-.07A2.32,2.32,0,0,0,30.3,39l-.08-.17a2.23,2.23,0,0,0,.19.24c.05,0,.15,0,.16-.07C30.73,38.33,29.8,37.57,29.33,37.25Z"/><path class="cls-11" d="M22,45.82a7.55,7.55,0,0,1-1.25.07,5.06,5.06,0,0,1-.85,0l-.58,0,.24,0,.05,0a5,5,0,0,0,.48.23c.09,0,.21-.09.17-.17a4.17,4.17,0,0,0,1.71,0C22,46,22.06,45.81,22,45.82Z"/><path class="cls-11" d="M22,52.6s0,0,0,0a7.22,7.22,0,0,1-.49-2.43s0,0,0,0a5,5,0,0,0,0,1.54,6.38,6.38,0,0,1-.19-3.23s0,0,0,0a6.59,6.59,0,0,0-.31,2,3.22,3.22,0,0,0,.58,2,.1.1,0,0,0,.12,0c.06.2.12.4.2.6s.24,0,.22-.13A1.91,1.91,0,0,1,22,52.6Z"/><path class="cls-11" d="M24.86,56.23a9.66,9.66,0,0,1-1.38-1.7c-.24-.42-.32-.93-.53-1.36-.05-.11-.2,0-.2.09a2.75,2.75,0,0,0,0,.49,9.41,9.41,0,0,1-.66-2.47c0-.07-.11,0-.11,0a5.71,5.71,0,0,0,1,3.49h0l0,0c.08.1.25-.09.2-.18a2.94,2.94,0,0,1-.23-.83,7.19,7.19,0,0,0,.48,1.12,5.42,5.42,0,0,0,1.32,1.38S24.9,56.27,24.86,56.23Z"/><path class="cls-11" d="M28,58.05A7.33,7.33,0,0,1,25.46,56c-.05-.07-.17,0-.14.1s.23.32.35.51A7.4,7.4,0,0,1,24,54.47s0,0,0,0a4.77,4.77,0,0,0,2,2.67c.1.07.25-.07.2-.18v0l.49.42a2.75,2.75,0,0,0,1.36.76S28.08,58.08,28,58.05Z"/><path class="cls-11" d="M43.35,50.24a.23.23,0,0,0,.12-.19,3.71,3.71,0,0,0-.57-1.34,4.26,4.26,0,0,0-1.74-2.26s0,0,0,0A4.37,4.37,0,0,1,42.33,48a3.18,3.18,0,0,0-.67-.51s0,0,0,0A5.05,5.05,0,0,1,43,49.61a5.79,5.79,0,0,0-.82-.65c-.09-.06-.23.09-.15.16a6.31,6.31,0,0,1,1.84,2.79c0,.07.14,0,.13-.08A5.33,5.33,0,0,0,43.35,50.24Z"/><path class="cls-11" d="M45.72,61.11a4.5,4.5,0,0,0-.26-2.23,5.3,5.3,0,0,0-.16-2.4,4.77,4.77,0,0,0-.24-.67,4.26,4.26,0,0,1,.32.46c.07.12.24,0,.28-.09a1.8,1.8,0,0,0-.49-1.48,3.24,3.24,0,0,0-.61-1.54c.14.06.32-.15.22-.28a8.3,8.3,0,0,0-1.44-1.45s0,0,0,0c.25.31.48.64.7,1l-.34-.19c-.09-.05-.25.14-.16.2a3.75,3.75,0,0,1,1.38,2,2.38,2.38,0,0,0-.85-.61s0,0,0,0a3.3,3.3,0,0,1,1.22,1.82,4.32,4.32,0,0,0-.61-.58c-.06,0-.17.05-.13.12a6.11,6.11,0,0,1,.82,3.37,11.28,11.28,0,0,0-.56-1.13s0,0,0,0a12.9,12.9,0,0,1,.58,2,7.36,7.36,0,0,1,.1,1,7.06,7.06,0,0,0-.52-.91s0,0,0,0a5.82,5.82,0,0,1,.6,3.73c0,.07.07,0,.09,0A2.43,2.43,0,0,0,45.72,61.11Z"/><path class="cls-11" d="M31.78,56.12s0,0,0,0a3.56,3.56,0,0,0,.51,1.69c-.87-.92-1.86-2.12-1.84-3.43,0-.12-.14-.07-.17,0a2.67,2.67,0,0,0-.07.89,4.3,4.3,0,0,1-.4-2.54s0,0,0,0a3.38,3.38,0,0,0-.12,1.41,15.85,15.85,0,0,1-.67-1.95s0,0,0,0a5.88,5.88,0,0,0,.7,2.5.08.08,0,0,0,.1,0,6,6,0,0,0,.55,1.43c.08.14.29,0,.27-.15s0-.26-.07-.4a5.86,5.86,0,0,0,1.83,2.54s.12,0,.15-.05c.79,1.15,2.06,2.06,2.86,3.19,0,0,.1,0,.08-.06C34.54,59.26,32.27,58.37,31.78,56.12Z"/><path class="cls-11" d="M57,60c-.07,0-.17-.06-.25-.1a2.35,2.35,0,0,1-.28-.17,3.3,3.3,0,0,1-.46-.39s-.06,0,0,0a4.17,4.17,0,0,0,.4.47A3.86,3.86,0,0,1,55,58.53c-.13-.29-.26-.58-.4-.86,0-.07-.13,0-.12.07a4.12,4.12,0,0,0,.73,1.54l.09.16c-.29-.52-1.09-1.14-1.46-1.81A9.39,9.39,0,0,1,53,55.12s-.06,0-.06,0a9.17,9.17,0,0,0,.35,2,6.57,6.57,0,0,1-1.55-4.2c0-.11-.16,0-.18,0a3.7,3.7,0,0,0-.13,1,7.22,7.22,0,0,1-.31-2.39s0,0,0,0a5.52,5.52,0,0,0-.1,1.63,7.91,7.91,0,0,1-.52-1.92,7.92,7.92,0,0,1,.3-2.34c0-.12-.12-.06-.16,0a2.51,2.51,0,0,0-.27.46A6.84,6.84,0,0,1,51,47.26s0,0,0,0a5.48,5.48,0,0,0-.64,1.23,7.21,7.21,0,0,1,.2-1.05,11.46,11.46,0,0,1,.43-1.2s0,0,0,0a4.54,4.54,0,0,0-.82,2.73s0,0,.06,0A5.81,5.81,0,0,0,50,50.39c0,.17.21.1.24,0s0-.15.05-.23c0,.27,0,.54-.05.81a5.3,5.3,0,0,0,.85,3,5.4,5.4,0,0,0,.35,1c.06.13.19.05.27-.06l0,.12a6.58,6.58,0,0,0,1.78,2.74c.05.12.11.24.17.36.3.56,1.05,1.57,1.77,1.54a.14.14,0,0,0,.08,0,1.55,1.55,0,0,0,.85.39.12.12,0,0,0,.11-.11c.13.12.3.27.48.22S57.1,60,57,60Z"/><path class="cls-11" d="M73.3,51.32a11,11,0,0,0-.18-1.18,5,5,0,0,0-.24-2.31c.08,0,.18-.1.17-.17a8.09,8.09,0,0,0-.55-1.93.2.2,0,0,0,.09-.17,6.3,6.3,0,0,0-2.15-3.72s-.07,0,0,.05a6.65,6.65,0,0,1,1.75,3l-.2-.24a1.66,1.66,0,0,0-.38-.37h0l-.16-.14c-.08-.07-.22.09-.14.16a3.19,3.19,0,0,1,.78.93,6.59,6.59,0,0,1,.68,1.92l-.21-.31a4.78,4.78,0,0,0-.43-.7h0v0c-.06-.09-.23.08-.18.16.14.25.29.52.46.78a7.13,7.13,0,0,1,.55,2.22,2.55,2.55,0,0,0-.4-.67s-.06,0,0,0a5.8,5.8,0,0,1,.4,1.94A18.12,18.12,0,0,1,73,53.06.14.14,0,0,0,73,53l0,0a11.66,11.66,0,0,0,.24-1.55S73.31,51.36,73.3,51.32Z"/><path class="cls-11" d="M19.86,49.67l-.12.18c.11-.4.17-.78.26-1.2,0,0,0,0,0,0-.18.54-.33,1.07-.54,1.61-.05.13.1.11.16,0l0,.07a5.08,5.08,0,0,0-.38,1.27,2.73,2.73,0,0,0-.27.66c0,.05,0,.07,0,.08a7.11,7.11,0,0,0-.59.85s0,.07,0,.07c-.15.2-.26.42-.4.63s.06.18.15.1l0,0a3.63,3.63,0,0,0-.61,1.21.06.06,0,0,0,0,0,10.55,10.55,0,0,0-.65,1c-.06.1,0,.2.11.16a8.08,8.08,0,0,0-.46.7c-.06.1,0,.17.08.16a5.31,5.31,0,0,0-.52,1.34l-.08.15c-.17.36-.47,1-.27,1.4a.06.06,0,0,0,0,0,1.74,1.74,0,0,0,0,1.09c0,.07.12,0,.13-.06a2.88,2.88,0,0,1,.06-.35A2.87,2.87,0,0,0,16,62.18s0,0,0,.06a1.34,1.34,0,0,0,.21.82.1.1,0,0,0,.12,0,.77.77,0,0,0,.32.64.07.07,0,0,0,.07,0,1.63,1.63,0,0,0,.3.35s.11,0,.08-.07a3.86,3.86,0,0,1-.61-2.4c0-.1-.14,0-.15.05s-.07.4-.09.59a3.88,3.88,0,0,1,.15-1.4s0,0,0,0a3.66,3.66,0,0,0-.3.77,3.44,3.44,0,0,1,.23-1.65s0,0-.06,0a2.18,2.18,0,0,0-.36,1.15A4.12,4.12,0,0,1,16.44,59s0,0,0,0l-.21.33a4.2,4.2,0,0,1,.19-.68,3.07,3.07,0,0,1,.36-.81.31.31,0,0,0,.09-.21s0,0,0,0a2.8,2.8,0,0,1-.35.43,4.28,4.28,0,0,1,1-1.59c.06-.05.05-.17,0-.16l-.13,0a6.62,6.62,0,0,1,.6-.79s0,0,0,0a5.77,5.77,0,0,0-.62.65c.17-.29.33-.59.51-.87a11.84,11.84,0,0,0,.74-1s0,0,0,0a7.38,7.38,0,0,1-.68.69,7.19,7.19,0,0,1,1.17-1.82c.07-.09,0-.18-.1-.09l-.33.32.16-.25a4.38,4.38,0,0,0,.59-.88s0,0,0,0a5.27,5.27,0,0,1-.6.72c.23-.31.47-.6.68-.92s.32-.37.35-.6c0-.06-.05-.06-.09,0a.84.84,0,0,0-.17.13,3.7,3.7,0,0,1,.42-.9s0,0,0,0a1.5,1.5,0,0,0-.33.36c.16-.46.34-.89.5-1.35C20,49.6,19.89,49.61,19.86,49.67Z"/><path class="cls-16" d="M14,37.79l.06-.23a2.93,2.93,0,0,0-.47,0,3.24,3.24,0,0,0-1.48.39l-.14.2A3.19,3.19,0,0,1,14,37.79Z"/><path class="cls-16" d="M14.28,37.61l-.06.22a5.55,5.55,0,0,1,1.2.34A2.39,2.39,0,0,0,14.28,37.61Z"/><path class="cls-17" d="M77.27,62.46c-.25-.45-.58-.84-.79-1.31A11.33,11.33,0,0,1,76,59.75c0-.11-.2,0-.19.11a3.26,3.26,0,0,0,.11.54,16.08,16.08,0,0,1-.52-1.53s-.06,0-.05,0a4.91,4.91,0,0,1,.08.65l-.32-.67a3,3,0,0,1-.29-1.09.87.87,0,0,0-.08-.45s0,0,0,0a3.42,3.42,0,0,1,0,.87,2.28,2.28,0,0,0,.1.54,4.29,4.29,0,0,1-.7-2.18c0-.11-.18,0-.19.06s0,.23,0,.34a7.89,7.89,0,0,1-.07-1.6c0-.11-.1-.09-.16,0a3.69,3.69,0,0,0-.18-1.46s0,0,0,0a8.18,8.18,0,0,1-.13,2.59c0,.15.18.08.21,0,.09-.26.17-.52.23-.79a3.94,3.94,0,0,0-.14.69,3.28,3.28,0,0,0,.25,1.3c0,.08.13,0,.18,0v0a3.52,3.52,0,0,0,.76,1.36s.06,0,.09,0l.06.15c.15.33.28,1.06.7,1.14h0a3.37,3.37,0,0,0,.48.83s.08,0,.11,0a5,5,0,0,0,.87,1.39C77.19,62.63,77.31,62.52,77.27,62.46Z"/><path class="cls-17" d="M89.64,60.44A1.86,1.86,0,0,0,89,59a4.34,4.34,0,0,0-.71-1.36,4.25,4.25,0,0,0-.45-.46.22.22,0,0,0,.08-.16c0-.39-.42-.65-.71-.84L86.85,56a.1.1,0,0,0,0-.06,3.52,3.52,0,0,0-2.52-1.79s0-.07,0-.1a5.24,5.24,0,0,0-1.23-.81.08.08,0,0,0,0-.11,5.06,5.06,0,0,0-1.45-.83c-.73-.34-1.59-.3-2.3-.64,0,0,0,0,0,0a6.7,6.7,0,0,0,1.57.65c.46.17.89.39,1.33.61l-.15,0-.13,0-.27,0s-.07.06,0,.07a7,7,0,0,1,2.51,1.2,3.59,3.59,0,0,0-.55,0s-.06.05,0,.06a5.73,5.73,0,0,1,2.52,1.47l-.31-.1s-.06,0,0,.05a4.59,4.59,0,0,1,1.06.74c.12.12.29.24.45.38l-.43-.21c-.09,0-.24.13-.15.2a7.09,7.09,0,0,1,1.07.82,6.77,6.77,0,0,1,.88,1.23,6.47,6.47,0,0,0-.53-.41s0,0,0,0a4.61,4.61,0,0,1,.8,1,4.51,4.51,0,0,1,.22.46,2.14,2.14,0,0,0-.42-.29s0,0,0,0a3.72,3.72,0,0,1,.79,1.14,9.27,9.27,0,0,1,.34,1.5c0,.06.12,0,.13,0A2.32,2.32,0,0,0,89.64,60.44Z"/><path class="cls-17" d="M82.68,66a2.88,2.88,0,0,1-1.61-1.07,3.34,3.34,0,0,0-.36-.64s-.1,0-.09.08a3.41,3.41,0,0,0,.15.35v0a2.83,2.83,0,0,0,.12.29c-.21-.25-.4-.57-.53-.75a4.9,4.9,0,0,1-.69-1.36s0,0,0,0a4.55,4.55,0,0,0,.71,1.6,2.79,2.79,0,0,0,.76.94s.09,0,.11-.06a2.19,2.19,0,0,0,1.38.69S82.74,66,82.68,66Z"/><path class="cls-17" d="M81,65.48a4.88,4.88,0,0,1-1.23-1l-.14-.15L79.41,64s-.06,0-.06,0a1.72,1.72,0,0,0,.27.56c-.35-.17-.84-1.18-.91-1.33s0,0,0,0c.09.28.55,1.63,1,1.51h0a2.54,2.54,0,0,0,1.16.82C81,65.64,81.09,65.52,81,65.48Z"/><path class="cls-17" d="M81.81,62.9a9.21,9.21,0,0,1-1.52-1.59,5.3,5.3,0,0,1-.56-1.47c0-.06-.11,0-.13,0a2,2,0,0,0-.08.6,2.28,2.28,0,0,1-.28-1.28s0,0,0,0a2.43,2.43,0,0,0,.39,1.92c.07.09.19,0,.2-.13a4.65,4.65,0,0,0,1.87,2C81.76,63.09,81.88,63,81.81,62.9Z"/><path class="cls-17" d="M87.5,61.62c.07,0,.13-.06.13-.12a2.42,2.42,0,0,0-.86-1.4h0a4,4,0,0,1,.68,1.25c-.18-.14-.33-.32-.51-.46s-.19.07-.12.14a2.41,2.41,0,0,1,.57,2.13c0,.09.11,0,.13,0a2.11,2.11,0,0,0-.14-1.62Z"/><path class="cls-17" d="M87,62.56s-.06,0,0,0a4,4,0,0,1,.29,1.4c0,.07.1,0,.11,0A1.81,1.81,0,0,0,87,62.56Z"/><path class="cls-18" d="M74.53,53.37a3.72,3.72,0,0,1-.3-1,4,4,0,0,0-.17-.79s0,0,0,0c.07.35.06.72.12,1.08a1.26,1.26,0,0,0,.28.75S74.55,53.42,74.53,53.37Z"/><path class="cls-18" d="M75.2,54.57a7,7,0,0,1-.37-1.1,9.67,9.67,0,0,0-.21-1.05s-.06,0-.06,0c.07.74,0,1.64.5,2.24C75.12,54.76,75.23,54.64,75.2,54.57Z"/><path class="cls-18" d="M22.55,53.66A6.73,6.73,0,0,1,22,52.17a10.14,10.14,0,0,1-.08-1.37s0,0,0,0a8.47,8.47,0,0,0,0,1.64c.05.42.22,1.12.63,1.32C22.5,53.81,22.57,53.71,22.55,53.66Z"/><path class="cls-18" d="M29.6,45.69l.1,0a.16.16,0,0,0,.14-.11c.08-.23-.16-.4-.29-.57s-.46-.55-.78-.56c0,0,0,0,0,0,.21,0,.36.27.48.43a3.24,3.24,0,0,1,.37.49,5,5,0,0,1-.48-.3h0c-.07,0-.19.11-.12.15l.09.07.09.08a2.94,2.94,0,0,1,.62,1.41c0,.06.1,0,.1,0A2.28,2.28,0,0,0,29.6,45.69Z"/><path class="cls-18" d="M29.2,46.18s0,0,0,0a1.63,1.63,0,0,1,.33.57c.1.25.12.51.2.77,0,.06.09,0,.1,0A1.54,1.54,0,0,0,29.2,46.18Z"/><path class="cls-18" d="M29,34.8a2.43,2.43,0,0,0-.64-.41s-.08.05,0,.07a2.46,2.46,0,0,1,.91.89c0,.05.1,0,.1-.06A.82.82,0,0,0,29,34.8Z"/><path class="cls-18" d="M28.5,34.84s0,0,0,0a3,3,0,0,1,1.13,1.58c0,.06.13,0,.12-.07A2.1,2.1,0,0,0,28.5,34.84Z"/><path class="cls-18" d="M29.08,36S29,36,29,36a4.68,4.68,0,0,1,.66.78s.09,0,.07-.05A2.44,2.44,0,0,0,29.08,36Z"/><path class="cls-18" d="M24.17,29.41a1.39,1.39,0,0,0-.8,0,.05.05,0,0,0,0,0c-.06-.11-.25-.06-.37,0a0,0,0,0,0,0-.06,1.09,1.09,0,0,0-.78.1,2,2,0,0,0-1.56.75s0,.07,0,0a2.89,2.89,0,0,1,.82-.43.87.87,0,0,0-.17.17s0,.07,0,.06h0a4.16,4.16,0,0,1,.71-.34l.48-.12a2.62,2.62,0,0,0-.39.23s0,0,0,0a4.14,4.14,0,0,1,.7-.28.85.85,0,0,1,.34-.06h0l-.19.08s0,0,0,0a2.82,2.82,0,0,1,1.11-.1S24.22,29.42,24.17,29.41Z"/><path class="cls-18" d="M39.46,66.17a4.18,4.18,0,0,1-2.37-2.43s-.06,0-.05,0a5.36,5.36,0,0,0,.34.92,2.63,2.63,0,0,1-.53-.91c-.12-.39-.11-.81-.24-1.18,0-.08-.14,0-.16.05a1.15,1.15,0,0,0,0,.25c-.13-.47-.19-1-.33-1.44,0,0,0,0,0,0,.07.39.09.77.14,1.14a4.09,4.09,0,0,1-.46-2c0-.07-.09,0-.1,0a3.32,3.32,0,0,0-.13.44,6.62,6.62,0,0,1-.26-1.09s-.06,0-.06,0a5.51,5.51,0,0,0,.24,1.66c0,.15.23,0,.23-.1l0,.15a3,3,0,0,0,.45,1.12s.06,0,.09,0a3.1,3.1,0,0,0,.37,1.11s.08,0,.13,0a2.44,2.44,0,0,0,.81,1.15.06.06,0,0,0,.07,0,2.29,2.29,0,0,0,1.82,1.22S39.52,66.2,39.46,66.17Z"/><path class="cls-18" d="M45.5,62.69A2.83,2.83,0,0,0,44.85,61s0,0,0,0a3.45,3.45,0,0,1,.5,1.7.68.68,0,0,0-.22-.36s0,0,0,0a1.64,1.64,0,0,1,.15.87,2.45,2.45,0,0,1-.14.76.05.05,0,0,0,.07.07c.24-.12.23-.42.23-.65C45.62,63.32,45.51,62.9,45.5,62.69Z"/><path class="cls-18" d="M52,33.45a5.51,5.51,0,0,0-1.88.14,3.65,3.65,0,0,0-.5.16c0-.06,0-.13-.06-.14a1.57,1.57,0,0,0-.85.19,3.83,3.83,0,0,0-1,.15l-.17.06c.05-.07.07-.2,0-.17a6.1,6.1,0,0,1-2.19.32h0a2.8,2.8,0,0,0,1.7,0l-.11.12c0,.06,0,.15.06.12A7.51,7.51,0,0,1,48.31,34a5.73,5.73,0,0,0-.54.38s0,0,0,0a5.66,5.66,0,0,1,1.28-.52l-.39.29s0,.1,0,.08c.39-.1.74-.34,1.13-.46a7.42,7.42,0,0,1,2.11-.25S52,33.45,52,33.45Z"/><path class="cls-19" d="M12.86,41.24l0,0s-.11,0-.06.07l.07,0S12.89,41.26,12.86,41.24Z"/><path class="cls-19" d="M13,41.94S13,42,13,42,13.08,41.94,13,41.94Z"/><path class="cls-19" d="M13.25,41.52s0,0,0,0S13.28,41.52,13.25,41.52Z"/><path class="cls-19" d="M12.67,40.86c-.06,0-.13.12,0,.12S12.75,40.86,12.67,40.86Z"/><path class="cls-19" d="M13.37,41.14c-.05,0-.11.11,0,.11S13.43,41.14,13.37,41.14Z"/><path class="cls-19" d="M13.56,42c-.05,0-.1.1,0,.1S13.62,42,13.56,42Z"/><path class="cls-19" d="M13.72,42.58c-.06,0-.12.13,0,.13S13.8,42.58,13.72,42.58Z"/><path class="cls-19" d="M12.49,41.31c-.07,0-.14.14-.05.14S12.58,41.31,12.49,41.31Z"/><path class="cls-19" d="M16.48,40.41c-.05,0-.11.11,0,.11S16.55,40.41,16.48,40.41Z"/><path class="cls-19" d="M16,41.35c-.06,0-.12.12,0,.12S16.08,41.35,16,41.35Z"/><path class="cls-19" d="M15.87,41.94c-.06,0-.12.12,0,.12S15.94,41.94,15.87,41.94Z"/><path class="cls-19" d="M15.84,42.39c-.07,0-.14.14,0,.14S15.93,42.39,15.84,42.39Z"/><path class="cls-19" d="M15.24,41.21l-.06,0s-.08,0-.08.06a.2.2,0,0,0,0,.06C15.1,41.43,15.32,41.3,15.24,41.21Z"/><path class="cls-19" d="M15.13,40.72s0,0,0,0S15.15,40.72,15.13,40.72Z"/><path class="cls-19" d="M15.66,40.58h0c-.09-.05-.15.17,0,.12h0S15.7,40.6,15.66,40.58Z"/><path class="cls-19" d="M16,40.77s-.09.09,0,.09S16.11,40.77,16,40.77Z"/><path class="cls-19" d="M16.74,41.21s-.06.06,0,.06S16.78,41.21,16.74,41.21Z"/><path class="cls-19" d="M17.35,41.7c-.08,0-.16.16-.06.16S17.45,41.7,17.35,41.7Z"/><path class="cls-19" d="M17.33,42.62c-.08,0-.16.16-.06.16S17.43,42.62,17.33,42.62Z"/><path class="cls-19" d="M16.77,42.6c-.06,0-.18,0-.13.12v0c0,.13.21.06.18-.06A.12.12,0,0,0,16.77,42.6Z"/><path class="cls-19" d="M16.75,41.76c-.05,0-.11.11,0,.11S16.82,41.76,16.75,41.76Z"/><path class="cls-19" d="M18.11,40.59c-.1,0-.19.19-.07.19S18.23,40.59,18.11,40.59Z"/><path class="cls-19" d="M17.27,39.43s0,0,0,0-.14,0-.16.05,0,.11,0,.14S17.38,39.45,17.27,39.43Z"/><path class="cls-19" d="M16.68,39.29h0s-.07,0-.07,0,0,.05,0,.07S16.76,39.28,16.68,39.29Z"/><path class="cls-19" d="M15.66,39.92s-.07,0-.06.08,0,0,0,0S15.71,39.91,15.66,39.92Z"/><path class="cls-20" d="M13.72,42.58s0,0,0,0a7.11,7.11,0,0,0-1,5.51s.06,0,.05,0A7.27,7.27,0,0,1,13.72,42.58Z"/><path class="cls-20" d="M13.48,42c-2,1.09-2.38,3.16-2.34,5.24,0,0,.05,0,.05,0,.06-2.08.39-4,2.29-5.22C13.49,42,13.49,42,13.48,42Z"/><path class="cls-20" d="M13.36,41.55a4.48,4.48,0,0,0-2.86,3.9s0,0,0,0a4.6,4.6,0,0,1,2.84-3.84S13.4,41.53,13.36,41.55Z"/><path class="cls-20" d="M13,41.07a6,6,0,0,1-3,.48s0,0,0,0a5.62,5.62,0,0,0,3-.45S13.07,41.05,13,41.07Z"/><path class="cls-20" d="M12.86,41.5A5.09,5.09,0,0,0,11,42.81s0,0,0,0a5.81,5.81,0,0,1,1.9-1.28S12.88,41.5,12.86,41.5Z"/><path class="cls-20" d="M16.55,42.06s0,0,0,0a8.56,8.56,0,0,1,2.18,5.47s0,0,0,0A7.91,7.91,0,0,0,16.55,42.06Z"/><path class="cls-20" d="M16.53,41.43h0c2.1.13,3.29,2.11,4.06,3.83,0,0,.05,0,0,0C20,43.45,18.63,41.5,16.53,41.43Z"/><path class="cls-20" d="M21.35,43.05a5.4,5.4,0,0,0-4.76-2.3h0a5.63,5.63,0,0,1,4.73,2.32S21.36,43.06,21.35,43.05Z"/><path class="cls-20" d="M18.92,39a8.8,8.8,0,0,1-3.59,1.48s0,0,0,0A8.29,8.29,0,0,0,18.94,39S18.95,39,18.92,39Z"/><path class="cls-20" d="M15.5,41.42s0,0,0,0a7.72,7.72,0,0,1,1.66,5.45s0,0,0,0A7.48,7.48,0,0,0,15.5,41.42Z"/><path class="cls-21" d="M16.69,44.36a2.94,2.94,0,0,1-1.26-.57.87.87,0,0,1-.35.58h0c0,.07.08.13.12.2l0,.08a1.28,1.28,0,0,0,1,.91.6.6,0,0,0,.64-.83A1.42,1.42,0,0,0,16.69,44.36Z"/><path class="cls-15" d="M15.79,44l-.1,0a.63.63,0,0,0-.2-.08,6.82,6.82,0,0,0,.75,1.28,1.49,1.49,0,0,1-.59-.69,3.19,3.19,0,0,1-.19-.59l-.06,0a.9.9,0,0,1-.21.36.32.32,0,0,0,0,.13h0l.12.23a.06.06,0,0,0,0,0c.19.42.51.94,1.05.79a.57.57,0,0,0,.44-.46.88.88,0,0,0-.29-.69A2.83,2.83,0,0,1,15.79,44Z"/><path class="cls-22" d="M20.6,37.75a4.42,4.42,0,0,1,2.08-2.1l-.13,0a2.46,2.46,0,0,0-.93.47A2.93,2.93,0,0,0,20.45,38Z"/><path class="cls-23" d="M26.1,32.68a5.79,5.79,0,0,1-.26-1.28v0A1.2,1.2,0,0,0,26.1,32.68Z"/><path class="cls-23" d="M22.75,52.94c0,.05-.12.12-.15.05a3,3,0,0,1-.09-.3c0,.22,0,.43,0,.65a.1.1,0,0,1,0,.06c.1.26.22.52.35.77a5.39,5.39,0,0,1,0-1.3c0-.06.14-.15.15-.05a4.76,4.76,0,0,0,1.27,2.84c-.13-.41-.21-.83-.32-1.24,0-.07.11-.17.15-.09a4.8,4.8,0,0,0,1.37,2c-.15-.33-.29-.66-.42-1,0-.05.06-.13.12-.11a4,4,0,0,1-.73-1.33c0,.24.06.47.11.71,0,.06-.09.16-.14.1a3.87,3.87,0,0,1-.63-1.2c0,.32.08.65.12,1,0,.06-.09.16-.14.1A3.79,3.79,0,0,1,23,51.74,10,10,0,0,0,22.75,52.94Z"/><path class="cls-23" d="M51.46,52.76s-.11.12-.15.05-.06-.14-.08-.2a4.26,4.26,0,0,0,.43,1.34,3.83,3.83,0,0,1,.15-.89c0-.06.14-.13.15,0a7.86,7.86,0,0,0,1.12,3.67,4.85,4.85,0,0,1-.1-1.57s.12-.16.15-.07a9.35,9.35,0,0,0,1.13,2.82c-.05-.22-.09-.44-.13-.66,0,0-.08,0-.1,0a6.28,6.28,0,0,1-.75-3.35c-.1.29-.19.58-.28.87,0,.06-.14.13-.15,0,0-.3,0-.61-.05-.91a8.64,8.64,0,0,0-.14,1.49c0,.06-.11.14-.15.07a5.8,5.8,0,0,1-.26-3.51,5.16,5.16,0,0,1-.33.61s-.14.11-.14,0a3.61,3.61,0,0,1,.19-1A11.21,11.21,0,0,0,51.46,52.76Z"/><path class="cls-23" d="M50.74,49.17c-.06.12-.11.23-.16.35a6.15,6.15,0,0,0,.32,3.13,5.08,5.08,0,0,1,.22-.91,3.56,3.56,0,0,1,.23-1.05,6,6,0,0,0-.43,1c0,.06-.14.13-.15,0a4.55,4.55,0,0,1,.8-3.36c-.25.25-.47.53-.72.78C50.84,49.17,50.77,49.19,50.74,49.17Z"/><path class="cls-23" d="M50.74,48.91l.17-.28a4.39,4.39,0,0,1,.38-.72,2.3,2.3,0,0,0-.54.64c.05,0,.14,0,.1.06S50.78,48.81,50.74,48.91Z"/><path class="cls-23" d="M39.82,45.23l.11.09a8.62,8.62,0,0,1-.34-1.61,5.85,5.85,0,0,0,.13,1.53A.08.08,0,0,1,39.82,45.23Z"/><path class="cls-23" d="M21.06,52.66a.11.11,0,0,1,0,.06c.18.32.39.63.6.94a9.73,9.73,0,0,1-.51-1.53A4.31,4.31,0,0,0,21.06,52.66Z"/><path class="cls-23" d="M20.49,51.08a3.36,3.36,0,0,0,.12.64,3.67,3.67,0,0,1,0-.83Z"/><path class="cls-6" d="M17.93,65.42a10.36,10.36,0,0,0-2.69,1.18c-.65.43-1.65,1.19-1.73,2h0a3.2,3.2,0,0,1,1-1.19,7.39,7.39,0,0,1,.93-.74c.34-.23.7-.4,1-.63a8,8,0,0,1,1.45-.61S18,65.41,17.93,65.42Z"/><path class="cls-6" d="M17.45,65.07a10.21,10.21,0,0,0-2.65,1,2.62,2.62,0,0,0-1.39,1.42h0a5.19,5.19,0,0,1,1.8-1.42,12.54,12.54,0,0,1,2.24-1S17.47,65.06,17.45,65.07Z"/><path class="cls-6" d="M19,65.7a16.64,16.64,0,0,0-2.72,1.52c-.53.39-1.5,1-1.52,1.75h0c.11-.49.68-.89,1.05-1.18s.63-.48,1-.7c.72-.48,1.49-.88,2.22-1.34C19.09,65.73,19.08,65.68,19,65.7Z"/><path class="cls-6" d="M20.31,66c-1.15.54-2.56,1.54-2.83,2.87,0,0,0,0,0,0,.59-1.26,1.79-2,2.84-2.79C20.37,66,20.37,66,20.31,66Z"/><path class="cls-8" d="M72.89,49A32.79,32.79,0,0,0,72,44.42a13.21,13.21,0,0,0-1.77-3.94,16.67,16.67,0,0,0-2.93-3,15.83,15.83,0,0,0-7.88-3.2,38.4,38.4,0,0,0-9.19-.71A13.61,13.61,0,0,0,48,34c-1.42,0-2.87.06-4.3.06-3,0-6.34-.05-9.16-1.31-1.42-.63-2.86-1.22-4.29-1.82a15.33,15.33,0,0,0-3.58-1.21c-.73-.12-1.44-.28-2.17-.34a18.34,18.34,0,0,0-2.24.17,5.44,5.44,0,0,0-1.17.19,5.18,5.18,0,0,0-.81.2,14,14,0,0,0-4.6,2.54,6.51,6.51,0,0,1,.82-.52c.08,0,.13.05.05.1a3.21,3.21,0,0,0-.75.8A11.24,11.24,0,0,1,19,31c.1,0,.08.09,0,.12a2.68,2.68,0,0,0-.56.37,9.17,9.17,0,0,1,1.61-.66c.07,0,.1,0,.05.09a11.46,11.46,0,0,0-1.26,1.46,6.15,6.15,0,0,1,1.24-.93,4.55,4.55,0,0,1,1.43-.95.05.05,0,0,1,.06.08c-.16.27-.32.53-.47.81a8.81,8.81,0,0,1,1-.75c.07,0,.12,0,.07.09a4.13,4.13,0,0,0-.82,1.48,9.64,9.64,0,0,1,1.46-1.7c0-.05.16-.06.12,0a5.11,5.11,0,0,0-.26.76A3.14,3.14,0,0,1,23,31s.13-.08.13,0h0a1.75,1.75,0,0,1,1.42-.8c.05,0,0,.07,0,.1a3.85,3.85,0,0,0-.66.84,2.27,2.27,0,0,1,1.47-.81c.06,0,.06.06,0,.1-.14.19-.27.39-.39.59a2.14,2.14,0,0,1,.76-.55s-.22.92-.25,1.37a1.88,1.88,0,0,1,.18-.44c0-.05.16-.1.14,0a1.19,1.19,0,0,0,.29,1.28c.06,0-.06.13-.1.13l-.3,0a3.42,3.42,0,0,1,.56.45s0,.12-.09.12a2.09,2.09,0,0,0-.5.09,1.14,1.14,0,0,1,.82.28s0,.12-.09.12c-.25,0-.5.07-.75.13A2.46,2.46,0,0,1,27,35.07c0,.06-.06.15-.12.12a2.6,2.6,0,0,0-.54-.22,1.76,1.76,0,0,1,.8,1.17c0,.06-.09.12-.14.08a1.31,1.31,0,0,0-.55-.32c.53.82,1.15,1.55.89,2.6,0,0-.08.11-.13.07-.22-.17-.37-.39-.57-.57A2.1,2.1,0,0,1,27,39.06s-.08.12-.13.09a2.76,2.76,0,0,1-.37-.32,3.19,3.19,0,0,1,0,2.61s-.11.09-.14,0c-.18-.4-.31-.82-.49-1.21a2.31,2.31,0,0,1-.24,1.65s0,.05,0,.08-.15.15-.15.05v-.08a.05.05,0,0,1,0,0,4.34,4.34,0,0,0-.13-.91A3.4,3.4,0,0,1,25,42.34s-.14.1-.14,0c0-.26,0-.53-.07-.79a2.32,2.32,0,0,1-1,1.7s-.09,0-.1,0c0-.32,0-.63.06-.94A3.78,3.78,0,0,1,22.27,44s-.12,0-.09,0a7.51,7.51,0,0,0,.25-.76c-.76,1.06-2.14,1.46-3.33,1.89-.1,0-.07-.09,0-.12a3.17,3.17,0,0,0,.5-.39,4.13,4.13,0,0,1-1.61.52c-.1,0,0-.12,0-.14,1.35-.35,2.18-2.13,1.2-3.19a2.67,2.67,0,0,1-1.1,2.07,2.23,2.23,0,0,1-2.4,0l-.26-.07v0l0,0v0c0,.06-.08.13-.13.11h0a.93.93,0,0,1-.6.3,2.45,2.45,0,0,1-.53,0A5.84,5.84,0,0,0,18,45.6l.44.11a8.12,8.12,0,0,0,1.27.19c0,.11.05.21.07.32A7.32,7.32,0,0,1,19.74,49c-.16.82-.35,1.64-.48,2.47A11,11,0,0,1,18.11,54c-.63,1.53-1.47,3-2,4.55a7.72,7.72,0,0,0-.1,3.6,3.94,3.94,0,0,0,5.22,2.94,5.6,5.6,0,0,0,2.19-1.33,27,27,0,0,1,2.37-3.39c.32-.38.66-.8,1-1.16l0,0a9,9,0,0,0,.79-.75.13.13,0,0,1,.16-.11l.14.06a.09.09,0,0,1,.07,0A26.61,26.61,0,0,0,32,59.38h.19l.14.07c.28.07.56.15.84.24a3.25,3.25,0,0,1,2.38,1.81c.3.69.59,1.41.9,2.1,1.38,2.16,3.73,3.82,6.34,2.82a4.91,4.91,0,0,0,2.85-3.37,26,26,0,0,0,5.63-.58,16.59,16.59,0,0,0,3.61-1.36c.68-.34,1.38-.64,2.07-.94a12.12,12.12,0,0,0,4.92,1.13,14,14,0,0,0,7.2-1.7,8.79,8.79,0,0,0,4-6.33A13.86,13.86,0,0,0,72.89,49ZM22.5,56.82a4.19,4.19,0,0,0-1-1.63,5.36,5.36,0,0,1,1,3.32c0,.05-.13.15-.15.07a5,5,0,0,0-.57-1.31,4.16,4.16,0,0,1-.07,2.92s-.13.1-.14,0a6.4,6.4,0,0,0-.12-.89c-.07,1.14-.13,2.51-1.2,3.12,0,0-.12,0-.09,0,.09-.22.2-.43.29-.64a3.94,3.94,0,0,1-2.77,2c-.08,0-.06-.08,0-.11a3.47,3.47,0,0,0,.73-.73,3.57,3.57,0,0,1-1.17.26s0-.05,0-.08c.09-.21.2-.41.3-.61a6.11,6.11,0,0,0-.59.42s-.11,0-.11,0A5.88,5.88,0,0,1,17,61.63l-.31.5s-.14.11-.14,0a4.77,4.77,0,0,1,.34-1.56,4.37,4.37,0,0,0-.49.81s-.15.1-.14,0a5.39,5.39,0,0,1,.83-2.46c-.2.19-.38.4-.56.61,0,0-.15.07-.13,0a6.48,6.48,0,0,1,1.2-2.17A2.73,2.73,0,0,0,17,58s-.16.07-.13,0a5.6,5.6,0,0,1,1.68-2.37,2.91,2.91,0,0,0-.74.46s-.16,0-.1-.06a9.16,9.16,0,0,1,.94-1.12,4,4,0,0,0-.49.35c-.05,0-.14,0-.1-.05a9.64,9.64,0,0,1,1.53-1.89,2.69,2.69,0,0,0-.79.54c-.05.05-.14,0-.1-.05a4.19,4.19,0,0,1,1-1.23,3.76,3.76,0,0,1,.27-1.24c0-.05.14-.13.15,0s.06.49.09.74a3.54,3.54,0,0,1,.15-1.1c0-.05.15-.13.15,0,0,1.42,1,2.48,1.68,3.61,0,.07-.08.17-.13.11a2.31,2.31,0,0,0-.72-.58,5.8,5.8,0,0,1,1.34,2.77C22.66,56.82,22.54,56.89,22.5,56.82Zm5.72-5.47c-.32-.29-.64-.57-.93-.89a3.89,3.89,0,0,1,.58,2.33s-.1.14-.14.08c-.22-.33-.39-.67-.61-1a4.88,4.88,0,0,1,.49,2.65s-.1.11-.14.06a4.08,4.08,0,0,1-.57-.83,4.91,4.91,0,0,1,.19,2.39s-.08.1-.13.07a3.74,3.74,0,0,1-1.45-1.57c.1.3.2.6.28.91,0,.05-.07.15-.13.11a3.65,3.65,0,0,1-1.25-1.82c0,.24.06.47.11.71,0,.06-.09.16-.14.1a3.87,3.87,0,0,1-.63-1.2c0,.32.08.65.12,1,0,.06-.09.16-.14.1A3.79,3.79,0,0,1,23,51.74a10,10,0,0,0-.27,1.2c0,.05-.12.12-.15.05a3,3,0,0,1-.09-.3c0,.22,0,.43,0,.65,0,0-.11.15-.14.08a4.65,4.65,0,0,1-.54-3c-.06.16-.12.33-.17.49s-.13.13-.15,0a3,3,0,0,1,0-1.06,4,4,0,0,0-.22.9c0,.06-.14.15-.15.05a5.76,5.76,0,0,1,.39-2.8,3.29,3.29,0,0,0-.6.77s-.14.1-.14,0a2.74,2.74,0,0,1,1.14-2,1.88,1.88,0,0,0-.72.28c-.05,0-.13,0-.08-.07a1.71,1.71,0,0,1,2.14-.5,1,1,0,0,0-.47-.36c-.08,0,0-.13.07-.14a1.16,1.16,0,0,1,1,.46,2.27,2.27,0,0,1,.65-.73s.13,0,.11,0a3.06,3.06,0,0,0-.12.86,3.65,3.65,0,0,1,1.72-1.5c.09,0,.12,0,.05.1a2.81,2.81,0,0,0-.45.56c.69-.22,1.6-.32,1.89.42,0,.05-.06.13-.11.11a2.19,2.19,0,0,0-.84-.15,3.13,3.13,0,0,1,1.47,1.93c0,.06-.09.15-.14.1s-.39-.49-.6-.72a14.8,14.8,0,0,1,.81,2.35c0,.06-.09.15-.14.1a5.68,5.68,0,0,1-.54-.66,11.36,11.36,0,0,0,.74,1.92C28.4,51.31,28.27,51.39,28.22,51.35Zm26.61,6a4,4,0,0,1-.71-1.38c0,.4,0,.8.07,1.21,0,.06-.11.14-.15.07a6.28,6.28,0,0,1-.75-3.35c-.1.29-.19.58-.28.87,0,.06-.14.13-.15,0,0-.3,0-.61-.05-.91a8.64,8.64,0,0,0-.14,1.49c0,.06-.11.14-.15.07a5.8,5.8,0,0,1-.26-3.51,5.16,5.16,0,0,1-.33.61s-.14.11-.14,0a3.61,3.61,0,0,1,.19-1,11.21,11.21,0,0,0-.53,1.28s-.11.12-.15.05a2.82,2.82,0,0,1,0-2.12,6,6,0,0,0-.43,1c0,.06-.14.13-.15,0a4.55,4.55,0,0,1,.8-3.36c-.25.25-.47.53-.72.78,0,0-.15.07-.13,0a4.47,4.47,0,0,1,.55-1.21,2.27,2.27,0,0,0-.61.78c0,.06-.17.09-.14,0a5.86,5.86,0,0,1,1.16-2.21,3.66,3.66,0,0,0-.79.77s-.16.06-.13,0a7,7,0,0,1,1.1-1.89l-.16.12s-.1,0-.11,0a3.36,3.36,0,0,0-.67.5c-.05.05-.14,0-.1-.05a3.25,3.25,0,0,1,.42-.68,6.78,6.78,0,0,0-2,2.21c0,.05-.15.1-.14,0A6.64,6.64,0,0,1,51,44.07a5.53,5.53,0,0,0-1.39.9s-.15,0-.1-.05a6.59,6.59,0,0,1,1.23-1.38l-.13.07a13.27,13.27,0,0,1-1.1.86,7.91,7.91,0,0,1-2.72,1.37,5.26,5.26,0,0,1-5.24-1.71,9.52,9.52,0,0,1,.36,1.8c0,.05-.1.14-.14.08a6.9,6.9,0,0,1-1-2.17,16.29,16.29,0,0,0-.16,1.7c0,.06-.11.15-.15.07a10.7,10.7,0,0,1-.76-2.45,6.05,6.05,0,0,0,.32,3c0,.06-.07.14-.13.11-.45-.27-.85-.61-1.28-.9a5.81,5.81,0,0,1,1.26,1.76c0,.06-.08.15-.13.11a7,7,0,0,0-2.52-1.7c1,.49,2.14,1.11,2.26,2.34,0,0-.09.12-.13.09a4.68,4.68,0,0,0-1-.65,3.68,3.68,0,0,1,1.22,1.91c0,.06-.09.15-.14.1a6.14,6.14,0,0,0-1.79-1.21h0l-.19-.06a5.79,5.79,0,0,1,1.36,1.64c0,.06,0,.13-.1.12L38,49.73a6.88,6.88,0,0,1,1,1.08c0,.07-.06.14-.12.12a1.64,1.64,0,0,0-.91-.08,4.67,4.67,0,0,1,2.59,1.91c0,.06-.06.15-.12.12a4.5,4.5,0,0,0-.87-.44,4.69,4.69,0,0,1,2,2.28c0,.07-.09.14-.14.1a4.79,4.79,0,0,0-.83-.6,6.32,6.32,0,0,1,1.56,2.84c0,.06-.1.17-.14.1a3.94,3.94,0,0,0-.61-.76,9,9,0,0,1,1.23,3.19c0,.06-.08.15-.14.1l-.65-.63c.33.65.76,1.25,1.12,1.88,0,.06-.06.16-.12.12a8,8,0,0,1-.9-.78c.5,1.33.84,2.94-.16,4,0,0-.12.08-.13,0,0-.26,0-.52-.08-.77a2.4,2.4,0,0,1-.93,1.66s-.13,0-.11,0a3.45,3.45,0,0,0-.13-1.8,2.82,2.82,0,0,1-.72,1.63s-.13.08-.13,0a4.89,4.89,0,0,0-.19-1.23,8.52,8.52,0,0,1-.1,1.24s-.11.12-.14.06a6.28,6.28,0,0,1-.69-1.59c0,.25,0,.49,0,.73,0,.05-.1.14-.14.08a5.29,5.29,0,0,1-.83-2.87,2.37,2.37,0,0,0-.15.94c0,.06-.12.14-.15.07a5.3,5.3,0,0,1-.46-1.86c0,.27,0,.54,0,.82,0,.05-.1.14-.14.08a10.34,10.34,0,0,1-1.75-3.73c0,.23,0,.45-.06.68,0,0-.1.15-.14.08A6.56,6.56,0,0,1,34.08,57a7.7,7.7,0,0,0,.19,1.31c0,.06-.09.16-.14.1a6.16,6.16,0,0,1-1.54-3.12c0,.17,0,.35-.07.53s-.11.12-.14.06a3.05,3.05,0,0,1-.32-1,5.37,5.37,0,0,0,0,.59c0,.05-.11.14-.14.08a5.82,5.82,0,0,1-.71-3.06,4.87,4.87,0,0,0-.32,1.1s-.12.12-.15,0a5.48,5.48,0,0,1-.13-3.39A3.48,3.48,0,0,0,30,51.59c0,.05-.15.13-.15,0a7.82,7.82,0,0,1,.25-2.32,3.76,3.76,0,0,0-.35.7s-.15.1-.14,0a4.67,4.67,0,0,1,.58-2,2.33,2.33,0,0,0-.43.9c0,.06-.16.12-.15,0a8.24,8.24,0,0,1,.83-2.67,4.48,4.48,0,0,1,.36-.79,2.47,2.47,0,0,0-.51.62c0,.06-.16.1-.14,0a2.47,2.47,0,0,1,1.11-1.6c-.21.07-.44.17-.48.18s-.13,0-.08-.07a2.43,2.43,0,0,1,.78-.69,1.59,1.59,0,0,0-.86,0c-.1,0-.08-.09,0-.12a2.53,2.53,0,0,1,2.12-.31,4.74,4.74,0,0,0-.76-1.81c0-.06.06-.16.12-.12a5.66,5.66,0,0,1,1.19,1,9.23,9.23,0,0,0-.78-2.3c0-.06.08-.14.13-.11a3.49,3.49,0,0,1,1,.92,5.22,5.22,0,0,0-.86-2.26c0-.06.06-.15.12-.12a3.46,3.46,0,0,1,.83.62,2.93,2.93,0,0,0-1.27-2c-.07,0,0-.15.09-.13.35.09.69.19,1,.25a3.17,3.17,0,0,0-1-.84c-.08,0,0-.14.09-.14.43,0,.86,0,1.28.08a8.42,8.42,0,0,0-1.28-.58c-.08,0,0-.14.09-.14A12,12,0,0,0,34,36a1.8,1.8,0,0,0-.94-.42c-.09,0,0-.14.06-.14a12.38,12.38,0,0,1,2.08,0,2.6,2.6,0,0,0-.92-.38c-.1,0,0-.13.06-.14a7,7,0,0,1,2.77.44c-.12-.18-.25-.37-.37-.55s0-.14.1-.13a3.12,3.12,0,0,1,1.34.71,4.32,4.32,0,0,1,1.71-.51c.07,0,.06.08,0,.11l-.63.5A8.27,8.27,0,0,1,42.16,35c.1,0,0,.11,0,.14a3.36,3.36,0,0,0-.52.24c.72-.15,1.46-.26,2.18-.42.1,0,.08.08,0,.12l-.38.27c.64-.12,1.25-.31,1.89-.44,0,0,.07,0,0,.08a2.09,2.09,0,0,1-.46.5,9.76,9.76,0,0,1,2.9-.92c.08,0,.05.08,0,.11l-.45.4a11.62,11.62,0,0,1,3.26-.75c.09,0,.05.1,0,.13a5.84,5.84,0,0,0-.52.27,8.86,8.86,0,0,1,5.07-.4c.1,0,0,.13-.06.14a3,3,0,0,0-.47.13,10.63,10.63,0,0,1,2.28.07c.07,0,0,.11,0,.13a6.29,6.29,0,0,1-.63.24l.48.05a3.33,3.33,0,0,1,.86-.29,1.37,1.37,0,0,0-.16.17,1.31,1.31,0,0,0-.25.8s0,0,0,0a1.13,1.13,0,0,0,.25-.25.39.39,0,0,1,.42-.21.63.63,0,0,0,.08.23,1.89,1.89,0,0,0,.74.88s0,0,0,0a.33.33,0,0,0,.06-.35A5.68,5.68,0,0,1,60.3,39.2c0,.07.11,0,.11,0A7.64,7.64,0,0,0,60.56,38a5.46,5.46,0,0,1,.43,2.5c0,.06.07,0,.09,0a11.05,11.05,0,0,0,.39-1.13,6.93,6.93,0,0,0,.45,1.55,14.44,14.44,0,0,0,.82,1.34c-.13-.11-.25-.25-.39-.35l-.68-.49c-.05,0-.13,0-.09.09a4.53,4.53,0,0,1,.79,1,3.82,3.82,0,0,1,.39.81,2,2,0,0,0-1.11-.72s-.11.07-.06.1a3.53,3.53,0,0,1,1.13,1.26,5.09,5.09,0,0,1,.52,1.12,2.11,2.11,0,0,0-1-.63s-.12.06-.07.1a5,5,0,0,1,1.51,2.56c-.15-.1-.26-.28-.43-.36a4.91,4.91,0,0,0-.82-.36c-.05,0-.13.06-.08.11A6,6,0,0,1,63.71,48a5.48,5.48,0,0,1,.65,1.75l-.52-.39a5.13,5.13,0,0,0-.76-.41c-.07,0-.18.1-.11.15a6.19,6.19,0,0,1,1.22,1.48,2.17,2.17,0,0,0-1.29-.44c-.08,0-.18.14-.1.21s.31.37.47.55h0a4.72,4.72,0,0,1,.39,1.26,5.27,5.27,0,0,1,0,1.07,1.82,1.82,0,0,1-.09.59,1.17,1.17,0,0,1,0-.24,1.6,1.6,0,0,0-.1-.41,4.52,4.52,0,0,0-.34-.85c0-.09-.19,0-.17.1a6.08,6.08,0,0,1,.19,1.65,3.3,3.3,0,0,1-.29,1.41,1.18,1.18,0,0,0,0-.27,3,3,0,0,0-.14-.74A3.68,3.68,0,0,0,62,53c-.07-.08-.19.07-.16.15a3.67,3.67,0,0,1,.21.73,9.4,9.4,0,0,1,0,1,4.2,4.2,0,0,1-.49,1.88c-.2.37-.09-.06-.1-.19a5.24,5.24,0,0,0-.13-.83,3,3,0,0,0-.52-1.25c-.06-.07-.18.05-.17.12a4.53,4.53,0,0,1,0,1.68,8.68,8.68,0,0,1-.26,1.05c0,.14-.07.26-.11.4,0-.42-.46-2.46-.82-2.32a.09.09,0,0,0-.05.07,15.47,15.47,0,0,1,0,2.28c-.13-.15-.25-.45-.37-.56a5.66,5.66,0,0,0-1-.56c-.06,0-.13.07-.11.11a4.46,4.46,0,0,0,.44.68,6.13,6.13,0,0,1-2-1.42c-.05-.05-.15.05-.12.11.14.28.34.51.49.78s.27.52.39.79a5.92,5.92,0,0,1-1.48-1.43c0-.06-.14.05-.12.11a15.77,15.77,0,0,0,.6,1.67,5.47,5.47,0,0,1-.54-.53A8.08,8.08,0,0,1,55,56.35s-.07,0-.07,0l0-.1c0,.31.07.62.1.94C55,57.28,54.88,57.36,54.83,57.3Z"/><path class="cls-8" d="M72.89,49A32.79,32.79,0,0,0,72,44.42a13.21,13.21,0,0,0-1.77-3.94,16.67,16.67,0,0,0-2.93-3,15.83,15.83,0,0,0-7.88-3.2l-1.22-.19a6.77,6.77,0,0,1,2,2.16A3.61,3.61,0,0,0,59.73,35s0-.09.07-.07a3,3,0,0,1,1.37,1.31,7,7,0,0,0-.32-.81s0-.08.08-.06a7,7,0,0,1,2.25,1.71,2.66,2.66,0,0,0-.33-.71s0-.1.07-.07a5.73,5.73,0,0,1,1.7,2.41,4.24,4.24,0,0,0-.26-1.47s0-.09.07-.06a4.51,4.51,0,0,1,1.28,2.67,6.32,6.32,0,0,1,.2-1.32s.07-.08.09,0a18.78,18.78,0,0,0,.65,2.25,3,3,0,0,1,.29-1.31s.09-.06.08,0a7.57,7.57,0,0,0,1.07,3.59s-.05.09-.08.06a7,7,0,0,0-.93-.89,5,5,0,0,1,.81,1.61s0,.08-.08.06a7.56,7.56,0,0,1-.68-.49A8.62,8.62,0,0,1,68,45s0,.08-.08.06a9.33,9.33,0,0,0-.89-.56A4.19,4.19,0,0,1,68,46.12s0,.09-.08.06a5.51,5.51,0,0,0-1-.7,7.34,7.34,0,0,1,1.19,3.81s-.07.08-.09,0a3.06,3.06,0,0,0-.81-1,3.78,3.78,0,0,1,.56,2s-.05.08-.08,0c-.21-.22-.42-.45-.64-.65l.15.47a3.38,3.38,0,0,1,1,3.4s-.09.08-.09,0a1.2,1.2,0,0,0-.36-.89A3,3,0,0,1,67,54.84s-.06,0-.07,0a3.75,3.75,0,0,0-.4-1.55c0,.72.14,1.44.1,2.16,0,0-.07.09-.09,0a11.23,11.23,0,0,0-.82-1.8c.11,1.06.32,2.11.42,3.17,0,0-.06.08-.08,0a7.06,7.06,0,0,1-.95-1.45,2.66,2.66,0,0,1-.9,2.57s-.06,0-.06,0a2.76,2.76,0,0,0-.07-1.8,6.69,6.69,0,0,1-1.31,2.58s-.1.06-.08,0a3.65,3.65,0,0,0,.1-1.55A4.21,4.21,0,0,1,61.9,59s-.07,0-.08,0a2.9,2.9,0,0,0-.44-1.31,4.07,4.07,0,0,0-.1,2s0,.07-.08.05c-.51-.38-.89-.89-1.37-1.3a7.37,7.37,0,0,1,.66,1.73s0,.09-.08.06a16.45,16.45,0,0,0-1.31-1.07,9.89,9.89,0,0,1,.7.9s0,.09-.07.07a7.53,7.53,0,0,1-2.88-1.68,8.3,8.3,0,0,0,.8,1.36s0,.09-.07.07a11.2,11.2,0,0,1-2-1.24,6,6,0,0,0,2.24,1.88,12.07,12.07,0,0,0,4,.74,14,14,0,0,0,7.2-1.7,8.79,8.79,0,0,0,4-6.33A13.86,13.86,0,0,0,72.89,49Z"/><path class="cls-8" d="M19.74,45.9c0,.11.05.21.07.32a6.2,6.2,0,0,1,.1,1.26l.27-.31s.16-.07.13,0c-.09.27-.16.55-.23.83A5.66,5.66,0,0,1,21,46.8a4,4,0,0,1,1.87-.9,24,24,0,0,0,2.42-.47,12.92,12.92,0,0,0,2.28-1.08c.06,0,.11,0,.08.07a3.85,3.85,0,0,1-.53.73,2.82,2.82,0,0,0,.85-.59s.1,0,.11,0a1,1,0,0,1-.16.81l.26-.17h0a0,0,0,0,1,.05,0,4.3,4.3,0,0,1,.38,2.06,2.78,2.78,0,0,0,.16-1c0-.06.13-.15.15-.07a7.28,7.28,0,0,1,.21,1.73,3.46,3.46,0,0,0,.19-1.27c0-.06.13-.15.15-.07a5.85,5.85,0,0,1,.14.65,3,3,0,0,0-.38-2.47c0-.06.06-.16.12-.12a2,2,0,0,1,.4.35,2.8,2.8,0,0,0-.3-.79s0-.08.06-.1a6.74,6.74,0,0,0,1.76-1.45,4,4,0,0,0-.63.14c-.09,0-.09-.07,0-.11a3.79,3.79,0,0,0,1-1.34c-.21.13-.41.28-.63.4-.07,0-.13,0-.07-.09a2.23,2.23,0,0,0,.62-1.38l-.16.2s-.15.07-.13,0a5.73,5.73,0,0,0,.26-2.1,3.67,3.67,0,0,1-.38.83s-.17.1-.14,0A5.1,5.1,0,0,0,31.09,37a6.32,6.32,0,0,1-.26,1c0,.05-.14.13-.15,0a4.3,4.3,0,0,0-.49-2.14,10.65,10.65,0,0,0,0,1.09c0,.07-.14.15-.15.05a4.28,4.28,0,0,0-1.19-2.54s0-.13.09-.13a1.48,1.48,0,0,1,.56.11,1.86,1.86,0,0,0-.57-.42c-.06,0,0-.12.06-.13a4.44,4.44,0,0,0,1.94-.81,1.88,1.88,0,0,0,.7-1.61l-1.32-.55a15.33,15.33,0,0,0-3.58-1.21l-.55-.09a5.22,5.22,0,0,0,.41,3.74c0-.1,0-.21,0-.32s.12-.15.15-.07a9.81,9.81,0,0,0,.45,1.08c0-.12-.06-.25-.08-.38s.09-.16.14-.1a9.29,9.29,0,0,1,1.53,2.74c0,.06-.09.15-.14.1l-.19-.18A5,5,0,0,1,29.24,38c0,.07-.08.15-.14.1s-.39-.38-.59-.56a4,4,0,0,1,.73,2c0,.06-.09.13-.14.08-.22-.21-.4-.47-.6-.7A4.17,4.17,0,0,1,28.92,41c0,.06-.12.15-.15.07A5,5,0,0,0,28.25,40a4.92,4.92,0,0,1-.48,2.64s-.15.13-.15,0a4.86,4.86,0,0,0-.16-1.22,3,3,0,0,1-1.13,2s-.12.05-.11,0c.05-.35.13-.69.17-1A4.31,4.31,0,0,1,25,44s-.14,0-.11,0a6.63,6.63,0,0,0,.3-.89,7.92,7.92,0,0,1-2.32,2c-.05,0-.12,0-.08-.07a5.81,5.81,0,0,0,.47-1A10.72,10.72,0,0,1,21,45.25c-.09,0-.08-.07,0-.11s.38-.32.56-.5a8.28,8.28,0,0,1-3.31,1l.24.06A8.12,8.12,0,0,0,19.74,45.9Z"/><path class="cls-8" d="M31.8,56A8,8,0,0,0,32,57.58c0,.07-.08.15-.14.1a4.77,4.77,0,0,1-1.47-2.88c0,.2,0,.39,0,.59s-.13.15-.15.07a7,7,0,0,1-.29-2.64,7.52,7.52,0,0,0-.31.83s-.12.13-.15.05a8.24,8.24,0,0,1-.29-2.17c0,.77.06,1.55.09,2.33,0,.06-.11.14-.15.07v0c.16.63.31,1.26.42,1.9,0,.06-.09.16-.14.1-.27-.36-.5-.77-.8-1.1A6.61,6.61,0,0,1,29.44,57c0,.05-.08.12-.13.09a6.27,6.27,0,0,1-.88-.76,6.09,6.09,0,0,1,.91,1.53c0,.06-.07.13-.13.11a5.39,5.39,0,0,1-1.46-1l.22.31c0,.06,0,.14-.1.13a4.82,4.82,0,0,1-2.45-1.68c.1.24.21.49.33.73,0,.06-.08.14-.13.11a4.13,4.13,0,0,1-1.34-1.51,7,7,0,0,0,.24.78c0,.05-.08.14-.13.11a4.32,4.32,0,0,1-1.45-2.54A6.32,6.32,0,0,0,23,54.56c0,.06-.1.17-.14.1a9.67,9.67,0,0,1-.77-1.74,4.82,4.82,0,0,1-.34-1.4c0-.2-.06-.41-.07-.62a.1.1,0,0,1,.07-.09,4,4,0,0,1,.05-.41c-.06.16-.12.33-.17.49s-.13.13-.15,0a3,3,0,0,1,0-1.06,4,4,0,0,0-.22.9c0,.06-.14.15-.15.05a5.76,5.76,0,0,1,.39-2.8,3.41,3.41,0,0,0-.46.55,5.48,5.48,0,0,0-.61,2.1c.06-.17.12-.35.2-.52h0v0c0-.06.17-.09.14,0a3.49,3.49,0,0,0,.11,2.21c0-.19.06-.38.1-.58s.13-.13.15-.05a9.31,9.31,0,0,0,.76,2.2c0-.21-.09-.41-.12-.62h0c0-.06.12-.14.15-.07.37,1,1,1.84,1.38,2.81,0-.22-.1-.43-.16-.65,0-.06.09-.15.14-.1a4.3,4.3,0,0,1,.81,2.84,3.4,3.4,0,0,0,.16-1.52c0-.06.11-.14.15-.07.47.92.08,1.94-.15,2.88a5.33,5.33,0,0,0,.57-.77s.15-.11.14,0c-.08,1.11-1,1.93-1.71,2.68,0,0-.14.08-.13,0,0-.37.09-.75.12-1.12a7,7,0,0,1-.83,1.48s-.14.07-.13,0c0-.36.09-.71.11-1.07-.57,1.66-1.42,3.41-3.3,3.85a2.6,2.6,0,0,1-2.05-.33,4.15,4.15,0,0,0,4.19.95,5.6,5.6,0,0,0,2.19-1.33,27,27,0,0,1,2.37-3.39c.32-.38.66-.8,1-1.16l0,0a9,9,0,0,0,.79-.75.13.13,0,0,1,.16-.11l.14.06a.09.09,0,0,1,.07,0A26.61,26.61,0,0,0,32,59.38h.19l.14.07c.28.07.56.15.84.24a5.33,5.33,0,0,1,1.47.66C33.74,58.88,32.4,57.66,31.8,56Z"/><path class="cls-8" d="M57.76,60.14a11,11,0,0,1-2.38-2.27c.15.44.34.86.51,1.3,0,.06-.07.14-.13.11A3.84,3.84,0,0,1,54.3,57.2a8.16,8.16,0,0,0,.23,1c0,.06-.09.16-.14.1a7.53,7.53,0,0,1-1.29-2.77c0,.5.14,1,.19,1.49,0,.05-.1.14-.14.08a8.17,8.17,0,0,1-1.3-3.58,5.07,5.07,0,0,0,0,.68s-.11.14-.14.08a4.52,4.52,0,0,1-.59-1.78A3.34,3.34,0,0,0,51,53c0,.06-.12.15-.15.07a6.87,6.87,0,0,1-.52-2.85,5.89,5.89,0,0,0,0,2.73c0,.06-.09.16-.14.09l-.31-.43a4.68,4.68,0,0,1,.45,1.55c0,.05-.08.12-.13.09A5.5,5.5,0,0,1,48.78,53a8,8,0,0,1,.4,1.35c0,.06-.08.15-.14.1a4.53,4.53,0,0,1-1.09-1.25,3,3,0,0,1-1.44,2.11,0,0,0,0,1-.07-.06,5.76,5.76,0,0,0,.29-1.39,4.36,4.36,0,0,0-.63,1.31s-.13.13-.15,0A10.81,10.81,0,0,1,45.88,52a5.88,5.88,0,0,0-.51,1.18c0,.05-.16.13-.15,0a6,6,0,0,0-.08-1.82,2.5,2.5,0,0,1-.23.7c0,.07-.16.08-.14,0h0a7.74,7.74,0,0,0-1.28-3.25,5.68,5.68,0,0,1,.19,1.2c0,.06-.12.14-.15.07a8.46,8.46,0,0,0-1.6-2.7,19.2,19.2,0,0,0-1.66-1.54,21.72,21.72,0,0,0,1,2.18c0,.06-.08.14-.13.11a8.36,8.36,0,0,0-.84-.46,7.94,7.94,0,0,1,1.54,2c0,.06-.06.16-.12.12a5.34,5.34,0,0,0-1.24-.63,6,6,0,0,1,2.34,2.44c0,.06-.08.12-.13.11-.47-.17-.92-.39-1.38-.58a5.57,5.57,0,0,1,2.12,2.81c0,.07-.07.13-.13.11L43.17,54a1.62,1.62,0,0,1,.17.27c0,.05-.06.12-.11.11a5.47,5.47,0,0,1-.78-.28c.91,1.11,1.92,2.38,1.86,3.89,0,0-.08.13-.13.09a9,9,0,0,1-.73-.63c.08.13.16.27.23.4A2.06,2.06,0,0,1,44,59.33s-.08.11-.13.07l-.37-.27a2.13,2.13,0,0,1,.4,1c0,.05-.08.12-.13.09a4.11,4.11,0,0,1-.39-.25,7.17,7.17,0,0,1,.94,3.56c0,.05-.1.14-.14.08-.18-.25-.35-.52-.53-.77a3.39,3.39,0,0,1-1.54,3.63,3.68,3.68,0,0,1-.86.29,4.35,4.35,0,0,0,1.51-.3,4.91,4.91,0,0,0,2.85-3.37,26,26,0,0,0,5.63-.58,16.59,16.59,0,0,0,3.61-1.36c.68-.34,1.38-.64,2.07-.94a12.24,12.24,0,0,0,3.66,1A8.17,8.17,0,0,1,57.76,60.14Z"/><path class="cls-7" d="M31,28.74c-1.05-1.14-3-.81-4,.06a3.13,3.13,0,0,0-.65,3.58,1,1,0,0,1,0,.12c0,.1.15,0,.15-.05s0-.14,0-.23c.07.29.19.6.42.67a.14.14,0,0,0,.16-.09.8.8,0,0,0,0-.17,2.39,2.39,0,0,0,.67.85,1.32,1.32,0,0,0,1.15,0,3.18,3.18,0,0,0,2.21-1.28A2.65,2.65,0,0,0,31,28.74Z"/><path class="cls-24" d="M31,28.74c-1.05-1.14-3-.81-4,.06a3.13,3.13,0,0,0-.65,3.58,1,1,0,0,1,0,.12c0,.1.15,0,.15-.05s0-.14,0-.23c.07.29.19.6.42.67a.14.14,0,0,0,.16-.09.8.8,0,0,0,0-.17,2.39,2.39,0,0,0,.67.85,1.32,1.32,0,0,0,1.15,0,3.18,3.18,0,0,0,2.21-1.28A2.65,2.65,0,0,0,31,28.74Z"/><path class="cls-9" d="M31,30a2.08,2.08,0,0,0-.91-1.08,2,2,0,0,0-2.11,0,2.71,2.71,0,0,0-.89,1.57,3.76,3.76,0,0,0-.1,1s.06,0,.07,0c.11-.24.17-.54.26-.76a1.35,1.35,0,0,0-.09.53s0,0,.05,0c.14-.35.06-.13.06.11a3.58,3.58,0,0,0,.16.9s0,0,0,0a.75.75,0,0,0,0-.3s.09-.44.09-.29,0,.47,0,.7c0,0,0,0,.05,0s.09-.28.13-.42c0,0,.12-.48.12-.31a3.31,3.31,0,0,1-.2,1s0,0,0,0c.25-.13.45-.5.61-.73l0-.06v0a2.59,2.59,0,0,1-.47.78s0,.07.05,0a3.46,3.46,0,0,0,.63-.53c.33-.35,0,.08-.05.17s-.24.29-.33.45,0,.06,0,.05a2.31,2.31,0,0,0,.75-.51l.23-.17c-.07.1-.14.2-.2.31s0,.06,0,.06a2.15,2.15,0,0,0,.67-.31,2.19,2.19,0,0,0-.32.34s0,.06,0,.06a3,3,0,0,0,1.33-1.12A1.58,1.58,0,0,0,31,30Z"/><path class="cls-25" d="M31.13,30.41a1.44,1.44,0,0,1-.8,1.3,0,0,0,0,1-.07-.06,2.74,2.74,0,0,0,.17-.78,2.85,2.85,0,0,1-.45.62s-.13,0-.11,0a3.82,3.82,0,0,0,.11-.71,3.77,3.77,0,0,1-.34.6s-.14.08-.13,0a6.1,6.1,0,0,0,0-1,2.58,2.58,0,0,1-.63.61s-.11,0-.09,0,.13-.36.19-.55a4.7,4.7,0,0,1-.83.45c-.07,0-.1-.05-.05-.1a2.31,2.31,0,0,0,.48-.71c-.23.15-.43.33-.65.49,0,0-.14,0-.11,0a2.54,2.54,0,0,1,.37-.64,2,2,0,0,0-.49.36c-.05,0-.14,0-.1-.05a3.07,3.07,0,0,1,1.56-1.52,1.74,1.74,0,0,0-1.19.32,2.71,2.71,0,0,0-.89,1.57,3.76,3.76,0,0,0-.1,1s.06,0,.07,0c.11-.24.17-.54.26-.76a1.35,1.35,0,0,0-.09.53s0,0,.05,0c.14-.35.06-.13.06.11a3.58,3.58,0,0,0,.16.9s0,0,0,0a.75.75,0,0,0,0-.3s.09-.44.09-.29,0,.47,0,.7c0,0,0,0,.05,0s.09-.28.13-.42c0,0,.12-.48.12-.31a3.31,3.31,0,0,1-.2,1s0,0,0,0c.25-.13.45-.5.61-.73l0-.06v0a2.59,2.59,0,0,1-.47.78s0,.07.05,0a3.46,3.46,0,0,0,.63-.53c.33-.35,0,.08-.05.17s-.24.29-.33.45,0,.06,0,.05a2.31,2.31,0,0,0,.75-.51l.23-.17c-.07.1-.14.2-.2.31s0,.06,0,.06a2.15,2.15,0,0,0,.67-.31,2.19,2.19,0,0,0-.32.34s0,.06,0,.06a3,3,0,0,0,1.33-1.12A1.48,1.48,0,0,0,31.13,30.41Z"/><path class="cls-26" d="M25.26,54.72a4.19,4.19,0,0,1-.57-2s0,0,0,0a2.08,2.08,0,0,0,.48,2.07C25.2,54.87,25.29,54.77,25.26,54.72Z"/><path class="cls-26" d="M26.41,55.22c-.2-.29-.44-.55-.61-.86a6.21,6.21,0,0,1-.38-1.05s0,0,0,0a1.84,1.84,0,0,0-.05.52,2,2,0,0,1-.34-.92s0,0,0,0c-.11.49,0,1.29.48,1.52a1.8,1.8,0,0,0,.84.91C26.35,55.37,26.45,55.27,26.41,55.22Z"/><path class="cls-26" d="M23.63,53.3c0-.34-.16-.65-.23-1a3,3,0,0,1,0-1.18s0,0,0,0a2.34,2.34,0,0,0,0,2.28C23.49,53.53,23.64,53.4,23.63,53.3Z"/><path class="cls-26" d="M22.73,52.28a2.63,2.63,0,0,1-.34-1.44s0,0,0,0a1.55,1.55,0,0,0,.19,1.59C22.64,52.51,22.77,52.36,22.73,52.28Z"/><path class="cls-26" d="M22.14,48.59s0,0,0,0a1.53,1.53,0,0,0-.58.59,1,1,0,0,0-.09.83l0,0a.63.63,0,0,0,.18.53c.08.06.18-.05.18-.13a4.55,4.55,0,0,1,0-.82,2.12,2.12,0,0,1,.25-.59s0,0,0,0a5.27,5.27,0,0,0-.35.42A1.31,1.31,0,0,1,22.14,48.59Z"/><path class="cls-26" d="M26.91,52.82a.59.59,0,0,0-.41-.16,2.22,2.22,0,0,0-.37-.51,2,2,0,0,1-.38-1h0v0h0a1.3,1.3,0,0,0,.08,1.3.83.83,0,0,1-.36-.36h0a1.22,1.22,0,0,0,.54.81c.26.18.65.31.89,0A.11.11,0,0,0,26.91,52.82Z"/><path class="cls-26" d="M18.39,57.43a.88.88,0,0,0-.51.41,1.46,1.46,0,0,0-.31.74,1.14,1.14,0,0,0-.33,1.08c0,.08.16,0,.18,0a4.26,4.26,0,0,0,.23-.68,2.28,2.28,0,0,1,.44-.75s0,0,0,0a1.28,1.28,0,0,0-.28.17,1.66,1.66,0,0,1,.59-.89S18.4,57.43,18.39,57.43Z"/><path class="cls-26" d="M19.31,55.63c-.22.06-.38.31-.49.49a1.28,1.28,0,0,0-.14.91c0,.09.13,0,.14,0,0-.22,0-.45.1-.66a1.37,1.37,0,0,1,.39-.68S19.33,55.63,19.31,55.63Z"/><path class="cls-26" d="M20,53.39a1.26,1.26,0,0,0-.88,1.13h0c-.18.25-.41.63-.18.91.07.09.2,0,.22-.1.13-.28.18-.57.33-.84a2.14,2.14,0,0,1,.3-.41.21.21,0,0,0,.06-.11h0c-.08.08-.24.1-.34.17a1.53,1.53,0,0,1,.51-.71S20,53.39,20,53.39Z"/><path class="cls-26" d="M17.93,60.21a2,2,0,0,0-.52.75,1.63,1.63,0,0,1,.06-.85h0a1.23,1.23,0,0,0-.19,1.21,0,0,0,0,0,.05,0,.73.73,0,0,0,.16.59c.06.06.13,0,.13-.1a3.5,3.5,0,0,1,0-.94,3.25,3.25,0,0,1,.31-.68S17.93,60.2,17.93,60.21Z"/><path class="cls-26" d="M32.52,52.9s0,0,0,0a.94.94,0,0,0-.19.28,3.3,3.3,0,0,1,0-1.71s0,0,0,0a1.85,1.85,0,0,0-.12,2.14l0,0a1.69,1.69,0,0,0,.2,1c.06.09.19,0,.19-.09C32.59,54,32.34,53.43,32.52,52.9Z"/><path class="cls-26" d="M32.43,48.33a2.15,2.15,0,0,0-.83,1.91,1.68,1.68,0,0,0-.16,1.17c0,.15.23,0,.24-.08a3.56,3.56,0,0,1,.61-1.85s0,0,0,0a2.55,2.55,0,0,0-.42.42,2.62,2.62,0,0,1,.6-1.53S32.44,48.32,32.43,48.33Z"/><path class="cls-26" d="M31.49,47.43c-.24,0-.46.34-.59.52a1.3,1.3,0,0,0-.33,1v0a1,1,0,0,0-.11,1c.05.1.19,0,.22-.07a7.68,7.68,0,0,1,.27-1.08c.1-.22.28-.4.36-.62,0,0,0,0,0,0s-.15.1-.21.16l0,.05a2,2,0,0,1,.47-.95S31.51,47.42,31.49,47.43Z"/><path class="cls-26" d="M35.46,56.29a4.49,4.49,0,0,1-.21-.7.08.08,0,0,0,0-.05v0a3.53,3.53,0,0,1,0-1.2s0,0,0,0a2.47,2.47,0,0,0-.2.8,2.09,2.09,0,0,1-.36-1s0,0,0,0A1.46,1.46,0,0,0,35,55.63a2.58,2.58,0,0,0,.28.76C35.36,56.48,35.49,56.36,35.46,56.29Z"/><path class="cls-26" d="M36.24,58.94a3.94,3.94,0,0,1-.17-1.06h0a5.13,5.13,0,0,0-.06.86,1.61,1.61,0,0,1-.26-.9h0a1.52,1.52,0,0,0,.35,1.41,1.74,1.74,0,0,0,.27.54c.05.07.16,0,.14-.1A4.66,4.66,0,0,0,36.24,58.94Z"/><path class="cls-26" d="M37.67,59.54s0,0,0,0a1.88,1.88,0,0,0-.3.58V60a6,6,0,0,1,0-.66s0,0,0,0a2,2,0,0,0-.11,1.38,1.34,1.34,0,0,0,.07.44c0,.07.12,0,.12-.05a6.46,6.46,0,0,1,0-.78A4.53,4.53,0,0,1,37.67,59.54Z"/><path class="cls-26" d="M38.86,62.79c-.14-.63-.56-1.19-.48-1.86,0,0,0,0,0,0a2,2,0,0,0-.14.84A1.71,1.71,0,0,1,38,61s0,0,0,0a1.69,1.69,0,0,0,.33,1.31,1.48,1.48,0,0,0,.38.64C38.75,63,38.88,62.87,38.86,62.79Z"/><path class="cls-26" d="M40.29,62h0a2.28,2.28,0,0,1-.15.78,2.39,2.39,0,0,0-.39-.73s0,0,0,0A4.91,4.91,0,0,1,40,63.92c0,.09.12,0,.14,0a1.45,1.45,0,0,0,.11-.66A1.44,1.44,0,0,0,40.29,62Z"/><path class="cls-26" d="M41.33,62.3s0,0,0,0a1.36,1.36,0,0,1,0,.76,1.92,1.92,0,0,0-.43-1h0a3.49,3.49,0,0,1,.12,2.12c0,.09.06.1.12.05a1.14,1.14,0,0,0,.22-.9A1.14,1.14,0,0,0,41.33,62.3Z"/><path class="cls-26" d="M53.37,47.3s0,0,0,0A3.91,3.91,0,0,0,52.48,49a3.35,3.35,0,0,0,.17,2,1.36,1.36,0,0,0,.3,1c.07.07.18,0,.18-.11a13.13,13.13,0,0,0,0-1.46,3.73,3.73,0,0,1,.12-.95.5.5,0,0,0,0-.27s0,0,0,0c0,.21-.21.4-.3.59l-.07.16a7.06,7.06,0,0,1,0-.88A5.22,5.22,0,0,1,53.37,47.3Z"/><path class="cls-26" d="M52.9,53.17c0-.23,0-.46,0-.68,0,0,0,0,0,0-.07.42-.34,1.12,0,1.49.06.06.15,0,.14-.1C53,53.64,52.92,53.41,52.9,53.17Z"/><path class="cls-26" d="M55.37,54.4c-.2-.25-.42-.47-.63-.72-.07-.49-.32-.95-.39-1.46a8.58,8.58,0,0,1,.15-1.62s0,0,0,0c-.06.25-.21.46-.27.71a4.55,4.55,0,0,0-.11,1c0,.11,0,.22,0,.33a1.51,1.51,0,0,1-.14-1h0A1.69,1.69,0,0,0,54.06,53a2.82,2.82,0,0,0,1.2,1.55C55.33,54.59,55.41,54.46,55.37,54.4Z"/><path class="cls-26" d="M55.13,55.83a1.83,1.83,0,0,0-.3-.48,1.57,1.57,0,0,1-.28-.85s0,0-.05,0a1,1,0,0,0-.06.32l-.07-.11a3,3,0,0,1-.31-.9s0,0,0,0c0,.44,0,1.32.49,1.54.09.29.25.55.5.58A.12.12,0,0,0,55.13,55.83Z"/><path class="cls-26" d="M58,54.86a2.47,2.47,0,0,1-.32-.86c-.05-.27-.1-.54-.15-.81a1.35,1.35,0,0,0-.07-.42s-.05,0,0,0a4.07,4.07,0,0,1,0,.46c0,.14,0,.28,0,.42a5.41,5.41,0,0,1-.28-.6,4.49,4.49,0,0,1-.25-1.28c0-.06-.08,0-.09,0-.19.72-.26,2.38.7,2.6a2,2,0,0,0,.64,1.11c.06.06.16,0,.15-.11A1.48,1.48,0,0,0,58,54.86Z"/><path class="cls-26" d="M53.31,43.21l0,0s-.06,0,0,0-.53.72-.59.82a2.08,2.08,0,0,0-.32,1.09c0,.1.14,0,.16,0a7.48,7.48,0,0,1,.82-1.85A0,0,0,0,0,53.31,43.21Z"/><path class="cls-26" d="M53,44.47a2.64,2.64,0,0,0-.8,1.71c0,.14.16.07.19,0,.11-.26.18-.53.27-.79a2.6,2.6,0,0,1,.38-.85S53.06,44.44,53,44.47Z"/><path class="cls-26" d="M77.33,56.07c-.06-.31-.1-.62-.14-.93,0,0-.06,0-.07,0,0,.24-.06.52-.06.8a4.23,4.23,0,0,1-.3-.66c-.13-.4-.12-.8-.23-1.19h0c.12.78-.06,1.69.55,2.31a1.38,1.38,0,0,0,.29.69c.06.07.17-.05.16-.12C77.5,56.68,77.39,56.38,77.33,56.07Z"/><path class="cls-26" d="M78.93,58a7.61,7.61,0,0,1-.22-1.09c0-.22.1-.58,0-.79,0,0,0,0,0,0a1.43,1.43,0,0,1-.09.42,3.07,3.07,0,0,0-.1.56,1.67,1.67,0,0,0,.24,1C78.77,58.2,78.95,58.06,78.93,58Z"/><path class="cls-26" d="M80.66,59.63c-.12-.31-.28-.61-.41-.92a2.11,2.11,0,0,1-.27-1.1s0,0-.06,0c-.4.62.09,1.74.56,2.18C80.57,59.86,80.69,59.72,80.66,59.63Z"/><path class="cls-26" d="M81.24,60.63c-.09-.28-.22-.56-.32-.84a4.79,4.79,0,0,1-.24-1.14s0,0,0,0a3.22,3.22,0,0,0,.48,2.05C81.17,60.78,81.26,60.69,81.24,60.63Z"/><path class="cls-26" d="M75.64,53c-.29-.6-.83-1.21-.68-1.93,0,0,0,0,0,0a2.11,2.11,0,0,0,.56,2.05C75.57,53.2,75.68,53.09,75.64,53Z"/><path class="cls-26" d="M75.43,53.5a1.68,1.68,0,0,1-.36-.76s-.05,0-.06,0a1.94,1.94,0,0,0,.09.72,1.33,1.33,0,0,0,.38.69c.07.05.17,0,.18-.1A.78.78,0,0,0,75.43,53.5Z"/><path class="cls-26" d="M23.09,36.05c-.23.09-.49.08-.72.18a2.64,2.64,0,0,0-.75.43A2,2,0,0,0,20.9,38c0,.19.26.06.31,0A7.87,7.87,0,0,1,22,36.83a4,4,0,0,1,.56-.46c.17-.13.39-.18.55-.3C23.1,36.06,23.1,36.05,23.09,36.05Z"/><path class="cls-26" d="M18.32,28.57a3.84,3.84,0,0,0-.65.13,2.69,2.69,0,0,0-.73.4,1.82,1.82,0,0,0-.65,1.32c0,.1.12.05.14,0a2.77,2.77,0,0,1,.82-1.24c.18-.13.39-.25.58-.36a4,4,0,0,0,.48-.22S18.34,28.57,18.32,28.57Z"/><path class="cls-26" d="M16,32.66a6.85,6.85,0,0,0-3.11,3.66c0,.08.07.1.12,0a14.48,14.48,0,0,0,1.21-1.84A6.06,6.06,0,0,1,16,32.69S16,32.65,16,32.66Z"/><path class="cls-26" d="M30.8,29s0,0,0,0a2.78,2.78,0,0,1,.35,2.08,2.47,2.47,0,0,1-.66,1.32,2.46,2.46,0,0,0,.2-.49s0,0,0,0a2.47,2.47,0,0,1-.76.92c-.33.25-.75.28-1.09.51,0,0-.08.14,0,.14a2,2,0,0,0,1.27-.56A2.52,2.52,0,0,0,30.8,29Z"/><path class="cls-26" d="M27.74,28.53c-.59.34-1.25.75-1.38,1.48,0,.19.28.12.3,0l.14-.3,0-.05a0,0,0,0,0,0,0,1.87,1.87,0,0,1,.23-.36c.2-.24.46-.43.67-.65C27.77,28.53,27.76,28.51,27.74,28.53Z"/><path class="cls-26" d="M27.06,30.21a1.49,1.49,0,0,0-.36.58,2.55,2.55,0,0,1,.1-.8c.08-.26.31-.46.37-.72h0a2.58,2.58,0,0,1-.33.42,1.81,1.81,0,0,0-.25.57,2,2,0,0,0,0,1,1,1,0,0,0,.22.93c.1.08.22-.06.21-.16-.05-.56-.31-1.24.07-1.77A0,0,0,1,0,27.06,30.21Z"/><path class="cls-26" d="M41.39,44.43a6.22,6.22,0,0,1-.46-2.14h0c0,.73-.21,1.67.33,2.26C41.31,44.63,41.42,44.5,41.39,44.43Z"/><path class="cls-26" d="M42.65,44.46a6.92,6.92,0,0,1-1-1.05,2.53,2.53,0,0,1-.51-1.5s0,0,0,0a2.57,2.57,0,0,0,.25,1.54,1.89,1.89,0,0,0,1.12,1.18C42.6,44.64,42.72,44.53,42.65,44.46Z"/><path class="cls-26" d="M43.47,44.66c-.21-.21-.46-.37-.67-.57a1.69,1.69,0,0,1-.49-.78s-.05,0,0,0a1.87,1.87,0,0,0,.31.71,2.17,2.17,0,0,0,.77.76C43.42,44.84,43.53,44.73,43.47,44.66Z"/><path class="cls-26" d="M52.16,41.56a4.5,4.5,0,0,1-1,1.49,1.62,1.62,0,0,0,.2-1s-.06,0-.06,0c0,.4-.37.88-.61,1.13a6.86,6.86,0,0,1-1.08.83c-.13.09-.12.34.08.26a3.27,3.27,0,0,0,.84-.51h0a2.17,2.17,0,0,0,1.08-.89,3.18,3.18,0,0,0,.6-1.37S52.16,41.56,52.16,41.56Z"/><path class="cls-26" d="M37.57,46.39a4.64,4.64,0,0,0-.62-1,.09.09,0,0,0,0-.08c-.06-.35-.43-.63-.69-.84a3.67,3.67,0,0,0-.46-.3,2.33,2.33,0,0,0-.6-.17s-.05,0,0,0a2.91,2.91,0,0,1,.55.22,3.17,3.17,0,0,1,.41.34,3.09,3.09,0,0,1,.31.34c-.34-.23-.73-.33-1.1-.55,0,0-.05,0,0,0a11,11,0,0,1,1.17.81,7.47,7.47,0,0,1,.94,1.25C37.5,46.54,37.59,46.45,37.57,46.39Z"/><path class="cls-26" d="M64.16,41.51s0,0,0,0a2.91,2.91,0,0,1,.85.91c.23.37.34.8.54,1.18,0,.08.15,0,.14-.08A2.67,2.67,0,0,0,64.16,41.51Z"/><path class="cls-26" d="M66,46l0,0a1.33,1.33,0,0,0-.11-1.11,3.64,3.64,0,0,0-.37-.7c-.14-.22-.36-.35-.51-.56,0,0-.07,0-.06,0,.17.32.4.59.55.92a3,3,0,0,1,.32,1.3l-.44-.43s0,0,0,0l0,0s-.07,0-.05.07a7.4,7.4,0,0,1,.89,1.71c.06.14.24,0,.24-.14A1.78,1.78,0,0,0,66,46Z"/><path class="cls-26" d="M71.12,49.13a.2.2,0,0,0,.1-.1c.33-.87-.46-1.67-1.1-2.13,0,0-.09,0-.06.06a4.83,4.83,0,0,1,.58,1,4,4,0,0,1,.16.57,1.39,1.39,0,0,0-.48-.51s-.07,0,0,.06a3,3,0,0,1,.54,1.13,7.13,7.13,0,0,1,.37,1.56c0,.12.17,0,.18-.06A2.45,2.45,0,0,0,71.12,49.13Z"/><path class="cls-26" d="M70,52.51s0,0,0,0a3.33,3.33,0,0,1-.38,2.66,2.22,2.22,0,0,0-.16-1s0,0,0,0a3,3,0,0,1-.15,1.55,8.31,8.31,0,0,1-.78,1.33c0,.09,0,.17.12.11a2.74,2.74,0,0,0,1-1.75h0c.43-.06.66-.6.74-1A3.19,3.19,0,0,0,70,52.51Z"/></g></g></g></svg>