<svg xmlns="http://www.w3.org/2000/svg" viewBox="0 0 100 100"><defs><style>.cls-1{isolation:isolate;}.cls-2{fill:#e5b9b7;}.cls-3{fill:#e00000;}.cls-4{fill:#820000;}.cls-40,.cls-5{fill:#fed600;}.cls-46,.cls-6{fill:#6caf23;}.cls-38,.cls-7{fill:#0087bb;}.cls-8{fill:#006b8c;}.cls-12,.cls-9{fill:#0bd0f4;}.cls-10{fill:#08aec4;}.cls-11,.cls-14,.cls-44{fill:#b80000;}.cls-11,.cls-13,.cls-18,.cls-23,.cls-24,.cls-28,.cls-37,.cls-38,.cls-41,.cls-46,.cls-51{opacity:0.5;}.cls-11,.cls-13,.cls-14,.cls-16,.cls-24,.cls-25,.cls-28,.cls-38,.cls-41,.cls-46,.cls-47,.cls-53{mix-blend-mode:multiply;}.cls-12,.cls-18,.cls-23,.cls-40,.cls-50,.cls-51,.cls-52{mix-blend-mode:screen;}.cls-15{fill:#fea300;}.cls-17{fill:#febd00;}.cls-18,.cls-29,.cls-37{fill:#fff;}.cls-19,.cls-50{fill:#bca99c;}.cls-20{fill:#8c7567;}.cls-21,.cls-23,.cls-24{fill:#fa5d51;}.cls-22,.cls-25{fill:#c62e26;}.cls-26,.cls-28{fill:#026d8e;}.cls-27{fill:#025163;}.cls-30{fill:#d8906e;}.cls-31{fill:#b8c9d3;}.cls-32{fill:#6bb9ee;}.cls-33{fill:#a1cfea;}.cls-34{fill:#5585be;}.cls-35{fill:#192101;}.cls-36{fill:#dedede;}.cls-39{fill:#4e7f0f;}.cls-41{fill:#8e0101;}.cls-42{fill:#feb900;}.cls-43,.cls-53{fill:#c24251;}.cls-45{fill:none;}.cls-47{opacity:0.7;}.cls-48{fill:#cdcdcc;}.cls-49{fill:#adadac;}</style></defs><title>Asset 18</title><g class="cls-1"><g id="Layer_2" data-name="Layer 2"><g id="Layer_1-2" data-name="Layer 1"><rect class="cls-2" width="100" height="100"/><path class="cls-3" d="M63,20.15a8.22,8.22,0,0,1,3.23-7.36,9.87,9.87,0,0,1,0,2.22,10,10,0,0,1,8.72-4.91c.12,1.55-1.2,3.64-2.85,5.08a5.91,5.91,0,0,1,2.34-1.07,7.56,7.56,0,0,1-2.46,5.15,4.86,4.86,0,0,1,2.46-1.09,6.9,6.9,0,0,1-2.2,3.52,5.13,5.13,0,0,1,3.73,1.14,3,3,0,0,0-1.83.3A7.32,7.32,0,0,1,76,25.61c1.27,2.32,1.27,1.39,3.43,4.54s6.24,7.35,3.89,13.35a9.86,9.86,0,0,0-1.85-3.4s2.22,2.6.17,6.49a6,6,0,0,0-1.28-2.91,8.08,8.08,0,0,1-.77,6.74,6.26,6.26,0,0,0-1-2.25c.68,2.23-.53,4.51-3.83,7a6,6,0,0,0,.18-2.75A8,8,0,0,1,70.76,59c-3.11,1.48-5.19,1.58-8.16,3.75,0,0,8.07-8.2,6.4-15.25S63.56,27,63,20.15Z"/><path class="cls-4" d="M62.61,62.9a.09.09,0,0,1-.07,0,.09.09,0,0,1,0-.13c.08-.08,8-8.25,6.37-15.16-.4-1.68-.92-3.75-1.48-5.95-1.83-7.22-4.1-16.21-4.54-21.47a8.39,8.39,0,0,1,3.27-7.44.1.1,0,0,1,.15.06,10.82,10.82,0,0,1,0,1.83A10.14,10.14,0,0,1,74.54,10h.38a.09.09,0,0,1,.09.09c.1,1.27-.8,3-2.23,4.53a5.14,5.14,0,0,1,1.61-.6.1.1,0,0,1,.07,0,.09.09,0,0,1,0,.07,7.65,7.65,0,0,1-1.94,4.65,4.07,4.07,0,0,1,1.84-.68.1.1,0,0,1,.07,0,.1.1,0,0,1,0,.07,6.77,6.77,0,0,1-2,3.38h.33A5.53,5.53,0,0,1,76,22.76a.09.09,0,0,1,0,.11.1.1,0,0,1-.09.06l-.4,0a3,3,0,0,0-1.25.24A8.68,8.68,0,0,1,76,25.57a7.61,7.61,0,0,0,1.4,2,17.5,17.5,0,0,1,2,2.56c.28.4.59.82.91,1.27,2.25,3.07,5.05,6.9,3,12.17a.1.1,0,0,1-.1.06.09.09,0,0,1-.08-.08,6.94,6.94,0,0,0-1-2.16,6.32,6.32,0,0,1-.54,5.28.09.09,0,0,1-.1,0,.1.1,0,0,1-.08-.08,6.32,6.32,0,0,0-1-2.53,8.1,8.1,0,0,1-.9,6.4.09.09,0,0,1-.1,0,.09.09,0,0,1-.07-.07,6.69,6.69,0,0,0-.75-1.83c.4,2.13-.91,4.32-4,6.68a.09.09,0,0,1-.14-.11,4,4,0,0,0,.25-1.77,7.92,7.92,0,0,1-4,5.73,30.75,30.75,0,0,1-3.11,1.25,17.47,17.47,0,0,0-5,2.5ZM66.14,13a8.19,8.19,0,0,0-3.07,7.17c.43,5.25,2.71,14.23,4.53,21.45.55,2.2,1.08,4.27,1.48,6,.87,3.67-.92,7.65-2.58,10.34a32.83,32.83,0,0,1-3.26,4.38,18.63,18.63,0,0,1,4.39-2A30.68,30.68,0,0,0,70.72,59a7.94,7.94,0,0,0,4-6.5.09.09,0,0,1,.09-.09.09.09,0,0,1,.1.08,7,7,0,0,1-.07,2.48c3-2.39,4.19-4.6,3.53-6.74a.09.09,0,0,1,0-.11.09.09,0,0,1,.11,0,6,6,0,0,1,1,2.09,8.09,8.09,0,0,0,.65-6.48.09.09,0,0,1,0-.11.09.09,0,0,1,.11,0,5.82,5.82,0,0,1,1.25,2.68,5.68,5.68,0,0,0-.27-6.13h0a.11.11,0,0,1,0-.1l0,0a.09.09,0,0,1,.12,0h0a10.62,10.62,0,0,1,1.79,3.13c1.82-5-.89-8.73-3.07-11.71-.33-.45-.64-.87-.92-1.28a17.55,17.55,0,0,0-2-2.53,7.82,7.82,0,0,1-1.43-2A7.41,7.41,0,0,0,74,23.2a.09.09,0,0,1,0-.08A.1.1,0,0,1,74,23a2.9,2.9,0,0,1,1.47-.34h.11a5.29,5.29,0,0,0-2.84-1,3.45,3.45,0,0,0-.58,0,.09.09,0,0,1-.08-.16,7.26,7.26,0,0,0,2.15-3.35A5.6,5.6,0,0,0,72,19.33a.09.09,0,0,1-.12,0,.09.09,0,0,1,0-.12,7.61,7.61,0,0,0,2.42-5,6.32,6.32,0,0,0-2.19,1,.09.09,0,0,1-.13,0,.09.09,0,0,1,0-.13c1.73-1.51,2.88-3.52,2.82-4.92a9.9,9.9,0,0,0-8.55,4.87A.09.09,0,0,1,66.1,15,9.63,9.63,0,0,0,66.14,13Z"/><path class="cls-5" d="M66.44,37.31l0,0c1.79,2.17,4.23,3.12,6.9,3.74a6.44,6.44,0,0,1,2.91,1.35c.15.13,1.28,1.22,1.38,1a3.68,3.68,0,0,0,.23-1.69c-.22-2.27-1.45-4.25-1.93-6.44,0-.08.11-.37.23-.27.71.64,1.26,1.42,2,2.07.5-2.45-.9-4.95-1.56-7.25,0-.09.11-.35.23-.27a14.12,14.12,0,0,1,2.55,2.87,9.64,9.64,0,0,0,0-2.33C77.22,27,77.22,27.92,76,25.61a7.32,7.32,0,0,0-1.85-2.49,3,3,0,0,1,1.83-.3,5.13,5.13,0,0,0-3.73-1.14,6.9,6.9,0,0,0,2.2-3.52,4.86,4.86,0,0,0-2.46,1.09,7.56,7.56,0,0,0,2.46-5.15,5.91,5.91,0,0,0-2.34,1.07c1.65-1.44,3-3.52,2.85-5.08A10,10,0,0,0,66.19,15a9.87,9.87,0,0,0,0-2.22A8.22,8.22,0,0,0,63,20.15C63.34,24.39,64.9,31.12,66.44,37.31Z"/><path class="cls-6" d="M66.44,37.31l0,0a9,9,0,0,0,1.44,1.4,5.83,5.83,0,0,0,3.68.89C71,38,69.15,37.13,68,35.92c-.1-.1.08-.3.19-.31,1.9,0,3.58,1.27,5.12,2.25.07-2.6-1.79-4.86-2.5-7.28,0-.1.15-.38.25-.24a7.4,7.4,0,0,0,2.45,2.07c.57-1.59-.5-3.54-.85-5.08,0-.1.1-.33.23-.26,1.43.74,2.7,1.71,4.35,1.82a9.35,9.35,0,0,0,.09-1.33A7.7,7.7,0,0,1,76,25.61a7.32,7.32,0,0,0-1.85-2.49,3,3,0,0,1,1.83-.3,5.13,5.13,0,0,0-3.73-1.14,6.9,6.9,0,0,0,2.2-3.52,4.86,4.86,0,0,0-2.46,1.09,7.56,7.56,0,0,0,2.46-5.15,5.91,5.91,0,0,0-2.34,1.07c1.65-1.44,3-3.52,2.85-5.08A10,10,0,0,0,66.19,15a9.87,9.87,0,0,0,0-2.22A8.22,8.22,0,0,0,63,20.15C63.34,24.39,64.9,31.12,66.44,37.31Z"/><path class="cls-7" d="M65.1,30.09c.12,3.58,2.75.93,4.16-3.86,1.23-3.28,3.72-3.85,6.64-3.42a5.12,5.12,0,0,0-3.7-1.11,6.9,6.9,0,0,0,2.2-3.52,4.86,4.86,0,0,0-2.46,1.09,7.56,7.56,0,0,0,2.46-5.15,5.91,5.91,0,0,0-2.34,1.07c1.65-1.44,3-3.52,2.85-5.08A10,10,0,0,0,66.19,15a9.87,9.87,0,0,0,0-2.22A8.22,8.22,0,0,0,63,20.15c0,.2,0,.42.06.63.17.45.35.91.57,1.4C64.86,24.9,65,26.51,65.1,30.09Z"/><path class="cls-8" d="M65.87,31.84h0c-.36,0-.81-.3-.86-1.75-.12-3.48-.22-5.13-1.47-7.88-.2-.44-.39-.88-.57-1.41,0-.24,0-.45-.06-.65a8.39,8.39,0,0,1,3.27-7.44.1.1,0,0,1,.15.06,10.82,10.82,0,0,1,0,1.83A10.07,10.07,0,0,1,74.92,10a.09.09,0,0,1,.09.09c.1,1.27-.8,3-2.23,4.53a5.14,5.14,0,0,1,1.61-.6.1.1,0,0,1,.07,0,.09.09,0,0,1,0,.07,7.65,7.65,0,0,1-1.94,4.65,4.07,4.07,0,0,1,1.84-.68.1.1,0,0,1,.07,0,.1.1,0,0,1,0,.07,6.77,6.77,0,0,1-2,3.38h.33a5.53,5.53,0,0,1,3.15,1.17.09.09,0,0,1,.05.09.09.09,0,0,1-.09.09h0a10.67,10.67,0,0,0-1.56-.12,4.83,4.83,0,0,0-5,3.49C68.43,29.38,66.9,31.84,65.87,31.84ZM66.14,13a8.19,8.19,0,0,0-3.07,7.17c0,.21,0,.42.06.64.18.5.36.94.57,1.37,1.26,2.78,1.37,4.45,1.49,7.95,0,1,.28,1.57.68,1.57h0c.82,0,2.31-2.08,3.3-5.45a5,5,0,0,1,5.16-3.61,10.41,10.41,0,0,1,1.22.08,5.15,5.15,0,0,0-2.76-.93,3.47,3.47,0,0,0-.58,0,.09.09,0,0,1-.08-.16,7.25,7.25,0,0,0,2.15-3.35A5.6,5.6,0,0,0,72,19.33a.09.09,0,0,1-.12,0,.09.09,0,0,1,0-.12,7.59,7.59,0,0,0,2.43-5,6.31,6.31,0,0,0-2.19,1,.09.09,0,0,1-.13,0,.09.09,0,0,1,0-.13c1.73-1.51,2.88-3.52,2.82-4.92h-.28a10,10,0,0,0-8.26,4.87A.09.09,0,0,1,66.1,15,9.63,9.63,0,0,0,66.14,13Z"/><path class="cls-9" d="M81.43,40.12h0Z"/><path class="cls-10" d="M81.44,40.21h0l0,0h0a.09.09,0,0,1,0-.13.11.11,0,0,1,.17.09A.09.09,0,0,1,81.44,40.21Z"/><path class="cls-8" d="M69.88,20s0-.09,0-.09v0s-.07,0-.07,0h0A9.19,9.19,0,0,0,67.58,22a23.51,23.51,0,0,0,.26-3.69,8,8,0,0,0-.5-3.08s0-.06-.08,0a12.87,12.87,0,0,0-1.44,1.63c0-.4.08-.8.17-1.19s.2-.64.29-1c0,0,0,0,0,0a5.51,5.51,0,0,0-.53,2.3c-.18.25-.35.5-.5.75a3.57,3.57,0,0,0-.72,2.72c0,.05.08,0,.08-.06a3.44,3.44,0,0,1,.15-1.56,10.41,10.41,0,0,1,.91-1.53,16.18,16.18,0,0,1,1.66-2,16.77,16.77,0,0,1,.38,3.36c0,1.19-.16,2.35-.27,3.53a6.45,6.45,0,0,0-1,2.42c0,.06,0,0,.06,0a8.53,8.53,0,0,1,3.39-4.6A26.18,26.18,0,0,1,69.67,24c-.11.74-.24,1.47-.41,2.2a12.94,12.94,0,0,1-1,2.29c-.06.12.07.13.12,0A14.43,14.43,0,0,0,69.88,20Z"/><path class="cls-8" d="M72.3,14.89a6.66,6.66,0,0,1-1.32,1S70.9,16,71,16a3.65,3.65,0,0,0,1.35-1.05S72.34,14.84,72.3,14.89Z"/><path class="cls-10" d="M73.25,41.86l-.09,0A8.1,8.1,0,0,0,72,38.52a5,5,0,0,0-2.8-2s0,0,0,0a6.85,6.85,0,0,1,2.55,1.81A7.82,7.82,0,0,1,73,41.77c-.56-.21-1.15-.33-1.7-.58a5.79,5.79,0,0,1-1.74-1.28s0,0,0,0a5.5,5.5,0,0,0,3.5,2v0s0,0,.07,0h0S73.3,41.89,73.25,41.86Z"/><path class="cls-10" d="M74.9,42.28s-.06,0-.06,0c.46,1.93.32,4.44-1.07,6a6.74,6.74,0,0,0-1.85-4.22s-.06,0,0,.06a7.66,7.66,0,0,1,1.79,4.27l0,.05s-.07.21,0,.13C75.31,47.21,75.56,44.2,74.9,42.28Z"/><path class="cls-9" d="M81.43,40.12h0Z"/><path class="cls-10" d="M81.44,40.21h0l0,0h0a.09.09,0,0,1,0-.13.11.11,0,0,1,.17.09A.09.09,0,0,1,81.44,40.21Z"/><path class="cls-11" d="M79.39,30.16h0a17.63,17.63,0,0,1,1.92,7s-.46-2.78-3.8-5.47c1.85,3.06,1.95,9,1.95,9s-.18-1.28-2.55-4.64c1.2,1.9,2,5.78,1.53,10.29-.09-1-1-2.41-3.62-5.75a9.29,9.29,0,0,1-1,7.78A5,5,0,0,0,73,45.44c-.74-1.3-.74-1.67,0-3.47.75-4.68-3.37-10.52-5-13.12s-.82-4.65,1.73-8.75a9.24,9.24,0,0,0-3.58,5.48c-1.89-4.13-1-6.28,1.06-10.18a9.67,9.67,0,0,0-2.83,4.38,9.82,9.82,0,0,1,.67-6A8.25,8.25,0,0,0,63,20.15c.57,6.89,4.35,20.36,6,27.41s-6.4,15.25-6.4,15.25c3-2.18,5.05-2.27,8.16-3.75a8,8,0,0,0,4.08-6.58,6,6,0,0,1-.18,2.75c3.31-2.54,4.51-4.82,3.83-7a6.26,6.26,0,0,1,1,2.25,8.08,8.08,0,0,0,.77-6.74,6,6,0,0,1,1.28,2.91c2-3.74,0-6.29-.16-6.48h0a9.74,9.74,0,0,1,1.84,3.39C85.63,37.51,81.55,33.31,79.39,30.16Z"/><path class="cls-12" d="M74.26,10.57a12.78,12.78,0,0,1-4.12,6c-.17.14-.23.6.08.39a11.06,11.06,0,0,0,4.15-6.37C74.4,10.43,74.28,10.51,74.26,10.57Z"/><path class="cls-12" d="M73.36,15.93a11.42,11.42,0,0,1-.89,2.28A13.81,13.81,0,0,1,71,20.06c-.08.11,0,.29.09.14a7.9,7.9,0,0,0,1.52-1.88,10.29,10.29,0,0,0,.86-2.42C73.54,15.75,73.38,15.85,73.36,15.93Z"/><path class="cls-12" d="M74.37,22.43a3.77,3.77,0,0,0-3.31.68c-.07.05-.14.31,0,.22a5.78,5.78,0,0,1,3-.32C74.34,23,74.65,22.5,74.37,22.43Z"/><path class="cls-12" d="M79.25,29.92a7.12,7.12,0,0,0-3.07-2.7c-.1-.05-.24.18-.15.25a11.51,11.51,0,0,1,4.47,7c0,.21.3-.12.29-.25A10.71,10.71,0,0,0,79.25,29.92Z"/><path class="cls-12" d="M77.18,30.79c-.07-.11-.26.14-.2.24a16.69,16.69,0,0,1,1.75,7.5c0,.23.26,0,.26-.15A13.36,13.36,0,0,0,77.18,30.79Z"/><path class="cls-12" d="M76.42,35.37c0-.08-.17.09-.14.16a16.72,16.72,0,0,1,1.8,8.75c0,.22.25,0,.27-.15A13.35,13.35,0,0,0,76.42,35.37Z"/><g class="cls-13"><path class="cls-14" d="M82.9,35.5c.59,3.28,0,4.54,0,4.54a16.79,16.79,0,0,0-2.62-2.62c1.17,2.33,1.09,6.48,1.09,6.48a7.66,7.66,0,0,0-1.82-2.48c.73,1.39.36,6.85.36,6.85s-.36-.88-2.7-2.55C78,47.83,76.23,51,76.23,51l.22-5a11.34,11.34,0,0,1-4.08,6.12c1.09-3.72.22-6-1.68-8.75s-1.75-4.15-1.75-4.15,2,2,3.86,2.19a8.53,8.53,0,0,1-5.1-7.21c0-2.62-1.38-7.43-3.35-12.82a12.08,12.08,0,0,1-.87-5A8.19,8.19,0,0,0,63,20.15c.57,6.89,4.35,20.36,6,27.41s-6.4,15.25-6.4,15.25c3-2.18,5.05-2.27,8.16-3.75a8,8,0,0,0,4.08-6.58,6,6,0,0,1-.18,2.75c3.31-2.54,4.51-4.82,3.83-7a6.26,6.26,0,0,1,1,2.25,8.08,8.08,0,0,0,.77-6.74,6,6,0,0,1,1.28,2.91c2-3.74,0-6.29-.16-6.48h0a9.74,9.74,0,0,1,1.84,3.39A9.53,9.53,0,0,0,82.9,35.5Z"/></g><path class="cls-5" d="M23.58,86.54l-.23.28Z"/><path class="cls-15" d="M23.35,86.91l-.06,0a.09.09,0,0,1,0-.13l.23-.29a.09.09,0,0,1,.13,0,.09.09,0,0,1,0,.13l-.15.19-.08.1A.09.09,0,0,1,23.35,86.91Z"/><path class="cls-5" d="M29.42,77.17c-1.44,2.87-4,4.5-4.79,4.13-.3-.15-.3-.51-.2-.88a51.27,51.27,0,0,1-6.32,5c-2.46,1.85-2.6,2.69-1.25,3.85,1.79,1.48,4.32.27,6.49-2.41l.23-.28A79.44,79.44,0,0,0,28.74,80C28.83,79.45,29.05,78.58,29.42,77.17Z"/><path class="cls-15" d="M18.6,90h0a2.77,2.77,0,0,1-1.81-.66c-.63-.54-.9-1-.88-1.45,0-.68.64-1.41,2.14-2.54.37-.28.82-.6,1.3-.93a37.25,37.25,0,0,0,5-4,.09.09,0,0,1,.16.09q-.16.62.15.78a.48.48,0,0,0,.22,0c1,0,3.19-1.61,4.45-4.13a.1.1,0,0,1,.12,0,.09.09,0,0,1,.06.11c-.35,1.37-.58,2.27-.68,2.81v0a74.85,74.85,0,0,1-4.87,6.21l-.29.34-.23.28C21.81,88.86,20.1,90,18.6,90Zm5.68-9.27a38.12,38.12,0,0,1-4.83,3.84c-.47.33-.92.65-1.29.92-1.42,1.08-2,1.79-2.06,2.4,0,.4.24.8.81,1.3a2.6,2.6,0,0,0,1.69.61c1.43,0,3.09-1.07,4.67-3l.23-.29.29-.35A74.31,74.31,0,0,0,28.65,80c.08-.45.25-1.13.5-2.09-1.32,2.21-3.33,3.58-4.26,3.58a.69.69,0,0,1-.3-.06A.63.63,0,0,1,24.28,80.69Z"/><path class="cls-5" d="M36.17,80c-.5,0-1.13-.65-1.15-2.55l-.06.13a24.77,24.77,0,0,1-1.44,7.57l0-.06a11.54,11.54,0,0,1-.28,1.53c-.55,1.9,2.27,2.64,3.62-1.67a41.93,41.93,0,0,0,1-8.81C37.35,78.31,36.57,80,36.17,80Z"/><path class="cls-15" d="M34.18,88.23a1,1,0,0,1-.86-.41,1.36,1.36,0,0,1-.15-1.22c.18-.84.24-1.22.26-1.39a.1.1,0,0,1,0-.08,24.65,24.65,0,0,0,1.43-7.54.09.09,0,0,1,0,0l.06-.13a.09.09,0,0,1,.18,0c0,1.94.66,2.46,1,2.46s1.09-1.5,1.65-3.8a.09.09,0,0,1,.1-.07.09.09,0,0,1,.08.09A41.92,41.92,0,0,1,37,85C36.22,87.38,35,88.23,34.18,88.23Zm-.55-3.12a12.17,12.17,0,0,1-.28,1.55,1.19,1.19,0,0,0,.12,1.06.85.85,0,0,0,.71.33c.76,0,1.9-.81,2.61-3.11a39.18,39.18,0,0,0,1-8c-.47,1.64-1.13,3.13-1.59,3.16h0c-.43,0-.93-.44-1.13-1.6A25.37,25.37,0,0,1,33.64,85.1Z"/><path class="cls-5" d="M29,80.88c-.29-.05-.38-.19-.26-.89a79.44,79.44,0,0,1-5.16,6.55c-.79,1.21-1.2,2.69.14,3.2,2.69.88,4.17-1.71,5.7-5l-.13.4a47,47,0,0,0,2.24-7.38C31,79.47,29.49,81,29,80.88Z"/><path class="cls-15" d="M24.73,90a3.34,3.34,0,0,1-1-.18,1.34,1.34,0,0,1-.86-.84,3.32,3.32,0,0,1,.68-2.5l.3-.36a74,74,0,0,0,4.86-6.19.1.1,0,0,1,.11,0,.1.1,0,0,1,.06.1c-.13.73,0,.75.19.78h0c.47,0,1.84-1.39,2.4-3.07a.09.09,0,0,1,.18,0,47.44,47.44,0,0,1-2.24,7.39.09.09,0,0,1-.09.06h0C28.07,87.79,26.77,90,24.73,90Zm3.86-9.64C27.14,82.5,25,85,23.94,86.25l-.29.34A3,3,0,0,0,23,88.92a1.17,1.17,0,0,0,.75.72,3.2,3.2,0,0,0,1,.17c2,0,3.34-2.42,4.6-5.13l0,0a51.32,51.32,0,0,0,1.88-6C30.57,80,29.52,81,29,81H29C28.69,80.92,28.57,80.76,28.6,80.36Z"/><path class="cls-5" d="M32.48,80.56c-.65.09-1-.56-.88-3,0,.07,0,.14-.07.21a47,47,0,0,1-2.24,7.38c-.78,2.45-1,3.51.36,3.77,2.11.26,3.66-3.24,3.87-3.74A24.77,24.77,0,0,0,35,77.59C34.31,78.85,33.11,80.46,32.48,80.56Z"/><path class="cls-15" d="M29.87,89h-.23a1.22,1.22,0,0,1-.89-.53c-.34-.57-.13-1.54.45-3.36a47,47,0,0,0,2.24-7.37l0-.06,0-.15a.1.1,0,0,1,.11-.07.09.09,0,0,1,.08.1c-.09,1.54,0,2.45.33,2.78a.47.47,0,0,0,.44.14c.57-.08,1.74-1.61,2.41-2.92a.09.09,0,0,1,.1,0,.09.09,0,0,1,.07.09,24.73,24.73,0,0,1-1.44,7.6C33.34,85.83,31.9,89,29.87,89Zm1.6-10.52a51.86,51.86,0,0,1-2.1,6.67c-.55,1.72-.77,2.69-.47,3.2a1,1,0,0,0,.76.44h.2c1.95,0,3.4-3.32,3.56-3.7A24.84,24.84,0,0,0,34.85,78c-.65,1.16-1.72,2.58-2.36,2.67a.66.66,0,0,1-.6-.19A3.07,3.07,0,0,1,31.47,78.49Z"/><g class="cls-16"><path class="cls-5" d="M24.63,81.3c-.3-.15-.3-.51-.2-.88A31.11,31.11,0,0,1,21,83.34c.76-.47,3-1.81,3.59-1.63S21.7,88.83,17,89.33c1.78,1.3,4.23.09,6.35-2.51l.23-.28A79.44,79.44,0,0,0,28.74,80c.09-.54.32-1.4.68-2.82C28,80,25.37,81.67,24.63,81.3Z"/></g><g class="cls-16"><path class="cls-17" d="M21,88.6c-.35.35-.71.68-1.07,1a8.86,8.86,0,0,0,3.45-2.77l.23-.28A79.44,79.44,0,0,0,28.74,80c.09-.49.28-1.26.59-2.47A55.72,55.72,0,0,1,21,88.6Z"/></g><g class="cls-16"><path class="cls-5" d="M31.53,77.75C31,79.47,29.49,81,29,80.88c-.29-.05-.38-.19-.26-.89a79.44,79.44,0,0,1-5.16,6.55,4.51,4.51,0,0,0-.7,1.62l4.33-5c2-2.28,2.36,2-2.42,6.73,2,0,3.32-2.34,4.64-5.17l-.13.4A47,47,0,0,0,31.53,77.75Z"/></g><g class="cls-16"><path class="cls-17" d="M31.53,77.75A6.84,6.84,0,0,1,30.2,80,28.3,28.3,0,0,1,27.09,88c-.34.56-.71,1.09-1.09,1.6,1.38-.73,2.39-2.63,3.42-4.85l-.13.4A47,47,0,0,0,31.53,77.75Z"/></g><g class="cls-16"><path class="cls-5" d="M32.48,80.56c-.65.09-1-.56-.88-3,0,.07,0,.14-.07.21a47,47,0,0,1-2.24,7.38,11.16,11.16,0,0,0-.6,2.51c.7-1.28,1.62-3,2.23-4.18,1-2,3.11-1.06.27,5a8.61,8.61,0,0,0,2.33-3.28A24.77,24.77,0,0,0,35,77.59C34.31,78.85,33.11,80.46,32.48,80.56Z"/></g><g class="cls-16"><path class="cls-17" d="M34.47,78.43c0,.59-.13,1.17-.24,1.75-.27,1.47-.44,3-.83,4.43a13.57,13.57,0,0,1-1,2.63,10.85,10.85,0,0,0,1.17-2.08A24.77,24.77,0,0,0,35,77.59C34.82,77.86,34.65,78.15,34.47,78.43Z"/></g><g class="cls-16"><path class="cls-5" d="M36.17,80c-.5,0-1.13-.65-1.15-2.55l-.06.13a24.77,24.77,0,0,1-1.44,7.57l0-.06a11.54,11.54,0,0,1-.28,1.53,1.48,1.48,0,0,0,0,.74c.58-1.51,1.38-3.62,1.9-5.25.84-2.56,2.37.34.37,5.36A6,6,0,0,0,36.88,85a41.93,41.93,0,0,0,1-8.81C37.35,78.31,36.57,80,36.17,80Z"/></g><g class="cls-16"><path class="cls-5" d="M37.41,77.76a27,27,0,0,1-.78,6.77,28.55,28.55,0,0,1-.92,2.73A6.51,6.51,0,0,0,36.88,85a41.93,41.93,0,0,0,1-8.81C37.74,76.72,37.58,77.27,37.41,77.76Z"/></g><path class="cls-18" d="M22.38,82.66c-1.32.83-2.66,1.53-3.92,2.46-1,.72-2.13,1.5-2.21,2.82,0,.25.27,0,.3-.12.31-1.46,1.78-2.28,2.9-3.12.95-.71,2-1.21,2.95-1.95C22.42,82.73,22.44,82.63,22.38,82.66Z"/><path class="cls-18" d="M27.5,83.13c-1.3,1.71-4.14,3.49-3.95,6,0,.19.26-.1.27-.19.27-2.48,2.55-3.76,3.76-5.69C27.62,83.13,27.56,83,27.5,83.13Z"/><path class="cls-18" d="M31.4,83.07c-1.05,1.53-2.35,3-2.54,5,0,.17.19,0,.21-.09a13.67,13.67,0,0,1,1.23-3.08c.34-.63.79-1.18,1.15-1.8C31.47,83,31.43,83,31.4,83.07Z"/><path class="cls-18" d="M35.12,82.75c0-.07-.07,0-.07,0-.36,1.47-1.72,2.9-1.47,4.49,0,.16.25-.09.23-.2C33.6,85.54,34.85,84.19,35.12,82.75Z"/><path class="cls-19" d="M58.32,79.65a2.92,2.92,0,0,1,3.43.76c1.62,1.72.86,4.38-1.88,2.3A4.88,4.88,0,0,0,58.32,79.65Z"/><path class="cls-20" d="M61.6,83.57a3.15,3.15,0,0,1-1.78-.78.09.09,0,0,1,0-.07,4.86,4.86,0,0,0-1.53-3,.1.1,0,0,1,0-.08.09.09,0,0,1,0-.07,2.89,2.89,0,0,1,1.25-.27,3.08,3.08,0,0,1,2.29,1.06,2.61,2.61,0,0,1,.75,2.59A1,1,0,0,1,61.6,83.57ZM60,82.66a3,3,0,0,0,1.64.72.81.81,0,0,0,.8-.51,2.4,2.4,0,0,0-.72-2.39,2.91,2.91,0,0,0-2.15-1,2.85,2.85,0,0,0-1.05.2A5,5,0,0,1,60,82.66Z"/><g class="cls-13"><path class="cls-19" d="M62.41,81.45a1.24,1.24,0,0,1-.43.85c-.79.46-1.37-.63-2.08-2.16a1.52,1.52,0,0,1-.17-.74,2.92,2.92,0,0,0-1.42.25,4.88,4.88,0,0,1,1.55,3.06C62.09,84.4,63,83,62.41,81.45Z"/></g><path class="cls-19" d="M53.23,75.17a22.16,22.16,0,0,0,.27,4.34c2.22-1.06,4.41-1.69,6,1.28.77,1.41.9,3-.44,3.27s-2-1.09-3.38-1.6-2.25-.21-4,.49-2.9-.09-2.09-1.18,1.67-2.06,1.58-3.41-.53-3.71-.53-3.71A1.83,1.83,0,0,1,53.23,75.17Z"/><path class="cls-20" d="M58.73,84.18A2.8,2.8,0,0,1,57,83.39a5.11,5.11,0,0,0-1.4-.85c-1.36-.49-2.17-.21-3.92.48a3.44,3.44,0,0,1-1.26.27,1.2,1.2,0,0,1-1.15-.53,1,1,0,0,1,.2-1.06l.24-.32a4.56,4.56,0,0,0,1.32-3c-.09-1.32-.53-3.68-.53-3.7a.1.1,0,0,1,0-.1,2.54,2.54,0,0,1,1.21-.35,1.68,1.68,0,0,1,1.5.91.1.1,0,0,1,0,.05,23,23,0,0,0,.24,4.2,7.18,7.18,0,0,1,2.91-.84,3.5,3.5,0,0,1,3.11,2.21A3.24,3.24,0,0,1,60,83.46a1.22,1.22,0,0,1-.94.68A1.77,1.77,0,0,1,58.73,84.18Zm-4.37-2.07a3.89,3.89,0,0,1,1.35.26,5.37,5.37,0,0,1,1.44.87,2.62,2.62,0,0,0,1.58.75A1.55,1.55,0,0,0,59,84a1,1,0,0,0,.81-.58,3.11,3.11,0,0,0-.43-2.55,3.33,3.33,0,0,0-2.95-2.11,7.22,7.22,0,0,0-2.94.88.1.1,0,0,1-.08,0,.09.09,0,0,1,0-.06,21.66,21.66,0,0,1-.27-4.34,1.5,1.5,0,0,0-1.32-.8,2.34,2.34,0,0,0-1.06.29c.07.39.44,2.44.52,3.65a4.69,4.69,0,0,1-1.35,3.15l-.24.32a.84.84,0,0,0-.19.87,1,1,0,0,0,1,.43,3.27,3.27,0,0,0,1.19-.25A7.46,7.46,0,0,1,54.36,82.11Z"/><g class="cls-13"><path class="cls-19" d="M59.5,80.79a5.87,5.87,0,0,0-.62-.95l0,0c1.7,2.54-.21,3.49-1.58,1.83s-2.53-1.58-4-.62-2,.12-1.45-1.58.12-3.28.71-3.28c.26,0,.5.33.69.7,0-1,0-1.76,0-1.76a1.83,1.83,0,0,0-2.58-.53s.44,2.36.53,3.71-.76,2.32-1.58,3.41.35,1.88,2.09,1.18,2.57-1,4-.49,2,1.85,3.38,1.6S60.27,82.2,59.5,80.79Z"/></g><path class="cls-19" d="M46.73,80.54A2.84,2.84,0,0,1,50,81c1.21,1,1.68,3.12.11,3.55a1.34,1.34,0,0,1-1.36-.68S48.56,81.26,46.73,80.54Z"/><path class="cls-20" d="M49.87,84.72A1.5,1.5,0,0,1,48.67,84v0s-.21-2.61-2-3.3a.09.09,0,0,1-.06-.08.1.1,0,0,1,0-.09,2.47,2.47,0,0,1,1.25-.31,3.41,3.41,0,0,1,2.13.83,3,3,0,0,1,1.1,2.68,1.34,1.34,0,0,1-1,1A1.2,1.2,0,0,1,49.87,84.72Zm-1-.83a1.31,1.31,0,0,0,1,.64l.23,0a1.16,1.16,0,0,0,.89-.89,2.84,2.84,0,0,0-1-2.5,3.21,3.21,0,0,0-2-.79,2.47,2.47,0,0,0-1,.2C48.58,81.33,48.82,83.62,48.84,83.89Z"/><g class="cls-13"><path class="cls-19" d="M50.53,83.45c-1,0-1-1.26-1.56-2.17a1.1,1.1,0,0,1-.23-.92,2.57,2.57,0,0,0-2,.17c1.83.72,2,3.38,2,3.38a1.34,1.34,0,0,0,1.36.68,1.33,1.33,0,0,0,1-1.58A.64.64,0,0,1,50.53,83.45Z"/></g><path class="cls-19" d="M43.79,75.89a33,33,0,0,0-.68,3.34,1.92,1.92,0,0,0,.82,1.7s2.16-1.65,3.83-.17,1.44,4.43.33,4.63-1.9-1.67-3.59-1.62-3,.63-4-.21c-.49-.42-.67-.44-1.32-.07s-1.48.53-1.72-.62a1.87,1.87,0,0,1,1.74-2.23c1,.09,1.55,0,1.72-.86a24.26,24.26,0,0,0,.44-4A1.73,1.73,0,0,1,43.79,75.89Z"/><path class="cls-20" d="M47.9,85.51a2.39,2.39,0,0,1-1.36-.71,3.23,3.23,0,0,0-2-.93h-.06a13,13,0,0,0-1.4.13,10.22,10.22,0,0,1-1.21.11,2.18,2.18,0,0,1-1.48-.47c-.27-.23-.42-.31-.58-.31a1.41,1.41,0,0,0-.64.25,1.9,1.9,0,0,1-.9.29c-.35,0-.79-.17-.95-1a2,2,0,0,1,.45-1.67,1.67,1.67,0,0,1,1.39-.66l.46,0c.72,0,1-.23,1.16-.81a23.82,23.82,0,0,0,.44-4,.11.11,0,0,1,0-.06,2,2,0,0,1,1.29-.52,1.84,1.84,0,0,1,1.32.61.09.09,0,0,1,0,.09,32.64,32.64,0,0,0-.68,3.33,1.81,1.81,0,0,0,.72,1.58,4.14,4.14,0,0,1,2.21-.76,2.46,2.46,0,0,1,1.68.64,4,4,0,0,1,1.12,3.8c-.16.56-.46.93-.84,1l-.19,0Zm-3.36-1.83a3.35,3.35,0,0,1,2.11,1,2.24,2.24,0,0,0,1.25.67h.16c.31-.06.56-.37.7-.87a3.79,3.79,0,0,0-1.07-3.61,2.29,2.29,0,0,0-1.55-.6A4,4,0,0,0,44,81a.09.09,0,0,1-.11,0A2,2,0,0,1,43,79.22a32.65,32.65,0,0,1,.67-3.3,1.64,1.64,0,0,0-1.15-.52,1.87,1.87,0,0,0-1.14.45,24.17,24.17,0,0,1-.44,4c-.13.67-.53,1-1.34,1h0l-.48,0a1.48,1.48,0,0,0-1.23.6,1.86,1.86,0,0,0-.41,1.52c.11.55.37.83.77.83a1.73,1.73,0,0,0,.81-.26,1.59,1.59,0,0,1,.73-.27,1.1,1.1,0,0,1,.69.35,2,2,0,0,0,1.36.43,9.55,9.55,0,0,0,1.19-.11,13,13,0,0,1,1.42-.13Z"/><g class="cls-13"><path class="cls-19" d="M47.75,80.76c1.95,2.09.05,4.08-.69,2.86s-2.39-1.39-4-.82-2.39-.26-1.74-1.52.61-3.86,1.3-4.12a.62.62,0,0,1,.75.28c.18-.85.36-1.55.36-1.55a1.73,1.73,0,0,0-2.48-.09,24.26,24.26,0,0,1-.44,4c-.16.81-.74,1-1.72.86a1.87,1.87,0,0,0-1.74,2.23c.23,1.16,1.07,1,1.72.62s.83-.35,1.32.07c1,.83,2.34.25,4,.21S47,85.61,48.07,85.4,49.42,82.25,47.75,80.76Z"/></g><path class="cls-20" d="M44.11,80.74a3.14,3.14,0,0,1-1,.47,1.55,1.55,0,0,1-.91,0s0,0,0,0c.59.37,1.45-.05,1.93-.41C44.15,80.81,44.17,80.7,44.11,80.74Z"/><path class="cls-20" d="M40.61,80.29a4,4,0,0,1-.46.78,2.74,2.74,0,0,1-.67.53s-.1.2,0,.14a2.61,2.61,0,0,0,1.19-1.45C40.69,80.24,40.63,80.25,40.61,80.29Z"/><path class="cls-21" d="M71.6,49.22c.37-1.71-.14-3.85-2.64-7s-2.27-6.77-3-11.12-1.65-10.64-4.8-14.46-7.48-4-9.13-3.33a3.64,3.64,0,0,1,1.05-1,5.68,5.68,0,0,0-3.44,1.7,4.48,4.48,0,0,1,1.21-1.54c-9,3.63-9.7,12.92-8.27,17.47,2,5.38,1.38,7.14,1.33,7.25a5.73,5.73,0,0,1,1.17,3.16c2.49-1.63,5.12-.24,6.17,3.87s1.1,7.41-.86,9.23a4,4,0,0,0-.81-3s1.72,4.3-4.26,7.94c.1,2.54-3,4.26-7.32,6.22-1.29,1.67-2.82,2.54-2.78,5.55a7.57,7.57,0,0,1,1.34-1.67s-1.29,2.68-.29,3.16A4.74,4.74,0,0,1,37.9,73a11.92,11.92,0,0,1,1.92,1.51,4,4,0,0,1,1.1,2.28s1-.65,1-1a3.4,3.4,0,0,1,.55.82l.85-.81a2,2,0,0,0,.93.93,7,7,0,0,1,4.17-4.87A6.15,6.15,0,0,1,50,76a3.78,3.78,0,0,0,.92-1.1,2.56,2.56,0,0,0,.67.92,8.22,8.22,0,0,0,.81-1.06,4.92,4.92,0,0,0,1.35,1.36s.31-2,2.78-6.24,6.37-6.86,9.69-10c2.86-3.2,4-5.55,3.87-8.46a4.05,4.05,0,0,0-.44-4.73A3.2,3.2,0,0,1,71.6,49.22Z"/><path class="cls-22" d="M40.92,76.84h0a.09.09,0,0,1-.05-.07,3.88,3.88,0,0,0-1.07-2.22A11.86,11.86,0,0,0,37.86,73l0,0a4.73,4.73,0,0,0-1.56-1.24.71.71,0,0,1-.37-.42,4.23,4.23,0,0,1,.41-2.4,9.18,9.18,0,0,0-1,1.31.1.1,0,0,1-.1,0,.09.09,0,0,1-.07-.09A5.9,5.9,0,0,1,37.1,65.6c.28-.31.57-.64.85-1l0,0c4.67-2.1,7.35-3.78,7.26-6.13a.08.08,0,0,1,0-.08c3.06-1.86,4-3.9,4.33-5.27a4.83,4.83,0,0,0-.11-2.56.09.09,0,0,1,0-.11.1.1,0,0,1,.12,0,4.07,4.07,0,0,1,.86,2.84c1.59-1.65,1.8-4.51.66-9-.71-2.8-2.23-4.47-4-4.47a3.64,3.64,0,0,0-2,.65.08.08,0,0,1-.09,0,.09.09,0,0,1-.05-.07,5.72,5.72,0,0,0-1.15-3.11.09.09,0,0,1,0-.1c0-.07.69-1.8-1.33-7.18a15.57,15.57,0,0,1,.21-9.14,13.55,13.55,0,0,1,8.12-8.45.09.09,0,0,1,.09.16,5.16,5.16,0,0,0-1,1.06,5.56,5.56,0,0,1,3.13-1.39.09.09,0,0,1,0,.17,3.78,3.78,0,0,0-.83.71,5.69,5.69,0,0,1,1.61-.21,9.65,9.65,0,0,1,7.33,3.68c3.11,3.78,4.08,9.86,4.79,14.29l0,.21c.16,1,.27,1.94.38,2.85.37,3.1.69,5.78,2.57,8.23,2.25,2.79,3.09,5,2.66,7a.09.09,0,0,1-.09.07h0a.09.09,0,0,1-.09-.08A3.17,3.17,0,0,0,70,47a4.11,4.11,0,0,1,.21,4.48c.12,2.85-1,5.24-3.9,8.5-.88.83-1.81,1.63-2.71,2.41-2.53,2.18-5.15,4.44-7,7.57-2.43,4.19-2.77,6.19-2.77,6.21a.09.09,0,0,1-.14.06A5.23,5.23,0,0,1,52.45,75a8,8,0,0,1-.74,1,.09.09,0,0,1-.12,0,2.76,2.76,0,0,1-.63-.8,3.71,3.71,0,0,1-.85,1,.1.1,0,0,1-.1,0A.09.09,0,0,1,50,76,6.13,6.13,0,0,0,48.4,72a7,7,0,0,0-4.06,4.78.09.09,0,0,1-.05.06.09.09,0,0,1-.08,0,2.33,2.33,0,0,1-.91-.85l-.76.72a.1.1,0,0,1-.08,0,.08.08,0,0,1-.07-.05A3.65,3.65,0,0,0,42,76a3.75,3.75,0,0,1-1,.87Zm-3-4a12.25,12.25,0,0,1,1.92,1.51A4,4,0,0,1,41,76.58c.38-.26.84-.64.84-.81a.09.09,0,0,1,.06-.08.09.09,0,0,1,.1,0,3.13,3.13,0,0,1,.51.73l.76-.72a.1.1,0,0,1,.08,0,.09.09,0,0,1,.07.06,1.88,1.88,0,0,0,.79.82,7.14,7.14,0,0,1,4.19-4.81.1.1,0,0,1,.1,0,6.12,6.12,0,0,1,1.65,4,4.7,4.7,0,0,0,.76-1,.11.11,0,0,1,.09,0,.09.09,0,0,1,.08.06,2.32,2.32,0,0,0,.58.82,10.09,10.09,0,0,0,.74-1,.09.09,0,0,1,.08,0,.1.1,0,0,1,.08,0A4.5,4.5,0,0,0,53.74,76a23.49,23.49,0,0,1,2.76-6.13c1.83-3.16,4.46-5.42,7-7.62.9-.78,1.83-1.58,2.7-2.4,2.88-3.22,4-5.58,3.84-8.38a.09.09,0,0,1,0,0,4,4,0,0,0-.43-4.62.09.09,0,0,1,0-.11.09.09,0,0,1,.11,0,3.28,3.28,0,0,1,1.85,2.11c.21-1.83-.66-3.89-2.7-6.41s-2.24-5.2-2.61-8.33c-.11-.91-.22-1.85-.38-2.84l0-.21c-.7-4.41-1.67-10.46-4.75-14.21a9.47,9.47,0,0,0-7.18-3.61,4.94,4.94,0,0,0-1.85.31A.09.09,0,0,1,52,13.3a3.6,3.6,0,0,1,.76-.79,6,6,0,0,0-3,1.62.09.09,0,0,1-.12,0,.09.09,0,0,1,0-.11,3.8,3.8,0,0,1,.84-1.21A13.31,13.31,0,0,0,42.9,21a15.37,15.37,0,0,0-.21,9c1.88,5,1.47,6.89,1.35,7.26a5.83,5.83,0,0,1,1.14,3,3.74,3.74,0,0,1,2-.6c1.91,0,3.49,1.72,4.22,4.61,1.2,4.69.92,7.65-.89,9.32a.09.09,0,0,1-.1,0,.09.09,0,0,1-.05-.09A4.21,4.21,0,0,0,49.83,51a5.4,5.4,0,0,1,0,2.11c-.29,1.41-1.29,3.48-4.37,5.36.05,2.67-3.45,4.48-7.35,6.24-.28.36-.56.68-.84,1a5.69,5.69,0,0,0-1.9,4.17,7.28,7.28,0,0,1,1.19-1.43.09.09,0,0,1,.12,0,.09.09,0,0,1,0,.11s-.9,1.88-.6,2.71a.52.52,0,0,0,.27.32A4.8,4.8,0,0,1,38,72.88Z"/><path class="cls-23" d="M64.11,42.57c2.72,2.47,2.72,6.67,1,9.89.87-3.83.25-6.43-1.61-8.53a7.77,7.77,0,0,1-.5,5.56,10.3,10.3,0,0,0-1.6-6.3s-3,3.21-2.1,5.56c-1-3.34-1.43-4.44.18-6.39A10.73,10.73,0,0,0,56.17,45a5.44,5.44,0,0,1,2.43-2.92,7.3,7.3,0,0,0-3,1.21,4.18,4.18,0,0,1,3.11-1.89c-1.51-1.12-4.33-.06-5,1.05a4.78,4.78,0,0,1,1.55-3.15s-1.85,0-2.53,1.18c.8-2.16-2.9-1.78-5.25-3.95-1.11-1-1.67-3.62-1.67-3.62a18.21,18.21,0,0,1-.72,2.24,18.53,18.53,0,0,0-1.38-5.22C40,18.34,49.38,13.42,49.38,13.42s-.85,1.46-.77,2a11.7,11.7,0,0,1,3.64-2.67S51,13.29,51,14.17a8.7,8.7,0,0,1,8.11,1.15c3.13,2.05,5.81,9.61,5.81,16.4S66,40.9,68.39,42.82s2.3,3.06,2.3,3.06S67.3,42.23,64.11,42.57Z"/><path class="cls-24" d="M47,33.52a7.71,7.71,0,0,1,1.7-1.92,10.14,10.14,0,0,0-.58,3.93c1.89,0,6.76-1.6,8-3.42,1.39-2,1.85-4.51-.77-6.37S46.79,30.42,47,33.52Z"/><path class="cls-24" d="M43.05,22.94s.39,4.68,3.25,3.51a2.73,2.73,0,0,0,1-2.83Z"/><path class="cls-24" d="M54.56,23.29a3.75,3.75,0,0,0,4,1.08c2.34-.93,2-4.47.71-6.24-.74.89-.74.56-2.19.6S53.75,20.2,54.56,23.29Z"/><path class="cls-25" d="M44.21,26a2.5,2.5,0,0,0,.44.32,1.39,1.39,0,0,0,.23.12,2,2,0,0,0,.27.09,1.37,1.37,0,0,0,.29,0,1.14,1.14,0,0,0,.3,0,1.65,1.65,0,0,0,.29-.08,2.64,2.64,0,0,0,.27-.13l.24-.15.2-.17c.12-.1.21-.2.28-.27l.11-.1-.08.12a2.31,2.31,0,0,1-.24.32l-.19.2-.24.19a2,2,0,0,1-.29.16,2.1,2.1,0,0,1-.33.1,1.49,1.49,0,0,1-.34,0,1.59,1.59,0,0,1-.33-.07,1.72,1.72,0,0,1-.28-.13l-.23-.15A1.65,1.65,0,0,1,44.21,26Z"/><path class="cls-26" d="M32.39,73.57a5,5,0,0,0,.09,2.81,4.66,4.66,0,0,0,2.9-2.72A5.57,5.57,0,0,0,35.94,76a4,4,0,0,0,2-2.82c0-.17,0-.27,0-.27a4.74,4.74,0,0,0-1.6-1.27c-1-.48.29-3.16.29-3.16a7.57,7.57,0,0,0-1.34,1.67,5.32,5.32,0,0,1,1.1-3.57l0,0A21,21,0,0,1,32.16,70a21.34,21.34,0,0,1-1.86,2.64,11.23,11.23,0,0,0-.94,4.22A6.79,6.79,0,0,0,32.39,73.57Z"/><path class="cls-27" d="M29.36,76.91h0a.09.09,0,0,1,0-.08,11.33,11.33,0,0,1,.95-4.26v0a20.75,20.75,0,0,0,1.86-2.62l0,0a21.09,21.09,0,0,0,4.13-3.28l0,0a.1.1,0,0,1,.13,0,.09.09,0,0,1,0,.12,5.1,5.1,0,0,0-1.07,3.2,7.25,7.25,0,0,1,1.18-1.43.09.09,0,0,1,.12,0,.09.09,0,0,1,0,.11s-.9,1.88-.6,2.71a.52.52,0,0,0,.27.32A4.81,4.81,0,0,1,38,72.9.08.08,0,0,1,38,73v.26a.07.07,0,0,1,0,0,4,4,0,0,1-2,2.89.09.09,0,0,1-.12,0A5.3,5.3,0,0,1,35.32,74a4.63,4.63,0,0,1-2.82,2.46.1.1,0,0,1-.11-.05,4.71,4.71,0,0,1-.2-2.27A6.87,6.87,0,0,1,29.4,76.9Zm1-4.27a11.35,11.35,0,0,0-.93,4,6.71,6.71,0,0,0,2.85-3.13.09.09,0,0,1,.11,0,.09.09,0,0,1,.06.11,5.18,5.18,0,0,0,.06,2.68,4.69,4.69,0,0,0,2.76-2.64.09.09,0,0,1,.18,0,6.05,6.05,0,0,0,.5,2.26,4.06,4.06,0,0,0,1.83-2.71V73a4.7,4.7,0,0,0-1.55-1.22.71.71,0,0,1-.37-.42,4.23,4.23,0,0,1,.41-2.4,9.18,9.18,0,0,0-1,1.31.1.1,0,0,1-.1,0,.09.09,0,0,1-.07-.09,5.63,5.63,0,0,1,.66-2.94A20.28,20.28,0,0,1,32.23,70,21.37,21.37,0,0,1,30.38,72.64Z"/><path class="cls-28" d="M37.9,73a4.74,4.74,0,0,0-1.6-1.27c-1-.48.29-3.16.29-3.16a7.57,7.57,0,0,0-1.34,1.67,5.32,5.32,0,0,1,1.1-3.57l0,0a21.35,21.35,0,0,1-3.83,3.1.28.28,0,0,1,.1,0c.36.26.27.8.09,1.29a14.91,14.91,0,0,1,1.77-1.59c.06,0,.13-.06.16,0,.39.93,0,2.28-.22,3.22A4,4,0,0,1,33,75.25c-.16.12-.19-.07-.13-.19a4.48,4.48,0,0,0,.29-2.76c-.52.59-.92,1.27-1.48,1.83a7.25,7.25,0,0,1-1.4,1.08c-.27.16-.56.31-.84.44a7.8,7.8,0,0,0-.08,1.16,6.79,6.79,0,0,0,3-3.24,5,5,0,0,0,.09,2.81,4.66,4.66,0,0,0,2.9-2.72A5.57,5.57,0,0,0,35.94,76a4,4,0,0,0,2-2.82C37.9,73.05,37.9,73,37.9,73Z"/><path class="cls-26" d="M24.63,81.3c.74.37,3.35-1.25,4.79-4.13-.83,3.24-.93,3.62-.42,3.71s2.08-1.53,2.6-3.34c-.14,2.46.23,3.1.88,3s1.91-1.82,2.54-3.1c0,1.9.65,2.58,1.15,2.55s1.19-1.71,1.71-3.87c0-1.37,0-2.45,0-2.92a4,4,0,0,1-2,2.82,5.57,5.57,0,0,1-.56-2.38,4.66,4.66,0,0,1-2.9,2.72,5,5,0,0,1-.09-2.81,6.79,6.79,0,0,1-3,3.24,11.23,11.23,0,0,1,.94-4.22c-.7.87-1.35,1.59-1.67,1.94a20.07,20.07,0,0,1-4.2,5.88C24.33,80.79,24.33,81.15,24.63,81.3Z"/><path class="cls-27" d="M24.89,81.44h0a.69.69,0,0,1-.3-.06c-.3-.15-.38-.48-.25-1a.09.09,0,0,1,0,0,19.87,19.87,0,0,0,4.18-5.86l0,0c.28-.31.95-1,1.66-1.93a.09.09,0,0,1,.12,0,.1.1,0,0,1,0,.11,11.36,11.36,0,0,0-.94,4,6.71,6.71,0,0,0,2.85-3.13.09.09,0,0,1,.11,0,.09.09,0,0,1,.06.11,5.18,5.18,0,0,0,.06,2.68,4.69,4.69,0,0,0,2.76-2.64.09.09,0,0,1,.18,0,6.05,6.05,0,0,0,.5,2.26,4.08,4.08,0,0,0,1.84-2.72.09.09,0,0,1,.1-.07.09.09,0,0,1,.08.09c0,.41,0,1.52,0,2.93-.47,1.94-1.27,3.93-1.8,4h0c-.51,0-1.11-.61-1.2-2.29-.65,1.21-1.79,2.73-2.45,2.83a.66.66,0,0,1-.6-.19,3.53,3.53,0,0,1-.41-2.29c-.65,1.57-2,2.9-2.5,2.8a.44.44,0,0,1-.32-.18c-.18-.28,0-.88.48-2.93C27.82,80.07,25.82,81.44,24.89,81.44Zm-.38-1c-.1.4,0,.65.16.75a.48.48,0,0,0,.22,0c1,0,3.19-1.61,4.45-4.13a.1.1,0,0,1,.12,0,.09.09,0,0,1,.06.11c-.61,2.37-.84,3.25-.68,3.5,0,0,.09.08.19.1h0c.49,0,2-1.55,2.46-3.27a.09.09,0,0,1,.18,0c-.09,1.54,0,2.45.33,2.78a.47.47,0,0,0,.44.14c.58-.08,1.83-1.73,2.47-3a.09.09,0,0,1,.18,0c0,1.94.66,2.46,1,2.46s1.09-1.5,1.65-3.8c0-.93,0-1.73,0-2.29A3.79,3.79,0,0,1,36,76.13a.09.09,0,0,1-.12,0A5.3,5.3,0,0,1,35.32,74a4.63,4.63,0,0,1-2.82,2.46.1.1,0,0,1-.11-.05,4.71,4.71,0,0,1-.2-2.27A6.87,6.87,0,0,1,29.4,76.9a.1.1,0,0,1-.09,0,.09.09,0,0,1,0-.08A10.72,10.72,0,0,1,30,73.1c-.56.67-1.05,1.22-1.29,1.48A20,20,0,0,1,24.51,80.46Z"/><path class="cls-20" d="M53.71,79.43a2,2,0,0,0-.83.43s0,.14,0,.09a4.13,4.13,0,0,1,.8-.45S53.75,79.42,53.71,79.43Z"/><path class="cls-29" d="M47.54,23.36A4,4,0,0,1,48,24.91c-.74,1.32-3.75,2.43-4.73-1.95C44.78,21.92,46.75,21.64,47.54,23.36Z"/><path class="cls-30" d="M47.54,23.36a4,4,0,0,1,.18.37,1.89,1.89,0,0,1,.07.19l.06.19a1.29,1.29,0,0,1,.05.2l0,.2.08.4h0a2.27,2.27,0,0,1-.25.35,2.24,2.24,0,0,1-.31.3,3.23,3.23,0,0,1-.36.25,2.62,2.62,0,0,1-.4.18,1.69,1.69,0,0,1-.43.11,1.8,1.8,0,0,1-.44,0,2.2,2.2,0,0,1-.44-.06,4.29,4.29,0,0,1-.42-.16l-.38-.25-.32-.31L44,25a2.85,2.85,0,0,1-.22-.38,2.4,2.4,0,0,1-.19-.4l-.15-.41c-.05-.14-.08-.28-.12-.42L43.2,23a.07.07,0,0,1,0-.08,6.07,6.07,0,0,1,.54-.31,5.5,5.5,0,0,1,.57-.25,3.9,3.9,0,0,1,.6-.17,3.07,3.07,0,0,1,.62-.06,2.09,2.09,0,0,1,.31,0,2.15,2.15,0,0,1,.3.06,2.88,2.88,0,0,1,.3.1l.28.14.25.19c.07.07.15.15.21.23s.12.17.18.25Zm0,0-.15-.27c-.05-.09-.12-.17-.18-.25s-.14-.15-.21-.22l-.25-.18-.28-.14a2.29,2.29,0,0,0-.29-.09,1.84,1.84,0,0,0-.3,0,2.53,2.53,0,0,0-.31,0,2.92,2.92,0,0,0-.6.09,3.66,3.66,0,0,0-.58.19,4.84,4.84,0,0,0-.55.27,5.54,5.54,0,0,0-.52.33l0-.08.12.41c0,.14.07.28.12.41l.16.39a2.26,2.26,0,0,0,.18.38,3.28,3.28,0,0,0,.21.37l.25.34.3.29.34.24c.13.05.25.11.38.16a2.08,2.08,0,0,0,.41.07,1.77,1.77,0,0,0,.42,0,1.72,1.72,0,0,0,.41-.09,2.83,2.83,0,0,0,.39-.16,3.29,3.29,0,0,0,.36-.23,2,2,0,0,0,.32-.29A2,2,0,0,0,48,24.9h0l-.07-.4,0-.2a1.22,1.22,0,0,0-.05-.2l-.06-.2a1.63,1.63,0,0,0-.07-.19A3.22,3.22,0,0,0,47.54,23.36Z"/><path class="cls-31" d="M44.89,24.15c.17,1,.93,1.8,1.68,1.68s1.23-1,1.06-2.09-.93-1.8-1.68-1.68S44.72,23.1,44.89,24.15Z"/><path class="cls-32" d="M44.89,24.15c.17,1,.93,1.8,1.68,1.68s1.23-1,1.06-2.09-.93-1.8-1.68-1.68S44.72,23.1,44.89,24.15Z"/><path class="cls-33" d="M45.23,24.17c.13.8.71,1.37,1.29,1.29s.94-.8.81-1.6-.7-1.37-1.28-1.29S45.09,23.37,45.23,24.17Z"/><g class="cls-16"><path class="cls-34" d="M45.39,24.06c.1.63.56,1.08,1,1s.74-.63.64-1.26-.56-1.08-1-1S45.28,23.44,45.39,24.06Z"/></g><g class="cls-16"><path class="cls-32" d="M47.56,23.44a2.72,2.72,0,0,1,.07.3c.17,1-.3,2-1.06,2.09s-1.51-.64-1.68-1.68c0-.1,0-.19,0-.29A2.16,2.16,0,0,0,47.56,23.44Z"/></g><path class="cls-29" d="M46.39,23.45c.08.32.34.53.57.47a.53.53,0,0,0,.27-.68c-.08-.32-.34-.53-.57-.47A.53.53,0,0,0,46.39,23.45Z"/><ellipse class="cls-29" cx="47.01" cy="24.37" rx="0.2" ry="0.28" transform="translate(-4.53 12.23) rotate(-14.14)"/><path class="cls-35" d="M47.8,24s-1-2.43-3.15-1.32c-1.48.83-1.92.12-2.11-.25.86.55,1,.32,1.71-.67S47.11,20.38,47.8,24Z"/><g class="cls-16"><path class="cls-36" d="M43.28,23c1,4.38,4,3.27,4.73,1.95a5,5,0,0,0-.12-.68C45.4,26.76,43.28,23,43.28,23Z"/></g><path class="cls-29" d="M54.74,23.18a3.26,3.26,0,0,0,3.44.08c2.16-1,1.14-4.66,1.14-4.66S54.5,17.91,54.74,23.18Z"/><path class="cls-30" d="M54.74,23.18a2.57,2.57,0,0,0,1,.41,2.73,2.73,0,0,0,.54.06,3.33,3.33,0,0,0,.54,0,4.22,4.22,0,0,0,.53-.11,4.79,4.79,0,0,0,.51-.18l.25-.11a2.62,2.62,0,0,0,.23-.13,1.9,1.9,0,0,0,.41-.33,1.68,1.68,0,0,0,.16-.21,1.14,1.14,0,0,0,.14-.22l.12-.24.09-.25a3.41,3.41,0,0,0,.13-.52,5.1,5.1,0,0,0,.05-.54c0-.18,0-.36,0-.54s0-.36,0-.54a8.41,8.41,0,0,0-.19-1.07l.07.07a4.63,4.63,0,0,0-.92,0c-.16,0-.31,0-.46,0s-.3.07-.45.1-.29.1-.44.14-.28.13-.42.2a4.16,4.16,0,0,0-.39.25,2.68,2.68,0,0,0-.35.3,1.89,1.89,0,0,0-.3.35l-.14.18c0,.06-.07.14-.11.2s-.15.27-.21.42l-.14.44a2.27,2.27,0,0,0-.1.46l-.08.47C54.75,22.55,54.75,22.87,54.74,23.18Zm0,0c0-.32,0-.63,0-.95l.06-.47a2.17,2.17,0,0,1,.08-.47l.13-.46c.05-.15.13-.29.2-.44a2.19,2.19,0,0,1,.11-.21l.14-.2a2.21,2.21,0,0,1,.31-.37,2.94,2.94,0,0,1,.36-.32c.14-.09.26-.2.4-.27s.29-.15.44-.21.3-.11.46-.15.31-.08.47-.1a4.24,4.24,0,0,1,.48-.06,5,5,0,0,1,1,0,.09.09,0,0,1,.07.06,7.37,7.37,0,0,1,.2,1.1c0,.18,0,.37,0,.55a5.7,5.7,0,0,1-.07,1.11,3.72,3.72,0,0,1-.14.54l-.1.26-.13.25a1.19,1.19,0,0,1-.15.24,2.14,2.14,0,0,1-.18.22,2,2,0,0,1-.45.34c-.09,0-.15.09-.25.14l-.26.1c-.17.07-.35.12-.53.17a4.47,4.47,0,0,1-.55.1,3.05,3.05,0,0,1-.55,0,2.78,2.78,0,0,1-.55-.08A2.64,2.64,0,0,1,54.74,23.18Z"/><path class="cls-31" d="M55.72,21.14c0,1.27.81,2.29,1.73,2.28s1.64-1.05,1.6-2.32-.81-2.29-1.73-2.28S55.68,19.87,55.72,21.14Z"/><path class="cls-32" d="M55.72,21.14c0,1.27.81,2.29,1.73,2.28s1.64-1.05,1.6-2.32-.81-2.29-1.73-2.28S55.68,19.87,55.72,21.14Z"/><path class="cls-33" d="M56.12,21.21c0,1,.62,1.75,1.32,1.74s1.25-.8,1.22-1.77-.62-1.74-1.32-1.74S56.09,20.25,56.12,21.21Z"/><g class="cls-16"><path class="cls-34" d="M56.33,21.12c0,.77.49,1.38,1,1.37s1-.63,1-1.4-.49-1.38-1-1.37S56.3,20.36,56.33,21.12Z"/></g><g class="cls-16"><path class="cls-32" d="M59,20.73a3.52,3.52,0,0,1,0,.37c0,1.27-.68,2.31-1.6,2.32s-1.69-1-1.73-2.28c0-.12,0-.23,0-.34A2.59,2.59,0,0,0,59,20.73Z"/></g><path class="cls-29" d="M57.62,20.56c0,.39.32.69.6.66s.48-.37.43-.77-.32-.69-.6-.65S57.56,20.16,57.62,20.56Z"/><ellipse class="cls-29" cx="58.21" cy="21.75" rx="0.25" ry="0.34" transform="translate(-2.13 6.91) rotate(-6.67)"/><path class="cls-35" d="M54.75,23.24s-.12-4.17,3.08-4.15c1.39,0,2.55-.67,2.27-2.94a2.26,2.26,0,0,1-2.47,1.68C55.68,17.55,53.38,18.92,54.75,23.24Z"/><g class="cls-16"><path class="cls-36" d="M59.32,18.61h0c-.56,3.9-3.41,4.37-4.58,4.4,0,.06,0,.12,0,.18a3.26,3.26,0,0,0,3.44.08C60.34,22.27,59.32,18.61,59.32,18.61Z"/></g><path class="cls-37" d="M54.62,21.89s-.11-3.45,2.82-3.88C55.81,17.76,54.08,18.84,54.62,21.89Z"/><path class="cls-15" d="M70.11,51.33a30.27,30.27,0,0,1-4.57,3.88,4.81,4.81,0,0,0,.37-.6c0-.09,0-.09-.09,0a5.47,5.47,0,0,1-.71.93l-.09.06a.06.06,0,0,0,0,0,3.75,3.75,0,0,1-.67.52,4.79,4.79,0,0,1-1.12.66,8.67,8.67,0,0,0-3.79-4.32c-.88-.53-1.78-1-2.64-1.61-1.4-.94-1.45-2.28-1.09-3.77a4.44,4.44,0,0,0,.22-.68c0-.1-.08,0-.11,0-.14.37-.28.74-.44,1.1a3.48,3.48,0,0,1-.49.78,4.67,4.67,0,0,1-.36.44A5.76,5.76,0,0,1,55,45l.14-.17s0-.13,0-.1l0,0s0,0,0,0l-.08.15a8.62,8.62,0,0,0-1.15,1.58c0-1.37.21-3.31,1.65-4,0,0,.07-.11,0-.1-.58.14-1.06.91-1.3,1.41a5,5,0,0,0-.48,2.85c0,.08.12,0,.12-.08v-.08c.32-.37.61-.78.92-1.17a4.35,4.35,0,0,0-.37,3.61s.07,0,.1-.06a3.37,3.37,0,0,0,.81-1,3.46,3.46,0,0,0,.19-.34,3.59,3.59,0,0,0,0,2.25c.34.92,1.46,1.51,2.22,2a21.89,21.89,0,0,1,3.07,2A10.75,10.75,0,0,1,63,56.85s0,0,0,.05h0l0,.06s.08,0,.11-.06a1.61,1.61,0,0,0,.38-.19c.37-.2.73-.41,1.08-.64a3.16,3.16,0,0,0,.7-.64,14.58,14.58,0,0,0,2.29-1.64,20.1,20.1,0,0,0,2.53-2.37C70.24,51.36,70.21,51.22,70.11,51.33Z"/><path class="cls-15" d="M54.87,69.5a6.49,6.49,0,0,1-3.38,1.63,9.8,9.8,0,0,0-3.4.83s0,.07,0,.06a18,18,0,0,1,4-.8,5.62,5.62,0,0,0,2.78-1.57C55,69.59,55,69.42,54.87,69.5Z"/><path class="cls-7" d="M31.67,64.43a11.26,11.26,0,0,1-3.25,1.63,18.84,18.84,0,0,0-2.19,5.77C27.07,71.75,29.12,70.07,31.67,64.43Z"/><path class="cls-8" d="M26.24,71.94l-.07,0a.1.1,0,0,1,0-.07A18.62,18.62,0,0,1,28.34,66a.09.09,0,0,1,.05,0,11.34,11.34,0,0,0,3.23-1.62.1.1,0,0,1,.11,0,.09.09,0,0,1,0,.11c-2.42,5.33-4.48,7.35-5.52,7.46Zm2.25-5.79a19.41,19.41,0,0,0-2.14,5.58c.85-.22,2.74-1.9,5.11-7A11.34,11.34,0,0,1,28.49,66.15Z"/><path class="cls-7" d="M25.49,70.51a25.43,25.43,0,0,0,2.44-4.32,4.43,4.43,0,0,1-.71.12A14.16,14.16,0,0,1,28.83,63a11.82,11.82,0,0,1-4.2,3.41,18.65,18.65,0,0,0-1.75,6.38l.23-.09A7.34,7.34,0,0,0,25.49,70.51Z"/><path class="cls-8" d="M22.88,72.86l-.06,0a.1.1,0,0,1,0-.08c.13-1.43.79-4.9,1.77-6.42l0,0a11.78,11.78,0,0,0,4.16-3.39.1.1,0,0,1,.12,0,.09.09,0,0,1,0,.12,18,18,0,0,0-1.56,3.19,5,5,0,0,0,.56-.1.09.09,0,0,1,.09,0,.09.09,0,0,1,0,.1,25.51,25.51,0,0,1-2.45,4.33,7.46,7.46,0,0,1-2.41,2.19l-.24.1Zm1.81-6.4A18.51,18.51,0,0,0,23,72.63l.08,0a7.27,7.27,0,0,0,2.35-2.13,25.13,25.13,0,0,0,2.35-4.13,3.62,3.62,0,0,1-.54.08.09.09,0,0,1-.07,0,.09.09,0,0,1,0-.08,11.6,11.6,0,0,1,1.22-2.66A10.92,10.92,0,0,1,24.7,66.46Z"/><path class="cls-7" d="M33.2,65.77a5.81,5.81,0,0,1-1.67.3,14.83,14.83,0,0,0,2.68-3.88,16,16,0,0,1-2.53,2.23c-2.55,5.64-4.61,7.32-5.44,7.41a18.84,18.84,0,0,1,2.19-5.77l-.49.13a25.43,25.43,0,0,1-2.44,4.32,7.34,7.34,0,0,1-2.39,2.16,2.94,2.94,0,0,0,.38-.18s-1.81,3.66-1.21,5.66c2.36-1.16,4.45-6.35,4.45-6.35a8.5,8.5,0,0,0,2.5-2.55A20.34,20.34,0,0,1,28,71.8l.6-.27A12.55,12.55,0,0,0,33.2,65.77Z"/><path class="cls-8" d="M22.28,78.24h0a.09.09,0,0,1-.05-.06c-.52-1.73.7-4.61,1.09-5.47l-.14.06a.09.09,0,0,1-.12,0,.09.09,0,0,1,0-.12,7.24,7.24,0,0,0,2.35-2.13,25.46,25.46,0,0,0,2.43-4.3.1.1,0,0,1,.06-.05l.48-.13a.09.09,0,0,1,.1,0,.09.09,0,0,1,0,.1,19.52,19.52,0,0,0-2.16,5.61c.86-.22,2.82-2,5.25-7.33l0,0a16.17,16.17,0,0,0,2.52-2.22.09.09,0,0,1,.12,0,.09.09,0,0,1,0,.12A17.7,17.7,0,0,1,31.79,66a6.17,6.17,0,0,0,1.38-.29.09.09,0,0,1,.11.13,12.7,12.7,0,0,1-4.61,5.8l-.61.27a.09.09,0,0,1-.11,0,.09.09,0,0,1,0-.11s.49-.85.91-1.82a8.18,8.18,0,0,1-2.05,1.93c-.19.46-2.18,5.24-4.48,6.37Zm1.3-5.73v0S21.85,76.05,22.34,78c2.12-1.15,4-5.57,4.28-6.18a1.31,1.31,0,0,1-.37.11.1.1,0,0,1-.07,0,.1.1,0,0,1,0-.07,18.06,18.06,0,0,1,2.09-5.61l-.24.06a25.81,25.81,0,0,1-2.43,4.29A7.84,7.84,0,0,1,23.58,72.5Zm5.66-3.35h0a.09.09,0,0,1,0,.11,19.22,19.22,0,0,1-1.08,2.32l.35-.15A12.42,12.42,0,0,0,33,65.92a5.53,5.53,0,0,1-1.5.25h0a.09.09,0,0,1-.09-.06.09.09,0,0,1,0-.1,13.05,13.05,0,0,0,2.31-3.23,16.11,16.11,0,0,1-2,1.73,31.82,31.82,0,0,1-2.53,4.66Z"/><path class="cls-7" d="M36.31,66.66l0,0c.5-.67,1.11-1.25,1.68-2l.21-.1h0a10.62,10.62,0,0,1-1.64.53s.74-1.18,1.78-2.65a12.8,12.8,0,0,1-5.14,3.35A15.1,15.1,0,0,1,31,69.34a9.36,9.36,0,0,1-.8,1.74A24.42,24.42,0,0,0,36.31,66.66Z"/><path class="cls-8" d="M30.25,71.17a.09.09,0,0,1-.07,0,.09.09,0,0,1,0-.11A9,9,0,0,0,31,69.31l0,0a15,15,0,0,0,2.14-3.54.09.09,0,0,1,.06-.05,12.75,12.75,0,0,0,5.1-3.32.09.09,0,0,1,.13,0,.09.09,0,0,1,0,.12c-.78,1.11-1.4,2.06-1.65,2.46a11.43,11.43,0,0,0,1.4-.47h.08a.1.1,0,0,1,.08.08.09.09,0,0,1,0,.1l-.19.09c-.28.36-.56.68-.84,1s-.57.64-.82,1l0,0a21.76,21.76,0,0,1-5.13,3.88l-.94.56Zm.88-1.79a10.58,10.58,0,0,1-.62,1.44l.64-.37a21.54,21.54,0,0,0,5.1-3.85l0,0c.26-.34.54-.65.83-1s.46-.51.68-.79a10,10,0,0,1-1.21.36.09.09,0,0,1-.1,0,.09.09,0,0,1,0-.1s.49-.78,1.22-1.85a12.74,12.74,0,0,1-4.43,2.67A15.25,15.25,0,0,1,31.13,69.38Z"/><path class="cls-7" d="M30.25,71.08a9.36,9.36,0,0,0,.8-1.74,10.37,10.37,0,0,1-2.43,2.19l.24-.1a25.22,25.22,0,0,0-2.78,5.37s.14.19,2.55-2.27A30.25,30.25,0,0,0,32.16,70C31.55,70.33,30.94,70.67,30.25,71.08Z"/><path class="cls-8" d="M26.09,76.9a.13.13,0,0,1-.09,0,.09.09,0,0,1,0-.09,26.84,26.84,0,0,1,2.61-5.15.08.08,0,0,1-.06,0,.09.09,0,0,1,0-.12A10.36,10.36,0,0,0,31,69.28a.09.09,0,0,1,.12,0,.09.09,0,0,1,0,.11,10.89,10.89,0,0,1-.63,1.45l.63-.37,1-.57a.1.1,0,0,1,.11,0,.09.09,0,0,1,0,.11,30.19,30.19,0,0,1-3.54,4.59A13,13,0,0,1,26.09,76.9ZM29,71.42a.1.1,0,0,1,0,.06,24,24,0,0,0-2.69,5.14,20.27,20.27,0,0,0,2.31-2.16,31.82,31.82,0,0,0,3.33-4.24l-.66.39-.94.55a.09.09,0,0,1-.11,0,.09.09,0,0,1,0-.11,7.83,7.83,0,0,0,.61-1.24A10.5,10.5,0,0,1,29,71.42Z"/><path class="cls-38" d="M30.25,71.08a9.36,9.36,0,0,0,.8-1.74,10.37,10.37,0,0,1-2.43,2.19l.24-.1a9.94,9.94,0,0,0-.6.87,11.26,11.26,0,0,1,1-.73c.1-.06.14,0,.13.12-.18,1.2-1.25,2.22-1.89,3.2a17.23,17.23,0,0,1-1.45,1.91s.28,0,2.55-2.27A30.25,30.25,0,0,0,32.16,70C31.55,70.33,30.94,70.67,30.25,71.08Z"/><path class="cls-3" d="M51.27,44.28c-1.05-4.11-3.68-5.5-6.17-3.87a5.73,5.73,0,0,0-1.17-3.16h0c-1.16-.81-4.4.19-8,3.1s-6.28,5.75-7,10.69c0,.32-.2,2.19.47,2.94S33.67,52.5,36.16,48a37.48,37.48,0,0,1-1.47,4.27A5.75,5.75,0,0,0,40.3,49.7c-.74,2.06-.6,2.6-.38,2.66a7.07,7.07,0,0,0,4.25-1.73c-1,2-1.07,2.5-.88,2.61a4.78,4.78,0,0,0,4.08-1.93c.14.2,1-.52,1.58-2.05-.12.85.26.66.65,1.24a4.06,4.06,0,0,1,.81,3C52.37,51.69,52.32,48.4,51.27,44.28Z"/><path class="cls-4" d="M29.83,54.24a.65.65,0,0,1-.51-.2c-.7-.78-.54-2.64-.5-3,.72-4.78,3.24-7.66,7.06-10.75,2.58-2.09,5.26-3.39,7-3.39a2,2,0,0,1,1.09.27l0,0a5.75,5.75,0,0,1,1.18,3.06,3.74,3.74,0,0,1,2-.6c1.91,0,3.49,1.72,4.22,4.61,1.2,4.69.92,7.65-.89,9.32a.09.09,0,0,1-.1,0,.09.09,0,0,1-.05-.09,4,4,0,0,0-.78-2.94,1.63,1.63,0,0,0-.37-.39.7.7,0,0,1-.31-.44c-.52,1.11-1.14,1.71-1.41,1.71h0a5.11,5.11,0,0,1-3.82,1.93.86.86,0,0,1-.34,0c-.22-.13-.29-.51.64-2.34A7.46,7.46,0,0,1,40,52.46h-.13a.26.26,0,0,1-.17-.14c-.15-.29-.05-1,.3-2.08a5.83,5.83,0,0,1-4.59,2.22,4.38,4.38,0,0,1-.76-.06.09.09,0,0,1-.07-.06.09.09,0,0,1,0-.09,35.93,35.93,0,0,0,1.19-3.43,17.7,17.7,0,0,1-3.1,3.8A5.42,5.42,0,0,1,29.83,54.24Zm13-17.16c-1.69,0-4.32,1.28-6.87,3.35-3.79,3.07-6.28,5.92-7,10.63,0,.21-.21,2.13.45,2.86a.48.48,0,0,0,.37.13c1.17,0,4.07-2.16,6.25-6.07a.09.09,0,0,1,.12,0,.09.09,0,0,1,.05.11c-.95,2.94-1.3,3.87-1.42,4.17a4.41,4.41,0,0,0,.61,0,5.7,5.7,0,0,0,4.79-2.61.09.09,0,0,1,.16.09c-.67,1.85-.57,2.35-.5,2.48s0,.05.05.05H40a7.3,7.3,0,0,0,4.08-1.71.09.09,0,0,1,.12,0,.09.09,0,0,1,0,.12c-1.13,2.14-1,2.44-.91,2.48a.8.8,0,0,0,.24,0,5,5,0,0,0,3.72-1.92.09.09,0,0,1,.07,0h0a.09.09,0,0,1,.07,0c.16,0,.85-.63,1.42-2a.09.09,0,0,1,.18,0c-.08.51,0,.59.23.75a1.82,1.82,0,0,1,.4.43,4.12,4.12,0,0,1,.84,2.82c1.59-1.65,1.8-4.51.66-9-.71-2.8-2.23-4.47-4-4.47a3.64,3.64,0,0,0-2,.65.08.08,0,0,1-.09,0,.09.09,0,0,1-.05-.07,5.8,5.8,0,0,0-1.13-3.08h0A1.75,1.75,0,0,0,42.87,37.08Z"/><path class="cls-10" d="M24.53,66.43l.11,0v0Z"/><path class="cls-10" d="M24.53,66.43l-.28.08A1.35,1.35,0,0,0,24.53,66.43Z"/><path class="cls-6" d="M39.22,60a14.42,14.42,0,0,0,1-2c-2.41,2.8-4.57,2.6-4.75,2.53s-.07-.79.46-2.41c-2.16,2.43-4.52,2.78-5.1,2.48s-.44-1.07.46-3.06a12.78,12.78,0,0,1-3.86,2.89,19.7,19.7,0,0,1-.77-2.64c-3.52,4.91-2.78,8.76-2.78,8.76a.9.9,0,0,0,.35,0l.28-.08.11-.06v0A11.82,11.82,0,0,0,28.83,63a14.16,14.16,0,0,0-1.6,3.34s3.3-.16,7-4.11a14.83,14.83,0,0,1-2.68,3.88c1.81,0,4.66-1.38,6.81-3.65-1,1.47-1.78,2.65-1.78,2.65a10.62,10.62,0,0,0,1.64-.53h0c4.24-1.92,7.2-3.63,7.11-6.12A12.52,12.52,0,0,1,39.22,60Z"/><path class="cls-39" d="M24.07,66.62a.75.75,0,0,1-.19,0,.09.09,0,0,1-.07-.07s-.71-3.94,2.8-8.83a.1.1,0,0,1,.09,0,.09.09,0,0,1,.07.07,22.09,22.09,0,0,0,.73,2.53,12.49,12.49,0,0,0,3.75-2.82.09.09,0,0,1,.12,0,.1.1,0,0,1,0,.12c-.89,2-1,2.67-.5,2.94a1.09,1.09,0,0,0,.47.08A6.74,6.74,0,0,0,35.88,58,.1.1,0,0,1,36,58a.09.09,0,0,1,0,.11c-.67,2-.55,2.27-.52,2.3a1.3,1.3,0,0,0,.3,0c.51,0,2.33-.18,4.35-2.53a.09.09,0,0,1,.12,0,.09.09,0,0,1,0,.11,16.16,16.16,0,0,1-.94,1.91,12.34,12.34,0,0,0,5.91-1.55.1.1,0,0,1,.09,0,.1.1,0,0,1,0,.08c.09,2.44-2.56,4.12-7.16,6.21H38.2a10.44,10.44,0,0,1-1.62.52.09.09,0,0,1-.1,0,.09.09,0,0,1,0-.1s.49-.78,1.22-1.85a10.62,10.62,0,0,1-6.17,3h0a.09.09,0,0,1-.09-.06.09.09,0,0,1,0-.1,13.05,13.05,0,0,0,2.31-3.23,13.84,13.84,0,0,1-4.41,3.06,6.91,6.91,0,0,1-2.14.58.09.09,0,0,1-.07,0,.09.09,0,0,1,0-.08,11.6,11.6,0,0,1,1.22-2.66,10.82,10.82,0,0,1-3.68,2.84h0l-.07,0-.29.09ZM24,66.43a.89.89,0,0,0,.25,0l.26-.08.1,0h.06a12,12,0,0,0,4.11-3.37.1.1,0,0,1,.12,0,.09.09,0,0,1,0,.12,17.86,17.86,0,0,0-1.56,3.19c.64-.08,3.59-.63,6.79-4.07a.09.09,0,0,1,.12,0,.09.09,0,0,1,0,.12A17.7,17.7,0,0,1,31.79,66a11.33,11.33,0,0,0,6.48-3.61.09.09,0,0,1,.13,0,.09.09,0,0,1,0,.12c-.78,1.11-1.4,2.06-1.65,2.46a11.43,11.43,0,0,0,1.4-.47h.07c4.41-2,7-3.62,7-5.87a12.69,12.69,0,0,1-5.84,1.5h-.2a.1.1,0,0,1-.08-.05.09.09,0,0,1,0-.09,14.07,14.07,0,0,0,.78-1.5c-1.85,1.94-3.47,2.17-4.11,2.17a1.17,1.17,0,0,1-.36,0c-.17-.06-.3-.29.28-2.13a6.66,6.66,0,0,1-4.37,2.29,1.28,1.28,0,0,1-.56-.1c-.63-.33-.47-1.12.17-2.62a15.12,15.12,0,0,1-3.48,2.45h-.07a.09.09,0,0,1-.05,0A17,17,0,0,1,26.64,58C23.55,62.38,23.91,65.92,24,66.43Z"/><path class="cls-5" d="M49,49.26c-.62,1.53-1.44,2.25-1.58,2.05a4.78,4.78,0,0,1-4.08,1.93c-.19-.11-.16-.63.88-2.61a7.07,7.07,0,0,1-4.25,1.73c-.22-.06-.36-.6.38-2.66a5.75,5.75,0,0,1-5.61,2.59A37.48,37.48,0,0,0,36.16,48c-2.5,4.47-6,6.77-6.77,5.95s-.51-2.61-.47-2.94v0c-3.2,3.57-2.22,6.68-2.22,6.68a19.7,19.7,0,0,0,.77,2.64,12.78,12.78,0,0,0,3.86-2.89c-.9,2-1,2.76-.46,3.06s2.94,0,5.1-2.48c-.53,1.62-.65,2.34-.46,2.41s2.34.28,4.75-2.53a14.42,14.42,0,0,1-1,2,12.52,12.52,0,0,0,6.12-1.56c6-3.64,4.26-7.94,4.26-7.94h0C49.21,49.92,48.83,50.11,49,49.26Z"/><path class="cls-15" d="M31.37,60.74a1.28,1.28,0,0,1-.56-.1c-.63-.33-.47-1.12.17-2.62a15.12,15.12,0,0,1-3.48,2.45h-.07a.09.09,0,0,1-.05,0,19.52,19.52,0,0,1-.78-2.66s-.95-3.18,2.24-6.75a.1.1,0,0,1,.09-.05s.09,0,.08.09c0,.22-.21,2.13.45,2.86a.48.48,0,0,0,.37.13h0c1.17,0,4.07-2.16,6.25-6.07a.09.09,0,0,1,.12,0,.09.09,0,0,1,.05.11c-.95,2.94-1.3,3.87-1.42,4.17a4.41,4.41,0,0,0,.61,0,5.7,5.7,0,0,0,4.79-2.61.09.09,0,0,1,.16.09c-.67,1.85-.57,2.35-.5,2.48s0,.05.05.05H40a7.3,7.3,0,0,0,4.08-1.71.09.09,0,0,1,.12,0,.09.09,0,0,1,0,.12c-1.13,2.14-1,2.44-.91,2.48a.8.8,0,0,0,.24,0,5,5,0,0,0,3.72-1.92.09.09,0,0,1,.07,0h0a.09.09,0,0,1,.07,0c.16,0,.85-.63,1.42-2a.09.09,0,0,1,.18,0c-.08.51,0,.59.23.75a1.82,1.82,0,0,1,.4.43.07.07,0,0,1,0,0c.15.43,1.38,4.56-4.31,8a12.68,12.68,0,0,1-6,1.58h-.2a.1.1,0,0,1-.08-.05.09.09,0,0,1,0-.09,14.07,14.07,0,0,0,.78-1.5c-1.85,1.95-3.47,2.17-4.11,2.17a1.17,1.17,0,0,1-.36,0c-.17-.06-.3-.29.28-2.13A6.66,6.66,0,0,1,31.37,60.74Zm-.05-3.34h0a.1.1,0,0,1,0,.12c-.89,2-1,2.67-.5,2.94a1.09,1.09,0,0,0,.47.08A6.74,6.74,0,0,0,35.88,58,.1.1,0,0,1,36,58a.09.09,0,0,1,0,.11c-.67,2-.55,2.27-.52,2.3a1.3,1.3,0,0,0,.3,0c.51,0,2.33-.18,4.35-2.53a.09.09,0,0,1,.12,0,.09.09,0,0,1,0,.11,16.16,16.16,0,0,1-.94,1.91,12.34,12.34,0,0,0,5.91-1.55c5.76-3.5,4.28-7.67,4.22-7.82a1.62,1.62,0,0,0-.35-.36.7.7,0,0,1-.31-.44c-.52,1.11-1.14,1.71-1.41,1.71h0a5.11,5.11,0,0,1-3.82,1.93.86.86,0,0,1-.34,0c-.22-.13-.29-.51.64-2.34A7.46,7.46,0,0,1,40,52.46h-.13a.26.26,0,0,1-.17-.14c-.15-.29-.05-1,.3-2.08a5.83,5.83,0,0,1-4.59,2.22,4.38,4.38,0,0,1-.76-.06.09.09,0,0,1-.07-.06.09.09,0,0,1,0-.09,35.93,35.93,0,0,0,1.19-3.43,17.7,17.7,0,0,1-3.1,3.8,5.43,5.43,0,0,1-2.88,1.63h0a.65.65,0,0,1-.51-.2,4.2,4.2,0,0,1-.52-2.7c-2.91,3.4-2,6.35-2,6.38a21.93,21.93,0,0,0,.73,2.54,12.49,12.49,0,0,0,3.75-2.82A.09.09,0,0,1,31.32,57.4Z"/><path class="cls-37" d="M44.54,21.85s1.48-1.06,2.66.83C46.89,21.28,45.43,20.63,44.54,21.85Z"/><path class="cls-5" d="M54.54,29.5a4,4,0,0,0,2-2.2v0c-.5-1.14-1.42-1.5-2.86-2.93C51.94,22.6,51,22.9,49.6,23.7s-3,.83-3.65,4a10.19,10.19,0,0,0,1.11,6.21s.32-3.25,3.14-3.82l0,0,.08,0C51,30,53.08,30.33,54.54,29.5Z"/><path class="cls-15" d="M47.06,34A.1.1,0,0,1,47,34a10.38,10.38,0,0,1-1.12-6.28c.51-2.63,1.66-3.14,2.88-3.69.27-.12.55-.24.82-.39A4,4,0,0,1,51.4,23a3.53,3.53,0,0,1,2.37,1.32c.51.51,1,.88,1.35,1.21a4.69,4.69,0,0,1,1.53,1.75v0a.12.12,0,0,1,0,.05,4.09,4.09,0,0,1-2.07,2.25,7,7,0,0,1-3.5.6h-.33l-.47,0h-.14c-2.65.6-3,3.69-3,3.72a.1.1,0,0,1-.07.08ZM51.4,23.15a3.85,3.85,0,0,0-1.75.63c-.27.15-.56.28-.83.4-1.17.52-2.28,1-2.77,3.55a10,10,0,0,0,1,5.9c.16-.82.81-3.14,3.17-3.62h.07a3.84,3.84,0,0,1,.5,0h.76a6.06,6.06,0,0,0,3-.58,4,4,0,0,0,2-2.11A4.56,4.56,0,0,0,55,25.64c-.4-.33-.84-.7-1.36-1.22A3.38,3.38,0,0,0,51.4,23.15Z"/><path class="cls-40" d="M47,27.23a8.94,8.94,0,0,1,3.45-4,8,8,0,0,0-.87.43c-1.45.8-3,.83-3.65,4a9.91,9.91,0,0,0,.89,5.78A10.42,10.42,0,0,1,47,27.23Z"/><path class="cls-5" d="M56.56,27.3A3.66,3.66,0,0,1,55,29.2c-.89,3-6.52,5.83-6.52,5.83a28.58,28.58,0,0,0,5.14-1.82A5.08,5.08,0,0,0,56.56,27.3Z"/><path class="cls-15" d="M48.49,35.13a.09.09,0,0,1-.09-.06.1.1,0,0,1,0-.11c.06,0,5.61-2.86,6.48-5.77a.09.09,0,0,1,0-.05,3.56,3.56,0,0,0,1.52-1.85.09.09,0,0,1,.09-.07.09.09,0,0,1,.09.07,5.15,5.15,0,0,1-3,6,29.1,29.1,0,0,1-5.16,1.83Zm6.6-5.86c-.74,2.38-4.34,4.62-5.88,5.48a29.54,29.54,0,0,0,4.38-1.62,5,5,0,0,0,3-5.52A4,4,0,0,1,55.09,29.26Z"/><path class="cls-5" d="M51.85,30.09c-.67,0-1.26,0-1.59,0l-.08,0C48.52,31.71,48.49,35,48.49,35s.75-.38,1.74-1A6.52,6.52,0,0,1,51.85,30.09Z"/><path class="cls-15" d="M48.49,35.13h0a.09.09,0,0,1,0-.08c0-.14.06-3.38,1.72-5l0,0h.09a3.88,3.88,0,0,1,.5,0h1.1a.12.12,0,0,1,.09.05.09.09,0,0,1,0,.1A6.47,6.47,0,0,0,50.32,34a.1.1,0,0,1,0,.08c-1,.62-1.74,1-1.75,1Zm1.74-4.91c-1.39,1.35-1.61,4-1.64,4.66.26-.14.84-.45,1.55-.9a6.57,6.57,0,0,1,1.52-3.79h-.9l-.47,0h-.05Z"/><path class="cls-3" d="M55,29.2c-.15.1-.3.2-.47.3a5.73,5.73,0,0,1-2.69.59A6.52,6.52,0,0,0,50.23,34C52,32.94,54.44,31.1,55,29.2Z"/><path class="cls-41" d="M54.54,29.5a5.73,5.73,0,0,1-2.69.59l-.13.16a1.19,1.19,0,0,1,.88,0,.7.7,0,0,1,.27,1A6.53,6.53,0,0,1,51.11,33l-.87.72c0,.09,0,.19,0,.28C52,32.94,54.44,31.1,55,29.2,54.86,29.31,54.7,29.41,54.54,29.5Z"/><g class="cls-16"><path class="cls-42" d="M56.56,27.28c-.5-1.14-1.42-1.5-2.86-2.93C51.94,22.6,51,22.9,49.6,23.7c2.13-1.15,3.15.09,4.13,1.59s.4,3.42-3.75,3.28c-3.13-.11-3.19,3.41-3,5.14l.12.23s.32-3.25,3.14-3.82l0,0,.08,0c.75-.1,2.82.23,4.28-.61a4,4,0,0,0,2-2.2Z"/></g><path class="cls-29" d="M48,24.56s0,0,0,0A4.32,4.32,0,0,0,46.17,27a8.71,8.71,0,0,0,.1,4.62c0,.06.1,0,.09-.08A15,15,0,0,1,46,28.25,4.68,4.68,0,0,1,48,24.56Z"/><g class="cls-16"><path class="cls-42" d="M50.26,30.11l-.08,0a3.91,3.91,0,0,0-.63.8,2.22,2.22,0,0,1,.95-.47c.57,0-.55,1.43-.76,2.58a2.1,2.1,0,0,1-1.23,1.56c0,.27,0,.44,0,.44s.75-.38,1.74-1a6.52,6.52,0,0,1,1.62-3.94C51.18,30.1,50.59,30.07,50.26,30.11Z"/></g><g class="cls-16"><path class="cls-42" d="M56.56,27.3A3.66,3.66,0,0,1,55,29.2a4.78,4.78,0,0,1-.83,1.52,4.76,4.76,0,0,0,1.2-1.07c1.13-1.43,1.06,3.24-5.25,4.44-.94.59-1.64.94-1.64.94a28.58,28.58,0,0,0,5.14-1.82A5.08,5.08,0,0,0,56.56,27.3Z"/></g><path class="cls-40" d="M51,33.7a18.61,18.61,0,0,0,3.71-3.31C55.28,29.69,54.6,32.65,51,33.7Z"/><path class="cls-25" d="M59.3,23.58l-.16.16-.18.18a2,2,0,0,1-.27.2l-.16.11-.19.09a1.63,1.63,0,0,1-.42.14l-.23.05h-.25a2.77,2.77,0,0,1-.49,0,3.35,3.35,0,0,1-.92-.3,4.39,4.39,0,0,1-.71-.44,3.89,3.89,0,0,1-.59-.55l.17.14c.11.09.28.2.48.33a5.49,5.49,0,0,0,.72.38,4.27,4.27,0,0,0,.43.16,3.73,3.73,0,0,0,.45.11,2.42,2.42,0,0,0,.46,0h.23l.22,0a1.77,1.77,0,0,0,.41-.11l.19-.07.16-.09a2.74,2.74,0,0,0,.28-.16l.2-.15Z"/><g class="cls-16"><path class="cls-21" d="M71.6,49.22c.29-1.35,0-3-1.32-5.11a9.18,9.18,0,0,1,1,3.1A3.34,3.34,0,0,0,68,45.6s3.93,3.93-.75,7.49a4.42,4.42,0,0,0,.38-3.29,7,7,0,0,1-3.5,5.39c.22-2-2.26-3.23-4.63-4.47a4.89,4.89,0,0,1-1.94-7.16A9.32,9.32,0,0,0,55,47.27,6.8,6.8,0,0,1,57,43a4.54,4.54,0,0,0-2.43,1.61,2.52,2.52,0,0,1,2.21-2.42s-2.75-.38-3.66,1.72a2.42,2.42,0,0,1,.11-2.57s-1.21-.19-1.49.74c.28-2.5-.83-3.24-3.24-3.52s-2.59-1.48-2.78-2.87c-.93.28-.83,1.67-.83,1.67a10.47,10.47,0,0,0-1.11-3.8l-.06-.09c.63,2.69.27,3.67.24,3.76a5.73,5.73,0,0,1,1.17,3.16c2.49-1.63,5.12-.24,6.17,3.87s1.1,7.41-.86,9.23a4,4,0,0,0-.81-3s1.72,4.3-4.26,7.94c.1,2.54-3,4.26-7.32,6.22-1.29,1.67-2.82,2.54-2.78,5.55a7.57,7.57,0,0,1,1.34-1.67s-1.29,2.68-.29,3.16A4.74,4.74,0,0,1,37.9,73a11.92,11.92,0,0,1,1.92,1.51,4,4,0,0,1,1.1,2.28s1-.65,1-1a3.4,3.4,0,0,1,.55.82l.85-.81a2,2,0,0,0,.93.93,7,7,0,0,1,4.17-4.87A6.15,6.15,0,0,1,50,76a3.78,3.78,0,0,0,.92-1.1,2.56,2.56,0,0,0,.67.92,8.22,8.22,0,0,0,.81-1.06,4.92,4.92,0,0,0,1.35,1.36s.31-2,2.78-6.24,6.37-6.86,9.69-10c2.86-3.2,4-5.55,3.87-8.46a4.05,4.05,0,0,0-.44-4.73A3.2,3.2,0,0,1,71.6,49.22Z"/></g><g class="cls-16"><path class="cls-43" d="M60.92,63.66c-2.75,1.79-6.52,7.42-7.28,11.13a2.32,2.32,0,0,1-.76-1.58,2.37,2.37,0,0,0-1.1,1.51,3.34,3.34,0,0,1-.48-1.86l-.76,1.51a3.23,3.23,0,0,0-.34-2.06c2.75-.48,4.67-1.65,5.29-3.85-1.65,1.51-4.19,1.79-6.59,2.2s-4.74,2.82-4.74,4.74A2.57,2.57,0,0,1,43.61,74l-1,1.24a7.81,7.81,0,0,1-.41-1.51l-.89,1.31s-4.55-4.92,1.76-9.62a5.6,5.6,0,0,0-2.72.87,18.61,18.61,0,0,1,4.94-3.71c3.09-1.61,5.07-5.07,5.07-7.29L51.26,58a14.74,14.74,0,0,0,1.48-10.13c-.49-2.74-1.3-4.9-2.5-6.12a9,9,0,0,1,1,2.51c1.05,4.11,1.1,7.41-.86,9.23a4,4,0,0,0-.81-3s1.72,4.3-4.26,7.94c.1,2.54-3,4.26-7.32,6.22-1.29,1.67-2.82,2.54-2.78,5.55a7.57,7.57,0,0,1,1.34-1.67s-1.29,2.68-.29,3.16A4.74,4.74,0,0,1,37.9,73a11.92,11.92,0,0,1,1.92,1.51,4,4,0,0,1,1.1,2.28s1-.65,1-1a3.4,3.4,0,0,1,.55.82l.85-.81a2,2,0,0,0,.93.93,7,7,0,0,1,4.17-4.87A6.15,6.15,0,0,1,50,76a3.78,3.78,0,0,0,.92-1.1,2.56,2.56,0,0,0,.67.92,8.22,8.22,0,0,0,.81-1.06,4.92,4.92,0,0,0,1.35,1.36s.31-2,2.78-6.24,6.37-6.86,9.69-10A16.74,16.74,0,0,0,69.55,55C67.87,57.48,64.74,61.47,60.92,63.66Z"/></g><path class="cls-29" d="M51.87,30.29a4.54,4.54,0,0,0-1.38,3.15c0,.08.09,0,.1-.06a5.39,5.39,0,0,1,1.29-3.06S51.89,30.27,51.87,30.29Z"/><path class="cls-18" d="M49.25,13.68A10.36,10.36,0,0,0,43.92,21c-.14.79.67.21.8-.21a13.88,13.88,0,0,1,4.53-7S49.31,13.65,49.25,13.68Z"/><path class="cls-18" d="M51.78,13a5.57,5.57,0,0,0-3.18,3c-.13.38.31.27.43,0a8.18,8.18,0,0,1,2.69-2.72C51.8,13.29,52,12.93,51.78,13Z"/><g class="cls-16"><path class="cls-44" d="M51.27,44.28c-1.05-4.11-3.68-5.5-6.17-3.87a5.73,5.73,0,0,0-1.17-3.16h0A1.77,1.77,0,0,0,43,37a7.35,7.35,0,0,1,1.15,5.58c1.58-1.85,3.43-.28,2.32,3.62a5.07,5.07,0,0,1-5,3.71,15.68,15.68,0,0,0,.65-5c-1.3,4.08-5.75,5.65-5.75,5.65a59.32,59.32,0,0,1,1.2-5.93c-2.22,4.26-7,8.53-7,5.93-.14-3.95,2.56-7.41,3.86-8.84-2.78,2.49-4.81,5.17-5.44,9.35,0,.32-.2,2.19.47,2.94S33.67,52.5,36.16,48a37.48,37.48,0,0,1-1.47,4.27A5.75,5.75,0,0,0,40.3,49.7c-.74,2.06-.6,2.6-.38,2.66a7.07,7.07,0,0,0,4.25-1.73c-1,2-1.07,2.5-.88,2.61a4.78,4.78,0,0,0,4.08-1.93c.14.2,1-.52,1.58-2.05-.12.85.26.66.65,1.24a4.06,4.06,0,0,1,.81,3C52.37,51.69,52.32,48.4,51.27,44.28Z"/></g><g class="cls-16"><path class="cls-5" d="M49.6,50.5h0c-.39-.58-.78-.39-.65-1.24-.62,1.53-1.44,2.25-1.58,2.05a4.78,4.78,0,0,1-4.08,1.93c-.19-.11-.16-.63.88-2.61a7.07,7.07,0,0,1-4.25,1.73c-.22-.06-.36-.6.38-2.66a5.75,5.75,0,0,1-5.61,2.59A37.48,37.48,0,0,0,36.16,48c-2.5,4.47-6,6.77-6.77,5.95s-.51-2.61-.47-2.94v0a10,10,0,0,0-1.69,2.53c.48-.37.95-.29,1.24.83.56,2.23,2.32,1.48,4.73-1.11,0,2,3.34,1.3,5.65-.65-.19,1.95.74,1.86,2.6.65-1.58,4.26-2.78,5.1-4.64,6.12a16.45,16.45,0,0,1,.65-3.61s-3,3.34-5,3.34c-1.3-.28.46-3.89.46-3.89S30,58.15,28.36,58.61c-1.32.37-1.71-1.4-1.82-2.17a4.44,4.44,0,0,0,.14,1.31,19.7,19.7,0,0,0,.77,2.64,12.78,12.78,0,0,0,3.86-2.89c-.9,2-1,2.76-.46,3.06s2.94,0,5.1-2.48c-.53,1.62-.65,2.34-.46,2.41s2.34.28,4.75-2.53a14.42,14.42,0,0,1-1,2,12.52,12.52,0,0,0,6.12-1.56C51.32,54.8,49.6,50.5,49.6,50.5Z"/></g><path class="cls-45" d="M34.16,62.25l0,0,0,0Z"/><path class="cls-46" d="M29.56,62.17c-2.28,1.61-4.89,3.16-4.89,3.16a9.32,9.32,0,0,1-.5-1.89.48.48,0,0,0-.07-.19,8.75,8.75,0,0,0-.21,3.25.9.9,0,0,0,.35,0l.28-.08.11-.06v0A11.82,11.82,0,0,0,28.83,63a14.16,14.16,0,0,0-1.6,3.34s3.28-.16,6.94-4.07c-2.41,1.44-5.44,3-5.44,3A20.58,20.58,0,0,1,29.56,62.17Z"/><path class="cls-9" d="M33.28,65.17h0Z"/><path class="cls-10" d="M33.27,65.27h0a.09.09,0,0,1-.09-.06.1.1,0,0,1,0-.11.1.1,0,0,1,.13,0,.09.09,0,0,1,0,.13l0,0Z"/><path class="cls-46" d="M39.22,60a14.42,14.42,0,0,0,1-2c-2.41,2.8-4.57,2.6-4.75,2.53s-.07-.79.46-2.41c-2.16,2.43-4.52,2.78-5.1,2.48s-.44-1.07.46-3.06a12.78,12.78,0,0,1-3.86,2.89,19.7,19.7,0,0,1-.77-2.64,16,16,0,0,0-2.2,4.2c.45-.71,1.88-2.81,2.08-1.39.17,1.17.67,1.11,2.16.17,1.17-.67.45,2.5,4.77.22,1.33-.67-.33,1.72,3.83-.11a17.21,17.21,0,0,1-4.05,4.32h0a8.91,8.91,0,0,0,1-3l-.14.08a14.77,14.77,0,0,1-2.66,3.85c1.81,0,4.66-1.38,6.81-3.65-1,1.47-1.78,2.65-1.78,2.65a10.62,10.62,0,0,0,1.64-.53h0c4.24-1.92,7.2-3.63,7.11-6.12A12.52,12.52,0,0,1,39.22,60Z"/><g class="cls-13"><path class="cls-7" d="M28.83,63a11.82,11.82,0,0,1-4.2,3.41,8.75,8.75,0,0,0-.84,2,6.52,6.52,0,0,1,2.31-2c.79-.23-.89,4.27-3.09,5.4-.06.39-.11.73-.13,1l.23-.09a7.34,7.34,0,0,0,2.39-2.16,25.43,25.43,0,0,0,2.44-4.32,4.43,4.43,0,0,1-.71.12A14.16,14.16,0,0,1,28.83,63Z"/></g><g class="cls-13"><path class="cls-7" d="M28.42,66.07c-.28.52-.69,1.31-1.08,2.19.65-.9,1.42-1.8,1.88-1.85.84-.09-1,3.43-3,5.32,0,0,0,.08,0,.11.83-.09,2.89-1.77,5.44-7.41A11.26,11.26,0,0,1,28.42,66.07Z"/></g><g class="cls-13"><path class="cls-7" d="M34.21,62.2a16,16,0,0,1-2.53,2.23c-2.55,5.64-4.61,7.32-5.44,7.41a18.84,18.84,0,0,1,2.19-5.77l-.49.13a25.43,25.43,0,0,1-2.44,4.32,7.34,7.34,0,0,1-2.39,2.16,2.94,2.94,0,0,0,.38-.18s-.12.25-.29.65a4.28,4.28,0,0,1,1.62-1.2c.06,0,.1,0,.1.09a7.7,7.7,0,0,1-2.7,5.86c0,.09,0,.17.06.25,2.36-1.16,4.45-6.35,4.45-6.35a8.5,8.5,0,0,0,2.5-2.55l-.06.15c.6-.81,1.28-1.71,1.73-2.23.87-1,.42,1.39-2.57,4.49l.28-.13a12.55,12.55,0,0,0,4.58-5.76,5.81,5.81,0,0,1-1.67.3A14.83,14.83,0,0,0,34.21,62.2Z"/></g><g class="cls-13"><path class="cls-7" d="M36.56,65.08s.74-1.18,1.78-2.65a12.8,12.8,0,0,1-5.14,3.35A15.1,15.1,0,0,1,31,69.34c-.13.37-.29.75-.46,1.12.88-1,2.28-2.59,3-3.49.85-1.09,2-.14,0,2a24.09,24.09,0,0,0,2.72-2.35l0,0c.5-.67,1.11-1.25,1.68-2l.21-.1h0A10.62,10.62,0,0,1,36.56,65.08Z"/></g><g class="cls-47"><path class="cls-26" d="M37.9,73.22a4,4,0,0,1-2,2.82,5.57,5.57,0,0,1-.56-2.38,4.66,4.66,0,0,1-2.9,2.72,5,5,0,0,1-.09-2.81,6.79,6.79,0,0,1-3,3.24,11.23,11.23,0,0,1,.94-4.22c-.7.87-1.35,1.59-1.67,1.94A18.77,18.77,0,0,1,27,77.33a9.08,9.08,0,0,0,1.11-.92c.88-.92,1,2.21-2.84,4.87a8.31,8.31,0,0,0,4.13-4.11c-.16.63-.3,1.15-.4,1.58a6.11,6.11,0,0,1,1.43-2.11c.68-.32.25,2.34-1.35,4.24.59-.09,2-1.63,2.5-3.33A7.12,7.12,0,0,0,31.74,80c.29-1.22.83-2.86,1.67-3.22,1.06-.46.56,1.7-.51,3.56A9.56,9.56,0,0,0,35,77.46a4.4,4.4,0,0,0,.38,2c.11-1.16.35-2.68.89-2.88.7-.26.73,1.56-.08,3.45.41-.13,1.16-1.77,1.67-3.86C37.92,74.77,37.91,73.69,37.9,73.22Z"/></g><path class="cls-48" d="M58.8,83.82a2.72,2.72,0,0,1,.55,1.63A2.47,2.47,0,0,0,60,82.85,3,3,0,0,1,58.8,83.82Z"/><path class="cls-49" d="M59.35,85.54h0a.1.1,0,0,1-.05-.08,2.62,2.62,0,0,0-.53-1.57.1.1,0,0,1,0-.09.1.1,0,0,1,.06-.06,2.92,2.92,0,0,0,1.14-.93.09.09,0,0,1,.09,0,.1.1,0,0,1,.07.06,2.55,2.55,0,0,1-.65,2.7Zm-.41-1.69a2.87,2.87,0,0,1,.49,1.4A2.45,2.45,0,0,0,59.95,83,3.09,3.09,0,0,1,58.95,83.85Z"/><path class="cls-48" d="M47.36,85a2.59,2.59,0,0,1,.37,1.6,1.6,1.6,0,0,0,.79-1.93C48.24,85.07,47.36,85,47.36,85Z"/><path class="cls-49" d="M47.73,86.7l-.06,0a.09.09,0,0,1,0-.1A2.54,2.54,0,0,0,47.28,85a.09.09,0,0,1,0-.09.09.09,0,0,1,.09,0h.15c.22,0,.74,0,.93-.29a.09.09,0,0,1,.09,0,.1.1,0,0,1,.07.06,1.7,1.7,0,0,1-.84,2Zm-.21-1.6a2.74,2.74,0,0,1,.34,1.32,1.52,1.52,0,0,0,.62-1.57A1.65,1.65,0,0,1,47.52,85.1Z"/><path class="cls-48" d="M49.55,84.38A6.63,6.63,0,0,1,50,85.83a3,3,0,0,0,.51-1.62Z"/><path class="cls-49" d="M50,85.92h0a.09.09,0,0,1-.06-.08,6.83,6.83,0,0,0-.46-1.42.09.09,0,0,1,0-.08.09.09,0,0,1,.06,0l1-.17a.09.09,0,0,1,.08,0,.08.08,0,0,1,0,.07,3.09,3.09,0,0,1-.53,1.68A.1.1,0,0,1,50,85.92Zm-.33-1.47a7.59,7.59,0,0,1,.39,1.14,3.13,3.13,0,0,0,.35-1.28Z"/><path class="cls-48" d="M61.72,83.24a5,5,0,0,1,.79,1.32,2.65,2.65,0,0,0,0-2.55C62.42,82.83,62.12,83.2,61.72,83.24Z"/><path class="cls-49" d="M62.51,84.66h0a.09.09,0,0,1-.08-.06,5,5,0,0,0-.77-1.29.09.09,0,0,1,0-.09.09.09,0,0,1,.08-.06c.38,0,.62-.45.66-1.14a.09.09,0,0,1,.07-.08.1.1,0,0,1,.1,0,2.73,2.73,0,0,1,0,2.65A.1.1,0,0,1,62.51,84.66Zm-.62-1.36a5.12,5.12,0,0,1,.63,1,2.65,2.65,0,0,0,0-2C62.42,83,62.13,83.22,61.89,83.3Z"/><path class="cls-48" d="M37.7,83.14a3.82,3.82,0,0,0,0,2,9.15,9.15,0,0,1,.91-1.66Z"/><path class="cls-49" d="M37.7,85.26h0a.1.1,0,0,1-.09-.07,3.86,3.86,0,0,1,0-2.09.09.09,0,0,1,.12-.06l.91.38a.09.09,0,0,1,.05.06.08.08,0,0,1,0,.08,9.11,9.11,0,0,0-.9,1.63A.09.09,0,0,1,37.7,85.26Zm.06-2a3.87,3.87,0,0,0,0,1.6,10,10,0,0,1,.75-1.31Z"/><path class="cls-50" d="M54.13,79.36c-.06,0-.12.23,0,.17A4.19,4.19,0,0,1,56.79,79c1,.14,1.47.9,1.9,1.72.09.17.33-.19.3-.3C58.4,78.05,55.8,78.32,54.13,79.36Z"/><path class="cls-50" d="M62.08,81a2.59,2.59,0,0,0-1.91-1.49c-.06,0-.15.14-.09.17a5.49,5.49,0,0,1,1.76,1.6C61.95,81.39,62.12,81.08,62.08,81Z"/><path class="cls-50" d="M49.15,80.68s-.06.06,0,.08a4.56,4.56,0,0,1,.34.4,6.43,6.43,0,0,1,.5.55,8.59,8.59,0,0,1,.64,1.1c.06.1.19-.11.17-.17A2.56,2.56,0,0,0,49.15,80.68Z"/><path class="cls-50" d="M48.21,81.65a2.15,2.15,0,0,0-1.44-1.33,2.68,2.68,0,0,0-2,.5s0,.05,0,0a2.61,2.61,0,0,1,1.91-.29c.6.12,1,.84,1.36,1.3C48.09,82,48.24,81.73,48.21,81.65Z"/><g class="cls-51"><path class="cls-29" d="M41.07,37.53a25.11,25.11,0,0,0-7.27,4.18c-1.86,1.7-2.57,4.15-3,6.56-.05.3.26.09.3-.08.78-3.18,1.77-5.66,4.57-7.58a55.84,55.84,0,0,1,5.38-3S41.12,37.51,41.07,37.53Z"/><path class="cls-29" d="M38.13,43.7a22.14,22.14,0,0,0-.83,2.64c-.16.9-.26,1.82-.4,2.73,0,.27.29,0,.33-.14a10.75,10.75,0,0,0,.38-2.36,23.71,23.71,0,0,1,.63-2.9C38.27,43.55,38.15,43.64,38.13,43.7Z"/><path class="cls-29" d="M27.42,56.08a6.56,6.56,0,0,1,.29-2.5c0-.17-.14-.08-.18,0a6.35,6.35,0,0,0-.61,2.17,9.63,9.63,0,0,0,.39,2.56c.07.3.45-.17.42-.36C27.66,57.33,27.52,56.71,27.42,56.08Z"/><path class="cls-29" d="M42.66,44.25c0-.13-.15,0-.16.09a15.25,15.25,0,0,1-.94,5c-.11.25.15.29.26.08A10.22,10.22,0,0,0,42.66,44.25Z"/><path class="cls-29" d="M33.3,54.85a6.65,6.65,0,0,0-.72,1.58,6.51,6.51,0,0,0-.1,2.42c0,.24.36-.14.35-.3a9.59,9.59,0,0,1,0-2.2,7.3,7.3,0,0,1,.52-1.48C33.42,54.79,33.33,54.78,33.3,54.85Z"/><path class="cls-29" d="M38,54.9a5.4,5.4,0,0,0-.74,3.65c0,.16.22-.09.23-.16.06-.52.05-1,.09-1.57a6.25,6.25,0,0,1,.54-1.89C38.2,54.82,38.1,54.82,38,54.9Z"/><path class="cls-29" d="M25.84,60.52a5.15,5.15,0,0,0-1.25,1.67,4.18,4.18,0,0,0,0,2.4c.07.25.36-.14.34-.28A4.26,4.26,0,0,1,25,61.79c.24-.45.59-.8.87-1.21C25.93,60.52,25.89,60.46,25.84,60.52Z"/><path class="cls-29" d="M30.09,61.92a5.18,5.18,0,0,0-1.19,3.22c0,.17.18,0,.21-.06a8.26,8.26,0,0,0,.38-1.61A5.77,5.77,0,0,1,30.2,62C30.25,61.88,30.15,61.84,30.09,61.92Z"/></g><g class="cls-52"><path class="cls-7" d="M24.68,67.31a5.62,5.62,0,0,0-.92,1.54,6.71,6.71,0,0,0-.3,2.38c0,.22.25,0,.26-.15a13,13,0,0,1,.2-1.8,6.89,6.89,0,0,1,.85-1.92C24.83,67.26,24.75,67.21,24.68,67.31Z"/><path class="cls-7" d="M27.9,67.57a4.82,4.82,0,0,0-1,3c0,.17.19,0,.2-.08A7.49,7.49,0,0,1,28,67.62C28,67.54,27.95,67.5,27.9,67.57Z"/><path class="cls-7" d="M30.67,67.5a7.51,7.51,0,0,0-1.77,2.81c-.06.14.08.16.14,0a21.67,21.67,0,0,1,1.65-2.79S30.72,67.45,30.67,67.5Z"/><path class="cls-7" d="M33.84,66.79A26.2,26.2,0,0,1,31,70.08s-.11.27,0,.18a12.46,12.46,0,0,0,2.92-3.41C33.94,66.79,33.9,66.71,33.84,66.79Z"/><path class="cls-7" d="M23.78,72.58a12,12,0,0,0-1.13,1.85,5.31,5.31,0,0,0-.31,2.07c0,.14.16,0,.17-.09A8.58,8.58,0,0,1,23,74.23a16.51,16.51,0,0,1,.9-1.6C23.91,72.54,23.84,72.49,23.78,72.58Z"/><path class="cls-7" d="M28.49,72.31a5.62,5.62,0,0,0-1.23,2.13c0,.15.13,0,.16,0a8,8,0,0,1,1.09-2.05S28.52,72.28,28.49,72.31Z"/></g><g class="cls-52"><path class="cls-26" d="M32.12,70.64A5.88,5.88,0,0,0,30,74.77c0,.21.24,0,.26-.11a17.41,17.41,0,0,1,.54-2,6.89,6.89,0,0,1,1.34-2S32.17,70.59,32.12,70.64Z"/><path class="cls-26" d="M27.25,77.32c-.72,1.13-1.68,2.08-2.47,3.15-.05.07,0,.2.06.1a19.17,19.17,0,0,0,2.47-3.21C27.34,77.29,27.29,77.26,27.25,77.32Z"/><path class="cls-26" d="M29.82,77.32a6.1,6.1,0,0,0-1,2.57c0,.13.14,0,.16-.06.11-.4.18-.79.29-1.19a7.75,7.75,0,0,1,.6-1.29C29.92,77.27,29.85,77.26,29.82,77.32Z"/><path class="cls-26" d="M33,77.23a5.41,5.41,0,0,0-1,2.68c0,.2.23,0,.25-.1A6.06,6.06,0,0,1,33,77.3C33.09,77.23,33,77.14,33,77.23Z"/><path class="cls-26" d="M33.35,71.71c0-.06-.09,0-.08.07a17.41,17.41,0,0,1,0,2.94c0,.11.12,0,.13-.06A7.67,7.67,0,0,0,33.35,71.71Z"/><path class="cls-26" d="M36.08,76.93a2.36,2.36,0,0,0-.28,2.44c0,.09.19-.1.15-.18a2.47,2.47,0,0,1,.15-2.25S36.09,76.91,36.08,76.93Z"/></g><g class="cls-16"><path class="cls-53" d="M65.54,55.21a5.39,5.39,0,0,1-2.33,1.7A9.42,9.42,0,0,0,60.07,53c-2.08-1.33-5.7-2.41-4.37-6-1,1.65-1.18,1.65-1.18,1.65A4.17,4.17,0,0,1,55,45c-1,1.33-1.25,1.61-1.25,1.61a5.71,5.71,0,0,1,.48-2.85c-1.32,2.15-1.84,3.85.58,8a3.41,3.41,0,0,1-.33-2.13s.43,2.46,3.7,3.74,4.55,3.89,4.08,5.92a18,18,0,0,0,3.88-3.22A2.9,2.9,0,0,1,65.66,58a47.74,47.74,0,0,0,4.48-5.89c0-.21,0-.42,0-.64l.09-.18A24.16,24.16,0,0,1,65.54,55.21Z"/></g><g class="cls-51"><path class="cls-21" d="M57.73,56.39s-.06,0-.06,0A3.18,3.18,0,0,1,57,58.09a3.46,3.46,0,0,1-1.09,1c-.21.14-.45.88,0,.64a3.36,3.36,0,0,0,1.4-1.39A3,3,0,0,0,57.73,56.39Z"/><path class="cls-21" d="M57,60c0-.08-.11,0-.12.07-.1.49-.65.78-1,1.07-.1.07-.19.44,0,.32C56.41,61.16,57.13,60.65,57,60Z"/><path class="cls-21" d="M57.81,61.44a3.81,3.81,0,0,1-1.18,1.49c-.07.06-.16.33,0,.25A2.58,2.58,0,0,0,58,61.43C58,61.29,57.84,61.36,57.81,61.44Z"/><path class="cls-21" d="M59.58,59.69a3.73,3.73,0,0,1-.92,1.39c-.12.13-.1.48.11.28a3.25,3.25,0,0,0,1-1.72C59.77,59.49,59.61,59.61,59.58,59.69Z"/><path class="cls-21" d="M60.41,61c-.11.79-.73,1.3-1.15,1.93-.13.19-.06.55.2.32a3.09,3.09,0,0,0,1.17-2.41C60.62,60.64,60.42,60.89,60.41,61Z"/><path class="cls-21" d="M62.55,60.21a5,5,0,0,1-1.2,1.6c-.1.1-.27.55,0,.41a3.37,3.37,0,0,0,1.44-2C62.89,59.94,62.61,60.08,62.55,60.21Z"/><path class="cls-21" d="M53.65,62.55c-.37.8-1.13,1.13-1.83,1.58-.1.06-.31.51-.07.43a2.77,2.77,0,0,0,2-2C53.8,62.41,53.68,62.49,53.65,62.55Z"/><path class="cls-21" d="M53.85,64.94a3,3,0,0,1-1,1.14c-.05.05-.23.42,0,.35a1.81,1.81,0,0,0,1.08-1.51C53.95,64.84,53.86,64.91,53.85,64.94Z"/><path class="cls-21" d="M55.62,66.63a3.47,3.47,0,0,1-.84.73.35.35,0,0,0-.13.3c0,.11.14.07.2,0a2.71,2.71,0,0,0,.9-1C55.79,66.55,55.67,66.54,55.62,66.63Z"/><path class="cls-21" d="M50,62.46c-.15.48-.83.59-1.23.78-.14.07-.35.56-.07.49a1.93,1.93,0,0,0,1.52-1.33C50.29,62.19,50.07,62.35,50,62.46Z"/><path class="cls-21" d="M49.13,65.62c-.07.15-.27.2-.42.26a3,3,0,0,1-.47.11c-.2,0-.4.57-.13.51.5-.11,1.1-.32,1.21-.9C49.37,65.4,49.17,65.52,49.13,65.62Z"/><path class="cls-21" d="M50.51,67.49a1.94,1.94,0,0,1-.73.54.33.33,0,0,0-.16.26c0,.09.07.14.14.09a2.6,2.6,0,0,0,.87-.81C50.71,67.43,50.6,67.36,50.51,67.49Z"/><path class="cls-21" d="M47,68.21a1.61,1.61,0,0,1-.79.58A.36.36,0,0,0,46,69c0,.07,0,.2.1.16a2.05,2.05,0,0,0,1.05-.89C47.26,68.13,47.11,68,47,68.21Z"/><path class="cls-21" d="M43.74,70.35a2.57,2.57,0,0,0-.48,1.46c0,.1.11.1.18.06a.45.45,0,0,0,.21-.34,4,4,0,0,1,.08-.67c0-.18.13-.35.19-.54S43.78,70.26,43.74,70.35Z"/><path class="cls-21" d="M44.67,67.66c-.08.06-.18.09-.26.15a1.39,1.39,0,0,0-.27.33A1.41,1.41,0,0,0,44,69c0,.09.1.09.16.05a.4.4,0,0,0,.18-.3,2,2,0,0,1,.19-.75c0-.06.11-.1.15-.16a.6.6,0,0,0,.09-.17S44.7,67.63,44.67,67.66Z"/><path class="cls-21" d="M53.29,59.8a2.51,2.51,0,0,1-.47.67,5.24,5.24,0,0,1-.71.52c-.09.06-.34.49-.07.44.75-.14,1.22-.95,1.46-1.61C53.58,59.59,53.36,59.65,53.29,59.8Z"/></g><g class="cls-13"><path class="cls-14" d="M51.27,44.28c-1.05-4.11-3.68-5.5-6.17-3.87A5.94,5.94,0,0,0,44,37.36a6.76,6.76,0,0,1,.82,3.86c1.88-1.16,6.89-.58,6,9.11a4.61,4.61,0,0,0-2.41-2.46s-.82,4.34-4.39,5.4c3.42-.77,4.29-1.69,4.29-1.69s-2.1,7.21-8.49,8.33c2.5.65,3.71,0,3.71,0s-1.3,2.78-6.4,4.91l.07.07c.27-.09.6-.2,1-.35h0c4.24-1.92,7.2-3.63,7.11-6.12,6-3.64,4.26-7.94,4.26-7.94h0a4.06,4.06,0,0,1,.81,3C52.37,51.69,52.32,48.4,51.27,44.28Z"/></g></g></g></g></svg>