<svg xmlns="http://www.w3.org/2000/svg" viewBox="0 0 100 100"><defs><style>.cls-1{isolation:isolate;}.cls-2{fill:#e5d7b7;}.cls-3{fill:#e26b00;}.cls-4{fill:#9b3e11;}.cls-5,.cls-7{fill:#ffb600;}.cls-6{fill:#b87e22;}.cls-13,.cls-14,.cls-15,.cls-18,.cls-19,.cls-20,.cls-21,.cls-7,.cls-8,.cls-9{mix-blend-mode:multiply;}.cls-8{opacity:0.3;}.cls-10,.cls-9{fill:#ff9d00;}.cls-11{fill:#fff;}.cls-12{fill:#b8babc;}.cls-13,.cls-14{fill:#d7c7a5;}.cls-13,.cls-18{opacity:0.4;}.cls-14,.cls-23{opacity:0.5;}.cls-15{fill:#f4efe9;}.cls-16,.cls-18{fill:#ce3000;}.cls-17{fill:#ff8e89;}.cls-19,.cls-20{fill:#e18d00;}.cls-19{opacity:0.8;}.cls-22{fill:#a1a09e;}.cls-23{fill:#934f2a;mix-blend-mode:screen;}</style></defs><title>Asset 22</title><g class="cls-1"><g id="Layer_2" data-name="Layer 2"><g id="Layer_1-2" data-name="Layer 1"><rect class="cls-2" width="100" height="100"/><path class="cls-3" d="M30,88.36a.38.38,0,0,0,.21.22c1-.28,1.82-1.11,2.83-.46.45.29.84.68,1.29,1,.18.12,1.54,1.07,1.69.54h0c.18-.25.23-.57.42-.81a1.4,1.4,0,0,1,.87-.5,6.43,6.43,0,0,1,1.59,0l0,0h0a.07.07,0,0,0,0-.13,2.89,2.89,0,0,1-2-2.33c-.09-.89.24-1.76.16-2.65A2.32,2.32,0,0,0,34.66,81c-1.6,0-2.4,1.3-3.21,2.49a11.57,11.57,0,0,0-1.57,2.58A4.23,4.23,0,0,0,30,88.36Z"/><path class="cls-4" d="M35.78,89.87a3.56,3.56,0,0,1-1.47-.7h0c-.21-.14-.41-.31-.6-.46a7.65,7.65,0,0,0-.69-.52,1.36,1.36,0,0,0-.75-.23,3,3,0,0,0-1.23.38,5.47,5.47,0,0,1-.79.32h-.06a.2.2,0,0,1-.19-.19.21.21,0,0,1,0-.09c0-.16-.06-.31-.09-.45a3.3,3.3,0,0,1,0-1.87A8,8,0,0,1,31,84l.41-.58.08-.11c.79-1.17,1.6-2.38,3.18-2.4h0a2.37,2.37,0,0,1,2.49,2.23,5.72,5.72,0,0,1-.08,1.32A5.57,5.57,0,0,0,37,85.81,2.84,2.84,0,0,0,39,88.08a.13.13,0,0,1,0,.26h-.12c-.26,0-.51,0-.76,0a4.18,4.18,0,0,0-.75.06,1.34,1.34,0,0,0-.83.48,1.62,1.62,0,0,0-.22.41,2,2,0,0,1-.2.39h0A.29.29,0,0,1,35.78,89.87Zm-3.52-2.05a1.47,1.47,0,0,1,.82.25,7.47,7.47,0,0,1,.7.53c.19.16.39.32.59.46h0a3.31,3.31,0,0,0,1.39.68c.13,0,.17-.06.18-.12l0,0a1.85,1.85,0,0,0,.18-.36,1.7,1.7,0,0,1,.24-.45,1.47,1.47,0,0,1,.91-.53,4.29,4.29,0,0,1,.78-.06c.25,0,.51,0,.77,0h0a.09.09,0,0,1,.07,0,3,3,0,0,1-2-2.4A5.67,5.67,0,0,1,37,84.47a5.66,5.66,0,0,0,.08-1.29,2.24,2.24,0,0,0-2.37-2.12h0c-1.51,0-2.31,1.2-3.08,2.35l-.08.11-.41.59a7.92,7.92,0,0,0-1.15,2,3.17,3.17,0,0,0,0,1.8c0,.15.06.3.09.46a.07.07,0,0,0,0,0,.06.06,0,0,1,0,0s0,.09.07.09h0a5.5,5.5,0,0,0,.78-.31A3.15,3.15,0,0,1,32.26,87.82Z"/><path class="cls-3" d="M54.93,83.82a10.4,10.4,0,0,1,1.47,3.86c0,.17.17,1.35.53,1.39a.15.15,0,0,0,.15,0,1.59,1.59,0,0,0,.62-.52,4.47,4.47,0,0,1,1-.78c1.54-1,2.85-.76,4.53-.26.21.06.56.24.77.07s.14-.49.11-.76a4.72,4.72,0,0,1,.63-1.39c.42-.48,1.06-.3,1.62-.39h0a.11.11,0,0,0,.15-.1c0-.56-1.1-.83-1.49-1a7,7,0,0,0-2.14-.4c-.84,0-1.68.1-2.51.06a7.18,7.18,0,0,1-2.49-.52,3.82,3.82,0,0,0-1.57-.32c-.62,0-1.5.08-1.39.78A.16.16,0,0,0,54.93,83.82Z"/><path class="cls-4" d="M57,89.18a.21.21,0,0,1-.14-.05c-.25-.06-.44-.52-.56-1.4v0a10.26,10.26,0,0,0-1.46-3.83.23.23,0,0,1,0-.23.59.59,0,0,1,.12-.48,1.9,1.9,0,0,1,1.34-.36h.05a3.89,3.89,0,0,1,1.54.32,7.07,7.07,0,0,0,2.46.51c.44,0,.89,0,1.32,0s.79,0,1.19,0A7.06,7.06,0,0,1,65,84l.18.06c.52.16,1.38.44,1.35,1a.18.18,0,0,1-.23.15h0a3.9,3.9,0,0,1-.49,0,1.32,1.32,0,0,0-1.08.34,2.65,2.65,0,0,0-.46.94c0,.14-.1.29-.15.42l0,.11a.67.67,0,0,1-.15.69.41.41,0,0,1-.27.09,1.41,1.41,0,0,1-.44-.1l-.12,0a8.16,8.16,0,0,0-2.27-.42,4,4,0,0,0-2.21.67,4.29,4.29,0,0,0-.95.77l-.07.08a1.39,1.39,0,0,1-.58.46Zm-.67-6.27h-.05a1.8,1.8,0,0,0-1.24.32.47.47,0,0,0-.09.39.07.07,0,0,1,0,0,.1.1,0,0,0,0,.11,10.41,10.41,0,0,1,1.48,3.88v0c.16,1.14.38,1.29.47,1.3l0,0a.08.08,0,0,0,.08,0,1.28,1.28,0,0,0,.52-.42l.07-.08a4.44,4.44,0,0,1,1-.79,4.13,4.13,0,0,1,2.28-.69,8.22,8.22,0,0,1,2.3.43l.12,0c.2.07.46.14.59,0s.14-.35.1-.57l0-.13a.06.06,0,0,1,0,0c.06-.14.11-.29.16-.43a2.76,2.76,0,0,1,.48-1A1.44,1.44,0,0,1,65.82,85a3.34,3.34,0,0,0,.49,0h.08a0,0,0,0,0,.07,0c0-.44-.81-.7-1.26-.85L65,84.09a6.94,6.94,0,0,0-2.12-.4c-.39,0-.79,0-1.18,0s-.89,0-1.33,0a7.14,7.14,0,0,1-2.51-.52A3.75,3.75,0,0,0,56.37,82.92Z"/><path class="cls-5" d="M52.24,84.61c.32.35.58.66,1.1.38.2-.1.85-.66,1-.48a2.47,2.47,0,0,1,.29.34.12.12,0,0,0,0,.11,4.61,4.61,0,0,1,1.41,2.37,6.87,6.87,0,0,0,.23,1.22c.11.32.59,1.47,1,.81a.59.59,0,0,0,.2-.51c0-.44-.06-.89-.11-1.32a8.11,8.11,0,0,0-.73-2.12,3.77,3.77,0,0,1-.1-.38c.39-.16,1.21.4,1.49.59a5.06,5.06,0,0,0,1.33.79c1.1.34,2.31.42,3.39.8a2.59,2.59,0,0,0,1.32.6c.41.07.8-.09.65-.52a0,0,0,0,0,0-.06h0v0a.06.06,0,0,0-.07,0c-.32-.24-.53-.59-.86-.82a15,15,0,0,0-1.33-.72c-.6-.34-1.19-.7-1.8-1,1.31.23,2.79-.43,4.06,0,.6.21,1.86,1.27,2,0a0,0,0,0,0,0,0c0-.2-.21-.36-.37-.48a9.36,9.36,0,0,1-1.13-.95.1.1,0,0,0-.12,0A2.93,2.93,0,0,0,63.66,83a20.78,20.78,0,0,1-2.15-.06,13.31,13.31,0,0,1-2.38-.4c-.69-.19-1.53-.39-1.82-1.13a.06.06,0,0,0-.05,0,6.5,6.5,0,0,1,.25-2.23c.24-1.26.47-2.51.74-3.77a.13.13,0,0,0,0-.07.07.07,0,0,0,0-.1,2.55,2.55,0,0,0-2.09-.32c-.41.11-1,.46-.77.93a.14.14,0,0,0,0,.07c.06,1,.09,2,.11,3,0,.75.06,1.49.05,2.23a1,1,0,0,1-.31.46c-.3.23-.67.28-1,.49l0,0a2.48,2.48,0,0,0-1,.82c-.31.51-.36,1.06-.88,1.44a.09.09,0,0,0,0,.07A.13.13,0,0,0,52.24,84.61Z"/><path class="cls-6" d="M57.09,89.68c-.42,0-.74-.77-.86-1.1a4.49,4.49,0,0,1-.19-.91c0-.11,0-.22,0-.33A4.5,4.5,0,0,0,54.62,85a.25.25,0,0,1-.07-.15l0,0a1.78,1.78,0,0,0-.22-.26h0a1.74,1.74,0,0,0-.67.35l-.23.15a.93.93,0,0,1-.43.12h0a1.12,1.12,0,0,1-.79-.49l0,0a.23.23,0,0,1-.06-.19.27.27,0,0,1,.08-.16.21.21,0,0,1,.08-.11,1.78,1.78,0,0,0,.58-.86,4,4,0,0,1,.27-.55,2.47,2.47,0,0,1,1-.86l0,0a2.42,2.42,0,0,1,.49-.24,2,2,0,0,0,.49-.25.87.87,0,0,0,.26-.38c0-.46,0-.93,0-1.38,0-.27,0-.55,0-.82,0-.91,0-2-.11-3a.22.22,0,0,1,0-.07.62.62,0,0,1,0-.47,1.37,1.37,0,0,1,.83-.59,2.81,2.81,0,0,1,.74-.1,2.48,2.48,0,0,1,1.46.43.2.2,0,0,1,.07.22.27.27,0,0,1,0,.08c-.18.86-.35,1.74-.51,2.59l-.22,1.17-.08.4a5.05,5.05,0,0,0-.18,1.72.19.19,0,0,1,.06.08c.25.65,1,.85,1.64,1l.1,0a13.16,13.16,0,0,0,2.36.39c.45,0,1,.06,1.58.06h1.15a2,2,0,0,1,.94.18.23.23,0,0,1,.2.06,9.24,9.24,0,0,0,1.12.94.89.89,0,0,1,.42.52.17.17,0,0,1,0,.12c-.09.58-.4.7-.65.7a2.66,2.66,0,0,1-1.1-.41,3.78,3.78,0,0,0-.46-.22,3,3,0,0,0-1-.16,10.62,10.62,0,0,0-1.16.09,9.26,9.26,0,0,1-1.24.09l.55.32.73.42.51.26a5.89,5.89,0,0,1,.83.46,3,3,0,0,1,.47.44,3.1,3.1,0,0,0,.36.36.19.19,0,0,1,.13.1.17.17,0,0,1,.06.14.49.49,0,0,1,0,.45.75.75,0,0,1-.75.21,2.73,2.73,0,0,1-1.37-.62A12.39,12.39,0,0,0,61,86.9a14.46,14.46,0,0,1-1.58-.36,3.7,3.7,0,0,1-1.08-.6l-.29-.21a3.24,3.24,0,0,0-1.26-.6h0l.07.24.19.43a6,6,0,0,1,.55,1.71c0,.39.08.83.11,1.33a.71.71,0,0,1-.23.6A.47.47,0,0,1,57.09,89.68Zm-2.81-5.33a.28.28,0,0,1,.2.07,2.07,2.07,0,0,1,.26.3l0,.06a.13.13,0,0,1,0,.09,4.7,4.7,0,0,1,1.45,2.44c0,.11,0,.22,0,.33a4.3,4.3,0,0,0,.18.86c.16.45.43.93.62.93s.14-.08.18-.15l0,0a.47.47,0,0,0,.16-.41c0-.5-.06-.93-.11-1.32a5.8,5.8,0,0,0-.53-1.63l-.19-.45a4,4,0,0,1-.11-.4.13.13,0,0,1,.08-.14.57.57,0,0,1,.21,0,3.12,3.12,0,0,1,1.4.64l.3.21a3.49,3.49,0,0,0,1,.56,14.3,14.3,0,0,0,1.55.35,12.47,12.47,0,0,1,1.84.45l.05,0a2.49,2.49,0,0,0,1.25.56.53.53,0,0,0,.5-.11.27.27,0,0,0,0-.25v0h0l0,0a3.22,3.22,0,0,1-.43-.41,2.75,2.75,0,0,0-.43-.41A5.44,5.44,0,0,0,63,86l-.52-.27-.74-.43c-.35-.2-.7-.41-1.06-.6a.13.13,0,0,1-.06-.15.13.13,0,0,1,.14-.08,6.62,6.62,0,0,0,1.77,0,10.32,10.32,0,0,1,1.19-.09,3.27,3.27,0,0,1,1.12.17,4,4,0,0,1,.49.24,2.52,2.52,0,0,0,1,.38c.15,0,.32-.05.39-.44a.12.12,0,0,1,0-.06c0-.14-.17-.28-.32-.38a9.42,9.42,0,0,1-1.15-1,.08.08,0,0,1-.1,0,2.18,2.18,0,0,0-1.19-.17h-.83c-.63,0-1.14,0-1.61-.06a13.13,13.13,0,0,1-2.4-.4l-.1,0c-.66-.18-1.49-.41-1.79-1.16a.13.13,0,0,1-.07-.09,5,5,0,0,1,.17-1.88l.08-.39.22-1.17c.16-.85.33-1.73.51-2.6a.13.13,0,0,1,0-.07,2.25,2.25,0,0,0-1.27-.36,2.55,2.55,0,0,0-.67.09,1.11,1.11,0,0,0-.67.46.36.36,0,0,0,0,.31.13.13,0,0,1,0,.09c.06,1,.09,2.09.11,3,0,.27,0,.55,0,.82,0,.46,0,.94,0,1.42a.16.16,0,0,1,0,0,1.15,1.15,0,0,1-.35.51,2.19,2.19,0,0,1-.55.28,2.37,2.37,0,0,0-.43.21s0,0,0,0a2.33,2.33,0,0,0-1,.77,4,4,0,0,0-.25.51,2.06,2.06,0,0,1-.65,1,.13.13,0,0,1-.05.08l0,0c.21.23.38.41.6.41h0a.69.69,0,0,0,.31-.09l.2-.13A1.75,1.75,0,0,1,54.28,84.35Z"/><path class="cls-7" d="M60.73,84.6c.51.28,1,.58,1.52.87-.43-.21-.86-.43-1.3-.63a21.82,21.82,0,0,1-2-1.11,14.9,14.9,0,0,1-1.63-1c.93.24,1.79.68,2.69,1a3.62,3.62,0,0,0,1.29.24c.49,0,1-.09,1.47-.13a5.49,5.49,0,0,1,1.69,0,5.8,5.8,0,0,1,1.37.56c.2.1.54.36.77.18a.32.32,0,0,0,.14-.28.44.44,0,0,1,.13.27,0,0,0,0,1,0,0c-.19,1.23-1.45.17-2,0C63.52,84.17,62,84.83,60.73,84.6Z"/><path class="cls-7" d="M52.37,84.64a1,1,0,0,0,.71-.22,5.41,5.41,0,0,0,.76-.62c.11-.1.22-.22.33-.32s.33-.28.5-.17a.75.75,0,0,1,.17.15,9.69,9.69,0,0,0,.7,1.57,6.67,6.67,0,0,1,.64,1.28c.16.56.24,1.15.4,1.71.1.35.26,1.08.7,1.15a.4.4,0,0,0,.25,0,.69.69,0,0,1-.15.2c-.43.67-.91-.48-1-.81a6.87,6.87,0,0,1-.23-1.22A4.61,4.61,0,0,0,54.71,85a.12.12,0,0,1,0-.11,2.47,2.47,0,0,0-.29-.34c-.2-.18-.85.37-1,.48-.52.28-.78,0-1.1-.38a.1.1,0,0,1,0,0A.3.3,0,0,0,52.37,84.64Z"/><path class="cls-7" d="M56.64,85a3.77,3.77,0,0,0,.1.38,14.12,14.12,0,0,1,.63,1.6c-.3-.82-.71-1.6-1-2.43a7.61,7.61,0,0,1-.26-.76c0-.1-.13-.43.13-.36a2.27,2.27,0,0,1,.49.2c.62.35,1.19.79,1.82,1.14a15.59,15.59,0,0,0,4.07,1.64,2.7,2.7,0,0,1,1.06.48,1.5,1.5,0,0,0,.6.33.58.58,0,0,0,.5-.09.06.06,0,0,1,0,0v0h0a0,0,0,0,1,0,.06c.16.43-.23.6-.65.52a2.59,2.59,0,0,1-1.32-.6c-1.08-.39-2.28-.46-3.39-.8a5.06,5.06,0,0,1-1.33-.79C57.85,85.43,57,84.87,56.64,85Z"/><path class="cls-5" d="M29.42,87.87c.18.32.75,1.08,1,.42a.09.09,0,0,0,0,0,.67.67,0,0,0,.07-.27,1.89,1.89,0,0,0,0-.39A4.62,4.62,0,0,1,31,86c.33-.56.75-1.06,1.13-1.6s.81-1.7,1.49-2.11c.74.54.13,2.35,0,3.07a6.42,6.42,0,0,0-.21,2.06,2.93,2.93,0,0,0,.16.91.09.09,0,0,0,0,.1,4.09,4.09,0,0,0,1.12,1,2,2,0,0,0,1,.4c.33,0,.42-.3.38-.6a1.27,1.27,0,0,0-.58-1,2.25,2.25,0,0,1-.33-1.76,13,13,0,0,1,.58-1.5,9.93,9.93,0,0,0,.36-1c0,1.28-.11,2.67.84,3.67a2.65,2.65,0,0,0,1.84.55,1.11,1.11,0,0,0,.77-.12,0,0,0,0,0,.06,0,.79.79,0,0,0,.08-.21.8.8,0,0,0,0-.15,0,0,0,0,0,0,0,.94.94,0,0,0-.52-.55,3.7,3.7,0,0,1-1.56-1.64c-.19-2,.69-4,.64-6a2.49,2.49,0,0,0,.12-1.32,10.13,10.13,0,0,0-.4-1.55c-.14-.44-.39-.88-.51-1.33l0,0a4.7,4.7,0,0,1,3.6-2c.06,0,.14,0,.12-.11a3.49,3.49,0,0,0-1.89-1.94c-.29-.12-1.25-.6-1.53-.24a0,0,0,0,0-.06,0,11.4,11.4,0,0,1-1.51,1.67A12,12,0,0,0,34.91,74c-.39.32.06.83.38,1.21.12.44.28.88.36,1.33a2.64,2.64,0,0,1,.05,1.22c-.23.68-1-.08-1.35-.26a.07.07,0,0,0-.08,0,.58.58,0,0,0-.47.15,4.85,4.85,0,0,1-.68.47,2.68,2.68,0,0,0-.52.28.1.1,0,0,0,0,.17c0,.14.11.28.24.36a2.85,2.85,0,0,0,.41.2h0A6.1,6.1,0,0,1,31.58,82a11.49,11.49,0,0,0-2.11,3.28A2.87,2.87,0,0,0,29.42,87.87Z"/><path class="cls-6" d="M35.65,90a2,2,0,0,1-.94-.37l-.09-.06a4.23,4.23,0,0,1-1.15-1,.21.21,0,0,1,0-.16,2.29,2.29,0,0,1-.13-.71c0-.07,0-.14,0-.2a6.53,6.53,0,0,1,.22-2.11c0-.1.06-.22.09-.36.19-.72.53-2,.06-2.52a4.05,4.05,0,0,0-1,1.35,7.77,7.77,0,0,1-.4.68l-.4.55a11.59,11.59,0,0,0-.72,1,4.31,4.31,0,0,0-.46,1.45v0a2,2,0,0,1,0,.4.83.83,0,0,1-.07.28.22.22,0,0,1,0,.07c-.12.28-.3.34-.42.34h0c-.44,0-.84-.72-.85-.75a3,3,0,0,1,0-2.72,11.46,11.46,0,0,1,2.13-3.32l.17-.2a5.7,5.7,0,0,0,1.53-2.48,2.58,2.58,0,0,1-.36-.18.6.6,0,0,1-.3-.39.22.22,0,0,1-.06-.11.22.22,0,0,1,.07-.23,1.85,1.85,0,0,1,.39-.23l.15-.07a4.1,4.1,0,0,0,.57-.39l.09-.07a.73.73,0,0,1,.53-.18.2.2,0,0,1,.15,0,3.24,3.24,0,0,1,.3.2,1.59,1.59,0,0,0,.66.33c.07,0,.14,0,.2-.19a2.24,2.24,0,0,0,0-1l0-.12a7.77,7.77,0,0,0-.22-.85c0-.15-.09-.29-.12-.44h0c-.25-.29-.56-.66-.53-1a.5.5,0,0,1,.2-.35,11.81,11.81,0,0,1,1.33-1.29A11.35,11.35,0,0,0,37.65,71a.17.17,0,0,1,.11-.06.58.58,0,0,1,.39-.12,3.29,3.29,0,0,1,1.14.33l.1,0a3.6,3.6,0,0,1,2,2,.22.22,0,0,1-.25.29,4.62,4.62,0,0,0-3.48,2,6.51,6.51,0,0,0,.25.63c.09.2.18.42.24.62a10.14,10.14,0,0,1,.41,1.57,2.62,2.62,0,0,1-.12,1.36,13.43,13.43,0,0,1-.33,2.8,11.37,11.37,0,0,0-.31,3.14,3.61,3.61,0,0,0,1.5,1.57,1.12,1.12,0,0,1,.57.6.17.17,0,0,1,0,.12.93.93,0,0,1,0,.17.89.89,0,0,1-.09.24.16.16,0,0,1-.14.08,1,1,0,0,1-.53.12h-.43a2.53,2.53,0,0,1-1.77-.58,4,4,0,0,1-.88-3l-.11.26-.09.21a10.7,10.7,0,0,0-.49,1.27,2.11,2.11,0,0,0,.3,1.64,1.38,1.38,0,0,1,.61,1,.71.71,0,0,1-.11.55.53.53,0,0,1-.38.19Zm-2-1.59a3.89,3.89,0,0,0,1.08.95l.09.06a1.67,1.67,0,0,0,.85.33.27.27,0,0,0,.2-.09.48.48,0,0,0,.06-.36,1.15,1.15,0,0,0-.53-.87l0,0a2.38,2.38,0,0,1-.34-1.85,11,11,0,0,1,.5-1.3l.09-.21A10,10,0,0,0,36,84a.13.13,0,0,1,.25,0v.33A4.36,4.36,0,0,0,37,87.67a2.3,2.3,0,0,0,1.6.5h.42a.64.64,0,0,0,.42-.1l.06,0a.5.5,0,0,0,0-.13.62.62,0,0,0,0-.09.13.13,0,0,1,0,0c0-.15-.17-.3-.46-.47a3.86,3.86,0,0,1-1.62-1.71v0a11.46,11.46,0,0,1,.31-3.23,13.21,13.21,0,0,0,.33-2.78.15.15,0,0,1,0,0,2.34,2.34,0,0,0,.12-1.25,10,10,0,0,0-.4-1.53c-.06-.2-.15-.39-.24-.6a6.3,6.3,0,0,1-.28-.73.13.13,0,0,1,0-.1l.05,0a4.82,4.82,0,0,1,3.68-2.07,3.34,3.34,0,0,0-1.79-1.81l-.11,0a3.12,3.12,0,0,0-1-.31.3.3,0,0,0-.25.08.13.13,0,0,1-.09,0h0a11.3,11.3,0,0,1-1.49,1.65A11.82,11.82,0,0,0,35,74.08a.28.28,0,0,0-.12.2c0,.23.26.56.47.81l0,0a.12.12,0,0,1,0,.05c0,.15.09.3.13.45a7.87,7.87,0,0,1,.23.88l0,.12a2.43,2.43,0,0,1,0,1.16.46.46,0,0,1-.44.37,1.66,1.66,0,0,1-.81-.38l-.25-.17h-.07a.47.47,0,0,0-.36.13l-.09.07a4.31,4.31,0,0,1-.61.42L33,78.3a1.83,1.83,0,0,0-.3.17.13.13,0,0,1,0,.11c0,.07.07.16.18.23a2.59,2.59,0,0,0,.39.19.17.17,0,0,1,.1.15,5.67,5.67,0,0,1-1.61,2.7l-.17.19a11.25,11.25,0,0,0-2.08,3.25,2.75,2.75,0,0,0-.06,2.51c.14.26.44.62.63.62s.13-.06.19-.18a.07.07,0,0,1,0-.06.57.57,0,0,0,.05-.21,1.73,1.73,0,0,0,0-.36.14.14,0,0,1,0,0v-.06A4.58,4.58,0,0,1,30.92,86a11.64,11.64,0,0,1,.74-1.07l.4-.54a7.54,7.54,0,0,0,.39-.66,3.88,3.88,0,0,1,1.14-1.49.13.13,0,0,1,.14,0c.71.52.33,2,.1,2.84l-.09.36a6.3,6.3,0,0,0-.21,2l0,.21a2,2,0,0,0,.12.67A.12.12,0,0,1,33.68,88.41Z"/><path class="cls-7" d="M37.51,75.35l0,0a4.62,4.62,0,0,0,.16.46c-.07-.11-.14-.22-.22-.32a1.38,1.38,0,0,0-1.51-.72A2.62,2.62,0,0,1,37,73.92a6,6,0,0,0,1.09-.69.06.06,0,0,0,0-.09c-.7-.76-1.63-.26-2.32.24-.26.19-.77.51-.79.89s.44.55.63.8.18.75.26,1.11A4.23,4.23,0,0,1,36.15,78c-.13.57-.58.31-1,0a.35.35,0,0,0,.52-.24,2.64,2.64,0,0,0-.05-1.22c-.08-.45-.24-.88-.36-1.33-.32-.37-.78-.88-.38-1.21a12,12,0,0,1,1.33-1.29A11.4,11.4,0,0,0,37.75,71a0,0,0,0,1,.06,0c.29-.36,1.25.11,1.53.24a3.49,3.49,0,0,1,1.89,1.94c0,.07-.06.15-.12.11A4.7,4.7,0,0,0,37.51,75.35Z"/><path class="cls-7" d="M35.36,86a12.78,12.78,0,0,1,.87-2.52,21.65,21.65,0,0,0,1-3.23,30.58,30.58,0,0,1-.5,3.18A4,4,0,0,0,37,86.27a4.09,4.09,0,0,0,.93,1,2.53,2.53,0,0,0,1,.57.56.56,0,0,0,.61-.32.58.58,0,0,1,.15.28,0,0,0,0,1,0,0,.8.8,0,0,1,0,.15.79.79,0,0,1-.08.21,0,0,0,0,1-.06,0,1.11,1.11,0,0,1-.77.12A2.65,2.65,0,0,1,37,87.76c-1-1-.85-2.39-.84-3.67a9.93,9.93,0,0,1-.36,1C35.62,85.38,35.48,85.7,35.36,86Z"/><path class="cls-7" d="M29.16,86.32a3.5,3.5,0,0,0,.22,1c.09.19.35.68.66.29s.08-.91.24-1.38a14.7,14.7,0,0,1,2.43-3.67,15.76,15.76,0,0,1,2.92-2.29c-.3,1.17-.4,2.28-.82,3.45-.19.53-.34,1.08-.5,1.63a8.06,8.06,0,0,0-.3,1.33,2.1,2.1,0,0,0,.94,2.18c.21.12.67.41.86.09a.46.46,0,0,0,0-.26,1.29,1.29,0,0,1,.23.62c0,.3,0,.57-.38.6a2,2,0,0,1-1-.4,4.09,4.09,0,0,1-1.12-1,.09.09,0,0,1,0-.1,2.93,2.93,0,0,1-.16-.91,6.42,6.42,0,0,1,.21-2.06c.16-.72.78-2.53,0-3.07-.68.41-1.08,1.52-1.49,2.11s-.79,1-1.13,1.6a4.62,4.62,0,0,0-.49,1.55,1.89,1.89,0,0,1,0,.39.67.67,0,0,1-.07.27.09.09,0,0,1,0,0c-.29.65-.87-.1-1-.42A2.33,2.33,0,0,1,29.16,86.32Z"/><g class="cls-8"><path class="cls-9" d="M65.17,84a.65.65,0,0,1,.62-.34,0,0,0,0,1,0,0,.78.78,0,0,0-.46.38c-.09.18,0,.36,0,.55a.06.06,0,0,1-.11,0A.59.59,0,0,1,65.17,84Z"/><path class="cls-9" d="M64.48,83.11s0,.06,0,.07a1,1,0,0,0-.65.39.86.86,0,0,0,0,.73s0,.05-.06,0C63.06,83.89,63.81,82.92,64.48,83.11Z"/><path class="cls-9" d="M62,83.62a1,1,0,0,1,1-.44,0,0,0,0,1,0,.07,1.2,1.2,0,0,0-.67.37.49.49,0,0,0-.14.35c0,.15.13.25.17.39a.05.05,0,0,1-.07.07A.55.55,0,0,1,62,83.62Z"/><path class="cls-9" d="M61.12,83s0,.07,0,.07a.89.89,0,0,0-.65,1.28c0,.07-.07.13-.11.07C60,83.88,60.33,82.87,61.12,83Z"/><path class="cls-9" d="M63.24,86.62a.76.76,0,0,1,.76-.08c.05,0,0,.11,0,.1a.78.78,0,0,0-.58.08c-.17.13-.11.36-.07.54a0,0,0,0,1-.08,0A.47.47,0,0,1,63.24,86.62Z"/><path class="cls-9" d="M61.77,85.81a.44.44,0,0,1,.33-.06,3.42,3.42,0,0,1,.39.06s0,0,0,0-.33,0-.49,0c-.33,0-.32.52-.24.74a0,0,0,0,1,0,0A.6.6,0,0,1,61.77,85.81Z"/><path class="cls-9" d="M59.94,85.13a1.46,1.46,0,0,1,1.42.1s0,.08,0,.07a1.77,1.77,0,0,0-1.13,0c-.44.15-.42.53-.36.91a0,0,0,0,1-.07,0A.73.73,0,0,1,59.94,85.13Z"/><path class="cls-9" d="M58.77,84.26a1.67,1.67,0,0,1,1.52.32s0,.07,0,.06a2.23,2.23,0,0,0-1.15-.2c-.69.06-.67.67-.59,1.2a.05.05,0,0,1-.1,0C58.18,85.15,58.16,84.51,58.77,84.26Z"/><path class="cls-9" d="M57.54,83.66a1.62,1.62,0,0,1,1.37.12.84.84,0,0,1-.1-.51.63.63,0,0,1,.27-.42,1.58,1.58,0,0,1,.93,0,0,0,0,0,1,0,0c-.22.06-.45,0-.67.08s-.31.56-.3.87a3.57,3.57,0,0,1,.44.29,0,0,0,0,1,0,0,3.06,3.06,0,0,0-1.39-.34c-.57,0-1,.36-.84,1,0,0,0,.05-.06,0A.72.72,0,0,1,57.54,83.66Z"/><path class="cls-9" d="M57.94,82.59a.82.82,0,0,1,.79,0s0,.05,0,.05a1.36,1.36,0,0,0-.59.09c-.23.1-.17.28-.17.49a0,0,0,0,1-.07,0A.38.38,0,0,1,57.94,82.59Z"/><path class="cls-9" d="M54,82.24a.86.86,0,0,1,.91,0,1.19,1.19,0,0,1,.51.76l.19-.07a2.2,2.2,0,0,1,2.39.42s0,0,0,0c-1.11-.68-3.15-.47-3.46,1a0,0,0,0,1-.08,0,1.34,1.34,0,0,1,.9-1.32,1.32,1.32,0,0,0-.54-.59c-.27-.12-.51,0-.79-.08A0,0,0,0,1,54,82.24Z"/><path class="cls-9" d="M55.82,83.93c.54,0,.69.46.66.92a0,0,0,0,1-.1,0c-.06-.35-.13-.6-.52-.63a1.42,1.42,0,0,0-.55.06c-.2.07-.23.31-.29.48s-.07,0-.08,0C54.9,84.17,55.28,83.92,55.82,83.93Z"/><path class="cls-9" d="M56,85a.68.68,0,0,1,.72.6,0,0,0,0,1-.07,0c-.17-.21-.23-.43-.55-.39s-.35.18-.4.43a.06.06,0,0,1-.12,0C55.39,85.3,55.64,85,56,85Z"/><path class="cls-9" d="M56.52,86.22c.37,0,.56.24.67.56a0,0,0,1,1,0,0,.55.55,0,0,0-.46-.36c-.2,0-.48.06-.53.28a0,0,0,0,1-.07,0C56,86.41,56.24,86.24,56.52,86.22Z"/><path class="cls-9" d="M56.42,87.59a.44.44,0,0,1,.37-.14c.34,0,.59.18.51.53,0,0-.06,0-.06,0,0-.29-.23-.33-.48-.31s-.21.14-.28.31a0,0,0,0,1-.06,0A.41.41,0,0,1,56.42,87.59Z"/><path class="cls-9" d="M52.88,83.68a.57.57,0,0,1,.8-.06,1.17,1.17,0,0,1,.35.72,0,0,0,0,1-.06,0c-.11-.14-.16-.31-.27-.45a.75.75,0,0,0-.32-.18.66.66,0,0,0-.46,0S52.86,83.71,52.88,83.68Z"/><path class="cls-9" d="M52.56,84.2c.32-.39.83.08.85.46,0,.06-.08.09-.1,0a.57.57,0,0,0-.69-.42S52.53,84.24,52.56,84.2Z"/><path class="cls-9" d="M55.62,81.24s0,0,0,0c.12.3.12.47.5.51a2.53,2.53,0,0,0,.64,0c.22,0,.23-.2.28-.38a0,0,0,0,1,.06,0c0,.17.05.32-.08.45s-.53.16-.76.15a.8.8,0,0,1-.62-.19C55.58,81.65,55.64,81.39,55.62,81.24Z"/><path class="cls-9" d="M55.65,80.46c0-.06.1,0,.12,0s.11.28.31.31a2.4,2.4,0,0,0,.45,0c.12,0,.33,0,.42-.1a1.29,1.29,0,0,0,.16-.41.06.06,0,0,1,.11,0,.9.9,0,0,1-.19.53c-.13.15-.38.15-.57.18C56.08,81.06,55.51,81,55.65,80.46Z"/><path class="cls-9" d="M55.72,78.91c.14.2.24.34.5.37a1.8,1.8,0,0,0,.44,0,1.78,1.78,0,0,0,.47-.11c.17-.07.18-.22.26-.36a0,0,0,0,1,.08,0c.33.66-1.69,1.28-1.82.15C55.64,78.9,55.69,78.87,55.72,78.91Z"/><path class="cls-9" d="M55.53,76.86s.07-.08.1,0a1,1,0,0,0,1,.35c.45,0,.88,0,1.13-.43,0,0,.1,0,.1,0-.08.59-.64.66-1.14.68S55.44,77.47,55.53,76.86Z"/><path class="cls-9" d="M38,87.17a1,1,0,0,1,1,0,0,0,0,0,1,0,.07c-.3,0-.53-.11-.82,0a1.16,1.16,0,0,0-.51.6,0,0,0,0,1-.08,0A.82.82,0,0,1,38,87.17Z"/><path class="cls-9" d="M37,86c.35-.24.67,0,.9.27,0,0,0,.07,0,0a.59.59,0,0,0-.86,0,1,1,0,0,0-.33.71,0,0,0,0,1-.05,0C36.69,86.61,36.67,86.28,37,86Z"/><path class="cls-9" d="M37,84.42c.36,0,.43.31.39.61a0,0,0,0,1-.06,0c0-.21-.1-.39-.34-.4a.84.84,0,0,0-.75.48,0,0,0,1,1,0,0A.81.81,0,0,1,37,84.42Z"/><path class="cls-9" d="M37.15,83a.43.43,0,0,1,.35.65s-.06,0-.07,0c0-.24,0-.42-.32-.41a.89.89,0,0,0-.79.38,0,0,0,0,1-.06,0A.8.8,0,0,1,37.15,83Z"/><path class="cls-9" d="M34,82.58c.36-.56,1.15-.47,1.7-.29s.73.7.41,1.25a0,0,0,0,1-.05,0c0-.17.07-.33.09-.5,0-.33-.41-.47-.64-.55-.4-.14-1.13-.22-1.43.16A.05.05,0,0,1,34,82.58Z"/><path class="cls-9" d="M34.11,83.81c.26-.33.95-.13,1.28,0,.49.16.43.54.33.95a0,0,0,0,1,0,0,.62.62,0,0,0-.44-.76,2,2,0,0,0-1.1-.12A0,0,0,0,1,34.11,83.81Z"/><path class="cls-9" d="M33.75,85.56c.14-.46.87-.4,1.21-.31s.31.5.19.84c0,0-.1,0-.09,0s0-.25.07-.37-.12-.2-.24-.23a1.69,1.69,0,0,0-.51,0,.84.84,0,0,0-.52.21A.07.07,0,0,1,33.75,85.56Z"/><path class="cls-9" d="M33.59,87.14c.27-.51,1.53-.8,1.4.07a0,0,0,0,1-.06,0,2.14,2.14,0,0,0-.12-.28c-.07-.1-.25-.08-.34-.07a1.18,1.18,0,0,0-.78.34S33.56,87.2,33.59,87.14Z"/><path class="cls-9" d="M34.6,88c.29-.14.53,0,.75.2,0,0,0,.07,0,.06a.76.76,0,0,0-.64-.08.72.72,0,0,0-.45.52s-.05,0-.05,0A.77.77,0,0,1,34.6,88Z"/><path class="cls-9" d="M32.14,81.55c.2-.28.57-.09.76.1a1,1,0,0,1,0,1.14,0,0,0,0,1-.05,0c.15-.55-.06-1.17-.7-1.16A0,0,0,0,1,32.14,81.55Z"/><path class="cls-9" d="M31.66,82.86c.51.27.53.77.41,1.28,0,0-.06,0-.06,0a1.09,1.09,0,0,0-.36-1,1,1,0,0,0-.41-.15c-.15,0-.24.05-.36.12a0,0,0,0,1-.07,0C30.76,82.61,31.44,82.74,31.66,82.86Z"/><path class="cls-9" d="M29.9,84.68a.68.68,0,0,1,1-.32c.36.19.36.68.34,1,0,0-.05,0-.05,0a1.31,1.31,0,0,0-.25-.73c-.27-.34-.68-.1-1,.07C29.92,84.75,29.89,84.71,29.9,84.68Z"/><path class="cls-9" d="M30.07,85.84a1,1,0,0,1,.52,1s-.07,0-.07,0a1.06,1.06,0,0,0-.35-.69.5.5,0,0,0-.71,0,0,0,0,0,1-.06,0C29.36,85.77,29.79,85.72,30.07,85.84Z"/><path class="cls-9" d="M36.65,81.23c.3,0,.58-.21.88-.25s.61.11.56.38a.09.09,0,0,1-.12.07c-.1,0-.14-.09-.22-.15a.74.74,0,0,0-.4-.07c-.24,0-.47.06-.71.05C36.64,81.25,36.64,81.23,36.65,81.23Z"/><path class="cls-9" d="M33.57,80.08a1.2,1.2,0,0,1,1.32.12,3,3,0,0,1,.59.62c.2.24.28.43.61.58.15.07.3.09.45.16s0,.05,0,0a1.76,1.76,0,0,1-1.1-.51,9,9,0,0,0-.7-.68,1.87,1.87,0,0,0-1.16-.28S33.55,80.1,33.57,80.08Z"/><path class="cls-9" d="M32.9,80.71c.24-.37.78-.05,1,.15a1.3,1.3,0,0,1,.55,1.07s0,0,0,0a1.47,1.47,0,0,0-1.49-1.15A0,0,0,0,1,32.9,80.71Z"/><path class="cls-9" d="M33.71,78.06a1.37,1.37,0,0,1,1.3.55c.35.35.77,1.43,1.3,1.45s1.68-.29,1.88.39c0,0,0,0,0,0-.45-.69-1.54.15-2.15-.13a1.39,1.39,0,0,1-.63-.69A3.51,3.51,0,0,0,33.7,78.1S33.68,78.07,33.71,78.06Z"/><path class="cls-9" d="M36,78a2,2,0,0,1,1.73-.14,1.13,1.13,0,0,1,.51,1.29,0,0,0,0,1,0,0c0-1.2-1.27-1.24-2.18-1.1C36,78.09,36,78.06,36,78Z"/><path class="cls-9" d="M36,76.47a1.25,1.25,0,0,1,2.06.76s0,0,0,0a1,1,0,0,0-.82-.71,2.24,2.24,0,0,0-1.14.05A.07.07,0,0,1,36,76.47Z"/><path class="cls-9" d="M35.81,74.49a1.27,1.27,0,0,1,1.87.37.12.12,0,0,1-.18.15c-.21-.14-.37-.32-.59-.45a1.12,1.12,0,0,0-1.08,0A0,0,0,0,1,35.81,74.49Z"/><path class="cls-9" d="M35.95,73.3a1.45,1.45,0,0,1,1.58-.1c.39.2,1,.72.69,1.19a.1.1,0,0,1-.19,0,1.42,1.42,0,0,0-.73-1,1.4,1.4,0,0,0-1.32,0A0,0,0,0,1,35.95,73.3Z"/></g><path class="cls-10" d="M62.6,83.21c.39,0,.78-.08,1.18-.09a4,4,0,0,1,1,0,2.12,2.12,0,0,1,.91.56c.27.24.6.41.86.65,0,0,0,0,0,0-.27-.17-.56-.31-.84-.49a3.85,3.85,0,0,0-.9-.53,9,9,0,0,0-2.19-.1S62.58,83.21,62.6,83.21Z"/><path class="cls-10" d="M57.51,81.94a3.76,3.76,0,0,0,2,.83,12.21,12.21,0,0,0,2.48.35s0,0,0,0A8.78,8.78,0,0,1,59.43,83a7.87,7.87,0,0,1-1.28-.46,1.36,1.36,0,0,1-.68-.53S57.49,81.93,57.51,81.94Z"/><path class="cls-10" d="M60.68,84.8c.73.3,1.38.75,2.1,1.07a3.46,3.46,0,0,1,1.7,1.2s0,0,0,0A5.32,5.32,0,0,0,62.7,86c-.7-.36-1.33-.86-2-1.21A0,0,0,0,1,60.68,84.8Z"/><path class="cls-10" d="M57.23,82.61a5.82,5.82,0,0,0,1.57,1.19c.55.33,1.11.62,1.66.95,0,0,0,0,0,0-1.14-.52-2.6-1-3.24-2.14C57.19,82.61,57.22,82.59,57.23,82.61Z"/><path class="cls-10" d="M56,83.82a17.92,17.92,0,0,0,1.09,2.74,2.31,2.31,0,0,1,.22,1.06c0,.46,0,.92,0,1.38,0,0,0,0,0,0a11.61,11.61,0,0,1-.15-1.28,3.38,3.38,0,0,0-.33-1.26A8.85,8.85,0,0,1,56,83.83S56,83.81,56,83.82Z"/><path class="cls-10" d="M53.06,83.41a4.65,4.65,0,0,1,.32-.63A2.43,2.43,0,0,1,54.78,82s0,0,0,0a2.58,2.58,0,0,0-1.32.9,5.9,5.9,0,0,0-.32.68,3.51,3.51,0,0,1-.42.59,0,0,0,0,1,0,0A5.85,5.85,0,0,1,53.06,83.41Z"/><path class="cls-10" d="M56.9,79.84c.05-.47.13-.94.21-1.41a7,7,0,0,1,.27-1.24,0,0,0,0,1,.07,0,3.72,3.72,0,0,1-.1,1.15c-.08.43-.15.86-.22,1.3s-.11.82-.17,1.23a3,3,0,0,0,0,1.22s0,0,0,0A3.92,3.92,0,0,1,56.9,79.84Z"/><path class="cls-10" d="M36.09,73.33a3.37,3.37,0,0,1,1.47-.44s0,0,0,0a4.45,4.45,0,0,0-1.25.49,3.22,3.22,0,0,0-1.12.9,0,0,0,0,1-.07,0C35.21,73.83,35.71,73.54,36.09,73.33Z"/><path class="cls-10" d="M37.63,76.4a3.9,3.9,0,0,0-.86-1.46,2,2,0,0,1,.34.22,4.34,4.34,0,0,1,1.08,2.22,2.46,2.46,0,0,1,.11,1.78l-.12.19A6.42,6.42,0,0,0,37.63,76.4Z"/><path class="cls-10" d="M32.82,78.33c.32-.09.92-.68,1.3-.79s.58.35,1.48.69L34.85,78c-.35-.14-.61-.27-1-.1s-.92.69-1.21.55C32.63,78.42,32.79,78.34,32.82,78.33Z"/><path class="cls-10" d="M30.9,82.92c.88-1.13,1.91-1.5,2.54-2.81.26-.53.25-.47.06,0-.47,1.27-1.38,1.67-2.25,2.67a8.81,8.81,0,0,0-1.19,1.83,8.62,8.62,0,0,0-.38.9,4.24,4.24,0,0,0-.19,1.26,0,0,0,0,1,0,0A5.53,5.53,0,0,1,30.9,82.92Z"/><path class="cls-10" d="M34.94,85.8a19.16,19.16,0,0,1,.72-1.91c.25-.7.56-1.58.84-2.27.14-.34.4-1.6.12-.17a36,36,0,0,1-1.29,4,3.35,3.35,0,0,0-.25,1.61,3.24,3.24,0,0,0,.63,1.6s0,.23,0,.19a6.66,6.66,0,0,1-.78-1.41A3,3,0,0,1,34.94,85.8Z"/><path class="cls-10" d="M37.34,84.71a18.07,18.07,0,0,1,.34-2.22c.16-.91.33-1.49.45-2.4,0,0,.07-.72.08-.45a33.68,33.68,0,0,1-.65,4.7,2.7,2.7,0,0,0,.21,1.59,3.18,3.18,0,0,0,.68.85,5.3,5.3,0,0,0,.8.67s0,0,0,0a4.63,4.63,0,0,1-.79-.53,3.09,3.09,0,0,1-.73-.7A2.42,2.42,0,0,1,37.34,84.71Z"/><path class="cls-11" d="M75.86,55.42a0,0,0,0,0,0,0,15.54,15.54,0,0,0-4.61-7.13l-.78-.69A114.3,114.3,0,0,1,66,29.67c1.2-1,1.44-1.12,2.65-2.07a7.75,7.75,0,0,0,2-2.21,10,10,0,0,0,1.43-8.3c-.77-2.69-3-5.78-6-6.16h0a1,1,0,0,0-.28-.12,0,0,0,0,0,0,0,1.48,1.48,0,0,1,.3.3,5.76,5.76,0,0,0-2.66-.9,1.6,1.6,0,0,0-1-.09s0,.06,0,.07a4.31,4.31,0,0,1,1.2.47h0a8.17,8.17,0,0,0-1.92-.49,6.47,6.47,0,0,0-4.07.95,2.17,2.17,0,0,0-.54.29,0,0,0,0,0,0,.06c.23-.05.45-.13.68-.17l.1,0a7.37,7.37,0,0,0-1.66,1.22A22.51,22.51,0,0,0,53.88,15a7.37,7.37,0,0,0-1.71,6.58,30.13,30.13,0,0,0,3.38,7.25,16.31,16.31,0,0,1,1.55,4.24c.07.26.33,2.26.66,4.8.14,3.92.28,8.49.11,8.78a4.44,4.44,0,0,1-.88,1.1l-.31.26a19,19,0,0,0-4.91-2.35,8,8,0,0,0-5.14-.25c-1,.34-1.86.8-2.78,1.22S42,47.56,41,48.05s-1.72,1-2.61,1.4c-.64-.32-1.07-.9-1.82-1a13.4,13.4,0,0,0-2.54-.06c-.64,0-1.28,0-1.92.09a11,11,0,0,1-1-.5,10.2,10.2,0,0,0-2-.37,34.25,34.25,0,0,0-4.42-.07l0,0c-.06,0-.13,0-.09.1l0,0a.09.09,0,0,0,.06.12h0c.37.47.77.92,1.13,1.39.12.15.24.31.36.46a5.54,5.54,0,0,0-1.36.16c-.55.14-1,.48-1.58.62l-.19,0a1.36,1.36,0,0,1-.87-.52c-.37-.49.48-1,.73-.63s.28.43.12.61a2.12,2.12,0,0,1-.41.06c-.05,0,0,.08,0,.09.44.08.88.14,1.09-.34s.33-.94-.08-1.29a8.47,8.47,0,0,0-.91-.66,1,1,0,0,0-.7-.22,2.59,2.59,0,0,0-1.29,1,3.68,3.68,0,0,0-.83,2c0,.62.76,1.16,1.21,1.49l.22.16-.4.1h0s-.07,0-.08,0h0a0,0,0,0,0,0,.08h0a5.51,5.51,0,0,0,1.83,2l-.44.06c-.06,0-.05.1,0,.11h0a8.18,8.18,0,0,0,3.06,3.09l.49.3c.68,1.21,1.43,2.37,2.17,3.54a24.8,24.8,0,0,0,2.82,4A33.4,33.4,0,0,0,37.19,71l0,0a2.41,2.41,0,0,1-.41.53.06.06,0,0,0,0,.1l.07,0,.44.07a2.55,2.55,0,0,1-.56.31s0,.06,0,.07l.09,0a0,0,0,0,0,0,0c.51.28,1.08.44,1.61.69.16.07.34.17.52.25a.89.89,0,0,1-.3.27.06.06,0,0,0,0,.11h.06a.06.06,0,0,0,.05,0c.33,0,.67,0,1,.06a1.47,1.47,0,0,1-.24.24.07.07,0,0,0,.06.12l.09,0a17.85,17.85,0,0,1,2.79.09l1.1.66c.7.43,1.41.88,2.14,1.27a10.22,10.22,0,0,0,3.87,1.17,11.52,11.52,0,0,0,5.56-1.05,1.52,1.52,0,0,1-.12.84,0,0,0,0,0,.05,0l.1-.12a1.46,1.46,0,0,0,.71-.37,2.58,2.58,0,0,0,.42-.44,7.34,7.34,0,0,0,2,.35.07.07,0,0,0,.06,0,0,0,0,0,0,.05,0,4.07,4.07,0,0,0,0-.53l.6.29h0a0,0,0,0,0,.07,0,0,0,0,0,0,0-.06h0c0-.31,0-.63,0-.94.37-.28.69-.64,1.06-.92a8,8,0,0,1,.73-.5A16.91,16.91,0,0,0,66.69,71a29.11,29.11,0,0,0,4.88-4.19,22.69,22.69,0,0,0,3.52-5.44,10.26,10.26,0,0,0,1.08-3.55h0A5.45,5.45,0,0,0,75.86,55.42Z"/><path class="cls-12" d="M50.45,77.27c-.27,0-.53,0-.79,0A10.41,10.41,0,0,1,45.74,76c-.65-.34-1.28-.73-1.88-1.11l-.26-.16-.77-.46-.31-.18c-.59-.06-1.28-.11-2-.11l-.73,0-.09,0h0a.2.2,0,0,1-.19-.14.19.19,0,0,1,.07-.21l0,0c-.25,0-.48,0-.72,0h0a.2.2,0,0,1-.11,0h0a.19.19,0,0,1-.16-.16.19.19,0,0,1,.1-.2.63.63,0,0,0,.15-.11l-.2-.1L38.42,73c-.22-.1-.45-.19-.68-.28a7.89,7.89,0,0,1-.94-.41l0,0-.06,0a.17.17,0,0,1-.1-.17.16.16,0,0,1,.11-.15A1.21,1.21,0,0,0,37,71.8h-.13a.18.18,0,0,1-.16-.32,2.1,2.1,0,0,0,.34-.42,34.23,34.23,0,0,1-6.32-5.47,20.39,20.39,0,0,1-2.41-3.32l-.42-.67-.26-.41c-.64-1-1.3-2-1.9-3.1l-.46-.28a8.19,8.19,0,0,1-3.09-3.1.18.18,0,0,1-.09-.15.17.17,0,0,1,.15-.18h.1a6.06,6.06,0,0,1-1.54-1.83.17.17,0,0,1-.14-.14.17.17,0,0,1,.1-.19.18.18,0,0,1,.17,0l.09,0c-.46-.34-1.24-.91-1.25-1.58a3.76,3.76,0,0,1,.86-2.12,2.69,2.69,0,0,1,1.36-1,1.19,1.19,0,0,1,.8.24,8.2,8.2,0,0,1,.93.68c.57.47.23,1.2.12,1.44a.76.76,0,0,1-.75.47,2.41,2.41,0,0,1-.39,0,1.51,1.51,0,0,0,.36.12l.17,0a4.11,4.11,0,0,0,.78-.3,4.29,4.29,0,0,1,.8-.31,5.44,5.44,0,0,1,1.13-.16l-.18-.23,0,0c-.19-.26-.41-.51-.61-.76l-.49-.6h0a.22.22,0,0,1-.14-.11.22.22,0,0,1,0-.1.2.2,0,0,1,0-.18.19.19,0,0,1,.29-.07h0c.67,0,1.35,0,2,0a22.92,22.92,0,0,1,2.36.11,10.49,10.49,0,0,1,2,.38,2.44,2.44,0,0,1,.49.25,1.86,1.86,0,0,0,.52.24c.57,0,1.18-.07,1.91-.09h.35l.92,0a7.85,7.85,0,0,1,1.29.09,2.76,2.76,0,0,1,1.21.62,4.6,4.6,0,0,0,.59.4c.62-.3,1.22-.64,1.81-1l.73-.4c.81-.44,1.71-.88,2.81-1.39l.69-.32a22.18,22.18,0,0,1,2.11-.91,6.12,6.12,0,0,1,2-.34,10.38,10.38,0,0,1,3.19.58,19.22,19.22,0,0,1,4.86,2.31l.23-.2a4.26,4.26,0,0,0,.85-1.07c.16-.38,0-6.22-.13-8.71-.28-2.16-.59-4.51-.66-4.78a16.21,16.21,0,0,0-1.53-4.21l-.28-.49A28,28,0,0,1,52,21.64a7.5,7.5,0,0,1,1.74-6.69,22.62,22.62,0,0,1,2.38-2.48,9.27,9.27,0,0,1,1-.81h0a.16.16,0,0,1-.09-.29,2.28,2.28,0,0,1,.55-.31,6.39,6.39,0,0,1,3.55-1l.6,0a4.38,4.38,0,0,1,.54.08.17.17,0,0,1,.12-.14,1.72,1.72,0,0,1,1,.09,6.33,6.33,0,0,1,2.21.63.16.16,0,0,1,.17-.07,1.13,1.13,0,0,1,.29.12c2.95.4,5.29,3.44,6.09,6.25a10.07,10.07,0,0,1-1.45,8.4,7.94,7.94,0,0,1-2,2.24l-1.12.87c-.43.33-.8.62-1.48,1.16a115.72,115.72,0,0,0,4.41,17.77l.07.06.69.62a15.83,15.83,0,0,1,4.63,7.14l0,.06a5.62,5.62,0,0,1,.32,2.42v0h0a10.29,10.29,0,0,1-1.09,3.6,22.53,22.53,0,0,1-3.54,5.47,28.73,28.73,0,0,1-4.9,4.21,17,17,0,0,1-5.68,2.67c-.25.15-.48.31-.7.48s-.36.3-.53.46-.32.29-.48.43v.14c0,.23,0,.47,0,.71a.16.16,0,0,1,0,.13.17.17,0,0,1-.12.09.18.18,0,0,1-.21-.07L58.66,76h0c0,.11,0,.22,0,.34a.18.18,0,0,1-.12.15.19.19,0,0,1-.12,0,7.4,7.4,0,0,1-1.94-.33,3.09,3.09,0,0,1-.39.39,1.61,1.61,0,0,1-.73.39l-.08.1a.2.2,0,0,1-.11,0A.17.17,0,0,1,55,77a.15.15,0,0,1,0-.15,1.25,1.25,0,0,0,.12-.6A12,12,0,0,1,50.45,77.27Zm-9.93-3.51c.73,0,1.45.06,2,.11l.05,0,.34.2.77.46.26.16c.61.38,1.23.77,1.87,1.1A10.09,10.09,0,0,0,49.68,77a11.31,11.31,0,0,0,5.5-1,.13.13,0,0,1,.12,0,.12.12,0,0,1,.06.1,1.86,1.86,0,0,1,0,.63,1.44,1.44,0,0,0,.57-.32,2.42,2.42,0,0,0,.4-.42.13.13,0,0,1,.14,0,7.16,7.16,0,0,0,1.93.35h0a4.26,4.26,0,0,0,0-.46.13.13,0,0,1,.06-.11.13.13,0,0,1,.13,0l.21.1.31.15c0-.21,0-.42,0-.63v-.2a.13.13,0,0,1,.05-.1c.18-.14.35-.29.51-.45s.36-.33.55-.47a8.87,8.87,0,0,1,.74-.5h0a16.7,16.7,0,0,0,5.62-2.64,28.44,28.44,0,0,0,4.86-4.18A22.22,22.22,0,0,0,75,61.3,10,10,0,0,0,76,57.79v0a5.39,5.39,0,0,0-.29-2.28.14.14,0,0,1,0-.07,15.55,15.55,0,0,0-4.57-7.07l-.69-.61-.09-.08a.13.13,0,0,1,0-.05,114.54,114.54,0,0,1-4.44-17.94.13.13,0,0,1,0-.1c.72-.58,1.09-.87,1.54-1.21l1.12-.86a7.58,7.58,0,0,0,1.93-2.17,9.82,9.82,0,0,0,1.42-8.2c-.77-2.71-3-5.65-5.8-6.06h0a.13.13,0,0,1-.17.18,5.6,5.6,0,0,0-2.6-.88h0a1.76,1.76,0,0,0-.37-.1,3.18,3.18,0,0,1,.71.33.13.13,0,0,1,.07.17.13.13,0,0,1-.16.08l-.12,0a7.59,7.59,0,0,0-1.77-.45l-.58,0a6.18,6.18,0,0,0-3.34.9l.1,0a.13.13,0,0,1,.08.24,7.14,7.14,0,0,0-1.63,1.2A22.62,22.62,0,0,0,54,15.1a7.17,7.17,0,0,0-1.69,6.47,27.79,27.79,0,0,0,3.09,6.72l.28.49a16.44,16.44,0,0,1,1.56,4.27c.07.26.31,2,.67,4.82.22,6.21.24,8.61.09,8.86a4.54,4.54,0,0,1-.9,1.13l-.31.26a.12.12,0,0,1-.15,0,18.83,18.83,0,0,0-4.88-2.33,10.13,10.13,0,0,0-3.11-.57,5.88,5.88,0,0,0-2,.32,22.36,22.36,0,0,0-2.08.9l-.69.32c-1.1.5-2,.94-2.79,1.38l-.73.4c-.61.34-1.24.69-1.88,1a.14.14,0,0,1-.11,0,4.58,4.58,0,0,1-.69-.45,2.52,2.52,0,0,0-1.1-.57,7.69,7.69,0,0,0-1.25-.09l-.92,0h-.36c-.73,0-1.34.05-1.91.1h0a2,2,0,0,1-.62-.28,2.12,2.12,0,0,0-.44-.22,10.21,10.21,0,0,0-2-.37,22.83,22.83,0,0,0-2.34-.1c-.66,0-1.34,0-2,0h0l.51.63c.21.25.42.5.62.77l0,0c.11.14.22.29.33.42a.13.13,0,0,1-.1.21h0a5.4,5.4,0,0,0-1.33.16,4.16,4.16,0,0,0-.75.3,4.38,4.38,0,0,1-.83.32l-.19,0H23a1.48,1.48,0,0,1-.95-.57.51.51,0,0,1-.06-.56.76.76,0,0,1,.64-.39.43.43,0,0,1,.35.16c.3.39.23.63.12.76a.49.49,0,0,0,.47-.32c.25-.55.24-.9-.05-1.14a8.2,8.2,0,0,0-.9-.65.94.94,0,0,0-.6-.21,2.43,2.43,0,0,0-1.22.94,3.53,3.53,0,0,0-.81,2c0,.56.76,1.1,1.15,1.39l.22.16a.13.13,0,0,1,0,.23l-.33.08a5.31,5.31,0,0,0,1.75,1.94.13.13,0,0,1,.06.14.13.13,0,0,1-.11.1l-.3,0a8,8,0,0,0,3,3l.48.3,0,0C26.51,59,27.18,60,27.82,61l.26.41.42.67a19.87,19.87,0,0,0,2.38,3.28,33.54,33.54,0,0,0,6.37,5.5.13.13,0,0,1,0,.16v0a3,3,0,0,1-.32.44l.36.06a.13.13,0,0,1,0,.23l-.1.06-.31.18a7.82,7.82,0,0,0,.86.37c.23.09.46.18.69.29l.17.08L39,73a.13.13,0,0,1,.06.2,1.26,1.26,0,0,1-.2.22c.27,0,.55,0,.82,0h.15a.13.13,0,0,1,.11.08.13.13,0,0,1,0,.13l-.11.13ZM22.65,49.27a.51.51,0,0,0-.42.25.25.25,0,0,0,0,.29,1.14,1.14,0,0,0,.18.19.17.17,0,0,1,0-.05.16.16,0,0,1,.15-.15h.07l.27,0c.06-.11,0-.29-.14-.42A.18.18,0,0,0,22.65,49.27Z"/><path class="cls-13" d="M75.86,55.42a0,0,0,0,0,0,0,15.54,15.54,0,0,0-4.61-7.13l-.78-.69A114.3,114.3,0,0,1,66,29.67c1.2-1,1.44-1.12,2.65-2.07a7.75,7.75,0,0,0,2-2.21,10,10,0,0,0,1.43-8.3L72,16.86a2.53,2.53,0,0,1-.32.67,1.53,1.53,0,0,1-.87.6c-.64.15-1.15-.24-1.79-.24a6.22,6.22,0,0,0-4.19,2,.13.13,0,0,1-.2,0,8.92,8.92,0,0,0-.87-1.14A4.74,4.74,0,0,1,64,20.05a.13.13,0,0,1-.22.09c-.87-.92-1.78-2.15-3.09-2.43a4.06,4.06,0,0,0-2.66.36c.55,0,1.1,0,1.65.08a4,4,0,0,1,1.71.7c.65.43,1.6,1.22,1,2.07-.36.48-1,.87-1,1.52a4.31,4.31,0,0,0,.81,2.43,9.07,9.07,0,0,0,1.3,1.69,3.13,3.13,0,0,1,.88,1c.65,1.69-4.3,1-5,.75a8.44,8.44,0,0,1-3.63-2,8,8,0,0,1-1.6-2.52,9.88,9.88,0,0,0,.65,2.07c.05.12-.09.27-.2.15a9.86,9.86,0,0,1-2.38-4.93A8.82,8.82,0,0,1,52,19.37a6.53,6.53,0,0,0,.19,2.24,30.13,30.13,0,0,0,3.38,7.25,16.31,16.31,0,0,1,1.55,4.24c0,.18.18,1.16.37,2.58-.05-1.26-.11-2.51-.14-3.77a.13.13,0,0,1,.22-.09,5,5,0,0,1,1.23,2.69A20.78,20.78,0,0,1,59,32.31c0-.13.21-.11.25,0,.29,1,.55,2.1.94,3.12A7.06,7.06,0,0,1,61,33c.06-.12.22,0,.24.07.33,2.79,1.78,5.21,3,7.71a52.14,52.14,0,0,1,2.71,7.58.13.13,0,0,1-.21.12,5.52,5.52,0,0,0-2.16-1.31,21.45,21.45,0,0,1,5,6.1,6.09,6.09,0,0,1,.56,3.26c0,.15,0,.3,0,.45.1-.31.18-.62.24-.88a19,19,0,0,0,.45-2.47c0-.13.21-.18.25,0A19,19,0,0,1,71.86,58a7.07,7.07,0,0,1-1.09,3.88c-1.2,1.92-3,3.17-4.68,4.58-.47.39-2.72,2.58-3.38,1.76a4.22,4.22,0,0,1-.56-2c0-.2,0-.39-.07-.59a11,11,0,0,1-6.51,4.27.13.13,0,0,1-.1-.23,5.88,5.88,0,0,0,2-2.31,21.21,21.21,0,0,1-6.6,4,22.71,22.71,0,0,1-7.9,1.27c-1.25,0-4.42.12-4-1.92a9.08,9.08,0,0,1,1.56-3.1c.74-1.1,1.61-2.09,2.4-3.16a15.93,15.93,0,0,0-4.81,3.71.12.12,0,0,1-.15,0,27.59,27.59,0,0,1-3.29-2.56,15.45,15.45,0,0,0,2.17,2.61c.11.1,0,.26-.15.2a35.59,35.59,0,0,1-5.89-3.42c-.36-.28-.7-.57-1-.87A12.74,12.74,0,0,0,30.8,65.5,33.4,33.4,0,0,0,37.19,71l0,0a2.41,2.41,0,0,1-.41.53.06.06,0,0,0,0,.1l.07,0,.44.07a2.55,2.55,0,0,1-.56.31s0,.06,0,.07l.09,0a0,0,0,0,0,0,0c.51.28,1.08.44,1.61.69.16.07.34.17.52.25a.89.89,0,0,1-.3.27.06.06,0,0,0,0,.11h.06a.06.06,0,0,0,.05,0c.33,0,.67,0,1,.06a1.47,1.47,0,0,1-.24.24.07.07,0,0,0,.06.12l.09,0a17.85,17.85,0,0,1,2.79.09l1.1.66c.7.43,1.41.88,2.14,1.27a10.22,10.22,0,0,0,3.87,1.17,11.52,11.52,0,0,0,5.56-1.05,1.52,1.52,0,0,1-.12.84,0,0,0,0,0,.05,0l.1-.12a1.46,1.46,0,0,0,.71-.37,2.58,2.58,0,0,0,.42-.44,7.34,7.34,0,0,0,2,.35.07.07,0,0,0,.06,0,0,0,0,0,0,.05,0,4.07,4.07,0,0,0,0-.53l.6.29h0a0,0,0,0,0,.07,0,0,0,0,0,0,0-.06h0c0-.31,0-.63,0-.94.37-.28.69-.64,1.06-.92a8,8,0,0,1,.73-.5A16.91,16.91,0,0,0,66.69,71a29.11,29.11,0,0,0,4.88-4.19,22.69,22.69,0,0,0,3.52-5.44,10.26,10.26,0,0,0,1.08-3.55h0A5.45,5.45,0,0,0,75.86,55.42Z"/><path class="cls-13" d="M19.88,50.53a3.68,3.68,0,0,1,.83-2,2.59,2.59,0,0,1,1.29-1,1,1,0,0,1,.7.22,8.47,8.47,0,0,1,.91.66c.42.35.28.86.08,1.29s-.65.42-1.09.34c0,0-.06-.08,0-.09a2.12,2.12,0,0,0,.41-.06c.16-.17,0-.42-.12-.61s-1.1.14-.73.63a1.36,1.36,0,0,0,.87.52l.19,0a3.07,3.07,0,0,0,.46-.16,3.09,3.09,0,0,0,.7,1.15,10.29,10.29,0,0,0,1.31,1.54,5.27,5.27,0,0,0,2.89.93,6.83,6.83,0,0,0,.87,2A19.82,19.82,0,0,0,30.89,58a12.94,12.94,0,0,0,2,2.08l.49.37a30.67,30.67,0,0,1-3.88-1,15.89,15.89,0,0,1-5.64-2.72,14.22,14.22,0,0,0,1.66.89,24.58,24.58,0,0,0,2.74,1,14.39,14.39,0,0,0,1.87.4c1.28.28.63-.48.6-.52a3.65,3.65,0,0,0-1.31-1.24A12.05,12.05,0,0,0,27.24,56a20.39,20.39,0,0,0-2.58-1c-.81-.22-1.64-.39-2.46-.55a0,0,0,0,1,0,0l.44-.06A5.21,5.21,0,0,1,21,52.57c2.43,2.08,5.3,2.48,6.38,2.91.45.18,1.52.37,1.26-.08a3.1,3.1,0,0,1-.46-1.46.06.06,0,0,0,0-.06,9.07,9.07,0,0,1-2.54-.81.06.06,0,0,0-.08,0,7.15,7.15,0,0,0-2.27-.58,12.15,12.15,0,0,0-2.3-.15l-.08-.07a0,0,0,0,1,.07,0l.4-.1L21.09,52C20.64,51.69,19.9,51.14,19.88,50.53Z"/><path class="cls-13" d="M30.18,64.54c1.13,1,2.17,2.08,3.32,3.05.54.46,1.1.9,1.63,1.38a5.29,5.29,0,0,0,1.35,1c.86.38,1.46-.63,1.92-1.29a7.91,7.91,0,0,1-1.25,2.78.06.06,0,0,0,.05.09c.38,0,.76,0,1.14,0a7.1,7.1,0,0,0-1,.4.06.06,0,0,0,0,.11c.91.19,1.82.43,2.75.54a4.85,4.85,0,0,0-.8.51s0,.1,0,.11a8.15,8.15,0,0,0,1.29,0,1.38,1.38,0,0,0-.45.35s0,.1.07.08h0c2.15,0,4.3-.19,6.45-.2-1.12.18-2.23.37-3.37.44a.06.06,0,0,0,0,.12c1.37.49,2.53,1.41,3.88,2a8.41,8.41,0,0,0,4.07.55,12.93,12.93,0,0,0,4-1.29,32.26,32.26,0,0,0,3-2c-.49.56-1,1.13-1.49,1.66L56.7,75l0,0a9,9,0,0,0-.69.62.48.48,0,0,0,0,.51s.07.07.1,0a5.52,5.52,0,0,0,.7-1c.44.34.93.62,1.39.93,0,0,.1,0,.09-.07a4.82,4.82,0,0,1,0-1,5.77,5.77,0,0,0,.78.77.06.06,0,0,0,.1,0c0-.46-.07-.82.27-1.2a4.85,4.85,0,0,1,1-.75,4.25,4.25,0,0,1,1.15-.57c.41-.12.83-.2,1.25-.3A13.74,13.74,0,0,0,65.07,72a16.05,16.05,0,0,1-4,1.63,8,8,0,0,0-.73.5c-.37.28-.69.64-1.06.92,0,.31,0,.63,0,.94h0a0,0,0,0,1,0,.06,0,0,0,0,1-.07,0h0l-.6-.29a4.07,4.07,0,0,1,0,.53,0,0,0,0,1-.05,0,.07.07,0,0,1-.06,0,7.34,7.34,0,0,1-2-.35,2.58,2.58,0,0,1-.42.44,1.46,1.46,0,0,1-.71.37l-.1.12a0,0,0,0,1-.05,0,1.52,1.52,0,0,0,.12-.84,11.52,11.52,0,0,1-5.56,1.05,10.22,10.22,0,0,1-3.87-1.17c-.73-.39-1.43-.83-2.14-1.27L42.56,74a17.85,17.85,0,0,0-2.79-.09l-.09,0a.07.07,0,0,1-.06-.12,1.47,1.47,0,0,0,.24-.24c-.34,0-.69-.06-1-.06a.06.06,0,0,1-.05,0h-.06a.06.06,0,0,1,0-.11.89.89,0,0,0,.3-.27c-.18-.07-.36-.17-.52-.25-.53-.25-1.09-.41-1.61-.69a0,0,0,0,1,0,0l-.09,0s0-.06,0-.07a2.55,2.55,0,0,0,.56-.31l-.44-.07-.07,0a.06.06,0,0,1,0-.1,2.41,2.41,0,0,0,.41-.53l0,0a33.4,33.4,0,0,1-6.4-5.52A12.86,12.86,0,0,1,29.58,64Z"/><path class="cls-14" d="M27.33,50.3a4.17,4.17,0,0,1-1-.57,13.87,13.87,0,0,0,1.82.72,9.61,9.61,0,0,0-2.83.48.07.07,0,0,0,0,.11,4,4,0,0,0,2.1,1.09c.49.06,1,.09,1.49.12a3.91,3.91,0,0,0-1.25.33.07.07,0,0,0,0,.11,2.55,2.55,0,0,0,1.89.8c.91.06,1.83,0,2.74,0a13.79,13.79,0,0,1,3.48.42c.61.19,1.19.43,1.78.66a19.06,19.06,0,0,0-2.45-.46,29.84,29.84,0,0,0-4,0,.07.07,0,0,0-.07.09,19,19,0,0,0,1.71,4.32,27.88,27.88,0,0,0,2.72,3.1,14,14,0,0,1-4.52-3.39A21.82,21.82,0,0,1,29.44,56a6.66,6.66,0,0,1-.86-2,.09.09,0,0,0-.05-.07c-.63-.2-1.33-.1-2-.33a9.84,9.84,0,0,1-1.48-.85,3.3,3.3,0,0,0,.45-.07c.05,0,.07-.1,0-.12a16.41,16.41,0,0,1-2.3-1.39A26.65,26.65,0,0,1,27,50.36C27,50.36,27.4,50.33,27.33,50.3Z"/><path class="cls-14" d="M47.7,47.89a2.17,2.17,0,0,1,2.24-.3A21.69,21.69,0,0,0,52,49.07l.37.38a10.53,10.53,0,0,0-2.81-.81c-.53-.06-1.08,0-1.61-.1a2.39,2.39,0,0,1-.53-.12c-.16-.06-.18-.05-.09-.19A1.23,1.23,0,0,1,47.7,47.89Z"/><path class="cls-14" d="M46,47.21a2.37,2.37,0,0,1-.65.66,1.72,1.72,0,0,1-1.15.17C44.55,47.3,45.31,47.22,46,47.21Z"/><path class="cls-14" d="M43.32,49.89c.18.05.45.21.36.45s-.24.16-.36.16a5,5,0,0,1-1.06-.15A1,1,0,0,1,43.32,49.89Z"/><path class="cls-14" d="M41,52.18a4.1,4.1,0,0,1-1.6.77c-.18,0-.85.11-.64-.27a1.08,1.08,0,0,1,.42-.45,1.92,1.92,0,0,1,.71-.14C40.24,52.11,40.6,52.15,41,52.18Z"/><path class="cls-13" d="M24.64,47.48l0,0c.85,0,1.68,0,2.52,0a3.9,3.9,0,0,0-1.43.23c-.05,0,0,.09,0,.12.52.38,1,.82,1.53,1.17-.19,0-.38-.06-.57-.1s-.13.09-.05.12c.42.19.76.55,1.21.7a13.58,13.58,0,0,0,1.91.24c.06,0,.12-.07.07-.12a6,6,0,0,1-.81-.94,8.17,8.17,0,0,1,3-.36,8.93,8.93,0,0,0-1.77.36.07.07,0,0,0,0,.13,3.64,3.64,0,0,0,1,.2,5.22,5.22,0,0,0-1,.06.07.07,0,0,0,0,.12,7.48,7.48,0,0,0,2.52.48c-.42,0-.85,0-1.27.12-.07,0-.06.11,0,.13a6.81,6.81,0,0,0,2.42.95,7,7,0,0,0,2-.43,3.3,3.3,0,0,0-.61.4.07.07,0,0,0,0,.1,8.57,8.57,0,0,0,1.4,1.28,6.86,6.86,0,0,0-2.2-1,3.47,3.47,0,0,0-2.28.41.07.07,0,0,0,0,.12,6.9,6.9,0,0,0,2.43,1.34,12.86,12.86,0,0,0,1.7.25l-.34,0a.07.07,0,0,0,0,.13,9.38,9.38,0,0,0,1.12.5,13.08,13.08,0,0,0-3.22-.6.07.07,0,0,0-.06.1,4.08,4.08,0,0,0,1.37,1.64,8.69,8.69,0,0,0,2.28.8,10.91,10.91,0,0,0,2.54.34c.89,0,1.78-.05,2.67,0a4.88,4.88,0,0,0,1.46.3L45.5,57a8.69,8.69,0,0,0-1.37.13.07.07,0,0,0,0,.11,9,9,0,0,0,2.71,1.67,4,4,0,0,0,1.55.28,7.55,7.55,0,0,0,1.72-.38,14.54,14.54,0,0,0,3.45-1.35l.61-.34,0,0h0c-.26.22-.45.51-.71.73a4.07,4.07,0,0,1-.91.62c-.66.32-1.35.61-2,.87a6.31,6.31,0,0,1-2.27.49,3,3,0,0,1-1.11-.21,6.83,6.83,0,0,0-.89-.34.06.06,0,0,0-.07,0h-.13c-.24,0-.47,0-.71,0h-1c-.72,0-1.43,0-2.15,0a15,15,0,0,1-4.2-.44,6.5,6.5,0,0,1-3.28-2.33,18,18,0,0,1-1.95-3.29.06.06,0,0,0,0-.07,4.47,4.47,0,0,1-1-.81,5.46,5.46,0,0,1-.53-.6c.27,0,.53-.13.81-.15a.07.07,0,0,0,0-.13,5.28,5.28,0,0,0-1.51-.94c-.55-.14-1.13-.13-1.68-.22a12.21,12.21,0,0,1-1.74-.4,5,5,0,0,1-1.06-.49l-.27-.34c-.36-.48-.77-.92-1.13-1.39h0a.09.09,0,0,1-.06-.12l0,0C24.5,47.52,24.57,47.43,24.64,47.48Z"/><path class="cls-13" d="M55,47.13l-.17-.19A15.17,15.17,0,0,1,56.69,48l.31-.26a4.44,4.44,0,0,0,.88-1.1,1.63,1.63,0,0,0,.17-.39,7.9,7.9,0,0,0,.84,2.14A2.39,2.39,0,0,1,58,47.6a.06.06,0,0,0-.11,0,5.53,5.53,0,0,0,.89,2.56,3.1,3.1,0,0,1-1.32-1.61.06.06,0,0,0-.12,0c.53,2.54,2.89,4.12,3.56,6.58a29,29,0,0,0-2.27-2s-.12,0-.08.08c1,1.51,2.56,2.72,3,4.57a7,7,0,0,0-2.33-1.76c-.06,0-.12,0-.07.1a5.77,5.77,0,0,1,1.94,3.19,5.72,5.72,0,0,0-3.71-1.19.06.06,0,0,0-.05.09,4.74,4.74,0,0,0,1.23,1.3,15.76,15.76,0,0,1-3.81-.61.06.06,0,0,0-.06.1c.41.51,1,.82,1.41,1.33-1-.08-2.05-.44-3,0-.56.28-1.07.66-1.61,1a7.74,7.74,0,0,1-1.81.77c-2.7.69-9.26.55-11,.34A11.75,11.75,0,0,1,31,58.27a13.72,13.72,0,0,1-1.79-2.81c-.17-.36-.29-.74-.44-1.11-.07-.18-.15-.45-.36-.5a.05.05,0,0,0-.06,0,4.83,4.83,0,0,1-2.78-.94,5.66,5.66,0,0,1-1.21-1.73A7.07,7.07,0,0,0,26.25,53a6,6,0,0,0,2.59.53c.27.07.55.13.83.17a9.2,9.2,0,0,0,1.8.12,2.94,2.94,0,0,0,1.22-.23.06.06,0,0,0,0-.07,11,11,0,0,0-1.05-1.82,1.3,1.3,0,0,1,.39-.15s.09-.07,0-.1c-.57-.48-1.11-1-1.66-1.5a12,12,0,0,0,2.48,1.32l.67.14a2.31,2.31,0,0,0-1.52.46.06.06,0,0,0,0,.09c1.27,1.46,3.31,1.64,4.83,2.7a7.42,7.42,0,0,0-3.29-1.06.06.06,0,0,0-.06.08c1.32,3.74,6,4.31,9.44,4a.06.06,0,0,0,0-.1c-.93-.87-1.66-1.92-2.53-2.84a3,3,0,0,1-.49-.54c-.14-.26.1-.46.29-.62a2.38,2.38,0,0,1,1.24-.46,4.43,4.43,0,0,0-.95.86.06.06,0,0,0,0,.08,20.92,20.92,0,0,0,3.79,2.22,9.15,9.15,0,0,0,3.65.45,13.65,13.65,0,0,0-2.31.46.06.06,0,0,0,0,.11c2.33,1.31,4.65-.55,6.84-1.26a.06.06,0,0,0,0-.07,4.53,4.53,0,0,0-.75-1,5.55,5.55,0,0,1,2-.26s.09-.07,0-.1c-.35-.29-.73-.53-1.07-.83,1.14-.39,2.34.18,3.51,0a.06.06,0,0,0,0-.11c-.82-.46-1.69-.8-2.53-1.21.34-.14.7-.22,1-.37.05,0,0-.09,0-.11a7.18,7.18,0,0,0-1.26-.21c.79-.59,2.11-.56,2.62-1.5a.06.06,0,0,0-.05-.09,5.12,5.12,0,0,1-1-.08,5.59,5.59,0,0,0,1.32-.72.06.06,0,0,0,0-.1H54.68a10.42,10.42,0,0,1,.83-.69.41.41,0,0,0,.17-.45A2.71,2.71,0,0,0,55,47.13Z"/><path class="cls-15" d="M62.18,18.37a2.82,2.82,0,0,1,.94,2.21,4.9,4.9,0,0,0-.32-.78,3,3,0,0,0-.56-.67,5.39,5.39,0,0,0-1.54-1.05,3.77,3.77,0,0,0-1.78-.29,6.45,6.45,0,0,0-1.18.26c.43-.17.85-.38,1.28-.53a2.88,2.88,0,0,1,.95-.2,3.44,3.44,0,0,0,.57,0,.06.06,0,0,0,0-.09,4.38,4.38,0,0,1,.56-1.69c.8-1.05,1.48,0,1.45.88a18.38,18.38,0,0,1-.44,1.89A.06.06,0,0,0,62.18,18.37Z"/><path class="cls-15" d="M60.56,15.45a3.48,3.48,0,0,1,1-1.4c.39-.34,1.14-.86,1.61-.35a2.47,2.47,0,0,1,.49,1.54,3.58,3.58,0,0,1-.14,1.35c0-.09,0-.19-.07-.28a2.51,2.51,0,0,0-.48-1.21C62.24,14.24,61.3,15,60.56,15.45Z"/><path class="cls-16" d="M71,25.58c1,2.18,1.84,3.68,2.1,4.37s1.19,2.82.24,2.92-3.75-1.51-6.16-5.38-3.27-5.23-3.27-5.23L67,21.79Z"/><path class="cls-17" d="M67,21.79l1.8,1.69c.24.59.69,1.12,1,1.7.38.83.84,1.62,1.18,2.46a7.71,7.71,0,0,1,.66,2.71,5.91,5.91,0,0,1-.22,1.7,15.24,15.24,0,0,1-4.16-4.57c-2.41-3.87-3.27-5.23-3.27-5.23Z"/><path class="cls-18" d="M67,21.79l4,3.79c1,2.18,1.84,3.68,2.1,4.37s1.19,2.82.24,2.92H73.2a.77.77,0,0,0,.14-.41A4.71,4.71,0,0,0,73,30.64a5.94,5.94,0,0,0-.34-.85c-.06-.13-.47-.68-.69-.4a.61.61,0,0,0-.05.45,4.55,4.55,0,0,1,0,.85,13.63,13.63,0,0,1-.25,1.58l-.29-.19a7.22,7.22,0,0,0,.14-1.79A6,6,0,0,0,71,28.44c-.23-.57-.47-1.56-1.12-1.9-1.18-.62.12,1.15.28,2.07l.11.46c-.24-.86-.82-1.79-1-2.36a1.62,1.62,0,0,0-.83-1c-.23-.1-.64-.19-.66.19a2.49,2.49,0,0,0,.38,1.34,13.07,13.07,0,0,0,2.54,3.65c.44.4-1.15-.6-.91-.09a17.34,17.34,0,0,1-2.62-3.29c-2.41-3.87-3.27-5.23-3.27-5.23Z"/><path class="cls-5" d="M79.55,28.26c-.75-.9-1.7-1.7-2.53-2.55S75.49,24,74.68,23.1A26.23,26.23,0,0,1,72.8,21l0-.08c-.24-.58.37-2.44-.82-2.21-.59.12-.94.72-1.51.88a4.26,4.26,0,0,1-2-.31,1.38,1.38,0,0,0-1.16.24,6.24,6.24,0,0,0-1,1.15,2.14,2.14,0,0,1-.56.58c-.31.19-1.49-.18-1.84-.16a1.47,1.47,0,0,0-1,1.79,5.4,5.4,0,0,0,.95,1.59c.81,1,1.72,1.89,2.51,2.9s1.44,2.13,2.29,3.11a20.83,20.83,0,0,0,2.14,2.13A6.93,6.93,0,0,0,72.9,34c.71.23,1.39.27,1.37-.4a9.27,9.27,0,0,0-.83-2.86c-.14-.37-.3-.73-.45-1.08,0,0-.06,0-.06,0,.09.49,1.09,2.5.45,2.88-.3.18-.82-.21-1-.35a13.79,13.79,0,0,1-3.43-3.33,15.92,15.92,0,0,1-1.27-2.06c-.22-.41-.37-.85-.56-1.27s-.48-.86-.71-1.3h0a15.45,15.45,0,0,1,2,.77,12.92,12.92,0,0,1,3.24,3.24,7.21,7.21,0,0,0,3.66,2.21,6.82,6.82,0,0,0,4.43.11.14.14,0,0,0,.13-.07A1.83,1.83,0,0,0,79.55,28.26Z"/><path class="cls-6" d="M73.68,34.3a2.73,2.73,0,0,1-.82-.16,6.77,6.77,0,0,1-2.18-1.42l-.07-.06a21,21,0,0,1-2.15-2.15,20.42,20.42,0,0,1-1.35-1.81c-.3-.44-.61-.88-.94-1.31s-.92-1.09-1.39-1.61-.76-.85-1.12-1.29a5.46,5.46,0,0,1-1-1.63,1.63,1.63,0,0,1,.23-1.34,1.24,1.24,0,0,1,.92-.62,3.56,3.56,0,0,1,.7.09,5.5,5.5,0,0,0,.87.12.43.43,0,0,0,.22,0,1.89,1.89,0,0,0,.49-.5l0,0,.21-.28a4.58,4.58,0,0,1,.79-.89,1.52,1.52,0,0,1,1.26-.27c.2,0,.4.1.59.16a3.44,3.44,0,0,0,1,.2,1.4,1.4,0,0,0,.38-.05,2,2,0,0,0,.68-.41,2,2,0,0,1,.85-.47.7.7,0,0,1,.67.16A2,2,0,0,1,72.83,20a2.43,2.43,0,0,0,0,.78l0,.07a24,24,0,0,0,1.71,2l.15.16c.37.4.74.81,1.08,1.22s.82.94,1.25,1.39.64.64,1,.94a19.82,19.82,0,0,1,1.57,1.62A2,2,0,0,1,80,30.57a.27.27,0,0,1-.21.13,5.14,5.14,0,0,1-1.86.33,9.21,9.21,0,0,1-2.63-.44,9.51,9.51,0,0,1-2.12-.9l.08.2c.11.27.23.55.34.83a9.48,9.48,0,0,1,.84,2.9.65.65,0,0,1-.16.49A.74.74,0,0,1,73.68,34.3ZM63.9,21.17h0a1,1,0,0,0-.73.51,1.38,1.38,0,0,0-.21,1.11,5.23,5.23,0,0,0,.93,1.56c.36.44.74.86,1.12,1.28s1,1.06,1.4,1.63.65.88.95,1.32a19.89,19.89,0,0,0,1.33,1.78,20.52,20.52,0,0,0,2.12,2.12l.07.06a6.56,6.56,0,0,0,2.09,1.37c.55.18,1,.19,1.11,0a.41.41,0,0,0,.09-.31,6.57,6.57,0,0,0-.44-1.84c.06.41,0,.74-.25.9a.48.48,0,0,1-.25.06,1.8,1.8,0,0,1-.87-.38l-.06,0A13.85,13.85,0,0,1,68.81,29a16,16,0,0,1-1.28-2.08c-.14-.26-.25-.53-.36-.8L67,25.61c-.12-.26-.27-.52-.41-.76s-.21-.35-.3-.53v0a.13.13,0,0,1,0-.14.12.12,0,0,1,.14,0c.25.1.52.19.78.27a6,6,0,0,1,1.28.51,10.79,10.79,0,0,1,2.83,2.73l.44.54a7,7,0,0,0,3.6,2.17,8.91,8.91,0,0,0,2.56.43,4.86,4.86,0,0,0,1.79-.32h.05a1.71,1.71,0,0,0-.29-2.1,19.54,19.54,0,0,0-1.55-1.59c-.32-.31-.66-.63-1-1s-.86-.94-1.26-1.4-.71-.81-1.08-1.21L74.43,23a24.31,24.31,0,0,1-1.74-2v0l0-.09a2.48,2.48,0,0,1-.07-.89c0-.45,0-1-.17-1.16a.46.46,0,0,0-.44-.08,1.77,1.77,0,0,0-.74.42,2.2,2.2,0,0,1-.77.46,1.67,1.67,0,0,1-.45.06,3.66,3.66,0,0,1-1.07-.21c-.2-.06-.38-.12-.57-.15a1.26,1.26,0,0,0-1.05.22,4.26,4.26,0,0,0-.74.84l-.21.28,0,0a2.1,2.1,0,0,1-.56.56.67.67,0,0,1-.35.07,5.57,5.57,0,0,1-.92-.12A4.43,4.43,0,0,0,63.9,21.17Zm2.74,3.32.14.23c.15.25.3.51.42.79s.14.32.21.49.22.52.35.78a15.7,15.7,0,0,0,1.26,2,13.6,13.6,0,0,0,3.4,3.3l.06,0a1.66,1.66,0,0,0,.72.34.23.23,0,0,0,.12,0c.39-.23-.06-1.46-.3-2.12a5.1,5.1,0,0,1-.21-.63.17.17,0,0,1,0-.12l.07,0a5.92,5.92,0,0,1-1.37-1.21l-.44-.54a10.57,10.57,0,0,0-2.76-2.67,6,6,0,0,0-1.23-.49Z"/><path class="cls-7" d="M74.68,29.74a13.06,13.06,0,0,1-3.5-3.08,11.23,11.23,0,0,0-1.9-1.88,13.76,13.76,0,0,0-1.85-.94c-1-.45-1.81-1-1.27-2.16.35-.75,1.16-2,2.16-1.85.64.11,1.28.76,2,.49s.93-.73,1.52-.88c.39-.1.68.17.91.52,0-.7,0-1.45-.77-1.3-.59.12-.94.72-1.51.88a4.26,4.26,0,0,1-2-.31,1.38,1.38,0,0,0-1.16.24,6.24,6.24,0,0,0-1,1.15,2.14,2.14,0,0,1-.56.58c-.31.19-1.49-.18-1.84-.16a1.47,1.47,0,0,0-1,1.79,5,5,0,0,0,.72,1.3,1.15,1.15,0,0,1-.08-.7c.24-.82,2.17,1.26,2.35,1.49a5.45,5.45,0,0,1,.61,1.3,13,13,0,0,0,1,1.95c.71,1.15,1.52,2.24,2.34,3.32l.59.76.36.32A6.93,6.93,0,0,0,72.9,34c.71.23,1.39.27,1.37-.4a9.27,9.27,0,0,0-.83-2.86c-.14-.37-.3-.73-.45-1.08,0,0-.06,0-.06,0,.09.49,1.09,2.5.45,2.88-.3.18-.82-.21-1-.35a13.79,13.79,0,0,1-3.43-3.33,15.92,15.92,0,0,1-1.27-2.06c-.22-.41-.37-.85-.56-1.27s-.48-.86-.71-1.3h0a15.45,15.45,0,0,1,2,.77,12.92,12.92,0,0,1,3.24,3.24,7.21,7.21,0,0,0,3.66,2.21,7,7,0,0,0,4.22.18A8.51,8.51,0,0,1,74.68,29.74Z"/><path class="cls-19" d="M68.52,21.23a1,1,0,0,1,.32,0,5.77,5.77,0,0,1,.59.27l.31.2h0a3.41,3.41,0,0,1,1.07,1,1.45,1.45,0,0,1,.27.63c0,.22-.28.14-.41,0a3.75,3.75,0,0,1-.32-.33,1.92,1.92,0,0,0-.85-.51,2.91,2.91,0,0,1-1-.34C68.38,22.1,68.13,21.27,68.52,21.23Z"/><path class="cls-19" d="M73.69,22.57c.07.1,0,.18-.15.24a.75.75,0,0,1-.15-.12l-.16-.16a2.67,2.67,0,0,1-.38-.52,3.09,3.09,0,0,1-.31-1.69c.07.19.14.37.21.55l0,.08c.19.25.38.49.59.73A3.16,3.16,0,0,0,73.69,22.57Z"/><path class="cls-20" d="M74,34a1.09,1.09,0,0,0,.08-.75c-.08-.4-.19-.8-.26-1.21,0-.07-.13,0-.13,0,0,.26-.1.73-.52.69a2.54,2.54,0,0,1-1.16-.5,10.76,10.76,0,0,1-1.53-1.35c-.49-.51-1-1-1.41-1.58-.24-.29-.47-.58-.68-.88a0,0,0,0,0,0,0c-.23-.49-.51-1-.76-1.45s-.49-1-.74-1.56a5,5,0,0,0-.9-1.32c-.4-.41-.92-.73-1.07-1.26a.07.07,0,0,0-.06,0c-.22,0-.67,0-.75-.24a1.46,1.46,0,0,0,.59.12,1.14,1.14,0,0,0,.95-.55,1.53,1.53,0,0,1-.07.2l0,.07a2.22,2.22,0,0,1-.44.42,0,0,0,0,0,0,.05,1.8,1.8,0,0,0,.73.89,6.67,6.67,0,0,0,1.33.53A6.92,6.92,0,0,1,70,25.94c.81.83,1.45,1.78,2.26,2.61a12.63,12.63,0,0,0,1.22,1.12l.21.16a6.11,6.11,0,0,1-2-1.57A12.92,12.92,0,0,0,68.4,25a15.45,15.45,0,0,0-2-.77h0c.23.44.51.85.71,1.3s.35.86.56,1.27a15.92,15.92,0,0,0,1.27,2.06,13.79,13.79,0,0,0,3.43,3.33c.22.14.74.53,1,.35.64-.38-.36-2.39-.45-2.88,0,0,0,0,.06,0,.15.35.31.71.45,1.08a9.27,9.27,0,0,1,.83,2.86.46.46,0,0,1-.4.53A.65.65,0,0,0,74,34Z"/><path class="cls-21" d="M73.44,22.43c0,.09-.11.11-.17,0a1.24,1.24,0,0,1-.15-.19,2.87,2.87,0,0,1-.19-.36c-.12-.27-.51-1-.26-1.3l.09.24,0,.08.35.45C73,21.65,73.4,22.26,73.44,22.43Z"/><path class="cls-21" d="M69,21.49a.06.06,0,0,0,.06,0,4.2,4.2,0,0,1,1.73,1.44c.09.2-.15.17-.19.11a1.38,1.38,0,0,0-.25-.26,2.58,2.58,0,0,0-.64-.31,2.8,2.8,0,0,1-.82-.34.35.35,0,0,1-.11-.33C68.77,21.71,68.78,21.43,69,21.49Z"/><path class="cls-11" d="M71.38,19.73a1.49,1.49,0,0,1,.83,1A4,4,0,0,0,73,22.53c.63.92.72.5,1.33,1.2s3.25,3.46,4.14,4.5-.7-.5-1.18-.92-3.57-3.25-4.18-3.89a10.78,10.78,0,0,1-2.15-3.32C70.92,19.78,71.06,19.58,71.38,19.73Z"/><path class="cls-22" d="M58.08,17.91a4.35,4.35,0,0,1,3.06,0,4,4,0,0,1,2,2.36s0,.05-.07,0a4.66,4.66,0,0,0-2.19-2.13A6.69,6.69,0,0,0,58.08,18S58,17.92,58.08,17.91Z"/><path class="cls-22" d="M61.14,14.78a1.15,1.15,0,0,0,.2-.18c.46-.25.92-.64,1.43-.21a3.23,3.23,0,0,1,.71,1.3h0l.06.14a0,0,0,0,0,.05,0c-.09-.67,0-2.23-.86-2.44s-1.37.84-1.65,1.35C61.07,14.77,61.11,14.8,61.14,14.78Z"/><path d="M61.77,18.37a4.84,4.84,0,0,0-.9-.53,2,2,0,0,1,0-.48c.17-.86.81-1.71,1.1-1.64s.39.8.21,1.65A2,2,0,0,1,61.77,18.37Z"/><path class="cls-11" d="M61.86,16.2c-.2.45-.32.58-.47.54s.08-.48.28-.69S62,15.86,61.86,16.2Z"/><path class="cls-11" d="M59.23,17.87c.64,0,1.73,0,2.15.61,1.1,1.53-2.65,1.67-3.18.48C57.88,18.24,58.65,17.91,59.23,17.87Z"/><path class="cls-11" d="M61.86,19.63c0-.22.16-.37.48-.19s.64,1.09-.08.88A.69.69,0,0,1,61.86,19.63Z"/><path class="cls-11" d="M67.18,11.47a8.1,8.1,0,0,1,3.94,5.14s0,0,0,0a13.15,13.15,0,0,0-3.92-5.12S67.16,11.46,67.18,11.47Z"/><path class="cls-11" d="M64.72,10.84a4.45,4.45,0,0,1,2.6,2.24s0,.07-.06,0A9.33,9.33,0,0,0,64.66,11C64.58,10.92,64.65,10.82,64.72,10.84Z"/><path class="cls-11" d="M58.79,10.73a5.41,5.41,0,0,1,6,1.28s0,0,0,0a6.84,6.84,0,0,0-5.91-1.21C58.76,10.84,58.73,10.75,58.79,10.73Z"/><path class="cls-11" d="M55.69,13.51c1.45-1.46,3.56-2.65,5.68-2.18,0,0,0,.06,0,.06a7.12,7.12,0,0,0-5.44,2.42,12.76,12.76,0,0,0-3.2,5.59s-.08,0-.08,0A9.31,9.31,0,0,1,55.69,13.51Z"/><path class="cls-11" d="M69.05,47.54c3.7,3,8,8,5,12.86,0,0-.09,0-.08,0a15.61,15.61,0,0,0,.39-2,10.34,10.34,0,0,0-.06-2,9.27,9.27,0,0,0-1-3.25A34.08,34.08,0,0,0,69,47.58S69,47.52,69.05,47.54Z"/><path class="cls-23" d="M58.9,48.88a16.62,16.62,0,0,0,1.75,2,16.36,16.36,0,0,1,1.45,2.06,6.94,6.94,0,0,1,1.28,4.44s-.08.06-.09,0a8.9,8.9,0,0,0-1.78-4.53,30.63,30.63,0,0,1-2.64-3.94S58.88,48.85,58.9,48.88Z"/><path class="cls-23" d="M58.65,46.24a0,0,0,0,1,.08,0,16.46,16.46,0,0,0,1.68,3.54s0,.09-.07.06A4.45,4.45,0,0,1,58.65,46.24Z"/><path class="cls-23" d="M63.6,54.1A5,5,0,0,1,64.13,56a6.63,6.63,0,0,1-.34,2.15c0,.06-.1,0-.1,0a13.7,13.7,0,0,0-.17-4S63.58,54.07,63.6,54.1Z"/><path class="cls-11" d="M41.33,53.79a11.05,11.05,0,0,1,1.91-1A8.09,8.09,0,0,1,45.45,52c1.54-.19,3,.91,4.22,1.68,0,0,0,.11,0,.09a9.33,9.33,0,0,0-4.24-1,25.83,25.83,0,0,0-4,1.15A.12.12,0,0,1,41.33,53.79Z"/><path class="cls-11" d="M41.19,48.51a17.81,17.81,0,0,1,7-3,9.86,9.86,0,0,1,7.16,2.18.06.06,0,0,1-.06.11c-2.29-.81-4.47-1.91-7-1.6s-4.75,1.5-7,2.38C41.19,48.63,41.13,48.55,41.19,48.51Z"/><path class="cls-11" d="M31.14,48.86c.54-.13,1.11-.13,1.65-.21s1.38-.14,2.07-.18a4.08,4.08,0,0,1,2.83.84.08.08,0,0,1-.07.14A9,9,0,0,0,36.32,49a12.86,12.86,0,0,0-1.66,0l-1.85-.05c-.56,0-1.11.1-1.66.13C31,49,31,48.88,31.14,48.86Z"/><path class="cls-11" d="M26,47.64a8.63,8.63,0,0,1,2.29,0,11.52,11.52,0,0,1,2.24.49,0,0,0,0,1,0,.08c-.75-.1-1.5-.16-2.25-.24s-1.53-.07-2.26-.21A.08.08,0,0,1,26,47.64Z"/><path class="cls-11" d="M21.91,50.5a1,1,0,0,1-.39-.68,1.27,1.27,0,0,1,.36-.71h0a1.46,1.46,0,0,0-.08.35.41.41,0,0,0,0,.14.72.72,0,0,0,.14.4,1.81,1.81,0,0,0,.88.58.25.25,0,0,0,.25,0,18.47,18.47,0,0,1,1.73-.71,5.13,5.13,0,0,1,1.38-.18c.19.13.39.26.59.37a8.16,8.16,0,0,0-2.59.39,21.62,21.62,0,0,0-2.29.8l-.22.09a6.9,6.9,0,0,1,.91-.49A2.13,2.13,0,0,1,21.91,50.5Z"/><path class="cls-11" d="M21.59,52.56a25.25,25.25,0,0,1,2.48.47c1.08.24,2.12.65,3.21.86a0,0,0,0,1,0,.05,34.78,34.78,0,0,1-5.7-1.32A0,0,0,0,1,21.59,52.56Z"/><path class="cls-11" d="M24.32,55.23a11.75,11.75,0,0,1,3,1.15c.85.44,1.58,1.08,2.41,1.54,0,0,0,.08,0,.06-.86-.38-1.64-.89-2.48-1.32s-2-.81-2.95-1.34A.05.05,0,0,1,24.32,55.23Z"/><path class="cls-11" d="M22.5,53.13c.61.14,1.21.34,1.82.52a0,0,0,0,1,0,0,7.77,7.77,0,0,1-1.83-.48A0,0,0,0,1,22.5,53.13Z"/><path class="cls-11" d="M23.39,55.14c.56.35,1.15.65,1.75.93s1.15.66,1.76.92h0c-.68-.25-1.33-.59-2-.89a7,7,0,0,1-1.56-.91A0,0,0,0,1,23.39,55.14Z"/></g></g></g></svg>