<svg xmlns="http://www.w3.org/2000/svg" viewBox="0 0 100 100"><defs><style>.cls-1{isolation:isolate;}.cls-2{fill:#b7b7e5;}.cls-3{fill:#d6735c;}.cls-4{fill:#4e4c69;}.cls-5{fill:#70708c;}.cls-6,.cls-7{fill:#333049;}.cls-6{opacity:0.5;}.cls-10,.cls-11,.cls-15,.cls-20,.cls-23,.cls-6,.cls-7,.cls-8{mix-blend-mode:multiply;}.cls-7{opacity:0.3;}.cls-8{fill:#b7a28f;}.cls-15,.cls-23,.cls-8{opacity:0.6;}.cls-10,.cls-9{fill:#ffd4c5;}.cls-11{fill:#d6a79a;}.cls-12{fill:#ffb098;}.cls-13{fill:#fff;}.cls-14{fill:#d85961;}.cls-15{fill:#975961;}.cls-16{fill:#005688;}.cls-17{fill:#009fbc;}.cls-18{fill:#001d3b;}.cls-19,.cls-22{fill:#ffede9;}.cls-20{fill:#bfb6af;opacity:0.4;}.cls-21,.cls-23{fill:#eb969d;}.cls-22{opacity:0.7;mix-blend-mode:screen;}</style></defs><title>Asset 24</title><g class="cls-1"><g id="Layer_2" data-name="Layer 2"><g id="Layer_1-2" data-name="Layer 1"><rect class="cls-2" width="100" height="100"/><path d="M59.86,77.74A18.07,18.07,0,0,1,60.62,75a13.62,13.62,0,0,1,.84-2.23,74.12,74.12,0,0,0,1-7.59,65.4,65.4,0,0,0-.13-7.88,2.64,2.64,0,0,1-1.89.08c1.38.22,3.06-.65,3-2.13a3.46,3.46,0,0,0,.07-.51,3.33,3.33,0,0,1-.37-.84A3.46,3.46,0,0,0,64,55a3.08,3.08,0,0,0,1.37.88,2.47,2.47,0,0,0,2.4-.22,2.86,2.86,0,0,0,.43-.52,1.53,1.53,0,0,1-.76,1,3.07,3.07,0,0,0,1.43.6,2.31,2.31,0,0,0,2.38-1.34,2,2,0,0,1-1.17,1.51,2.16,2.16,0,0,1-.81.26,32.12,32.12,0,0,1-.93,9,36.43,36.43,0,0,1-2.58,8.25c1.24,1.54,1.23,4.09.87,5.92a2.22,2.22,0,0,1-3.34,1.33c-.78.51-2.09,0-2.76-.51C59.49,80.36,59.68,78.84,59.86,77.74Z"/><path class="cls-3" d="M69.1,57.2a2.48,2.48,0,0,1-1.82-.94v0a2.72,2.72,0,0,1-1.67.11,3.46,3.46,0,0,1-1.94-1.28,2.23,2.23,0,0,1-1.17,2.16,6.29,6.29,0,0,1,.19,1.27c.1.73.14,1.46.19,2.19A40.57,40.57,0,0,1,63,65.32a32.48,32.48,0,0,1-1.3,8.29c0,.18,0,.36,0,.54,0,.41,1,.79,1.3.88a2.21,2.21,0,0,0,2.22-.26A68.26,68.26,0,0,0,69.1,57.2Z"/><path class="cls-4" d="M60.22,79.61a1.76,1.76,0,0,0,1.41,1.59l.19.09a1.58,1.58,0,0,0,1,.18.57.57,0,0,0,.59-.53,13.31,13.31,0,0,0,.2-3.1,7.62,7.62,0,0,1,.15,1.71,6,6,0,0,1-.09,1.59,4.29,4.29,0,0,0,1.38.2c1.17,0,1.22-1.46,1.3-2.32a14,14,0,0,0-.68-4.46,2.28,2.28,0,0,1-2.7,1,2.08,2.08,0,0,1-1.61-1.21c-.19.5-.34,1-.49,1.53A11.89,11.89,0,0,0,60.22,79.61Z"/><path class="cls-5" d="M63.31,75.59l.12,0c.19,1.53.63,3,.74,4.55,0,.36.05.74.07,1.12a5.43,5.43,0,0,1-.56-.13,6,6,0,0,0,.09-1.59,7.62,7.62,0,0,0-.15-1.71,13.31,13.31,0,0,1-.2,3.1.61.61,0,0,1-.33.47A54.79,54.79,0,0,0,63.31,75.59Z"/><path class="cls-5" d="M65.09,79.57c.08.58.16,1.16.22,1.74a1.21,1.21,0,0,1-.26,0H64.9c0-.34,0-.68-.06-1-.1-1.53-.5-3-.71-4.51A11.15,11.15,0,0,1,65.09,79.57Z"/><path class="cls-6" d="M66.35,78.65a13.39,13.39,0,0,0-1-3.75,3.53,3.53,0,0,0,.29-.35,15.15,15.15,0,0,1,.69,4.25Z"/><path class="cls-6" d="M60.22,79.61a11.89,11.89,0,0,1,.65-3.77c.15-.51.3-1,.49-1.53a1.69,1.69,0,0,0,1,1c-.16,2-.45,4-.54,6l0,0-.19-.09A1.76,1.76,0,0,1,60.22,79.61Z"/><path d="M40.32,81c-.68.49-2,1-2.77.47a2.22,2.22,0,0,1-3.32-1.37c-.33-1.83-.31-4.38.95-5.91a36.45,36.45,0,0,1-2.47-8.28,32.16,32.16,0,0,1-.81-9,2.15,2.15,0,0,1-.8-.27,2,2,0,0,1-1.15-1.53,2.31,2.31,0,0,0,2.36,1.37,3.07,3.07,0,0,0,1.44-.58,1.53,1.53,0,0,1-.75-1,2.84,2.84,0,0,0,.42.52,2.48,2.48,0,0,0,2.39.25,3.08,3.08,0,0,0,1.39-.87,3.46,3.46,0,0,0,.92-1.07,3.34,3.34,0,0,1-.38.84,3.38,3.38,0,0,0,.07.51c-.1,1.48,1.57,2.36,3,2.17a2.63,2.63,0,0,1-1.89-.11A65.46,65.46,0,0,0,38.63,65a74.28,74.28,0,0,0,.85,7.6,13.56,13.56,0,0,1,.81,2.25A18,18,0,0,1,41,77.61C41.19,78.72,41.36,80.24,40.32,81Z"/><path class="cls-3" d="M35.77,74.58a2.2,2.2,0,0,0,2.22.29c.27-.08,1.32-.46,1.31-.86,0-.19,0-.37,0-.55a32.5,32.5,0,0,1-1.19-8.31,40.5,40.5,0,0,1,.15-4.63c.06-.73.12-1.47.22-2.19a6.28,6.28,0,0,1,.21-1.27,2.23,2.23,0,0,1-1.14-2.17,3.46,3.46,0,0,1-2,1.26A2.72,2.72,0,0,1,33.9,56l0,0a2.48,2.48,0,0,1-1.83.92A68.28,68.28,0,0,0,35.77,74.58Z"/><path class="cls-4" d="M40,75.7c-.15-.51-.29-1-.47-1.54a2.08,2.08,0,0,1-1.62,1.19,2.28,2.28,0,0,1-2.69-1,14,14,0,0,0-.74,4.45c.07.86.11,2.29,1.27,2.34A4.27,4.27,0,0,0,37.16,81a6,6,0,0,1-.07-1.59,7.61,7.61,0,0,1,.17-1.71,13.31,13.31,0,0,0,.16,3.11.57.57,0,0,0,.58.53,1.58,1.58,0,0,0,1-.17l.19-.08a1.76,1.76,0,0,0,1.43-1.57A11.88,11.88,0,0,0,40,75.7Z"/><path class="cls-5" d="M38.1,77.16a17,17,0,0,0,.85,4l-.31.11A11.86,11.86,0,0,1,38.1,77.16Z"/><path class="cls-5" d="M36.37,81.12a12.28,12.28,0,0,1,.84-5.67h.11A15.1,15.1,0,0,0,37,81,4.86,4.86,0,0,1,36.37,81.12Z"/><path class="cls-6" d="M34.86,80.57a4.59,4.59,0,0,1-.36-1.76,14,14,0,0,1,.74-4.45,3.52,3.52,0,0,0,.34.41A8.77,8.77,0,0,0,34.86,80.57Z"/><path class="cls-6" d="M38.69,75.07a1.58,1.58,0,0,0,.87-.91c.18.5.33,1,.47,1.54a11.88,11.88,0,0,1,.6,3.78,1.62,1.62,0,0,1-1.07,1.43A16.62,16.62,0,0,1,38.69,75.07Z"/><path d="M73.77,51.39c.28.73.94,1.87,0,2.25a3.12,3.12,0,0,1,.68,3.18,2.34,2.34,0,0,1-3,1.31,2.62,2.62,0,0,1,0,1.31,1.49,1.49,0,0,1-1.62,1.21,3.57,3.57,0,0,1,.53,4.61c-.59.89-2,1.63-2.81.83a1.66,1.66,0,0,1-.7,1.52,1.58,1.58,0,0,1-1.51.06A2.38,2.38,0,0,1,64.51,69a1.91,1.91,0,0,1-1.51.37,1.84,1.84,0,0,1-.72-.32c-.35-.23-.15,0-.16.3-.07,1.4-2.2,1.69-3.26,1.73a3.86,3.86,0,0,1-1.37-.19,3.2,3.2,0,0,1-2,1.38,3,3,0,0,1-3-1.64,1.77,1.77,0,0,1-2.33.58c-.22-.08-1-.61-.84-.93a2.62,2.62,0,0,1-.91,1.15A2.28,2.28,0,0,1,45.46,71a1.31,1.31,0,0,1-.26-.81,1,1,0,0,1-1.57-.51A3.19,3.19,0,0,1,40.74,71c-1.06-.05-3.19-.38-3.24-1.78,0-.31.2-.53-.16-.3a1.83,1.83,0,0,1-.72.31,1.91,1.91,0,0,1-1.51-.39,2.38,2.38,0,0,1-.82-1.37,1.58,1.58,0,0,1-1.51-.08,1.66,1.66,0,0,1-.68-1.53c-.79.79-2.22,0-2.8-.87a3.56,3.56,0,0,1,.59-4.61,1.49,1.49,0,0,1-1.6-1.23,2.62,2.62,0,0,1,0-1.31,2.34,2.34,0,0,1-3-1.35A3.12,3.12,0,0,1,26,53.33c-.89-.4-.23-1.52.07-2.25a2.22,2.22,0,0,1-1.53-2.45A4,4,0,0,1,26,45.75c-.58,0-.86-.76-.84-1.41A2.52,2.52,0,0,1,26,42.59c-1,.09-1.55-1.19-1.56-2.09a3.34,3.34,0,0,1,1.37-2.83.63.63,0,0,1-.29-.75,2.16,2.16,0,0,1,.3-.64c.07-.1.14-.21.22-.3h0c-.76-.14-.91-1-.85-1.7a3.56,3.56,0,0,1,4-3.55,2.23,2.23,0,0,1,1-1.83,3.51,3.51,0,0,1,1.41-.58,2,2,0,0,1,.63,0l.2,0a2.66,2.66,0,0,1,.34-2.49A3.22,3.22,0,0,1,35.65,24a1.83,1.83,0,0,1,1.15-1.39,2.31,2.31,0,0,1,2.07-.12c.22-.72.79-1.35,1.6-1.14.37.09.27.17.32-.28a1.41,1.41,0,0,1,.3-.61A1.43,1.43,0,0,1,42.22,20c.5,0,.29-.52.43-.84a2.34,2.34,0,0,1,.39-.65,2.64,2.64,0,0,1,1.45-.83c.94-.22,1.75.08,1.91,1a1.59,1.59,0,0,1,1.3-.84,1.44,1.44,0,0,1,1.15.47,2,2,0,0,1,1-.73,2.15,2.15,0,0,1,2.7.87,1.8,1.8,0,0,1,1.88-.54,2.23,2.23,0,0,1,1.22,1.57A2.52,2.52,0,0,1,58,18.56a4,4,0,0,1,2.12.93,1.41,1.41,0,0,1,.43,1.26,1,1,0,0,1,1.11.11,2.82,2.82,0,0,1,.88,1.64,4.43,4.43,0,0,1,1,.3,1.83,1.83,0,0,1,1.13,1.41A3.22,3.22,0,0,1,67.48,26a2.66,2.66,0,0,1,.31,2.5l.2,0a2,2,0,0,1,.63.05,3.51,3.51,0,0,1,1.4.6A2.23,2.23,0,0,1,71,31a3.56,3.56,0,0,1,4,3.6c0,.72-.12,1.55-.88,1.69h0c.08.1.15.2.22.3a2.18,2.18,0,0,1,.29.64.63.63,0,0,1-.3.75,3.34,3.34,0,0,1,1.33,2.85c0,.9-.58,2.17-1.59,2.07a2.52,2.52,0,0,1,.75,1.76c0,.65-.28,1.4-.86,1.4A4,4,0,0,1,75.33,49,2.22,2.22,0,0,1,73.77,51.39Z"/><path class="cls-4" d="M73.41,45.9c-.08,0-.07-.22,0-.18.82.27.78-.86.74-1.37a2.55,2.55,0,0,0-.79-1.48l0,0a3.9,3.9,0,0,0-.39-.54,2.68,2.68,0,0,1,.6.29l0,0a2.13,2.13,0,0,0,1.12-.45,2.27,2.27,0,0,0,.52-1.37A2.77,2.77,0,0,0,74,38.06s-.11-.16,0-.2c1.08-.47-.32-1.33-.5-1.76,0-.1,0-.26.12-.28,1.1-.14.83-1.68.64-2.45a2.71,2.71,0,0,0-3.44-2,.2.2,0,0,1-.22-.19,2.31,2.31,0,0,0-1.55-2,4.59,4.59,0,0,0-1.47-.31l0,.05a2.56,2.56,0,0,1,.53.78,2,2,0,0,1,.18,1.06,4.12,4.12,0,0,0-.53-1l0-.09a2.88,2.88,0,0,0-.89-1.12l-.06-.09c0-.05,0-.11.08-.08a2.26,2.26,0,0,1,.42.25s0-.07.07,0h.15c.71-.77.15-1.85-.36-2.58a3,3,0,0,0-2.67-1.35c-.12,0-.2-.12-.22-.23a1.6,1.6,0,0,0-1-1.34,2.75,2.75,0,0,0-1.59-.33,1.35,1.35,0,0,0-.29-.05,1.47,1.47,0,0,1,.94-.23c-.38-.76-.89-1.93-1.91-1.18a.17.17,0,0,1-.27-.12,2.28,2.28,0,0,0-2-2.06c-.78-.17-2.11,0-2.28,1,0,.16-.32.3-.34.06,0-.65-.37-1.71-1.11-1.89a1.5,1.5,0,0,0-1.66.64c-.05.09-.24.18-.32.06a1.93,1.93,0,0,0-2.2-.88A2.37,2.37,0,0,0,48.49,20c0,.07-.14.13-.14,0a3,3,0,0,1,.34-1.49,1.4,1.4,0,0,0-2.27.52c0,.09-.2.1-.21,0-.09-1-1-1.24-1.88-1a2,2,0,0,0-1.6,2,.08.08,0,0,1-.07.08c-1,0-2,.38-1.75,1.56a.1.1,0,0,1-.09.11,1.49,1.49,0,0,0-1.64,1.55c0,.22-.34.41-.38.12a2.17,2.17,0,0,1,.06-.82,2.56,2.56,0,0,0-1.79.26,1.6,1.6,0,0,0-1,1.32c0,.11-.1.23-.22.23a3,3,0,0,0-2.69,1.32c-.52.73-1.09,1.8-.39,2.57l.15,0s.07,0,.07,0a2.28,2.28,0,0,1,.42-.24c.1,0,.11.11,0,.15a2.86,2.86,0,0,0-.92,1.13,2.18,2.18,0,0,0-.12,1.48.07.07,0,0,1-.1.08c-.58-.3-.38-1.1-.17-1.57a2.55,2.55,0,0,1,.54-.77l0-.05a4.61,4.61,0,0,0-1.48.29,2.31,2.31,0,0,0-1.57,2,.2.2,0,0,1-.23.18,2.71,2.71,0,0,0-3.47,1.95c-.2.76-.49,2.3.61,2.45.12,0,.16.18.12.28-.19.43-1.59,1.27-.52,1.75.09,0,0,.16,0,.2a2.77,2.77,0,0,0-1.27,2.65,2.27,2.27,0,0,0,.5,1.38,2.14,2.14,0,0,0,1.12.46l0,0a2.66,2.66,0,0,1,1-.37h0a2.52,2.52,0,0,0-.58.45A2.7,2.7,0,0,0,25.75,44c0,.51-.1,1.64.73,1.38.12,0,.13.13,0,.18-1.76,1-2.59,4.47,0,5a.22.22,0,0,1,.13.3c-.27.82-1.08,1.41-.22,2.21.08.07,0,.21-.06.25a2.38,2.38,0,0,0-.48,3.25,2.63,2.63,0,0,0,2.6.82,3.83,3.83,0,0,1,.39-.66,5.77,5.77,0,0,0-.07.71,2.26,2.26,0,0,0-.08,1.33,1.53,1.53,0,0,0,1.47,1.34.09.09,0,0,1,0,.16,2.94,2.94,0,0,0-.58,4c.44.67,1.71,1.75,2.52,1,.13-.12.28,0,.24.15-.32,1.34.72,2,1.88,1.79a2.41,2.41,0,0,1,.25-1.19,3.36,3.36,0,0,0,.28,1.35,1.64,1.64,0,0,0,.18.3,2.68,2.68,0,0,0,.4.54,1.58,1.58,0,0,0,2.24.27.06.06,0,0,1,.09,0A1.48,1.48,0,0,0,39,70.14a8.56,8.56,0,0,0,1.63.24,3.37,3.37,0,0,0,3-1.12c0-.07.19-.09.2,0,.07.73.81.9,1.4.64a1.86,1.86,0,0,1,.25-.56,1.72,1.72,0,0,0,.34,1.29,1.16,1.16,0,0,0,.91.43l.24.06a2,2,0,0,0,2.24-1.07.08.08,0,0,1,.14,0,1.81,1.81,0,0,0,1.7.85,1.36,1.36,0,0,0,1.26-.77c.09-.14.29-.15.34,0a2.74,2.74,0,0,0,3.25,1.67,4.36,4.36,0,0,0,2.21-2.33,0,0,0,1,1,.08,0,4.62,4.62,0,0,1-.38.88,5.93,5.93,0,0,0,1.15.09,8.54,8.54,0,0,0,1.63-.22,1.48,1.48,0,0,0,1.33-1.55.06.06,0,0,1,.09,0,1.58,1.58,0,0,0,2.24-.24l.11-.11a1.54,1.54,0,0,0,.72-.8,2.9,2.9,0,0,0,.18-.87s0,0,0-.05a2.29,2.29,0,0,1,.1.85c1.16.26,2.21-.42,1.9-1.76,0-.16.11-.28.24-.15.8.77,2.08-.29,2.53-1a2.94,2.94,0,0,0-.53-4,.09.09,0,0,1,0-.16,1.53,1.53,0,0,0,1.49-1.32,2.29,2.29,0,0,0-.1-1.44,4,4,0,0,0-.09-.6,1.24,1.24,0,0,0-.08-.21,4.12,4.12,0,0,1,.52.87A2.63,2.63,0,0,0,73.93,57a2.38,2.38,0,0,0-.44-3.26c-.07,0-.14-.18-.06-.26.87-.79.07-1.39-.19-2.22a.22.22,0,0,1,.13-.3C75.93,50.4,75.15,46.92,73.41,45.9Z"/><path class="cls-7" d="M73.63,42.55a2.13,2.13,0,0,0,1.12-.45,2.27,2.27,0,0,0,.52-1.37A2.77,2.77,0,0,0,74,38.06s-.11-.16,0-.2c1.08-.47-.32-1.33-.5-1.76,0-.1,0-.26.12-.28,1.1-.14.83-1.68.64-2.45A2.82,2.82,0,0,0,73.54,32a3,3,0,0,1,.19,2.16,2.81,2.81,0,0,1-2.34,1.86,2.13,2.13,0,0,1,1.32,1.34,1,1,0,0,1-.72,1.3,1.46,1.46,0,0,1,1.07,1.52c0,1-.91,1.13-1.64.88a2.2,2.2,0,0,1-.14,2.83l-.19.16a3.63,3.63,0,0,0-1.52-2c-.06,0-.14,0-.1.1.39.56,1.19,1.43,1,2.18-.23.93-1.57,1.24-2.37,1a.1.1,0,0,0-.09.16,2.06,2.06,0,0,0,2.94-.7,1.21,1.21,0,0,0,.12-.31,3.53,3.53,0,0,1,.87,1.19A2,2,0,0,1,69,48.4l-.07,0a2.31,2.31,0,0,1-.61.73c-1.06.82-2.67.7-4,.52a2.83,2.83,0,0,0-.6-2.73c-.07-.09-.2,0-.15.12a2.79,2.79,0,0,1,.09,2.54,2.11,2.11,0,0,1-2,1,.1.1,0,0,0,0,.18,1.83,1.83,0,0,0,2.61-.84l.08-.21c.48.32,1.06.53,1.55.8s1.13.65,1.22,1.23c.15,1-.79,1.47-1.62,1.26A2,2,0,0,1,65,55.57c-1.08.93-2.85.25-4-.32A2.27,2.27,0,0,1,60.59,58a3.33,3.33,0,0,1-3.15.61,2.74,2.74,0,0,1-.64,2.13,2.3,2.3,0,0,1-1.79.61,3.66,3.66,0,0,1-3.23-2.79,2,2,0,0,1-1.39,1.11A2.32,2.32,0,0,1,48.55,59a2.86,2.86,0,0,1-.6-3.8,3.6,3.6,0,0,1-2.64-.3,2.79,2.79,0,0,1-.86-.74A3.75,3.75,0,0,1,44.18,56a3.45,3.45,0,0,1-2.11,1.86,2.9,2.9,0,0,1-2.47-.25,2.51,2.51,0,0,1-1-2.29,1.86,1.86,0,0,1-2.61.07c-1-1-.22-2,.58-2.89a3.74,3.74,0,0,1-2.84-1,1.51,1.51,0,0,1-.11-2.08,2.21,2.21,0,0,0,2,.6.14.14,0,0,0,0-.26c-1.08-.3-2.95-1.48-1.94-2.79a.11.11,0,0,0-.16-.16A1.55,1.55,0,0,0,33,48.53,5.39,5.39,0,0,0,32.07,50a.1.1,0,0,1-.17,0,3.45,3.45,0,0,1,.83-4.72c-2.12-.19-4.32,1.29-4,3.61a.1.1,0,0,1-.19,0,5.57,5.57,0,0,1-.44-3.45,3,3,0,0,1,2.23-2.2c-1.59-3.19,5.53-.79,3.25.92a3.34,3.34,0,0,0,1.44.28,2,2,0,0,0,1.44-.7,2.86,2.86,0,0,0,.35-2.3c0-.12.17-.14.19,0,.31,1.72,1.89,3.65,3.72,2.43a.1.1,0,0,1,.14.12,3.08,3.08,0,0,0,1.73,4.19,3.93,3.93,0,0,1,1.77-5.41.1.1,0,0,1,.12,0,1.94,1.94,0,0,1,.3-.16,1.68,1.68,0,0,1,2,.65c.6-1.21,2.49-.73,3.14.34a3.43,3.43,0,0,0-.34.89c0,.11.12.14.17.05a2.71,2.71,0,0,1,2.48-1.31,2.21,2.21,0,0,1,1.33.54l.15.21a3.22,3.22,0,0,1,.18,3.44.11.11,0,0,0,0,.06l0,0c-.13.08,0,.27.12.23a3.81,3.81,0,0,0,2-1.33,4,4,0,0,1,.46.18,2.11,2.11,0,0,1,.85,2.82c-.07.11.05.28.17.18A2,2,0,0,0,58,48.53a1.91,1.91,0,0,0-.06-2,2.73,2.73,0,0,0-.25-.39v0a2.18,2.18,0,0,0-.71-.71,3.32,3.32,0,0,0-.42-.28,3.35,3.35,0,0,0-.53-2.6,2.4,2.4,0,0,1,1.1,1,2,2,0,0,1,1.62-1.86A2.49,2.49,0,0,1,61.22,43a1,1,0,0,1,1.18-.53h0v0l.05.06a.88.88,0,0,1,.4.36,1.51,1.51,0,0,0,.24.13,1.25,1.25,0,0,0,1.9-.95.08.08,0,0,0-.16,0,1,1,0,0,1-1.59.41,1.06,1.06,0,0,1-.52-.62,2.23,2.23,0,0,1,0-.77c0-.09-.1-.12-.17-.1a.68.68,0,0,0-.31.28l-.15-.15A1,1,0,0,1,61.9,40a1,1,0,0,1,.8-.43,1,1,0,0,1-.64-.89,2.26,2.26,0,0,1,.86-1.58c-.6-.13-1.11-.45-1-1.15a4,4,0,0,1,1-1.74,1.75,1.75,0,0,1-1-2.53,5.9,5.9,0,0,1-2-2.78,35.59,35.59,0,0,1-1.31-3.33,26,26,0,0,1-8-.5c-1.38-.25-2.75-.52-4.12-.75-.37-.06-4.27-.59-4.28-.36-.15,3.76-4.87,5.76-4.29,9.66,0,.07-.05.11-.11.1-1.66-.06-4.69,1.68-2.94,3.5a.1.1,0,0,1,0,.16c-.48.16-1,.4-.94,1a2.83,2.83,0,0,0,.65,1.13c.43.58.75,1.08.4,1.81a1.25,1.25,0,0,1-1.58.45,2.83,2.83,0,0,1-1.67-1.52,1.59,1.59,0,0,1-2.52.5,1.87,1.87,0,0,1-.83-1.42,2,2,0,0,1,.84-1.55c-.77,0-1.56-.34-1.28-1.28a3.43,3.43,0,0,1,1.59-1.83,1.52,1.52,0,0,1-1.26-.37,1,1,0,0,1,0-1.23A2.53,2.53,0,0,1,30,32c.22,0,.14-.3.17-.5a1.82,1.82,0,0,1,.22-.61,1.94,1.94,0,0,1,.89-.77c.07,0,.14,0,.13.11-.12,1.26,1.1,1.94,2.26,2a2,2,0,0,0-.09.21,1.89,1.89,0,0,0,.57,2.19c.06,0,.12,0,.09-.1a2,2,0,0,1,.09-2.19A3.88,3.88,0,0,1,35.82,31c.08,0,0-.16-.06-.14a2.94,2.94,0,0,0-2,1.31,1.21,1.21,0,0,1-.62-1.76,7.11,7.11,0,0,1,2.08-2.58,2.17,2.17,0,0,1-1.54-.58,1.62,1.62,0,0,1-.28-1.51,3.28,3.28,0,0,1,.14-.45,3.78,3.78,0,0,0-.43.5c-.52.73-1.09,1.8-.39,2.57l.15,0s.07,0,.07,0a2.28,2.28,0,0,1,.42-.24c.1,0,.11.11,0,.15a2.86,2.86,0,0,0-.92,1.13,2.18,2.18,0,0,0-.12,1.48.07.07,0,0,1-.1.08c-.58-.3-.38-1.1-.17-1.57a2.55,2.55,0,0,1,.54-.77l0-.05a4.61,4.61,0,0,0-1.48.29,2.31,2.31,0,0,0-1.57,2,.2.2,0,0,1-.23.18,2.71,2.71,0,0,0-3.47,1.95c-.2.76-.49,2.3.61,2.45.12,0,.16.18.12.28-.19.43-1.59,1.27-.52,1.75.09,0,0,.16,0,.2a2.77,2.77,0,0,0-1.27,2.65,2.27,2.27,0,0,0,.5,1.38,2.14,2.14,0,0,0,1.12.46l0,0a2.66,2.66,0,0,1,1-.37h0a2.52,2.52,0,0,0-.58.45A2.7,2.7,0,0,0,25.75,44c0,.51-.1,1.64.73,1.38.12,0,.13.13,0,.18-1.76,1-2.59,4.47,0,5a.22.22,0,0,1,.13.3c-.27.82-1.08,1.41-.22,2.21.08.07,0,.21-.06.25a2.38,2.38,0,0,0-.48,3.25,2.63,2.63,0,0,0,2.6.82,3.83,3.83,0,0,1,.39-.66,5.77,5.77,0,0,0-.07.71,2.26,2.26,0,0,0-.08,1.33,1.53,1.53,0,0,0,1.47,1.34.09.09,0,0,1,0,.16,2.94,2.94,0,0,0-.58,4c.44.67,1.71,1.75,2.52,1,.13-.12.28,0,.24.15-.32,1.34.72,2,1.88,1.79a2.41,2.41,0,0,1,.25-1.19,3.36,3.36,0,0,0,.28,1.35,1.64,1.64,0,0,0,.18.3,2.68,2.68,0,0,0,.4.54,1.58,1.58,0,0,0,2.24.27.06.06,0,0,1,.09,0A1.48,1.48,0,0,0,39,70.14a8.56,8.56,0,0,0,1.63.24,3.37,3.37,0,0,0,3-1.12c0-.07.19-.09.2,0,.07.73.81.9,1.4.64a1.86,1.86,0,0,1,.25-.56,1.72,1.72,0,0,0,.34,1.29,1.16,1.16,0,0,0,.91.43l.24.06a2,2,0,0,0,2.24-1.07.08.08,0,0,1,.14,0,1.81,1.81,0,0,0,1.7.85,1.36,1.36,0,0,0,1.26-.77c.09-.14.29-.15.34,0a2.74,2.74,0,0,0,3.25,1.67,4.36,4.36,0,0,0,2.21-2.33,0,0,0,1,1,.08,0,4.62,4.62,0,0,1-.38.88,5.93,5.93,0,0,0,1.15.09,8.54,8.54,0,0,0,1.63-.22,1.48,1.48,0,0,0,1.33-1.55.06.06,0,0,1,.09,0,1.58,1.58,0,0,0,2.24-.24l.11-.11a1.54,1.54,0,0,0,.72-.8,2.9,2.9,0,0,0,.18-.87s0,0,0-.05a2.29,2.29,0,0,1,.1.85c1.16.26,2.21-.42,1.9-1.76,0-.16.11-.28.24-.15.8.77,2.08-.29,2.53-1a2.94,2.94,0,0,0-.53-4,.09.09,0,0,1,0-.16,1.53,1.53,0,0,0,1.49-1.32,2.29,2.29,0,0,0-.1-1.44,4,4,0,0,0-.09-.6,1.24,1.24,0,0,0-.08-.21,4.12,4.12,0,0,1,.52.87A2.63,2.63,0,0,0,73.93,57a2.38,2.38,0,0,0-.44-3.26c-.07,0-.14-.18-.06-.26.87-.79.07-1.39-.19-2.22a.22.22,0,0,1,.13-.3c2.56-.52,1.77-4,0-5-.08,0-.07-.22,0-.18.82.27.78-.86.74-1.37a2.55,2.55,0,0,0-.79-1.48l0,0a3.9,3.9,0,0,0-.39-.54,2.68,2.68,0,0,1,.6.29Z"/><path class="cls-7" d="M70.21,32.91c-.09-1.35-.07-2.91-1.52-3.52-.06,0-.15,0-.14.1.22,1.15.58,2.51-.64,3.18a8.3,8.3,0,0,0-1.22-3.34,2,2,0,0,0-1.76-.85c.64-.33,1.19-.77,1.1-1.46a1.54,1.54,0,0,0-2.29-1c.42-2-2.37-2.48-3.93-2.37a6.81,6.81,0,0,0-1.43-4.42,2.18,2.18,0,0,1,1.69,2,.17.17,0,0,0,.27.12c1-.75,1.53.41,1.91,1.18a1.47,1.47,0,0,0-.94.23,1.35,1.35,0,0,1,.29.05,2.75,2.75,0,0,1,1.59.33,1.6,1.6,0,0,1,1,1.34c0,.11.1.23.22.23A3,3,0,0,1,67.11,26c.51.73,1.07,1.81.36,2.58h-.15s-.07,0-.07,0a2.26,2.26,0,0,0-.42-.25c-.06,0-.09,0-.08.08l.06.09a2.88,2.88,0,0,1,.89,1.12l0,.09a4.12,4.12,0,0,1,.53,1,2,2,0,0,0-.18-1.06,2.56,2.56,0,0,0-.53-.78l0-.05a4.59,4.59,0,0,1,1.47.31,2.31,2.31,0,0,1,1.55,2,.2.2,0,0,0,.22.19,3,3,0,0,1,1.46,0A4.6,4.6,0,0,0,70.21,32.91Z"/><path class="cls-7" d="M38.89,30.7a13.44,13.44,0,0,0-.57,1.72c-.66,2.6-.22,5.58,2,7.32a8.83,8.83,0,0,0,3,1.41,16.6,16.6,0,0,0,3.54.65,15.37,15.37,0,0,0,7.27-1.11,9.36,9.36,0,0,0,5.06-4.93,8.16,8.16,0,0,0,.57-3.59c-.09-1.15-.38-2.28-.44-3.42,0-.11-.09-.23-.14-.34a5.91,5.91,0,0,0-4.92-3.73A12.11,12.11,0,0,0,44,27.95C42.38,29.7,42.27,24.36,38.89,30.7Z"/><path class="cls-7" d="M26.33,53.38c.07,0,.14-.18.06-.25-.86-.8,0-1.4.22-2.21a.22.22,0,0,0-.13-.3c-2.55-.55-1.72-4,0-5,.08,0,.07-.21,0-.18-.82.26-.77-.87-.73-1.38a2.7,2.7,0,0,1,1.07-1.69,2.52,2.52,0,0,1,.58-.45h0a2.66,2.66,0,0,0-1,.37l0,0a2.14,2.14,0,0,1-1.12-.46,2.27,2.27,0,0,1-.5-1.38A2.77,2.77,0,0,1,26,37.75c.05,0,.11-.16,0-.2-1.07-.49.33-1.32.52-1.75,0-.1,0-.26-.12-.28-1.1-.15-.81-1.69-.61-2.45a3,3,0,0,1,.22-.59,3.62,3.62,0,0,0,1.4,2.15,1.45,1.45,0,0,0,.24,2.52c-.91.47-2,1.64-1.6,2.68s1.72,1.17,2.7,1.39c-.8.66-1.9,1.2-2,2.35-.07.83.29,1.44,1.13,1.45-.58,2-.89,6.23,2.15,6.18.09,0,.1-.12.05-.17-1.19-1.22-.36-3.76,1.1-4.46a3,3,0,0,0-.46,3.08c.34.73,1,1.48,1.78,1.13a3.27,3.27,0,0,0,.05.67,2.91,2.91,0,0,0,1.82,2.14,2.53,2.53,0,0,1-1.63.48,1.8,1.8,0,0,1-1.43-1.24.1.1,0,0,0-.19,0,6,6,0,0,0,.13,2.9A1.83,1.83,0,0,0,33,56.85a1.85,1.85,0,0,0-1.22,1.77,2.84,2.84,0,0,0,1.53,2.19,2.22,2.22,0,0,0-.2,3.27c.49.54,1.44,1,2.07.56h0a.1.1,0,0,0,.13-.14,1.15,1.15,0,0,0,.16-.21c.06-.11-.11-.19-.18-.08a.92.92,0,0,1-.16.2c-.86-.4-.63-1.65-.42-2.4a6.48,6.48,0,0,1,1.14-2.34c.08,1.73,1.15,4.85,3.33,3.84a.1.1,0,0,0,0-.15,5.31,5.31,0,0,1-1-2.74c.5,1.34,1.45,2.59,3.05,2.4A6.19,6.19,0,0,0,45,60.81c-.55,1.28-.92,3,.39,3.84a3.82,3.82,0,0,0,4.12-.15c-.32,1.55-1.56,2.81-3.24,2.18a.1.1,0,0,0-.14.1c.25,2,2.94,1.17,3.84.07a2.93,2.93,0,0,0,5-.22.1.1,0,0,0-.1-.14c-1.66.22-4.6-.95-4.27-3a6.57,6.57,0,0,0,4.72.82,2.92,2.92,0,0,0,2.11-3c.87,1.83,3.82,3.36,4.91,1.32a1.4,1.4,0,0,1-.56,1.13.1.1,0,0,0,0,.17c2,.35,4.42-1.72,3-3.72a.1.1,0,0,0-.17.07,1.8,1.8,0,0,1-2.15,1.91h0a.1.1,0,0,0-.08-.08c1-.52.64-2.22-.48-2.65A3.8,3.8,0,0,0,64,58.11,1.72,1.72,0,0,0,63.71,56l.3,0a4.38,4.38,0,0,0,2.24-.58,1.38,1.38,0,0,0,.43-2.07c.77,0,1.62-.22,1.68-1.12a2.65,2.65,0,0,0-.79-2,3.4,3.4,0,0,1,1.36,2.2c.18.91,0,2.1-1.18,1.86a.1.1,0,0,0-.11.13c.83,1.73-.64,3.37-2.38,3.49a.1.1,0,0,0,0,.18A3.93,3.93,0,0,0,69.1,58a2.53,2.53,0,0,0,.74-2.93,1.52,1.52,0,0,0,1,.54A1.37,1.37,0,0,0,72,55a1.16,1.16,0,0,0-.71-1.89,1.83,1.83,0,0,0,1.2-1.43A2.18,2.18,0,0,0,71.82,50c.9.17,2,.22,2.53-.63a3.39,3.39,0,0,0,.41-1.79c.53,1.36.3,3-1.39,3.33a.22.22,0,0,0-.13.3c.26.82,1.06,1.43.19,2.22-.08.07,0,.21.06.26A2.38,2.38,0,0,1,73.93,57a2.63,2.63,0,0,1-2.61.78,4.12,4.12,0,0,0-.52-.87,1.24,1.24,0,0,1,.08.21,4,4,0,0,1,.09.6,2.29,2.29,0,0,1,.1,1.44,1.53,1.53,0,0,1-1.49,1.32.09.09,0,0,0,0,.16,2.94,2.94,0,0,1,.53,4c-.45.67-1.73,1.73-2.53,1-.13-.13-.28,0-.24.15.31,1.34-.74,2-1.9,1.76a2.29,2.29,0,0,0-.1-.85s0,0,0,.05a2.9,2.9,0,0,1-.18.87,1.54,1.54,0,0,1-.72.8l-.11.11a1.58,1.58,0,0,1-2.24.24.06.06,0,0,0-.09,0,1.48,1.48,0,0,1-1.33,1.55,8.54,8.54,0,0,1-1.63.22,5.93,5.93,0,0,1-1.15-.09,4.62,4.62,0,0,0,.38-.88,0,0,0,1,0-.08,0,4.36,4.36,0,0,1-2.21,2.33,2.74,2.74,0,0,1-3.25-1.67c0-.18-.24-.17-.34,0a1.36,1.36,0,0,1-1.26.77,1.81,1.81,0,0,1-1.7-.85.08.08,0,0,0-.14,0A2,2,0,0,1,47,71.13l-.24-.06a1.16,1.16,0,0,1-.91-.43,1.72,1.72,0,0,1-.34-1.29,1.86,1.86,0,0,0-.25.56c-.59.26-1.33.09-1.4-.64,0-.11-.15-.1-.2,0a3.37,3.37,0,0,1-3,1.12A8.56,8.56,0,0,1,39,70.14a1.48,1.48,0,0,1-1.31-1.57.06.06,0,0,0-.09,0,1.58,1.58,0,0,1-2.24-.27,2.68,2.68,0,0,1-.4-.54,1.64,1.64,0,0,1-.18-.3,3.36,3.36,0,0,1-.28-1.35,2.41,2.41,0,0,0-.25,1.19c-1.16.24-2.2-.45-1.88-1.79,0-.16-.11-.28-.24-.15-.81.76-2.08-.32-2.52-1a2.94,2.94,0,0,1,.58-4,.09.09,0,0,0,0-.16,1.53,1.53,0,0,1-1.47-1.34,2.26,2.26,0,0,1,.08-1.33,5.77,5.77,0,0,1,.07-.71,3.83,3.83,0,0,0-.39.66,2.63,2.63,0,0,1-2.6-.82A2.38,2.38,0,0,1,26.33,53.38Z"/><path class="cls-7" d="M29.5,58.74a4.21,4.21,0,0,0,1.66,1.16,2.67,2.67,0,0,0-1,1.35,2,2,0,0,0,2.46,2.56c1.23,1.46,3.65,2.36,4.61.72,1.95,1.12,4.36,1.34,6-.2a3.57,3.57,0,0,0,2.46,1.09,1.53,1.53,0,0,0-.3,1.07,2.9,2.9,0,0,0,1.11,1.88c.82.67,2.29,1.17,2.93.3a3.5,3.5,0,0,0,2.5.85A3.34,3.34,0,0,0,54.59,68a3,3,0,0,0,.34-1.38h0a.09.09,0,0,0,0-.08,4.74,4.74,0,0,0-.06-.68,1.85,1.85,0,0,0,.91-.47c.23,1,.71,2,2.06,1.79a3.28,3.28,0,0,0,2.68-2.7c1.27.6,3.06.61,3.89-.43a2.52,2.52,0,0,0,3,.09c1.69-1.32,1.16-3,.26-4.58a4.16,4.16,0,0,0,3.47-.68c0,.07,0,.14,0,.21a1.53,1.53,0,0,1-1.49,1.32.09.09,0,0,0,0,.16,2.94,2.94,0,0,1,.53,4c-.45.67-1.73,1.73-2.53,1-.13-.13-.28,0-.24.15.31,1.34-.74,2-1.9,1.76a2.29,2.29,0,0,0-.1-.85s0,0,0,.05a2.9,2.9,0,0,1-.18.87,1.54,1.54,0,0,1-.72.8l-.11.11a1.58,1.58,0,0,1-2.24.24.06.06,0,0,0-.09,0,1.48,1.48,0,0,1-1.33,1.55,8.54,8.54,0,0,1-1.63.22,5.93,5.93,0,0,1-1.15-.09,4.62,4.62,0,0,0,.38-.88,0,0,0,1,0-.08,0,4.36,4.36,0,0,1-2.21,2.33,2.74,2.74,0,0,1-3.25-1.67c0-.18-.24-.17-.34,0a1.36,1.36,0,0,1-1.26.77,1.81,1.81,0,0,1-1.7-.85.08.08,0,0,0-.14,0A2,2,0,0,1,47,71.13l-.24-.06a1.16,1.16,0,0,1-.91-.43,1.72,1.72,0,0,1-.34-1.29,1.86,1.86,0,0,0-.25.56c-.59.26-1.33.09-1.4-.64,0-.11-.15-.1-.2,0a3.37,3.37,0,0,1-3,1.12A8.56,8.56,0,0,1,39,70.14a1.48,1.48,0,0,1-1.31-1.57.06.06,0,0,0-.09,0,1.58,1.58,0,0,1-2.24-.27,2.68,2.68,0,0,1-.4-.54,1.64,1.64,0,0,1-.18-.3,3.36,3.36,0,0,1-.28-1.35,2.41,2.41,0,0,0-.25,1.19c-1.16.24-2.2-.45-1.88-1.79,0-.16-.11-.28-.24-.15-.81.76-2.08-.32-2.52-1a2.94,2.94,0,0,1,.58-4,.09.09,0,0,0,0-.16,1.53,1.53,0,0,1-1.47-1.34,2.25,2.25,0,0,1,.07-1.31A3.76,3.76,0,0,0,29.5,58.74Z"/><path class="cls-7" d="M25.75,55.61a3.58,3.58,0,0,0,2.82.7,3.08,3.08,0,0,0,.07.79,3.24,3.24,0,0,0-.19.35,2.63,2.63,0,0,1-2.6-.82,2.15,2.15,0,0,1-.44-1.29A4,4,0,0,0,25.75,55.61Z"/><path class="cls-8" d="M34.27,53a2.25,2.25,0,0,1-1.64-1.7,2.51,2.51,0,0,1,.58-2.24s0-.07,0,0A3.35,3.35,0,0,0,32.1,50.6a2.22,2.22,0,0,1-1.48-1.83c-.13-1.05.68-1.87,1.34-2.56,0,0,0,0,0,0a3.78,3.78,0,0,0-1.63,2.89c0,.93.75,2,1.73,1.92a2.25,2.25,0,0,0,0,.54,1.87,1.87,0,0,0,2.15,1.7C34.37,53.21,34.42,53,34.27,53Z"/><path class="cls-8" d="M35,34.74c-.86.93-1,2.83.15,3.59h0c-.25.43-.41,1.09.05,1.4.14.09.27-.06.26-.2a1.74,1.74,0,0,1,.11-1.29,1.38,1.38,0,0,1,.4-.46c.16-.12.35-.14.51-.27s0-.06,0,0c-.22.11-.48.06-.7.2a1.77,1.77,0,0,0-.49.48,2.8,2.8,0,0,1-.33-2.72A2.15,2.15,0,0,1,36,34.33c.36-.18,1.31-.37,1.63,0,0,0,.05,0,0,0C37.33,33.22,35.45,34.24,35,34.74Z"/><path class="cls-8" d="M49.86,48c-1.33.27-3.62.25-3.49-1.68,0,0,0,0-.06,0a2,2,0,0,0,0,1,2.71,2.71,0,0,1-2.19-1.07,3,3,0,0,1-.23-3s0,0,0,0a3,3,0,0,0-.39,3.11,2.37,2.37,0,0,0,2.92,1.3h0a1.37,1.37,0,0,0,.62.58,3.27,3.27,0,0,0,2.85-.08C50,48.1,50,48,49.86,48Z"/><path class="cls-8" d="M68.68,51.42a1.9,1.9,0,0,0-2.49-1.32s0,0,0,0a2,2,0,0,1,2.1,1.21,2.53,2.53,0,0,1-1,2.54,2,2,0,0,0-.74-.77s-.07,0-.05,0a1.76,1.76,0,0,1,.18,1.94,1.83,1.83,0,0,1-1.83.93c-.08,0-.15.13-.06.16a2.07,2.07,0,0,0,2.31-.76,1.84,1.84,0,0,0,.28-1.31l0-.11A2.45,2.45,0,0,0,68.68,51.42Z"/><path class="cls-8" d="M67.27,37.37a1.88,1.88,0,0,0-.84,0,1.53,1.53,0,0,0-1.21-1.24,2.25,2.25,0,0,0-2.16.81s0,0,0,0a2.38,2.38,0,0,1,1.77-.48A1.63,1.63,0,0,1,66,37.56a10.15,10.15,0,0,0-1.19,1s0,.1,0,.08c.62-.31,1-.7,1.76-.63s1.09.72,1.31,1.44c.06.19.3.08.33-.06A1.47,1.47,0,0,0,67.27,37.37Z"/><path d="M46.38,89.13c-.68.49-2,1-2.77.47a2.22,2.22,0,0,1-3.32-1.37c-.33-1.83-.31-4.38.95-5.91A36.43,36.43,0,0,1,38.76,74a32.14,32.14,0,0,1-.81-9,2.14,2.14,0,0,1-.8-.27A2,2,0,0,1,36,63.28a2.31,2.31,0,0,0,2.37,1.37,3.07,3.07,0,0,0,1.44-.58,1.53,1.53,0,0,1-.75-1,2.85,2.85,0,0,0,.42.52,2.48,2.48,0,0,0,2.39.25A3.08,3.08,0,0,0,43.25,63a3.46,3.46,0,0,0,.92-1.07,3.34,3.34,0,0,1-.38.84,3.41,3.41,0,0,0,.07.51c-.1,1.48,1.57,2.36,3,2.17a2.64,2.64,0,0,1-1.89-.11,65.37,65.37,0,0,0-.23,7.88,74.16,74.16,0,0,0,.85,7.6A13.54,13.54,0,0,1,46.36,83a18.06,18.06,0,0,1,.72,2.72C47.25,86.85,47.42,88.37,46.38,89.13Z"/><path class="cls-9" d="M41.83,82.71A2.2,2.2,0,0,0,44,83c.27-.08,1.32-.46,1.31-.86,0-.19,0-.37,0-.54a32.48,32.48,0,0,1-1.19-8.31,40.6,40.6,0,0,1,.15-4.63c.06-.73.12-1.47.22-2.19a6.28,6.28,0,0,1,.21-1.27A2.23,2.23,0,0,1,43.58,63a3.46,3.46,0,0,1-2,1.26A2.72,2.72,0,0,1,40,64.15l0,0a2.48,2.48,0,0,1-1.83.92A68.28,68.28,0,0,0,41.83,82.71Z"/><path class="cls-10" d="M39.95,64.17l0,0a2.72,2.72,0,0,0,1.67.13,3.46,3.46,0,0,0,2-1.26,2.23,2.23,0,0,0,1.14,2.17,6.28,6.28,0,0,0-.21,1.27c-.11.73-.16,1.46-.22,2.19a40.6,40.6,0,0,0-.15,4.63,32.48,32.48,0,0,0,1.19,8.31c0,.18,0,.36,0,.54,0,.34-.73.66-1.12.8q-.14-.78-.35-1.55c-.53-2-1.35-3.89-1.71-5.9a34,34,0,0,1-.6-5.59c0-1.27.1-3-.77-4-.5-.6-1-.38-1.14.33a13.51,13.51,0,0,0-.21,3.86,31.43,31.43,0,0,0,.73,5.54,30.52,30.52,0,0,0,2.54,7.53,1.62,1.62,0,0,1-.89-.42,68.28,68.28,0,0,1-3.71-17.62A2.48,2.48,0,0,0,39.95,64.17Z"/><path class="cls-11" d="M44.79,81.49c-.32-1.55-.75-3-1-4.61-.32-2.19-.56-4.41-.66-6.62a13.59,13.59,0,0,1,0-1.87c0-.43.14-.86.17-1.29a1.94,1.94,0,0,0-.09-.93,2.86,2.86,0,0,1-.37-1.2c0-.11-.13-.14-.2-.09a2.38,2.38,0,0,1-2.56-.29.13.13,0,0,0-.2,0c-.33.63-1.15.67-1.55,1.25a1.17,1.17,0,0,0-.1.18l-.1-1a2.48,2.48,0,0,0,1.83-.92l0,0a2.72,2.72,0,0,0,1.67.13,3.46,3.46,0,0,0,2-1.26,2.23,2.23,0,0,0,1.14,2.17,6.28,6.28,0,0,0-.21,1.27c-.11.73-.16,1.46-.22,2.19a40.6,40.6,0,0,0-.15,4.63,32.48,32.48,0,0,0,1.19,8.31c0,.18,0,.36,0,.54s-.22.37-.49.52A3.78,3.78,0,0,0,44.79,81.49Z"/><path class="cls-4" d="M46.09,83.83c-.15-.51-.29-1-.47-1.54A2.08,2.08,0,0,1,44,83.48a2.28,2.28,0,0,1-2.69-1,14,14,0,0,0-.74,4.45c.07.86.11,2.29,1.27,2.34a4.28,4.28,0,0,0,1.38-.19,6,6,0,0,1-.07-1.59,7.62,7.62,0,0,1,.17-1.71,13.32,13.32,0,0,0,.16,3.11.57.57,0,0,0,.58.53,1.59,1.59,0,0,0,1-.17l.19-.08a1.76,1.76,0,0,0,1.43-1.58A11.87,11.87,0,0,0,46.09,83.83Z"/><path class="cls-6" d="M45.06,83.09V83a1.45,1.45,0,0,0,.57-.73c.18.5.33,1,.47,1.54a11.87,11.87,0,0,1,.6,3.78,1.47,1.47,0,0,1-.3.85A34.88,34.88,0,0,0,45.06,83.09Z"/><path class="cls-5" d="M44.07,89.44a.69.69,0,0,1-.2,0A15,15,0,0,1,44,83.87a16.72,16.72,0,0,0,.7,5.52A1.14,1.14,0,0,1,44.07,89.44Z"/><path class="cls-5" d="M42.29,83.38a2,2,0,0,0,.31.12,16.28,16.28,0,0,0-.06,5.74,3.62,3.62,0,0,1-.69,0A12,12,0,0,1,42.29,83.38Z"/><path class="cls-6" d="M40.78,88.36a6.53,6.53,0,0,1-.21-1.42,14,14,0,0,1,.74-4.45l.16.21A13.5,13.5,0,0,0,40.78,88.36Z"/><path d="M53.58,85.79a18.06,18.06,0,0,1,.76-2.71,13.51,13.51,0,0,1,.84-2.23,74.17,74.17,0,0,0,1-7.59A65.51,65.51,0,0,0,56,65.37a2.64,2.64,0,0,1-1.89.08c1.38.22,3.06-.65,3-2.13a3.38,3.38,0,0,0,.07-.51,3.37,3.37,0,0,1-.37-.84,3.46,3.46,0,0,0,.9,1.08,3.08,3.08,0,0,0,1.37.88,2.48,2.48,0,0,0,2.4-.22,2.82,2.82,0,0,0,.43-.52,1.53,1.53,0,0,1-.76,1,3.08,3.08,0,0,0,1.43.6A2.31,2.31,0,0,0,65,63.48,2,2,0,0,1,63.79,65a2.15,2.15,0,0,1-.81.26,32.16,32.16,0,0,1-.93,9,36.44,36.44,0,0,1-2.58,8.25c1.24,1.54,1.23,4.09.87,5.92A2.22,2.22,0,0,1,57,89.69c-.78.51-2.09,0-2.76-.51C53.2,88.4,53.4,86.89,53.58,85.79Z"/><path class="cls-9" d="M62.81,65.25A2.48,2.48,0,0,1,61,64.31l0,0a2.72,2.72,0,0,1-1.67.11,3.46,3.46,0,0,1-1.94-1.28,2.23,2.23,0,0,1-1.17,2.16,6.28,6.28,0,0,1,.19,1.27c.1.73.14,1.46.19,2.19a40.6,40.6,0,0,1,.09,4.63,32.5,32.5,0,0,1-1.3,8.29c0,.18,0,.36,0,.54,0,.41,1,.79,1.3.88a2.2,2.2,0,0,0,2.22-.26A68.29,68.29,0,0,0,62.81,65.25Z"/><path class="cls-10" d="M55.38,81.66a32.5,32.5,0,0,0,1.3-8.29,40.6,40.6,0,0,0-.09-4.63c-.05-.73-.1-1.47-.19-2.19a6.28,6.28,0,0,0-.19-1.27,2.23,2.23,0,0,0,1.17-2.16,3.46,3.46,0,0,0,1.94,1.28A2.72,2.72,0,0,0,61,64.29l0,0a2.48,2.48,0,0,0,1.82.94,68.29,68.29,0,0,1-3.94,17.57,1.65,1.65,0,0,1-1,.42v0A.27.27,0,0,0,58.2,83c1.49-4.09,2.64-6.88,3.25-11.18a17.74,17.74,0,0,0,0-5.63c-.17-.52-.9-1.65-1.6-1.12s-.6,1.49-.63,2.18c0,1.14,0,2.28,0,3.42a42.83,42.83,0,0,1-.66,6.84,26.3,26.3,0,0,1-1.44,5.67,4,4,0,0,1-.52-.13c-.27-.08-1.31-.47-1.3-.88C55.36,82,55.37,81.84,55.38,81.66Z"/><path class="cls-11" d="M55.38,81.66a32.5,32.5,0,0,0,1.3-8.29,40.6,40.6,0,0,0-.09-4.63c-.05-.73-.1-1.47-.19-2.19a6.28,6.28,0,0,0-.19-1.27,2.23,2.23,0,0,0,1.17-2.16,3.46,3.46,0,0,0,1.94,1.28A2.72,2.72,0,0,0,61,64.29l0,0a2.59,2.59,0,0,0,1.62.93c-.59.08-1.13-.48-1.84-.43a4.18,4.18,0,0,1-1.5.11,8.32,8.32,0,0,1-1.38-.53.13.13,0,0,0-.18.13c.15.83-.63,1.43-.53,2.29.06.49.22,1,.27,1.47a13.52,13.52,0,0,1,.06,1.55c0,1.3-.09,2.6-.16,3.9-.06,1.11,0,2.22-.13,3.32a22.08,22.08,0,0,1-.77,3.32A4.54,4.54,0,0,0,56.31,82a2.22,2.22,0,0,0,.38,1.12h0c-.27-.08-1.31-.47-1.3-.88C55.36,82,55.37,81.84,55.38,81.66Z"/><path class="cls-4" d="M53.94,87.66a1.76,1.76,0,0,0,1.41,1.59l.19.09a1.58,1.58,0,0,0,1,.18.57.57,0,0,0,.59-.53,13.32,13.32,0,0,0,.2-3.1,7.61,7.61,0,0,1,.15,1.71,6,6,0,0,1-.09,1.59,4.28,4.28,0,0,0,1.38.2c1.17,0,1.22-1.46,1.3-2.32a14,14,0,0,0-.68-4.46,2.28,2.28,0,0,1-2.7,1,2.08,2.08,0,0,1-1.61-1.21c-.19.5-.34,1-.49,1.53A11.85,11.85,0,0,0,53.94,87.66Z"/><path class="cls-6" d="M54.2,88.47a1.47,1.47,0,0,1-.26-.81,11.85,11.85,0,0,1,.65-3.77c.15-.51.3-1,.49-1.53a1.4,1.4,0,0,0,.41.62A16.08,16.08,0,0,0,54.2,88.47Z"/><path class="cls-5" d="M56.33,83.44l.1,0a17.74,17.74,0,0,1-.25,6.06,2.5,2.5,0,0,1-.64-.2l-.16-.07A20,20,0,0,1,56.33,83.44Z"/><path class="cls-5" d="M58,84.32a27,27,0,0,1,.26,5.05l-.23,0A38.08,38.08,0,0,0,58,84.32Z"/><path class="cls-6" d="M58.78,83.47a.32.32,0,0,0-.11-.15,3,3,0,0,0,.73-.72,14,14,0,0,1,.68,4.46,3.47,3.47,0,0,1-.57,2A12.51,12.51,0,0,0,58.78,83.47Z"/><path class="cls-7" d="M43.16,44.07a2.08,2.08,0,0,1,.57-.87c.07-.06.2,0,.14.1-1.11,1.47.29,4.73,2.28,4.25a2.69,2.69,0,0,1,.07-1.65c0-.08.17-.08.16,0,0,1,.24,1.84,1.32,2.09a3.22,3.22,0,0,0,2.56-.86.15.15,0,0,1,.24.18,2,2,0,0,1-.11.22,2.82,2.82,0,0,1-2.25,2.24,2.15,2.15,0,0,1-2.55-1.15,2.34,2.34,0,0,1-2.41-1.22A3.47,3.47,0,0,1,43.16,44.07Z"/><path class="cls-7" d="M62.6,37.5l.22-.12a.19.19,0,0,0,.13,0c.6-.07,1.19-.52,1.82-.38,1.1.25.09,1.49-.49,1.75-.1,0,0,.21.06.2a1.55,1.55,0,0,0,.34-.07.21.21,0,0,0,.22.18c.38,0,.68-.3,1.06-.37a1.32,1.32,0,0,1,1.17.23,2.21,2.21,0,0,1,.55,1.72l-.09.24a.07.07,0,0,0,0,.06.09.09,0,0,0,.15.07,1,1,0,0,0,.21-.33c.66-.91,1.15-2.21.29-3.15a1.77,1.77,0,0,0-1.76-.46,1.91,1.91,0,0,0-1.6-1.38c-1.12-.18-1.82.79-2.55,1.43C62.14,37.33,62.4,37.59,62.6,37.5Z"/><path class="cls-7" d="M48.74,53.35a1.19,1.19,0,0,0,.32.65,1.77,1.77,0,0,0,1.78.95,1.72,1.72,0,0,0,1.52-1.06c1.58,1,4.32.28,3.54-1.76v-.06a.05.05,0,0,0,0,0c0-.08-.08-.17-.12-.26a.09.09,0,0,0-.16.07,2,2,0,0,1,.09.49,1.78,1.78,0,0,1-1.65.95c-.51,0-1.18,0-1.35-.54a1.75,1.75,0,0,0,.45-.39,1.63,1.63,0,0,0,.46-.67c0-.09-.11-.18-.17-.1a2.41,2.41,0,0,1-3,.45c-.06,0-.14,0-.1.1a1.55,1.55,0,0,0,.44.43,1.18,1.18,0,0,0,1,.42,2,2,0,0,1-1.25.89,1.49,1.49,0,0,1-1.38-.35c-.06-.11-.12-.22-.18-.34s-.21,0-.18.08v0A.08.08,0,0,0,48.74,53.35Zm2.41.87a1.85,1.85,0,0,0,.55-.45A1,1,0,0,1,51.15,54.22Z"/><path class="cls-12" d="M36,74.37c-.17-.47-.32-1-.47-1.45a42.77,42.77,0,0,1-1.4-4.61,2.27,2.27,0,0,0,1.77,1.33c.6,1.67,1,3.42,1.56,5.11A2.81,2.81,0,0,1,36,74.37Z"/><path class="cls-12" d="M63.46,74.87c.12-.58.34-1.14.5-1.7.26-.94,1.26-4.25,1.56-4.94l.07-.17A2.91,2.91,0,0,0,66.72,68c-.24.85-1.38,5.57-2.19,6.89A1.76,1.76,0,0,1,63.46,74.87Z"/><path d="M63.45,22.53c.18-.58,0-1.42-.54-1.62A2.26,2.26,0,0,0,63.67,19a1.55,1.55,0,0,0-1.54-1.5,1.9,1.9,0,0,0-.3-1.67c-.35-.45-1-.36-1.5-.18A1.52,1.52,0,0,0,60.05,14a1.08,1.08,0,0,0-1.15-.35c.31-.8.2-1.81-.75-2.07a2.82,2.82,0,0,0-1.94.26,2.25,2.25,0,0,0-1.3-1.16,2.17,2.17,0,0,0-2.56.87c0-.94-1.12-1.62-2-1.56a2.06,2.06,0,0,0-1.46.77,1.22,1.22,0,0,0-.46-.54,2.56,2.56,0,0,0-1.48-.06,2.09,2.09,0,0,0-1.69,1.35c-.68-.72-1.84-.22-2.59.22a2.64,2.64,0,0,0-1.16,1.42,1.65,1.65,0,0,0-.05.45,3,3,0,0,0-.78,0,1.93,1.93,0,0,0-1.21.59c-.34.33-.15,1-.61,1A2.32,2.32,0,0,0,36.77,17a2.15,2.15,0,0,0,.06,1.4,1.84,1.84,0,0,0,1.24,1,1.57,1.57,0,0,0-.5.9c-.09.46.24.76.52,1.07a2.5,2.5,0,0,0-1.78,2.52,1.93,1.93,0,0,0,2.29,1.94c-.7,1.23,0,2.44,1.59,2.61h0l-.2.52c-.71,1.86-1.56,3.71-1.17,5.74.67,3.47,4.65,5.52,7.86,5.85a12.52,12.52,0,0,0,9.68-3.64,9.79,9.79,0,0,0,3-4.91,13.46,13.46,0,0,0,.23-4.12,2.78,2.78,0,0,0,2.56-1.74c.3-.67.46-1.64-.16-2A2.21,2.21,0,0,0,63.45,22.53Z"/><path d="M62.91,20.9A2.26,2.26,0,0,0,63.67,19a1.55,1.55,0,0,0-1.54-1.5,1.9,1.9,0,0,0-.3-1.67c-.35-.45-1-.36-1.5-.18A1.52,1.52,0,0,0,60.05,14a1.08,1.08,0,0,0-1.15-.35c.31-.8.2-1.81-.75-2.07a2.82,2.82,0,0,0-1.94.26,2.25,2.25,0,0,0-1.3-1.16,2.17,2.17,0,0,0-2.56.87c0-.94-1.12-1.62-2-1.56a2.06,2.06,0,0,0-1.46.77,1.22,1.22,0,0,0-.46-.54,2.56,2.56,0,0,0-1.48-.06,2.09,2.09,0,0,0-1.69,1.35c-.68-.72-1.84-.22-2.59.22a2.64,2.64,0,0,0-1.16,1.42,1.65,1.65,0,0,0-.05.45,3,3,0,0,0-.78,0,1.93,1.93,0,0,0-1.21.59c-.34.33-.15,1-.61,1A2.32,2.32,0,0,0,36.77,17a2.15,2.15,0,0,0,.06,1.4,1.84,1.84,0,0,0,1.24,1,1.57,1.57,0,0,0-.5.9c-.09.46.24.76.52,1.07a2.5,2.5,0,0,0-1.78,2.52,1.93,1.93,0,0,0,2.29,1.94c-.7,1.23,0,2.44,1.59,2.61h0a2.23,2.23,0,0,0,.1-1,11.71,11.71,0,0,1,.1-1.23,11.17,11.17,0,0,1,.43-1.9,3.57,3.57,0,0,1,1.73-2.4c.51-.24.9.15,1.33.38.64.34,1.25.74,1.88,1.09a8.4,8.4,0,0,0,1.5.69h0a1.88,1.88,0,0,0,1,0l.91-.19c.75-.15,1.53-.16,2.28-.28L54.39,23a6,6,0,0,1,1.12-.11,8.13,8.13,0,0,1,1.16.18,3.71,3.71,0,0,0,1.53-.16,1.51,1.51,0,0,1,.72-.07.34.34,0,0,1,.21.24c.09.33.14.67.24,1s.29.83.45,1.24a2.82,2.82,0,0,1,.3,1.08,1.83,1.83,0,0,1-.29.9,1.35,1.35,0,0,0-.18.51,2.78,2.78,0,0,0,2.5-1.74c.3-.67.46-1.64-.16-2a2.21,2.21,0,0,0,1.44-1.55C63.63,21.95,63.49,21.1,62.91,20.9Z"/><path class="cls-9" d="M57.23,35.44a12.83,12.83,0,0,1-9.86,4.78c-3.34-.11-7.26-2.17-8.21-5.59-.58-2.06.7-4.34,1.39-6.24.8-2.18,1.61-4.35,2.26-6.59a2.7,2.7,0,0,0,1-.5,1.34,1.34,0,0,0,.21.41,1.72,1.72,0,0,0,2.24.46c.25-.16.8-.56.8-.88,0,.18.19.32.35.36a1.6,1.6,0,0,0,1.7-.86,1.81,1.81,0,0,0,2,1.34,2.6,2.6,0,0,0,2.19-1.24c0,.67.51,1.12,1.33,1.42a2.47,2.47,0,0,0,1.89,0,1.86,1.86,0,0,0,1.94.64c.1,0,.23,0,.24.09s0,.36,0,.54C59.17,27.62,60,32,57.23,35.44Z"/><path class="cls-10" d="M58.64,23.59c0-.18,0-.36,0-.54s-.14-.14-.24-.09a1.86,1.86,0,0,1-1.94-.64,2.47,2.47,0,0,1-1.89,0c-.82-.3-1.29-.75-1.33-1.42A2.6,2.6,0,0,1,51,22.14a1.81,1.81,0,0,1-2-1.34,1.6,1.6,0,0,1-1.7.86c-.15,0-.35-.18-.35-.36,0,.32-.54.71-.8.88A1.72,1.72,0,0,1,44,21.72a1.34,1.34,0,0,1-.21-.41,2.7,2.7,0,0,1-1,.5c-.65,2.23-1.46,4.4-2.26,6.59-.69,1.9-2,4.17-1.39,6.24,1,3.42,4.87,5.49,8.21,5.59a12.83,12.83,0,0,0,9.86-4.78C60,32,59.17,27.62,58.64,23.59ZM55.92,35.9a3.46,3.46,0,0,1-1.41,1,1.55,1.55,0,0,1-1.26.35.09.09,0,0,1-.07-.12,2.2,2.2,0,0,0,.19-1.69,10.94,10.94,0,0,0-.45-1c-.14-.3-.31-.71,0-.91-.59-.36-1.11.28-1.11.88.41-.3.71.25.8.7a1.72,1.72,0,0,1-.72,1.91,2.51,2.51,0,0,1-2.4.27,2.59,2.59,0,0,1-1-1.85.1.1,0,0,1,.17-.08h0c.53,0,1.88-.62,1.85-1.27s-2.05-.69-2.54-.68c-.27,0-2.74.07-2.71.51A2,2,0,0,0,45.89,35a2.33,2.33,0,0,0,1.6.5.1.1,0,0,1,.09.09c0,.16.13.35.15.51a2.06,2.06,0,0,1,0,.53,2.73,2.73,0,0,1-.29,1,1.64,1.64,0,0,1-1.88.6,2.87,2.87,0,0,1-2-1.41,1.61,1.61,0,0,1-.11-1.06,2.54,2.54,0,0,1,.47-.86,2.06,2.06,0,0,0-1.14,1.14,3.81,3.81,0,0,0-.07,1.72.09.09,0,0,1-.12.09A5,5,0,0,1,40,35.49a5.89,5.89,0,0,1-.54-4A33.32,33.32,0,0,1,41,27.35c.56-1.4,1-2.57,1.62-3.94,0-.1.19,0,.17.07a5.9,5.9,0,0,1-.36,1.11l.34-.25c.09-.05.16,0,.13.13-.63,1.32-1.52,2.49-1.44,4,.06,1.26.52,2.74,2,2.85S46,30,46.25,28.58a10.34,10.34,0,0,0,0-2.39A3.43,3.43,0,0,0,46,24.87a5.81,5.81,0,0,1-.39-.77.09.09,0,0,1,.14-.11,4.15,4.15,0,0,0,.48.31,1.23,1.23,0,0,0-.45-1,.08.08,0,0,1,0-.08c-.05-.06,0-.17.06-.16a1.25,1.25,0,0,0,1-.56.13.13,0,0,1,.14,0c.23.13.31.36.64.28a1.77,1.77,0,0,0,.42-.16l.6-.34a.1.1,0,0,1,.13,0c.73,1,2.08.69,3.07.3.07,0,.13.05.11.11a6.15,6.15,0,0,1-.29.76c-.06.18,0,.48.24.3a1.53,1.53,0,0,1,.25-.17.09.09,0,0,1,.14.11c-.14.55-.47,1-.6,1.59s-.21,1.17-.29,1.76a6.25,6.25,0,0,0,.36,3.61,2.32,2.32,0,0,0,.94,1.08,5.35,5.35,0,0,0,1.32.29.46.46,0,0,1,.36.45,5.73,5.73,0,0,1-.07,1.09,4.53,4.53,0,0,1,3.84-3.12,6.32,6.32,0,0,0-.79-.28A.51.51,0,0,1,57,30c-.29-.43-.13-1-.16-1.46A8.47,8.47,0,0,0,55.38,24c-.06-.09.05-.16.13-.13a2.71,2.71,0,0,1,.79.58c-.16-.36-.38-.69-.55-1a.09.09,0,0,1,.11-.14c.26.07.57,0,.81.1s.43.49.71.67A1.47,1.47,0,0,1,58,25.18c.15.73.24,1.47.38,2.2a14.44,14.44,0,0,1,.31,2.47,8.57,8.57,0,0,1-1.43,4.48A8.11,8.11,0,0,1,55.92,35.9Z"/><path class="cls-4" d="M61.59,24.23c.67.37.4,1.24.12,1.84a2.58,2.58,0,0,1-2.13,1.55c-.06-.68-.16-1.36-.27-2-.14-.86-.36-1.71-.53-2.57a.07.07,0,0,0-.08-.07l0-.16a1.46,1.46,0,0,0,.61-1.36,1.74,1.74,0,0,0,1.41-2.12,1,1,0,0,0-.09-.21A1.23,1.23,0,0,0,59.21,19a.94.94,0,0,1,1.1.54c.31.82-.37,1.49-1.05,1.8a1.28,1.28,0,0,0-.1-.28,1.59,1.59,0,0,1-.62,1.48,1.32,1.32,0,0,1-1.35,0,2.63,2.63,0,0,1-.59-.26,1.91,1.91,0,0,0,.64-.64,2.52,2.52,0,0,1-2.65.38,2.36,2.36,0,0,1-1.33-1.61,2.15,2.15,0,0,0-.05.4h0a2.17,2.17,0,0,1-1.51.9,2.41,2.41,0,0,1-.88.15,1.81,1.81,0,0,1-1.74-1.42,1.37,1.37,0,0,1-.68.86c-.24.17-1.15.5-1.24-.15,0-.07-.1,0-.12,0a2.1,2.1,0,0,1-.65.66,1.37,1.37,0,0,1-1.29.35A1.67,1.67,0,0,1,44,20.36a1.1,1.1,0,0,0-.25.76,3,3,0,0,1-1.16.28,1.47,1.47,0,0,1-.52-.12,1.71,1.71,0,0,1-1.26-1.05,1.4,1.4,0,0,1,.3-1.49,2.34,2.34,0,0,1,1-.57,2.79,2.79,0,0,1,.82-.07,1.89,1.89,0,0,0-2.51,1.82,2.26,2.26,0,0,0,1.38,1.77,1.38,1.38,0,0,0,.9.14C42,24,41.12,26.12,40.3,28.25h0a2.14,2.14,0,0,1-1.57-1.37,1.29,1.29,0,0,1-.06-.22A1.54,1.54,0,0,1,39,25.38c-.92.17-1.9,0-2.22-1a2.54,2.54,0,0,1,.24-2.19,2.3,2.3,0,0,1,1.5-.79.16.16,0,0,0,0-.09c-.5-.62-1-1.34-.06-1.9a.17.17,0,0,0,0-.29,5.68,5.68,0,0,1-1-.52,1.72,1.72,0,0,1-.43-1.44,2,2,0,0,1,2.17-1.8.12.12,0,0,0,.13-.11A1.69,1.69,0,0,1,41.48,14a1.74,1.74,0,0,0,.15.63,2.82,2.82,0,0,1,1-2.47,2.86,2.86,0,0,1,2.78-.39,1.66,1.66,0,0,1,.35-.6,2.24,2.24,0,0,1,.7-.63,2.07,2.07,0,0,1,1.61-.17,1.83,1.83,0,0,1,.78.56,2,2,0,0,1,1.85-.45,2,2,0,0,1,1.55,1.37l.22-.16a2.61,2.61,0,0,1,.59-.37,2.16,2.16,0,0,1,2.29,0,1.74,1.74,0,0,1,.69.76,2.55,2.55,0,0,1,2.2-.15c.78.47.55,1.45.22,2.26a2.53,2.53,0,0,1,.43-.23l.16-.06a.8.8,0,0,1,1.13.61,2.8,2.8,0,0,1,0,1.49l.06-.1a1.3,1.3,0,0,1,1.12.13,1.43,1.43,0,0,1,.23,1.62.25.25,0,0,0-.05.21c.56-.23,1.17-.36,1.57.26a1.5,1.5,0,0,1,.21,1c.1.81-.17,1.73-.76,1.78a.16.16,0,0,0-.11.06,1.45,1.45,0,0,1,.6,2A3.18,3.18,0,0,1,61.59,24.23Z"/><path class="cls-7" d="M62.44,20.93a.16.16,0,0,1,.11-.06c.59-.05.86-1,.76-1.78a1.5,1.5,0,0,0-.21-1c-.4-.62-1-.49-1.57-.26a.25.25,0,0,1,.05-.21,1.11,1.11,0,0,0,.14-.85,1.94,1.94,0,0,1-1.36,1.07c-.48.05-1.11-.45-.74-1a2.79,2.79,0,0,1,1.79-.83L61.35,16a1.3,1.3,0,0,0-1.12-.13l-.06.1a3.22,3.22,0,0,0,.1-.57,2,2,0,0,1-1.3.74,1.52,1.52,0,0,1-1.73-1,1.77,1.77,0,0,1-.37.52,1.72,1.72,0,0,1-2.68-.23A1.42,1.42,0,0,1,54,14.28a1,1,0,0,1,0-.11,1.76,1.76,0,0,0-.28.4c-.31.64-.06,1.94.84,2a.09.09,0,0,1,0,.18,1.83,1.83,0,0,0-1.19.86.09.09,0,0,1-.15,0,1.24,1.24,0,0,0-1.05-.31h0l.35.12a1.41,1.41,0,0,1,.82,1.3,2.64,2.64,0,0,1-.81,1.66,1.88,1.88,0,0,1-1.45.64,1.91,1.91,0,0,1-1.39-.82A2.17,2.17,0,0,1,49.3,19a2,2,0,0,1,.05-.46l-.19,0a1.1,1.1,0,0,1,.05.33A1.23,1.23,0,0,1,48.5,20a1.46,1.46,0,0,1-.67.17,1.35,1.35,0,0,1-.59-.16,1.42,1.42,0,0,1-.59.73A1.65,1.65,0,0,1,44.29,20a2.36,2.36,0,0,1-.17-.61,1.18,1.18,0,0,1,.07-.79,1.42,1.42,0,0,1,1.25-.81l.27,0a.8.8,0,0,1,.65.25l.17.11a3.5,3.5,0,0,1,.32.28l0,0,0-.08a1,1,0,0,1,.57-.64,1.68,1.68,0,0,1-.22-1l0-.12a1.85,1.85,0,0,1-.94.68,1.81,1.81,0,0,1-2.39-1,1.4,1.4,0,0,1,0-1,1.76,1.76,0,0,1-2.11-1.32,2.59,2.59,0,0,1-.08-.5,2.36,2.36,0,0,0-.18,1.12l.08.12a1.23,1.23,0,0,1,0,1.27,1,1,0,0,1-.84.45,1.4,1.4,0,0,1-.9-.37,1.2,1.2,0,0,1-.08-1.56,1.46,1.46,0,0,0-.48.88.12.12,0,0,1-.13.11,2,2,0,0,0-2.17,1.8,1.72,1.72,0,0,0,.43,1.44,5.68,5.68,0,0,0,1,.52.17.17,0,0,1,0,.29c-1,.56-.44,1.28.06,1.9a.16.16,0,0,1,0,.09,2.3,2.3,0,0,0-1.5.79,2.54,2.54,0,0,0-.24,2.19c.32,1,1.3,1.15,2.22,1a1.54,1.54,0,0,0-.39,1.27,1.29,1.29,0,0,0,.06.22,2.14,2.14,0,0,0,1.57,1.37h0c.83-2.13,1.68-4.25,2.4-6.42a1.38,1.38,0,0,1-.9-.14,2.26,2.26,0,0,1-1.38-1.77A1.75,1.75,0,0,1,42,18c.14-.08.41.06.55,0,.33-.11.4,0,.71.16a.94.94,0,0,1,.7.73,1.4,1.4,0,0,1-.69,1.5,1.55,1.55,0,0,1-2-.57,1.19,1.19,0,0,1,.28-1.46,2,2,0,0,0-.39.3,1.4,1.4,0,0,0-.3,1.49,1.71,1.71,0,0,0,1.26,1.05,1.47,1.47,0,0,0,.52.12,3,3,0,0,0,1.16-.28,1.1,1.1,0,0,1,.25-.76,1.67,1.67,0,0,0,1.1,1.76,1.37,1.37,0,0,0,1.29-.35,2.1,2.1,0,0,0,.65-.66s.11-.07.12,0c.09.65,1,.32,1.24.15a1.37,1.37,0,0,0,.68-.86,1.81,1.81,0,0,0,1.74,1.42,2.41,2.41,0,0,0,.88-.15,2.17,2.17,0,0,0,1.51-.9h0a2.15,2.15,0,0,1,.05-.4A2.36,2.36,0,0,0,54.58,22a2.52,2.52,0,0,0,2.65-.38,1.91,1.91,0,0,1-.64.64,2.63,2.63,0,0,0,.59.26,1.32,1.32,0,0,0,1.35,0A1.59,1.59,0,0,0,59.15,21a1.28,1.28,0,0,1,.1.28c.68-.31,1.36-1,1.05-1.8a.94.94,0,0,0-1.1-.54,1.23,1.23,0,0,1,1.39.18,1,1,0,0,1,.09.21,1.74,1.74,0,0,1-1.41,2.12,1.46,1.46,0,0,1-.61,1.36l0,.16a.07.07,0,0,1,.08.07c.17.86.39,1.7.53,2.57.11.66.2,1.34.27,2a2.58,2.58,0,0,0,2.13-1.55c.28-.6.55-1.48-.12-1.84A3.18,3.18,0,0,0,63,22.95,1.45,1.45,0,0,0,62.44,20.93Zm-23-3.42a1.34,1.34,0,0,1-.92.37,1.12,1.12,0,0,1-1.11-1.11,1.09,1.09,0,0,1,.43-.87,1.09,1.09,0,0,1,.87-.43,1.12,1.12,0,0,1,1.11,1.11A1.34,1.34,0,0,1,39.41,17.51ZM58.25,19a2.2,2.2,0,0,1-1.65,1.44,2,2,0,0,1-2.44-1.77,1.48,1.48,0,0,1,.71-1.39l.23-.11,0,0a2.09,2.09,0,0,1,2.18-.28A1.81,1.81,0,0,1,58.25,19Z"/><path class="cls-7" d="M62.44,20.93a.16.16,0,0,1,.11-.06c.59-.05.86-1,.76-1.78a1.5,1.5,0,0,0-.21-1,.92.92,0,0,0-.49-.4,1.61,1.61,0,0,1-1.24,2c-.06,0-.14,0-.12-.11.39-1.15-1-1.16-1.81-1.16a.09.09,0,0,1-.09-.09,1.34,1.34,0,0,0-.56-1.05,1.75,1.75,0,0,1-.18,1.86c.55-.1,1.21-.06,1.31.46s-.62,1-1.08.76c0,.81-1.5,1.15-1.84.31a3,3,0,0,1-3,.9,2.86,2.86,0,0,0,.55.36,2.52,2.52,0,0,0,2.65-.38,1.91,1.91,0,0,1-.64.64,2.63,2.63,0,0,0,.59.26,1.32,1.32,0,0,0,1.35,0A1.59,1.59,0,0,0,59.15,21a1.28,1.28,0,0,1,.1.28c.68-.31,1.36-1,1.05-1.8a.94.94,0,0,0-1.1-.54,1.23,1.23,0,0,1,1.39.18,1,1,0,0,1,.09.21,1.74,1.74,0,0,1-1.41,2.12,1.46,1.46,0,0,1-.61,1.36l0,.16a.07.07,0,0,1,.08.07c.17.86.39,1.7.53,2.57.11.66.2,1.34.27,2a2.58,2.58,0,0,0,2.13-1.55c.28-.6.55-1.48-.12-1.84A3.18,3.18,0,0,0,63,22.95,1.45,1.45,0,0,0,62.44,20.93Z"/><path class="cls-7" d="M42.81,16.13a1.72,1.72,0,0,1-1.35,1.2,1.39,1.39,0,0,1-1.35-.4,1.75,1.75,0,0,1-1.49,1.68A1.71,1.71,0,0,1,37.15,18a1.19,1.19,0,0,0,.36.62,5.68,5.68,0,0,0,1,.52.17.17,0,0,1,0,.29c-.51.29-.61.62-.52,1a2.71,2.71,0,0,1,1.58-1,.09.09,0,0,1,.11.11c-.14.46-.47,1.58.28,1.66a.09.09,0,0,1,0,.18c-.39.16-1,.39-1.14.86s.08.79,0,1.19a1.35,1.35,0,0,1-1.06,1,1.76,1.76,0,0,1-1-.06l0,.08c.32,1,1.3,1.15,2.22,1a1.54,1.54,0,0,0-.39,1.27,1.29,1.29,0,0,0,.06.22,2.14,2.14,0,0,0,1.57,1.37h0c.83-2.13,1.68-4.25,2.4-6.42a1.38,1.38,0,0,1-.9-.14,2.26,2.26,0,0,1-1.38-1.77A1.75,1.75,0,0,1,42,18c.09-.05.25,0,.38,0a1.4,1.4,0,0,0,.62-.45.09.09,0,0,1,.11,0,3.83,3.83,0,0,0,2.63,0C44.56,17.59,43.11,17.27,42.81,16.13Z"/><path class="cls-7" d="M45.56,22A2.38,2.38,0,0,1,44,20.17a2.39,2.39,0,0,1-1.72.92,1.73,1.73,0,0,1-1.54-1l0,.09a1.71,1.71,0,0,0,1.26,1.05,1.47,1.47,0,0,0,.52.12,3,3,0,0,0,1.16-.28,1.1,1.1,0,0,1,.25-.76,1.67,1.67,0,0,0,1.1,1.76,1.15,1.15,0,0,0,.74,0Z"/><path d="M58,30.36a5.31,5.31,0,0,0-1.81.37c.76-1.39.33-3.63-.2-4.91-.35-.86-1.14-2.14-2.21-2.1a2.3,2.3,0,0,0-1.8,1.49,0,0,0,0,0,0,0,7.79,7.79,0,0,0-.57,2c-.35,2,.59,5.12,3.17,4.59l.29-.08A4,4,0,0,0,54,34.12s0,0,0,0a4,4,0,0,1,1.48-2.54,10,10,0,0,1,2.41-1C58,30.5,58.06,30.35,58,30.36Z"/><path class="cls-13" d="M54.56,31.64c-2.15.64-3.05-2.06-3-3.66a6.42,6.42,0,0,1,.59-2.67A2.37,2.37,0,0,1,53.47,24a1.27,1.27,0,0,1,.93.2,4.16,4.16,0,0,1,1.52,2.18c.51,1.42.78,3.52-.31,4.63a2.74,2.74,0,0,0-.35.29A2.52,2.52,0,0,1,54.56,31.64Z"/><path d="M43.5,31.09h.17a2.61,2.61,0,0,0,1.84-1,6.44,6.44,0,0,0,.76-3.69c-.07-.81-.38-2.09-1.29-2.34a2,2,0,0,0-1.9.77,0,0,0,0,0,0,0,6.84,6.84,0,0,0-1,1.54C41.24,28,41.2,30.84,43.5,31.09Z"/><path class="cls-13" d="M43.56,30.9c-2,0-2-2.54-1.57-3.87a5.63,5.63,0,0,1,1.21-2.08,2.08,2.08,0,0,1,1.49-.72,1.11,1.11,0,0,1,.72.41,3.66,3.66,0,0,1,.68,2.23c0,1.32-.29,3.15-1.5,3.79a2.41,2.41,0,0,0-.37.15A2.22,2.22,0,0,1,43.56,30.9Z"/><path d="M46,23.78c-.32-.74-.84-1.32-1.7-1.05a2.43,2.43,0,0,0-1,.66c-.25.26-.39.61-.61.87a0,0,0,0,0,0,0c.12,0,.1-.08.24-.22a5.89,5.89,0,0,1,.85-.66c.79-.53,1.39-.06,2,.52C45.86,24,46,23.88,46,23.78Z"/><path d="M52.25,33.65l0,0s.1,0,.13,0l.12,0c.15-.07.12-.35-.07-.3a.62.62,0,0,0-.41.27c-.11.15-.16.34-.27.49s0,.05,0,0a2.45,2.45,0,0,0,.3-.29l.06-.06a3.15,3.15,0,0,1,.69,2.18c-.09.8-1.15,1.52-1.83,1.8a2.36,2.36,0,0,1-2.51-.65,1.52,1.52,0,0,1-.36-.69A7.16,7.16,0,0,0,48,35l.14,0c.6-.08,2.94-.92,1.44-1.52a4.68,4.68,0,0,0-3-.1,3.87,3.87,0,0,0-1.15.44c-.28.17.13.61.25.69a3.46,3.46,0,0,0,2.16.52h0a6.4,6.4,0,0,1,.1.66s0,.08,0,.11a1.49,1.49,0,0,0,0,.35,4.42,4.42,0,0,1-.06.74,2.11,2.11,0,0,1-2,1.76,2.51,2.51,0,0,1-2.07-.86c-.61-.64-1-2.2-.06-2.75,0,0,0,0,0,0-.76.34-.77,1.37-.59,2.07A2.63,2.63,0,0,0,45.42,39a2.46,2.46,0,0,0,1.89-.53,4.77,4.77,0,0,1,.55.58c.21.19.58.09.82,0a3.55,3.55,0,0,0,1-.61.67.67,0,0,0,.27-.39,2.37,2.37,0,0,0,1.21-.17A3.26,3.26,0,0,0,53,36.11,2.68,2.68,0,0,0,52.25,33.65Z"/><path class="cls-14" d="M46.55,34.59a2.62,2.62,0,0,1-.85-.41c-.47-.32.54-.51.72-.57a5.07,5.07,0,0,1,2.24-.14,3.64,3.64,0,0,1,1.09.34c.37.21-.5.59-.5.59a3.55,3.55,0,0,1-1.09.32A4.32,4.32,0,0,1,46.55,34.59Z"/><path class="cls-14" d="M48.64,38.75c-.52.2-.66-.21-1-.37l-.17-.06a2.23,2.23,0,0,0,.39-.49,2.48,2.48,0,0,0,.3-1,1.4,1.4,0,0,0,.37.56,2.88,2.88,0,0,0,1.27.68A3.15,3.15,0,0,1,48.64,38.75Z"/><path class="cls-15" d="M48.51,37.35a1.4,1.4,0,0,1-.37-.56,2.48,2.48,0,0,1-.3,1,2.2,2.2,0,0,1-.32.41,1.12,1.12,0,0,1,.69-.25.65.65,0,0,1,.61.49,1,1,0,0,1,0,.18,2.73,2.73,0,0,0,.92-.63A2.88,2.88,0,0,1,48.51,37.35Z"/><path d="M51.92,23.28c.24-.77.71-1.4,1.59-1.21a2.43,2.43,0,0,1,1,.57c.28.23.45.56.69.8a0,0,0,0,1,0,0c-.13,0-.11-.07-.26-.2A5.87,5.87,0,0,0,54,22.7c-.84-.45-1.39.08-1.9.7C52.07,23.48,51.88,23.39,51.92,23.28Z"/><path d="M71.6,16.91a18.53,18.53,0,0,0-4.63.53,14.51,14.51,0,0,0-4.11,1.79,7.21,7.21,0,0,0-2.61,2.72,1.39,1.39,0,0,0-.54-.39s-.07,0-.05.05a2,2,0,0,1,.26.43,1.5,1.5,0,0,1,0,.71,1.9,1.9,0,0,1-.75,1.06s0,.06,0,.06a1,1,0,0,0,.57-.26.77.77,0,0,1,.66.38,5,5,0,0,1,.26.79s.1,0,.11,0a1,1,0,0,0-.18-1,.89.89,0,0,0-.29-.21,1.4,1.4,0,0,1,1,0,7.88,7.88,0,0,0,2.23.31,10.52,10.52,0,0,0,4.6-.73,15.22,15.22,0,0,0,4-2.48,7.72,7.72,0,0,0,2.18-3.15C74.46,16.67,71.95,16.91,71.6,16.91Z"/><path class="cls-9" d="M73.5,18.39a10.43,10.43,0,0,1-2.68,2.49,12.67,12.67,0,0,1-2,1.16c-.61.27-1.25.44-1.87.68a11.93,11.93,0,0,1-4.39.75c-.65,0-1.25-.24-1.89-.29-.26,0-.43.17-.65.24H59.9a2.64,2.64,0,0,0,.36-.46,1.13,1.13,0,0,0,.05-.84.63.63,0,0,0,0-.11c1.39-2.15,4.38-3.38,6.7-4.12a17.2,17.2,0,0,1,3.65-.69c.72-.07,1.44-.07,2.16-.07a6.63,6.63,0,0,1,1,.08C74.35,17.3,73.57,18.3,73.5,18.39Z"/><path class="cls-10" d="M68.83,22a12.67,12.67,0,0,0,2-1.16l.61-.44c.2-.24.4-.47.6-.72a7.76,7.76,0,0,0,1.28-1.87A20.92,20.92,0,0,0,66.71,19a16.28,16.28,0,0,0-5.7,3.1c-.05,0-.17,0-.16-.07a3.42,3.42,0,0,1,.36-1.11,6.2,6.2,0,0,0-.92,1.1.63.63,0,0,1,0,.11,1.13,1.13,0,0,1-.05.84,2.64,2.64,0,0,1-.36.46H60c.21-.07.39-.26.65-.24.64.05,1.24.27,1.89.29A11.93,11.93,0,0,0,67,22.72C67.59,22.49,68.22,22.32,68.83,22Z"/><path class="cls-3" d="M65.29,22.94c-.8.11-2.13.36-2.76-.33,0-.05,0-.17,0-.16,2.39.4,4-.33,5.94-1.24a28,28,0,0,0,4.45-3,25.07,25.07,0,0,0-6.83,1.1,9.91,9.91,0,0,0-2.93,1.28A5.19,5.19,0,0,1,61,21.77c-.06,0-.1-.07-.09-.12a4.14,4.14,0,0,1,.27-.75,6.21,6.21,0,0,0-.93,1.1.63.63,0,0,1,0,.11,1.13,1.13,0,0,1-.05.84,2.64,2.64,0,0,1-.36.46H60c.21-.07.39-.26.65-.24.64.05,1.24.27,1.89.29A11.93,11.93,0,0,0,67,22.72c.34-.13.68-.24,1-.35A15.38,15.38,0,0,1,65.29,22.94Z"/><path d="M72.52,18.2a25.74,25.74,0,0,0-6.45,1.23,13.85,13.85,0,0,0-3,1.32,9.74,9.74,0,0,0-1.2.89c-.34.29-.59.69-.94,1,0,0,0,0,0,0,.26-.09.45-.35.67-.53l.46-.35,0,0A5.07,5.07,0,0,0,66,22a10.18,10.18,0,0,0,3.65-1.82s0-.06,0,0a10.79,10.79,0,0,1-3.37,1.48,7.21,7.21,0,0,1-4,.1c.25-.18.51-.36.78-.52a14.39,14.39,0,0,1,2.91-1.25,31.42,31.42,0,0,1,6.63-1.64S72.56,18.2,72.52,18.2Z"/><path d="M26.69,15.84a7.72,7.72,0,0,0,1.67,3.45,15.22,15.22,0,0,0,3.53,3.06,10.52,10.52,0,0,0,4.43,1.43,7.89,7.89,0,0,0,2.25,0,1.4,1.4,0,0,1,1,.13.89.89,0,0,0-.32.16,1,1,0,0,0-.34,1s.08.08.11,0c.15-.23.19-.53.38-.74a.77.77,0,0,1,.71-.27,1,1,0,0,0,.52.34s0,0,0-.06A1.9,1.9,0,0,1,40,23.27a1.49,1.49,0,0,1,.08-.7,2,2,0,0,1,.33-.38s0-.07,0-.06a1.38,1.38,0,0,0-.59.31,7.21,7.21,0,0,0-2.17-3.09,14.51,14.51,0,0,0-3.79-2.4,18.55,18.55,0,0,0-4.49-1.23C29,15.65,26.58,15,26.69,15.84Z"/><path class="cls-9" d="M27.17,15.67a6.58,6.58,0,0,1,1,.07c.71.11,1.42.22,2.12.4a17.21,17.21,0,0,1,3.5,1.24c2.18,1.08,4.94,2.76,6,5.1l-.06.11a1.13,1.13,0,0,0-.08.84,2.62,2.62,0,0,0,.29.51l-.13,0c-.2-.1-.34-.32-.6-.33-.64,0-1.27.08-1.91,0a11.93,11.93,0,0,1-4.23-1.41c-.58-.33-1.18-.59-1.74-1a12.65,12.65,0,0,1-1.79-1.45,10.42,10.42,0,0,1-2.26-2.87C27.21,16.78,26.59,15.67,27.17,15.67Z"/><path class="cls-10" d="M39.64,23.44a1.13,1.13,0,0,1,.08-.84l.06-.11c-.08-.17-.16-.34-.26-.5,0,.07,0,.13,0,.2s-.09.17-.16.09c-1.74-2.13-4.13-3.16-6.56-4.27a23.74,23.74,0,0,0-2.48-1,6.68,6.68,0,0,0-1.44-.35,2.12,2.12,0,0,0-.61,0c-.1,0-.43.14-.38.17a.09.09,0,0,1,0,.12,14.22,14.22,0,0,0,3.53,4.39c.51.31,1,.56,1.57.85a11.93,11.93,0,0,0,4.23,1.41c.64.09,1.27,0,1.91,0,.26,0,.4.24.6.33l.13,0A2.62,2.62,0,0,1,39.64,23.44Z"/><path class="cls-3" d="M39.64,23.44a1.13,1.13,0,0,1,.08-.84l.06-.11a7.75,7.75,0,0,0-2.11-2.65,9,9,0,0,1,1,1.53c0,.07,0,.17-.11.14-1.72-.59-3-2-4.65-2.69-1-.38-1.89-.81-2.88-1.1s-1.89-.61-2.76-.93a5.34,5.34,0,0,0,.85,1.09c.28.26.53.55.81.82A16,16,0,0,0,32,20.45a16.17,16.17,0,0,0,4.54,2.09h.2a.09.09,0,0,1,.07,0h0a1.83,1.83,0,0,1,.41.13c.07,0,.06.15,0,.16a5,5,0,0,1-2.63-.16,17.32,17.32,0,0,1-3.12-1.76,19.45,19.45,0,0,1-2.64-2.13,12.37,12.37,0,0,1-1.45-1.61,10.87,10.87,0,0,0,2.1,2.57,12.65,12.65,0,0,0,1.79,1.45c.56.36,1.16.63,1.74,1a11.93,11.93,0,0,0,4.23,1.41c.64.09,1.27,0,1.91,0,.26,0,.4.24.6.33l.13,0A2.62,2.62,0,0,1,39.64,23.44Z"/><path d="M28.26,16.84a25.75,25.75,0,0,1,6.18,2.21,13.87,13.87,0,0,1,2.74,1.76,9.77,9.77,0,0,1,1,1.07c.29.34.48.77.78,1.09,0,0,0,0,0,0-.25-.13-.39-.42-.58-.63L38,22l0,0a5.07,5.07,0,0,1-3.85-.41,10.19,10.19,0,0,1-3.33-2.36s0-.06,0,0a10.79,10.79,0,0,0,3.11,2,7.2,7.2,0,0,0,4,.72c-.22-.22-.45-.43-.69-.63a14.41,14.41,0,0,0-2.68-1.68,31.47,31.47,0,0,0-6.3-2.64S28.23,16.83,28.26,16.84Z"/><path class="cls-16" d="M55.06,29.47c0,1.2-.62,2.17-1.46,2.17S52,30.68,52,29.48s.62-2.17,1.46-2.17S55,28.27,55.06,29.47Z"/><path class="cls-17" d="M54.83,29.47c0,1-.52,1.85-1.23,1.86s-1.31-.82-1.34-1.84.52-1.85,1.23-1.86S54.8,28.45,54.83,29.47Z"/><path class="cls-18" d="M54.14,29.77c.08.69-.25,1.27-.72,1.3s-.93-.5-1-1.18.25-1.27.72-1.3S54.06,29.08,54.14,29.77Z"/><path class="cls-13" d="M54,28.73c.14.28.09.57-.11.64s-.46-.1-.6-.38-.09-.57.11-.64S53.89,28.45,54,28.73Z"/><path class="cls-13" d="M54.42,30.09c0,.2-.07.36-.21.37s-.26-.14-.29-.34.07-.36.21-.37S54.4,29.89,54.42,30.09Z"/><path class="cls-16" d="M44.89,29c-.14,1.14-.92,2-1.73,1.91s-1.36-1.09-1.22-2.23.91-2,1.73-1.91S45,27.81,44.89,29Z"/><path class="cls-17" d="M44.66,28.93c-.12,1-.78,1.71-1.46,1.63s-1.15-.93-1-1.91.78-1.71,1.46-1.63S44.78,27.95,44.66,28.93Z"/><path class="cls-18" d="M44,29.27c0,.66-.43,1.18-.89,1.16s-.82-.58-.79-1.24S42.7,28,43.17,28,44,28.6,44,29.27Z"/><path class="cls-13" d="M44,28.27c.09.28,0,.55-.2.59s-.43-.15-.52-.43,0-.55.2-.6S43.92,28,44,28.27Z"/><ellipse class="cls-13" cx="43.94" cy="29.59" rx="0.34" ry="0.24" transform="translate(12.38 72.13) rotate(-87.38)"/><path class="cls-19" d="M71.11,17.56a19,19,0,0,0-8.7,3s0,.07,0,0a22.83,22.83,0,0,1,4.3-1.84c1.44-.45,3-.59,4.39-1.06A.07.07,0,0,0,71.11,17.56Z"/><path class="cls-19" d="M37.16,20A10.92,10.92,0,0,0,33.3,17.1a16.17,16.17,0,0,0-5.55-1.18,0,0,0,0,0,0,.07c.78.22,1.59.29,2.39.43a14.85,14.85,0,0,1,2.75.87,13.53,13.53,0,0,1,4.22,2.76S37.2,20,37.16,20Z"/><path class="cls-20" d="M55.92,26.39a4.16,4.16,0,0,0-1.52-2.18,1.27,1.27,0,0,0-.93-.2,2.37,2.37,0,0,0-1.37,1.3A6.42,6.42,0,0,0,51.51,28c0,1.6.9,4.3,3,3.66a2.52,2.52,0,0,0,.69-.32,2.74,2.74,0,0,1,.35-.29C56.69,29.91,56.43,27.81,55.92,26.39Zm-1,3.5c-.25.67-.6,1.27-1.38,1.32-.62,0-1.18-.63-1.38-1.15a5.78,5.78,0,0,1,.4-5.12.24.24,0,0,1,.09-.08.67.67,0,0,1,1-.33,3,3,0,0,1,1.13,2A5.53,5.53,0,0,1,55,29.89Z"/><path class="cls-20" d="M46.09,26.87a3.66,3.66,0,0,0-.68-2.23,1.11,1.11,0,0,0-.72-.41,2.08,2.08,0,0,0-1.49.72A5.63,5.63,0,0,0,42,27c-.43,1.34-.4,3.84,1.57,3.87a2.22,2.22,0,0,0,.67-.09,2.41,2.41,0,0,1,.37-.15C45.8,30,46.14,28.19,46.09,26.87Zm-1.23,1.56a3.21,3.21,0,0,1-1.31,1.77.9.9,0,0,1-1.2-.32c-.89-1.59.16-4,1.28-5.18a.2.2,0,0,1,.25,0,.8.8,0,0,1,.49-.2c.52,0,.79.59.87,1A5.19,5.19,0,0,1,44.86,28.43Z"/><path class="cls-21" d="M48.42,33.66a6.43,6.43,0,0,0-2.4.19s0,.06,0,.07a10.08,10.08,0,0,1,2.34.07C48.56,34,48.62,33.71,48.42,33.66Z"/><path class="cls-21" d="M49.19,33.78l-.1,0a.26.26,0,0,1-.1,0,.14.14,0,0,0-.18.22.35.35,0,0,0,.38.06A.12.12,0,0,0,49.19,33.78Z"/><path class="cls-19" d="M41.25,26.78s0,0,0,0a21.57,21.57,0,0,1-1.4,3.94,5.66,5.66,0,0,0,0,3.93.05.05,0,0,0,.1,0,6.83,6.83,0,0,1,.38-4.35A11,11,0,0,0,41.25,26.78Z"/><path class="cls-19" d="M58.19,30.57a2.31,2.31,0,0,0-1.37.37,6.88,6.88,0,0,0-1.43.94,4,4,0,0,0-.91,1.1,4.75,4.75,0,0,0-.38,1.78s0,0,0,0c.19-.47.26-1,.47-1.45a3.77,3.77,0,0,1,.94-1.22,7,7,0,0,1,2.64-1.46A0,0,0,0,0,58.19,30.57Z"/><path class="cls-19" d="M47.49,36.86c-.35,1.48-2.77,1.06-3.54.23,0,0,0,0,0,0a2.35,2.35,0,0,0,2,1c.7,0,1.66-.44,1.64-1.24C47.58,36.81,47.5,36.81,47.49,36.86Z"/><path class="cls-19" d="M52.44,35.7c-.45,1.56-2.9,2.09-3.58.42,0,0-.05,0,0,0a1.53,1.53,0,0,0,1.72,1.27c.87-.06,1.95-.74,2-1.68A0,0,0,0,0,52.44,35.7Z"/><path class="cls-22" d="M46.32,23.89a11.74,11.74,0,0,1-.67,9s-.64.9.06.62a6.1,6.1,0,0,1,4.06-.14s-1.54-4.11,1.35-9.76a6.14,6.14,0,0,0-2.43-.47A4.08,4.08,0,0,0,46.32,23.89Z"/><ellipse class="cls-23" cx="40.86" cy="31.88" rx="1.51" ry="2.1" transform="translate(-10.85 28.52) rotate(-34.25)"/><ellipse class="cls-23" cx="56.35" cy="32.91" rx="2.1" ry="1.32" transform="translate(-7.61 45.86) rotate(-41.73)"/></g></g></g></svg>