<svg xmlns="http://www.w3.org/2000/svg" viewBox="0 0 100 100"><defs><style>.cls-1{isolation:isolate;}.cls-2{fill:#d6e5b7;}.cls-10,.cls-19,.cls-2,.cls-21,.cls-33,.cls-35,.cls-38,.cls-4,.cls-44,.cls-6{opacity:0.6;}.cls-2,.cls-33,.cls-35,.cls-37,.cls-38{mix-blend-mode:screen;}.cls-19,.cls-3{fill:#cbc141;}.cls-10,.cls-11,.cls-12,.cls-13,.cls-14,.cls-15,.cls-19,.cls-21,.cls-22,.cls-23,.cls-36,.cls-39,.cls-4,.cls-41,.cls-44,.cls-6,.cls-8,.cls-9{mix-blend-mode:multiply;}.cls-5{fill:#efefe6;}.cls-14,.cls-6{fill:#dedede;}.cls-7,.cls-8{fill:#eace94;}.cls-36,.cls-9{opacity:0.8;}.cls-10{fill:#84440b;}.cls-12,.cls-13,.cls-15{fill:#ae7d39;}.cls-12,.cls-22{opacity:0.2;}.cls-13,.cls-18,.cls-23,.cls-41{opacity:0.5;}.cls-15,.cls-37,.cls-47{opacity:0.4;}.cls-16,.cls-18{fill:#dcd37f;}.cls-17{fill:#ab8621;}.cls-20{fill:#c3c5bb;}.cls-21{fill:#b6b6b6;}.cls-22,.cls-23{fill:#9e8620;}.cls-24{fill:#050505;}.cls-25{fill:#2d2d05;}.cls-26{fill:#739910;}.cls-27{fill:#69710d;}.cls-28{fill:#7b8e12;}.cls-29{fill:#575707;}.cls-30{fill:#61640b;}.cls-31{fill:#4a4705;}.cls-32{fill:#7d8b13;}.cls-34,.cls-35{fill:#76a821;}.cls-36{fill:#395707;}.cls-37,.cls-38{fill:#7ba858;}.cls-39{fill:#997223;}.cls-40{fill:#650900;}.cls-42{fill:#fffff2;}.cls-43{fill:#ff7173;}.cls-44{fill:#c27173;}.cls-45{fill:#66460e;}.cls-46{fill:#fff;}</style></defs><title>Asset 12</title><g class="cls-1"><g id="Layer_2" data-name="Layer 2"><g id="Layer_1-2" data-name="Layer 1"><rect class="cls-2" width="100" height="100"/><path class="cls-3" d="M71,61.55c-.26-.54-1.12-.64-1.63-.8A13.37,13.37,0,0,0,67,60.09a7.42,7.42,0,0,0-3.94.65,5.77,5.77,0,0,0-1.59,1,2,2,0,0,0-.62,1.3c-.17.52-.27,1.07-.48,1.58a13.45,13.45,0,0,1-.9,1.61,5.63,5.63,0,0,0-1,3.15.05.05,0,0,0,0,0h0v.1a0,0,0,0,0,0,0c.24.56,1,.63,1.53.78s1.11.24,1.66.37.86.35,1.3.49a4.2,4.2,0,0,0,1.07.17,8.67,8.67,0,0,0,2.42,0,4.49,4.49,0,0,0,2.74-.94h0A3,3,0,0,0,70,69.28a19.56,19.56,0,0,0,.74-2.33A14,14,0,0,0,71,63.63q0-.14,0-.27c0-.37,0-.74,0-1.11A1.4,1.4,0,0,0,71,61.55Z"/><g class="cls-4"><path class="cls-3" d="M71,61.55c-.26-.54-1.12-.64-1.63-.8A13.37,13.37,0,0,0,67,60.09a7.42,7.42,0,0,0-3.94.65,5.77,5.77,0,0,0-1.59,1,2,2,0,0,0-.62,1.3c-.17.52-.27,1.07-.48,1.58a13.45,13.45,0,0,1-.9,1.61,5.63,5.63,0,0,0-1,3.15.05.05,0,0,0,0,0h0v.1a0,0,0,0,0,0,0c.24.56,1,.63,1.53.78s1.11.24,1.66.37.86.35,1.3.49a4.2,4.2,0,0,0,1.07.17,8.67,8.67,0,0,0,2.42,0,4.49,4.49,0,0,0,2.74-.94h0A3,3,0,0,0,70,69.28a19.56,19.56,0,0,0,.74-2.33A14,14,0,0,0,71,63.63q0-.14,0-.27c0-.37,0-.74,0-1.11A1.4,1.4,0,0,0,71,61.55Z"/></g><g class="cls-4"><path class="cls-3" d="M71,61.55c-.26-.54-1.12-.64-1.63-.8A13.37,13.37,0,0,0,67,60.09a7.42,7.42,0,0,0-3.94.65,5.77,5.77,0,0,0-1.59,1,2,2,0,0,0-.62,1.3c-.17.52-.27,1.07-.48,1.58a13.45,13.45,0,0,1-.9,1.61,5.63,5.63,0,0,0-1,3.15.05.05,0,0,0,0,0h0v.1a0,0,0,0,0,0,0c.24.56,1,.63,1.53.78s1.11.24,1.66.37.86.35,1.3.49a4.2,4.2,0,0,0,1.07.17,8.67,8.67,0,0,0,2.42,0,4.49,4.49,0,0,0,2.74-.94h0A3,3,0,0,0,70,69.28a19.56,19.56,0,0,0,.74-2.33A14,14,0,0,0,71,63.63q0-.14,0-.27c0-.37,0-.74,0-1.11A1.4,1.4,0,0,0,71,61.55Z"/></g><g class="cls-4"><path class="cls-3" d="M71,61.55a1.41,1.41,0,0,0-.92-.61,13.13,13.13,0,0,1,.27,3.33,18,18,0,0,1-.41,3.15,3.52,3.52,0,0,1-1,2.12,4.79,4.79,0,0,1-2.54.63c-.66,0-1.59.15-2.13-.34a3.2,3.2,0,0,1-.72-1.63c-.23-.83-.77-2.05-1.86-1.62-.13.05-.29.17-.43.08s-.68-.84-.86-.73-.41.29-.63.09a.23.23,0,0,1-.06-.11l-.22.36a5.63,5.63,0,0,0-1,3.15.05.05,0,0,0,0,0h0v.1a0,0,0,0,0,0,0c.24.56,1,.63,1.53.78s1.11.24,1.66.37.86.35,1.3.49a4.2,4.2,0,0,0,1.07.17,8.67,8.67,0,0,0,2.42,0,4.49,4.49,0,0,0,2.74-.94h0A3,3,0,0,0,70,69.28a19.56,19.56,0,0,0,.74-2.33A14,14,0,0,0,71,63.63q0-.14,0-.27c0-.37,0-.74,0-1.11A1.4,1.4,0,0,0,71,61.55Z"/></g><path class="cls-5" d="M62.44,67c.71.14.65,2.29.31,3.45s-1.18.59-1.81.5-.89-.3-.69-1.16S61.36,66.75,62.44,67Z"/><path class="cls-6" d="M62.44,67c.71.14.65,2.29.31,3.45s-1.18.59-1.81.5-.89-.3-.69-1.16S61.36,66.75,62.44,67Z"/><path class="cls-6" d="M62.83,67.38a5.57,5.57,0,0,1-.1.79A3.16,3.16,0,0,1,62,70c-.5.45-1-.12-1-.64a3.56,3.56,0,0,1,.39-1.82,6.18,6.18,0,0,0-1.06,2.21c-.2.86.05,1.07.69,1.16s1.48.66,1.81-.5A5.92,5.92,0,0,0,62.83,67.38Z"/><path class="cls-5" d="M60.25,66.45c.63.11.83,1.36.51,2.77s-.61,1.41-1.56,1.18-1.31-.63-.65-2.32C59.07,66.72,59.88,66.38,60.25,66.45Z"/><path class="cls-6" d="M60.25,66.45c.63.11.83,1.36.51,2.77s-.61,1.41-1.56,1.18-1.31-.63-.65-2.32C59.07,66.72,59.88,66.38,60.25,66.45Z"/><path class="cls-6" d="M60.36,66.48a1.05,1.05,0,0,1,.06.42A4.82,4.82,0,0,1,60,68.81c-.18.38-.72,1-1.17.64a1.35,1.35,0,0,1-.39-.93c-.42,1.32,0,1.66.81,1.87s1.25.24,1.56-1.18S60.9,66.71,60.36,66.48Z"/><path class="cls-7" d="M31.19,53.94c2.1,2,2.4,3.23,4.2,5.55s8.25,7.73,26.56,5.63S82.73,55.6,84.23,53s2.85-6.08,4.05-7.5-9.45-1.65-21.75,4.35S31.19,53.94,31.19,53.94Z"/><path class="cls-7" d="M31.19,53.94c2.1,2,2.4,3.23,4.2,5.55s8.25,7.73,26.56,5.63S82.73,55.6,84.23,53s2.85-6.08,4.05-7.5-9.45-1.65-21.75,4.35S31.19,53.94,31.19,53.94Z"/><path class="cls-8" d="M66.52,49.82c-12.3,6-35.33,4.13-35.33,4.13,2.1,2,2.4,3.23,4.2,5.55,1.55,2,6.55,6.29,19.61,6.09a11.58,11.58,0,0,0,2.59-.8A16.09,16.09,0,0,1,60,63.51a13.77,13.77,0,0,1,3-.25,29.08,29.08,0,0,0,3.33-.4c.46-.08.92-.15,1.37-.26a3.64,3.64,0,0,1,1-.14.48.48,0,0,1,.37.71,2.56,2.56,0,0,1-.55.83c.58-.14,1.14-.28,1.68-.43.67-.72,1.06-1.69,1.75-2.41a3,3,0,0,1,1-.71c.27-.12.71-.36,1-.23.56.24,0,1.39-.11,1.72l-.21.48c.68-.27,1.32-.55,1.91-.84a19,19,0,0,0,.83-1.81A5.82,5.82,0,0,1,78,57.9L80,56.12a15.16,15.16,0,0,0,2-1.89c.25-.32.66-1,1.13-.94.32,0,.42.46.44.71,0,0,0,0,0,0,.22-.41.41-.78.58-1.08,1.5-2.63,2.85-6.08,4.05-7.5S78.82,43.82,66.52,49.82ZM35.24,59c-.12-.13-.64-.73-.3-.9s.74,0,1,.16a.08.08,0,0,1,.08,0,16.72,16.72,0,0,0,7.07,1.17c1.2,0,2.4-.16,3.6-.3.49-.06,1-.12,1.49-.16a1.55,1.55,0,0,1,.94.22.08.08,0,0,1,0,.12,2.85,2.85,0,0,1-1,.61,13.36,13.36,0,0,1-4.62.76,20.94,20.94,0,0,1-6.25-.58A4.25,4.25,0,0,1,35.24,59Zm21.68,4.25a5,5,0,0,1-1.16.59,10.62,10.62,0,0,1-1.39.49,13.4,13.4,0,0,1-3.17.45,35.19,35.19,0,0,1-7-.73,18.13,18.13,0,0,1-3.08-.77,8.43,8.43,0,0,1-1.32-.61,1.66,1.66,0,0,1-.74-.66.08.08,0,0,1,.06-.11,5.17,5.17,0,0,1,1.68.27,21.16,21.16,0,0,0,2.3.37c1.17.06,2.34.07,3.51,0a18,18,0,0,0,3.41-.48,10.61,10.61,0,0,1,3-.35c.52,0,1,.16,1.55.25a11.82,11.82,0,0,1,1.52.3C56.52,62.45,57.55,62.77,56.93,63.28Z"/><g class="cls-9"><path class="cls-10" d="M60.76,56.8a21.92,21.92,0,0,1-12.34,4.46,53.55,53.55,0,0,1-6.61,0A11.79,11.79,0,0,1,36,59.79s0,0,0,0A8.32,8.32,0,0,0,38.37,61a14.11,14.11,0,0,0,2.93.47,55.94,55.94,0,0,0,6.3.13,21.81,21.81,0,0,0,12.24-3.89,12.46,12.46,0,0,0,1-.82S60.8,56.78,60.76,56.8Z"/><path class="cls-10" d="M64.29,56.52A32.21,32.21,0,0,1,62,59.73a22.76,22.76,0,0,1-2.85,2.75,12.7,12.7,0,0,1-7.41,2.79s0,0,0,0a12.94,12.94,0,0,0,4.1-.61,11,11,0,0,0,3.35-1.91,21.31,21.31,0,0,0,5.17-6.22S64.31,56.49,64.29,56.52Z"/><path class="cls-10" d="M71.87,53.15s0,0,0,0a14.81,14.81,0,0,1-.38,5.66c-.2.84-.45,1.68-.72,2.51a5.83,5.83,0,0,1-1.22,2.24s0,0,0,0a5.09,5.09,0,0,0,1.25-2,24.66,24.66,0,0,0,.79-2.49,14.88,14.88,0,0,0,.49-3A9.2,9.2,0,0,0,71.87,53.15Z"/><path class="cls-10" d="M75.55,52.74a0,0,0,0,0,0,0,23.33,23.33,0,0,1,.18,4.68,9.36,9.36,0,0,1-.89,4.24s0,0,0,0A3.69,3.69,0,0,0,75.59,60a10.69,10.69,0,0,0,.31-2.36A16.11,16.11,0,0,0,75.55,52.74Z"/><path class="cls-10" d="M83.28,49.51a0,0,0,0,0-.05,0c.32,1.36.94,2.9.43,4.3a0,0,0,1,0,0,0C84.39,52.54,83.87,50.76,83.28,49.51Z"/></g><path class="cls-3" d="M37.33,57.09a7.21,7.21,0,0,0-.75-.87c-2.31-2.58-6.47-2.85-9.7-2.58a13,13,0,0,0-5.75,1.8,27.18,27.18,0,0,0-8.06,8.08,2.38,2.38,0,0,0-.16,2.59,10.6,10.6,0,0,0,2.33,3.09,8.11,8.11,0,0,0,1.45,1.15,13.31,13.31,0,0,0,2,.9c2.42,1,4.2-3.57,5.14-5a40.71,40.71,0,0,1,3.39-5,15.33,15.33,0,0,1,4.15-3.35A6.42,6.42,0,0,1,34.08,57C35,56.89,36.54,57.71,37.33,57.09Z"/><g class="cls-4"><path class="cls-3" d="M36.58,56.22c-1.84-2.06-4.85-2.64-7.63-2.66H29a1.52,1.52,0,0,1,1,.37.63.63,0,0,1-.1.9,2.92,2.92,0,0,1-1.12.36,17.06,17.06,0,0,0-1.8.5,11.58,11.58,0,0,0-3.72,2,14,14,0,0,1-2.79,2.17c-.69.33-1.64.62-2.2-.1-.16-.21-.3-.5-.55-.61a1.13,1.13,0,0,0-.88,0,6,6,0,0,0-.67.32,25.32,25.32,0,0,0-3.17,4,2.38,2.38,0,0,0-.16,2.59,10.6,10.6,0,0,0,2.33,3.09,8.11,8.11,0,0,0,1.45,1.15,13.31,13.31,0,0,0,2,.9c2.42,1,4.2-3.57,5.14-5a40.71,40.71,0,0,1,3.39-5,15.33,15.33,0,0,1,4.15-3.35A6.42,6.42,0,0,1,34.08,57c.95-.06,2.46.76,3.24.14A7.21,7.21,0,0,0,36.58,56.22Z"/></g><g class="cls-4"><path class="cls-3" d="M36.58,56.22a6.77,6.77,0,0,0-2.1-1.56c.64.57,1.13,1.6.48,1.58a9.71,9.71,0,0,0-5.71,1.32,15.81,15.81,0,0,0-4.81,4.73c-1.08,1.55-2.21,4.71-3.91,5.62a1.3,1.3,0,0,1-1.85-1.63,4.52,4.52,0,0,1,.67-1.1,5.44,5.44,0,0,0,.93-3,1.71,1.71,0,0,0-.43-1.31,1.71,1.71,0,0,0-1.21-.34c-.59,0-.5-.83-.76-1.17s-.75-.07-.94,0a3.28,3.28,0,0,0-.78.4l-.43.29a24.87,24.87,0,0,0-2.62,3.44,2.38,2.38,0,0,0-.16,2.59,10.6,10.6,0,0,0,2.33,3.09,8.11,8.11,0,0,0,1.45,1.15,13.31,13.31,0,0,0,2,.9c2.42,1,4.2-3.57,5.14-5a40.71,40.71,0,0,1,3.39-5,15.33,15.33,0,0,1,4.15-3.35A6.42,6.42,0,0,1,34.08,57c.95-.06,2.46.76,3.24.14A7.21,7.21,0,0,0,36.58,56.22Z"/></g><g class="cls-11"><path class="cls-3" d="M18.78,69.82c-1-2.16-2.83-5.15-5.44-5.58a1,1,0,0,0-.65.08,2.64,2.64,0,0,0,.23,1.8,10.6,10.6,0,0,0,2.33,3.09,6.32,6.32,0,0,0,1.45,1.15C19.64,71.9,19.1,70.5,18.78,69.82Z"/></g><path class="cls-12" d="M21.59,62a.13.13,0,0,0-.2-.07.88.88,0,0,0-.21.17,1.47,1.47,0,0,0-.49,1.22.14.14,0,0,0,.18.11A1.35,1.35,0,0,0,21.59,62Z"/><path class="cls-12" d="M20.7,58.06a1.32,1.32,0,0,0-.68.25,1.28,1.28,0,0,0-.54.53l-.08.11a.22.22,0,0,0,.13.35l0,0c.59.16,1.14-.49,1.35-1A.21.21,0,0,0,20.7,58.06Z"/><path class="cls-13" d="M24.75,57.21c-.4-.11-.88.22-1.2.48-.72.4-1.37,1.22-.82,1.69s1-.27,1.24-.52a4.53,4.53,0,0,0,1-1.28A.27.27,0,0,0,24.75,57.21Z"/><path class="cls-12" d="M29.38,55.1c-.51-.27-1.24.14-1.73.58a1.91,1.91,0,0,0-.32.33l-.07.09a.26.26,0,0,0,0,.1.53.53,0,0,0-.06.27c.06.7,1.19.16,1.49,0S30.17,55.52,29.38,55.1Z"/><path class="cls-13" d="M26.76,55.52a1.21,1.21,0,0,0-1,.24,1.05,1.05,0,0,0-.55.63.17.17,0,0,0,.14.2,1.57,1.57,0,0,0,1.55-.8A.19.19,0,0,0,26.76,55.52Z"/><path class="cls-5" d="M16.13,59.72c-.76-.13-2.44.92-3,2.08s-.51,1.89.23,1.67,1.22-.92,2-1.88S16.77,59.83,16.13,59.72Z"/><path class="cls-14" d="M16.13,59.72c-.76-.13-2.44.92-3,2.08s-.51,1.89.23,1.67,1.22-.92,2-1.88S16.77,59.83,16.13,59.72Z"/><path class="cls-5" d="M17.84,59.69c-.3-1.09-1.77-.08-2.27.28a6.58,6.58,0,0,0-1.47,1.36,5.79,5.79,0,0,0-.61,1.16c-.29.79.33,1.32,1,1.62a1.61,1.61,0,0,0,1.71-.35A5.29,5.29,0,0,0,17.34,62,3.6,3.6,0,0,0,17.84,59.69Z"/><path class="cls-14" d="M17.84,59.69a.75.75,0,0,0-.15-.3,1.1,1.1,0,0,1-.1.56,4.65,4.65,0,0,1-.59.93c-.29.39-.54.81-.84,1.19a2.13,2.13,0,0,1-2.07,1,.66.66,0,0,1-.51-.78l-.09.22c-.29.79.33,1.32,1,1.62a1.61,1.61,0,0,0,1.71-.35A5.29,5.29,0,0,0,17.34,62,3.6,3.6,0,0,0,17.84,59.69Z"/><path class="cls-5" d="M18.75,60.87c-.81-.18-1.46.59-1.88,1.16a5.38,5.38,0,0,0-1.35,2.29,2,2,0,0,0,.65,1.38c1.42,1.7,2.8-.74,3.16-2a6.07,6.07,0,0,0,.24-1.4C19.57,61.7,19.39,61,18.75,60.87Z"/><path class="cls-6" d="M18.75,60.87c-.81-.18-1.46.59-1.88,1.16a5.38,5.38,0,0,0-1.35,2.29,2,2,0,0,0,.65,1.38c1.42,1.7,2.8-.74,3.16-2a6.07,6.07,0,0,0,.24-1.4C19.57,61.7,19.39,61,18.75,60.87Zm.36,1a5.06,5.06,0,0,1-.87,1.94,2,2,0,0,1-1.16,1,1,1,0,0,1-1.07-.6,2,2,0,0,1,.48-1.44,12.65,12.65,0,0,1,1.05-1.35,1.43,1.43,0,0,1,.93-.54C18.94,60.8,19.2,61.46,19.11,61.92Z"/><path class="cls-13" d="M23.09,56c-1.54.64-2.2,1.6-1.63,2.1s1.13-.18,2.18-.88S25.54,55,23.09,56Z"/><path class="cls-15" d="M21.17,59.07c-.69.43-.88,1.85-.18,1.53S22.49,58.25,21.17,59.07Z"/><path class="cls-12" d="M20.94,56.14c-1,.57-.88,1.35-.32,1.18S22.27,55.39,20.94,56.14Z"/><path class="cls-12" d="M25.37,54.54c-1.27.2-1,1-.28.78S26.67,54.34,25.37,54.54Z"/><path class="cls-12" d="M25.94,58.17c-.8.19-1.17,1.63-.55,1.35S26.79,58,25.94,58.17Z"/><path class="cls-16" d="M25.41,54.06c-3.17.07-5.76,2.41-7.9,4.51,0,0,0,.08.05.06,1.18-.8,2.28-1.7,3.47-2.47A15,15,0,0,1,23.19,55c.73-.32,1.54-.46,2.25-.8A.07.07,0,0,0,25.41,54.06Z"/><path class="cls-3" d="M57.46,58.56c.35-.7-.28-2.75-.41-3.46C55.86,48.7,53.17,41.82,47,38.78a16.89,16.89,0,0,0-6.86-1.68,19.76,19.76,0,0,0-4,.43l-.48.06c-1.09-.11-2.17-.2-3.25-.38a3.73,3.73,0,0,0-2.51.25,13.17,13.17,0,0,0-6.4,9.9,9.08,9.08,0,0,0,1.29,5.8c.4.66,1.73.41,2.42.49a13.5,13.5,0,0,1,7.16,3,11.21,11.21,0,0,0,2,1.23,9.9,9.9,0,0,0,2.27.69,15.16,15.16,0,0,0,4.86.08,9.38,9.38,0,0,0,3.94-1.13c.42.12.85.21,1.27.31,1,.21,2,.45,2.95.61s5.12,1.08,5.77.16Z"/><g class="cls-4"><path class="cls-3" d="M57.46,58.56c.35-.7-.28-2.75-.41-3.46C55.86,48.7,53.17,41.82,47,38.78a16.89,16.89,0,0,0-6.86-1.68,19.76,19.76,0,0,0-4,.43l-.48.06c-1.09-.11-2.17-.2-3.25-.38a3.73,3.73,0,0,0-2.51.25,13.17,13.17,0,0,0-6.4,9.9,9.08,9.08,0,0,0,1.29,5.8c.4.66,1.73.41,2.42.49a13.5,13.5,0,0,1,7.16,3,11.21,11.21,0,0,0,2,1.23,9.9,9.9,0,0,0,2.27.69,15.16,15.16,0,0,0,4.86.08,9.38,9.38,0,0,0,3.94-1.13c.42.12.85.21,1.27.31,1,.21,2,.45,2.95.61s5.12,1.08,5.77.16Z"/></g><g class="cls-4"><path class="cls-3" d="M57.5,58.56c.35-.7-.28-2.75-.41-3.46C55.89,48.7,53.21,41.82,47,38.78a16.89,16.89,0,0,0-6.86-1.68,19.79,19.79,0,0,0-4,.43l-.47.06c-1.09-.11-2.17-.2-3.25-.38a3.73,3.73,0,0,0-2.51.25,13.17,13.17,0,0,0-6.4,9.9,9.08,9.08,0,0,0,1.29,5.8c.4.66,1.73.41,2.42.49a13.5,13.5,0,0,1,7.16,3,11.21,11.21,0,0,0,2,1.23,9.89,9.89,0,0,0,2.27.69,15.16,15.16,0,0,0,4.86.08,9.37,9.37,0,0,0,3.94-1.13c.42.12.85.21,1.27.31,1,.21,2,.45,2.95.61s5.12,1.08,5.77.16Z"/></g><g class="cls-9"><path class="cls-3" d="M57.05,55.1C55.86,48.7,53.17,41.82,47,38.78a16.89,16.89,0,0,0-6.86-1.68,19.76,19.76,0,0,0-4,.43l-.48.06c-1.09-.11-2.17-.2-3.25-.38a3.73,3.73,0,0,0-2.51.25,13.17,13.17,0,0,0-6.4,9.9,9.08,9.08,0,0,0,1.29,5.8c.4.66,1.73.41,2.42.49a13.5,13.5,0,0,1,7.16,3,11.21,11.21,0,0,0,2,1.23,9.9,9.9,0,0,0,2.27.69,15.16,15.16,0,0,0,4.86.08,9.38,9.38,0,0,0,3.94-1.13c.42.12.85.21,1.27.31,1,.21,2,.45,2.95.61s5.12,1.08,5.77.16l0-.07C57.81,57.86,57.18,55.81,57.05,55.1ZM43.23,49.43a5.53,5.53,0,0,0-1.67,1.73.08.08,0,0,1-.14-.06,8.22,8.22,0,0,1,1-2.19,6.79,6.79,0,0,0-1.81,2.77c-.26.53-.62,1-.89,1.52s-.48,1-.73,1.52c-.65,1.3-1.92,2.78-3.55,2.1a8,8,0,0,1-2-1.45c-.14-.12-1.1-.78-.63-1a3.72,3.72,0,0,1,1.14-.26c.55-.1,1.1-.19,1.64-.33a7.47,7.47,0,0,0,2.93-1.52,14.68,14.68,0,0,0,3.27-4,9.74,9.74,0,0,1-2.29,1.87c-.08,0-.14-.06-.09-.12a13.81,13.81,0,0,0,1.89-2.62,2.43,2.43,0,0,0-.37-2.76c-1.19-1.37-3.38-2.36-3.49-4.41a.08.08,0,0,1,.11-.06,10.37,10.37,0,0,1,2.77,1.8,15.61,15.61,0,0,1,2,3.78v0a13.28,13.28,0,0,1,1.07,2.66C43.49,48.77,43.6,49.16,43.23,49.43Z"/></g><g class="cls-4"><path class="cls-17" d="M57.09,55.1C55.89,48.7,53.21,41.82,47,38.78a16.89,16.89,0,0,0-6.86-1.68,19.79,19.79,0,0,0-4,.43l-.47.06c-1.09-.11-2.17-.2-3.25-.38a3.73,3.73,0,0,0-2.51.25,13.17,13.17,0,0,0-6.4,9.9,9.08,9.08,0,0,0,1.29,5.8c.4.66,1.73.41,2.42.49a13.5,13.5,0,0,1,7.16,3,11.21,11.21,0,0,0,2,1.23,9.89,9.89,0,0,0,2.27.69,15.16,15.16,0,0,0,4.86.08,9.37,9.37,0,0,0,3.94-1.13c.42.12.85.21,1.27.31,1,.21,2,.45,2.95.61s5.12,1.08,5.77.16l0-.07C57.84,57.86,57.22,55.81,57.09,55.1ZM44.73,49.26h0a2.66,2.66,0,0,0-.6.19,7,7,0,0,0-.67.27,6.72,6.72,0,0,0-1,.55,7,7,0,0,0-1.61,1.58,12.55,12.55,0,0,0-1.82,4c-.15.54-.2,1.39-.65,1.79a1.53,1.53,0,0,1-1.66,0,10.9,10.9,0,0,1-2.22-1.29c-.7-.54-1.35-1.13-2-1.69a.07.07,0,0,1,0-.11,7.56,7.56,0,0,1,2.64-1.29A9.9,9.9,0,0,0,38,51.41,20.9,20.9,0,0,0,40,49c.57-.72,1.71-2,1-3a12.06,12.06,0,0,0-1.13-1.17c-.37-.38-.74-.76-1.07-1.16a23.84,23.84,0,0,1-1.45-2c-.33-.49-.88-1.18-.81-1.81s.75-.32,1.08-.15A12.84,12.84,0,0,1,39.85,41a12.21,12.21,0,0,1,1.91,2.22,14.71,14.71,0,0,1,1.71,2.87c.44,1,.83,2,1.34,3a.07.07,0,0,1,0,0v0C44.9,49.27,44.78,49.34,44.73,49.26Z"/></g><path class="cls-3" d="M56.39,70.62A23.75,23.75,0,0,0,55.69,68a22.06,22.06,0,0,0-2.47-5.11,18.26,18.26,0,0,0-3-3.5c-1-1-2.27-2.07-2.45-3.55l0-.11a9.65,9.65,0,0,1,.58-1,6.92,6.92,0,0,0,.51-1.61A5.76,5.76,0,0,0,49,51.29,2.48,2.48,0,0,0,46.87,49c-2.07-.38-4.86,1.57-6,3.11a9,9,0,0,0-1.61,6.27A32.77,32.77,0,0,0,41,64.88a37.09,37.09,0,0,1,1.67,7.06c0,.14,0,.29,0,.43a.11.11,0,0,0,0,.05A2.71,2.71,0,0,0,43,73.54a2.59,2.59,0,0,0,1.37,1,12.31,12.31,0,0,0,4.13.65,17.79,17.79,0,0,0,4.69-.42A6.76,6.76,0,0,0,55,74.13a4.49,4.49,0,0,0,1.32-1,1.25,1.25,0,0,0,.31-.84A11,11,0,0,0,56.39,70.62Z"/><path class="cls-3" d="M56.39,70.62A23.75,23.75,0,0,0,55.69,68a22.06,22.06,0,0,0-2.47-5.11,18.26,18.26,0,0,0-3-3.5c-1-1-2.27-2.07-2.45-3.55l0-.11a9.65,9.65,0,0,1,.58-1,6.92,6.92,0,0,0,.51-1.61A5.76,5.76,0,0,0,49,51.29,2.48,2.48,0,0,0,46.87,49c-2.07-.38-4.86,1.57-6,3.11a9,9,0,0,0-1.61,6.27A32.77,32.77,0,0,0,41,64.88a37.09,37.09,0,0,1,1.67,7.06c0,.14,0,.29,0,.43a.11.11,0,0,0,0,.05A2.71,2.71,0,0,0,43,73.54a2.59,2.59,0,0,0,1.37,1,12.31,12.31,0,0,0,4.13.65,17.79,17.79,0,0,0,4.69-.42A6.76,6.76,0,0,0,55,74.13a4.49,4.49,0,0,0,1.32-1,1.25,1.25,0,0,0,.31-.84A11,11,0,0,0,56.39,70.62Z"/><path class="cls-18" d="M43.86,58.85c0-1.24,1-7.74-1-8-1-.13-1.87,2.16-2.14,2.89-.71,2-.76,7.4,2.16,8C44.16,62,43.87,59.39,43.86,58.85Z"/><path class="cls-19" d="M56.39,70.62A23.75,23.75,0,0,0,55.69,68a22.06,22.06,0,0,0-2.47-5.11,18.26,18.26,0,0,0-3-3.5c-1-1-2.27-2.07-2.45-3.55l0-.11a9.65,9.65,0,0,1,.58-1,6.92,6.92,0,0,0,.51-1.61A5.76,5.76,0,0,0,49,51.29,2.48,2.48,0,0,0,46.87,49a5.42,5.42,0,0,0-3.61,1,.92.92,0,0,1,.63.23,2.93,2.93,0,0,1,.74,1.52c.88,3.41,2.52,5.44,4.58,8.2,1.49,2,4.14,5.33,2.05,7.77-1.6,1.87-5.53.22-7.13-1-2.35-1.76-4.8-6-4.91-9,0,.22,0,.45,0,.67A32.77,32.77,0,0,0,41,64.88a37.09,37.09,0,0,1,1.67,7.06c0,.14,0,.29,0,.43a.11.11,0,0,0,0,.05A2.71,2.71,0,0,0,43,73.54a2.59,2.59,0,0,0,1.37,1,12.31,12.31,0,0,0,4.13.65,17.79,17.79,0,0,0,4.69-.42A6.76,6.76,0,0,0,55,74.13a4.49,4.49,0,0,0,1.32-1,1.25,1.25,0,0,0,.31-.84A11,11,0,0,0,56.39,70.62Z"/><path class="cls-19" d="M56.39,70.62A23.75,23.75,0,0,0,55.69,68a22.06,22.06,0,0,0-2.47-5.11,18.26,18.26,0,0,0-3-3.5c-1-1-2.27-2.07-2.45-3.55l0-.11a9.65,9.65,0,0,1,.58-1,6.92,6.92,0,0,0,.51-1.61A5.76,5.76,0,0,0,49,51.29,2.48,2.48,0,0,0,46.87,49a4.87,4.87,0,0,0-3,.64,2.64,2.64,0,0,1,.8,1.42c.14.51.22,1,.4,1.54A18,18,0,0,0,46,54.78c1.71,3.27,4.62,5.6,6.85,8.48a13,13,0,0,1,2.37,4.3c.38,1.32.64,3-.21,4.16a5.36,5.36,0,0,1-3.35,2.09,2.75,2.75,0,0,1-2.95-1c-.61-1-.93-2.1-1.54-3.07-.22-.35-.57-.88-1-.89-.64,0-1.09.68-1.4,1.15a.08.08,0,0,1-.14,0,1.8,1.8,0,0,0-1.3-1.22,1.19,1.19,0,0,0-1.14.3,28.67,28.67,0,0,1,.51,2.92c0,.14,0,.29,0,.43a.11.11,0,0,0,0,.05A2.71,2.71,0,0,0,43,73.54a2.59,2.59,0,0,0,1.37,1,12.31,12.31,0,0,0,4.13.65,17.79,17.79,0,0,0,4.69-.42A6.76,6.76,0,0,0,55,74.13a4.49,4.49,0,0,0,1.32-1,1.25,1.25,0,0,0,.31-.84A11,11,0,0,0,56.39,70.62Z"/><path class="cls-20" d="M45.18,74.91c.29-.41,0-1.43,0-1.84a8.94,8.94,0,0,0-.49-2c-.16-.43-.6-1.88-1.21-2-.28-.27-.71.28-.84.53a2.3,2.3,0,0,0-.24,1c0,.53-.05,1.07,0,1.61a9.4,9.4,0,0,0,.3,1.51,1.73,1.73,0,0,0,.41.91A2,2,0,0,0,44,75c.29.07.86.17,1.1-.05Z"/><path class="cls-21" d="M45.14,73.06a8.94,8.94,0,0,0-.49-2,5.17,5.17,0,0,0-.93-1.84,5.81,5.81,0,0,1,.57,2.51c0,.45.43,2.33-.46,2.26s-1.32-.71-1.44-1.57c0-.16,0-.32-.05-.47,0,.09,0,.18,0,.28a9.4,9.4,0,0,0,.3,1.51,1.73,1.73,0,0,0,.41.91A2,2,0,0,0,44,75c.29.07.86.17,1.1-.05l.06-.07C45.46,74.49,45.19,73.47,45.14,73.06Z"/><path class="cls-22" d="M44.94,65.83c.13-.63-.54-3.25-1.49-2.65-.63.4.15,2.89.85,3.08C44.67,66.36,44.87,66.17,44.94,65.83Z"/><path class="cls-23" d="M45,59.53c-1.07.56,0,3.63,1.05,3.4,1.21-.27.07-3.66-.86-3.46A.74.74,0,0,0,45,59.53Z"/><path class="cls-23" d="M49.64,64.17c-.56-1.11-1.78-1.51-1.24.72.31,1.27,1.45,2.09,1.51.42A2.37,2.37,0,0,0,49.64,64.17Z"/><path class="cls-23" d="M43.38,59.16c-.47-.94-1.5-1.27-1,.6.26,1.07,1.22,1.76,1.27.36A2,2,0,0,0,43.38,59.16Z"/><path class="cls-22" d="M51.34,68.17c-.66-.39-.28,1.48-.24,1.61a2.6,2.6,0,0,0,1,1.53.26.26,0,0,0,.36-.19A3,3,0,0,0,51.34,68.17Z"/><path class="cls-22" d="M46,57.52a.45.45,0,0,0,0-.05,1.63,1.63,0,0,0-.67-1.39.25.25,0,0,0-.31.09c-.26.18-.15.6-.06.84a1.75,1.75,0,0,0,.71.91.21.21,0,0,0,.29-.15,1,1,0,0,0,0-.15A.24.24,0,0,0,46,57.52Z"/><path class="cls-23" d="M43.82,55.26l0-.11a.23.23,0,0,0-.39-.07.9.9,0,0,0,.18,1.15h0l0,0a.17.17,0,0,0,.25,0,.25.25,0,0,0,.07-.08A.78.78,0,0,0,43.82,55.26Z"/><path class="cls-20" d="M48.73,73.87a9.92,9.92,0,0,0-.88-2.82c-.31-.59-.89-1.48-1.65-1.49s-1.34.88-1.47,1.61a4.69,4.69,0,0,0,0,1.55,5.51,5.51,0,0,0,.34,1.69,1.51,1.51,0,0,0,1.41,1,6.82,6.82,0,0,0,1.21,0,1.52,1.52,0,0,0,.91-.27A1.2,1.2,0,0,0,48.73,73.87Z"/><path class="cls-21" d="M48.73,73.87a9.92,9.92,0,0,0-.88-2.82l-.17-.3a12.06,12.06,0,0,1,.45,1.57,2.29,2.29,0,0,1,0,1.35,1.09,1.09,0,0,1-1,.61,2.38,2.38,0,0,1-1.64-.4,2,2,0,0,1-.6-1.24,5.56,5.56,0,0,1-.08-2,2.68,2.68,0,0,0-.14.49,4.69,4.69,0,0,0,0,1.55,5.51,5.51,0,0,0,.34,1.69,1.51,1.51,0,0,0,1.41,1,6.82,6.82,0,0,0,1.21,0,1.52,1.52,0,0,0,.91-.27A1.2,1.2,0,0,0,48.73,73.87Z"/><path class="cls-23" d="M46.28,63.43c-1.26.24-.68,2.7.12,3.79s2.56,1.41,1.48-2.16C47.57,64.06,47,63.28,46.28,63.43Z"/><ellipse class="cls-23" cx="49.25" cy="68.2" rx="0.43" ry="1.12" transform="translate(-10.08 8.56) rotate(-9.02)"/><path class="cls-3" d="M87.66,68.91a6.49,6.49,0,0,0,.21-2.65,19.21,19.21,0,0,0-.58-3.5,14.34,14.34,0,0,0-1.15-3.23,16.86,16.86,0,0,0-1.73-2.59c-.69-.9-1.38-1.81-2-2.76a5.27,5.27,0,0,0-1.66-2,2.57,2.57,0,0,0-2.31.44,11.6,11.6,0,0,0-2.2,1.81,16.48,16.48,0,0,0-2.33,2.91.06.06,0,0,0,.06.1h0c2.08.95,3,3,3.22,5.15a14.77,14.77,0,0,1-.36,4.49c-.14.75-.3,1.5-.39,2.26-.13,1-.33,1.74.87,1.91.43.06.87.09,1.3.13a23.25,23.25,0,0,0,3.63.27C84.58,71.5,86.81,70.78,87.66,68.91Z"/><g class="cls-4"><path class="cls-3" d="M87.42,68.82c-.45.57-1.18,1.55-2,1.53a1.39,1.39,0,0,1-1.27-1c-.28-.66-.35-1.39-.68-2s-1.26-1.77-2.09-1c-.16.15-.46.73-.7.36a5.69,5.69,0,0,1-.53-1.28,12.06,12.06,0,0,1-.41-1.55,16,16,0,0,1-.27-3.23,10.37,10.37,0,0,1,.34-3A8.61,8.61,0,0,1,82.28,54a4.59,4.59,0,0,0-1.54-1.83,2.57,2.57,0,0,0-2.31.44,11.6,11.6,0,0,0-2.2,1.81,16.48,16.48,0,0,0-2.33,2.91.06.06,0,0,0,.06.1h0c2.08.95,3,3,3.22,5.15a14.77,14.77,0,0,1-.36,4.49c-.14.75-.3,1.5-.39,2.26-.13,1-.33,1.74.87,1.91.43.06.87.09,1.3.13a23.25,23.25,0,0,0,3.63.27c2.34-.15,4.57-.87,5.42-2.74a2.56,2.56,0,0,0,.18-.68Q87.64,68.53,87.42,68.82Z"/></g><g class="cls-4"><path class="cls-3" d="M83.93,70.49a9,9,0,0,0-1.14-3.38,1.17,1.17,0,0,0-1-.62,2.45,2.45,0,0,0-1.31.73.07.07,0,0,1-.12,0c-.29-.57-.87-1.55-1.66-1.25a1.62,1.62,0,0,0-.56.36c-.11.11-.24.33-.37.41s-.33,0-.44,0a.08.08,0,0,1-.07-.09,12.1,12.1,0,0,0,.2-2.35,16.27,16.27,0,0,0,0-2.29c-.11-1-.58-2.2-.26-3.2a2.19,2.19,0,0,1,.88-1,15.16,15.16,0,0,0,1.68-1.41,19.24,19.24,0,0,0,1.53-1.62c.27-.34.52-.69.8-1a3.76,3.76,0,0,0-1.35-1.51,2.57,2.57,0,0,0-2.31.44,11.6,11.6,0,0,0-2.2,1.81,16.48,16.48,0,0,0-2.33,2.91.06.06,0,0,0,.06.1h0c2.08.95,3,3,3.22,5.15a14.77,14.77,0,0,1-.36,4.49c-.14.75-.3,1.5-.39,2.26-.13,1-.33,1.74.87,1.91.43.06.87.09,1.3.13a23.25,23.25,0,0,0,3.63.27,11.14,11.14,0,0,0,2.19-.34A1.19,1.19,0,0,1,83.93,70.49Z"/></g><path class="cls-5" d="M77.79,67.11a.16.16,0,0,0-.15-.07c-.23-.17-.76.41-.86.54a4.63,4.63,0,0,0-.72,2.58,1.44,1.44,0,0,0,.3,1.11,1.11,1.11,0,0,0,.81.38.53.53,0,0,0,.56-.35.86.86,0,0,0,0-.34,1.21,1.21,0,0,0,0-.23c0-.25,0-.48,0-.73,0-.57.12-1.13.13-1.7C77.9,68,78,67.39,77.79,67.11Z"/><path class="cls-6" d="M77.78,67.09A3.69,3.69,0,0,0,77,68.67c-.06.25-.15,1.16-.56,1.15-.21,0-.28-.2-.29-.41a7.15,7.15,0,0,0-.06.74,1.44,1.44,0,0,0,.3,1.11,1.11,1.11,0,0,0,.81.38.53.53,0,0,0,.56-.35.86.86,0,0,0,0-.34,1.21,1.21,0,0,0,0-.23c0-.25,0-.48,0-.73,0-.57.12-1.13.13-1.7,0-.32.1-.91-.1-1.19Z"/><path class="cls-5" d="M83.31,68.49a2.44,2.44,0,0,0-.87-1.61c-.91-.62-1.69.54-2,1.24a7,7,0,0,0-.52,2.56,1.23,1.23,0,0,0,1,1.34c1,.23,2.54.11,2.63-1.2A8.3,8.3,0,0,0,83.31,68.49Z"/><path class="cls-6" d="M83.31,68.49a4.2,4.2,0,0,0-.23-.78A3.66,3.66,0,0,1,83,69.27c-.18.63-.77,1.65-1.58,1.18-1.34-.77-.41-2.65.23-3.7a2.52,2.52,0,0,0-1.21,1.37,7,7,0,0,0-.52,2.56,1.23,1.23,0,0,0,1,1.34c1,.23,2.54.11,2.63-1.2A8.3,8.3,0,0,0,83.31,68.49Z"/><path class="cls-12" d="M79.76,59.77a2.79,2.79,0,0,0-.88-1.4.16.16,0,0,0-.11,0,.1.1,0,0,0-.15-.06c-.33.21-.15.81-.06,1.1a1.82,1.82,0,0,0,.75,1.06C79.75,60.66,79.79,60,79.76,59.77Z"/><path class="cls-13" d="M81.75,54.38a.18.18,0,0,0-.25.18s0,.07,0,.1a1.13,1.13,0,0,0,.13.59,1.27,1.27,0,0,0,.69.67c.08,0,.2,0,.21-.11A1.65,1.65,0,0,0,81.75,54.38Z"/><path class="cls-13" d="M83.16,57.95a.22.22,0,0,0-.39.14,2.3,2.3,0,0,0,.07.62,1.5,1.5,0,0,0,.89,1.49.2.2,0,0,0,.28-.14A2.75,2.75,0,0,0,83.16,57.95Z"/><path class="cls-13" d="M82.48,61.12c0-.42-.32-.81-.53-1.14a.2.2,0,0,0-.35,0,.88.88,0,0,0,0,.38,1.13,1.13,0,0,0,.63,1,.18.18,0,0,0,.24-.09v0a.2.2,0,0,0,0-.12Z"/><path class="cls-13" d="M85.4,61.93a.21.21,0,0,0-.29.15l0,.07a1.27,1.27,0,0,0,.71,1.54.19.19,0,0,0,.21-.11A1.51,1.51,0,0,0,85.4,61.93Z"/><path class="cls-5" d="M80.38,68.56c0-.22,0-.44-.08-.65A5.7,5.7,0,0,0,80,66.74a.91.91,0,0,0-1.33-.49,1.8,1.8,0,0,0-.72.85,7.89,7.89,0,0,0-1,3.12,1.33,1.33,0,0,0,.4,1.38,2,2,0,0,0,1.32.37,2.26,2.26,0,0,0,.88-.1,1.09,1.09,0,0,0,.72-.86,7,7,0,0,0,.12-1.34A4.14,4.14,0,0,0,80.38,68.56Z"/><path class="cls-6" d="M80.38,68.56c0-.22,0-.44-.08-.65A5.7,5.7,0,0,0,80,66.74a1.06,1.06,0,0,0-.48-.53,3.61,3.61,0,0,1,.09,2,6.71,6.71,0,0,1-.45,1.65,1.87,1.87,0,0,1-.66.93.69.69,0,0,1-.86-.23,1.76,1.76,0,0,1-.23-1.28,10.89,10.89,0,0,1,.63-2.39l-.1.18a7.89,7.89,0,0,0-1,3.12,1.33,1.33,0,0,0,.4,1.38,2,2,0,0,0,1.32.37,2.26,2.26,0,0,0,.88-.1,1.09,1.09,0,0,0,.72-.86,7,7,0,0,0,.12-1.34A4.14,4.14,0,0,0,80.38,68.56Z"/><ellipse class="cls-12" cx="81.14" cy="57.4" rx="0.95" ry="1.95" transform="translate(-13.06 25.71) rotate(-16.68)"/><ellipse class="cls-12" cx="85.24" cy="59.8" rx="0.52" ry="1.56" transform="translate(-13.56 26.93) rotate(-16.65)"/><ellipse class="cls-12" cx="84.49" cy="65.52" rx="0.32" ry="0.64" transform="translate(-15.26 27.03) rotate(-16.69)"/><path class="cls-16" d="M86.92,62.51a11.69,11.69,0,0,0-1.11-2.84A19.1,19.1,0,0,0,82.2,55h0a16.32,16.32,0,0,1,3.22,4.91,28.39,28.39,0,0,1,1.78,5.55s.06,0,.06,0A25.92,25.92,0,0,0,86.92,62.51Z"/><path class="cls-16" d="M87.35,67.22s0,0,0,0,0,.33,0,.49,0,0,0,0S87.35,67.38,87.35,67.22Z"/><path class="cls-24" d="M89.07,44l-.14,0q-.28.31-.59.61A44.5,44.5,0,0,1,82.5,49c-3.93,2.75-7.78,5.79-12.48,7.11-7.23,2-15.92-.66-20.43-6.74-2.18-2.94-3.34-6.6-5.85-9.29a10,10,0,0,0-4.86-3c-1.34-.35-2.72-.53-4.08-.82a.54.54,0,0,0-.3.11c-2.05,1.6-.24,2.33,1,2.25a4.76,4.76,0,0,1,2.9,1,5.91,5.91,0,0,1,2,1.55,43.27,43.27,0,0,1,3.7,7.7c.44,1.09.24.43.7,1.51a0,0,0,0,0,0,0,48.87,48.87,0,0,0,2.36,5.15A12.29,12.29,0,0,0,51,59.63a11.17,11.17,0,0,0,4.45,2A24.36,24.36,0,0,0,66.91,62a21.43,21.43,0,0,0,6.5-2.15A39.53,39.53,0,0,0,79,56.16a44.7,44.7,0,0,0,4.2-3.6c2.18-2.23,5-4.46,6.36-7.41a4.88,4.88,0,0,0,.4-.94.85.85,0,0,0-.14-.77C89.7,43.28,89.31,44.1,89.07,44Z"/><path class="cls-25" d="M89.65,43.09a1.18,1.18,0,0,0-.57-.32c-.35-.1-.71-.18-1.05-.31a4.53,4.53,0,0,1-.75-.4,2.59,2.59,0,0,0-.8-.44,1,1,0,0,0-.46,0,1.52,1.52,0,0,0-.56-1c-.47-.43-1-.81-1.44-1.25s-1.11-1.13-1.65-1.71q-1.46-1.59-3-3.12a4,4,0,0,0-1.61-1.24,1.62,1.62,0,0,0-.41,0,.81.81,0,0,0-.09-.82c-.25-.34-.59-.65-.88-1l-1.11-1.25a23.17,23.17,0,0,0-2-2.07A1.74,1.74,0,0,0,72,27.68c-.73-1.6-2.79-2.35-4.54-2.6-.71-.1-1.42-.14-2.14-.18s-1.6-.13-2.4-.18c-.61,0-1.69-.16-2.11.32a2,2,0,0,0-1.15-.36,39.6,39.6,0,0,0-5.09.09c-.83.06-1.65.19-2.47.3s-1.65.12-2.45.28a1.49,1.49,0,0,0-1.17,1.07,1.84,1.84,0,0,0-.31-.13c-.48-.15-.77.29-1.08.58a17.35,17.35,0,0,1-1.84,1.53q-1,.7-1.92,1.45t-1.83,1.56c-.56.51-1,1.09-1.63,1.55-.29.22-.59.42-.88.62a3.66,3.66,0,0,0-.63.42.53.53,0,0,0-.16.57,1,1,0,0,0-.53.07,1.07,1.07,0,0,0-.28.19c-.35.17-.64.45-1,.64a5.78,5.78,0,0,1-1.48.6c-.32.08-.67.17-.8.5a.42.42,0,0,0,0,.14c0,.14.08.3.28.41a3.71,3.71,0,0,0,1.62.34,7.64,7.64,0,0,1,3.32.59,3.92,3.92,0,0,1,1.5,2.15c.79,2.06,1.54,4.13,2.41,6.16q.65,1.53,1.34,3a0,0,0,0,0,0,0A59.66,59.66,0,0,0,47.33,55a14.18,14.18,0,0,0,4,4.31,13.35,13.35,0,0,0,4.77,2,25.19,25.19,0,0,0,11.27,0,21.72,21.72,0,0,0,6.34-2.16,42.28,42.28,0,0,0,5.59-3.81,50.91,50.91,0,0,0,4.37-3.78,26.4,26.4,0,0,0,5.69-6.93,4.37,4.37,0,0,0,.39-.88A.76.76,0,0,0,89.65,43.09ZM62.4,61.74a21.9,21.9,0,0,1-3.25-.09h.26q1.66.05,3.32.07Z"/><path class="cls-26" d="M62.14,40.78a.19.19,0,0,0,0,0,8.13,8.13,0,0,0-1.57-3.37A6.46,6.46,0,0,0,58,34.74a5.77,5.77,0,0,0-1.48-.34c-.83-.13-1.62-.4-2.43-.61a2.81,2.81,0,0,0-1.49-.19.14.14,0,0,0-.1,0,2.58,2.58,0,0,0-1,1.06c-.53.81-1.17,1.56-1.76,2.33s-1,1.46-1.61,2.11a1.22,1.22,0,0,0-.36,1,2.58,2.58,0,0,0,.1,1.07,26.34,26.34,0,0,0,1,2.89,15.6,15.6,0,0,0,2.91,5A10.12,10.12,0,0,0,56.63,52a6.23,6.23,0,0,0,2.11.36,1.14,1.14,0,0,0,1.06-.19,1.52,1.52,0,0,0,.23-.23.19.19,0,0,0,.1-.05,3.37,3.37,0,0,0,.65-2c.16-1.11.41-2.22.63-3.32C61.81,44.69,62.53,42.69,62.14,40.78Z"/><path class="cls-26" d="M77.12,32.1a4.35,4.35,0,0,0-.9-1c-.63-.58-1.21-1.21-1.8-1.83S73,27.51,72,27.7a4.5,4.5,0,0,0-3.08,1.58c-.67.45-1.47,1.16-1.42,2,.09,1.42.27,2.85.34,4.28a2.43,2.43,0,0,0,.8,2.13,4.89,4.89,0,0,0,1.38.62,6,6,0,0,1,1.07.54c.83.87,2.35,2.39,3.11,1.14a3.12,3.12,0,0,0,.27-1.26,8.1,8.1,0,0,1,.46-1.83c.33-1,.86-1.84,1.23-2.78l.45-.38a3.78,3.78,0,0,0,.78-.64A.75.75,0,0,0,77.12,32.1Z"/><path class="cls-27" d="M73,57.56A45.34,45.34,0,0,1,71.42,53a1.42,1.42,0,0,0-.72-.92.11.11,0,0,0-.1-.09,9,9,0,0,0-2.48.36,16.11,16.11,0,0,1-2.42.28,8.26,8.26,0,0,0-1.36.07c-1.22-.24-.84,1.4-.82,2.21,0,1.12.14,2.23.25,3.34,0,.69,0,1.38.06,2.08s0,1.16.6,1.4A3,3,0,0,0,66,61.59,21.2,21.2,0,0,0,68.87,61l.46-.12a6.84,6.84,0,0,0,2.44-.78,3.86,3.86,0,0,0,.92-.4C73.53,59.12,73.41,58.39,73,57.56Z"/><path class="cls-26" d="M86.81,47.94a.17.17,0,0,0,0-.09c-.62-.71-1.31-1.32-2-2-.49-.48-1-1-1.68-.91s-1.36.89-1.92,1.27-1.29.82-1.91,1.26a2.12,2.12,0,0,0-.78.61l0,0a.08.08,0,0,0,0,.06c-.18.34.07.63.33.86l.1.17c.49.72,1.12,1.33,1.66,2a6.67,6.67,0,0,0,1,1.24.71.71,0,0,0,.59.41,1.34,1.34,0,0,0,1-.54A8,8,0,0,0,84.36,51c.5-.45,1-.94,1.44-1.38s1-.72,1-1.18A.42.42,0,0,0,86.81,47.94Z"/><path class="cls-26" d="M43.38,35.87a.14.14,0,0,0-.1-.1,17,17,0,0,0-5.07-1.21c-.81,0-1.32.57-1.95,1a3.17,3.17,0,0,1-1,.44c-.37.05-.79.11-.94.45s.08.7.41.89a5.34,5.34,0,0,0,2.31.23,4.44,4.44,0,0,1,3.1,1.19.17.17,0,0,0,.21,0,.48.48,0,0,0,.21-.05,1.69,1.69,0,0,0,.47-.42,5.85,5.85,0,0,1,.81-.76c.5-.39,1.36-.7,1.65-1.29A.26.26,0,0,0,43.38,35.87Z"/><path class="cls-28" d="M47.19,39.41,46.84,39a17.53,17.53,0,0,0-2.13-2.2,1.45,1.45,0,0,0-1.88-.35,6.14,6.14,0,0,0-1.74,1.62c-.8.54-.46,1.44-.05,2.23A15.31,15.31,0,0,1,42,42.53a5.83,5.83,0,0,0,.82,2c.53.62,1.27-.17,1.6-.58a13,13,0,0,1,1.3-1.48c.63-.57,1.34-1,2-1.58a.22.22,0,0,0,0-.3C47.9,40.27,47.53,39.73,47.19,39.41Z"/><path class="cls-28" d="M55.93,51.73a.2.2,0,0,0-.13-.11c-1.64-.47-3-2-4.16-3.12-.13-.14-.31-.38-.52-.57l0,0h0a.77.77,0,0,0-.55-.25.55.55,0,0,0-.43.36,1.69,1.69,0,0,0-.24.3c-.6.94-1,2-1.61,2.91A6.44,6.44,0,0,0,47,53.65a3,3,0,0,0,.77,2.21A12.78,12.78,0,0,0,52,59.77c.61.31,1.5,1.16,2.26,1l.1,0A.79.79,0,0,0,55,60.3a2.56,2.56,0,0,0,.22-1c.08-.69.18-1.37.27-2.05.18-1.31.36-2.62.61-3.92C56.17,52.77,56.44,52,55.93,51.73Z"/><path class="cls-29" d="M89.83,43.5c.05-.68-1.24-1-1.73-1.09a9.32,9.32,0,0,1-1.52-.84.44.44,0,0,0-.18,0c-.37-.08-.69.56-.84.83a5.31,5.31,0,0,1-1.14,1.37c-.32.28-.63.49-.71.93a1.1,1.1,0,0,0,.4.81c.48.47,1,.9,1.5,1.35s1.14,1.36,1.72,1.05c.44-.13.7-.76.91-1.12.56-1,1.48-2,1.6-3.18A.17.17,0,0,0,89.83,43.5Z"/><path class="cls-28" d="M62.35,28.08a1.87,1.87,0,0,0-.12-.28.15.15,0,0,0,0-.15,19.6,19.6,0,0,0-.91-2,1.72,1.72,0,0,0-1-1,5.54,5.54,0,0,0-1.8-.12c-.87,0-1.75,0-2.63.05-1.74,0-3.46.2-5.2.37a2.78,2.78,0,0,0-1.91.68c-.4.34-.36.78.08,1.35a31.17,31.17,0,0,1,2.5,3.78c.58,1.06.95,2.24,2.13,2.74a20.68,20.68,0,0,0,3.9.9c.92.8,1.75-.75,2.09-1.38a25.15,25.15,0,0,1,1.77-2.85,4.62,4.62,0,0,0,1.2-2A.17.17,0,0,0,62.35,28.08Z"/><path class="cls-30" d="M51.63,30.95a19.93,19.93,0,0,0-2.1-3,5.49,5.49,0,0,0-.4-.53,3.8,3.8,0,0,0-.71-1,.16.16,0,0,0-.07-.24c-.72-.33-1.52.65-2,1.09a46.33,46.33,0,0,1-3.92,3.2c-.94.76-1.81,1.59-2.72,2.38-.64.33-1.54.83-1.41,1.4-.06.15,0,.27.19.28a1.7,1.7,0,0,0,.84.17,10.37,10.37,0,0,1,3.24.78,8.33,8.33,0,0,1,2.73,1.72c.7.63,1.17,1.58,2,2,.55.29.85-.23,1.2-.6a14,14,0,0,0,1.65-2.25A9.06,9.06,0,0,0,52,34.1,3.82,3.82,0,0,0,51.63,30.95Z"/><path class="cls-27" d="M50.23,47.55a1.83,1.83,0,0,0,0-1.17,5,5,0,0,0-.61-1,12.26,12.26,0,0,1-.79-1.93A7.2,7.2,0,0,0,48,41.32c-.31-.35-.83-.17-1.13.12a4.87,4.87,0,0,0-1.08.92c-.34.34-.66.69-1,1a6.5,6.5,0,0,0-.81.81,4.65,4.65,0,0,0-.64.71,1.62,1.62,0,0,0,0,1.54,9.28,9.28,0,0,0,.94,2.08c.46.92.77,1.94,1.19,2.89s1,2.18,2,1.19a8.84,8.84,0,0,0,1.25-2c.54-1,1-1.95,1.53-2.93a.14.14,0,0,0,0-.14Z"/><path class="cls-29" d="M64.07,61a2.73,2.73,0,0,0,.09-.78c0-.83-.2-1.69-.27-2.52s-.2-1.5-.23-2.25a7.16,7.16,0,0,0-.12-1.61c-.3-1.11-1.27-1.28-2.31-1.32-.71,0-1.4,0-2.1-.08s-1.29-.26-1.93-.43a1.3,1.3,0,0,0-.48,0c-.32-.09-.54.13-.62.47-.22,1-.35,2-.49,3-.17,1.17-.29,2.36-.44,3.54-.08.61-.4,1.43,0,2a.12.12,0,0,0,.12,0,1.93,1.93,0,0,0,.64.31,18.53,18.53,0,0,0,3.26.67,18.33,18.33,0,0,0,3,.14,2.58,2.58,0,0,0,1.74-.51.13.13,0,0,0,0-.13A.79.79,0,0,0,64.07,61Z"/><path class="cls-31" d="M80.43,51.23h0c-.36-.47-.73-.93-1.09-1.39s-.68-1.27-1.23-1.39l-.14,0-.08,0c-.65,0-1.34.77-1.85,1.14A16.79,16.79,0,0,1,73.2,51a5.79,5.79,0,0,0-1.89.93.77.77,0,0,0,0,.84,5.16,5.16,0,0,0,.5,1.54c.1.28.21.57.32.85A13.78,13.78,0,0,0,73,57.53c.15.37.3,1,.73,1.21A1.39,1.39,0,0,0,75,58.52,21.21,21.21,0,0,0,77.31,57,39.6,39.6,0,0,0,81.13,54C82.1,53,81.15,52,80.43,51.23Z"/><path class="cls-27" d="M67.69,33.72c-.13-.82.13-1.67-.06-2.48a1.56,1.56,0,0,0-.25-.57.13.13,0,0,0-.05-.1l-.08-.07a4.15,4.15,0,0,0-.78-.58l-.23-.15-.11-.08h0a5.69,5.69,0,0,0-1-.49,4.93,4.93,0,0,0-2.31-.54c-1,.16-1.77,1.57-2.26,2.57-.44.62-.83,1.29-1.23,1.93s-.87,1.28-.46,1.91a4.08,4.08,0,0,0,.65.75,5.18,5.18,0,0,1,1,1.3c.59,1.06,1.17,2.12,1.74,3.18a.14.14,0,0,0,.22,0c.52.34,1,.08,1.64-.33s1.24-.8,1.84-1.22a16,16,0,0,0,1.34-.93A1.32,1.32,0,0,0,68,36.79,13.39,13.39,0,0,0,67.69,33.72Z"/><path class="cls-30" d="M85.32,40.45a40.42,40.42,0,0,1-4.16-4.09c-.74-.81-2.8-4-4.2-3-.61.22-.94.81-1.24,1.56a21.5,21.5,0,0,0-1.29,3.69,9.11,9.11,0,0,0-.37,1.52,3.75,3.75,0,0,0,.42,2.11C75.21,44,76,45.7,76.62,47.47a.17.17,0,0,0,0,.08c.21,1.47,2.41.11,3.06-.29a31.47,31.47,0,0,0,3.19-2.39,18.56,18.56,0,0,0,2.91-2.65.16.16,0,0,0,0-.09.92.92,0,0,0,.14-.33C86.13,41.2,85.75,40.81,85.32,40.45Z"/><path class="cls-32" d="M76.24,46.06c-1.12-1.79-1.28-4-2.79-5.53a10.77,10.77,0,0,0-2.36-1.7,7.65,7.65,0,0,0-2.77-1.27,3.49,3.49,0,0,0-2.33.92c-.84.59-1.67,1.19-2.49,1.82a2.14,2.14,0,0,0-1.34,1.82c-.13.81-.17,1.63-.34,2.44s-.44,1.62-.6,2.45c-.28,1.44-.44,2.9-.7,4.34-.2,1.1.84,1.15,1.64,1.27a.15.15,0,0,0,.16-.09,20.82,20.82,0,0,0,7.57-.33,12.62,12.62,0,0,0,3.35-1.28,18.16,18.16,0,0,0,2.94-1.58c.6,0,.77-.62.73-1.21A3.06,3.06,0,0,0,76.24,46.06Z"/><path class="cls-31" d="M71.93,27.48c-1.24-2.34-4.07-2.55-6.44-2.66a20.35,20.35,0,0,0-3.9-.09.08.08,0,0,0-.08-.09c-.75.08-.43.79-.16,1.22.51.8.53,2,1.4,2.57a5.52,5.52,0,0,0,1.51.56,16.56,16.56,0,0,1,2.35,1,1.76,1.76,0,0,0,2-.45,4.53,4.53,0,0,0,1.08-.82,6.38,6.38,0,0,1,2.06-1A.15.15,0,0,0,71.93,27.48Z"/><g class="cls-33"><path class="cls-34" d="M61,40.35c0-.06,0-.11,0-.17a16.81,16.81,0,0,0-2-3,4.66,4.66,0,0,0-1.28-1.23A24.91,24.91,0,0,0,55,35c-1.16-.47-2.08-.74-2.86.43-.38.56-.66,1.19-1,1.76a18.53,18.53,0,0,1-1.59,2c-1.2.85-.43,2.57.11,3.7a20.1,20.1,0,0,0,1.27,2.61,8.67,8.67,0,0,0,2,2.58c1.35,1.15,3.3,2.64,5.18,2.85l.07,0h.45a.12.12,0,0,0,.07,0,1.38,1.38,0,0,0,.92-.7A5.54,5.54,0,0,0,60,48.84c.2-.71.36-1.43.5-2.16.25-1.34.4-2.7.57-4A4.29,4.29,0,0,0,61,40.35Zm-.18,2.24c-.11,1-.26,2-.41,2.95a29.15,29.15,0,0,1-.64,3c-.25,1-.41,1.91-1.45,2.11-2-.23-3.75-1.56-5.24-2.77-1.67-1.35-2.55-3.43-3.48-5.33-.12-.34-.25-.67-.36-1A3,3,0,0,1,49,40.17a1.88,1.88,0,0,1,.5-.9,12.75,12.75,0,0,0,2.19-2.79,5.64,5.64,0,0,1,1-1.36c.69-.62,1.7-.06,2.43.2s1.38.3,2.06.52a3.42,3.42,0,0,1,1.74,1.56c.66,1.08,1.36,2.17,1.92,3.32A7.52,7.52,0,0,1,60.79,42.58Z"/><path class="cls-34" d="M59.87,40.47v-.15a14.9,14.9,0,0,0-1.74-2.68A4,4,0,0,0,57,36.57a21.07,21.07,0,0,0-2.29-.78c-1-.41-1.79-.65-2.45.38-.32.5-.56,1-.88,1.54A16.17,16.17,0,0,1,50,39.44c-1,.75-.37,2.25.09,3.25A17.89,17.89,0,0,0,51.22,45a7.58,7.58,0,0,0,1.72,2.27c1.16,1,2.83,2.32,4.44,2.5l.06,0h.39a.1.1,0,0,0,.06,0,1.18,1.18,0,0,0,.79-.61,4.94,4.94,0,0,0,.4-1.2c.17-.62.31-1.26.43-1.89.21-1.17.34-2.37.49-3.55A3.85,3.85,0,0,0,59.87,40.47Zm-.15,2c-.09.86-.22,1.73-.35,2.59a26,26,0,0,1-.55,2.62c-.22.84-.35,1.67-1.25,1.85a9.4,9.4,0,0,1-4.49-2.43c-1.44-1.19-2.18-3-3-4.68-.11-.29-.21-.59-.31-.89a2.72,2.72,0,0,1-.15-1.18,1.66,1.66,0,0,1,.43-.79A11.18,11.18,0,0,0,52,37.08a4.92,4.92,0,0,1,.83-1.19c.59-.54,1.46-.05,2.08.17s1.18.27,1.77.46a2.94,2.94,0,0,1,1.49,1.37c.57.95,1.17,1.91,1.64,2.91A6.75,6.75,0,0,1,59.72,42.44Z"/><path class="cls-34" d="M59,40.53s0-.09,0-.13a12.86,12.86,0,0,0-1.49-2.3,3.45,3.45,0,0,0-.94-.93,18,18,0,0,0-2-.67c-.85-.36-1.53-.56-2.1.32-.28.43-.48.9-.76,1.33a13.71,13.71,0,0,1-1.17,1.49c-.88.65-.32,1.94.08,2.8a15.49,15.49,0,0,0,.94,2,6.53,6.53,0,0,0,1.47,2,8,8,0,0,0,3.81,2.15l0,0h.33l.05,0a1,1,0,0,0,.67-.53,4.24,4.24,0,0,0,.34-1c.15-.54.27-1.08.37-1.63.18-1,.29-2,.42-3.06A3.32,3.32,0,0,0,59,40.53Zm-.13,1.69c-.08.74-.19,1.49-.3,2.23a22.33,22.33,0,0,1-.47,2.25c-.18.72-.3,1.44-1.07,1.6a8,8,0,0,1-3.85-2.09,11.22,11.22,0,0,1-2.56-4c-.09-.25-.18-.51-.26-.76a2.34,2.34,0,0,1-.13-1,1.42,1.42,0,0,1,.37-.68,9.6,9.6,0,0,0,1.61-2.11,4.23,4.23,0,0,1,.71-1c.51-.47,1.25,0,1.78.15s1,.23,1.51.39a2.54,2.54,0,0,1,1.28,1.18c.49.82,1,1.64,1.41,2.51A5.94,5.94,0,0,1,58.83,42.22Z"/><path class="cls-34" d="M58.2,40.6v-.11a11.11,11.11,0,0,0-1.25-2,3,3,0,0,0-.79-.81,14.89,14.89,0,0,0-1.64-.58c-.71-.31-1.28-.49-1.76.28-.23.37-.41.78-.63,1.15a12,12,0,0,1-1,1.29c-.74.56-.27,1.69.06,2.44A13.92,13.92,0,0,0,52,44a5.68,5.68,0,0,0,1.23,1.7,6.63,6.63,0,0,0,3.19,1.87l0,0h.28l0,0a.85.85,0,0,0,.56-.46,3.84,3.84,0,0,0,.29-.9c.12-.47.22-.94.31-1.42.15-.88.24-1.78.35-2.66A3,3,0,0,0,58.2,40.6Zm-.11,1.47c-.07.65-.16,1.3-.25,1.94s-.23,1.31-.39,2-.25,1.25-.89,1.39a6.67,6.67,0,0,1-3.22-1.82A9.84,9.84,0,0,1,51.2,42c-.08-.22-.15-.44-.22-.66a2.11,2.11,0,0,1-.11-.88,1.25,1.25,0,0,1,.31-.59,8.33,8.33,0,0,0,1.34-1.84,3.67,3.67,0,0,1,.6-.89c.43-.41,1,0,1.49.13s.85.2,1.26.34a2.15,2.15,0,0,1,1.07,1c.41.71.84,1.43,1.18,2.18A5.3,5.3,0,0,1,58.09,42.07Z"/></g><path class="cls-35" d="M73.42,46c-.12-.54-.28-1.08-.4-1.62a7.12,7.12,0,0,0-.55-1.65,4,4,0,0,0-2-1.65L69,40.35A2.48,2.48,0,0,0,67.71,40a2.76,2.76,0,0,0-1.21.51,11.24,11.24,0,0,0-1.06.79l-.25.17c-.35.23-.63.53-1,.74a1.62,1.62,0,0,0-.7,1,8.33,8.33,0,0,0-.5,2.32q-.21,1.72-.43,3.43c-.1.76.08,1.39.92,1.52a5.11,5.11,0,0,0,1.27-.05c.63-.06,1.25-.18,1.87-.29A34.3,34.3,0,0,0,70,49.33a10.42,10.42,0,0,0,2.95-1.14C73.73,47.65,73.6,46.8,73.42,46Zm0,1.15c0,.67-.64,1-1.18,1.26a19.93,19.93,0,0,1-3.26,1c-1.19.3-2.41.53-3.63.7a13.4,13.4,0,0,1-1.5.14A1.29,1.29,0,0,1,63,50a.92.92,0,0,1-.29-.81,12.49,12.49,0,0,1,.15-1.6c.06-.56.13-1.13.21-1.69s.18-1.13.3-1.7h0a3.55,3.55,0,0,1,.25-.95,2.09,2.09,0,0,1,.21-.47,1.46,1.46,0,0,1,.46-.43l0,0a7.35,7.35,0,0,1,.89-.66c.18-.16.37-.32.57-.48a7.65,7.65,0,0,1,1.39-.92,2,2,0,0,1,1.81.16,10.57,10.57,0,0,1,2.87,1.62c.83.81,1,2.14,1.25,3.21A6,6,0,0,1,73.38,47.11Z"/><path class="cls-35" d="M75.21,47.58h0a.09.09,0,0,0,0,0,1.1,1.1,0,0,0-.06-.2,26.52,26.52,0,0,0-1.61-4.7,4.86,4.86,0,0,0-1.28-1.68A10.45,10.45,0,0,0,70,39.81a8.91,8.91,0,0,0-2.13-1c-.75-.13-1.41.48-1.94.91s-1.33,1.07-2,1.62a3.38,3.38,0,0,0-.78.88l0,.07h0a9.87,9.87,0,0,0-.72,2.83c-.35,1.5-.57,3-.89,4.53a1.66,1.66,0,0,0,.3,1.4,1.73,1.73,0,0,0,1.33.49,16.78,16.78,0,0,0,2.2-.05,9.39,9.39,0,0,0,1.18-.21l.38,0c.51-.08,1-.21,1.53-.3a26.85,26.85,0,0,0,3.2-.68A12.89,12.89,0,0,0,74.53,49a1.43,1.43,0,0,0,.74-.79A1.63,1.63,0,0,0,75.21,47.58Zm-.52,1a6.3,6.3,0,0,1-1.16.65,15.38,15.38,0,0,1-2.57,1c-1,.28-2,.41-2.94.62l-.4.1a10.23,10.23,0,0,0-1.72.29l-.21,0-.34,0,0,0a13.32,13.32,0,0,1-1.37.06A2.89,2.89,0,0,1,62.06,51c-.53-.43-.37-1.24-.27-1.82.21-1.3.44-2.6.74-3.89.15-.62.31-1.22.41-1.85A3.49,3.49,0,0,1,63.49,42a4.81,4.81,0,0,1,.76-.71c.61-.47,1.21-.93,1.8-1.42s1.33-1.06,2.24-.75c.71.24,1.35.68,2,1a7.32,7.32,0,0,1,2,1.1,5.05,5.05,0,0,1,1.24,1.94A30.92,30.92,0,0,1,74.8,47a.08.08,0,0,0,0,.08l.05.12.12.45h0l0,.17A.75.75,0,0,1,74.69,48.57Z"/><path class="cls-35" d="M72.69,47a3,3,0,0,0-.16-1c-.14-.42-.19-.9-.3-1.33a3.2,3.2,0,0,0-.83-1.91c-.29-.22-.64-.36-.93-.56s-.69-.5-1-.74a3,3,0,0,0-.92-.45,1,1,0,0,0-.36-.06.06.06,0,0,0-.07,0c-.69.09-1.1.65-1.61,1.07a8.82,8.82,0,0,1-1,.72,4.28,4.28,0,0,0-.91.55,2.75,2.75,0,0,0-.63,1.62c0,.19,0,.38,0,.57s-.1.57-.13.85a9,9,0,0,0-.12.94,8,8,0,0,0-.16,1.34c0,1.48,1.79.9,2.7.81A17.24,17.24,0,0,0,68.27,49c.78-.18,1.53-.42,2.31-.58s2-.5,2.07-1.41A.08.08,0,0,0,72.69,47Zm-.47.53a1.88,1.88,0,0,1-.7.43,9.17,9.17,0,0,1-1.67.42c-.56.12-1.1.33-1.65.49a12.14,12.14,0,0,1-1.88.32c-.57.06-1.13.21-1.7.22a.8.8,0,0,1-.92-.64,3,3,0,0,1,.08-1c.09-.55.11-1.09.15-1.64a5.09,5.09,0,0,0,.15-.83,3.21,3.21,0,0,1,.56-1.88,2.89,2.89,0,0,1,.83-.52,10.61,10.61,0,0,0,.88-.61c.29-.22.57-.46.84-.71a2.53,2.53,0,0,1,.73-.43,1.29,1.29,0,0,1,.64.09,3.38,3.38,0,0,1,.91.52c.58.43,1.23.71,1.82,1.11a1.41,1.41,0,0,1,.48.91c.09.37.19.73.27,1.09.14.59.27,1.19.41,1.78a.08.08,0,0,0,0,.06A1.05,1.05,0,0,1,72.22,47.48Z"/><path class="cls-35" d="M71.54,46.4a18.88,18.88,0,0,1-.4-2,2,2,0,0,0-.47-1.19,4.86,4.86,0,0,0-1.42-.82c-.42-.19-1-.56-1.49-.39a4.78,4.78,0,0,0-1.37,1,7,7,0,0,0-1.26,1.08,2.85,2.85,0,0,0-.42,1.52s0,0,0,0c-.08.52-.07,1-.13,1.57a1.61,1.61,0,0,0,.09,1c.34.65,1.6.26,2.12.13,1.1-.27,2.2-.61,3.31-.84.43-.09,1.35-.42,1.4-1A.12.12,0,0,0,71.54,46.4Zm-2.29,1.06c-.75.22-1.51.41-2.27.6-.55.13-1.95.64-2.23-.15a3.29,3.29,0,0,1,0-1.14c0-.06,0-.12,0-.18l.06-.42a6.47,6.47,0,0,1,.3-1.68,3,3,0,0,1,1-1.17c.41-.31.8-.66,1.22-1,.62-.44,1.21-.08,1.8.2a4.09,4.09,0,0,1,1.42.86A2.77,2.77,0,0,1,71,44.94a8.52,8.52,0,0,0,.27,1.24.07.07,0,0,0,0,0C71.33,47.16,69.91,47.27,69.25,47.46Z"/><path class="cls-35" d="M70.41,46.35c0-.44-.09-.88-.15-1.33a2.75,2.75,0,0,0-.18-1,1.51,1.51,0,0,0-.76-.6A2.76,2.76,0,0,0,68.26,43a1.45,1.45,0,0,0-.92.34,4.42,4.42,0,0,0-.39.4c-.2.2-.45.36-.67.54a.82.82,0,0,0-.37.62l0,.22c0,.06,0,.12,0,.17a1.66,1.66,0,0,0,0,.58v0a0,0,0,0,0,0,0v0c0,.34,0,.69,0,1,0,.58.63.65,1.06.55s.79-.09,1.17-.19.86-.18,1.28-.31.91-.24,1-.59A.09.09,0,0,0,70.41,46.35Zm-1,.43a6.47,6.47,0,0,1-.79.21c-.28,0-.55.14-.83.2s-.47,0-.7.07-.7.23-1,0S66,46.74,66,46.5s0-.76,0-1.13l0-.27c0-.1,0-.19,0-.29,0-.27.23-.33.42-.48a7.46,7.46,0,0,0,.63-.48,1.84,1.84,0,0,1,1.06-.66,1.89,1.89,0,0,1,1,.35c.42.22.77.36.88.88A13,13,0,0,1,70.19,46a.08.08,0,0,0,0,.08C70.18,46.56,69.8,46.69,69.45,46.78Z"/><path class="cls-35" d="M69.39,45.1a3.62,3.62,0,0,0-.12-.74,1,1,0,0,0-.88-.6c-.46,0-.73.46-1,.78a1.13,1.13,0,0,0-.28.44,3.76,3.76,0,0,0,0,1.38c.05.93,1.32.3,1.78.19a.8.8,0,0,0,.65-.65A2.47,2.47,0,0,0,69.39,45.1Zm-.89,1.34c-.22,0-.43.16-.64.22-.57.17-.65-.29-.64-.72a2.67,2.67,0,0,1,.1-1.09.8.8,0,0,1,.1-.16h0a3.5,3.5,0,0,0,.45-.41l.23-.2h0c.47-.31,1,.24,1,.69,0,.3.08.58.13.88C69.39,46.2,68.93,46.35,68.5,46.44Z"/><path class="cls-35" d="M68.88,45.26a1.7,1.7,0,0,1-.07-.37.45.45,0,0,0-.06-.23c-.16-.21-.31-.07-.41.11A1.12,1.12,0,0,0,68.09,46a.49.49,0,0,0,.79-.07A1.29,1.29,0,0,0,68.88,45.26Zm-.41.7c-.27,0-.3-.25-.29-.44a1.07,1.07,0,0,1,.07-.37.05.05,0,0,0,.06,0c.08-.12.3-.62.35-.22a6.7,6.7,0,0,1,.11.73C68.77,45.87,68.68,45.92,68.47,46Z"/><path class="cls-35" d="M56.92,40.81a18.27,18.27,0,0,1-1-1.53,4.64,4.64,0,0,0-.41-.74c-.18-.45-.9-.65-1.3-.76-.62-.17-.76.22-1,.77-.12.24-.24.49-.37.72-.27.5-.66.91-1,1.39a1.21,1.21,0,0,0,0,1.25c.09.18.22.35.32.53a5.71,5.71,0,0,1,.36.91,4.94,4.94,0,0,0,1.52,2.33c.47.37,1.48,1,2,.6a1.12,1.12,0,0,0,.48-.65c.19-.58.28-1.19.44-1.77A3.77,3.77,0,0,0,56.92,40.81Zm0,2.88c-.11.45-.23.89-.33,1.34a4,4,0,0,1-.21.71,1.15,1.15,0,0,1-.44.44c-.42.14-1-.21-1.34-.38a3,3,0,0,1-1-.84,7.75,7.75,0,0,1-1-2.28c-.14-.37-.39-.69-.53-1.06-.21-.57.22-1.06.55-1.47a6.34,6.34,0,0,0,.89-1.7.68.68,0,0,0,.12-.23c.18-.23.47-.2.73-.16l.31.08a2.8,2.8,0,0,1,.77.54l.1.14c.23.36.38.76.62,1.12s.52.7.75,1.07A3.52,3.52,0,0,1,56.92,43.69Z"/><path class="cls-35" d="M55.49,39.82a3,3,0,0,0-.69-.89,1,1,0,0,0-.75-.29c-.27.06-.36.26-.42.51s-.08.41-.14.61-.31.52-.48.78a1.35,1.35,0,0,0-.24.85,2.7,2.7,0,0,0,.37,1.05c.23.46.45.93.65,1.4s.61,1.38,1.28,1.48c.49.07.79-.53.93-.9a4.32,4.32,0,0,0,.2-1c0-.4.11-.82.13-1.22A4.74,4.74,0,0,0,55.49,39.82Zm.67,2.45a8,8,0,0,1-.29,2c-.17.51-.58,1.12-1.16.68a2.25,2.25,0,0,1-.53-.74c-.2-.36-.37-.72-.54-1.09a4.51,4.51,0,0,1-.74-2,1.29,1.29,0,0,1,.25-.63,0,0,0,0,0,0,0,2.62,2.62,0,0,0,.41-.63c.13-.28.13-.6.26-.89.2-.45.82.06,1,.24a3.36,3.36,0,0,1,.63,1A4,4,0,0,1,56.16,42.27Z"/><path class="cls-35" d="M55.46,41.39a3.87,3.87,0,0,0-.59-1.44c-.17-.2-.55-.38-.76-.13a.86.86,0,0,0-.16.52,1.52,1.52,0,0,1,0,.23,2.18,2.18,0,0,0-.3,1,2.85,2.85,0,0,0,.76,1.4c.19.25.26.83.67.82a.69.69,0,0,0,.61-.72A5.58,5.58,0,0,0,55.46,41.39Zm0,1.9a.37.37,0,0,1-.72,0,3.54,3.54,0,0,0-.51-.79,1.75,1.75,0,0,1-.44-1.12s0,0,0-.07a0,0,0,0,0,0,0,5.46,5.46,0,0,0,.3-.78l0-.23q0-.34.5-.26a1.06,1.06,0,0,1,.31.47c.11.27.18.57.28.85a5.82,5.82,0,0,1,.21,1.28A1.58,1.58,0,0,1,55.43,43.29Z"/><path class="cls-35" d="M67,33.49c0-.49-.1-1-.17-1.47A2.33,2.33,0,0,0,66.43,31a2.65,2.65,0,0,0-.83-.67c-.42-.25-.85-.49-1.28-.7a2.33,2.33,0,0,0-1.14-.28c-.39,0-.65.43-.89.68h0a7.5,7.5,0,0,0-1.05,1.32c-.22.36-.41.74-.63,1.1s-.44.68-.62,1a1.81,1.81,0,0,0,.13,1.81,9.24,9.24,0,0,0,.76,1,4.25,4.25,0,0,1,.66,1.19,4.44,4.44,0,0,0,.86,1.72,1.09,1.09,0,0,0,1.53,0,21.11,21.11,0,0,1,2-1.44,2.82,2.82,0,0,0,.9-.73,1.08,1.08,0,0,0,.18-.47.07.07,0,0,0,.06-.07A18.88,18.88,0,0,0,67,33.49ZM66.84,36a1.54,1.54,0,0,1-.32,1,3.67,3.67,0,0,1-1,.65,12,12,0,0,0-1.68,1.23c-1.52,1.28-1.92-1.22-2.43-2.12-.31-.55-.76-1-1.12-1.52A1.83,1.83,0,0,1,60,34.1a2.43,2.43,0,0,1,.41-1c.36-.61.72-1.23,1.07-1.85a7.65,7.65,0,0,1,1.12-1.43,1.17,1.17,0,0,1,.82-.32,3.16,3.16,0,0,1,1.17.45c.69.38,1.54.72,1.89,1.48a3.43,3.43,0,0,1,.22,1.22c0,.42.12.83.14,1.25,0,.68,0,1.35.05,2A.08.08,0,0,0,66.84,36Z"/><path class="cls-35" d="M66.19,34.21c0-.26-.09-.52-.12-.77s0-.32,0-.47a5.39,5.39,0,0,0-.07-.68c.1-1.3-1.26-2.14-2.43-2.23-.67-.05-1,.34-1.32.86a13.8,13.8,0,0,0-1,1.52,3.51,3.51,0,0,0-.21.3,2.24,2.24,0,0,0-.25,1.87,9.77,9.77,0,0,0,1.11,2c.31.55.62,1.34,1.26,1.57s1.09-.3,1.49-.57a5.08,5.08,0,0,0,1.59-1.38A3.18,3.18,0,0,0,66.19,34.21Zm-.08,1.54c-.08.68-.81,1.1-1.31,1.46s-1.26,1.07-1.88.65a2.33,2.33,0,0,1-.55-.76l-.49-.84a8,8,0,0,1-1-1.86,2.29,2.29,0,0,1,.5-2c.24-.35.48-.7.69-1.06s.57-1,1.15-1.12A2.85,2.85,0,0,1,65,30.8,1.88,1.88,0,0,1,65.76,32c0,.36.09.72.13,1.08v.12a5.84,5.84,0,0,0,.07.68A8.12,8.12,0,0,1,66.11,35.74Z"/><path class="cls-35" d="M65.47,35c0-.78-.18-1.54-.17-2.32a1.3,1.3,0,0,0-.67-1.34c-.33-.2-1.14-.7-1.53-.39a4.45,4.45,0,0,0-.91,1.21l-.21.33a4.6,4.6,0,0,0-.61,1.18c-.1.4.22.8.43,1.1s.57.89.82,1.35a1.79,1.79,0,0,0,.77.86,1,1,0,0,0,.89-.25,2.58,2.58,0,0,0,1.14-1.64A.09.09,0,0,0,65.47,35Zm-1.23,1.48c-.36.32-.76.44-1.11,0a6,6,0,0,1-.6-1c-.36-.64-1.19-1.37-.85-2.14a11.59,11.59,0,0,1,.84-1.51,5.88,5.88,0,0,1,.51-.6c.33-.33.61-.17,1,0a4.53,4.53,0,0,1,.74.39c.51.34.35,1,.37,1.55s.11,1.09.16,1.63a2,2,0,0,1-.33,1A4.33,4.33,0,0,1,64.24,36.48Z"/><path class="cls-35" d="M64.71,33.72c-.1-.4-.11-.8-.18-1.2a1,1,0,0,0-.86-.8c-.4,0-.65.4-.82.69a.06.06,0,0,0,0,.07c-.17.25-.32.51-.47.78a1.22,1.22,0,0,0-.05,1.28c.14.24.3.46.45.69a3.09,3.09,0,0,0,.46.73.75.75,0,0,0,1-.16,1.74,1.74,0,0,0,.55-1.25A3,3,0,0,0,64.71,33.72Zm-.67,2a.49.49,0,0,1-.78-.07c-.09-.14-.17-.28-.25-.42a9,9,0,0,1-.6-1c-.18-.44.11-.85.3-1.22.11-.22.22-.43.34-.63s.45-.56.87-.38.41.92.49,1.37a6,6,0,0,1,.2,1.18A1.51,1.51,0,0,1,64,35.7Z"/><path class="cls-35" d="M64.27,33.88a2.05,2.05,0,0,0-.28-.8c-.11-.12-.29-.22-.42-.06a1.07,1.07,0,0,0-.14.39,2,2,0,0,0-.26.49c-.09.31,0,.45.17.71.27.43.71.73.95.1A1.49,1.49,0,0,0,64.27,33.88Zm-.59.89A1.2,1.2,0,0,1,63.3,34a1,1,0,0,1,0-.11,1.43,1.43,0,0,0,.12-.19c0-.07.29-.83.48-.36a3.8,3.8,0,0,1,.23,1C64.18,34.58,64,35.07,63.68,34.77Z"/><path class="cls-35" d="M76.06,32.44s0,0,0,0h0a1.75,1.75,0,0,0-.45-.89c-.5-.6-.93-1.25-1.42-1.85a5.26,5.26,0,0,0-.7-.72,2.13,2.13,0,0,0-.78-.53,1.6,1.6,0,0,0-1.5.37A15,15,0,0,0,69.1,30a2,2,0,0,0-.86,2c.07.52.19,1,.27,1.54a13.15,13.15,0,0,1,.06,1.71,2.86,2.86,0,0,0,.26,1.31,2.23,2.23,0,0,0,.85.8c.37.23.75.43,1.13.64s.89.54,1.35.78a1.23,1.23,0,0,0,1,.13c.34-.14.49-.56.59-.88a18.65,18.65,0,0,1,1-2.88,22,22,0,0,0,1.05-2.06A1.36,1.36,0,0,0,76.06,32.44Zm-1.27,2.29a12.1,12.1,0,0,0-.92,2.22c-.13.42-.23.85-.38,1.26a.87.87,0,0,1-.48.55c-.26.11-.65-.09-.88-.21-.76-.39-1.5-.85-2.24-1.28a2.5,2.5,0,0,1-.89-.78,2.92,2.92,0,0,1-.25-1.5,18.72,18.72,0,0,0-.25-2.7A2.22,2.22,0,0,1,68.56,31a2.46,2.46,0,0,1,.82-.9c.66-.5,1.39-.87,2.08-1.32a1.36,1.36,0,0,1,1.4,0A6.36,6.36,0,0,1,74.15,30c.36.45.67.95,1,1.4a3.53,3.53,0,0,1,.54.77.85.85,0,0,1,.08.36A11.91,11.91,0,0,1,74.79,34.73Z"/><path class="cls-35" d="M74.33,31c-.42-.75-1.07-1.77-2-2a.91.91,0,0,0-.55,0h0a6.87,6.87,0,0,0-2.47,1.62c-.71.8-.5,1.78-.37,2.75s0,2.15.67,3a5.13,5.13,0,0,0,1.06.93,4.64,4.64,0,0,0,1.31.73c.89.28,1.32-.54,1.6-1.24.4-1,.69-2.14,1-3.2A3.2,3.2,0,0,0,74.33,31Zm.25,2a15.73,15.73,0,0,1-.8,2.81c-.24.76-.55,2.32-1.61,2.18a3.3,3.3,0,0,1-1.26-.63,6,6,0,0,1-1.06-.89c-.68-.75-.58-1.92-.68-2.86,0-.44-.12-.88-.15-1.32a2,2,0,0,1,.55-1.49,4.47,4.47,0,0,1,.93-.77l.19-.07a1.26,1.26,0,0,0,.37-.17,0,0,0,0,0,0,0c.42-.31.88-.65,1.42-.44a2.78,2.78,0,0,1,1.06,1A3.88,3.88,0,0,1,74.58,33Z"/><path class="cls-35" d="M73.77,32.23c-.16-.73-.23-1.79-1-2.11a1.87,1.87,0,0,0-1.6.35,2.51,2.51,0,0,0-1.22.91c-.47.78-.11,1.78,0,2.62a10.74,10.74,0,0,0,.15,1.36,2.39,2.39,0,0,0,.59,1c.4.43,1.12,1.21,1.74.77a2.11,2.11,0,0,0,.56-1c.18-.45.36-.91.56-1.35A3.94,3.94,0,0,0,73.77,32.23Zm-.39,2.52a13.28,13.28,0,0,1-.93,2.1c-.51.77-1.63-.51-1.94-.94a4.83,4.83,0,0,1-.46-2.17,3.71,3.71,0,0,1,0-2.19,1.63,1.63,0,0,1,.55-.6.07.07,0,0,0,.08,0c.61-.33,1.39-.89,2.11-.59.36.15.51.63.6,1s.19.72.28,1.09A3.53,3.53,0,0,1,73.38,34.75Z"/><path class="cls-35" d="M72.84,32.16c-.12-.39-.25-.9-.68-1a.92.92,0,0,0-1,.44c-.24.17-.48.38-.49.63a4.84,4.84,0,0,0,.18,1A7.06,7.06,0,0,1,71,34.26a2.5,2.5,0,0,0,.64,1.63c.25.29.6.35.81,0A6.84,6.84,0,0,0,73,34,3.58,3.58,0,0,0,72.84,32.16Zm-.39,3.23c-.08.2-.28.78-.63.44a2.65,2.65,0,0,1-.39-.53,2.92,2.92,0,0,1-.31-1.45,5.65,5.65,0,0,0-.23-1.22.81.81,0,0,1,.25-.87h0c.28-.25.71-.64,1.09-.34s.36.76.45,1.07A4.49,4.49,0,0,1,72.45,35.39Z"/><path class="cls-35" d="M72.42,33.83a5.82,5.82,0,0,0-.15-1.31c0-.17-.28-.51-.51-.41a.59.59,0,0,0-.31.54.63.63,0,0,0,0,.16,6.94,6.94,0,0,0,.25,1.28c0,.19,0,.6.19.75a.24.24,0,0,0,.4-.08A1.5,1.5,0,0,0,72.42,33.83Zm-.28.84c-.18.27-.26-.44-.28-.5s-.09-.38-.13-.57a2.59,2.59,0,0,1-.14-.92,1.52,1.52,0,0,1,.1-.25c.29,0,.44.11.44.36l.07.38A2.36,2.36,0,0,1,72.15,34.68Z"/><path class="cls-35" d="M84.22,40.49a5.36,5.36,0,0,0-1.57-1.85,19.2,19.2,0,0,1-2.09-2.09,8.54,8.54,0,0,0-1.86-1.85,1.39,1.39,0,0,0-1.63-.12c-.68.46-.83,1.58-1.09,2.31s-.45,1.2-.63,1.82c-.1.35-.16.72-.24,1.08a4,4,0,0,0-.18.89,4.37,4.37,0,0,0,.61,1.78,18.3,18.3,0,0,1,.84,2,11.68,11.68,0,0,0,.69,1.73,1.05,1.05,0,0,0,.87.64,1.7,1.7,0,0,0,1.56-.24,6.86,6.86,0,0,0,.84-.78c.36-.37.73-.72,1.11-1.07a25,25,0,0,0,2.07-2.06C84,42,84.55,41.34,84.22,40.49Zm-1.05,2.24a23,23,0,0,1-1.69,1.66c-.6.56-1.16,1.16-1.77,1.69s-1.81.94-2.36.17a3.79,3.79,0,0,1-.37-.76c-.2-.48-.36-1-.53-1.47a13.69,13.69,0,0,0-.65-1.51,5.51,5.51,0,0,1-.65-1.72,2.39,2.39,0,0,1,.15-.84c.07-.26.12-.53.17-.79A14.9,14.9,0,0,1,76,37.37c.18-.49.35-1,.49-1.48a2.47,2.47,0,0,1,.36-.89,1.35,1.35,0,0,1,.48-.39,2.19,2.19,0,0,1,1.8.7,13.39,13.39,0,0,1,1.6,1.76c1,1.17,2.36,2,3.18,3.3C84.48,41.26,83.73,42.09,83.17,42.73Z"/><path class="cls-35" d="M83.07,40.89A1.22,1.22,0,0,0,83,40.6a4.5,4.5,0,0,0-.73-1.18c-.28-.38-.51-.77-.82-1.13s-.61-.73-.94-1.08-.75-.7-1.09-1.08a4.68,4.68,0,0,0-.8-.88c-.72-.47-1.17.41-1.47.88a0,0,0,0,0,0,0,5.89,5.89,0,0,0-.61,1.34c-.14.44-.23.88-.39,1.31a4.69,4.69,0,0,0-.3,1.08,3.24,3.24,0,0,0,.71,1.83,22.34,22.34,0,0,1,1.08,2.48c.19.46.53,1.23,1.1,1.32s1.17-.48,1.6-.91c1.1-1.11,2.49-2,2.77-3.62A.08.08,0,0,0,83.07,40.89Zm-1,1.78a16.36,16.36,0,0,1-1.49,1.42c-.46.44-1.14,1.48-1.9,1.2s-.9-1.22-1.1-1.78a13.23,13.23,0,0,0-.79-1.78,3.16,3.16,0,0,1-.71-2.08,8.25,8.25,0,0,1,.29-.92c.11-.35.19-.72.27-1.08A6.16,6.16,0,0,1,77.37,36a2.45,2.45,0,0,1,.48-.54c.51-.35.92.14,1.21.51a19.65,19.65,0,0,0,1.44,1.49A11.81,11.81,0,0,1,82,39.32c.19.3.41.59.6.89a2,2,0,0,1,.29.66.59.59,0,0,1,0,.22c-.08.21-.14.42-.22.62A3.73,3.73,0,0,1,82.07,42.67Z"/><path class="cls-35" d="M81.53,39.1c-.59-.72-1.19-1.41-1.75-2.16a2.79,2.79,0,0,0-.81-.77.81.81,0,0,0-.63-.06,2.89,2.89,0,0,0-.29.18l-.06.09h0a10.68,10.68,0,0,0-1,2.22A3.32,3.32,0,0,0,76.89,40a3.6,3.6,0,0,0,.57,1.32c.26.44.51.89.75,1.34a3.67,3.67,0,0,0,.72,1c.6.55,1.49-.06,2-.5a4.1,4.1,0,0,0,1.43-2.1A2.61,2.61,0,0,0,81.53,39.1Zm-.62,3.77a3.58,3.58,0,0,1-1,.73c-.56.26-.94,0-1.25-.47-.47-.67-.81-1.47-1.22-2.18a3.06,3.06,0,0,1-.17-2.7,16.48,16.48,0,0,1,.85-1.92.94.94,0,0,1,1,.19,5.32,5.32,0,0,1,.77,1c.4.55.85,1.06,1.29,1.57a3.16,3.16,0,0,1,.9,1.7C82.21,41.58,81.47,42.35,80.92,42.87Z"/><path class="cls-35" d="M81.41,40.65c0-.69-.62-1.17-1-1.66a5.94,5.94,0,0,1-.66-1.07,5.79,5.79,0,0,0-.4-.84A.41.41,0,0,0,78.7,37a.55.55,0,0,0-.26.37,11.63,11.63,0,0,1-.28,1.42,3.62,3.62,0,0,0-.32,1,1.74,1.74,0,0,0,.42,1A8.48,8.48,0,0,1,79,42a1.77,1.77,0,0,0,.62.74c.4.26.81-.23,1.08-.62A2.26,2.26,0,0,0,81.41,40.65ZM80.36,42.3a1.16,1.16,0,0,1-.38.31c-.24.12-.53-.25-.64-.39a5.59,5.59,0,0,1-.42-.79,6.78,6.78,0,0,0-.53-.77,1.2,1.2,0,0,1-.35-1c.09-.26.18-.51.26-.76a4.24,4.24,0,0,0,.2-.92,1.45,1.45,0,0,1,.16-.72c.52-.44.83.51,1,.89a6.83,6.83,0,0,0,.77,1.17,2.48,2.48,0,0,1,.77,1.41,2,2,0,0,1-.4,1.07Z"/><path class="cls-35" d="M79.63,38.52c0-.08-.2-.48-.37-.32a.9.9,0,0,0-.19.66,4.72,4.72,0,0,0-.16.78,1.84,1.84,0,0,0,.54,1.18c.11.16.32.78.57.8s.48-.4.57-.7C80.88,40,80,39.22,79.63,38.52Zm.85,2.23a2.12,2.12,0,0,1-.12.44c0,.2-.17.26-.38.19a1.62,1.62,0,0,1-.14-.23,6.3,6.3,0,0,0-.46-.73,1.47,1.47,0,0,1-.27-1.12s0,0,0-.07l0,0a1.71,1.71,0,0,0,.15-.67c0-.28.3.29.34.37C80,39.48,80.53,40,80.47,40.75Z"/><path class="cls-35" d="M70.5,26.21s0,0,0,0c.15.18.37.32.35.6s-.31.4-.51.49c-.38.18-.8.25-1.16.46a7.36,7.36,0,0,0-1.21.94,4.27,4.27,0,0,1-.6.46c-.35.22-.65.06-1-.12a24.4,24.4,0,0,0-2.61-1.24,2.15,2.15,0,0,1-.92-1.24,5.58,5.58,0,0,0-.31-.6c-.21-.36-.62-.8-.16-1.18,0,0,0-.07,0-.06-.43.21-.34.6-.15,1a9.45,9.45,0,0,1,.5,1,2.92,2.92,0,0,0,.44.8c.36.46.92.52,1.43.74a14.8,14.8,0,0,1,1.94,1c.5.31.92.06,1.34-.26a7.16,7.16,0,0,1,1.85-1.26c.4-.14,1-.27,1.23-.66S70.88,26.39,70.5,26.21Z"/><path class="cls-35" d="M69.42,25.68a0,0,0,0,0,0,.08c.2.12.57.32.28.55a3.05,3.05,0,0,1-.59.29,4.2,4.2,0,0,0-.81.63c-.29.25-.57.5-.88.72a1.21,1.21,0,0,1-1.52,0c-.61-.38-1.48-.45-2-1a1.28,1.28,0,0,1-.17-.59,2,2,0,0,0-.17-.51,4.52,4.52,0,0,0-.24-.45c-.17-.29,0-.41.26-.44,0,0,.05-.07,0-.08s-.5,0-.54.2a.7.7,0,0,0,.13.43,3.47,3.47,0,0,1,.4,1.1c.18,1,1.61,1.19,2.38,1.62,1,.58,1.92-.52,2.69-1.09.42-.31,1-.41,1.32-.78S69.64,25.75,69.42,25.68Z"/><path class="cls-35" d="M68.52,25.28s-.07,0,0,0c.49.61-.4.94-.8,1.19-.23.14-.44.3-.65.46a.84.84,0,0,1-1,0c-.38-.2-.89-.21-1.22-.47s-.23-.48-.3-.7-.46-.8,0-.77a0,0,0,0,0,0-.05c-.69-.18-.24.68-.17,1a1.09,1.09,0,0,0,.42.78c.36.21.79.23,1.17.42a1.06,1.06,0,0,0,1,.08c.39-.17.72-.49,1.1-.7S69.15,25.78,68.52,25.28Z"/><path class="cls-35" d="M67.53,25.25a0,0,0,0,0,0,.08c.06,0,.59.18.35.38a2.1,2.1,0,0,1-.46.24,2.71,2.71,0,0,1-.78.3c-.34,0-.65-.29-.91-.49s-.66-.42-.43-.66c0,0,0-.05,0,0-.35.2-.15.42.09.61.42.34.7.83,1.3.81a1.52,1.52,0,0,0,.62-.22,2.62,2.62,0,0,0,.77-.5C68.3,25.48,67.71,25.26,67.53,25.25Z"/><path class="cls-35" d="M55.67,26.75a7.91,7.91,0,0,0-.53-.94,2.26,2.26,0,0,0-.63-.74s-.07,0,0,.07a4.65,4.65,0,0,1,.85,1.19,5.24,5.24,0,0,1,.39.84c0,.12.3,1-.2.63a3.81,3.81,0,0,1-.78-1.14,4.08,4.08,0,0,1-.63-1.51s0,0,0,0a3.94,3.94,0,0,0,.7,1.93c.18.36.55,1.16,1.06,1S55.76,26.93,55.67,26.75Z"/><path class="cls-35" d="M57,27.43a6,6,0,0,0-1.83-2.37s-.11,0-.07.06c.25.28.55.52.8.81a5.52,5.52,0,0,1,.61.92,1.93,1.93,0,0,1,.27,1.36c-.05.37-.23,1.18-.75,1.15-.36,0-.67-.53-.86-.79s-.48-.76-.74-1.13a8.46,8.46,0,0,1-1.14-2.29s-.06,0,0,0A10.2,10.2,0,0,0,54.55,28c.31.52.94,1.82,1.74,1.54.29-.1.44-.47.54-.73A2.52,2.52,0,0,0,57,27.43Z"/><path class="cls-35" d="M57.06,26.21c-.34-.46-.69-1.06-1.24-1.28a0,0,0,0,0,0,.08,3.13,3.13,0,0,1,1.05,1.18,3.49,3.49,0,0,1,.75,1.56,3.29,3.29,0,0,1-.51,1.67,3.1,3.1,0,0,1-.87,1.22c-.52.36-1.21-.58-1.52-.91a6.39,6.39,0,0,1-1-1.48,22.28,22.28,0,0,1-1.2-3,0,0,0,0,0,0,0A18.19,18.19,0,0,0,53.88,29a7.25,7.25,0,0,0,1.25,1.45c.35.34.73.58,1.19.33a2.78,2.78,0,0,0,.88-1.19,3.87,3.87,0,0,0,.6-1.76A2.9,2.9,0,0,0,57.06,26.21Z"/><path class="cls-35" d="M58.25,26.48c-.22-.37-.46-.73-.7-1.09s-.26-.44-.55-.53c-.07,0-.08.08,0,.11a2,2,0,0,1,.59.76c.18.28.34.58.51.88a2.54,2.54,0,0,1,.38,2.23c-.36,1.1-.94,2.77-2.31,2.84s-2.23-1.39-2.84-2.48c-.34-.62-.74-1.2-1.05-1.84a9.42,9.42,0,0,1-.65-1.94s-.06,0-.05,0a10,10,0,0,0,.7,2.22c.34.74.77,1.43,1.15,2.14.61,1.12,1.69,2.44,3.15,2.07a2.29,2.29,0,0,0,1.35-1.16,7.5,7.5,0,0,0,.88-2.16A2.76,2.76,0,0,0,58.25,26.48Z"/><path class="cls-35" d="M59.6,26.73c-.25-.63-.52-1.51-1.15-1.86a0,0,0,0,0-.06.07,7.68,7.68,0,0,1,1,1.75,3.23,3.23,0,0,1,.45,2.5,12.36,12.36,0,0,1-1.41,2.13,10.19,10.19,0,0,1-.72.92,1.37,1.37,0,0,1-1.26.42A6.86,6.86,0,0,1,54.11,32a3.63,3.63,0,0,1-1.49-1.85c-.39-.77-.84-1.51-1.22-2.28a18.22,18.22,0,0,1-.9-2.38c0-.06-.1,0-.08,0a26.56,26.56,0,0,0,2.31,5.24,3.18,3.18,0,0,0,1.62,1.56,5.78,5.78,0,0,0,2.54.55c.78-.06,1.25-.85,1.66-1.42a10.77,10.77,0,0,0,1.52-2.4C60.37,28.28,59.88,27.44,59.6,26.73Z"/><path class="cls-35" d="M61.36,27.86a6.48,6.48,0,0,0-1.2-2.39L60,25.26l0-.05h0a1.53,1.53,0,0,0-.35-.27s0,0,0,0a1.51,1.51,0,0,0,.17.23,1.6,1.6,0,0,1,.33.34l.09.14a9.24,9.24,0,0,1,.92,2,2.06,2.06,0,0,1,0,1.45,5.53,5.53,0,0,1-.8,1.18c-.52.66-1,1.38-1.49,2a3.35,3.35,0,0,1-1.09,1,2.6,2.6,0,0,1-1.55.1,5.4,5.4,0,0,1-2.5-.93,6.28,6.28,0,0,1-1.54-2l-1.33-2.29a18.1,18.1,0,0,1-1.23-2.57,0,0,0,0,0-.08,0l0,0s0,.1.07.06c-.11.11.35,1,.43,1.23a12.4,12.4,0,0,0,.61,1.27c.51.93,1.07,1.84,1.61,2.75a5.27,5.27,0,0,0,1.67,1.88,6.63,6.63,0,0,0,2.85.84,2.38,2.38,0,0,0,2.1-1c.66-.77,1.2-1.65,1.82-2.45A2.77,2.77,0,0,0,61.36,27.86Z"/><path class="cls-35" d="M45.24,30.79c-.22-.23-.44-.44-.65-.68a1.46,1.46,0,0,0-.66-.31s-.07,0,0,.06.34.16.51.27a3.11,3.11,0,0,1,.42.48,6.06,6.06,0,0,1,.43.45c.24.31-.24.25-.31.24a1.6,1.6,0,0,1-.29-.07,3.43,3.43,0,0,0-2.08-.3,0,0,0,0,0,0,.06,4.22,4.22,0,0,1,1.77.37c.32.11.68.29,1,.1S45.38,30.93,45.24,30.79Z"/><path class="cls-35" d="M46.25,30.93c-.43-.56-1-1.41-1.66-1.64a0,0,0,0,0,0,.06A6.42,6.42,0,0,1,46,31a1.62,1.62,0,0,1,.51,1.13.69.69,0,0,1-.36.57c-.2.1-.49-.06-.67-.15-1.12-.54-2.44-1.27-3.73-1,0,0,0,.06,0,.06a6,6,0,0,1,2.87.72c.46.22,1.32,1,1.83.44S46.66,31.47,46.25,30.93Z"/><path class="cls-35" d="M47.36,31.25a8.59,8.59,0,0,0-2-2.49c-.05,0-.12,0-.07.08A9.57,9.57,0,0,1,47,31a4.81,4.81,0,0,1,.65,1.56c.07.43-.71,1.07-1,1.3s-1.12-.2-1.52-.4-.94-.4-1.41-.59a6,6,0,0,0-2.56-.66s0,.06,0,.07a4.83,4.83,0,0,1,.76.09,8.47,8.47,0,0,1,.95.33c.58.22,1.14.48,1.71.73s1,.59,1.55.79c.39.14.72-.14,1-.39s.75-.66.82-1.12A3,3,0,0,0,47.36,31.25Z"/><path class="cls-35" d="M48.75,31.54c-.36-.65-.84-1.23-1.23-1.87A5.48,5.48,0,0,0,46,28.19c-.1-.08-.24.08-.13.16a5.65,5.65,0,0,1,1.38,1.35c.34.52.68,1,1,1.55a1.89,1.89,0,0,1,.32,2,7.56,7.56,0,0,1-1,1.66.79.79,0,0,1-1,.29,7.75,7.75,0,0,1-.82-.57,6.87,6.87,0,0,0-1.66-.75c-.58-.21-1.14-.47-1.72-.68a7.94,7.94,0,0,0-1.77-.37,0,0,0,0,0,0,0,9,9,0,0,1,2.09.61c.67.31,1.35.6,2,.88a20.36,20.36,0,0,1,1.85,1.12c.51.27,1-.11,1.29-.49a7.87,7.87,0,0,0,1.06-1.75A1.83,1.83,0,0,0,48.75,31.54Z"/><path class="cls-35" d="M49.87,31.54a3.74,3.74,0,0,0-.82-1.26,3.81,3.81,0,0,1-.59-.7,8.05,8.05,0,0,0-.58-.77,6.64,6.64,0,0,0-1.15-1.27,0,0,0,0,0-.06.07,7.14,7.14,0,0,1,1,1.2c.29.43.57.89.89,1.29.14.18.33.31.48.49a5.13,5.13,0,0,1,.38.59,2.48,2.48,0,0,1,.4,1.43,6.18,6.18,0,0,1-1.54,2.91c-.38.44-.76,1-1.42.69-.46-.24-.88-.55-1.34-.79s-.87-.49-1.35-.68-1-.46-1.5-.71a7,7,0,0,0-1.53-.47,2.82,2.82,0,0,0-1.42-.16,0,0,0,0,0,0,0,5.61,5.61,0,0,1,1.8.37,8.36,8.36,0,0,1,1.7.75c.54.29,1.13.48,1.67.79s1,.59,1.54.92a1.25,1.25,0,0,0,1,.3c.46-.13.78-.64,1.07-1a6.2,6.2,0,0,0,1.52-3,.1.1,0,0,0,0,0A2.57,2.57,0,0,0,49.87,31.54Z"/><path class="cls-35" d="M51.15,32.49a3,3,0,0,1-.12-.41,2.52,2.52,0,0,0-.24-.49c-.15-.3-.25-.6-.42-.89a17.53,17.53,0,0,0-1.22-2,11.25,11.25,0,0,0-.77-.84,6.17,6.17,0,0,0-1-.91s-.07,0,0,0a12.41,12.41,0,0,1,1.43,1.61,15.11,15.11,0,0,1,1.13,1.79c.33.54.56,1.11.84,1.67.12.25.17.56.27.83a.58.58,0,0,1,0,.42,4.77,4.77,0,0,0-.27.49c-.05.08-.11.16-.14.24a.07.07,0,0,0,0,.07c-.11.25-.22.49-.35.73A16.93,16.93,0,0,1,49,36.54c-.39.54-.8,1.33-1.52,1.48-.36.07-.71-.34-.91-.57a6.66,6.66,0,0,0-.59-.59,10.63,10.63,0,0,0-3.19-2,13.81,13.81,0,0,0-1.92-.46,6,6,0,0,0-1.85-.3,0,0,0,0,0,0,0,7.71,7.71,0,0,1,2.1.47,10.24,10.24,0,0,1,2.2.68,8.78,8.78,0,0,1,1.82,1.16,19,19,0,0,1,1.44,1.32,1,1,0,0,0,1.17.39A3.15,3.15,0,0,0,49,36.87c.38-.57.89-1,1.25-1.62a14.35,14.35,0,0,0,.64-1.3,1.63,1.63,0,0,0,.39-.64A1.31,1.31,0,0,0,51.15,32.49Z"/><path class="cls-35" d="M41.81,36c-.31-.34-1-.38-1.45-.5-1.07-.3-2.52-.61-3.51.08a0,0,0,0,0,0,0l-.19.11a.71.71,0,0,0-.48.38.1.1,0,0,0,0,.09c.27.25.83.18,1.17.21a12.13,12.13,0,0,1,1.66.3,4.11,4.11,0,0,1,.81.31,1.23,1.23,0,0,0,.65.19.85.85,0,0,0,.72-.6c.1-.32-.31-.59-.53-.71a5.11,5.11,0,0,0-1.38-.32c-.44-.08-.88-.17-1.33-.21a2.62,2.62,0,0,1,.48,0,8.49,8.49,0,0,1,1.5.21c.48.13,1,.24,1.45.4,1,.32-.21,1.4-.64,1.6-.62.29-1.1-.13-1.59-.43A3.48,3.48,0,0,0,38,36.7a6.83,6.83,0,0,0-2.91-.17s0,0,0,0a7.72,7.72,0,0,1,2,.14,6.16,6.16,0,0,1,1.88.52c.51.27.85.64,1.46.61A1.89,1.89,0,0,0,41.72,37,.84.84,0,0,0,41.81,36Zm-4.69-.2a3.14,3.14,0,0,1,1.71.14,6.35,6.35,0,0,1,.91.25l.14.07c.17.07.14.11-.12.12a1.64,1.64,0,0,1-.36-.12A8.6,8.6,0,0,0,38,35.87a1.72,1.72,0,0,0-.53,0h-.27C37.1,35.84,37.09,35.8,37.12,35.75Zm1.75-.13,1.12.2c.41.07,1.5.42.87,1-.42.38-1-.06-1.4-.22a5.79,5.79,0,0,0-1.15-.27c-.38-.06-.77-.13-1.15-.18l-.63-.05c-.08-.11-.06-.18.06-.21a2.44,2.44,0,0,1,.35-.18.2.2,0,0,0,0,.11c0,.15.21.18.32.18a5.32,5.32,0,0,1,1.23.14c.3.06.6.12.89.21a1.81,1.81,0,0,0,.54.13c.1,0,.32,0,.27-.19S39.8,36,39.67,36a7.58,7.58,0,0,0-1.36-.36,2.52,2.52,0,0,0-1.05,0l.1-.09.2,0A5.36,5.36,0,0,1,38.86,35.63Z"/><path class="cls-35" d="M46.3,39.23a12.45,12.45,0,0,0-.9-1,8.9,8.9,0,0,0-1.09-1,1.46,1.46,0,0,0-.9-.37,1.08,1.08,0,0,0-.76.44,3.41,3.41,0,0,0-1.2,1.16c-.49.87.16,1.8.54,2.58s.42,1.74,1.06,2.33,1.19-.05,1.54-.47.52-.7.83-1A7.76,7.76,0,0,1,46.61,41C47.29,40.49,46.65,39.7,46.3,39.23Zm-.25,2a6.29,6.29,0,0,0-1.47,1.43c-.47.54-1.14,1-1.65.24a4.38,4.38,0,0,1-.43-1.1,7,7,0,0,0-.44-1.08c-.39-.78-.84-1.55-.31-2.38a3.23,3.23,0,0,1,.85-.85h0l.49-.34a.82.82,0,0,1,.53-.07,2.25,2.25,0,0,1,.93.62,14.43,14.43,0,0,1,1.58,1.67,3.86,3.86,0,0,1,.56.87C46.91,40.7,46.4,41,46,41.21Z"/><path class="cls-35" d="M45.4,39c-.5-.45-.78-1.12-1.38-1.46a1.18,1.18,0,0,0-1.51.49l-.18.14a1,1,0,0,0-.44.67,1.61,1.61,0,0,0,.17.8c.16.4.36.78.5,1.18.23.68.21,1.4.73,2s1-.29,1.31-.59a10.84,10.84,0,0,1,.94-.88,2.2,2.2,0,0,0,.62-.75C46.45,39.91,45.81,39.35,45.4,39Zm.35,1.83c-.35.42-.83.73-1.2,1.14l-.49.54c-.17.18-.39.33-.65.13a1.41,1.41,0,0,1-.34-.55c-.21-.5-.24-1.06-.43-1.57a6.28,6.28,0,0,1-.6-1.56.93.93,0,0,1,.38-.76,0,0,0,0,0,.06,0c.53-.51,1.17-.86,1.8-.28.36.33.57.79.91,1.14C45.69,39.54,46.36,40.09,45.76,40.81Z"/><path class="cls-35" d="M44.78,39.13c-.32-.36-.62-.9-1.1-1.08a.32.32,0,0,0-.29,0h0c-.3.21-.74.56-.81.95a.93.93,0,0,0,.17.56,8,8,0,0,1,.31.74,3.7,3.7,0,0,0,.56,1.26c.28.3.66.12.9-.12s.3-.4.47-.58a1.28,1.28,0,0,0,.37-.53C45.45,39.86,45.1,39.49,44.78,39.13Zm-.26,2.05a1.12,1.12,0,0,1-.4.36c-.37.19-.55-.33-.63-.56a9.55,9.55,0,0,0-.36-.92c-.12-.27-.25-.53-.38-.79s0-.45.21-.66l-.05.07s0,.13.08.09.45-.6.71-.5.59.61.82.88a2,2,0,0,1,.66,1C45.25,40.5,44.71,40.93,44.52,41.18Z"/><path class="cls-35" d="M44.4,39.42c-.24-.26-.65-1.07-.95-.56-.31.35.15.78.32,1.17.08.19.33,1.29.76.78A1,1,0,0,0,44.4,39.42Zm-.19,1.26c-.14-.31-.26-.62-.41-.92s-.35-.45-.32-.68h0c.3-.32.54.24.7.41a1.27,1.27,0,0,1,.4.6.77.77,0,0,1-.06.38A.3.3,0,0,1,44.21,40.67Z"/><path class="cls-35" d="M49.24,46.12A6.42,6.42,0,0,1,48.75,45c-.14-.45-.37-.87-.52-1.32-.21-.62-.12-1.28-.79-1.58a.51.51,0,0,0-.56.09,5.7,5.7,0,0,0-.45.4,12.41,12.41,0,0,0-1,1,5.94,5.94,0,0,0-1.35,1.72c-.28.72.14,1.32.41,2,.15.36.26.74.39,1.11a12.77,12.77,0,0,0,.56,1.21,10,10,0,0,0,.64,1.78.87.87,0,0,0,1.31.14,6.54,6.54,0,0,0,1.16-1.87,7.07,7.07,0,0,0,1-1.91A2.14,2.14,0,0,0,49.24,46.12Zm-.69,3.21c-.36.55-.61,1.17-1,1.72a1,1,0,0,1-.87.53c-.38,0-.6-.5-.71-.81a10.52,10.52,0,0,0-.58-1.59,14.07,14.07,0,0,1-.75-2c-.26-.71-.65-1.27-.3-2a6.72,6.72,0,0,1,1.21-1.49c.22-.25.41-.52.63-.77a5.41,5.41,0,0,0,.56-.41l.22-.2c.28-.24.61,0,.77.24s.14.63.23.9a9.37,9.37,0,0,0,.34.94c.22.5.32,1,.57,1.52a4.16,4.16,0,0,1,.37.86l.08.34a1.77,1.77,0,0,1,0,.64,5.18,5.18,0,0,1-.2.58A7.18,7.18,0,0,1,48.55,49.32Z"/><path class="cls-35" d="M48.29,45.58c-.43-.71-.32-1.61-.85-2.27a.76.76,0,0,0-.74-.24,1.08,1.08,0,0,0-.69.62h0a5.52,5.52,0,0,0-1.18,1.48c-.4.79.16,1.62.5,2.32a6.79,6.79,0,0,1,.47,1.42,4.43,4.43,0,0,0,.36,1.18c.39.7,1.08.5,1.51,0a4.09,4.09,0,0,0,.5-1.12c.18-.44.45-.84.62-1.28C49.12,46.89,48.69,46.24,48.29,45.58ZM48.46,48c-.15.31-.32.59-.45.91s-.23.6-.37.89c-.24.51-.82.83-1.24.3a2.36,2.36,0,0,1-.36-1,10.38,10.38,0,0,0-.7-2.06,7.49,7.49,0,0,1-.39-.94,1.43,1.43,0,0,1,.24-1.18,8.53,8.53,0,0,1,1.39-1.64.66.66,0,0,1,.51,0c.34.12.49.58.57.88a6.9,6.9,0,0,0,.54,1.63,5.25,5.25,0,0,1,.47.94A1.63,1.63,0,0,1,48.46,48Z"/><path class="cls-35" d="M47.49,44.87a1.08,1.08,0,0,0-.74-.91c-.39-.07-.67.32-.84.63a2,2,0,0,0-.56.83.92.92,0,0,0,.11.72,7,7,0,0,1,.41,1.07c.14.48.64,2.58,1.47,1.5a2.79,2.79,0,0,0,.4-1.67A9.48,9.48,0,0,0,47.49,44.87Zm-.22,3.66c-.38.73-.77,0-.93-.35s-.29-.93-.43-1.39-.57-.93-.37-1.43a4.39,4.39,0,0,1,.81-1,.45.45,0,0,1,.62,0c.33.27.37.88.44,1.26A4.74,4.74,0,0,1,47.26,48.53Z"/><path class="cls-35" d="M47.08,46.94c0-.41,0-.82,0-1.22s-.54-.74-.79-.29a.57.57,0,0,0-.21.41,4.22,4.22,0,0,0,.29,1c0,.17.3,1.09.64.68C47.12,47.4,47.08,47.14,47.08,46.94Zm-.21.47c-.07.21-.3-.31-.3-.32-.07-.2-.08-.4-.15-.6s-.11-.29-.16-.45a.5.5,0,0,1,.06-.45l0,0q.15-.24.47,0a1.1,1.1,0,0,1,0,.27c0,.16,0,.31,0,.47A3.35,3.35,0,0,1,46.87,47.41Z"/><path class="cls-35" d="M54.84,52.59a.87.87,0,0,0,0-.29h0a.1.1,0,0,0,0-.07,1.71,1.71,0,0,0-.32-.46,6.24,6.24,0,0,0-1.07-.65,9.52,9.52,0,0,1-1-.9,8.66,8.66,0,0,0-.93-.66,1.4,1.4,0,0,0-.8-.29c-.61,0-.8.76-.94,1.3-.29.58-.58,1.15-.9,1.71a2.76,2.76,0,0,0-.57,2,2.58,2.58,0,0,0,.51.89c.29.37.59.72.9,1.07.59.66,1.22,1.27,1.85,1.88.44.43,1.09,1.16,1.78,1s.79-1,.93-1.49a15.78,15.78,0,0,0,.56-4.31C54.82,53.12,54.84,52.85,54.84,52.59Zm-.31,2a21.37,21.37,0,0,1-.34,2.3A8.37,8.37,0,0,1,53.9,58c-.13.37-.29.89-.73,1s-.84-.41-1.1-.63-.53-.49-.8-.74c-.53-.49-1-1-1.51-1.55a6,6,0,0,1-1.3-1.81c-.27-.74.42-1.65.76-2.27a14,14,0,0,0,.85-2c.19-.4.47-.7,1-.47a4.45,4.45,0,0,1,.73.49,4.73,4.73,0,0,1,.75.62,7,7,0,0,0,.67.63,5.92,5.92,0,0,0,.77.44,1.09,1.09,0,0,1,.58.76C54.58,53.18,54.59,53.86,54.53,54.56Z"/><path class="cls-35" d="M53.9,53.26a2.07,2.07,0,0,0-.06-.55,1.81,1.81,0,0,0-.45-.63,8.39,8.39,0,0,0-.58-.67c-.24-.23-.51-.44-.76-.65a1.16,1.16,0,0,0-1.31-.35.86.86,0,0,0-.5.4,0,0,0,0,0,0,0,7.79,7.79,0,0,1-.78,1.9,1.5,1.5,0,0,0-.27,1.37,3.5,3.5,0,0,0,1,1.33c.48.46,1,.92,1.46,1.37a2,2,0,0,0,1.35.69c.46,0,.6-.6.68-1,.14-.67.2-1.36.27-2A4.93,4.93,0,0,0,53.9,53.26Zm-.37,2.58c0,.47-.12,1.51-.79,1.44-.51-.06-1-.66-1.37-1a6.59,6.59,0,0,1-2-2.37c-.19-.59.34-1.14.54-1.65a7.07,7.07,0,0,0,.25-.77c.22-.36.23-.7.7-.88s1,.21,1.35.56a9.59,9.59,0,0,1,1,1c.11.13.24.26.34.4l0,0c0,.47.17.92.17,1.4S53.6,55.25,53.54,55.84Z"/><path class="cls-35" d="M52.43,51.87a1.76,1.76,0,0,0-1.34-.62c-.52.07-.65.88-.76,1.28a0,0,0,0,0,0,0,2.71,2.71,0,0,0-.22,1c0,.59.52,1,.9,1.39s.79,1.09,1.42,1.15c.36,0,.59-.36.66-.66a5.09,5.09,0,0,0,.1-1c0-.35.11-.68.11-1A2.37,2.37,0,0,0,52.43,51.87Zm.65,2c-.08.46-.06.93-.14,1.38a1.22,1.22,0,0,1-.18.47c-.22.33-.59.1-.82-.08s-.63-.68-1-1a1.52,1.52,0,0,1-.65-1.48c.08-.46.31-.9.44-1.35a.59.59,0,0,1,.59-.34,2.16,2.16,0,0,1,1.2.83A1.89,1.89,0,0,1,53.08,53.83Z"/><path class="cls-35" d="M52.69,53.39a2,2,0,0,0-.55-1.16c-.53-.62-1.09-.06-1.2.55a.06.06,0,0,0,0,0,3.73,3.73,0,0,0-.15.58,1,1,0,0,0,.34,1c.27.29.51.68.91.79s.47-.25.54-.47A4.78,4.78,0,0,0,52.69,53.39Zm-.27,1.14a1,1,0,0,1-.08.32c-.16.38-.49,0-.61-.08s-.43-.45-.63-.68S51,53,51.23,52.51a1.4,1.4,0,0,1,.12-.2c.31-.4.69.13.85.37A2.71,2.71,0,0,1,52.42,54.53Z"/><path class="cls-35" d="M51.91,53.45c0-.12,0-.24-.07-.35a.47.47,0,0,0-.29-.21h0a0,0,0,0,0-.08,0c-.1.26-.28.62-.11.89s.26.47.48.36S51.94,53.62,51.91,53.45Zm-.25.47a1.1,1.1,0,0,1-.22-.34.75.75,0,0,1,0-.39.06.06,0,0,0,.11,0v0a.38.38,0,0,1,.13.34,2.53,2.53,0,0,0,.05.25S51.78,54.05,51.66,53.92Z"/><path class="cls-35" d="M63,59.58c0-.47-.17-.92-.19-1.39C62.77,57.11,62.6,56,62.6,55c0-.82-.3-1.44-1.16-1.57l-1.61-.25c-.43-.07-.85,0-1.27-.06a3.47,3.47,0,0,0-.5-.19,1.27,1.27,0,0,0-.74.06c-.55.21-.73.87-.8,1.39-.24,1.6-.49,3.2-.6,4.82s1.46,1.69,2.63,1.75c.83,0,1.65.08,2.48.14a2,2,0,0,0,1.55-.39.1.1,0,0,0,.1,0A1.4,1.4,0,0,0,63,59.58Zm-2.24,1.21c-.65-.05-1.3-.09-2-.11a6.35,6.35,0,0,1-1.92-.28c-.8-.29-.8-1-.72-1.74s.09-1.34.19-2,.26-1.31.32-2,.19-1.49,1-1.63c.53-.09,1,.36,1.48.19h0a10.81,10.81,0,0,1,1.48.24c.46.1,1,0,1.39.31s.39.86.39,1.31a24.43,24.43,0,0,0,.16,2.75c.05.43.05.87.14,1.3a5.63,5.63,0,0,1,.09.57,1.11,1.11,0,0,1-.22.64,1.84,1.84,0,0,1-.7.44A3.09,3.09,0,0,1,60.78,60.79Z"/><path class="cls-35" d="M62.17,56.21c-.06-.85,0-1.7-.84-2.19a5.1,5.1,0,0,0-2.56-.34,1.92,1.92,0,0,0-1.16.18.43.43,0,0,0-.15.25v0h0q-.18.85-.32,1.71a10.67,10.67,0,0,0-.21,1.66c0,.47-.09.93-.11,1.4a.84.84,0,0,0,.42.84,2.84,2.84,0,0,0,1.1.29,12.1,12.1,0,0,0,1.62.17,11.82,11.82,0,0,0,1.67-.07.81.81,0,0,0,.65-.44.11.11,0,0,0,0-.07v0l0-.1a.08.08,0,0,0,0-.08A16.93,16.93,0,0,0,62.17,56.21Zm-.38,3.67a2.18,2.18,0,0,1-.65.1c-.44,0-.88,0-1.32,0a7.76,7.76,0,0,1-1.44-.17,2.51,2.51,0,0,1-1.1-.31c-.4-.28-.2-.84-.16-1.23s0-.86.06-1.29c.06-.72.18-1.43.26-2.15.09-.3.14-.8.39-.9a3.84,3.84,0,0,1,1.36-.06,3.94,3.94,0,0,1,2.17.43c.7.47.54,1.6.6,2.33,0,.47.13.94.18,1.42a8.39,8.39,0,0,1,0,1.52h0A.68.68,0,0,1,61.79,59.88Z"/><path class="cls-35" d="M61.75,56.68a4.45,4.45,0,0,0,0-1.31c-.2-.91-1-1.14-1.85-1.21-.66-.06-1.68-.22-2,.5a3.52,3.52,0,0,0-.1,1.11v0c-.08.68-.09,1.36-.14,2a1.49,1.49,0,0,0,.92,1.71,10.79,10.79,0,0,0,1.4,0,2.14,2.14,0,0,0,1.2,0c.6-.26.65-.94.62-1.51A9.84,9.84,0,0,1,61.75,56.68Zm-.92,2.79a5,5,0,0,1-1-.13c-.39,0-.77.06-1.16,0-1-.14-.75-1.49-.73-2.14,0-.45,0-.89,0-1.33,0-.25,0-.5.08-.75.07-.48.27-.74.78-.78a7.51,7.51,0,0,1,1.24,0,2.32,2.32,0,0,1,1.09.34A1.4,1.4,0,0,1,61.6,56c0,.31-.07.61-.08.92s.05.71.08,1.07C61.65,58.62,61.6,59.38,60.83,59.47Z"/><path class="cls-35" d="M61,57a8.74,8.74,0,0,1-.09-1,1.63,1.63,0,0,0-.14-.85,1.33,1.33,0,0,0-1.22-.48c-.6,0-.77.48-.83,1a5.8,5.8,0,0,0,0,1.15c0,.08,0,.16,0,.25s0,.42-.07.62a.9.9,0,0,0,.59,1,1.54,1.54,0,0,0,1.31,0C61.17,58.39,61.08,57.53,61,57Zm-.52,1.47a1.32,1.32,0,0,1-1.35-.11.56.56,0,0,1-.25-.37c0-.13,0-.27,0-.4a2.77,2.77,0,0,0,0-.47c0-.45,0-.89,0-1.34s.16-.87.58-.93a1.11,1.11,0,0,1,1.17.46,2,2,0,0,1,.07.79,5.27,5.27,0,0,0,.08.78C60.88,57.43,61,58.16,60.51,58.51Z"/><path class="cls-35" d="M60.58,57.23a5.86,5.86,0,0,1-.05-.68c0-.24-.1-.45-.13-.68s0-.55-.26-.64a.62.62,0,0,0-.69.19.51.51,0,0,0,0,.56c0,.29-.06.58-.07.87s-.12.74.08.89a1,1,0,0,0,.93.2C60.61,57.82,60.61,57.47,60.58,57.23Zm-.2.39c-.1.29-.52.14-.69.08s-.19-.49-.19-.72,0-.48,0-.71a.06.06,0,0,0,.08,0,1.18,1.18,0,0,0,0-.42c-.07-.28.41-.67.59-.29a1,1,0,0,1,.07.29c0,.21.09.42.13.63s0,.46,0,.69A.93.93,0,0,1,60.38,57.62Z"/><path class="cls-35" d="M72.15,56.92a8.11,8.11,0,0,0-.59-1.58c-.26-.47-.44-1-.68-1.45a1.78,1.78,0,0,0-.65-.79,2,2,0,0,0-1.44,0c-.6.12-1.22.11-1.83.23s-1.07.19-1.6.34c-.34,0-.74.15-.83.53a7.1,7.1,0,0,0,.19,2c0,.77,0,1.54.08,2.31a4.88,4.88,0,0,0,.41,1.72.91.91,0,0,0,1.11.43,6.25,6.25,0,0,0,.85-.36A8.15,8.15,0,0,1,68.27,60c.79-.21,1.58-.4,2.36-.62a5.9,5.9,0,0,0,.92-.36.09.09,0,0,0,.13.06,1.38,1.38,0,0,0,.81-.77C72.62,57.85,72.28,57.32,72.15,56.92ZM69,59.56c-.56.15-1.13.29-1.68.48s-1.27.76-1.79.33-.44-1.1-.52-1.59a11.73,11.73,0,0,1-.13-1.86,9,9,0,0,0-.17-1.79,1.78,1.78,0,0,1,0-1,.69.69,0,0,1,.48-.34c1-.17,2-.33,2.95-.4.49,0,1-.15,1.46-.2a1.11,1.11,0,0,1,1,.66,7.21,7.21,0,0,1,.42.93c.2.47.49.88.66,1.36s.34,1,.49,1.49a.86.86,0,0,1,0,.79c-.4.2-.8.42-1.22.59A16.64,16.64,0,0,1,69,59.56Z"/><path class="cls-35" d="M70.64,55.56c-.25-.72-.62-1.58-1.44-1.78a2.63,2.63,0,0,0-1.24,0,12.92,12.92,0,0,1-1.76.35c-.54.05-1.31.37-1,1a0,0,0,0,0,0,0,7.94,7.94,0,0,0,.26,1.59c.09.51.06,1,.11,1.54a1.14,1.14,0,0,0,.5.95c.89.41,1.8-.29,2.63-.54a12.91,12.91,0,0,1,1.66-.22c.29,0,.73-.2.85-.52C71.51,57.23,70.9,56.31,70.64,55.56Zm.13,2.62a2.28,2.28,0,0,1-1.06.22,5,5,0,0,0-1.06.17c-.75.22-1.55.87-2.37.6-.47-.15-.5-.79-.52-1.2s0-.77-.1-1.16-.19-.77-.27-1.16a1.59,1.59,0,0,1,.16-1.09A5.35,5.35,0,0,1,67,54.3a3.86,3.86,0,0,1,2.35-.2c.67.28.91,1.12,1.13,1.74S71.49,57.69,70.76,58.18Z"/><path class="cls-35" d="M70.33,56.64c-.12-.33-.33-.63-.48-.95a5.54,5.54,0,0,0-.46-.85,1.37,1.37,0,0,0-1.48-.49c-.44.1-.85.27-1.29.36a1.26,1.26,0,0,0-.36.13h0l-.15.13a1.27,1.27,0,0,0-.18.19.06.06,0,0,0,0,.06A1.66,1.66,0,0,0,66,56.41c.17.61,0,1.31.26,1.88s.89.38,1.33.19a3.76,3.76,0,0,1,1.21-.35A4.35,4.35,0,0,0,69.91,58C70.51,57.79,70.52,57.14,70.33,56.64Zm-.94,1.26a5.78,5.78,0,0,0-1.58.27c-.52.22-1.27.61-1.5-.17-.13-.44-.05-.93-.14-1.38A5.71,5.71,0,0,0,66,56a1,1,0,0,1,0-.8,1.38,1.38,0,0,1,.81-.31,4.27,4.27,0,0,0,.76-.23,1.33,1.33,0,0,1,1.66.39,10.72,10.72,0,0,1,.66,1.27,2.4,2.4,0,0,1,.31.82C70.3,57.67,69.79,57.84,69.39,57.9Z"/><path class="cls-35" d="M69.1,55.86c-.24-.34-.38-.73-.82-.85a1.35,1.35,0,0,0-.65,0,3,3,0,0,0-.61.29.88.88,0,0,0-.56.43.48.48,0,0,0,0,.44,2.84,2.84,0,0,1,.2.89c0,.3.1.72.44.82a2,2,0,0,0,1.23-.23c.32-.11,1.05,0,1.13-.52A1.76,1.76,0,0,0,69.1,55.86ZM69,57.31a5.07,5.07,0,0,0-.54.09,8.28,8.28,0,0,1-1,.3c-.5.08-.56-.43-.63-.79a1.86,1.86,0,0,0-.16-.74c-.23-.36,0-.59.29-.74s.49-.22.76-.26a1,1,0,0,1,1,.45,5.51,5.51,0,0,1,.5.85C69.33,56.71,69.44,57.24,69,57.31Z"/><path class="cls-35" d="M68.36,55.94a.53.53,0,0,0-.52-.3.5.5,0,0,0-.3.14c-.11.1-.24.17-.35.27a.07.07,0,0,0,0,.13,1.77,1.77,0,0,0,.06.55c.06.49.5.62.89.37a1,1,0,0,0,.41-.53C68.65,56.37,68.45,56.1,68.36,55.94Zm-.11.87a.63.63,0,0,1-.53.26c-.25,0-.27-.3-.3-.49s-.13-.36,0-.52l.18-.12.15-.06a.36.36,0,0,1,.22,0c.14,0,.23.28.3.4a.79.79,0,0,1,.1.22C68.44,56.59,68.31,56.74,68.25,56.81Z"/><path class="cls-35" d="M79.1,50.86c-.5-.54-1.25-1.4-2.08-1.2a1.07,1.07,0,0,0-.42.25h0c-1,.58-2,1.17-3,1.72-.76.41-1.54.87-1.12,1.84a11.81,11.81,0,0,1,.65,1.39,15.37,15.37,0,0,0,.45,1.67c.3.73.86,1.17,1.61.73.47-.28.89-.64,1.35-.93s1-.67,1.44-1a6.86,6.86,0,0,0,2.12-2.07C80.5,52.34,79.64,51.45,79.1,50.86Zm-.65,3.76c-.79.61-1.59,1.19-2.41,1.77a8.61,8.61,0,0,1-1.19.79c-.6.29-1-.39-1.15-.84a7.87,7.87,0,0,1-.34-1.27,4.86,4.86,0,0,0-.5-1.24c-.29-.54-.52-1.09,0-1.55A6.7,6.7,0,0,1,74,51.61c.56-.3,1.09-.64,1.61-1a0,0,0,0,0,.05,0,4,4,0,0,0,.85-.46A1,1,0,0,1,77.83,50a4.57,4.57,0,0,1,1,.87,6.8,6.8,0,0,1,1,1.21C80.4,53.14,79.16,54.08,78.45,54.62Z"/><path class="cls-35" d="M79.29,52a5.53,5.53,0,0,0-.89-1.23,2.07,2.07,0,0,0-.9-.64,1,1,0,0,0-.77.19,25.46,25.46,0,0,0-2.49,1.37c-.6.37-1.21.94-1,1.72a7.22,7.22,0,0,0,.6,1.26c.19.39.21.83.43,1.2.4.69,1.18.41,1.71.06.84-.55,1.51-1.33,2.32-1.93S79.73,52.94,79.29,52Zm-1.41,2.11c-.62.51-1.19,1.08-1.84,1.56a2.18,2.18,0,0,1-.9.44c-.47.08-.73-.34-.86-.72A4.17,4.17,0,0,0,74,54.5a4,4,0,0,1-.55-1.22c-.16-.81.71-1.27,1.28-1.62l.56-.35c.26-.1.52-.21.78-.33s.67-.42,1-.57.93.27,1.24.61A6.15,6.15,0,0,1,79,52C79.64,53,78.55,53.59,77.89,54.14Z"/><path class="cls-35" d="M78.66,52.09a2.09,2.09,0,0,0-1.3-1.36.75.75,0,0,0-.64.13,2.24,2.24,0,0,0-.24.19,13.09,13.09,0,0,0-1.66.76,1.59,1.59,0,0,0-1,1.41,2.2,2.2,0,0,0,.36.81c.2.35.29.73.52,1.06.37.52,1,.34,1.41,0s.62-.52.94-.77.64-.47.94-.73A1.6,1.6,0,0,0,78.66,52.09Zm-1.11,1.67c-.44.34-.87.68-1.3,1a1.81,1.81,0,0,1-.87.45c-.4.07-.63-.46-.74-.75-.2-.51-.68-1-.59-1.59s.94-1,1.42-1.23l.27-.13a0,0,0,0,0,0,.06,4.44,4.44,0,0,0,.59-.26,2.92,2.92,0,0,1,.73-.42c.31-.06.64.23.85.42a1.6,1.6,0,0,1,.54.9C78.61,52.89,78,53.4,77.55,53.76Z"/><path class="cls-35" d="M78,51.8a.82.82,0,0,0-1-.44,2,2,0,0,0-.55.29c-.42.2-.84.4-1.25.62a.92.92,0,0,0-.51,1,1.7,1.7,0,0,0,.8,1.12c.45.16,1-.21,1.33-.41a3.74,3.74,0,0,0,1.29-1.08C78.43,52.54,78.23,52.15,78,51.8ZM77.9,53a3.84,3.84,0,0,1-.91.75,2.84,2.84,0,0,1-1.2.51c-.47,0-.82-.74-.88-1.11s.55-.77.9-.95l.07,0a3.17,3.17,0,0,0,.54-.24c.41-.24.91-.63,1.32-.17A.91.91,0,0,1,77.9,53Z"/><path class="cls-35" d="M77.64,52.37c-.18-.58-.58-.46-.94-.22s-1,.45-1,1a.81.81,0,0,0,.33.62c.19.13.43,0,.59-.12C77,53.39,77.84,53,77.64,52.37Zm-1,1c-.16.11-.41.35-.63.21a.6.6,0,0,1,0-.92,2.12,2.12,0,0,1,.26-.18,0,0,0,0,0,.05,0l.36-.2.19-.13c.32-.22.46,0,.55.23C77.69,52.91,77,53.19,76.67,53.4Z"/><path class="cls-35" d="M85.39,47.27c-.3-.31-.65-.58-1-.87a2.89,2.89,0,0,0-1-.66c-.66-.22-1.09.2-1.52.62l-.5.4c-.38.31-.8.56-1.18.87a1.89,1.89,0,0,0-.66.84.86.86,0,0,0,.26.81c.29.35.65.65.95,1a10,10,0,0,0,.81.95c.56.5,1.35.12,1.8-.33a10.49,10.49,0,0,0,.89-1.19,8.06,8.06,0,0,1,.94-.9C85.66,48.35,85.9,47.81,85.39,47.27Zm-.64,1.63a8.38,8.38,0,0,0-1.32,1.58,2,2,0,0,1-.87.69,1,1,0,0,1-1.17-.44c-.41-.5-.81-1-1.27-1.43a1.64,1.64,0,0,1-.36-.5c-.1-.24.11-.5.24-.66a4.75,4.75,0,0,1,.85-.73c.44-.33.84-.7,1.25-1.06a1.31,1.31,0,0,1,1.32-.4c.61.2,1.08.85,1.56,1.26.32.27.6.59.39,1A2.43,2.43,0,0,1,84.75,48.9Z"/><path class="cls-35" d="M84.52,47.43c-.29-.31-.6-.6-.91-.88a1,1,0,0,0-.73-.26,1.39,1.39,0,0,0-.87.55c-.37.3-.74.61-1.1.94a1.08,1.08,0,0,0-.37,1.3,4,4,0,0,0,1.17,1.27,1.15,1.15,0,0,0,1.39-.05,3.51,3.51,0,0,0,.68-.7c.26-.3.53-.58.81-.86C85,48.27,84.91,47.85,84.52,47.43ZM84.09,49A10.91,10.91,0,0,1,83,50.12,1,1,0,0,1,81.59,50a3.68,3.68,0,0,1-.91-1.07c-.24-.53.31-1,.65-1.28l.1-.09a0,0,0,0,0,.06,0c.37-.29.7-.63,1.06-.93.58-.49,1.27.42,1.64.78s.61.54.44.94A2.39,2.39,0,0,1,84.09,49Z"/><path class="cls-35" d="M83.28,47.21c-.26-.2-.56-.36-.86-.16a1,1,0,0,0-.25.33l-.06.09a8.4,8.4,0,0,0-.7.79.67.67,0,0,0,.1.89,1.87,1.87,0,0,0,.9.61,1,1,0,0,0,.93-.5,2.8,2.8,0,0,0,.55-1.14C84,47.75,83.54,47.4,83.28,47.21Zm0,1.76c-.17.33-.49.71-.92.58A2,2,0,0,1,81.6,49c-.23-.27-.1-.53.07-.76a0,0,0,0,0,.05,0,4.16,4.16,0,0,0,.49-.55c.19-.25.34-.61.72-.38a2.07,2.07,0,0,1,.67.59C83.84,48.18,83.44,48.68,83.3,49Z"/><path class="cls-35" d="M82.84,47.77a.36.36,0,0,0-.43.17l0,.06-.07.06a2.39,2.39,0,0,0-.2.26c-.08.11-.19.27-.09.41a.63.63,0,0,0,.48.26.53.53,0,0,0,.43-.3C83.13,48.38,83.3,47.94,82.84,47.77Zm.1.44a1.39,1.39,0,0,1-.14.34c-.08.16-.2.3-.39.26a.52.52,0,0,1-.21-.11.15.15,0,0,1-.06-.09,5.93,5.93,0,0,0,.42-.56A.21.21,0,0,1,82.94,48.21Z"/><path class="cls-35" d="M88.42,42.82c-.26-.18-.57-.29-.84-.44a1.43,1.43,0,0,0-.74-.22.82.82,0,0,0-.48.2,0,0,0,0,0,0,0l-.07.1a2.34,2.34,0,0,0-.27.37l-.3.4c-.21.27-.47.49-.71.74a1,1,0,0,0-.16,1.28,4,4,0,0,0,1.44,1.21c.49.25.94-.1,1.23-.47.43-.56.67-1.26,1.05-1.86A.91.91,0,0,0,88.42,42.82ZM88,44.57a12.56,12.56,0,0,1-.69,1.26,1.21,1.21,0,0,1-.56.46c-.34.13-.69-.19-.93-.37a3,3,0,0,1-1-1c-.22-.49.41-1,.7-1.3a4,4,0,0,0,.28-.36c.29-.36.58-.87,1-.92a2.73,2.73,0,0,1,1.46.65C88.92,43.37,88.26,44.13,88,44.57Z"/><path class="cls-35" d="M88.24,43.22a1.57,1.57,0,0,0-.94-.72c-.41-.15-.53.18-.83.36a0,0,0,0,0,0,0,4.72,4.72,0,0,0-.51.66c-.23.33-.71.6-.7,1.05a1.27,1.27,0,0,0,.74,1,.93.93,0,0,0,1.13.09,3.77,3.77,0,0,0,.78-1.17C88.13,44.08,88.42,43.7,88.24,43.22Zm-.52,1.18a9.22,9.22,0,0,1-.58.95c-.36.49-.88.18-1.25-.1a1.23,1.23,0,0,1-.4-.44c-.12-.26.1-.55.25-.73.36-.42.6-.9,1-1.28a.55.55,0,0,1,.43-.16,1.37,1.37,0,0,1,.89.65C88.24,43.68,87.89,44.08,87.71,44.4Z"/><path class="cls-35" d="M87.65,43.16c-.29-.53-.72-.06-1,.35-.16.18-.32.35-.46.54s-.34.49-.25.73c.19.48.87.72,1.15.2.19-.34.39-.69.55-1A1,1,0,0,0,87.65,43.16Zm-.53,1.3c-.13.24-.22.74-.63.61a.49.49,0,0,1-.28-.76,3.63,3.63,0,0,1,.22-.34h0c.16-.14.78-1,1-.76S87.27,44.18,87.12,44.46Z"/><path class="cls-35" d="M87.38,43.53c-.07-.1-.24-.06-.33,0a.9.9,0,0,0-.33.41.8.8,0,0,0-.19.44c0,.08,0,.3.11.31s.29-.12.41-.24a1.12,1.12,0,0,0,.32-.5C87.39,43.82,87.45,43.64,87.38,43.53Zm-.36.72a1.7,1.7,0,0,1-.23.23c-.16.14-.13-.12-.11-.2a1.08,1.08,0,0,1,.52-.6,0,0,0,0,0,0,0h0A.94.94,0,0,1,87,44.26Z"/><path class="cls-36" d="M89.83,43.5c0-.4-.4-.65-.85-.83v0a1.71,1.71,0,0,1-.26,1.19,2.63,2.63,0,0,1-2.27,1.53c-.94,0-2-.79-1.29-1.77a5,5,0,0,0,.68-.92,4.84,4.84,0,0,1,.44-.87.8.8,0,0,1,.35-.26l-.06,0a.44.44,0,0,0-.18,0,.37.37,0,0,0-.29.08H86a1.41,1.41,0,0,0-.64-1.09l-.54-.46a2.86,2.86,0,0,1,.14.55,1.88,1.88,0,0,1-.56,1.65.07.07,0,0,1,0,.11c-1.32,1.07-5.12,4.55-7,3.83-.63-.24-1.08-1.09-1.37-1.64-1.82-3.42-.45-7.14.13-10.7a26.38,26.38,0,0,0-1.57,3.47c-.24.71-.53,1.88-1.41,2a4,4,0,0,1-2.41-.62c-.62-.32-1.21-.7-1.81-1.07a13.89,13.89,0,0,0,2.71,2.1,5.73,5.73,0,0,1,2.23,2.59,29.9,29.9,0,0,1,1.16,4.69,1.8,1.8,0,0,1,0,1.27,2.37,2.37,0,0,1-1.19.91c-2.05.84-11.94,4.2-11.64-.47.06-.9.29-1.78.37-2.68a28,28,0,0,1,.29-3.35c.51-2.36,2.84-3.65,4.41-5.31-1.52.32-2.85,2.13-4.49,1.47s-2.11-2.26-3.38-3.16a21.62,21.62,0,0,1,1.68,3.54,10.84,10.84,0,0,1-.05,4.34c-.27,1.6-.46,3.21-.84,4.79-.17.7-.41,1.82-1.28,2a4.6,4.6,0,0,1-2.92-1A13.33,13.33,0,0,1,53.28,47a40.51,40.51,0,0,1-3.37-4.82,8.77,8.77,0,0,1-.79-1.4A1.82,1.82,0,0,1,49,39.33a5.78,5.78,0,0,1,.78-1.21c.83-1.12,1.53-2.35,2.38-3.46,1.15-1.5,3.22-.35,4.84-.3a10.18,10.18,0,0,1-5.52-3.53c.1.39.22.78.29,1.17a3.19,3.19,0,0,1-.55,2.65,11.6,11.6,0,0,1-2.14,1.93,2.32,2.32,0,0,1-2,.66c-2-.54-3.48-2.41-5.5-3.08-.6-.2-1.8-.09-2.29-.42a.39.39,0,0,1-.21-.45,1.74,1.74,0,0,0-.71.72.53.53,0,0,0-.16.53,1.84,1.84,0,0,0-.9.26,6.13,6.13,0,0,1,3,.22c.45.13,1.3.24,1.52.74.13.3-.15.58-.36.74a3.75,3.75,0,0,1-3.39.43,6.94,6.94,0,0,0-1.33-.22,3.91,3.91,0,0,1-.95-.13,1.3,1.3,0,0,1-.75-.57,1.28,1.28,0,0,0-.56.2.68.68,0,0,0-.36.36.42.42,0,0,0,0,.14c0,.14.08.3.28.41l.2.1.14.09a5.34,5.34,0,0,0,2.31.23,4.52,4.52,0,0,1,2.9,1,5.43,5.43,0,0,1,.89,1.64c.79,2.06,1.54,4.13,2.41,6.16q.65,1.53,1.34,3a0,0,0,0,0,0,0c.85,1.77,1.59,3.58,2.58,5.27a4.91,4.91,0,0,0,.65,1.12A12.78,12.78,0,0,0,52,59.77c.6.3,1.46,1.12,2.21,1a14.18,14.18,0,0,0,2,.58l.14,0a20.27,20.27,0,0,0,2.9.56,18.33,18.33,0,0,0,3,.14,3.86,3.86,0,0,0,1.15-.16l1.21-.11a3.07,3.07,0,0,0,1.4-.19l.42-.07.47-.08.58-.11a25.39,25.39,0,0,0,2.67-.65,6.45,6.45,0,0,0,1.3-.44,18.94,18.94,0,0,0,2.37-1.07c.33-.18.66-.37,1-.56l.23-.12A21.21,21.21,0,0,0,77.31,57,39.6,39.6,0,0,0,81.13,54l.08-.08q.62-.53,1.23-1.08a1.56,1.56,0,0,0,.64-.47A8,8,0,0,0,84.36,51c.5-.45,1-.94,1.44-1.38.32-.3.95-.71,1-1.17l.49-.59h0c.44-.13.7-.76.91-1.12.56-1,1.48-2,1.6-3.18A.17.17,0,0,0,89.83,43.5ZM43,41.6a4.77,4.77,0,0,1-1.33-1.94,1.75,1.75,0,0,1,0-1.74,3.71,3.71,0,0,1,1.73-1.5.08.08,0,0,1,.08,0c.86-.07,2.07,1.52,2.4,2a1.67,1.67,0,0,1,.48,1.5,3.16,3.16,0,0,1-1.6,1.69A1.48,1.48,0,0,1,43,41.6Zm4.48,8c-.66.48-1.19-.25-1.4-.82a12.83,12.83,0,0,0-.44-1.3c-.23-.48-.5-.95-.7-1.44a2.38,2.38,0,0,1,.32-2.57A5.62,5.62,0,0,1,46.87,42c.14-.16.3-.26.46-.22h0a.08.08,0,0,1,.11.07.59.59,0,0,1,.11.11,3.64,3.64,0,0,1,.45,1c.22.62.41,1.25.65,1.86A3.25,3.25,0,0,1,49,47.45a9.68,9.68,0,0,1-.84,1.32A3.26,3.26,0,0,1,47.5,49.64Zm7.09,4.89a5.4,5.4,0,0,1-.46,1.6,1.26,1.26,0,0,1-1.42.78,5.33,5.33,0,0,1-2.16-1.32,5.37,5.37,0,0,1-1.83-2.47,3.52,3.52,0,0,1,.47-2.45c.29-.61.71-1.59,1.44-1.78a.09.09,0,0,1,.07,0,.43.43,0,0,1,.28,0,3.73,3.73,0,0,1,.81.66c.46.42.92.86,1.4,1.26s1.6,1,1.58,1.85A11,11,0,0,1,54.59,54.53Zm8.09.73A5.65,5.65,0,0,1,61.57,58,3,3,0,0,1,59,59.17a2.9,2.9,0,0,1-2.22-1.72,6.32,6.32,0,0,1-.23-3.27A1.68,1.68,0,0,1,57,53.11a.8.8,0,0,1,.55-.2,4.89,4.89,0,0,1,2.22.07,7.71,7.71,0,0,1,2.29.38C62.82,53.75,62.8,54.52,62.69,55.26Zm8,.54a3.67,3.67,0,0,1-.83,2,2,2,0,0,1-2.23.43,4.7,4.7,0,0,1-2-1.7c-.37-.53-1-1.34-.81-2s.91-.85,1.51-.91,1-.05,1.57-.09a6.69,6.69,0,0,1,1.43-.56c.55-.12,1.13-.1,1.35.52A4.67,4.67,0,0,1,70.69,55.81Zm7-1.08a1.72,1.72,0,0,1-2,.56,3.63,3.63,0,0,1-1.91-1.87c-.75-1.83,1.3-2.42,2.77-3.09.22-.18.44-.36.69-.53a1.39,1.39,0,0,1,1-.24c.52.06.74.58.79,1A5.87,5.87,0,0,1,77.69,54.73Zm5.39-4.21c-1.06.88-2.54-.19-3-1.29a1.52,1.52,0,0,1,.43-1.76,11,11,0,0,1,2.26-1.69.08.08,0,0,1,.09,0,.78.78,0,0,1,.47-.07c.69.13.9.76.92,1.4A4.66,4.66,0,0,1,83.08,50.52Z"/><path class="cls-37" d="M60.29,25.26c-1.84,0-3.68.06-5.52.09s-3.58-.26-5.23.31l-.45.18a1,1,0,0,0,0,.4A4.81,4.81,0,0,1,50,26a35,35,0,0,1,5.44.17c1.81.07,3.62.09,5.43.07A1.69,1.69,0,0,0,60.29,25.26Z"/><path class="cls-38" d="M71.58,27.14a9,9,0,0,0-4.48-2,32.06,32.06,0,0,0-5.57.11,2.37,2.37,0,0,0,.33.8l.17.22a29.9,29.9,0,0,1,5.14-.06,7.5,7.5,0,0,1,3,1.15A2.74,2.74,0,0,0,71.58,27.14Z"/><path class="cls-37" d="M76.9,32.72c-.45-.49-.89-1-1.33-1.47-.94-1.06-1.87-2.16-2.89-3.14a2.63,2.63,0,0,0-1.16.2,43.62,43.62,0,0,1,3.75,3.83l.94,1A2.66,2.66,0,0,1,76.9,32.72Z"/><path class="cls-38" d="M84.13,40.61a61.15,61.15,0,0,0-4.31-4.78l-2-2.16a1.82,1.82,0,0,0-.73.32c.78.78,1.57,1.56,2.34,2.35a53.83,53.83,0,0,0,4.55,4.44C84.06,40.87,84.22,40.73,84.13,40.61Z"/><path class="cls-38" d="M67.07,31.36a3.68,3.68,0,0,0-2-1.57,4.3,4.3,0,0,0-2.3-.54c-.77.18-1.09,1-1.4,1.66,0,0,0,0,0,0,.47-.44.89-1.06,1.61-1a6,6,0,0,1,1.87.72,3.83,3.83,0,0,1,1.47,1.25,5.61,5.61,0,0,1,.69,3,11.57,11.57,0,0,0,.4,1.3C67.41,34.76,67.47,32.2,67.07,31.36Z"/><path class="cls-37" d="M61.11,40c-.78-2.41-2.08-4.63-4.58-5.36-1-.29-2.36-.8-3.31-.23a7.06,7.06,0,0,0-1.89,2.47s0,.08.07,0c.61-.73,1.05-1.5,2-1.84a2.56,2.56,0,0,1,1.58.14c.58.17,1.16.31,1.74.5,2.26.74,4.42,4,4.22,6.12C60.91,41.94,61.14,40.1,61.11,40Z"/><path class="cls-38" d="M73.51,42.16a10.38,10.38,0,0,0-1.95-2.05,9.63,9.63,0,0,0-2.83-1.86,2.67,2.67,0,0,0-2.53.8A16.4,16.4,0,0,0,63.38,42s0,.11.06.07a22.67,22.67,0,0,1,2.52-2c.94-.63,1.78-1.36,2.92-.81a22,22,0,0,1,2.23,1.52c.82.53,2.31,1.2,2.56,2.6A5.8,5.8,0,0,0,73.51,42.16Z"/><path class="cls-3" d="M38,41.76a31.55,31.55,0,0,1-2.14-3.6c-.79-1.65-1.72-3.49-6.23-4.8s-5.59-.94-7,0-1.39,1.5-2.89,1.69-2.1.56-4.58,2.48S11.79,40.35,10.6,40c-.56-.15-.67.19-.56.75a4.12,4.12,0,0,0,3.11,2.7c2,.38,2.89,3.74,3.46,4.89a6.75,6.75,0,0,0,3.51,3.89,19.23,19.23,0,0,0,10.54,1.31c4.27-.79,5-.52,7.54-3.11s4.05-4.16,2.89-5.81A7.66,7.66,0,0,0,38,41.76Z"/><g class="cls-4"><path class="cls-3" d="M26.47,37.07a16.54,16.54,0,0,1,3.36,2.34,17.8,17.8,0,0,1,1.4,1.52A5.62,5.62,0,0,0,32.29,42a2.9,2.9,0,0,1-.47-1.61c.06-.65.34-1.25.46-1.89a6.31,6.31,0,0,0,.13-2.26,1.32,1.32,0,0,0-1.84-1.12,3.65,3.65,0,0,0-1.5,1.14,3.18,3.18,0,0,1-1,.92c-.8.34-1.69-.31-2.36-.71-.31-.18-.71-.36-.77-.77A6.24,6.24,0,0,1,25,34.5c0-.55,0-2.14-1-1.83s-1,1.7-1.93,2.16a6.14,6.14,0,0,1-2.4.22,6.34,6.34,0,0,0-.7.13,16,16,0,0,1,3.58.37A16.32,16.32,0,0,1,26.47,37.07Z"/></g><g class="cls-9"><path class="cls-3" d="M31.17,40.59a5.56,5.56,0,0,1-.51-1.1c0-.28.23-.57.37-.77a4.3,4.3,0,0,0,.52-1.37.09.09,0,0,1,.15,0c.27.21.23.55.31.85.35-.72.42-2.2-.34-2.57a2.07,2.07,0,0,0-2.32.76c.51-.19.94-.53,1.53-.34.37.12.67.36.44.75a.09.09,0,0,1-.13,0c-.6-.41-1.28.12-1.58.64a2.07,2.07,0,0,1-.62.81c-.26.15-.7-.11-.92-.23l-.17-.09a14.59,14.59,0,0,1,1.92,1.48,17.8,17.8,0,0,1,1.4,1.52l.12.14C31.3,40.91,31.24,40.75,31.17,40.59Z"/></g><g class="cls-9"><path class="cls-3" d="M24.52,33.69c0-.22-.08-.6-.37-.64a.81.81,0,0,0-.59.29A2.33,2.33,0,0,0,23,34c.54-.27,1.31-.43,1.24.42,0,.09-.12,0-.12,0s-.1-.2-.16-.29c-.21-.26-.72.31-.88.47s-.4.64-.68.69a10.8,10.8,0,0,1-1.37,0l-.65,0a12.78,12.78,0,0,1,2.16.31c.46.11.92.25,1.37.41A3.87,3.87,0,0,0,24.52,33.69Z"/></g><g class="cls-4"><path class="cls-3" d="M34.74,36.61A30.46,30.46,0,0,1,35.79,40c.07.32.25.67.1,1s-.45.26-.62.3a3.66,3.66,0,0,0-1.78,1.12,6.18,6.18,0,0,1,2.78-.68,10.16,10.16,0,0,1,1.8.12l.14,0-.21-.1a31.55,31.55,0,0,1-2.14-3.6,7.92,7.92,0,0,0-1.51-2.32A3.94,3.94,0,0,1,34.74,36.61Z"/></g><g class="cls-4"><path class="cls-3" d="M41.43,45.51a2.63,2.63,0,0,1-1.49,1.35,11.77,11.77,0,0,1-2.58.74,3.52,3.52,0,0,1-2.26-.13c-.54-.3-.55-.67-.49-1.24,0-.12.1-.56-.18-.49a3.85,3.85,0,0,0-.63.22,4.63,4.63,0,0,1-1.09.37c-1.17.2-2.76-.46-2.94-1.71-.17.42-.08.91-.31,1.32a1.63,1.63,0,0,1-1,.56,5.47,5.47,0,0,1-3.34-.24,20.86,20.86,0,0,1-3.5-1.59c-1.09-.62-2.12-1.36-3.23-1.93a2.64,2.64,0,0,0-2.06-.25,7.66,7.66,0,0,1-1.63.39A4.77,4.77,0,0,1,11.81,42c-.42-.28-1.6-1.06-1.8-1.74a1.41,1.41,0,0,0,0,.47,4.12,4.12,0,0,0,3.11,2.7c2,.38,2.89,3.74,3.46,4.89a6.75,6.75,0,0,0,3.51,3.89,19.23,19.23,0,0,0,10.54,1.31c4.27-.79,5-.52,7.54-3.11,2.1-2.17,3.52-3.62,3.25-5Z"/></g><g class="cls-11"><path class="cls-3" d="M40.93,46.77a31.91,31.91,0,0,1-2.37,2.28,7.52,7.52,0,0,1-3,1.63,13.41,13.41,0,0,1-3.19.27c-.61,0-1.43,0-1.85-.5s-.14-1.4,0-1.9c.2-.67.53-1.3,1.29-1.39a3.5,3.5,0,0,0,1.74-.42,2.42,2.42,0,0,0,.89-.95c-1,.39-2.1,1-3.24.75a2.18,2.18,0,0,1-1.35-1.13.69.69,0,0,1-.11.58,3.45,3.45,0,0,1-1.2.58c-.48.19-1,.39-1.46.54a4.67,4.67,0,0,1-3,0,14,14,0,0,1-2.89-1.38c-1-.63-2.08-1.23-3.16-1.79A2.61,2.61,0,0,0,17,43.48a3.39,3.39,0,0,0-.87.09,4.76,4.76,0,0,1-1.42.14,9.85,9.85,0,0,1-1.35-.19c1.88.55,2.71,3.73,3.26,4.84a6.75,6.75,0,0,0,3.51,3.89,19.23,19.23,0,0,0,10.54,1.31c4.27-.79,5-.52,7.54-3.11,1.77-1.83,3.06-3.15,3.26-4.35A4,4,0,0,1,40.93,46.77Z"/></g><path class="cls-39" d="M17.13,37.94c-.09-.19-.36-.33-.52-.46,0,0,0,0,0,0a1.28,1.28,0,0,1,.36.56,1.54,1.54,0,0,0-.49.53,3.74,3.74,0,0,0-.34.5c-.1.2-.07.7.29.54s.49-.68.65-1A.76.76,0,0,0,17.13,37.94Z"/><path class="cls-39" d="M17.13,37.94a.82.82,0,0,0-.24-.25c.12.17.32.3.11.73,0,.07,0-.28-.2-.14s-.46.62-.51.69a1.27,1.27,0,0,0-.18.55c0,.1.14.16.3.09.38-.17.49-.68.65-1A.76.76,0,0,0,17.13,37.94Z"/><path class="cls-39" d="M20.52,38.22a2,2,0,0,0-.92,1.26c0,.15-.08,1.07.33.78a2.1,2.1,0,0,0,.5-1.64.13.13,0,0,0,0,0,1.21,1.21,0,0,1,.27-.2c.26-.13.36.19.44.35s0,0,0,0C21.06,38.39,21,38,20.52,38.22Z"/><path class="cls-39" d="M20.44,38.39c.12-.09.32-.23.47-.13l.12.07c-.1-.18-.24-.28-.51-.11a2,2,0,0,0-.92,1.26c0,.15-.08,1.07.33.78l0,0a1.64,1.64,0,0,0,.24-1.44C20.13,38.6,20.27,38.52,20.44,38.39Z"/><g class="cls-11"><path class="cls-3" d="M33.63,46.14a4.71,4.71,0,0,1-2.45.24,2.57,2.57,0,0,1-1.58-1.76,0,0,0,0,0,0,0A2.3,2.3,0,0,0,30.18,46a5.79,5.79,0,0,0-1.72.62,4.52,4.52,0,0,1-2.42.55,17,17,0,0,1-2.4-.68c-.75-.24-1.5-.5-2.23-.81s-1.41-.63-2.09-1-1.25-.79-1.91-1.14a1.93,1.93,0,0,0-1.7,0,6,6,0,0,1-2.56-.12,0,0,0,0,0,0,.06,9.38,9.38,0,0,0,2.13.34,3.21,3.21,0,0,0,.84-.22,1.56,1.56,0,0,1,1.32.16c.66.35,1.26.79,1.92,1.14a23.44,23.44,0,0,0,2.22,1c.74.3,1.49.56,2.24.8a16.62,16.62,0,0,0,2.31.64,4,4,0,0,0,2-.42,8.61,8.61,0,0,1,2.18-.83,2,2,0,0,0,.57.36,2.91,2.91,0,0,0,1.27.14,2.85,2.85,0,0,0,1.51-.43A.06.06,0,0,0,33.63,46.14Z"/></g><path class="cls-40" d="M28.16,47h0a4,4,0,0,1-2,.42,16.62,16.62,0,0,1-2.31-.64c-.76-.24-1.51-.5-2.24-.8a23.44,23.44,0,0,1-2.22-1c-.65-.35-1.26-.8-1.92-1.14a1.56,1.56,0,0,0-1.32-.16c-.16.06-.34.12-.51.17l-.18,0a10.27,10.27,0,0,1,1.42,1.56A14.37,14.37,0,0,1,18,47.88a4,4,0,0,0,1.44,1.83,5.62,5.62,0,0,0,2.23.7c1.42.21,3.17.52,4.49-.22a4.12,4.12,0,0,0,1.45-1.85,10.3,10.3,0,0,1,.66-1.13,3.13,3.13,0,0,1,.35-.42Z"/><g class="cls-41"><path class="cls-40" d="M28.16,47h0a4,4,0,0,1-2,.42,16.62,16.62,0,0,1-2.31-.64c-.76-.24-1.51-.5-2.24-.8a23.44,23.44,0,0,1-2.22-1c-.65-.35-1.26-.8-1.92-1.14a1.56,1.56,0,0,0-1.32-.16c-.16.06-.34.12-.51.17l-.18,0c.24.22.47.45.69.68a1,1,0,0,1,.21-.16,2,2,0,0,1,1.35,0,8.21,8.21,0,0,1,1.3.53,8.89,8.89,0,0,1,3.24,2.2,1.26,1.26,0,0,1,.26,1.32,2.09,2.09,0,0,1-1.61,1,3.75,3.75,0,0,1-2.31-.61,3.25,3.25,0,0,0,.89.86,5.62,5.62,0,0,0,2.23.7c1.42.21,3.17.52,4.49-.22a4.12,4.12,0,0,0,1.45-1.85,10.3,10.3,0,0,1,.66-1.13,3.13,3.13,0,0,1,.35-.42Z"/></g><path class="cls-42" d="M25.44,47.27c-.54-.14-1.08-.33-1.61-.49-.76-.24-1.51-.5-2.24-.8a23.44,23.44,0,0,1-2.22-1c-.59-.32-1.13-.7-1.71-1l-.18-.1c.09.37.2.73.33,1.09a7.91,7.91,0,0,0,.58,1.4,3.46,3.46,0,0,0,2.51,1.22,10.57,10.57,0,0,0,3.48.25,7.76,7.76,0,0,0,1.5-.4Z"/><path class="cls-14" d="M25.44,47.27c-.54-.14-1.08-.33-1.61-.49-.76-.24-1.51-.5-2.24-.8a23.44,23.44,0,0,1-2.22-1c-.59-.32-1.13-.7-1.71-1l-.18-.1c.09.37.2.73.33,1.09a7.91,7.91,0,0,0,.58,1.4,3.46,3.46,0,0,0,2.51,1.22,10.57,10.57,0,0,0,3.48.25,7.76,7.76,0,0,0,1.5-.4Zm-1.82.26a9.8,9.8,0,0,1-3.8-.54c-.62-.23-1.32-1.12-1.07-1.83a.09.09,0,0,1,.11-.06,4.47,4.47,0,0,1,.75.41A31,31,0,0,0,23,46.65c.28.1,1,.27,1.12.61S23.76,47.53,23.62,47.53Z"/><path class="cls-43" d="M24.23,48.32a5.29,5.29,0,0,0-2.78,2.05l.17,0h.07c1.42.21,3.17.52,4.49-.22a4.12,4.12,0,0,0,1.45-1.85l.08-.15.11-.2A7.17,7.17,0,0,0,24.23,48.32Z"/><path class="cls-44" d="M26.09,47.92a.75.75,0,0,1,.16.15c.5.65-.22,1.49-.81,1.77a3.56,3.56,0,0,1-1.37.32,4,4,0,0,1-1.34,0c-.21-.06-.62-.21-.62-.49a.46.46,0,0,1,0-.06,4.32,4.32,0,0,0-.66.8l.17,0h.07c1.42.21,3.17.52,4.49-.22a4.12,4.12,0,0,0,1.45-1.85l.08-.15.11-.2A6,6,0,0,0,26.09,47.92Z"/><g class="cls-11"><path class="cls-3" d="M31.24,40.59a11.3,11.3,0,0,0-2.17-2.07,17.89,17.89,0,0,0-3-1.75,14.67,14.67,0,0,0-7-1.66s0,.06,0,.06a20,20,0,0,1,3.43.51,20.63,20.63,0,0,1,3.38,1.25,18.15,18.15,0,0,1,3.1,1.77A26.92,26.92,0,0,1,31.46,41,2.3,2.3,0,0,0,31.24,40.59Z"/></g><g class="cls-11"><path class="cls-3" d="M39.13,42.41a3.9,3.9,0,0,0-4.7-.4s0,0,0,0a7.09,7.09,0,0,1,2.27-.37,4.31,4.31,0,0,1,2.39.77S39.15,42.42,39.13,42.41Z"/></g><path class="cls-45" d="M31.7,35.12c-.63-.48-1.69.19-2.07.72a0,0,0,0,0,.06.07l0,0h0c.46-.18,1.38-.45,1.83-.13s.43,1,.52,1.43a.06.06,0,0,0,.08,0,.05.05,0,0,0,.09,0A2.33,2.33,0,0,0,31.7,35.12Z"/><path class="cls-45" d="M24.7,33.56c0-.23,0-.55-.26-.68-.4-.24-1,.28-1.11.64a1.27,1.27,0,0,0-.18.25c0,.05,0,.09.08.05a.91.91,0,0,1,.79-.35c.45.08.48.75.52,1.09a.05.05,0,0,0,.11,0,1.32,1.32,0,0,0,0-.44A2.89,2.89,0,0,0,24.7,33.56Z"/><path d="M30.74,36.9c.54,0,.06,1.22-.3,1.65s-.54.62-1,.24S30,36.92,30.74,36.9Z"/><path d="M23.11,35.68l.29.11c.35-.38.81-1.16.47-1.24s-1.09.49-1.31,1C22.74,35.55,22.92,35.61,23.11,35.68Z"/><ellipse class="cls-46" cx="30.61" cy="37.53" rx="0.49" ry="0.19" transform="translate(-15.27 53.05) rotate(-69.49)"/><ellipse class="cls-46" cx="23.65" cy="35" rx="0.35" ry="0.15" transform="translate(-18.36 39.44) rotate(-61.97)"/><g class="cls-47"><path class="cls-3" d="M25.51,51.61c-1.48.24-5.09-.66-6-1S18,48.84,18,48.84c.32,3.15,5.65,3.55,7.8,3.43,1.79-.1,2.21-1.32,2.53-2.44A3.78,3.78,0,0,1,25.51,51.61Z"/></g><path class="cls-16" d="M31.68,41.54a20.27,20.27,0,0,0-7.48-5,11.86,11.86,0,0,0-4.48-1.08c-1.58,0-2.71,1-3.89,1.94a0,0,0,0,0,0,.08c.6-.22,1.14-.6,1.72-.88a5.37,5.37,0,0,1,2.18-.51,12.88,12.88,0,0,1,4.46,1,21.34,21.34,0,0,1,7.39,4.53S31.71,41.58,31.68,41.54Z"/><path class="cls-16" d="M39.93,43.68c-1.49-2.44-5-2.36-6.95-.57,0,0,0,0,0,0a6.51,6.51,0,0,1,3.48-.65,5.48,5.48,0,0,1,1.73.39,13.71,13.71,0,0,1,1.63.91C39.91,43.82,40,43.73,39.93,43.68Z"/><path class="cls-16" d="M14.9,42.37a.58.58,0,0,0-.18.13s0,0,0,0a1.19,1.19,0,0,1,.19-.1A0,0,0,1,0,14.9,42.37Z"/><path class="cls-16" d="M14.39,42.51c-1.73.24-2.67-1.24-3.95-2.08a.16.16,0,0,0-.21.25c1.09,1,2.57,2.4,4.17,1.9C14.44,42.56,14.43,42.5,14.39,42.51Z"/><path class="cls-16" d="M23.77,45.23c-.48-.29-1-.48-1.5-.72a16,16,0,0,1-2-1.39A4.56,4.56,0,0,0,17.46,42s0,.06,0,.06a7.1,7.1,0,0,1,3.37,1.68c.93.64,2,1,2.93,1.53C23.78,45.27,23.79,45.24,23.77,45.23Z"/><path class="cls-16" d="M28.5,45.55a5.33,5.33,0,0,1-3.87.14s0,0,0,0a4.64,4.64,0,0,0,3.93,0A.08.08,0,0,0,28.5,45.55Z"/><path class="cls-16" d="M32.25,45.34c0-.23-.26-.49-.76-.76-1-.53-1.94.41-.83,1.08C31.45,46.15,32.34,45.86,32.25,45.34Z"/><path class="cls-16" d="M33.46,45.54c-.28-.09-.81.09-.61.39s.89,0,.76-.27A.22.22,0,0,0,33.46,45.54Z"/></g></g></g></svg>