<svg xmlns="http://www.w3.org/2000/svg" viewBox="0 0 100 100"><defs><style>.cls-1{isolation:isolate;}.cls-2{fill:#b7e5d3;}.cls-3{fill:#c0c3c2;}.cls-13,.cls-4,.cls-6{fill:#8d7b63;}.cls-12,.cls-4{opacity:0.3;}.cls-10,.cls-11,.cls-12,.cls-4,.cls-6,.cls-8{mix-blend-mode:multiply;}.cls-5{fill:#d1d1d1;}.cls-6{opacity:0.7;}.cls-7,.cls-8{fill:#d0725b;}.cls-8{opacity:0.4;}.cls-9{fill:#151000;}.cls-10,.cls-11,.cls-14{fill:#a6a291;}.cls-10{opacity:0.6;}.cls-15{fill:#452c00;}.cls-16{fill:#e88f7c;mix-blend-mode:screen;}</style></defs><title>Asset 17</title><g class="cls-1"><g id="Layer_2" data-name="Layer 2"><g id="Layer_1-2" data-name="Layer 1"><rect class="cls-2" width="100" height="100"/><path class="cls-3" d="M83.9,60.86a3.94,3.94,0,0,0,.7-.16.15.15,0,0,0,.07-.22,4,4,0,0,0-2-1.63,3.54,3.54,0,0,0-1.79-.2c.1-.18.19-.37.29-.55s-.06-.19-.15-.17a3.13,3.13,0,0,0-1.4.7,4.31,4.31,0,0,1-.3-1,.12.12,0,0,0-.21-.07,11.67,11.67,0,0,0-1.41,2.14,5,5,0,0,0-1,1.38c-.21.38-.39.77-.57,1.16-.55,1.2-1,2.42-1.48,3.67a15.94,15.94,0,0,0-.91,3.53c0,.44-.11,1.5.52,1.59a3.59,3.59,0,0,0,2.58.15,10.65,10.65,0,0,0,1.49-.66l.53-.25c-.1.17-.21.32-.32.48s0,.29.14.26c1.31-.23,2.85-.24,3.95-1.08a4.19,4.19,0,0,0,1-1.14c.38-.62.75-1.25,1.08-1.9C85.65,65,85.66,62.27,83.9,60.86Z"/><path class="cls-4" d="M83.9,60.86a3.94,3.94,0,0,0,.7-.16.15.15,0,0,0,.07-.22l-.05-.07a12.38,12.38,0,0,0-1.5.1c1.23.71,2.31,2.41,1.82,3.8-.12.34-1.05,2.66-1.57,1.74-.37.26-.7.58-1.05.86a.09.09,0,0,1-.15,0c-.1-.45,0-.9-.11-1.35-.7.39-2.27,1.6-2.15,0,0-.36.09-.71.15-1.06s0-.82.08-1.23a6.17,6.17,0,0,1,.77-2.36,8.42,8.42,0,0,0-1,.13c-.05,0-.11,0-.11-.09a2.53,2.53,0,0,1,.46-1.33c-.39.09-1,.26-1.19-.08a2.82,2.82,0,0,1,.1-2l0,0a11.67,11.67,0,0,0-1.41,2.14,5,5,0,0,0-1,1.38c-.21.38-.39.77-.57,1.16-.55,1.2-1,2.42-1.48,3.67a15.94,15.94,0,0,0-.91,3.53c0,.44-.11,1.5.52,1.59a3.59,3.59,0,0,0,2.58.15,10.65,10.65,0,0,0,1.49-.66l.53-.25c-.1.17-.21.32-.32.48s0,.29.14.26c1.31-.23,2.85-.24,3.95-1.08a4.19,4.19,0,0,0,1-1.14c.38-.62.75-1.25,1.08-1.9C85.65,65,85.66,62.27,83.9,60.86Z"/><path class="cls-4" d="M83.91,68.21A4.62,4.62,0,0,1,82,69.78a9.8,9.8,0,0,1-2.36.54.09.09,0,0,1-.07-.13c.39-.73.86-1.43,1.22-2.18-.54.45-1,.94-1.61,1.34a4.14,4.14,0,0,1-1.58.76c-.93.14.42-2.22.52-2.43a9.57,9.57,0,0,0,1-5.67c-.19-.91-.51-1.79-.63-2.71a2.61,2.61,0,0,1,.09-1c-.32.46-.59,1-.88,1.45a5,5,0,0,0-1,1.38c-.21.38-.39.77-.57,1.16-.55,1.2-1,2.42-1.48,3.67a15.94,15.94,0,0,0-.91,3.53c0,.44-.11,1.5.52,1.59a3.59,3.59,0,0,0,2.58.15,10.65,10.65,0,0,0,1.49-.66l.53-.25c-.1.17-.21.32-.32.48s0,.29.14.26c1.31-.23,2.85-.24,3.95-1.08a4.19,4.19,0,0,0,1-1.14l.46-.77Z"/><path class="cls-3" d="M78.42,59.75a14.41,14.41,0,0,0-2.93-6.14A25.88,25.88,0,0,0,73,51a13.38,13.38,0,0,0-1.46-1.18l0-.05a24.2,24.2,0,0,0-5.79-4.49,11.28,11.28,0,0,0-7.1-1.74,12,12,0,0,0-3.51,1.23c-1.09.55-2,1.31-3.07,2a14.3,14.3,0,0,1-3,1.37,17.28,17.28,0,0,0-1.7-.63,20.65,20.65,0,0,0-3.92-.75,41.82,41.82,0,0,0-7.79,0,15.18,15.18,0,0,0-6.81,2,18.35,18.35,0,0,0-4,3.59,14.64,14.64,0,0,0-2.5,4l-.73.86A17.66,17.66,0,0,0,20,59.09a15.8,15.8,0,0,0-.83,2.09.06.06,0,0,0,0,.06,0,0,0,0,0,0,0,1.18,1.18,0,0,0,.5-.13,8,8,0,0,0-1.4,2.31,3.88,3.88,0,0,0-.6,2.11,4.16,4.16,0,0,0,.4,1c.19.4.34.82.51,1.22v0a0,0,0,0,0,0,0l0,.07a.06.06,0,0,0,.11,0,1.65,1.65,0,0,0,0-.22A4,4,0,0,1,19,67a3.9,3.9,0,0,0,1.1,3A9.19,9.19,0,0,0,22,71.42l.61.33a19.28,19.28,0,0,0,1.1,3.15A12.26,12.26,0,0,0,25.53,78c.79.94,1.78,1.72,2.65,2.58a12.13,12.13,0,0,1,1.43,1.57c.2.28.38.58.56.89a4.32,4.32,0,0,0-.37.74,4.88,4.88,0,0,0-1.47-1,2.13,2.13,0,0,0-1.59-.24,1.12,1.12,0,0,0-.63.87c-.87,0-1.66,0-2.14.87A4.35,4.35,0,0,0,23.81,87a2.86,2.86,0,0,0,1.42,2.08,1.83,1.83,0,0,0,1.65-.2,1.4,1.4,0,0,0,.37.15,4,4,0,0,0,1.57.11,2.8,2.8,0,0,0,1.5.55,3,3,0,0,0,1.33-.23.06.06,0,0,0,.09,0,8.34,8.34,0,0,0,3.8-4.38,3.08,3.08,0,0,0,.1-1.13,12.17,12.17,0,0,0,1.31,1,3.53,3.53,0,0,0,1,.41c-.2.35-.37.72-.56,1.1a2,2,0,0,0,0,1.9,3.5,3.5,0,0,0,1.53,1.41,1.8,1.8,0,0,0,1.43,0A1.32,1.32,0,0,0,41.4,90a3.21,3.21,0,0,0,1.29-.64l.24-.18c1.56,1,3.71,0,4.69-1.36a3.55,3.55,0,0,0,.55-2.59,4.34,4.34,0,0,0-.18-.89,4.48,4.48,0,0,0,3.29.53,12.82,12.82,0,0,0,1.93-1,6.6,6.6,0,0,1,1.5-.53,2.77,2.77,0,0,0-.06,2.32,4.44,4.44,0,0,0,1.7,1.43,1.65,1.65,0,0,0,1.58.11l.22.21a1.71,1.71,0,0,0,1.81.14A1.34,1.34,0,0,0,61,88a6.8,6.8,0,0,0,1.76-.24c.74-.16,1.49-.26,2.25-.35a20.49,20.49,0,0,0,4-.79,5.35,5.35,0,0,0,2.78-2.08.08.08,0,0,0,0-.08c.12-.13.23-.26.33-.4a6,6,0,0,0,.66-1.83,21.64,21.64,0,0,0,1.06-4.17c.08-.65.15-1.31.18-2a2.58,2.58,0,0,0-.36-1.66.78.78,0,0,0-.9-.23c.46-.59,1.08-1.06,1.5-1.69l1.33-2.07.38-.56c.16-.14.31-.28.46-.43a6.54,6.54,0,0,0,1.54-3,14.94,14.94,0,0,0,.75-3.33A12.93,12.93,0,0,0,78.42,59.75Z"/><path class="cls-4" d="M51.72,50c2,1.12,4.06,2.12,6.14,3.09a6.89,6.89,0,0,0-.79-.54,25.87,25.87,0,0,1-2.69-1.58,3.87,3.87,0,0,1-1.45-1.58c-.54-1.43.76-3,1.82-3.84a22.63,22.63,0,0,1,2.86-1.76,14,14,0,0,0-2.56,1c-1.09.55-2,1.31-3.07,2a14.3,14.3,0,0,1-3,1.37,17.28,17.28,0,0,0-1.7-.63l-.2-.06C48.69,48.15,50.19,49.12,51.72,50Z"/><path class="cls-4" d="M78.42,59.75a14.4,14.4,0,0,0-2.24-5.22A13.79,13.79,0,0,1,76.92,56a7.52,7.52,0,0,1,.54,5.6,11.73,11.73,0,0,1-1.85,2.85c-.74,1-1.5,1.91-2.3,2.82a38.18,38.18,0,0,1-5.42,5.22A20.33,20.33,0,0,1,62.22,76a5.5,5.5,0,0,1-1.55.3,1.5,1.5,0,0,1-1-.2c-.49-.41,0-1.28.15-1.74a26.7,26.7,0,0,1,3.85-6.3c.71-.95,1.45-1.87,2.21-2.78.31-.38.62-.75.91-1.15a14.09,14.09,0,0,1-1.47,1.43,17.62,17.62,0,0,1-1.6,1.23,1.86,1.86,0,0,1-1.36.43.09.09,0,0,1-.06-.11A7.78,7.78,0,0,0,62.7,66c-.55.56-1.07,1.43-1.84,1.61s-1.5-.69-1.82-1.4a4.31,4.31,0,0,0-.91-1.45,3.7,3.7,0,0,1-.8-1.35,11.19,11.19,0,0,0-1.68-3.54.09.09,0,0,1,.09-.15,3,3,0,0,1,1.4.81c-.81-1.68-2.6-3.06-4.5-2.72,1.1.31,2.51.47,3.09,1.53a.09.09,0,0,1-.1.13A9.84,9.84,0,0,0,54,59.07c3,2.1-.15,6.21-2.29,7.71a.09.09,0,0,1-.13-.05c-.28-1.53-.07-3.85-1.62-4.75.63,3.25.1,7.74-3.51,8.93a.09.09,0,0,1-.11-.09,13.86,13.86,0,0,0-.19-2.75,21.66,21.66,0,0,1-2.78,3.11.09.09,0,0,1-.15-.06,12.2,12.2,0,0,0-.08-2.07,17.57,17.57,0,0,1-1.95,2.44c-.4.41-.8.81-1.23,1.18s-.95.74-1.37,1.16-1.11,1.13-1.92.78-1.32-.75-2-1.08C32.35,72.47,28.51,71,28.4,68a26.7,26.7,0,0,0-1.12,2.57.09.09,0,0,1-.13.05A26.56,26.56,0,0,1,24.58,69a22.81,22.81,0,0,1-2.2-1.39,3.72,3.72,0,0,1-1.51-2.06,3,3,0,0,1,.26-1.81,9.17,9.17,0,0,0-2,2.18.09.09,0,0,1-.16,0c-.52-2.53,1-4.86,3-6.26a7.46,7.46,0,0,0-2.08.9.09.09,0,0,1-.12-.12,11,11,0,0,1,1.65-2.2,2.51,2.51,0,0,1,.94-.6c.18-.06.47-.2.62,0a2.84,2.84,0,0,1,.17.33c.14.22.31.44.44.67a9.1,9.1,0,0,0,1,1.51A7.63,7.63,0,0,0,27.6,62c1.13.45,2.29.85,3.44,1.27a6.56,6.56,0,0,0,3.91.45c2.19-.54,3.82-2.25,5.64-3.47,2.07-1.39,4.31-2.47,6-4.32a30.81,30.81,0,0,0,2.6-3.25c.35-.5.72-1,1.07-1.51A3.53,3.53,0,0,0,51,49.75a30,30,0,0,0-5.05-2.62,23,23,0,0,0-2.53-.39,41.82,41.82,0,0,0-7.79,0,15.18,15.18,0,0,0-6.81,2,18.35,18.35,0,0,0-4,3.59,14.64,14.64,0,0,0-2.5,4l-.73.86A17.66,17.66,0,0,0,20,59.09a15.8,15.8,0,0,0-.83,2.09.06.06,0,0,0,0,.06,0,0,0,0,0,0,0,1.18,1.18,0,0,0,.5-.13,8,8,0,0,0-1.4,2.31,3.88,3.88,0,0,0-.6,2.11,4.16,4.16,0,0,0,.4,1c.19.4.34.82.51,1.22v0a0,0,0,0,0,0,0l0,.07a.06.06,0,0,0,.11,0,1.65,1.65,0,0,0,0-.22A4,4,0,0,1,19,67a3.9,3.9,0,0,0,1.1,3A9.19,9.19,0,0,0,22,71.42l.61.33a19.28,19.28,0,0,0,1.1,3.15A12.26,12.26,0,0,0,25.53,78c.79.94,1.78,1.72,2.65,2.58a12.13,12.13,0,0,1,1.43,1.57c.2.28.38.58.56.89a4.32,4.32,0,0,0-.37.74,4.5,4.5,0,0,0-.75-.62.57.57,0,0,1-.21,0c-.8,0-1,.34-1.13,1.06a4.7,4.7,0,0,1-.53,1.63.55.55,0,0,1-.74.2c-1.24-.86-.44-2.14-.07-3.3a1.61,1.61,0,0,0-.27.6h-.29a1.55,1.55,0,0,0-.4,1.16c.07.61.18,1.52-.57,1.77-.58.2-1-.27-1.18-.77A6.12,6.12,0,0,0,23.81,87a2.86,2.86,0,0,0,1.42,2.08,1.83,1.83,0,0,0,1.65-.2,1.4,1.4,0,0,0,.37.15,4,4,0,0,0,1.57.11,2.8,2.8,0,0,0,1.5.55,3,3,0,0,0,1.33-.23.06.06,0,0,0,.09,0,8.34,8.34,0,0,0,3.8-4.38,3.08,3.08,0,0,0,.1-1.13,12.17,12.17,0,0,0,1.31,1,3.53,3.53,0,0,0,1,.41c-.2.35-.37.72-.56,1.1a2,2,0,0,0,0,1.9,3.5,3.5,0,0,0,1.53,1.41,1.8,1.8,0,0,0,1.43,0A1.32,1.32,0,0,0,41.4,90a3.21,3.21,0,0,0,1.29-.64l.24-.18c1.56,1,3.71,0,4.69-1.36a3.55,3.55,0,0,0,.55-2.59,4.34,4.34,0,0,0-.18-.89,4.48,4.48,0,0,0,3.29.53,12.82,12.82,0,0,0,1.93-1,6.6,6.6,0,0,1,1.5-.53,2.77,2.77,0,0,0-.06,2.32,4.44,4.44,0,0,0,1.7,1.43,1.65,1.65,0,0,0,1.58.11l.22.21a1.71,1.71,0,0,0,1.81.14A1.34,1.34,0,0,0,61,88a6.8,6.8,0,0,0,1.76-.24c.74-.16,1.49-.26,2.25-.35a20.49,20.49,0,0,0,4-.79,5.35,5.35,0,0,0,2.78-2.08.08.08,0,0,0,0-.08c.12-.13.23-.26.33-.4a6,6,0,0,0,.66-1.83,21.64,21.64,0,0,0,1.06-4.17c.08-.65.15-1.31.18-2a2.58,2.58,0,0,0-.36-1.66.78.78,0,0,0-.9-.23c.46-.59,1.08-1.06,1.5-1.69l1.33-2.07.38-.56c.16-.14.31-.28.46-.43a6.54,6.54,0,0,0,1.54-3,14.94,14.94,0,0,0,.75-3.33A12.93,12.93,0,0,0,78.42,59.75ZM31.06,85a3.61,3.61,0,0,1-1,1.65.77.77,0,0,1-1.22-.34,1.25,1.25,0,0,1,.29-1.52,1.41,1.41,0,0,1,.33-.16h0l.15,0h.07a3.1,3.1,0,0,1,1.21.07.16.16,0,0,1,.13.18A.2.2,0,0,1,31.06,85Zm9.06,0c-.24.41-.6,1-1.1,1.08a.42.42,0,0,1-.55-.45,2.75,2.75,0,0,1,1.34-2.32.15.15,0,0,1,.19.05.36.36,0,0,1,.46.27A1.93,1.93,0,0,1,40.12,85Zm4.06-1c-.39.67-1,2.27-2,2.21-1.54-.1.45-3.43,1.3-3.69a.17.17,0,0,1,.15,0C44.39,82.32,44.55,83.39,44.18,84ZM48,85.09a1.62,1.62,0,0,1-.42,1.2c-.28.24-.59,0-.71-.29-.28-.64-.52-1.9.28-2.28a.21.21,0,0,1,.29.16.31.31,0,0,1,.27.09A1.44,1.44,0,0,1,48,85.09Z"/><path class="cls-4" d="M74.35,71.39c-1.14,1.51-2.27,3-3.55,4.41a50.36,50.36,0,0,1-4,3.85,13.09,13.09,0,0,0,3.8-2.23A16.66,16.66,0,0,0,72,76a4,4,0,0,1,1-.89c.81-.43.48,1.67.46,1.95a14.81,14.81,0,0,1-.68,4,5.3,5.3,0,0,1-1.58,2.42,6,6,0,0,1-2.85,1.06c-1.24.21-2.48.44-3.72.61-.67.09-1.35.17-2,.21a4.68,4.68,0,0,1-1.41.06,1.24,1.24,0,0,1-.69-1.79,2.08,2.08,0,0,1,2.21-1.24c1.08.09,2.11.48,3.18.64a5.33,5.33,0,0,0,3-.3,5.65,5.65,0,0,1-1.81,0c-.09,0-.08-.15,0-.17a9.58,9.58,0,0,0,4.13-1.77,12.62,12.62,0,0,1-3.2.7,50.8,50.8,0,0,1-6.43,0c-1.34,0-3.11-.12-4-1.25a2.81,2.81,0,0,1-.39-2.2,13.6,13.6,0,0,1,1.11-3.47,39.42,39.42,0,0,1,3-5.93A12.63,12.63,0,0,1,59,70.79a.09.09,0,0,1-.12,0c-.69-1-.54-2.46-.61-3.57s-.08-3-1.4-3.4a.09.09,0,0,1-.07-.09,13.09,13.09,0,0,0-.69-3.2,4.8,4.8,0,0,0-.47-.63.09.09,0,0,1,.09-.15,3,3,0,0,1,1.4.81c-.81-1.68-2.6-3.06-4.5-2.72,1.1.31,2.51.47,3.09,1.53a.09.09,0,0,1-.1.13c-.44-.1-.86-.29-1.29-.37a4.63,4.63,0,0,1,1.61,4.06c-.23,1.69-1.43,3-2.12,4.53a31.29,31.29,0,0,0,2.92-2.35.09.09,0,0,1,.12,0,3,3,0,0,1,.47,1.44c.08.59.19,1.18.23,1.78,0,.43,0,.88.07,1.3s.12.83.16,1.24a3,3,0,0,1-.31,1.82,8.88,8.88,0,0,1-1.33,1.54c-.53.54-1.06,1.08-1.62,1.59a34.41,34.41,0,0,1-3.65,2.85Q49.3,80,47.63,81a17.67,17.67,0,0,1-1.65.92,1.29,1.29,0,0,1-1.05,0,2.48,2.48,0,0,1-1.46-1.85,2.15,2.15,0,0,1,.84-1.59c1.22-1.13,2.85-1.69,4.07-2.8,1.75-1.6,2.63-3.85,3.53-6-1,1-1.66,2.4-3,2.9a11.81,11.81,0,0,1-1.26.83c-1.23.74-2.51,1.4-3.8,2a.09.09,0,0,1-.13-.1,3.93,3.93,0,0,0,.16-1.4,6.63,6.63,0,0,1-1.37,2,10.89,10.89,0,0,1-2.3,1.36c-.55.26-1.13.47-1.68.74s-1.23.56-1.36,1.13a.09.09,0,0,1-.13.05c-.74-.32-1.42-.76-2.16-1.09s-1.58-.53-2.36-.85a7.45,7.45,0,0,1-1.9-1,3.64,3.64,0,0,1-.92-1.25,5.27,5.27,0,0,1-1.32-1.37,6.22,6.22,0,0,1-.64-1.8,7.55,7.55,0,0,1-.28,2,.09.09,0,0,1-.1,0A11,11,0,0,1,24.6,72a26,26,0,0,0-3.16-2.3c-.91-.54-1.93-1.06-2.12-2.2a3.48,3.48,0,0,1,.56-2.11A16.11,16.11,0,0,0,18.76,67a.09.09,0,0,1-.15,0,6.53,6.53,0,0,1-.94-1.79,1.42,1.42,0,0,0,0,.37,4.16,4.16,0,0,0,.4,1c.19.4.34.82.51,1.22v0a0,0,0,0,0,0,0l0,.07a.06.06,0,0,0,.11,0,1.65,1.65,0,0,0,0-.22A4,4,0,0,1,19,67a3.9,3.9,0,0,0,1.1,3A9.19,9.19,0,0,0,22,71.42l.61.33a19.28,19.28,0,0,0,1.1,3.15c.17.4.35.8.54,1.19a3.13,3.13,0,0,1-.24-2.35c.49-.92,1.66,0,2.19.39a6.73,6.73,0,0,1,1.36,1.09c.4.49.62,1.09,1,1.61,0-.17,0-.34,0-.51a.09.09,0,0,1,.16,0,4.37,4.37,0,0,0,.3.45,2.45,2.45,0,0,0,0-.51c0-.11.14-.16.17,0,.39,1.69,2.58,1.43,3.41,2.76s.74,3.14,1.36,4.62c0,.08-.07.14-.13.1a4.79,4.79,0,0,0-1.87-.5,3,3,0,0,1-1.13-.29l-1.27-.72,0,0c.2.28.38.58.56.89a4.32,4.32,0,0,0-.37.74l-.21-.19a.1.1,0,0,1-.13.07c-1.18-.54-1.81,1.32-1.79,2.18,0,.56.1,2.19-.91,2-.38-.09-.64-.64-.76-1a4.67,4.67,0,0,1-.27-1.6A6.29,6.29,0,0,1,26,83.41h-.16a3.47,3.47,0,0,0-.46,1.5,10.91,10.91,0,0,0,.12,1.23c0,.42.1,1.41-.59,1.33s-1-.88-1.13-1.46a3,3,0,0,1,0-1.15,5.19,5.19,0,0,0,0,2.1,2.86,2.86,0,0,0,1.42,2.08,1.83,1.83,0,0,0,1.65-.2,1.4,1.4,0,0,0,.37.15,4,4,0,0,0,1.57.11,2.8,2.8,0,0,0,1.5.55,3,3,0,0,0,1.33-.23.06.06,0,0,0,.09,0,8.34,8.34,0,0,0,3.8-4.38,3.08,3.08,0,0,0,.1-1.13,12.17,12.17,0,0,0,1.31,1,3.53,3.53,0,0,0,1,.41c-.2.35-.37.72-.56,1.1a2,2,0,0,0,0,1.9,3.5,3.5,0,0,0,1.53,1.41,1.8,1.8,0,0,0,1.43,0A1.32,1.32,0,0,0,41.4,90a3.21,3.21,0,0,0,1.29-.64l.24-.18c1.56,1,3.71,0,4.69-1.36a3.55,3.55,0,0,0,.55-2.59,4.34,4.34,0,0,0-.18-.89,4.48,4.48,0,0,0,3.29.53,12.82,12.82,0,0,0,1.93-1,6.6,6.6,0,0,1,1.5-.53,2.77,2.77,0,0,0-.06,2.32,4.44,4.44,0,0,0,1.7,1.43,1.65,1.65,0,0,0,1.58.11l.22.21a1.71,1.71,0,0,0,1.81.14A1.34,1.34,0,0,0,61,88a6.8,6.8,0,0,0,1.76-.24c.74-.16,1.49-.26,2.25-.35a20.49,20.49,0,0,0,4-.79,5.35,5.35,0,0,0,2.78-2.08.08.08,0,0,0,0-.08c.12-.13.23-.26.33-.4a6,6,0,0,0,.66-1.83,21.64,21.64,0,0,0,1.06-4.17c.08-.65.15-1.31.18-2a2.58,2.58,0,0,0-.36-1.66.78.78,0,0,0-.9-.23c.46-.59,1.08-1.06,1.5-1.69l1.33-2.07.38-.56c.16-.14.31-.28.46-.43a6.54,6.54,0,0,0,1.54-3c.16-.53.32-1.05.45-1.58A33.11,33.11,0,0,1,74.35,71.39ZM31.92,85.07h-.06c-1.42.09-1.06,1.63-1.65,2.52s-1.27.3-1.52-.47-.19-2.12.69-2.51A3.6,3.6,0,0,1,32,84.9C32.07,84.94,32,85.11,31.92,85.07Zm7.94,1.15c-.19.46-.43,1.13-.93,1.34a.75.75,0,0,1-1.05-.35c-.3-.84.31-2,.72-2.69s1-1.65,1.74-1.08C41.35,83.86,40.1,85.63,39.86,86.22Zm4.42-1.6a10.92,10.92,0,0,1-.92,2.09A3.36,3.36,0,0,1,42,88.12a.82.82,0,0,1-1.15-.28A2.76,2.76,0,0,1,41,86.1c.37-1.36,1-3,2.47-3.52a.08.08,0,0,1,.09,0,1.09,1.09,0,0,1,.49-.06.56.56,0,0,1,.45.36A2.71,2.71,0,0,1,44.28,84.62Zm3.76.55c0,.71-.15,1.88-.87,2.25-.27.14-.7.22-.89-.1a.85.85,0,0,1,0-.5,4.9,4.9,0,0,0,0-.88,2.84,2.84,0,0,1,.14-1.67,1.11,1.11,0,0,1,1.06-.56.09.09,0,0,1,.08.05C48,83.88,48,84.75,48,85.17Zm8-.86c-.45.27-1,.26-1.1-.38A2.55,2.55,0,0,1,56,81.86a1.51,1.51,0,0,1,2,0c.08.06,0,.19-.06.17l0,0C57.14,82.69,56.92,83.81,56.07,84.31Zm4.25-1.49a6.55,6.55,0,0,1-2,2.12c-.52.29-1.23.27-1.07-.51a3.57,3.57,0,0,1,1.09-2.09,1.83,1.83,0,0,1,2,.27l0,0,0,0C60.48,82.73,60.4,82.83,60.33,82.82Z"/><path class="cls-4" d="M56.06,81.33a1.09,1.09,0,0,1,1-.29,2.52,2.52,0,0,1,.53.36,3.15,3.15,0,0,0,.86.42,12.23,12.23,0,0,0,3.64.56,2.71,2.71,0,0,1,.6,0c1.08.09,2.11.48,3.18.64l.45.05a4,4,0,0,1-1.56-.59.09.09,0,0,1,0-.16,5.92,5.92,0,0,1,1.12-.07A11.62,11.62,0,0,0,67.42,82a7.62,7.62,0,0,0,1.1-.31,20.53,20.53,0,0,1-4.54.42,38.29,38.29,0,0,1-4.29-.26,6.87,6.87,0,0,1-1.62-.33,2.67,2.67,0,0,1-.62-.34c-.22-.16-.39-.38-.62-.53a.09.09,0,0,1,0-.15A2.84,2.84,0,0,1,56.59,79a9.72,9.72,0,0,1,.49-2.62A21.67,21.67,0,0,1,59.66,71a5.11,5.11,0,0,1-.77.76.09.09,0,0,1-.15,0,16.71,16.71,0,0,1-.36-2.13c-.15-.77-.31-1.54-.44-2.3a5.89,5.89,0,0,0-1.13-3A20.92,20.92,0,0,1,58.21,70a8,8,0,0,1,.16,2.67,5.23,5.23,0,0,1-.7,1.66.08.08,0,0,1,0,.12,19.2,19.2,0,0,1-4,4.56,30.43,30.43,0,0,1-4.93,3.86,7.16,7.16,0,0,1-2.62.86,1.18,1.18,0,0,1-.89-.16c-.29-.24-.34-.62-.59-.88-.72-.75-1.75-.22-2.38.35-.32.29-.8.84-1.28.77l.23.24c.07.08,0,.2-.11.13a1.37,1.37,0,0,1-.28.52,4.22,4.22,0,0,0-.5.89,14.63,14.63,0,0,0-.88,2.14c-.12.48.37,1.76-.62,1.38-.6-.23-1.5-.87-1.58-1.56a3.11,3.11,0,0,1,.93-2.24c.14-.29.29-.56.42-.79.27-.47.79-1.32,1.4-1.23a1.27,1.27,0,0,1,.84.38,6,6,0,0,0,.9-1.86A3.39,3.39,0,0,0,42,79.87a5.89,5.89,0,0,0-.44-1,.57.57,0,0,1-.09-.41,3.16,3.16,0,0,1,1-1.27.09.09,0,0,1,.15.06c0,.24,0,.48-.06.71a6.5,6.5,0,0,1,1.51-1.19c.85-.58,1.71-1.12,2.6-1.63a15.11,15.11,0,0,0,2.63-1.63,5.12,5.12,0,0,0,1.25-1.79,7.53,7.53,0,0,1-2.36,2.16c-.85.51-1.74.94-2.56,1.49S43.94,76.63,43,77.21a.07.07,0,0,1-.07,0,.09.09,0,0,1-.09-.11,5,5,0,0,0,.2-.92,8.17,8.17,0,0,1-1.62,1.54c-.78.42-1.64.71-2.46,1.07a7.4,7.4,0,0,0-1.25.57c-.26.18-.48.42-.74.6s-.63.25-.87-.14a4.53,4.53,0,0,0-2.39-1.5c-.79-.29-1.6-.52-2.38-.84a4.76,4.76,0,0,1-1.9-1.28,3.55,3.55,0,0,1-.53-.89,3.65,3.65,0,0,0,.84,1.47,6.42,6.42,0,0,0,2.07,1.3c.67.32,1.36.58,2,.89.43.19.9.41,1,.91s0,.73.1,1.09.2,1,.3,1.47.21,1.06.28,1.6c0,.13,0,.28.05.44a4.31,4.31,0,0,0,0-.58,12.17,12.17,0,0,0,1.31,1,3.53,3.53,0,0,0,1,.41c-.2.35-.37.72-.56,1.1a2,2,0,0,0,0,1.9,3.5,3.5,0,0,0,1.53,1.41,1.8,1.8,0,0,0,1.43,0A1.32,1.32,0,0,0,41.4,90a3.21,3.21,0,0,0,1.29-.64l.24-.18c1.56,1,3.71,0,4.69-1.36a3.1,3.1,0,0,0,.23-.37,3.3,3.3,0,0,1-.82.78,5.85,5.85,0,0,1-1.83.92,1.4,1.4,0,0,1-1.34-.22c-.23-.27.44-.7.57-.82a2.64,2.64,0,0,0,1-2.23c-.07-.54-.18-1,.34-1.34.26-.17.54-.33.82-.47a1.08,1.08,0,0,1,.88-.34.09.09,0,0,1,.08.05.53.53,0,0,1,.33.33l.56.44a4.11,4.11,0,0,0,2.81.3,12.82,12.82,0,0,0,1.93-1,6.62,6.62,0,0,1,1.42-.51A5.55,5.55,0,0,1,56.06,81.33ZM44.8,87.17a6.53,6.53,0,0,1-1.36,1.4,3.9,3.9,0,0,1-1.87.91,1.38,1.38,0,0,1-1.43-.82,2.84,2.84,0,0,1,.14-2.2,9.14,9.14,0,0,1,1.19-2.3,5.06,5.06,0,0,1,1-.95,2.78,2.78,0,0,1,.75-.51l.14-.09a.07.07,0,0,1,.09,0h0a.08.08,0,0,1,.09,0,1.09,1.09,0,0,1,.49-.06.56.56,0,0,1,.45.36l0,.07a2.43,2.43,0,0,1,.58,1.47A3.7,3.7,0,0,1,44.8,87.17Z"/><path class="cls-4" d="M68.19,78.9a18.12,18.12,0,0,0,3.69-3.4,7.44,7.44,0,0,1,1.33-1.29,1,1,0,0,0-.45,0l.06-.07C71.33,75.81,69.67,77.27,68.19,78.9Z"/><path class="cls-4" d="M72.24,83.91a9.47,9.47,0,0,1-2,1.6,10.15,10.15,0,0,1-2.9.89c-1.1.22-2.21.45-3.32.61-.55.08-1.1.14-1.65.23a3.89,3.89,0,0,1-1.17.08c-.67-.09-1-.77-1.17-1.36a3.32,3.32,0,0,1,.79-3.26,2.37,2.37,0,0,0-.91,1.08,3.27,3.27,0,0,0-.26,1.84c0,.6,0,1.65-.84,1.32-1.13-.43-2.14-2.13-1.33-3.16a2.85,2.85,0,0,1,.91-1.45,1.16,1.16,0,0,1,.58-.18l-.31-.09a.08.08,0,0,1-.08.08c-.65,0-1.12,1.18-1.35,1.66A2.45,2.45,0,0,0,56.76,85a2.89,2.89,0,0,0,.61,1.33.09.09,0,0,1,0,.12c-.74.55-1.53,0-2.13-.48a2.19,2.19,0,0,1-.8-1.26,2.1,2.1,0,0,0,.23.94,4.44,4.44,0,0,0,1.7,1.43,1.65,1.65,0,0,0,1.58.11l.22.21a1.71,1.71,0,0,0,1.81.14A1.34,1.34,0,0,0,61,88a6.8,6.8,0,0,0,1.76-.24c.74-.16,1.49-.26,2.25-.35a20.49,20.49,0,0,0,4-.79,5.35,5.35,0,0,0,2.78-2.08.08.08,0,0,0,0-.08c.12-.13.23-.26.33-.4A1.68,1.68,0,0,0,72.24,83.91Z"/><path class="cls-4" d="M31.62,84.53A2.38,2.38,0,0,1,30.46,84a.09.09,0,0,1,0-.11c.24-.42.79-.35,1.33-.15a24.56,24.56,0,0,1-2.1-1.47c.17.25.33.51.49.78a2.85,2.85,0,0,0-.31.62l.13.17h0a.09.09,0,0,1,.06.11,2.2,2.2,0,0,0,.6.52A8.28,8.28,0,0,1,32,84.9.09.09,0,0,1,32,85a4.54,4.54,0,0,0,1.32.09A13.19,13.19,0,0,0,31.62,84.53Z"/><path class="cls-4" d="M32.34,88.29a2.8,2.8,0,0,1-1.56.65,3.91,3.91,0,0,1-1.58-.39,1.21,1.21,0,0,1-.68-1.09,6.41,6.41,0,0,1-.12-1.74,1.68,1.68,0,0,1,.69-1.15,1.2,1.2,0,0,1,1.16-.11h.06A3,3,0,0,1,29.9,84c-.87-.26-1.54.54-1.71,1.34a10,10,0,0,0,.07,3.07.09.09,0,0,1-.06.09,1.74,1.74,0,0,1-2.1-1.48L26,86.86a4.67,4.67,0,0,1-.27-1.6,6.67,6.67,0,0,1,.06-.88,5.73,5.73,0,0,0,.49,4,.09.09,0,0,1,0,.12c-.77.55-1.56.08-2.12-.57a2.44,2.44,0,0,0,1.08,1.1,1.83,1.83,0,0,0,1.65-.2,1.4,1.4,0,0,0,.37.15,4,4,0,0,0,1.57.11,2.8,2.8,0,0,0,1.5.55,3,3,0,0,0,1.33-.23.06.06,0,0,0,.09,0,9,9,0,0,0,3.36-3.37A32.2,32.2,0,0,1,32.34,88.29Z"/><path class="cls-5" d="M77.13,57.58a18.1,18.1,0,0,0-1.67-3,24.44,24.44,0,0,0-2.32-3.23,22.47,22.47,0,0,0-5.82-4.69c-2-1.13-4.47-2.37-6.77-2.44s-4.53,1.2-6.3,2.59c-.08.06,0,.2.08.16a20.36,20.36,0,0,1,2.94-1.17,9.12,9.12,0,0,1,3.21-.19,19.09,19.09,0,0,1,6.5,2.5A23.13,23.13,0,0,1,72.44,52a23.87,23.87,0,0,1,2.3,2.71c.72,1,1.29,2.1,2.09,3C77,57.88,77.21,57.78,77.13,57.58Z"/><path class="cls-5" d="M81,58.05c-.56-.18-1.22.65-1.54,1a.09.09,0,0,0,.12.13c.24-.17.46-.37.7-.54s.59-.18.77-.4A.13.13,0,0,0,81,58.05Z"/><path class="cls-5" d="M84.25,60a3,3,0,0,0-4.07-.81c-.05,0,0,.12,0,.11a5.52,5.52,0,0,1,3.89.86C84.21,60.22,84.3,60.08,84.25,60Z"/><path class="cls-5" d="M84.28,61.8c-.54-.95-1.46-.92-2.4-1.06a.09.09,0,0,0,0,.17,3.29,3.29,0,0,1,2.56,3.79s.06.07.08,0A3.35,3.35,0,0,0,84.28,61.8Z"/><path class="cls-5" d="M69.78,62.68a29.18,29.18,0,0,0-5.08,5.26,26.12,26.12,0,0,0-4,6.57.09.09,0,0,0,.16.1c3.15-3.84,5.39-8.33,9-11.77C70,62.75,69.87,62.61,69.78,62.68Z"/><path class="cls-5" d="M52.87,56.51c-1.38-1.07-2.72-.77-4,.26a.06.06,0,0,0,.06.11,5.8,5.8,0,0,1,3.8-.08C52.86,56.85,53,56.64,52.87,56.51Z"/><path class="cls-5" d="M53,57.49a2.28,2.28,0,0,0-2.21.31c-.09,0,0,.19.08.16l.85-.26a2.9,2.9,0,0,1,1.22,0A.1.1,0,0,0,53,57.49Z"/><path class="cls-5" d="M52.37,58.79h.07a0,0,0,0,0,0,0,4.4,4.4,0,0,1,.47.2,1.79,1.79,0,0,1,.59.38,3.59,3.59,0,0,1,1.31,2.93c0,.16,0,.32,0,.49a4.57,4.57,0,0,0,.19-2,2.71,2.71,0,0,0-1-1.8,7.16,7.16,0,0,0,.84.14c.08,0,.15-.1.07-.15a3.24,3.24,0,0,0-3.39-.47A4.74,4.74,0,0,1,52.37,58.79Z"/><path class="cls-5" d="M49.55,64.13a11.69,11.69,0,0,1,.11,1.49,9.08,9.08,0,0,0,.22-1.88,4.76,4.76,0,0,0-1.59-3.37A9.83,9.83,0,0,1,49.55,64.13Z"/><path class="cls-5" d="M46.49,66.79a3.73,3.73,0,0,0,.41-1.6,3.9,3.9,0,0,0-1.38-2.9,7.66,7.66,0,0,1,.78,1.87.18.18,0,0,0-.1.07,2.86,2.86,0,0,1-1.8,1.07.05.05,0,0,0,0,.1,3.21,3.21,0,0,0,2-.84,7.3,7.3,0,0,1,.13,1.76C46.52,66.48,46.5,66.63,46.49,66.79Z"/><path class="cls-5" d="M41.86,64.23c.16.4.31.8.44,1.2a3.63,3.63,0,0,1,.33,1.11,4.17,4.17,0,0,0-.47-.48s-.06,0,0,0a2.1,2.1,0,0,1,.34.72,4.36,4.36,0,0,0,.15.73.19.19,0,0,0,.06.07,4.35,4.35,0,0,1-.27,1.32,9.43,9.43,0,0,1-.52,1.15,6.33,6.33,0,0,0,1.45-2A3.55,3.55,0,0,0,41.86,64.23Z"/><path class="cls-5" d="M40.29,70.56c-.65.92-1.54,1.67-2.15,2.62-.06.09,0,.23.14.15a7.48,7.48,0,0,0,2.12-2.71C40.42,70.56,40.33,70.5,40.29,70.56Z"/><path class="cls-5" d="M31.1,70a5.68,5.68,0,0,1-1.48-2.3c-.25-.83.15-1.77.09-2.63,0-.18-.31-.2-.32,0-.06.93-.68,1.92-.34,2.85A4.88,4.88,0,0,0,31,70.16.12.12,0,0,0,31.1,70Z"/><path class="cls-5" d="M27,65.56a4.43,4.43,0,0,1-2.18-.49,2.05,2.05,0,0,0-1.24-.43c-.36,0-.69.41-.94.62-.65.52-.66-1.2-.7-1.44h0c.2-.48.45-.93.63-1.31a.07.07,0,0,0-.11-.07c-.59.64-2,2.47-1.08,3.31a2.63,2.63,0,0,0,.15.28c.4.66,1.14.92,1.69,1.41.08.07.19,0,.13-.12-.33-.45-.65-.91-1-1.32l0-.06a1.1,1.1,0,0,0,.33,0c.2,0,.36-.26.49-.4a4.42,4.42,0,0,1,.44-.49c.31-.28.88.16,1.12.31a4,4,0,0,0,2.33.32S27.07,65.56,27,65.56Z"/><path class="cls-5" d="M21.73,60.82A6.19,6.19,0,0,0,20,62.32a6.24,6.24,0,0,0-.65,2.32.06.06,0,0,0,.12,0,8.5,8.5,0,0,1,1-2.23,12.08,12.08,0,0,0,1.35-1.53C21.89,60.84,21.79,60.78,21.73,60.82Z"/><path class="cls-5" d="M38.34,67.39A5,5,0,0,1,36.49,67a.76.76,0,0,0-.61,0,2.54,2.54,0,0,0-.67.47c-.54.41-1-.13-1.31-.46a.64.64,0,0,0-1,0,5,5,0,0,0-.71.91,4,4,0,0,1-1.06-1.76.45.45,0,0,0-.84.3c.13.56.05,1.16.21,1.74a2.85,2.85,0,0,0,.9,1.46c.09.07.22,0,.15-.14a4.12,4.12,0,0,1-.73-1.8,2.3,2.3,0,0,0,1.29,1.15c.94.27.85-2.16,1.59-1.4.43.44,1,.79,1.54.41a1.55,1.55,0,0,0,.25-.26.91.91,0,0,1,1.3-.1,2.07,2.07,0,0,0,1.52.09A.06.06,0,0,0,38.34,67.39Z"/><path class="cls-5" d="M42.07,66.1a.06.06,0,0,0-.1,0c-.13.14-.24.29-.35.44l0,.08,0-.05a1.19,1.19,0,0,0-.5-.69.53.53,0,0,0-.63.14A5.36,5.36,0,0,1,39,67c-.18.1,0,.35.18.26l.71-.41a4.9,4.9,0,0,0,.77-.41c.14-.12.37.71.53.84a.5.5,0,0,0,.69-.12A1,1,0,0,0,42.07,66.1Z"/><path class="cls-4" d="M23.77,57.92a15,15,0,0,0,2.94,1.58.09.09,0,0,1,.06.11c-.46,1.58,2.08,1.76,3.07,1.81a21.27,21.27,0,0,0,3.51-.13c1.1-.13,2.19-.29,3.27-.5.69-.14,1.38-.29,2-.5a4,4,0,0,0,1.7-.82,6,6,0,0,1,.86-.9,6.33,6.33,0,0,1,1.35-.52,14.06,14.06,0,0,0,3-1.45,13.57,13.57,0,0,0,1.38-1,32.08,32.08,0,0,0,2.28-2.9c.35-.5.72-1,1.07-1.51A3.53,3.53,0,0,0,51,49.75a30,30,0,0,0-5.05-2.62,23,23,0,0,0-2.53-.39,41.82,41.82,0,0,0-7.79,0,15.18,15.18,0,0,0-6.81,2,18.35,18.35,0,0,0-4,3.59,14.64,14.64,0,0,0-2.5,4l-.12.14C22.69,57,23.18,57.51,23.77,57.92Z"/><path class="cls-3" d="M50.64,33.53c2.85-3.08,4.3-7.29,5.17-11.32.6-2.78,1.63-5.68,1.38-8.55a4.05,4.05,0,0,0-.74-2.22c-.45-.54-1-.38-1.45,0-2.43,1-4.81,2.08-7.14,3.28A47.16,47.16,0,0,0,42.21,18a14.55,14.55,0,0,0-4.34,4.53,19,19,0,0,0-2.07,6.89c-.22,1.57-.34,3.14-.46,4.71A4.91,4.91,0,0,0,33.58,34L33,34c-.14-1.12-.35-2.24-.5-3.36q-.28-2.15-.51-4.3a15.4,15.4,0,0,0-.71-3.56,10.34,10.34,0,0,0-1.75-3.1,30,30,0,0,0-5.64-5c-1.09-.8-2.25-1.51-3.38-2.25-.82-.53-1.53-1.17-2.33-1.74a2.68,2.68,0,0,0-2-.63h0a1,1,0,0,0-1,.84,5.44,5.44,0,0,0-.07.86,41.07,41.07,0,0,0-.39,8.14,41.93,41.93,0,0,0,.44,4.26c.2,1.31.5,2.6.74,3.91a14.51,14.51,0,0,0,.94,3.4,6.49,6.49,0,0,0,2,2.47,14.92,14.92,0,0,0,2.81,1.58,31.57,31.57,0,0,0,3.48,1.44,20.88,20.88,0,0,0,2.48.63c-.24.38-.46.77-.66,1.16a36.45,36.45,0,0,0-1.62,3.6,5.24,5.24,0,0,0-1.65-.49,5.14,5.14,0,0,0-3.47.85s0,0,0,0l-.16,0s0,.08,0,.07a2.14,2.14,0,0,1,1,.06l-.73.16A6.37,6.37,0,0,0,17,44.91l-.06,0s0,.11,0,.1a4.14,4.14,0,0,1,1.25,0A7,7,0,0,0,15.56,49c-.35,1.76,1.49,3,2.63,4,.75.66,1.47,1.37,2.28,2S22.19,56,23,56.62s1.52,1.23,2.35,1.76a11.51,11.51,0,0,0,1.89,1,1,1,0,0,0,.31.86,2.08,2.08,0,0,0,1,.31c.51.07,1,.1,1.54.15.74.07,1.46.24,2.05-.3a7.17,7.17,0,0,0,.8-1c.14-.19.29-.38.45-.56A6.32,6.32,0,0,0,35.23,60a4.57,4.57,0,0,0,2.67.25c.68-.1,1.59-.2,2-.85.09-.15.18-.31.26-.47.48-.31,1-.57,1.47-.86s1.2-.83,1.81-1.23c1.23-.82,2.5-1.61,3.67-2.52a17.35,17.35,0,0,0,3-3.06,10.22,10.22,0,0,0,2-3.52.12.12,0,0,0-.07-.15.72.72,0,0,0,0-.36,6,6,0,0,0-.63-1.42,4,4,0,0,0-1.66-1.6c.43,0,.86,0,1.29,0a.14.14,0,0,0,.08-.25,6.12,6.12,0,0,0-5.26-1.26,5,5,0,0,1,.8-.58.14.14,0,0,0-.05-.24,4.72,4.72,0,0,0-2.56.57c-.24.11-.47.23-.69.36-.39-.87-.84-1.72-1.29-2.56-.33-.62-.69-1.22-1-1.87l-.14-.31A15.51,15.51,0,0,0,50.64,33.53Z"/><path class="cls-4" d="M42.82,45.19a10,10,0,0,0-1.23-1A8.52,8.52,0,0,0,38.5,43a.09.09,0,0,1-.15,0h0c-.11,0-.07-.19,0-.17a1.9,1.9,0,0,0-.52-1.67c-.3-.34-.9-1-1.42-.81s-.51.83-.51,1.27-.1.86.11,1.16a.07.07,0,0,1,0,0,.07.07,0,0,1,0,.1l-.07,0a9.15,9.15,0,0,0-2.41-.08,9.22,9.22,0,0,1-2.16.17h0a.08.08,0,0,1-.07-.08,14.78,14.78,0,0,0,.09-1.63c0-.32-.14-.86-.57-.84a1.29,1.29,0,0,0-.81.42,2.7,2.7,0,0,0-.86,1.67c0,.32,0,.57-.35.71s-.87.25-1.3.41a11.45,11.45,0,0,0-2,1A6.69,6.69,0,0,0,23,46.82a18.62,18.62,0,0,1,11.08-3.5,27.64,27.64,0,0,1,3.34.2,17.39,17.39,0,0,1,3.25.64,10.42,10.42,0,0,1,2.11,1Z"/><path class="cls-4" d="M52,47.63a.72.72,0,0,0,0-.36c0-.17-.11-.33-.17-.5a1.81,1.81,0,0,1-.42,1.31,5.45,5.45,0,0,1-1,.84c-.42.31-.82.66-1.25,1a22.18,22.18,0,0,1-5.71,2.89,2.83,2.83,0,0,1-1.89.2,2.18,2.18,0,0,1-1.05-1.47,3.1,3.1,0,0,0-.62-1.35,4,4,0,0,0-1.4-.77,15,15,0,0,0-3.17-.68,14.42,14.42,0,0,0-4.3.07,11.63,11.63,0,0,0-3,.85,4.16,4.16,0,0,0-1.32.95,5.77,5.77,0,0,0-.75,1.25c-.32.63-.77,1.33-1.58,1.27a8.25,8.25,0,0,1-3.18-1.22c-.55-.3-1.09-.61-1.65-.88a12.61,12.61,0,0,1-1.28-.67,3.08,3.08,0,0,1-1.55-2,4.37,4.37,0,0,1,.55-2.41A6.42,6.42,0,0,0,15.56,49c-.35,1.76,1.49,3,2.63,4,.75.66,1.47,1.37,2.28,2S22.19,56,23,56.62s1.52,1.23,2.35,1.76a11.51,11.51,0,0,0,1.89,1,1,1,0,0,0,.31.86,2.08,2.08,0,0,0,1,.31c.51.07,1,.1,1.54.15.74.07,1.46.24,2.05-.3a7.17,7.17,0,0,0,.8-1c.14-.19.29-.38.45-.56A6.32,6.32,0,0,0,35.23,60a4.57,4.57,0,0,0,2.67.25c.68-.1,1.59-.2,2-.85.09-.15.18-.31.26-.47.48-.31,1-.57,1.47-.86s1.2-.83,1.81-1.23c1.23-.82,2.5-1.61,3.67-2.52a17.35,17.35,0,0,0,3-3.06,10.22,10.22,0,0,0,2-3.52A.12.12,0,0,0,52,47.63Z"/><path class="cls-4" d="M43.26,56.67c-.58.29-1.21.6-1.82.22a14.51,14.51,0,0,1-1.37-1.14,1.61,1.61,0,0,1,.26,1A2.48,2.48,0,0,1,39.66,58,3.89,3.89,0,0,1,37,59.46a2.49,2.49,0,0,1-2.32-.67,4.33,4.33,0,0,1-.76-2.38.09.09,0,0,1,.09-.09,5.91,5.91,0,0,0,4.43-1.85,6.48,6.48,0,0,0,1.55-4.25l-.05-.06a4,4,0,0,0-1.4-.77,15,15,0,0,0-3.17-.68,14.42,14.42,0,0,0-4.3.07,11.63,11.63,0,0,0-3,.85,4.16,4.16,0,0,0-1.32.95l-.12.14a5.2,5.2,0,0,0,1.75,3.84,7.9,7.9,0,0,0,4.53,1.82.09.09,0,0,1,.09.09c0,1,.11,1.7-.68,2.53a2,2,0,0,1-1.71.62c-.76,0-1.9.25-2.48-.39a2.9,2.9,0,0,1-.49-1.89,1.06,1.06,0,0,1-.44.63,2.7,2.7,0,0,1-1.68-.06c-.36-.08-.72-.17-1.08-.27a12.12,12.12,0,0,0,1,.74,11.51,11.51,0,0,0,1.89,1,1,1,0,0,0,.31.86,2.08,2.08,0,0,0,1,.31c.51.07,1,.1,1.54.15.74.07,1.46.24,2.05-.3a7.17,7.17,0,0,0,.8-1c.14-.19.29-.38.45-.56A6.32,6.32,0,0,0,35.23,60a4.57,4.57,0,0,0,2.67.25c.68-.1,1.59-.2,2-.85.09-.15.18-.31.26-.47.48-.31,1-.57,1.47-.86s1.2-.83,1.81-1.23l1.74-1.15C44.54,56.06,43.9,56.36,43.26,56.67Z"/><path class="cls-4" d="M57.18,13.66a5.85,5.85,0,0,0-.22-1.2,1.2,1.2,0,0,0-.49-.31c-.95-.29-1.83.28-2.68.61a34.71,34.71,0,0,0-7.27,3.79c-2,1.37-4.17,2.5-5.7,4.45a10.15,10.15,0,0,0-1.77,3.1,11,11,0,0,0-.5,3.42c0,2.16.26,4.56-.88,6.5a.09.09,0,0,1-.12,0,2.82,2.82,0,0,1-1-2.12,15.38,15.38,0,0,1,0-3.08,17.49,17.49,0,0,1,.41-3.13c.23-.93.55-1.88.72-2.84a19.88,19.88,0,0,0-1.85,6.51c-.22,1.57-.34,3.14-.46,4.71A4.91,4.91,0,0,0,33.58,34L33,34c-.14-1.12-.35-2.24-.5-3.36q-.28-2.15-.51-4.3a15.4,15.4,0,0,0-.71-3.56l0-.09c.08,1.1.12,2.21.16,3.3,0,1.38.1,2.74.28,4.11a5.44,5.44,0,0,1-.2,3.35.09.09,0,0,1-.14,0,6.26,6.26,0,0,1-1.45-3.61c-.13-.76-.22-1.52-.32-2.28a13.25,13.25,0,0,0-.29-1.92,19.19,19.19,0,0,0-2.87-6.08,30.43,30.43,0,0,0-4.59-4.91c-1.24-1.1-2.29-2.43-3.63-3.42a3.65,3.65,0,0,0-2.06-.9,1.57,1.57,0,0,0-.9.29,1.43,1.43,0,0,0-.07.23,5.44,5.44,0,0,0-.07.86,41.07,41.07,0,0,0-.39,8.14,41.93,41.93,0,0,0,.44,4.26c.2,1.31.5,2.6.74,3.91a14.51,14.51,0,0,0,.94,3.4,6.49,6.49,0,0,0,2,2.47,14.92,14.92,0,0,0,2.81,1.58,31.57,31.57,0,0,0,3.48,1.44,20.88,20.88,0,0,0,2.48.63c-.24.38-.46.77-.66,1.16a36.45,36.45,0,0,0-1.62,3.6,5.24,5.24,0,0,0-1.65-.49,4.48,4.48,0,0,0-.79,0,9.5,9.5,0,0,1,2.55.89,3.28,3.28,0,0,1,.41-1c.28-.53.6-1,.89-1.56a23.39,23.39,0,0,1,1.92-3.36,6.58,6.58,0,0,1,2.94-2.25,5.66,5.66,0,0,1,1.81-.32.08.08,0,0,1,.08,0l.19,0,.39,0a7.06,7.06,0,0,1,1.4,0,6.48,6.48,0,0,1,1.7.6A7.8,7.8,0,0,1,39.75,37a16.38,16.38,0,0,1,1.69,2.83c.24.49.5,1,.71,1.47s.3.77.48,1.13a2.23,2.23,0,0,1,.47.92,4.93,4.93,0,0,1,.94-1l0,0c-.24.11-.47.23-.69.36-.39-.87-.84-1.72-1.29-2.56-.33-.62-.69-1.22-1-1.87l-.14-.31a15.51,15.51,0,0,0,9.71-4.53c2.85-3.08,4.3-7.29,5.17-11.32C56.4,19.44,57.43,16.53,57.18,13.66Z"/><path class="cls-6" d="M40.14,59l.1-.06.3-.57c.19-.36.61-.93.47-1.35a3.09,3.09,0,0,0-.76-1.08l-.17-.18L40.74,57c.22.41-.3,1-.51,1.3s-.66,1.08-1.18,1.27a6.31,6.31,0,0,1-1.84.25,3.75,3.75,0,0,1-2-.29,5.14,5.14,0,0,1-1.39-.85c-.32-.35-.24-1-.29-1.44-.07-.69-.11-1.38-.14-2.07a2.08,2.08,0,0,1-.33,0c0,.79.12,1.57.13,2.36,0,.45.13.68-.11,1a6.81,6.81,0,0,1-.92,1.15,3.17,3.17,0,0,1-.73.53,3,3,0,0,1-1.19.13,4.36,4.36,0,0,1-1.78-.28,1.11,1.11,0,0,1-.42-.22,1.49,1.49,0,0,1-.32-1.23c0-.63,0-1.25.06-1.87-.14.47-.27.93-.37,1.4a6,6,0,0,0-.16,1.15c0,.08,0,.17,0,.25a.91.91,0,0,0,.31.7,2.08,2.08,0,0,0,1,.31c.51.07,1,.1,1.54.15.74.07,1.46.24,2.05-.3a7.17,7.17,0,0,0,.8-1c.14-.19.29-.38.45-.56A6.32,6.32,0,0,0,35.23,60a4.57,4.57,0,0,0,2.67.25c.68-.1,1.59-.2,2-.85C40,59.29,40.06,59.13,40.14,59Z"/><path class="cls-7" d="M56.2,13.46c-.1-.5-.55-.4-.9-.22a71,71,0,0,0-6.63,3.32,27.1,27.1,0,0,0-5.26,3.69A11.73,11.73,0,0,0,40,25.39a21.76,21.76,0,0,0-.42,7.44c0,.7.1,1.39.15,2.08a.07.07,0,0,0,.14,0,1.34,1.34,0,0,0,1.07.21,10.41,10.41,0,0,0,2.2-.53A21,21,0,0,0,48,32.53a13,13,0,0,0,4.37-5.45c.59-1.17,1.22-2.33,1.75-3.52a18.55,18.55,0,0,0,1.13-3.72c.16-.77.29-1.55.45-2.32A17,17,0,0,0,56,15.63c0-.18.08-.36.12-.54A4.27,4.27,0,0,0,56.2,13.46Z"/><path class="cls-8" d="M56.2,13.46c-.1-.5-.55-.4-.9-.22a71,71,0,0,0-6.63,3.32,27.1,27.1,0,0,0-5.26,3.69A11.73,11.73,0,0,0,40,25.39a21.76,21.76,0,0,0-.42,7.44c0,.7.1,1.39.15,2.08a.07.07,0,0,0,.14,0,1.34,1.34,0,0,0,1.07.21,10.41,10.41,0,0,0,2.2-.53A21,21,0,0,0,48,32.53a13,13,0,0,0,4.37-5.45c.59-1.17,1.22-2.33,1.75-3.52a18.55,18.55,0,0,0,1.13-3.72c.16-.77.29-1.55.45-2.32A17,17,0,0,0,56,15.63c0-.18.08-.36.12-.54A4.27,4.27,0,0,0,56.2,13.46Zm-2,5.48c-.39,1.39-.91,2.73-1.42,4.08-.76,2-1.35,4.34-3.15,5.69-1.07.81-2.91,1-3.74-.25s-.55-2.81-.27-4.1c.86-4,4.11-7,7.62-8.83a2.1,2.1,0,0,1,1.28-.64.08.08,0,0,1,.08.06A9.45,9.45,0,0,1,54.24,18.94Z"/><path class="cls-7" d="M28.33,30.93c-.09-.78-.2-1.56-.31-2.34,0-.34-.06-.68-.14-1l0-.16c0-.43-.07-.87-.12-1.31a12.5,12.5,0,0,0-2-5.73,34.6,34.6,0,0,0-4.22-5.05c-1.55-1.59-3.32-2.94-5-4.4a0,0,0,0,0-.06.06l.16.19a1.21,1.21,0,0,0-.42.93c-.07.64-.07,1.28-.08,1.92,0,1.43,0,2.85,0,4.28a33.64,33.64,0,0,0,.74,7.94,11.26,11.26,0,0,0,1.29,3.33A8.22,8.22,0,0,0,20.55,32a17.81,17.81,0,0,0,3.15,1.59,15.49,15.49,0,0,0,3.7,1.2,3.64,3.64,0,0,0,.41,0,.16.16,0,0,0,.14-.07l0,.21a.1.1,0,0,0,.19.06A7.94,7.94,0,0,0,28.33,30.93Z"/><path class="cls-8" d="M28.33,30.93c-.09-.78-.2-1.56-.31-2.34,0-.34-.06-.68-.14-1l0-.16c0-.43-.07-.87-.12-1.31a12.5,12.5,0,0,0-2-5.73,34.6,34.6,0,0,0-4.22-5.05c-1.55-1.59-3.32-2.94-5-4.4a0,0,0,0,0-.06.06l.16.19a1.21,1.21,0,0,0-.42.93c-.07.64-.07,1.28-.08,1.92,0,1.43,0,2.85,0,4.28a33.64,33.64,0,0,0,.74,7.94,11.26,11.26,0,0,0,1.29,3.33A8.22,8.22,0,0,0,20.55,32a17.81,17.81,0,0,0,3.15,1.59,15.49,15.49,0,0,0,3.7,1.2,3.64,3.64,0,0,0,.41,0,.16.16,0,0,0,.14-.07l0,.21a.1.1,0,0,0,.19.06A7.94,7.94,0,0,0,28.33,30.93Zm-4.44-5.07c-.81,1.61-2.71,1.5-4,.6a6.28,6.28,0,0,1-1.94-2,9.94,9.94,0,0,1-1-3.5,55.2,55.2,0,0,1-.51-8c-.19-.7.51-.45.86-.24a12.29,12.29,0,0,1,2.09,1.6c1.19,1.12,2.38,2.25,3.46,3.48A7,7,0,0,1,24,19.5a4.82,4.82,0,0,1,.35,1.85C24.4,22.81,24.58,24.51,23.89,25.86Z"/><path class="cls-8" d="M42.32,34.74a3.28,3.28,0,0,1-1-2.25,17.08,17.08,0,0,1,.18-7.4,13.09,13.09,0,0,1,3.64-5.51c1.21-1.15,2.75-2,3.9-3.23l-.35.2a27.1,27.1,0,0,0-5.26,3.69A11.73,11.73,0,0,0,40,25.39a21.76,21.76,0,0,0-.42,7.44c0,.7.1,1.39.15,2.08a.07.07,0,0,0,.14,0,1.34,1.34,0,0,0,1.07.21,8.08,8.08,0,0,0,1.5-.31Z"/><path class="cls-8" d="M28.33,30.93c-.09-.78-.2-1.56-.31-2.34,0-.34-.06-.68-.14-1l0-.16c0-.43-.07-.87-.12-1.31a12.5,12.5,0,0,0-2-5.73c-.25-.38-.52-.75-.79-1.12a18.12,18.12,0,0,1,1.28,3,17.75,17.75,0,0,1,.74,3c.18,1.25.43,2.5.54,3.76a12.68,12.68,0,0,1-.14,3.51,2.39,2.39,0,0,1-1.3,1.77l-.28.14a11.07,11.07,0,0,0,1.62.4,3.64,3.64,0,0,0,.41,0,.16.16,0,0,0,.14-.07l0,.21a.1.1,0,0,0,.19.06A7.94,7.94,0,0,0,28.33,30.93Z"/><path class="cls-7" d="M39.87,50a7.1,7.1,0,0,0-4.08-2.08,11.11,11.11,0,0,0-5,.2,14.09,14.09,0,0,0-2.75,1c-.54.28-1.65.86-1.48,1.63a4.24,4.24,0,0,0,1.64,3.06,7.55,7.55,0,0,0,4.28,2,7.13,7.13,0,0,0,5.13-1.36A5.25,5.25,0,0,0,39.83,51C40,50.63,40.08,50.09,39.87,50Z"/><path class="cls-8" d="M38.65,51.25a11.78,11.78,0,0,1-3.08.7,24.45,24.45,0,0,1-4.28.22c-1.33-.06-4.23-.25-4.68-1.86a.77.77,0,0,0-.06.48,4.24,4.24,0,0,0,1.64,3.06,7.55,7.55,0,0,0,4.28,2,7.13,7.13,0,0,0,5.13-1.36A5.25,5.25,0,0,0,39.83,51,1.85,1.85,0,0,0,40,50.1,3.42,3.42,0,0,1,38.65,51.25Z"/><path class="cls-9" d="M30.88,42.61c.05-.92,0-1.58-.38-1.41a2.38,2.38,0,0,0-.68,2,.51.51,0,0,0,.73.27C30.79,43.4,30.86,42.92,30.88,42.61Z"/><path class="cls-5" d="M30.29,41.47c-.22.29-.19.53-.1.64s.24-.08.31-.39S30.58,41.08,30.29,41.47Z"/><path class="cls-10" d="M31.18,38.9s-.39-1.27-1-1.16-.87,1.68-.86,1.86,0,.79.22.44.91-.81,1.26-.4S31.66,40.16,31.18,38.9Z"/><path class="cls-11" d="M31.18,38.9s-.39-1.27-1-1.16-.7,1.17-.68,1.35-.16.28.17.07c.49-.31.66-.33.95-.2C31.12,39.18,31.31,39.29,31.18,38.9Z"/><path class="cls-9" d="M36.24,42.52c-.05-.92,0-1.58.38-1.41a2.38,2.38,0,0,1,.68,2,.51.51,0,0,1-.73.27C36.34,43.32,36.26,42.83,36.24,42.52Z"/><path class="cls-5" d="M36.38,41.42c-.07.36.06.56.19.62s.18-.18.11-.49S36.47,40.95,36.38,41.42Z"/><path class="cls-10" d="M35.94,38.81s.39-1.27,1-1.16.87,1.68.86,1.86,0,.79-.22.44-.9-.81-1.26-.4S35.46,40.07,35.94,38.81Z"/><path class="cls-11" d="M35.94,38.81s.39-1.27,1-1.16.7,1.17.69,1.35.16.28-.18.07c-.49-.31-.66-.33-.95-.2C36,39.09,35.81,39.2,35.94,38.81Z"/><path class="cls-11" d="M41.28,44.27a24.64,24.64,0,0,0-9-1,14.58,14.58,0,0,0-8,2.7,0,0,0,0,0,.06.08A17.44,17.44,0,0,1,28,44.32a17.75,17.75,0,0,1,4.29-.76,35.78,35.78,0,0,1,9,.78S41.32,44.28,41.28,44.27Z"/><path class="cls-5" d="M33.42,58.8c-.15.19-.3.37-.45.56a7.17,7.17,0,0,1-.8,1,1.36,1.36,0,0,1-.55.31,2,2,0,0,0,.21,1.17c.43.65,1.41.3,2,.13a0,0,0,0,0,0-.07l.07,0v0c.38.43,1.31,0,1.72-.1s.48-.45.53-.8a5.56,5.56,0,0,0,0-.64,3.93,3.93,0,0,1-1-.29A6.32,6.32,0,0,1,33.42,58.8Z"/><g class="cls-12"><path class="cls-13" d="M31.72,61.45c0-.26.28-.51.45-.65s.58-.54.92-.54a.68.68,0,0,1,.55.31c.41-1.14,1.48.36,2.26.17a.08.08,0,0,1,.11.06c0,.13.09.26.12.39,0-.07,0-.15,0-.23a5.56,5.56,0,0,0,0-.64,3.93,3.93,0,0,1-1-.29,6.32,6.32,0,0,1-1.81-1.23c-.15.19-.3.37-.45.56a7.17,7.17,0,0,1-.8,1,1.36,1.36,0,0,1-.55.31,2,2,0,0,0,.21,1.17l.1.12A1.37,1.37,0,0,1,31.72,61.45Z"/></g><path class="cls-14" d="M35.9,60.29c0,.32,0,.9-.23,1.13-.09.08-.31.09-.43.12s-.27.13-.42.18a1.19,1.19,0,0,1-1-.14c-.06-.55-.13-1.11-.15-1.67,0-.28,0-.57,0-.86l-.28-.25a8.41,8.41,0,0,0,.33,2.9,1.52,1.52,0,0,0-.31.15,1.43,1.43,0,0,1-.38.15c-.45,0-.92,0-1.1-.42a2.23,2.23,0,0,1-.13-1l-.21.08a2,2,0,0,0,.21,1.17c.43.65,1.41.3,2,.13a0,0,0,0,0,0-.07l.07,0v0c.38.43,1.31,0,1.72-.1s.48-.45.53-.8a5.56,5.56,0,0,0,0-.64l-.3-.06Z"/><path class="cls-15" d="M31.71,57.73a3.44,3.44,0,0,0-1.29-.52c-.64-.16-1.28-.3-1.93-.4a7.31,7.31,0,0,0-1.64-.08,14.59,14.59,0,0,1-2.07.13s0,0,0,0c1.17.1,2.34,0,3.51.14a32.83,32.83,0,0,1,3.37.79A.06.06,0,0,0,31.71,57.73Z"/><path class="cls-15" d="M30.76,58.05a3.77,3.77,0,0,0-1.32-.3,13.94,13.94,0,0,0-1.64-.08,13.12,13.12,0,0,0-3.33.45s0,0,0,0a15.44,15.44,0,0,1,3.19-.22c.58,0,1.16,0,1.73.08a10.79,10.79,0,0,1,1.35.11A0,0,0,0,0,30.76,58.05Z"/><path class="cls-15" d="M31.28,58.93C29,58.73,26.92,60,25,61.11c0,0,0,.07,0,.05A17.08,17.08,0,0,1,31.28,59S31.33,58.93,31.28,58.93Z"/><path class="cls-15" d="M43.12,55.22a7.61,7.61,0,0,0-2.92.61A28.74,28.74,0,0,0,37.1,57c-.17.08-.07.36.1.28.91-.44,1.87-.77,2.82-1.13a9.12,9.12,0,0,1,3.1-.88S43.16,55.22,43.12,55.22Z"/><path class="cls-15" d="M42.63,56.94c-.87.1-1.75.05-2.61.23s-1.71.29-2.55.48c-.14,0-.09.28.05.25.79-.15,1.59-.29,2.38-.47s1.82-.27,2.74-.42A0,0,0,0,0,42.63,56.94Z"/><path class="cls-15" d="M42.69,59.2a9.15,9.15,0,0,0-2.41-.68,12.89,12.89,0,0,0-2.47-.33.07.07,0,0,0,0,.14,9.14,9.14,0,0,0,2.3.37,13.49,13.49,0,0,1,2.58.57A0,0,0,0,0,42.69,59.2Z"/><path class="cls-16" d="M35.53,48.68a2.7,2.7,0,0,0-.94-.13,4.88,4.88,0,0,0-.67,0,16.92,16.92,0,0,0-1.8.11,8.8,8.8,0,0,0-1.71.34c-.26.09-.66.24-.68.51-.05.65,1.52.58,2,.57a12,12,0,0,0,3.52-.49,1.2,1.2,0,0,0,.67-.4C36,49,35.76,48.77,35.53,48.68Z"/><path class="cls-16" d="M37.59,49.12c-.89-.62-2.45.79-.5.65C37.48,49.74,38,49.44,37.59,49.12Z"/><path class="cls-5" d="M44.55,46.21a16.7,16.7,0,0,0-10.31-2.73c-3.71.16-7.68.94-10.55,3.45a.06.06,0,0,0,.07.1A24.45,24.45,0,0,1,34,44.4a20.82,20.82,0,0,1,5.4.33,38.68,38.68,0,0,1,5,1.74C44.54,46.52,44.71,46.32,44.55,46.21Z"/><path class="cls-5" d="M46.07,42.14a3.5,3.5,0,0,0-3,1.75c0,.05.05.11.09.06a6.33,6.33,0,0,1,3-1.68C46.17,42.25,46.14,42.14,46.07,42.14Z"/><path class="cls-5" d="M50.48,43.83a4.19,4.19,0,0,0-5.2-.62s0,.09,0,.07A5.54,5.54,0,0,1,50.4,44C50.48,44,50.54,43.88,50.48,43.83Z"/><path class="cls-5" d="M50.45,44.84a2.67,2.67,0,0,0-2.14-.71c-.06,0-.06.09,0,.1a4,4,0,0,1,1.78.77,4.71,4.71,0,0,1,1.27,1.89c0,.09.19.07.17,0A3.72,3.72,0,0,0,50.45,44.84Z"/><path class="cls-5" d="M19,45a2.54,2.54,0,0,0-1.91,1.88s0,.05.06,0a7.37,7.37,0,0,1,.77-1A5.79,5.79,0,0,1,19,45.15.07.07,0,0,0,19,45Z"/><path class="cls-5" d="M21.79,43.17c-1.51-.47-3.36.6-4.41,1.6,0,0,0,.1.07.07a9.64,9.64,0,0,1,4.34-1.47A.11.11,0,0,0,21.79,43.17Z"/><path class="cls-5" d="M25.53,43c-1.43-1.23-3.21-1.09-4.86-.43-.06,0,0,.1,0,.09a7.16,7.16,0,0,1,4.75.46A.07.07,0,0,0,25.53,43Z"/><path class="cls-5" d="M30.78,22.83a8.39,8.39,0,0,0-2-3.38,39.84,39.84,0,0,0-2.9-2.94,33.25,33.25,0,0,0-4-2.94,0,0,0,0,0,0,0c2.15,2,4.27,3.87,6.23,6a10.38,10.38,0,0,1,2.06,3.16,14.35,14.35,0,0,1,.81,4.87c0,.06.09,0,.09,0A20.36,20.36,0,0,0,30.78,22.83Z"/><path class="cls-5" d="M51.32,13.14c-1.84.84-3.53,2-5.34,2.9A24.36,24.36,0,0,0,41,19.27a10.72,10.72,0,0,0-3.09,4,13.75,13.75,0,0,0-.79,5,.06.06,0,0,0,.13,0,17.78,17.78,0,0,1,1.19-4.77,11.48,11.48,0,0,1,3.64-4.3,64.91,64.91,0,0,1,9.3-5.88C51.49,13.25,51.41,13.09,51.32,13.14Z"/><path class="cls-5" d="M33.27,34.95a8.36,8.36,0,0,1,4.45,1,13.19,13.19,0,0,1,1.56.87,7,7,0,0,0-1.85-1.59,7.76,7.76,0,0,0-3.7-.93,5.39,5.39,0,0,0-4.32,2.21A7.86,7.86,0,0,1,33.27,34.95Z"/></g></g></g></svg>