<svg xmlns="http://www.w3.org/2000/svg" viewBox="0 0 100 100"><defs><style>.cls-1{isolation:isolate;}.cls-2{fill:#e5ccb7;}.cls-3{fill:#8d592b;}.cls-12,.cls-4,.cls-8{fill:#efb379;}.cls-5{fill:#e7b45d;}.cls-12,.cls-13,.cls-5{opacity:0.5;}.cls-10,.cls-12,.cls-13,.cls-16,.cls-21,.cls-22,.cls-5{mix-blend-mode:multiply;}.cls-6{fill:#b17841;}.cls-7{fill:#ad6d37;}.cls-23,.cls-8{mix-blend-mode:screen;}.cls-10,.cls-9{fill:#c61d3d;}.cls-11{fill:#a16e39;}.cls-13{fill:#bc8e60;}.cls-14{fill:#ed7182;}.cls-15{fill:#e95182;}.cls-16,.cls-24{fill:#f598a5;}.cls-17{fill:#000100;}.cls-18{fill:#fff;}.cls-19{fill:#764b22;}.cls-20{fill:#722809;}.cls-21{fill:#9f4616;opacity:0.8;}.cls-22{fill:#330e03;}</style></defs><title>Asset 25</title><g class="cls-1"><g id="Layer_2" data-name="Layer 2"><g id="Layer_1-2" data-name="Layer 1"><rect class="cls-2" width="100" height="100"/><path class="cls-3" d="M64.46,53.42A12.09,12.09,0,0,0,57,48.21a20.49,20.49,0,0,0-10.43-.27A9.47,9.47,0,0,0,43,49.73a6.85,6.85,0,0,0-1.5,1.84,13.67,13.67,0,0,0-1.06,1.23,19.09,19.09,0,0,0-3.28,8.29,35.44,35.44,0,0,0-.32,5.23,19.09,19.09,0,0,0,.47,5.26,14,14,0,0,0,4.83,7.64,14.42,14.42,0,0,0,17.61-.12,19.94,19.94,0,0,0,5.5-7c1.4-3,1.57-6.56,1.56-9.83A17.48,17.48,0,0,0,64.46,53.42Z"/><path class="cls-4" d="M60.9,77.28a13.69,13.69,0,0,1-10.38,4.31,13.68,13.68,0,0,1-5.13-1.44A13.26,13.26,0,0,1,41,77.27c-2.53-2.66-3.64-6.65-3.71-10.21A28,28,0,0,1,39,55.83a12.77,12.77,0,0,1,2.16-3.61A11.15,11.15,0,0,1,39.88,54c-.06.07,0,.14.08.07A21,21,0,0,0,42.1,51.2l.22-.2c1.53-1.34,3.42-1.78,5.33-2.3,0,0,0-.07,0-.06A17.55,17.55,0,0,0,43.51,50a7.71,7.71,0,0,0-1,.67c.14-.16.28-.33.44-.48a9,9,0,0,1,5-2.17,20.56,20.56,0,0,1,11.49,1.5c6.89,3.15,7.59,11.73,6.52,18.3A17.34,17.34,0,0,1,60.9,77.28Z"/><path class="cls-5" d="M59.4,49.54A20.56,20.56,0,0,0,47.91,48a9,9,0,0,0-5,2.17c-.15.15-.3.31-.44.48a7.71,7.71,0,0,1,1-.67,17.55,17.55,0,0,1,4.15-1.38s0,.05,0,.06c-1.91.52-3.8,1-5.33,2.3l-.22.2A21,21,0,0,1,40,54.1c-.07.07-.14,0-.08-.07a11.15,11.15,0,0,0,1.23-1.81A12.77,12.77,0,0,0,39,55.83a28,28,0,0,0-1.71,11.24c.07,3.56,1.18,7.55,3.71,10.21a13.26,13.26,0,0,0,4.44,2.87,13.68,13.68,0,0,0,5.13,1.44A13.69,13.69,0,0,0,60.9,77.28a17.34,17.34,0,0,0,5-9.44C67,61.26,66.29,52.69,59.4,49.54ZM55.85,63.38a14.34,14.34,0,0,1-1.94,3.88.16.16,0,0,1-.27-.11,8.09,8.09,0,0,1,.56-2,11.25,11.25,0,0,0-2.1,3.15c-.07.11-.27.11-.29,0a17.32,17.32,0,0,1,0-2.78,6.34,6.34,0,0,0-.92,1.85.16.16,0,0,1-.29,0,8.57,8.57,0,0,1-.74-1.26,4.59,4.59,0,0,1-.13,1.16.16.16,0,0,1-.29,0c-.68-1.21-1.76-2.14-2.39-3.38a.16.16,0,0,1,.1-.23c.28,0,.56-.08.84-.1a5.41,5.41,0,0,1-.15-.62c0-.09,0-.21.15-.2a3.49,3.49,0,0,1,2.79,2c.25-.42.46-1,.87-1.2s.57.2.74.49c.12-.26.23-.52.37-.77a.16.16,0,0,1,.29,0,9,9,0,0,1,.33,1.09,13.57,13.57,0,0,0,2.26-1.24C55.73,63.14,55.9,63.23,55.85,63.38Z"/><path class="cls-5" d="M63.9,53.95c-1.09.7-1.22,2.3-1.37,3.47A10.06,10.06,0,0,1,62,60.17c-1,2.3-3.46,3.19-5.16,4.85a18.6,18.6,0,0,0-3.15,3.78,23,23,0,0,0-1.39,4c0,.11-.23.18-.29,0a17.71,17.71,0,0,1-.64-2.13c0,.91,0,1.82,0,2.73a.16.16,0,0,1-.32,0,16.65,16.65,0,0,0-4.05-7.05c.22,1.06,1.05,3.44.14,3.57-.6.08-1.21-.56-1.6-.93-.63-.59-1.18-1.24-1.78-1.86a20.62,20.62,0,0,1-4.87-7.08,19.86,19.86,0,0,1-.65-2.05,30.58,30.58,0,0,0-1,9c.07,3.56,1.18,7.55,3.71,10.21a13.26,13.26,0,0,0,4.44,2.87,13.68,13.68,0,0,0,5.13,1.44A13.69,13.69,0,0,0,60.9,77.28a17.34,17.34,0,0,0,5-9.44c.74-4.51.64-10-1.73-14A.59.59,0,0,0,63.9,53.95Z"/><path class="cls-4" d="M71,75.47a2.59,2.59,0,0,0-1.15-2.34,2.75,2.75,0,0,0,2.29-.3C70,71.86,69,68,69,68a5,5,0,0,0,1.22.6c1-2.3-.67-5.29-.67-5.29a3.48,3.48,0,0,0,2,.47c-.82-1-1.7-2.26,0-5.9a9.27,9.27,0,0,0,0-7.08c.2.43.67,1.19,1.05.12.51-1.41-2.43-6.05-2.43-6.05s.65.8,1.13,0-.09-1.23-2.08-2.4a8.86,8.86,0,0,0-1.5.81A25.64,25.64,0,0,0,65,45.63l-1,.95a.14.14,0,0,1,.08.23,2.9,2.9,0,0,1-1.1.81l-.21.22a5.06,5.06,0,0,1,1.39,1.93.13.13,0,0,1-.16.17,6.69,6.69,0,0,0-1.73-.34,3.76,3.76,0,0,1,1.66,2.2,5.12,5.12,0,0,1-.49,3.45C64.06,58.76,60.62,62,58.7,65a24.23,24.23,0,0,0-.26,2.91l1.27-1.1c-.75,1.06-1.67,2.27-1,3.45A4.79,4.79,0,0,1,59,73.12a13.92,13.92,0,0,0,1.42-1.67c-1.27,2.57,1,7.1,1,7.1s-.59.9.61,2.88,3.63,2.76,4.34,1.18c.68.54,2.3,1,3.24-.08.33.43,1.88,1,2.76-1.42S73.33,76.08,71,75.47Z"/><path class="cls-6" d="M72.69,76.58a2.41,2.41,0,0,0-1.52-1.2,2.58,2.58,0,0,0-.81-2,3,3,0,0,0,1.06-.13,5.91,5.91,0,0,0,.81-.3.12.12,0,0,0,0-.22c-1.74-.77-2.72-3.49-3-4.4a5.12,5.12,0,0,0,1,.44.12.12,0,0,0,.15-.07c.85-1.89-.08-4.19-.5-5.05a3.51,3.51,0,0,0,1.76.31.12.12,0,0,0,.1-.07.12.12,0,0,0,0-.12C71,62.8,70,61.62,71.73,58A9.16,9.16,0,0,0,72,51.55a.38.38,0,0,0,.33.06c.19-.05.34-.25.47-.61.43-1.18-1.38-4.39-2.13-5.65a.63.63,0,0,0,.38,0,.91.91,0,0,0,.56-1c-.13-.48-.73-1-2.16-1.87l-.27.12c1.45.85,2.08,1.38,2.2,1.81a.56.56,0,0,1-.09.47.57.57,0,0,1-.3.27c-.3.09-.63-.3-.63-.31a.12.12,0,0,0-.17,0,.12.12,0,0,0,0,.16s2.9,4.61,2.42,5.94c-.13.36-.25.44-.3.46s-.34-.19-.53-.59c-.06-.16-.11-.25-.11-.25a.12.12,0,0,0-.22.09s0,.11.11.26a9.16,9.16,0,0,1,0,7c-1.55,3.33-1,4.67-.13,5.85a3.42,3.42,0,0,1-1.73-.47.12.12,0,0,0-.17.16s1.61,2.88.71,5.08a4.88,4.88,0,0,1-1.09-.55.12.12,0,0,0-.19.13c0,.15,1,3.63,3,4.75a5.53,5.53,0,0,1-.54.19A2,2,0,0,1,70,73l-.18-.12a.13.13,0,0,0-.09,0l-.06,0a.12.12,0,0,0,0,.16.74.74,0,0,0,.23.15,2.48,2.48,0,0,1,1.08,2.22.12.12,0,0,0,.09.13,2.21,2.21,0,0,1,1.46,1.11c.5,1,.41,2.51-.25,4.37a2.43,2.43,0,0,1-1.38,1.69,1.16,1.16,0,0,1-1.16-.3.12.12,0,0,0-.09,0,.12.12,0,0,0-.09,0,1.72,1.72,0,0,1-.85.55,2.69,2.69,0,0,1-2.22-.49.12.12,0,0,0-.1,0,.12.12,0,0,0-.08.07,1.22,1.22,0,0,1-.8.71c-1,.29-2.52-.56-3.33-1.91-1.14-1.87-.62-2.75-.61-2.75a.12.12,0,0,0,0-.12s-2.2-4.5-1-7a.12.12,0,0,0-.21-.13c-.52.69-.91,1.13-1.14,1.39a4.5,4.5,0,0,0-.37-2.57c-.59-1.07.21-2.21.93-3.21l.08-.12a.12.12,0,0,0-.18-.16l-1.06.92a25.6,25.6,0,0,1,.29-2.89c-.12.17-.23.35-.33.52a24.53,24.53,0,0,0-.21,2.61.13.13,0,0,0,0,.07.13.13,0,0,0,.15.08l0,0,.53-.46a2.62,2.62,0,0,0-.46,2.78,4.63,4.63,0,0,1,.28,2.76.12.12,0,0,0,0,.09.12.12,0,0,0,.15.08l.05,0a11.09,11.09,0,0,0,1-1.09c-.62,2.48,1,5.92,1.21,6.42-.12.25-.42,1.2.64,2.95.88,1.46,2.47,2.34,3.61,2a1.45,1.45,0,0,0,.88-.71,2.94,2.94,0,0,0,2.32.44,2,2,0,0,0,.88-.53,1.45,1.45,0,0,0,1.33.29c.45-.13,1.08-.55,1.54-1.84S73.38,77.89,72.69,76.58Z"/><path class="cls-7" d="M63.9,51.79a3.75,3.75,0,0,0-1.6-2.16c1.13.34,1.61,1.15,2,2.4a3.24,3.24,0,0,1-.72,2.89A4.87,4.87,0,0,0,63.9,51.79Z"/><path class="cls-7" d="M64,46.82a2.91,2.91,0,0,1-1.08.79l-.07.07a5.24,5.24,0,0,0,1.33-.85Z"/><path class="cls-7" d="M62.78,47.8l0,0a5.06,5.06,0,0,1,1.39,1.93.13.13,0,0,1-.16.17,4.81,4.81,0,0,0-1.09-.26c.32.12.64.32.91.43.1,0,.26.08.36,0C64.88,49.44,63.65,48.42,62.78,47.8Z"/><path class="cls-7" d="M65.1,63.76a6.26,6.26,0,0,0,.59-3.12c0-.11.15-.06.18,0a4.05,4.05,0,0,1-.07,1.68,7.43,7.43,0,0,1-.24,1.06,4.37,4.37,0,0,0,.71-1c.06-.11.27,0,.26.1A2.48,2.48,0,0,1,65.34,64C65.23,64,65.05,63.88,65.1,63.76Z"/><path class="cls-7" d="M61.17,63.44a2.67,2.67,0,0,0,.43-.8c0-.08.21,0,.17.09a5.35,5.35,0,0,1-.32.68c-.07.11-.22.23-.28.36a3.87,3.87,0,0,0,.74-.26c.09,0,.25.08.18.17a.73.73,0,0,1-.43.2l-.59.14a.15.15,0,0,1-.16-.11C60.89,63.71,61,63.58,61.17,63.44Z"/><path class="cls-7" d="M63.11,69.08c.2.12.4.23.59.36a5.51,5.51,0,0,1-.29-1.75c0-.09.18,0,.18,0a5.59,5.59,0,0,0,.15,1,3.27,3.27,0,0,0,.34,1c.1.14-.1.16-.19.07a5.54,5.54,0,0,0-.89-.61C62.89,69.13,63,69,63.11,69.08Z"/><path class="cls-7" d="M61.26,78.76c.17-.74,1-.8,1.61-1a1.44,1.44,0,0,1,.73,0c.16,0,.68.34.88.37a3.25,3.25,0,0,1,2.58-2.32,2.4,2.4,0,0,1,2.18.84.13.13,0,0,1,0,0A1.94,1.94,0,0,1,71,75.48c.12,0,.19.17.08.17a2.87,2.87,0,0,0-1,.39c-.28.19-.39.54-.65.73a.11.11,0,0,1-.09,0,5.08,5.08,0,0,1,.73,1,5.25,5.25,0,0,1-.38,4.9c0,.07-.19,0-.16-.08A7.73,7.73,0,0,0,70.2,79c-.15-1.71-1.82-3.48-3.6-2.77a2.8,2.8,0,0,0-1.88,2.93A9.65,9.65,0,0,0,65,80.83a3.39,3.39,0,0,0,1.55,1.89c.17.12,0,.25-.18.15a4.44,4.44,0,0,1-2-4.07,3,3,0,0,1,.05-.51,3.74,3.74,0,0,1-.7-.27,2.06,2.06,0,0,0-2.21.86C61.49,79,61.23,78.88,61.26,78.76Z"/><path class="cls-5" d="M64,49.93a6.69,6.69,0,0,0-1.73-.34,3.76,3.76,0,0,1,1.66,2.2,5.12,5.12,0,0,1-.49,3.45,5.17,5.17,0,0,1-.09,2.23c1.15-1.55,2.62-3,2.66-5a.13.13,0,0,1,0-.08c-.28-.51-.7-1-1-1.48a.13.13,0,0,1,.08-.2,2.36,2.36,0,0,1,1.38.13,4.93,4.93,0,0,0-2.35-2.72.14.14,0,0,1,0-.25A4.36,4.36,0,0,1,67,48a6.06,6.06,0,0,0-2.61-1.79l-.37.35a.14.14,0,0,1,.08.23,2.88,2.88,0,0,1-1.09.8l-.21.23a5.06,5.06,0,0,1,1.39,1.93A.13.13,0,0,1,64,49.93Z"/><path class="cls-5" d="M71,75.47a2.59,2.59,0,0,0-1.15-2.34,2.75,2.75,0,0,0,2.29-.3C70,71.86,69,68,69,68a5,5,0,0,0,1.22.6c1-2.3-.67-5.29-.67-5.29a3.48,3.48,0,0,0,2,.47c-.82-1-1.7-2.26,0-5.9a9.27,9.27,0,0,0,0-7.08c.2.43.67,1.19,1.05.12.51-1.41-2.43-6.05-2.43-6.05s.65.8,1.13,0-.09-1.23-2.08-2.4a9.51,9.51,0,0,0-1.1.55l.34.18a.14.14,0,0,1,0,.25,4.05,4.05,0,0,1-1.08.09l-.21.15a7.16,7.16,0,0,1,2.41,2.56.14.14,0,0,1-.15.2,13.86,13.86,0,0,0-1.71-.37,8.25,8.25,0,0,1,3.46,6c.12,3-2.39,5.53-1.67,8.59a.14.14,0,0,1-.22.13,6.84,6.84,0,0,1-1.66-3.08A8.92,8.92,0,0,0,67.89,60a.15.15,0,0,1-.06.15A11.72,11.72,0,0,1,69,64.79a.14.14,0,0,1-.25.07,11.62,11.62,0,0,0-1-1.35,7.76,7.76,0,0,1,.72,2.57c.1,1.52-.54,2.91.33,4.35a.14.14,0,0,1-.15.2c-1.22-.34-1.92-1.55-2.64-2.56a8.92,8.92,0,0,0,.72,2c0,.11-.06.28-.18.19a7.63,7.63,0,0,1-3.2-4,8.1,8.1,0,0,1-.27-2.91A5,5,0,0,1,63.32,62a7.36,7.36,0,0,0,.43-1.24,5.17,5.17,0,0,0-1.51.93.14.14,0,0,1-.2-.08A4,4,0,0,1,62,60.36C61,62,59.65,63.5,58.7,65a24.23,24.23,0,0,0-.26,2.91l1.27-1.1c-.75,1.06-1.67,2.27-1,3.45A4.79,4.79,0,0,1,59,73.12a13.92,13.92,0,0,0,1.42-1.67c-1.27,2.57,1,7.1,1,7.1s-.59.9.61,2.88,3.63,2.76,4.34,1.18c.68.54,2.3,1,3.24-.08.33.43,1.88,1,2.76-1.42S73.33,76.08,71,75.47Zm-6.72,4.75a.8.8,0,0,1-1.3.6c-1-.62-.79-3,.51-2.4h0l.15.08,0,.05A2,2,0,0,1,64.33,80.22Zm4.22.78c-1.7.14-2.72-1.53-2.71-3.07a1.56,1.56,0,0,1,1-1.46,1.37,1.37,0,0,1,1,0C70.13,76.29,71.3,80.78,68.55,81Zm3.1-.09c-.39,0-.5-.35-.53-.69s0-.6,0-.9a5.16,5.16,0,0,0-.55-1.78c-.15-.36-.39-1.11.11-1.35a.88.88,0,0,1,.79,0,.11.11,0,0,1,.12,0c1,.33,1.12,1.67,1.1,2.56C72.62,79.26,72.49,80.9,71.64,80.9Z"/><path class="cls-5" d="M71,75.47a2.59,2.59,0,0,0-1.15-2.34,2.17,2.17,0,0,0,1.57,0A4.25,4.25,0,0,1,71,73a10.58,10.58,0,0,1-3-1.39c.2.82.76,1.53,1,2.37a.14.14,0,0,1-.2.15A11.38,11.38,0,0,1,66.33,72a13.32,13.32,0,0,0,.36,2.64.13.13,0,0,1-.17.13,3.76,3.76,0,0,1-2.44-2.4c-.28.79-.36,1.64-.57,2.45a.14.14,0,0,1-.25,0,7.43,7.43,0,0,1-1.17-6.26,3.68,3.68,0,0,0-.79,1,.14.14,0,0,1-.25,0,7,7,0,0,1,.29-4.66,5.17,5.17,0,0,1,1.29-2.6,8,8,0,0,0-1.55.53.14.14,0,0,1-.2-.08,5.44,5.44,0,0,1-.1-.69c-.73,1-1.49,2-2.09,2.91a24.23,24.23,0,0,0-.26,2.91l1.27-1.1c-.75,1.06-1.67,2.27-1,3.45A4.79,4.79,0,0,1,59,73.12a13.92,13.92,0,0,0,1.42-1.67c-1.27,2.57,1,7.1,1,7.1s-.59.9.61,2.88,3.63,2.76,4.34,1.18c.68.54,2.3,1,3.24-.08.33.43,1.88,1,2.76-1.42S73.33,76.08,71,75.47Zm-6.72,4.75a.8.8,0,0,1-1.3.6c-1-.62-.79-3,.51-2.4h0l.15.08,0,.05A2,2,0,0,1,64.33,80.22Zm4.22.78c-1.7.14-2.72-1.53-2.71-3.07a1.56,1.56,0,0,1,1-1.46,1.37,1.37,0,0,1,1,0C70.13,76.29,71.3,80.78,68.55,81Zm3.1-.09c-.39,0-.5-.35-.53-.69s0-.6,0-.9a5.16,5.16,0,0,0-.55-1.78c-.15-.36-.39-1.11.11-1.35a.88.88,0,0,1,.79,0,.11.11,0,0,1,.12,0c1,.33,1.12,1.67,1.1,2.56C72.62,79.26,72.49,80.9,71.64,80.9Z"/><path class="cls-5" d="M63.41,55.24a5,5,0,0,1,0,1.61,4.28,4.28,0,0,0,1-4.36A5.61,5.61,0,0,0,63.56,51a3.89,3.89,0,0,1,.34.82A5.12,5.12,0,0,1,63.41,55.24Z"/><path class="cls-8" d="M69.14,55.4a11,11,0,0,0-.11-4c-.23-1.58-.24-3.06-1.2-4.42,0-.05,0-.09.08-.06a6.15,6.15,0,0,1,2.71,3.83,7.09,7.09,0,0,1-1.15,4.85C69.38,55.7,69.11,55.54,69.14,55.4Z"/><path class="cls-8" d="M67.26,66a5.61,5.61,0,0,0-.42-2.62c0-.05.05,0,.07,0a4.63,4.63,0,0,1,.74,4.55c-.07.19-.38.07-.39-.1A6.68,6.68,0,0,1,67.26,66Z"/><path class="cls-8" d="M66.68,58.9a2.21,2.21,0,0,1,.23-.86c.17-.29.42-.52.57-.83,0,0,.09,0,.09,0,0,.55-.25,1-.25,1.58s.17,1.15.24,1.73c0,.26-.35.18-.43,0A2.71,2.71,0,0,1,66.68,58.9Z"/><path class="cls-8" d="M67.79,77a2.26,2.26,0,0,1,1.42.86c.31.4.67,1.24.22,1.64-.16.15-.44,0-.57-.09a1.64,1.64,0,0,1-.49-1A2.4,2.4,0,0,0,67.76,77S67.73,77,67.79,77Z"/><path class="cls-8" d="M71.58,77.51c0-.27,0-.54-.07-.82,0-.07.09,0,.12,0,.32.44,1.16,1.51.47,2-.19.13-.44,0-.49-.24A4.29,4.29,0,0,1,71.58,77.51Z"/><path class="cls-4" d="M46.87,67.54a23.31,23.31,0,0,1-3.56-8.09c-.19-.89-.42-1.87-.55-2.86A5.75,5.75,0,0,1,42,55.51a5.34,5.34,0,0,1-.62-3.71,3.76,3.76,0,0,1,1.66-2.2,6.69,6.69,0,0,0-1.74.34.14.14,0,0,1-.16-.17,5.06,5.06,0,0,1,1.4-1.93l-.21-.22a2.9,2.9,0,0,1-1.1-.81.14.14,0,0,1,.08-.23l-1-.95a25.75,25.75,0,0,0-2.85-2.29,8.83,8.83,0,0,0-1.5-.81c-2,1.17-2.47,1.78-2.07,2.4s1.13,0,1.13,0S32.1,49.54,32.61,51c.39,1.07.85.31,1.06-.12a9.26,9.26,0,0,0,0,7.08c1.7,3.65.82,4.87,0,5.9a3.48,3.48,0,0,0,2-.47s-1.7,3-.67,5.29A5,5,0,0,0,36.3,68s-1,3.83-3.16,4.79a2.74,2.74,0,0,0,2.29.3,2.59,2.59,0,0,0-1.15,2.34c-2.28.61-2.17,3.17-1.3,5.64s2.42,1.85,2.76,1.42c.95,1.11,2.56.63,3.25.08.71,1.57,3.15.79,4.34-1.18s.61-2.88.61-2.88,2.24-4.53,1-7.1a13.82,13.82,0,0,0,1.42,1.67,4.8,4.8,0,0,1,.29-2.87c.65-1.18-.26-2.39-1-3.45l1.26,1.1S46.88,67.77,46.87,67.54Z"/><path class="cls-6" d="M47,67.73l-.26-.39c0,.11,0,.2,0,.28L45.7,66.7a.12.12,0,0,0-.18.16l.08.12c.71,1,1.52,2.14.93,3.21a4.49,4.49,0,0,0-.36,2.57c-.23-.25-.62-.7-1.14-1.39a.12.12,0,0,0-.16,0,.12.12,0,0,0,0,.16c1.22,2.49-1,6.95-1,7a.13.13,0,0,0,0,.12s.52.88-.61,2.75c-.81,1.34-2.31,2.2-3.33,1.91a1.22,1.22,0,0,1-.8-.71.12.12,0,0,0-.19,0,2.69,2.69,0,0,1-2.22.49,1.72,1.72,0,0,1-.85-.55.12.12,0,0,0-.1,0,.12.12,0,0,0-.09,0,1.16,1.16,0,0,1-1.16.3,2.43,2.43,0,0,1-1.38-1.69c-.66-1.86-.75-3.41-.25-4.37a2.21,2.21,0,0,1,1.46-1.11.12.12,0,0,0,.09-.13,2.48,2.48,0,0,1,1.08-2.22.76.76,0,0,0,.23-.15.12.12,0,0,0,0-.16l-.06,0a.13.13,0,0,0-.09,0l-.18.12A2,2,0,0,1,34,73a5.34,5.34,0,0,1-.54-.19c2-1.13,3-4.6,3-4.75a.12.12,0,0,0-.19-.13,4.93,4.93,0,0,1-1.09.55c-.9-2.2.69-5.05.71-5.08a.12.12,0,0,0,0-.15.12.12,0,0,0-.15,0,3.41,3.41,0,0,1-1.73.47c.89-1.17,1.43-2.51-.13-5.85a9.16,9.16,0,0,1,0-7c.07-.15.11-.26.11-.26a.12.12,0,0,0-.23-.09l-.11.25c-.19.4-.39.63-.53.59s-.17-.1-.3-.46c-.48-1.34,2.39-5.9,2.42-5.94a.12.12,0,0,0,0-.16.12.12,0,0,0-.17,0s-.33.39-.64.31a.68.68,0,0,1-.39-.73c.11-.43.74-1,2.2-1.81l-.27-.12c-1.43.85-2,1.39-2.16,1.87a.8.8,0,0,0,.12.66.79.79,0,0,0,.44.37.63.63,0,0,0,.38,0c-.75,1.26-2.56,4.47-2.13,5.65.13.36.28.56.47.61a.38.38,0,0,0,.33-.06A9.16,9.16,0,0,0,33.6,58c1.7,3.66.77,4.83,0,5.78a.12.12,0,0,0,0,.12.12.12,0,0,0,.1.07,3.51,3.51,0,0,0,1.76-.31c-.42.86-1.34,3.16-.5,5.05a.12.12,0,0,0,.15.07,5.15,5.15,0,0,0,1-.44c-.29.92-1.26,3.63-3,4.4a.12.12,0,0,0-.07.11.12.12,0,0,0,.07.11,6,6,0,0,0,.81.3,3,3,0,0,0,1.06.13,2.58,2.58,0,0,0-.81,2,2.41,2.41,0,0,0-1.52,1.2c-.69,1.3-.25,3.2.23,4.57S34,82.86,34.41,83a1.45,1.45,0,0,0,1.33-.29,2,2,0,0,0,.88.53,2.94,2.94,0,0,0,2.32-.44,1.46,1.46,0,0,0,.89.71c1.14.33,2.72-.56,3.61-2,1.06-1.75.76-2.7.64-2.95.24-.5,1.83-3.94,1.21-6.42a10.81,10.81,0,0,0,1,1.09l.05,0a.12.12,0,0,0,.15-.17,4.65,4.65,0,0,1,.28-2.76,2.62,2.62,0,0,0-.46-2.78l.53.46,0,0a.13.13,0,0,0,.15-.08.13.13,0,0,0,0-.07S47,67.79,47,67.73Z"/><path class="cls-7" d="M41.42,51.79A3.75,3.75,0,0,1,43,49.63c-1.13.34-1.61,1.15-2,2.4a3.24,3.24,0,0,0,.71,2.89A4.88,4.88,0,0,1,41.42,51.79Z"/><path class="cls-7" d="M41.29,46.82a2.88,2.88,0,0,0,1.08.79l.07.07a5.25,5.25,0,0,1-1.33-.85Z"/><path class="cls-7" d="M42.55,47.8l0,0a5.06,5.06,0,0,0-1.4,1.93.14.14,0,0,0,.16.17,4.82,4.82,0,0,1,1.09-.26c-.32.12-.64.32-.91.43-.1,0-.26.08-.36,0C40.45,49.44,41.68,48.42,42.55,47.8Z"/><path class="cls-7" d="M40.23,63.76a6.25,6.25,0,0,1-.59-3.12c0-.11-.15-.06-.18,0a4.05,4.05,0,0,0,.07,1.68,7.33,7.33,0,0,0,.24,1.06,4.38,4.38,0,0,1-.71-1c-.06-.11-.27,0-.25.1A2.48,2.48,0,0,0,40,64C40.09,64,40.27,63.88,40.23,63.76Z"/><path class="cls-7" d="M44.16,63.44a2.72,2.72,0,0,1-.43-.8c0-.08-.21,0-.17.09a5.21,5.21,0,0,0,.32.68c.07.11.22.23.28.36a3.86,3.86,0,0,1-.74-.26c-.09,0-.26.08-.18.17a.73.73,0,0,0,.43.2l.59.14a.15.15,0,0,0,.16-.11C44.44,63.71,44.29,63.58,44.16,63.44Z"/><path class="cls-7" d="M42.21,69.08c-.2.12-.4.23-.59.36a5.55,5.55,0,0,0,.29-1.75c0-.09-.18,0-.18,0a5.59,5.59,0,0,1-.15,1,3.18,3.18,0,0,1-.34,1c-.1.14.1.16.19.07a5.51,5.51,0,0,1,.9-.61C42.44,69.13,42.32,69,42.21,69.08Z"/><path class="cls-7" d="M44.07,78.76c-.17-.74-1-.8-1.61-1a1.44,1.44,0,0,0-.73,0c-.16,0-.68.34-.88.37a3.25,3.25,0,0,0-2.58-2.32,2.4,2.4,0,0,0-2.18.84s0,0,0,0a1.94,1.94,0,0,0-1.8-1.15c-.12,0-.19.17-.09.17a2.88,2.88,0,0,1,1,.39c.28.19.39.54.65.73a.12.12,0,0,0,.09,0,5.09,5.09,0,0,0-.73,1,5.25,5.25,0,0,0,.38,4.9c0,.07.19,0,.16-.08A7.74,7.74,0,0,1,35.13,79c.15-1.71,1.82-3.48,3.6-2.77a2.8,2.8,0,0,1,1.89,2.93,9.54,9.54,0,0,1-.27,1.65,3.39,3.39,0,0,1-1.55,1.89c-.17.12,0,.25.18.15a4.44,4.44,0,0,0,2-4.07,3.24,3.24,0,0,0-.05-.51,3.8,3.8,0,0,0,.7-.27,2.06,2.06,0,0,1,2.21.86C43.83,79,44.09,78.88,44.07,78.76Z"/><path class="cls-5" d="M46.87,67.54a23.31,23.31,0,0,1-3.56-8.09c-.19-.89-.42-1.87-.55-2.86A5.75,5.75,0,0,1,42,55.51a5.34,5.34,0,0,1-.62-3.71,3.76,3.76,0,0,1,1.66-2.2,6.69,6.69,0,0,0-1.74.34.14.14,0,0,1-.16-.17,5.06,5.06,0,0,1,1.4-1.93l-.21-.23a2.86,2.86,0,0,1-1.09-.8.14.14,0,0,1,.08-.23L41,46.22A6.05,6.05,0,0,0,38.37,48a4.36,4.36,0,0,1,2.79-.1.14.14,0,0,1,0,.25,4.93,4.93,0,0,0-2.35,2.72,2.36,2.36,0,0,1,1.38-.13.14.14,0,0,1,.08.2c-.28.51-.71,1-1,1.48a.12.12,0,0,1,0,.08C39.43,56,44,57.85,43.29,61.6a.13.13,0,0,1-.2.08,5.18,5.18,0,0,0-1.51-.93A7.54,7.54,0,0,0,42,62a4.92,4.92,0,0,1,.26,1.34A8.1,8.1,0,0,1,42,66.23a7.64,7.64,0,0,1-3.2,4c-.13.09-.23-.08-.18-.19a9,9,0,0,0,.72-2c-.71,1-1.41,2.22-2.64,2.56a.14.14,0,0,1-.15-.2c.87-1.43.22-2.82.33-4.35a7.76,7.76,0,0,1,.72-2.57,11.5,11.5,0,0,0-1,1.35.14.14,0,0,1-.25-.07,11.77,11.77,0,0,1,1.18-4.64.15.15,0,0,1-.06-.15,9,9,0,0,0,.16-2.23,6.84,6.84,0,0,1-1.66,3.08.14.14,0,0,1-.22-.13c.73-3.06-1.78-5.58-1.67-8.59a8.24,8.24,0,0,1,3.46-6,13.81,13.81,0,0,0-1.71.37.14.14,0,0,1-.15-.2,7.16,7.16,0,0,1,2.41-2.56l-.21-.15a4,4,0,0,1-1.08-.09.14.14,0,0,1,0-.25l.34-.18a9.61,9.61,0,0,0-1.1-.55c-2,1.17-2.47,1.78-2.07,2.4s1.13,0,1.13,0S32.1,49.54,32.61,51c.39,1.07.85.31,1.06-.12a9.26,9.26,0,0,0,0,7.08c1.7,3.65.82,4.87,0,5.9a3.48,3.48,0,0,0,2-.47s-1.7,3-.67,5.29A5,5,0,0,0,36.3,68s-1,3.83-3.16,4.79a2.74,2.74,0,0,0,2.29.3,2.59,2.59,0,0,0-1.15,2.34c-2.28.61-2.17,3.17-1.3,5.64s2.42,1.85,2.76,1.42c.95,1.11,2.56.63,3.25.08.71,1.57,3.15.79,4.34-1.18s.61-2.88.61-2.88,2.24-4.53,1-7.1a13.82,13.82,0,0,0,1.42,1.67,4.8,4.8,0,0,1,.29-2.87c.65-1.18-.26-2.39-1-3.45l1.26,1.1S46.88,67.77,46.87,67.54Zm-12.06,10a5.16,5.16,0,0,0-.55,1.78c0,.3,0,.6,0,.9s-.14.7-.53.69c-.84,0-1-1.64-1-2.2,0-.88.11-2.22,1.1-2.56a.11.11,0,0,1,.12,0,.88.88,0,0,1,.79,0C35.2,76.42,35,77.17,34.81,77.53Zm2,3.47c-2.76-.22-1.58-4.71.69-4.51a1.37,1.37,0,0,1,1,0,1.56,1.56,0,0,1,1,1.46C39.5,79.46,38.48,81.14,36.78,81Zm5.52-.19a.81.81,0,0,1-1.31-.6,2,2,0,0,1,.6-1.67.13.13,0,0,1,0-.05l.15-.08h0C43.09,77.78,43.26,80.2,42.3,80.81Z"/><path class="cls-5" d="M43,58.2c-.11-.53-.21-1.06-.28-1.61A5.75,5.75,0,0,1,42,55.51a5.34,5.34,0,0,1-.62-3.71,3.84,3.84,0,0,1,.34-.82,5.59,5.59,0,0,0-.86,1.53,4.31,4.31,0,0,0,1,4.4C42.28,57.34,42.67,57.76,43,58.2Z"/><path class="cls-5" d="M46.87,67.54a25.66,25.66,0,0,1-2.51-4.68.15.15,0,0,1-.12,0,8,8,0,0,0-1.55-.53A5.17,5.17,0,0,1,44,64.91a7,7,0,0,1,.3,4.66.14.14,0,0,1-.25,0,3.75,3.75,0,0,0-.79-1,7.43,7.43,0,0,1-1.17,6.26.14.14,0,0,1-.25,0c-.2-.82-.28-1.66-.57-2.45a3.76,3.76,0,0,1-2.44,2.4.13.13,0,0,1-.17-.13A13.49,13.49,0,0,0,39,72a11.34,11.34,0,0,1-2.43,2.11.14.14,0,0,1-.2-.15c.2-.83.76-1.54,1-2.37a10.59,10.59,0,0,1-3,1.39,4.31,4.31,0,0,1-.48.07,2.17,2.17,0,0,0,1.57,0,2.59,2.59,0,0,0-1.15,2.34c-2.28.61-2.17,3.17-1.3,5.64s2.42,1.85,2.76,1.42c.95,1.11,2.56.63,3.25.08.71,1.57,3.15.79,4.34-1.18s.61-2.88.61-2.88,2.24-4.53,1-7.1a13.82,13.82,0,0,0,1.42,1.67,4.8,4.8,0,0,1,.29-2.87c.65-1.18-.26-2.39-1-3.45l1.26,1.1S46.88,67.77,46.87,67.54Zm-12.06,10a5.16,5.16,0,0,0-.55,1.78c0,.3,0,.6,0,.9s-.14.7-.53.69c-.84,0-1-1.64-1-2.2,0-.88.11-2.22,1.1-2.56a.11.11,0,0,1,.12,0,.88.88,0,0,1,.79,0C35.2,76.42,35,77.17,34.81,77.53Zm2,3.47c-2.76-.22-1.58-4.71.69-4.51a1.37,1.37,0,0,1,1,0,1.56,1.56,0,0,1,1,1.46C39.5,79.46,38.48,81.14,36.78,81Zm5.52-.19a.81.81,0,0,1-1.31-.6,2,2,0,0,1,.6-1.67.13.13,0,0,1,0-.05l.15-.08h0C43.09,77.78,43.26,80.2,42.3,80.81Z"/><path class="cls-8" d="M36.19,55.4a11,11,0,0,1,.11-4c.23-1.58.24-3.06,1.2-4.42,0-.05,0-.09-.08-.06a6.16,6.16,0,0,0-2.71,3.83,7.09,7.09,0,0,0,1.15,4.85C35.95,55.7,36.22,55.54,36.19,55.4Z"/><path class="cls-8" d="M38.06,66a5.59,5.59,0,0,1,.42-2.62c0-.05-.05,0-.08,0a4.62,4.62,0,0,0-.74,4.55c.07.19.37.07.39-.1A6.73,6.73,0,0,0,38.06,66Z"/><path class="cls-8" d="M38.64,58.9a2.21,2.21,0,0,0-.23-.86c-.17-.29-.42-.52-.57-.83,0,0-.09,0-.09,0,0,.55.26,1,.25,1.58s-.17,1.15-.23,1.73c0,.26.34.18.43,0A2.72,2.72,0,0,0,38.64,58.9Z"/><path class="cls-8" d="M37.54,77a2.26,2.26,0,0,0-1.42.86c-.31.4-.67,1.24-.22,1.64.16.15.44,0,.57-.09a1.64,1.64,0,0,0,.49-1A2.4,2.4,0,0,1,37.57,77S37.59,77,37.54,77Z"/><path class="cls-8" d="M33.75,77.51c0-.27,0-.54.07-.82,0-.07-.09,0-.12,0-.32.44-1.16,1.51-.47,2,.19.13.44,0,.49-.24A4.29,4.29,0,0,0,33.75,77.51Z"/><path class="cls-4" d="M68.42,48.73a3.6,3.6,0,0,0,1.84,0s-1-.36-1.95-2.22c-.12-.3-.25-.58-.38-.84-1,.47-2.06,1-3.07,1.46-1.32.66-2.61,1.36-3.92,2.05-.46.24-.92.47-1.38.72a5.62,5.62,0,0,0,1.29,1.49,4.26,4.26,0,0,0,2.7,1.28c.14,0,.18.17.08.25a3,3,0,0,1-1.6.59,5.25,5.25,0,0,1,1,2.33.14.14,0,0,1-.2.13,6.72,6.72,0,0,0-1.62-.73,3.78,3.78,0,0,1,1.12,2.53,5.37,5.37,0,0,1-1.45,3.5,7.52,7.52,0,0,1-4,2.29,1.19,1.19,0,0,0,.87.63c-3,2.12-4.43,8.12-4.43,8.12l1.49-.79c-1,.87-2.15,1.84-1.78,3.15a4.81,4.81,0,0,1-.37,2.88,14,14,0,0,0,1.77-1.31c-1.83,2.23-.66,7.18-.66,7.18s-.78.75-.06,3,2.93,3.53,4,2.15c.54.69,2,1.53,3.2.66.23.5,1.6,1.45,3-.76s2.11-4.7,0-5.82a2.61,2.61,0,0,0-.59-2.56,2.76,2.76,0,0,0,2.32.22c-1.91-1.44-2-5.41-2-5.41a5,5,0,0,0,1.06.87c1.53-2,.55-5.34.55-5.34a3.5,3.5,0,0,0,1.88.93c-.57-1.2-1.15-2.6,1.35-5.79a9.33,9.33,0,0,0,1.66-6.93c.1.47.39,1.32,1,.36.82-1.27-1-6.49-1-6.49s.46.93,1.1.28S71.27,51.24,68.42,48.73Z"/><path class="cls-6" d="M68.85,48.95a4,4,0,0,0,.79,0,2.93,2.93,0,0,0,.65-.1.12.12,0,0,0,0-.23,4.46,4.46,0,0,1-1.88-2.16c-.12-.3-.24-.58-.37-.84l-.22.1c.13.26.26.54.38.84a5.63,5.63,0,0,0,1.71,2.12l-.28,0a3.67,3.67,0,0,1-1.18-.13.12.12,0,0,0-.11.21c2.2,1.94,3,2.88,3,3.46a.68.68,0,0,1-.55.63c-.32,0-.55-.44-.55-.44a.12.12,0,0,0-.16-.06.12.12,0,0,0-.07.15c0,.05,1.8,5.18,1,6.38-.21.32-.34.38-.4.38s-.29-.27-.38-.7c0-.17,0-.27,0-.27a.12.12,0,0,0-.24,0s0,.12,0,.28a9.21,9.21,0,0,1-1.64,6.83c-2.28,2.91-2.07,4.35-1.46,5.7a3.43,3.43,0,0,1-1.59-.85.13.13,0,0,0-.15,0,.12.12,0,0,0-.06.14s.92,3.19-.47,5.14a5,5,0,0,1-.94-.78.12.12,0,0,0-.14,0,.12.12,0,0,0-.08.12c0,.16.11,3.77,1.85,5.34a5.42,5.42,0,0,1-.57.06A2,2,0,0,1,63.44,80a1.87,1.87,0,0,0-.15-.16.13.13,0,0,0-.09,0l-.07,0a.12.12,0,0,0,0,.15.77.77,0,0,0,.19.2,2.49,2.49,0,0,1,.55,2.42.12.12,0,0,0,.06.15,2.23,2.23,0,0,1,1.18,1.42c.28,1.05-.17,2.55-1.24,4.23a2.45,2.45,0,0,1-1.74,1.34A1.17,1.17,0,0,1,61,89.19a.12.12,0,0,0-.19,0,1.73,1.73,0,0,1-1,.35,2.71,2.71,0,0,1-2.07-1,.13.13,0,0,0-.1,0,.13.13,0,0,0-.1,0,1.23,1.23,0,0,1-.94.52c-1.07.05-2.34-1.12-2.83-2.63-.69-2.1,0-2.83,0-2.84a.12.12,0,0,0,0-.12s-1.13-4.91.64-7.08a.12.12,0,0,0,0-.16.12.12,0,0,0-.17,0c-.67.55-1.15.9-1.43,1.1a4.51,4.51,0,0,0,.23-2.6c-.34-1.19.71-2.12,1.64-2.93l.11-.09a.13.13,0,0,0,0-.16.12.12,0,0,0-.16,0l-1.24.66c.33-1.19,1.78-6,4.31-7.78a.12.12,0,0,0,0-.22,1.08,1.08,0,0,1-.78-.54l-.24.06a1.19,1.19,0,0,0,.72.64c-2.75,2.17-4.14,7.5-4.27,8a.12.12,0,0,0,0,.07.13.13,0,0,0,.13.12h.05l.62-.33a2.64,2.64,0,0,0-1.09,2.62,4.67,4.67,0,0,1-.35,2.77.12.12,0,0,0,.1.2l.06,0a11.15,11.15,0,0,0,1.19-.85c-1.17,2.29-.4,6-.28,6.57-.17.22-.68,1.08,0,3,.53,1.63,1.88,2.85,3.08,2.79a1.46,1.46,0,0,0,1-.49,3,3,0,0,0,2.17,1,2,2,0,0,0,1-.32,1.45,1.45,0,0,0,1.23.58c.47,0,1.19-.29,1.93-1.46s1.64-3,1.27-4.42A2.44,2.44,0,0,0,64.1,82.6a2.6,2.6,0,0,0-.33-2.15,3,3,0,0,0,1.07.12,6,6,0,0,0,.86-.11.12.12,0,0,0,.09-.09.12.12,0,0,0,0-.12c-1.53-1.15-1.87-4-1.94-5a5.12,5.12,0,0,0,.86.66.12.12,0,0,0,.16,0c1.26-1.66.88-4.12.67-5.07a3.53,3.53,0,0,0,1.66.7.12.12,0,0,0,.12,0,.12.12,0,0,0,0-.12c-.52-1.09-1.17-2.46,1.33-5.66a9.21,9.21,0,0,0,1.77-6.21.39.39,0,0,0,.31.13c.19,0,.39-.17.6-.49.69-1.06-.35-4.61-.8-6a.64.64,0,0,0,.37.1.92.92,0,0,0,.78-.88C71.61,51.65,70.87,50.76,68.85,48.95Z"/><path class="cls-7" d="M62.35,57.82a3.77,3.77,0,0,0-1.07-2.48,3,3,0,0,1,1.38,2.8,3.26,3.26,0,0,1-1.36,2.67A4.9,4.9,0,0,0,62.35,57.82Z"/><path class="cls-7" d="M62.85,56a.14.14,0,0,0,.2-.13,5.25,5.25,0,0,0-1-2.34A3,3,0,0,0,63.62,53l.17.05a4.62,4.62,0,0,1-1.7.55c.71.8,1.78,2.14.9,2.64-.12.07-.26,0-.36-.08-.25-.17-.51-.44-.79-.63A4.9,4.9,0,0,1,62.85,56Z"/><path class="cls-7" d="M60.86,51.44l-.16-.15c-.06-.11-.11-.22-.17-.34a5.78,5.78,0,0,0,2,1.56l.11.05A6.64,6.64,0,0,1,60.86,51.44Z"/><path class="cls-7" d="M64,47.72a3.71,3.71,0,0,1,1.42,2.38c0,.15-.19.08-.21,0a.72.72,0,0,0-.54-.56c-.11,0-.15-.23,0-.19a1,1,0,0,1,.37.19,3.26,3.26,0,0,0-1.1-1.69C63.85,47.76,63.9,47.67,64,47.72Z"/><path class="cls-7" d="M60.8,69.83a6.27,6.27,0,0,0,1.29-2.92c0-.11.17,0,.17.06a4.09,4.09,0,0,1-.45,1.63,7.67,7.67,0,0,1-.48,1,4.4,4.4,0,0,0,.92-.83c.08-.1.27.06.22.16A2.48,2.48,0,0,1,61,70.07C60.87,70.09,60.73,69.93,60.8,69.83Z"/><path class="cls-7" d="M57,68.62a2.68,2.68,0,0,0,.6-.69c.05-.07.2.05.15.13a5.31,5.31,0,0,1-.46.59c-.09.1-.26.18-.36.29a4,4,0,0,0,.79-.09c.1,0,.23.14.13.21a.73.73,0,0,1-.47.1H56.8a.15.15,0,0,1-.13-.14C56.68,68.82,56.86,68.72,57,68.62Z"/><path class="cls-7" d="M57.64,74.59c.17.16.34.32.5.48a5.54,5.54,0,0,1,.11-1.78c0-.09.18,0,.17.08a5.64,5.64,0,0,0-.09,1,3.19,3.19,0,0,0,.11,1.07c.06.16-.14.14-.2,0a5.74,5.74,0,0,0-.74-.8C57.41,74.59,57.55,74.5,57.64,74.59Z"/><path class="cls-7" d="M53.62,83.65c.33-.69,1.16-.56,1.8-.6a1.45,1.45,0,0,1,.71.18c.15.07.59.49.78.56A3.26,3.26,0,0,1,60,82.1a2.41,2.41,0,0,1,1.94,1.32.11.11,0,0,1,0,0,2,2,0,0,1,2-.72c.12,0,.15.21,0,.19a2.9,2.9,0,0,0-1.1.15c-.32.13-.51.44-.81.57a.11.11,0,0,1-.09,0,5.17,5.17,0,0,1,.49,1.13A5.29,5.29,0,0,1,61,89.4c-.06.06-.18,0-.13-.12a7.8,7.8,0,0,0,1.46-3.34c.24-1.71-1-3.82-2.89-3.54a2.82,2.82,0,0,0-2.52,2.44,9.64,9.64,0,0,0-.11,1.68,3.41,3.41,0,0,0,1.09,2.2c.14.16-.09.23-.21.1a4.46,4.46,0,0,1-1-4.43,3.21,3.21,0,0,1,.17-.49c-.23-.07-.42-.3-.63-.42a2.08,2.08,0,0,0-2.36.33C53.79,83.94,53.56,83.76,53.62,83.65Z"/><path class="cls-5" d="M62.48,49.38a3.87,3.87,0,0,0-.79-.54l-.49.26C61.63,49.19,62.05,49.29,62.48,49.38Z"/><path class="cls-5" d="M68.42,48.73a3.6,3.6,0,0,0,1.84,0s-1-.36-1.95-2.22c-.12-.3-.25-.58-.38-.84l-1.22.57a7,7,0,0,1,.32,1,.14.14,0,0,1-.22.14,5.11,5.11,0,0,0-1-.68l-.25.12c1.16,1.18,2,2.67,3.3,3.71a.14.14,0,0,1-.09.24,5.12,5.12,0,0,1-1.57-.31,7.16,7.16,0,0,1,2,3.31.14.14,0,0,1-.19.16,13.69,13.69,0,0,0-1.59-.76,8.3,8.3,0,0,1,2,6.65c-.57,3-3.6,4.87-3.59,8a.14.14,0,0,1-.25.08,6.89,6.89,0,0,1-.93-3.4,9,9,0,0,0-.35,2.22.15.15,0,0,1-.1.13,11.82,11.82,0,0,1,.09,4.82.14.14,0,0,1-.26,0,11.83,11.83,0,0,0-.7-1.55,7.81,7.81,0,0,1,.12,2.68c-.25,1.52-1.19,2.73-.67,4.33a.14.14,0,0,1-.19.16c-1.12-.62-1.53-2-2-3.11a9,9,0,0,0,.24,2.12c0,.12-.12.26-.22.14a7.67,7.67,0,0,1-2.22-4.66,8.09,8.09,0,0,1,.4-2.91,4.89,4.89,0,0,1,.56-1.25,7.48,7.48,0,0,0,.71-1.12,5.26,5.26,0,0,0-1.7.57.13.13,0,0,1-.18-.12c.14-3.84,5.05-4.59,5.93-8a.13.13,0,0,1,0-.07c-.15-.56-.47-1.11-.62-1.67a.14.14,0,0,1,.12-.18,2.38,2.38,0,0,1,1.32.44,5,5,0,0,0-1.68-3.2.14.14,0,0,1,.08-.24,4.4,4.4,0,0,1,2.71.74,7,7,0,0,0-3.46-3.09,7.34,7.34,0,0,1-2.8-2l-.38.2a5.62,5.62,0,0,0,1.29,1.49,4.26,4.26,0,0,0,2.7,1.28c.14,0,.18.17.08.25a3,3,0,0,1-1.6.58,5.27,5.27,0,0,1,1,2.34.14.14,0,0,1-.2.13,6.72,6.72,0,0,0-1.62-.73,3.78,3.78,0,0,1,1.12,2.53,5.37,5.37,0,0,1-1.45,3.5,7.52,7.52,0,0,1-4,2.29,1.19,1.19,0,0,0,.87.63c-3,2.12-4.43,8.12-4.43,8.12l1.49-.79c-1,.87-2.15,1.84-1.78,3.15a4.81,4.81,0,0,1-.37,2.88,14,14,0,0,0,1.77-1.31c-1.83,2.23-.66,7.18-.66,7.18s-.78.75-.06,3,2.93,3.53,4,2.15c.54.69,2,1.53,3.2.66.23.5,1.6,1.45,3-.76s2.11-4.7,0-5.82a2.61,2.61,0,0,0-.59-2.56,2.76,2.76,0,0,0,2.32.22c-1.91-1.44-2-5.41-2-5.41a5,5,0,0,0,1.06.87c1.53-2,.55-5.34.55-5.34a3.5,3.5,0,0,0,1.88.93c-.57-1.2-1.15-2.6,1.35-5.79a9.33,9.33,0,0,0,1.66-6.93c.1.47.39,1.32,1,.36.82-1.27-1-6.49-1-6.49s.46.93,1.1.28S71.27,51.24,68.42,48.73Zm-12.12,37a.81.81,0,0,1-1.42.29c-.8-.82-.08-3.16,1-2.24h0l.13.12a.17.17,0,0,1,0,.06A2,2,0,0,1,56.29,85.78Zm4,1.73c-1.7-.25-2.31-2.12-2-3.62a1.57,1.57,0,0,1,1.3-1.21,1.37,1.37,0,0,1,1,.26C62.87,83.25,63,87.92,60.25,87.51Zm3.9-4.07a.11.11,0,0,1,.12,0c.9.55.71,1.89.5,2.76-.14.54-.64,2.12-1.47,1.93-.39-.09-.41-.46-.36-.8s.11-.6.17-.9A5.21,5.21,0,0,0,63,84.55c-.07-.39-.13-1.17.41-1.3A.89.89,0,0,1,64.15,83.43Z"/><path class="cls-5" d="M52.67,77.6a14,14,0,0,0,1.77-1.31c-1.83,2.23-.66,7.18-.66,7.18s-.78.75-.06,3,2.93,3.53,4,2.15c.54.69,2,1.53,3.2.66.23.5,1.6,1.45,3-.76s2.11-4.7,0-5.82a2.61,2.61,0,0,0-.59-2.56,2.18,2.18,0,0,0,1.54.33,4.25,4.25,0,0,1-.46-.18,10.69,10.69,0,0,1-2.6-2c0,.85.39,1.68.4,2.54a.14.14,0,0,1-.23.11,11.51,11.51,0,0,1-1.9-2.63,13.61,13.61,0,0,0-.25,2.67.14.14,0,0,1-.19.09,3.78,3.78,0,0,1-1.85-2.91c-.46.71-.73,1.52-1.11,2.27a.14.14,0,0,1-.25,0,7.47,7.47,0,0,1,.28-6.4,3.76,3.76,0,0,0-1,.76.14.14,0,0,1-.24-.08,7.07,7.07,0,0,1,1.35-4.5,5.2,5.2,0,0,1,1.85-2.25,8,8,0,0,0-1.64.17.14.14,0,0,1-.18-.12,4.54,4.54,0,0,1,1.08-3,16.72,16.72,0,0,1,2.71-2.21,4.33,4.33,0,0,0,2-4.08,5.66,5.66,0,0,0-.5-1.69,3.79,3.79,0,0,1,.15.88,5.37,5.37,0,0,1-1.45,3.5,7.52,7.52,0,0,1-4,2.29,1.19,1.19,0,0,0,.87.63c-3,2.12-4.43,8.12-4.43,8.12l1.49-.79c-1,.87-2.15,1.84-1.78,3.15A4.81,4.81,0,0,1,52.67,77.6Zm10.27,9.72c0-.3.11-.6.17-.9A5.21,5.21,0,0,0,63,84.55c-.07-.39-.13-1.17.41-1.3a.89.89,0,0,1,.77.18.11.11,0,0,1,.12,0c.9.55.71,1.89.5,2.76-.14.54-.64,2.12-1.47,1.93C62.92,88,62.9,87.66,62.94,87.32Zm-4.65-3.44a1.57,1.57,0,0,1,1.3-1.21,1.37,1.37,0,0,1,1,.26c2.28.32,2.4,5-.35,4.58C58.55,87.25,57.93,85.38,58.29,83.88Zm-2.37-.05h0l.13.12a.17.17,0,0,1,0,.06,2,2,0,0,1,.21,1.77.81.81,0,0,1-1.42.29C54.08,85.24,54.79,82.91,55.92,83.83Z"/><path class="cls-8" d="M66.66,62.55a11,11,0,0,0,.82-4c.13-1.6.46-3-.17-4.6,0-.06.05-.09.09,0a6.2,6.2,0,0,1,1.78,4.37,7.13,7.13,0,0,1-2.23,4.49C66.83,62.9,66.6,62.69,66.66,62.55Z"/><path class="cls-8" d="M62.41,72.52a5.65,5.65,0,0,0,.18-2.66c0-.05.06,0,.08,0a4.65,4.65,0,0,1-.31,4.63c-.11.17-.38,0-.36-.19A6.72,6.72,0,0,1,62.41,72.52Z"/><path class="cls-8" d="M63.46,65.42a2.24,2.24,0,0,1,.42-.79c.23-.25.53-.41.75-.68,0,0,.09,0,.08.06-.16.53-.48.94-.6,1.49s-.1,1.17-.16,1.75c0,.26-.38.1-.43-.07A2.72,2.72,0,0,1,63.46,65.42Z"/><path class="cls-8" d="M60.42,83.38a2.27,2.27,0,0,1,1.2,1.16c.22.47.37,1.36-.16,1.66-.19.11-.43-.07-.54-.22a1.65,1.65,0,0,1-.24-1.13,2.41,2.41,0,0,0-.3-1.4S60.37,83.36,60.42,83.38Z"/><path class="cls-8" d="M64,84.78c0-.27.09-.54.12-.82,0-.07.1,0,.12,0,.21.5.8,1.74,0,2-.22.08-.42-.14-.43-.35A4.27,4.27,0,0,1,64,84.78Z"/><path class="cls-4" d="M59.41,60.85s0,.09,0,.14c.31-.19.62-.37.92-.57a3.92,3.92,0,0,0,1.2-1.25,1.54,1.54,0,0,1,.58-.63,4.17,4.17,0,0,0,2.76-4.31c0-.14.18-.26.25-.1v0h0a7.34,7.34,0,0,1,.32.91,9.52,9.52,0,0,0,.27-2.66.14.14,0,0,1,.25-.07,25,25,0,0,1,1,2.6,5.23,5.23,0,0,0,.81-2.5.14.14,0,0,1,.23-.06A3.12,3.12,0,0,1,68.86,55a3.56,3.56,0,0,0,.93-.6,6,6,0,0,0-.11-8.14,3.16,3.16,0,0,1,1.43,1.29S72.13,45,69,43a10.28,10.28,0,0,1,2.45-.82,9.1,9.1,0,0,1-6.25-3.13c-4,.75-15.72,9.37-27.2-.21,0,0-3,1.93-2.91,3.32a5.86,5.86,0,0,1,1.34-.06,8.56,8.56,0,0,0-2.84,4.16,4.48,4.48,0,0,1-1.84,2.31,3.6,3.6,0,0,0,1.84-.14c-2.72,2.65-3.33,3.6-2.65,4.22S32,52.35,32,52.35s-1.56,5.31-.68,6.53c.67.92.91.06,1-.41a9.33,9.33,0,0,0,2,6.84C37,68.36,36.47,69.79,36,71a3.49,3.49,0,0,0,1.83-1s-.81,3.37.82,5.3a5,5,0,0,0,1-.92s.1,4-1.73,5.51a2.77,2.77,0,0,0,2.3-.34,2.61,2.61,0,0,0-.46,2.58c-2,1.22-1.22,3.67.31,5.81s2.86,1.12,3.06.61c1.22.82,2.65-.1,3.16-.82,1.12,1.33,3.26-.1,3.88-2.34s-.21-3-.21-3,.92-5-1-7.14a14,14,0,0,0,1.84,1.22,4.82,4.82,0,0,1-.51-2.86c.31-1.33-.92-2.24-1.94-3.06l1.53.71S48.06,65.4,45,63.43c.88-.27.88-.88.88-.88s-1.77-.41-1.56-.47.68-.68.68-.68,3.94,1.36,5.1.68a3.28,3.28,0,0,0,3.4.27c.48.82.48.54.48.54l1.5-1.63-.41,1.29A20.47,20.47,0,0,0,59.41,60.85Z"/><path class="cls-6" d="M71.45,42.09A9,9,0,0,1,65.29,39a.12.12,0,0,0-.12,0,19.42,19.42,0,0,0-3.37,1.22c-3.05,1.29-7.24,3-12,3a18.07,18.07,0,0,1-11.79-4.46.12.12,0,0,0-.14,0c-.12.08-3,2-3,3.43a.12.12,0,0,0,0,.09.12.12,0,0,0,.1,0,5.19,5.19,0,0,1,1-.07,8.94,8.94,0,0,0-2.61,4,4.48,4.48,0,0,1-1.77,2.25.12.12,0,0,0-.07.12.12.12,0,0,0,.09.11,3,3,0,0,0,.66.06,3.88,3.88,0,0,0,.79-.08c-1.93,1.91-2.62,2.83-2.61,3.46a.92.92,0,0,0,.82.84.63.63,0,0,0,.36-.12c-.38,1.43-1.24,5-.5,6.05.22.31.43.46.62.46a.39.39,0,0,0,.3-.15,9.22,9.22,0,0,0,2.08,6.12c2.66,3.07,2.08,4.46,1.61,5.58a.12.12,0,0,0,0,.12.13.13,0,0,0,.12,0,3.55,3.55,0,0,0,1.62-.78c-.16,1-.42,3.43.92,5a.12.12,0,0,0,.16,0,5.08,5.08,0,0,0,.83-.7c0,1-.22,3.87-1.69,5.09a.12.12,0,0,0,0,.13.12.12,0,0,0,.1.09,5.8,5.8,0,0,0,.87.07,2.94,2.94,0,0,0,1.06-.17,2.6,2.6,0,0,0-.23,2.17,2.44,2.44,0,0,0-1.13,1.58c-.3,1.45.64,3.17,1.49,4.35s1.53,1.36,2,1.36a1.45,1.45,0,0,0,1.2-.64,2,2,0,0,0,1,.27,3,3,0,0,0,2.12-1.07,1.46,1.46,0,0,0,1.05.44c1.19,0,2.48-1.29,2.93-2.94.54-2,0-2.82-.19-3,.09-.55.68-4.32-.61-6.55a10.83,10.83,0,0,0,1.23.78h.06a.12.12,0,0,0,.12-.12.13.13,0,0,0,0-.08,4.66,4.66,0,0,1-.49-2.74,2.63,2.63,0,0,0-1.22-2.56l.64.3h.05a.13.13,0,0,0,.12-.12.11.11,0,0,0,0-.07c-.15-.51-1.81-5.76-4.67-7.79a1.08,1.08,0,0,0,.74-.92.12.12,0,0,0-.09-.12c-.52-.12-1.09-.27-1.37-.36a4.45,4.45,0,0,0,.5-.53,16.06,16.06,0,0,0,4.08.85,2.25,2.25,0,0,0,1-.17,3.4,3.4,0,0,0,3.36.29c.3.5.41.55.49.55a.15.15,0,0,0,.14-.1h0l1.1-1.2-.24.76a.12.12,0,0,0,.15.15,26.15,26.15,0,0,0,3.75-1.35l.68-.43a.12.12,0,0,0,0-.14.12.12,0,0,0-.15,0,18.69,18.69,0,0,1-4.09,1.62l.34-1.07a.12.12,0,0,0-.21-.12l-1.46,1.59a3.37,3.37,0,0,1-.32-.48.12.12,0,0,0-.17,0,3.1,3.1,0,0,1-1.42.34,3.21,3.21,0,0,1-1.85-.6A.12.12,0,0,0,50,62a1.86,1.86,0,0,1-.91.17A16.61,16.61,0,0,1,45,61.27a.12.12,0,0,0-.14,0,2.89,2.89,0,0,1-.62.64.16.16,0,0,0-.1.14c0,.1,0,.19,1.57.55a1,1,0,0,1-.78.67.12.12,0,0,0,0,.22c2.62,1.69,4.3,6.39,4.69,7.55l-1.28-.6a.12.12,0,0,0-.13.21l.11.09c1,.77,2.06,1.65,1.78,2.85a4.5,4.5,0,0,0,.36,2.58c-.3-.18-.8-.5-1.49-1a.12.12,0,0,0-.16.18c1.87,2.07,1,7,1,7a.13.13,0,0,0,0,.11s.75.71.17,2.84c-.42,1.52-1.63,2.76-2.7,2.76a1.23,1.23,0,0,1-1-.47.13.13,0,0,0-.1,0,.12.12,0,0,0-.1.05,2.71,2.71,0,0,1-2,1.08,1.73,1.73,0,0,1-1-.3.12.12,0,0,0-.18.06,1.17,1.17,0,0,1-1,.62,2.45,2.45,0,0,1-1.81-1.26c-1.16-1.62-1.67-3.1-1.45-4.16a2.22,2.22,0,0,1,1.11-1.48.12.12,0,0,0,.05-.15,2.49,2.49,0,0,1,.43-2.44.83.83,0,0,0,.18-.21.12.12,0,0,0,0-.15l-.07,0a.13.13,0,0,0-.09,0,1.93,1.93,0,0,0-.14.17,2,2,0,0,1-1.37.37,5.14,5.14,0,0,1-.57,0c1.66-1.65,1.58-5.26,1.58-5.42a.12.12,0,0,0-.08-.11.12.12,0,0,0-.13,0,5,5,0,0,1-.9.83c-1.48-1.88-.73-5.08-.72-5.11a.12.12,0,0,0-.06-.14.12.12,0,0,0-.15,0,3.42,3.42,0,0,1-1.54.93c.54-1.38.68-2.82-1.74-5.62a9.21,9.21,0,0,1-2-6.73c0-.16,0-.28,0-.28a.12.12,0,0,0-.11-.13.12.12,0,0,0-.14.1s0,.1,0,.27c-.07.43-.21.72-.34.72s-.2,0-.42-.36c-.84-1.16.68-6.37.7-6.42a.12.12,0,0,0-.08-.15.12.12,0,0,0-.15.07s-.21.47-.53.47a.68.68,0,0,1-.58-.6c0-.58.77-1.56,2.87-3.61a.12.12,0,0,0-.12-.2,3.72,3.72,0,0,1-1.17.19h-.28a5.64,5.64,0,0,0,1.6-2.2,8.52,8.52,0,0,1,2.79-4.09.12.12,0,0,0-.06-.22L36,42a5.63,5.63,0,0,0-.78.05c.12-1.18,2.34-2.73,2.78-3a18.28,18.28,0,0,0,11.87,4.46c4.76,0,9-1.77,12-3.07a20.55,20.55,0,0,1,3.25-1.19,9.29,9.29,0,0,0,5.59,3c-.38.12-.94.32-1.78.65a.12.12,0,0,0-.08.1.12.12,0,0,0,.06.12,4.27,4.27,0,0,1,2.17,2.92,3.33,3.33,0,0,1,0,1.23,3.39,3.39,0,0,0-1.33-1.1.12.12,0,0,0-.15.19,5.89,5.89,0,0,1,1.22,6.09,7.17,7.17,0,0,1-1.49,2.32,6.48,6.48,0,0,0,1-.78A7.06,7.06,0,0,0,71,52.56a6,6,0,0,0-.89-5.85,2.94,2.94,0,0,1,.85.93.13.13,0,0,0,.12.07.12.12,0,0,0,.11-.08s1-2.59-2-4.57a9.92,9.92,0,0,1,2.18-.72.12.12,0,0,0,0-.25Z"/><path class="cls-7" d="M40.4,57.42a2.89,2.89,0,0,1,0-.94v0c0-.07,0-.13,0-.2s0-.12.06-.17l0,0A4.48,4.48,0,0,1,42,54.29c-.66-.39-1.21,0-1.89.24a.55.55,0,0,0-.2.15c-.95,1.08.86-1.78,1.07-2.06s-.15-.47-.38-.25-.52,0-.94-.07a3.07,3.07,0,0,0,1.87-2A5.76,5.76,0,0,1,39.66,52a7.23,7.23,0,0,1-1.25.58,4.61,4.61,0,0,0,1.72.46c-.67.83-1.67,2.23-.77,2.68.12.06.26,0,.35-.09.41-.32.85-.93,1.45-.95-1.11.64-1.37,1.58-1.36,2.94,0,1.9,1.88,3.11,3.71,3.67C41.84,60.45,40.33,59.13,40.4,57.42Z"/><path class="cls-7" d="M66.33,50.26c-.09-.12-.33.1-.24.23l.08.1A4.82,4.82,0,0,0,64.3,50c-.14,0-.3.24-.12.27a5.46,5.46,0,0,1,1.35.5,9.74,9.74,0,0,0,1.2.66.2.2,0,0,0,.24-.23A3.62,3.62,0,0,0,66.33,50.26Z"/><path class="cls-7" d="M59.69,60.75c.31-.23.65-.42,1-.62a4,4,0,0,0,.82-1,1.54,1.54,0,0,1,.58-.63,4.17,4.17,0,0,0,2.76-4.31c0-.14.18-.26.25-.1v0h0a7.24,7.24,0,0,1,.32.91h0a8.69,8.69,0,0,0,.26-2.49,3.43,3.43,0,0,0-.21-.55.11.11,0,0,0,0,0,4.61,4.61,0,0,1-.06,2.5,4.33,4.33,0,0,0-1.22-2,6.1,6.1,0,0,1,.24.94,3.93,3.93,0,0,1,.05,1,3.45,3.45,0,0,1-2.39,3.62,4.17,4.17,0,0,0,.06-.9.11.11,0,0,0,0-.06,4.28,4.28,0,0,1-1.26,2.41c-.49.42-1,.71-1.57,1.08-.27.19-.54.4-.82.58a.17.17,0,0,0,.13,0A2.21,2.21,0,0,0,59.69,60.75Z"/><path class="cls-7" d="M38,47.23a3.7,3.7,0,0,0-1.29,2.45c0,.15.19.07.21,0a.72.72,0,0,1,.51-.59c.11,0,.14-.24,0-.19a1,1,0,0,0-.36.2,3.27,3.27,0,0,1,1-1.74C38.08,47.28,38,47.18,38,47.23Z"/><path class="cls-7" d="M41.1,46.87a2.21,2.21,0,0,0-1.23.21,3.06,3.06,0,0,1,.47-.73c.21-.27.52-.43.72-.71.05-.07,0-.12-.09-.06a2.37,2.37,0,0,1-.41.33c-.17.12-.28.29-.43.42a1.91,1.91,0,0,0-.53,1c0,.11.1.09.16,0A1.77,1.77,0,0,1,41,47.06C41.11,47.06,41.23,46.87,41.1,46.87Z"/><path class="cls-7" d="M42.24,69.16a6.28,6.28,0,0,1-1.43-2.86c0-.11-.17,0-.17.07A4.11,4.11,0,0,0,41.18,68a7.41,7.41,0,0,0,.53,1,4.41,4.41,0,0,1-1-.78c-.08-.09-.26.07-.22.17a2.51,2.51,0,0,0,1.55,1.09C42.18,69.43,42.32,69.26,42.24,69.16Z"/><path class="cls-7" d="M46,67.76a2.7,2.7,0,0,1-.64-.66c-.06-.07-.2.06-.14.14a5.18,5.18,0,0,0,.49.57c.1.09.27.17.37.28a3.82,3.82,0,0,1-.79,0c-.1,0-.22.15-.12.22a.73.73,0,0,0,.47.08l.61,0a.15.15,0,0,0,.13-.15C46.3,67.95,46.12,67.86,46,67.76Z"/><path class="cls-7" d="M45.63,73.75c-.16.17-.33.33-.47.51a5.59,5.59,0,0,0-.2-1.77c0-.09-.18,0-.17.09a5.61,5.61,0,0,1,.14,1,3.24,3.24,0,0,1-.05,1.07c-.05.16.15.13.2,0a5.64,5.64,0,0,1,.7-.84C45.87,73.74,45.72,73.66,45.63,73.75Z"/><path class="cls-7" d="M50.11,82.61c-.37-.67-1.18-.5-1.83-.51a1.45,1.45,0,0,0-.7.22c-.15.08-.56.52-.75.6a3.26,3.26,0,0,0-3.13-1.53,2.41,2.41,0,0,0-1.87,1.42s0,0,0,0a2,2,0,0,0-2.06-.62c-.12,0-.14.21,0,.19a2.89,2.89,0,0,1,1.1.09c.33.11.53.42.83.53a.11.11,0,0,0,.09,0,5.13,5.13,0,0,0-.44,1.15A5.28,5.28,0,0,0,43,88.72c.06.06.18-.06.13-.12a7.78,7.78,0,0,1-1.63-3.26c-.33-1.69.8-3.87,2.71-3.68A2.82,2.82,0,0,1,46.88,84a9.7,9.7,0,0,1,.2,1.67,3.4,3.4,0,0,1-1,2.25c-.13.17.1.23.21.1a4.46,4.46,0,0,0,.77-4.48,3.08,3.08,0,0,0-.19-.48c.23-.08.4-.33.6-.45a2.08,2.08,0,0,1,2.38.22C49.95,82.9,50.17,82.71,50.11,82.61Z"/><path class="cls-5" d="M59.41,60.85s0,.09,0,.14c.31-.19.62-.37.92-.57a3.92,3.92,0,0,0,1.2-1.25,1.54,1.54,0,0,1,.58-.63,4.17,4.17,0,0,0,2.76-4.31c0-.14.18-.26.25-.1v0h0a7.34,7.34,0,0,1,.32.91,9.52,9.52,0,0,0,.27-2.66.14.14,0,0,1,.25-.07,25,25,0,0,1,1,2.6,5.23,5.23,0,0,0,.81-2.5.14.14,0,0,1,.23-.06A3.12,3.12,0,0,1,68.86,55a3.56,3.56,0,0,0,.93-.6,6,6,0,0,0-.11-8.14,3.16,3.16,0,0,1,1.43,1.29S72.13,45,69,43a10.28,10.28,0,0,1,2.45-.82,9.1,9.1,0,0,1-6.25-3.13c-4,.75-15.72,9.37-27.2-.21,0,0-3,1.93-2.91,3.32a5.86,5.86,0,0,1,1.34-.06,8.56,8.56,0,0,0-2.84,4.16,4.48,4.48,0,0,1-1.84,2.31,3.6,3.6,0,0,0,1.84-.14c-2.72,2.65-3.33,3.6-2.65,4.22S32,52.35,32,52.35s-1.56,5.31-.68,6.53c.67.92.91.06,1-.41a9.33,9.33,0,0,0,2,6.84C37,68.36,36.47,69.79,36,71a3.49,3.49,0,0,0,1.83-1s-.81,3.37.82,5.3a5,5,0,0,0,1-.92s.1,4-1.73,5.51a2.77,2.77,0,0,0,2.3-.34,2.61,2.61,0,0,0-.46,2.58c-2,1.22-1.22,3.67.31,5.81s2.86,1.12,3.06.61c1.22.82,2.65-.1,3.16-.82,1.12,1.33,3.26-.1,3.88-2.34s-.21-3-.21-3,.92-5-1-7.14a14,14,0,0,0,1.84,1.22,4.82,4.82,0,0,1-.51-2.86c.31-1.33-.92-2.24-1.94-3.06l1.53.71S48.06,65.4,45,63.43c.88-.27.88-.88.88-.88s-1.77-.41-1.56-.47.68-.68.68-.68,3.94,1.36,5.1.68a3.28,3.28,0,0,0,3.4.27c.48.82.48.54.48.54l1.5-1.63-.41,1.29A20.47,20.47,0,0,0,59.41,60.85ZM47.66,83.09a.14.14,0,0,1,0-.06l.12-.12h0c1.08-1,1.91,1.32,1.16,2.18a.81.81,0,0,1-1.43-.22A2,2,0,0,1,47.66,83.09Zm-7,4.47c-.82.23-1.4-1.32-1.56-1.85-.26-.85-.51-2.18.36-2.78a.11.11,0,0,1,.13,0,.89.89,0,0,1,.76-.22c.54.1.52.89.48,1.28a5.16,5.16,0,0,0,0,1.87c.08.29.16.59.21.89S41,87.45,40.65,87.55Zm4.8-4.48c.43,1.48-.09,3.38-1.77,3.72-2.73.55-2.84-4.12-.58-4.55a1.38,1.38,0,0,1,1-.31A1.57,1.57,0,0,1,45.45,83.07Zm-.84-16.85a.14.14,0,0,1-.17.13,5.21,5.21,0,0,0-1.72-.48,7.46,7.46,0,0,0,.76,1.08,4.92,4.92,0,0,1,.63,1.22,8.12,8.12,0,0,1,.55,2.89,7.67,7.67,0,0,1-2,4.77c-.1.12-.24,0-.23-.13a9,9,0,0,0,.14-2.13c-.41,1.17-.75,2.54-1.84,3.21a.14.14,0,0,1-.2-.15C41,75,40,73.83,39.65,72.32a7.77,7.77,0,0,1,0-2.68A11.7,11.7,0,0,0,39,71.23a.14.14,0,0,1-.26,0,11.81,11.81,0,0,1-.15-4.82.15.15,0,0,1-.1-.13,8.94,8.94,0,0,0-.46-2.2,6.89,6.89,0,0,1-.76,3.44.14.14,0,0,1-.25-.07c-.14-3.16-3.27-4.9-4-7.85a8.3,8.3,0,0,1,1.69-6.74,13.82,13.82,0,0,0-1.55.84.14.14,0,0,1-.2-.15,7.17,7.17,0,0,1,1.87-3.41,5.12,5.12,0,0,1-1.55.39.14.14,0,0,1-.1-.23c1.41-1.23,2.17-3,3.51-4.29a4.44,4.44,0,0,0-1.6,1,.14.14,0,0,1-.23-.13,7.38,7.38,0,0,1,.31-1.08.12.12,0,0,1-.06-.15c.5-1.54,1.82-2.49,2.53-3.9a.13.13,0,0,1,.15-.06,7.1,7.1,0,0,1,2.46,1.77A5.61,5.61,0,0,1,41.88,46c.29,1.66-1.44,1.85-2.34,2.79a19,19,0,0,1,2.78-.66.14.14,0,0,1,.13.17c-.48,1.38-1.84,2.18-3.05,2.84a7,7,0,0,0-3.3,3.26,4.38,4.38,0,0,1,2.67-.87.14.14,0,0,1,.1.23,5,5,0,0,0-1.52,3.28,2.37,2.37,0,0,1,1.3-.51.14.14,0,0,1,.13.17c-.13.57-.41,1.14-.54,1.7a.13.13,0,0,1,0,.07C39.33,61.89,44.27,62.39,44.61,66.22Zm10.58-7.39c-.52.52-1,1.27-1.7,1.52a3.81,3.81,0,0,1-3.77-1.09,3.2,3.2,0,0,1,.42,1.44.14.14,0,0,1-.17.13c-2-.39-4.25-.92-5.7-2.41-1.2-1.23-1.05-2.57-.44-4a14.18,14.18,0,0,0-1.87,2.43.14.14,0,0,1-.25,0c-.84-2.28,1.59-4,3.18-5.35-1.13.12-2,1-3.07,1.39a.14.14,0,0,1-.17-.13,3,3,0,0,1,.59-1.55,5.64,5.64,0,0,1,.95-1.76c.51-.67,1.4-1.55,2.33-1.41s1,1.51,1.25,2.32c.46,1.74,2.38,2.05,3.92,2.2a.14.14,0,0,1,.12.2A11.28,11.28,0,0,1,49.2,54.4a9.35,9.35,0,0,0,2.23-.79,7.5,7.5,0,0,0,2-1.29c.83-.86,1.36-2,2.36-2.72a.14.14,0,0,1,.16,0,14.86,14.86,0,0,1,1,1.51,4.42,4.42,0,0,0,.13-2.85.14.14,0,0,1,.17-.17c2.13.51,5.4,2.45,4.64,5.08a.14.14,0,0,1-.2.08,9.05,9.05,0,0,0-.86-.66,3.88,3.88,0,0,1,.2,2.56,4.71,4.71,0,0,1-1,1.61c-.8.89-2,2-3.27,2.09a.14.14,0,0,1-.13-.17c.24-.81.69-1.53.93-2.33Q56.41,57.61,55.18,58.83Z"/><path class="cls-5" d="M59.41,60.85l0,.14c.31-.19.62-.37.92-.57a3.92,3.92,0,0,0,1.2-1.25,1.54,1.54,0,0,1,.58-.63,4.17,4.17,0,0,0,2.76-4.31c0-.14.18-.26.25-.1v0h0a7.34,7.34,0,0,1,.32.91,9.52,9.52,0,0,0,.27-2.66.14.14,0,0,1,.25-.07,25,25,0,0,1,1,2.6,5.23,5.23,0,0,0,.81-2.5.14.14,0,0,1,.23-.06A3.12,3.12,0,0,1,68.86,55a3.56,3.56,0,0,0,.93-.6,6,6,0,0,0-.11-8.14,3.16,3.16,0,0,1,1.43,1.29S72.13,45,69,43a10.28,10.28,0,0,1,2.45-.82,9.1,9.1,0,0,1-6.25-3.13c-4,.75-15.72,9.37-27.2-.21a9.74,9.74,0,0,0-2.71,2.57,3,3,0,0,1,2-.73c1.43.16,2.28,1.46,3.21,2.41a19.29,19.29,0,0,0,4,3.42A11.09,11.09,0,0,0,49.79,48a22.86,22.86,0,0,0,5.72-.54,14.09,14.09,0,0,0,5-1.83c1.1-.77,2.29-1.81,3.7-1.2a9.05,9.05,0,0,1,3.18,3,.14.14,0,0,1-.13.23,19.36,19.36,0,0,0-2.5-.54A4.54,4.54,0,0,1,66.89,49a.14.14,0,0,1-.19.19A8.56,8.56,0,0,0,62,48.1c4,4.79-.48,11.34-5.73,12.77a.14.14,0,0,1-.17-.1,7.44,7.44,0,0,1,.27-2.2,11.77,11.77,0,0,1-1.68,1.94,4.3,4.3,0,0,1-2.41.91A15.6,15.6,0,0,1,46,60.54a8.31,8.31,0,0,1-4.08-2.67,3.92,3.92,0,0,1-.58-3.46,7.32,7.32,0,0,0-1.51,3.67,4.33,4.33,0,0,0,2.2,4,16.7,16.7,0,0,1,2.82,2.07A4.54,4.54,0,0,1,46,67a.14.14,0,0,1-.17.13,8,8,0,0,0-1.65-.09,5.2,5.2,0,0,1,2,2.16,7.07,7.07,0,0,1,1.58,4.43.14.14,0,0,1-.23.1,3.79,3.79,0,0,0-1-.71,7.47,7.47,0,0,1,.6,6.38.14.14,0,0,1-.25,0c-.42-.73-.74-1.53-1.22-2.22a3.78,3.78,0,0,1-1.7,3,.14.14,0,0,1-.2-.08,13.57,13.57,0,0,0-.38-2.66,11.49,11.49,0,0,1-1.77,2.72.14.14,0,0,1-.23-.1c0-.86.3-1.7.27-2.56a10.64,10.64,0,0,1-2.5,2.18,4.23,4.23,0,0,1-.45.2,2.19,2.19,0,0,0,1.53-.41,2.61,2.61,0,0,0-.46,2.58c-2,1.22-1.22,3.67.31,5.81s2.86,1.12,3.06.61c1.22.82,2.65-.1,3.16-.82,1.12,1.33,3.26-.1,3.88-2.34s-.21-3-.21-3,.92-5-1-7.14a14,14,0,0,0,1.84,1.22,4.82,4.82,0,0,1-.51-2.86c.31-1.33-.92-2.24-1.94-3.06l1.53.71S48.06,65.4,45,63.43c.88-.27.88-.88.88-.88s-1.77-.41-1.56-.47.68-.68.68-.68,3.94,1.36,5.1.68a3.28,3.28,0,0,0,3.4.27c.48.82.48.54.48.54l1.5-1.63-.41,1.29A20.47,20.47,0,0,0,59.41,60.85ZM40.65,87.55c-.82.23-1.4-1.32-1.56-1.85-.26-.85-.51-2.18.36-2.78a.11.11,0,0,1,.13,0,.89.89,0,0,1,.76-.22c.54.1.52.89.48,1.28a5.16,5.16,0,0,0,0,1.87c.08.29.16.59.21.89S41,87.45,40.65,87.55Zm3-.76c-2.73.55-2.84-4.12-.58-4.55a1.38,1.38,0,0,1,1-.31,1.57,1.57,0,0,1,1.36,1.15C45.88,84.55,45.36,86.45,43.68,86.79Zm4.13-3.89h0c1.08-1,1.91,1.32,1.16,2.18a.81.81,0,0,1-1.43-.22,2,2,0,0,1,.12-1.78.14.14,0,0,1,0-.06l.12-.12Z"/><path class="cls-8" d="M36,62.19a11,11,0,0,1-1-3.94c-.21-1.59-.61-3-.06-4.6,0-.07-.05-.08-.09,0a6.19,6.19,0,0,0-1.56,4.45,7.13,7.13,0,0,0,2.45,4.37C35.87,62.54,36.09,62.32,36,62.19Z"/><path class="cls-8" d="M47.15,58.49a15.88,15.88,0,0,1-1.53-2.06,3.82,3.82,0,0,1-.11-3c.06-.1-.07-.13-.12,0-.38.58-1,.93-1.26,1.59a2.83,2.83,0,0,0-.2,2c.42,1.36,1.57,1.86,2.88,2.1C47.07,59.07,47.31,58.69,47.15,58.49Z"/><path class="cls-8" d="M44.58,49s-.07,0-.08,0-.16.09-.24.15-.28.16-.4.26a1.68,1.68,0,0,0-.62.88c-.08.3.24.39.42.17s.42-.6.64-.89c.08-.11.13-.23.21-.34A.32.32,0,0,0,44.58,49Z"/><path class="cls-8" d="M38,43.27c-.72,0-1.69.78-1.54,1.57,0,.25.32.23.49.12a1.55,1.55,0,0,0,.57-.83,1.48,1.48,0,0,1,.48-.75S38.1,43.27,38,43.27Z"/><path class="cls-8" d="M60.59,53.74a7.74,7.74,0,0,0-.43-1.15c-.21-.44-.68-.65-1-1,0,0-.07,0-.06.05.14.29.35.54.5.82a2.73,2.73,0,0,1,.12,1.32,8.24,8.24,0,0,1-.4,2.42c-.1.31.23.33.4.16A2.38,2.38,0,0,0,60.59,53.74Z"/><path class="cls-8" d="M40.77,71.93a5.65,5.65,0,0,1-.31-2.65c0-.05-.06,0-.08,0a4.65,4.65,0,0,0,.54,4.61c.12.17.38,0,.35-.21A6.75,6.75,0,0,0,40.77,71.93Z"/><path class="cls-8" d="M39.37,64.89a2.23,2.23,0,0,0-.46-.77c-.25-.24-.55-.39-.78-.64,0,0-.09,0-.08.07.19.52.53.92.67,1.46s.15,1.16.25,1.74c0,.26.38.08.43-.09A2.74,2.74,0,0,0,39.37,64.89Z"/><path class="cls-8" d="M65.09,46.07a2.25,2.25,0,0,0-1.68-.93,3.73,3.73,0,0,0-2.13.77s-.08.12,0,.11a3.67,3.67,0,0,1,1.78-.15c.59.15,1.1.49,1.7.63C65,46.55,65.25,46.27,65.09,46.07Z"/><path class="cls-8" d="M43.3,82.68a2.27,2.27,0,0,0-1.14,1.22c-.19.48-.31,1.38.24,1.65.19.1.43-.09.53-.25a1.65,1.65,0,0,0,.18-1.15,2.4,2.4,0,0,1,.23-1.41S43.35,82.65,43.3,82.68Z"/><path class="cls-8" d="M39.78,84.25c-.06-.27-.11-.54-.16-.81,0-.07-.1,0-.11,0-.19.51-.71,1.78.09,2,.22.07.41-.16.41-.37A4.23,4.23,0,0,0,39.78,84.25Z"/><path class="cls-9" d="M40.67,39.69s-.28,7.33,9.51,7.75,14-5.64,13.32-8.32C58.21,39.76,55.12,49.84,40.67,39.69Z"/><path class="cls-10" d="M55.55,46.11A5.91,5.91,0,0,1,58,44.64c1.45-.68,2.63-2,4.14-2.54a5.41,5.41,0,0,1,.76-.19,4.1,4.1,0,0,0,.59-2.77c-5.29.63-8.39,10.71-22.83.56a7.35,7.35,0,0,0,2.82,5.65.82.82,0,0,1,.44-.24c.57-.11,1.24.37,1.74.59a3.54,3.54,0,0,1,1.61,1,1.91,1.91,0,0,1,.23.47,16.13,16.13,0,0,0,2.66.33,19.29,19.29,0,0,0,5-.4A2,2,0,0,1,55.55,46.11Z"/><path class="cls-4" d="M78,40.09a2.79,2.79,0,0,1,.63-1.74c.55-.79.87-1.43.27-2.32a.11.11,0,0,1,0-.07l-.16-.24a.14.14,0,0,1,.12-.2A1.93,1.93,0,0,1,80.5,37a2.32,2.32,0,0,0,.25-1.27c-.46-2.87-.82-3.17-2.26-3.75,1.22-.71,1.43-1.73-1.12-3s-2.45-2.55-1.63-4.69-2-4.08-3.36-4.9c2.14-.41,2.45-1.22,2.45-1.22a8.29,8.29,0,0,1-6.43-3.37c-2.24-3.37-4.08-3.67-6.63-2.24-1.94-1.63-5-1.22-6.83.2a3.71,3.71,0,0,1,.71-1.63,4.5,4.5,0,0,0-4.59,1.43c-1.43-2.35-2.14-2.45-2.14-2.45l-.31,2.45s-2-2.24-3.88-1l.92.92s-4.39-.2-4.79,2.25c0,0-3.37-4.39-7.24-1.12-2.14,3-4.39,4.18-5.71,3.67.2,1.22.92,1.43.92,1.43s-5.2,2.35-3.47,4c-2.86,4.39-2.45,5.81-.71,8.26s-.82,5.71-4.28,5.51l.92.61s-4.18,4.79-.51,5.3a1.33,1.33,0,0,0,.82,1.22,1.56,1.56,0,0,1,.82-1.63c1.12,1.73,1.43.41,3.06.82a5.85,5.85,0,0,0,6.63-2.35,8.68,8.68,0,0,0,.82-6.63l1.53,3.06s.81-2.65.2-4.39a9,9,0,0,0,1.73.92s-1.73,2.25-1,4.18A13.39,13.39,0,0,1,36.7,35.7c-.4.52-1.15,2.16,2.41,4.81,3.06,3.57,6.63,5.71,11.93,5.61S61.86,41,61.86,41a4.76,4.76,0,0,0,4.08-2.65c.51.51,1.73-.41,1.73-.41s-.9,2,2.56,2.64a1.15,1.15,0,0,1,.54-1.47c.81,2.07,3.31,2.12,5.44,2.25a19.78,19.78,0,0,0,3.58.29C79,41.26,78.05,41,78,40.09Z"/><path class="cls-11" d="M50.69,46.25c-4.71,0-8.3-1.74-11.65-5.65-1.7-1.27-2.63-2.46-2.78-3.55a2,2,0,0,1,0-.62c-.24.31-.51.71-.81,1.18a.12.12,0,0,1-.12.06.12.12,0,0,1-.1-.08c-.64-1.73.58-3.65.94-4.17a10,10,0,0,1-1.33-.7,9.22,9.22,0,0,1-.3,4.15.12.12,0,0,1-.11.09.13.13,0,0,1-.12-.07l-1.1-2.21a8.38,8.38,0,0,1-1,5.79,5.61,5.61,0,0,1-4.89,2.63,7.92,7.92,0,0,1-1.87-.23,2.49,2.49,0,0,0-.62-.08,3.17,3.17,0,0,0-.75.11,2.28,2.28,0,0,1-.52.08c-.42,0-.77-.26-1.19-.88a1.43,1.43,0,0,0-.66,1.42.14.14,0,0,1,0,.05.13.13,0,0,1-.13.12h0a1.47,1.47,0,0,1-.89-1.23,1.65,1.65,0,0,1-1.42-1c-.53-1.43,1.41-3.88,1.87-4.42l-.8-.53a.12.12,0,0,1,.08-.22h.3A4.53,4.53,0,0,0,24.71,34a2.83,2.83,0,0,0-.18-3c-1.75-2.47-2.19-3.93.66-8.32a1.05,1.05,0,0,1-.3-.93c.22-1.32,2.85-2.68,3.65-3.07a2,2,0,0,1-.76-1.4.13.13,0,0,1,0-.12.12.12,0,0,1,.12,0,1.66,1.66,0,0,0,.6.1c1.4,0,3.3-1.43,5-3.73l0,0a4.73,4.73,0,0,1,3.06-1.24,6,6,0,0,1,4.19,2.18c.55-1.91,3.53-2.1,4.56-2.1l-.7-.7a.12.12,0,0,1,0-.1.12.12,0,0,1,.05-.09,2.22,2.22,0,0,1,1.25-.39,4.17,4.17,0,0,1,2.6,1.24l.27-2.2a.12.12,0,0,1,0-.08.13.13,0,0,1,.09,0c.08,0,.78.17,2.14,2.36A4.63,4.63,0,0,1,55.67,11a.12.12,0,0,1,.08.09.12.12,0,0,1,0,.12,3.29,3.29,0,0,0-.59,1.24,6.37,6.37,0,0,1,3.53-1.08,4.86,4.86,0,0,1,3.1,1,5.27,5.27,0,0,1,2.53-.78c1.47,0,2.76,1,4.19,3.1a8.23,8.23,0,0,0,6.32,3.31.12.12,0,0,1,.1.05.12.12,0,0,1,0,.11s-.33.81-2.24,1.24c2.68,1.71,3.74,3.35,3.16,4.88-.84,2.21-.81,3.39,1.57,4.54,1.35.64,2,1.29,2.07,1.93a1.33,1.33,0,0,1-.73,1.12c1.35.57,1.67,1,2.12,3.75A2.45,2.45,0,0,1,80.61,37a.12.12,0,0,1-.23,0,1.8,1.8,0,0,0-1.55-1.36l.16.25A.13.13,0,0,1,79,36c.66,1,.27,1.69-.27,2.46a2.7,2.7,0,0,0-.61,1.66c0,.67.64,1,1.28,1.25l.46.23a.12.12,0,0,1,0,.23,4.56,4.56,0,0,1-.58,0,13.39,13.39,0,0,1-1.9-.19c-.41-.06-.8-.12-1.12-.14H76c-2.07-.11-4.4-.24-5.24-2.2a1.31,1.31,0,0,0-.35.45,1,1,0,0,0,0,.79.12.12,0,0,1,0,.08.13.13,0,0,1-.13.12h0a3.42,3.42,0,0,1-2.58-1.42,1.66,1.66,0,0,1-.17-1,2.41,2.41,0,0,1-1.12.4.73.73,0,0,1-.38-.1,4.78,4.78,0,0,1-4.06,2.6c-.49.43-5.79,5-10.86,5.1Zm-14-10.67a.12.12,0,0,1,.08,0,.12.12,0,0,1,0,.17A1.63,1.63,0,0,0,36.49,37c.14,1,1,2.16,2.7,3.39l0,0C42.51,44.29,46.05,46,50.69,46H51c5.2-.1,10.68-5,10.73-5.07a.12.12,0,0,1,.08,0c1.62,0,2.88-.82,4-2.59a.12.12,0,0,1,.09-.06.13.13,0,0,1,.1,0,.43.43,0,0,0,.33.12,2.8,2.8,0,0,0,1.25-.54.12.12,0,0,1,.15,0,.12.12,0,0,1,0,.15,1.45,1.45,0,0,0,.07,1.17,3,3,0,0,0,2.2,1.25,1.25,1.25,0,0,1,.19-1c.16-.24.39-.44.52-.44a.15.15,0,0,1,.13.09c.74,1.91,3,2,5.07,2.15h.26c.33,0,.72.08,1.14.14a12.4,12.4,0,0,0,2,.19l0,0c-.68-.32-1.37-.65-1.42-1.46a2.93,2.93,0,0,1,.66-1.82c.52-.74.84-1.33.27-2.18a.26.26,0,0,1,0-.09l-.15-.22a.26.26,0,0,1,.21-.39,2,2,0,0,1,1.68,1.24,2.41,2.41,0,0,0,.11-.94c-.46-2.85-.81-3.09-2.18-3.64a.12.12,0,0,1,0-.22c.55-.32.83-.67.81-1,0-.53-.69-1.12-1.93-1.72-2.54-1.22-2.57-2.54-1.69-4.85.55-1.43-.6-3.08-3.32-4.75a.12.12,0,0,1,0-.23,3.84,3.84,0,0,0,2.25-1,8.38,8.38,0,0,1-6.31-3.41c-1.38-2.07-2.61-3-4-3a5.11,5.11,0,0,0-2.48.79.13.13,0,0,1-.14,0,4.6,4.6,0,0,0-3-1A6.16,6.16,0,0,0,55,12.87a.12.12,0,0,1-.14,0,.12.12,0,0,1-.05-.13,4.78,4.78,0,0,1,.62-1.53,4.29,4.29,0,0,0-4.28,1.43.12.12,0,0,1-.1,0,.12.12,0,0,1-.1-.06A6.55,6.55,0,0,0,49,10.3l-.29,2.29a.13.13,0,0,1-.08.1.12.12,0,0,1-.13,0,4.25,4.25,0,0,0-2.6-1.34,2,2,0,0,0-1,.26l.81.81a.13.13,0,0,1,0,.14.12.12,0,0,1-.12.07H45.4c-1,0-4.1.16-4.43,2.15a.12.12,0,0,1-.22.05S39,12.5,36.59,12.5a4.48,4.48,0,0,0-2.89,1.17C32,16.07,30,17.5,28.54,17.5a2,2,0,0,1-.48-.06c.22.95.77,1.12.79,1.13a.13.13,0,0,1,.09.11.12.12,0,0,1-.07.12s-3.5,1.6-3.74,3a.85.85,0,0,0,.3.78.12.12,0,0,1,0,.16c-2.82,4.33-2.41,5.73-.72,8.12a3.07,3.07,0,0,1,.2,3.28,4.76,4.76,0,0,1-4.16,2.43l.57.38a.13.13,0,0,1,.05.09.12.12,0,0,1,0,.1S18.91,40,19.45,41.41a1.48,1.48,0,0,0,1.33.82.12.12,0,0,1,.11.12,1.17,1.17,0,0,0,.56,1,1.64,1.64,0,0,1,.9-1.53.12.12,0,0,1,.16,0c.49.76.8.87,1,.87a2,2,0,0,0,.46-.08,3.36,3.36,0,0,1,.8-.11,2.74,2.74,0,0,1,.67.09,7.62,7.62,0,0,0,1.81.23A5.38,5.38,0,0,0,32,40.35c1.89-2.88.81-6.49.8-6.53a.12.12,0,0,1,.23-.09l1.39,2.77a7.93,7.93,0,0,0,.12-4,.12.12,0,0,1,.18-.15,9.09,9.09,0,0,0,1.71.9.13.13,0,0,1,.08.08.12.12,0,0,1,0,.11s-1.54,2-1.08,3.82a13,13,0,0,1,1.23-1.65A.12.12,0,0,1,36.7,35.58Z"/><path class="cls-5" d="M80.75,35.7c-.46-2.87-.82-3.17-2.26-3.75,1.22-.71,1.43-1.73-1.12-3s-2.45-2.55-1.63-4.69-2-4.08-3.36-4.9c2.14-.41,2.45-1.22,2.45-1.22a8.29,8.29,0,0,1-6.43-3.37c-2.24-3.37-4.08-3.67-6.63-2.24-1.94-1.63-5-1.22-6.83.2a3.71,3.71,0,0,1,.71-1.63,4.5,4.5,0,0,0-4.59,1.43c-1.43-2.35-2.14-2.45-2.14-2.45l-.31,2.45s-2-2.24-3.88-1l.92.92s-4.39-.2-4.79,2.25c0,0-3.37-4.39-7.24-1.12-2.14,3-4.39,4.18-5.71,3.67.2,1.22.92,1.43.92,1.43s-5.2,2.35-3.47,4c-2.86,4.39-2.45,5.81-.71,8.26s-.82,5.71-4.28,5.51l.92.61s-4.18,4.79-.51,5.3a1.33,1.33,0,0,0,.82,1.22,1.56,1.56,0,0,1,.82-1.63c1.12,1.73,1.43.41,3.06.82a5.85,5.85,0,0,0,6.63-2.35,8.68,8.68,0,0,0,.82-6.63l1.53,3.06s.81-2.65.2-4.39a9,9,0,0,0,1.73.92s-1.73,2.25-1,4.18A13.39,13.39,0,0,1,36.7,35.7c-.4.52-1.15,2.16,2.41,4.81,3.06,3.57,6.63,5.71,11.93,5.61S61.86,41,61.86,41a4.76,4.76,0,0,0,4.08-2.65c.51.51,1.73-.41,1.73-.41s-.9,2,2.56,2.64a1.15,1.15,0,0,1,.54-1.47c.81,2.07,3.31,2.12,5.44,2.25a19.78,19.78,0,0,0,3.58.29C79,41.26,78.05,41,78,40.09a2.79,2.79,0,0,1,.63-1.74c.55-.79.87-1.43.27-2.32a.11.11,0,0,1,0-.07l-.16-.24a.14.14,0,0,1,.12-.2A1.93,1.93,0,0,1,80.5,37,2.32,2.32,0,0,0,80.75,35.7ZM38.33,18.29a.14.14,0,0,1-.21,0c-.44-.4-.87-.81-1.29-1.23.06.91.27,1.81.29,2.73a.14.14,0,0,1-.2.12,4.8,4.8,0,0,1-1.65-2,8,8,0,0,0,.6,2.92,8.71,8.71,0,0,1,.87,2.92c.05,1.88-1.3,3.49-2.61,4.69-.08.07-.24,0-.23-.1a6.91,6.91,0,0,0-.15-3.09c-.13-.35-.27-.68-.39-1a10.15,10.15,0,0,1-.68,3.88c-.06.14-.24,0-.25-.07a4.88,4.88,0,0,0-.75-1.94,12.41,12.41,0,0,1-.84,6.24.14.14,0,0,1-.23,0c-.22-.51-.4-1-.59-1.56,0,1.52,0,3.53-1.46,4.14a.14.14,0,0,1-.17-.13v-1a4.3,4.3,0,0,1-3.14,2.45.14.14,0,0,1-.11-.25,4.47,4.47,0,0,0,2-3.58,16.79,16.79,0,0,1,.47-3.23c-.48.31-1,.64-1.47.91-.1.05-.24,0-.2-.15a5.52,5.52,0,0,1,.67-1.41A4.23,4.23,0,0,0,25.19,30c-.06.09-.23.09-.25,0a5,5,0,0,1,.93-3.71,3.74,3.74,0,0,0-.68.86.14.14,0,0,1-.25-.07A4.91,4.91,0,0,1,25.82,24a9.15,9.15,0,0,1,2-1.87,12.39,12.39,0,0,0-1.35.28.14.14,0,0,1-.16-.2c1-1.94,3.21-2.54,5.07-3.39a3.55,3.55,0,0,1-1.7-.65c-.08-.06-.1-.23,0-.25,1.49-.22,2.31-1.38,3.38-2.3a4.54,4.54,0,0,1,1-.63,3.45,3.45,0,0,1,3.12-1.1A2.43,2.43,0,0,1,39,15.73,4,4,0,0,1,38.33,18.29ZM49.49,39.95c-.07.85-.4,2.59-1.31,3a2.51,2.51,0,0,1-2.92-1.08c-.41-.82.25-1.87,1-2.46-.45.09-.88.23-1.33.35a.14.14,0,0,1-.15-.2,2.64,2.64,0,0,1,1.75-1.41,2.28,2.28,0,0,1,.56-.15c-.08-.24-.2-.47-.28-.71s.13-.21.23-.13a7.82,7.82,0,0,0,1.2,1.07,4.77,4.77,0,0,1,.91.54A1.35,1.35,0,0,1,49.49,39.95Zm6.89,1.32a4.36,4.36,0,0,1-1,1.56,3.05,3.05,0,0,1-3.25-.1c-1-.76-.89-2-.66-3.11a.14.14,0,0,1,0-.11,1.75,1.75,0,0,1,.2-.63v0a.12.12,0,0,1,.07-.08,1.76,1.76,0,0,1,1.53-.55c1,0,2.32-.13,3.09.69a.14.14,0,0,1-.1.23,4.32,4.32,0,0,0-1.75.43c.72,0,1.72,0,2,.57C56.78,40.54,56.56,40.89,56.38,41.27ZM60,33.14a.14.14,0,0,1-.2.12c-.57-.34-1.07-.79-1.67-1.07.79,1.22,1.42,2.57.63,4a.14.14,0,0,1-.23,0,7,7,0,0,0-3.69-2.94,11.76,11.76,0,0,0-4.52-.38A8.87,8.87,0,0,0,46.15,34a9.32,9.32,0,0,0-2.79,3.11.14.14,0,0,1-.23,0,2.89,2.89,0,0,1,0-2.95c-.61.49-1.1,1.11-1.7,1.62a.14.14,0,0,1-.23-.1c-.07-2.83,1.77-4.84,4.12-6.1a8.24,8.24,0,0,0-2.79.21.14.14,0,0,1-.13-.23,4.48,4.48,0,0,1,4-1.31,7,7,0,0,0-2-1.12c-.12-.05-.06-.21,0-.25,1.89-.72,3.85-.29,5.81-.43a.11.11,0,0,1,.09,0h2.22a7.81,7.81,0,0,1,3.65.55.14.14,0,0,1,0,.25,7.32,7.32,0,0,0-1.63.82,6.13,6.13,0,0,1,3.87.66c.08.06.09.23,0,.25a4.19,4.19,0,0,0-1.5.58l.37.15C58.75,30.29,60.19,31.41,60,33.14ZM60.33,17a6.84,6.84,0,0,0-4.77,0c-.38.13-.43.83-.45,1.18a3,3,0,0,1-.34,1.66.14.14,0,0,1-.23,0,7.94,7.94,0,0,1-1-1.75c-1,1.36-2.37,2.62-4,2.67a.14.14,0,0,1-.14-.14,4,4,0,0,1,1.16-2.47,14.31,14.31,0,0,0-3.14,2.51.14.14,0,0,1-.21,0c-.63-.88,0-2.47.86-3.1-1.7-.57-3.39-.14-5.12.16-.11,0-.23-.09-.15-.2a7.46,7.46,0,0,1,1.53-1.45,4.68,4.68,0,0,0-1.56.17c-.09,0-.21-.06-.17-.17.76-1.91,2.88-2.19,4.62-1.55-.31-.76-.81-1.42-1.17-2.15a.14.14,0,0,1,.15-.2,5.3,5.3,0,0,1,2.41,1.59,4.66,4.66,0,0,1,.62-1.58.14.14,0,0,1,.19,0,4.17,4.17,0,0,1,1.45,1.43c.87-1.12,2-1.91,3.31-1.57a.14.14,0,0,1,.09.17,6.4,6.4,0,0,0-.36,2.13,7,7,0,0,1,6-1.44.14.14,0,0,1,0,.26A10,10,0,0,0,56.49,15c1.52,0,3.82.08,4,1.92A.13.13,0,0,1,60.33,17ZM74.68,34.15c0,.15-.27.11-.27,0a3.4,3.4,0,0,0-1.12-2.28,9.76,9.76,0,0,0,.15,3.22.14.14,0,0,1-.23.13,5.3,5.3,0,0,1-2.14-3.57,6.33,6.33,0,0,0-.94,2.22c0,.15-.22.11-.26,0A5.54,5.54,0,0,1,69.74,30a8.66,8.66,0,0,0,.61-2.23c0-.09,0-.18,0-.28a5.75,5.75,0,0,1-1.42,1.83c-.1.08-.27,0-.23-.13a12.09,12.09,0,0,0,.46-2,18.9,18.9,0,0,0-1.67,3.89c0,.12-.23.14-.26,0a7.53,7.53,0,0,1,.78-4.9,6.12,6.12,0,0,0-1.75,2.63c0,.11-.23.14-.26,0-.47-2.23.2-4.3,1-6.34a9.72,9.72,0,0,0-1.22.88.14.14,0,0,1-.23-.13,10.83,10.83,0,0,1,1-2.49,6.48,6.48,0,0,1-1.09.93.14.14,0,0,1-.19-.19,4.86,4.86,0,0,0,.6-1.63,7.85,7.85,0,0,0-1.15-4.49.14.14,0,0,1,.08-.2,3.67,3.67,0,0,1,2.29.2c.87.42.55,1,.65,1.84s1.82.57,2.42.65a1.61,1.61,0,0,1,1.36,1,.14.14,0,0,1-.15.2,4.15,4.15,0,0,0-2.39.28c1.44,1,3.38,1.38,4.55,2.74a1.78,1.78,0,0,1,.57,1.68c-.23.72-.78,1.28-1.07,2a1.75,1.75,0,0,0,.74,2.4,5.18,5.18,0,0,1,1.55,1.33C76.28,31,74.9,32.56,74.68,34.15Z"/><path class="cls-12" d="M33.7,14a4,4,0,0,1,3.51-.91,7.77,7.77,0,0,1,3.24,2.12,11.63,11.63,0,0,1,1.69,3.1c.34-1.15.32-2.93-.48-3.78a.14.14,0,0,1,0-.19,6.06,6.06,0,0,1,1.69-1.25,10.61,10.61,0,0,0,1.56-.64c-1.26.06-3.77.41-4.07,2.24,0,0-3.37-4.39-7.24-1.12-.29.41-.59.78-.89,1.12Z"/><path class="cls-12" d="M60.58,12.3a.14.14,0,0,1,0,.19c-1.15.88-.52,2.71.27,3.72a3.77,3.77,0,0,1,1.79-3.13,3.72,3.72,0,0,1,4,.66c1.51,1.14,2.48,3,4.39,3.56l.45.1a7.22,7.22,0,0,1-3.09-2.58c-2.24-3.37-4.08-3.67-6.63-2.24A4.43,4.43,0,0,0,60,11.68,2.09,2.09,0,0,1,60.58,12.3Z"/><path class="cls-13" d="M80.75,35.7c-.46-2.87-.82-3.17-2.26-3.75,1.22-.71,1.43-1.73-1.12-3s-2.45-2.55-1.63-4.69a2.08,2.08,0,0,0,.12-.44c-.09.24-.19.47-.29.7-.34.79-.93,1.89-.68,2.78s1.39,1.53,2.09,2.2a2.47,2.47,0,0,1,.82,2.3c0,.09-.11.18-.2.12a2.06,2.06,0,0,0-1.49-.35,2.87,2.87,0,0,1,1.31,3.28c-.45,1.48-2.19,3.17-1.18,4.75a.14.14,0,0,1-.19.19c-1-.61-2.25-1-3-2a4.32,4.32,0,0,1-.72-2.12,14.86,14.86,0,0,0-.51,3,.14.14,0,0,1-.17.09c-1.79-.62-1.95-2.43-2.25-4a5.48,5.48,0,0,1-1,2,.14.14,0,0,1-.23-.06c-.13-.71.15-1.38.09-2.08A4.36,4.36,0,0,0,67,32.35a6.28,6.28,0,0,1-1.49-3.18,8.62,8.62,0,0,1,.8-5.34,9.58,9.58,0,0,0-1.61.45.14.14,0,0,1-.17-.17,4,4,0,0,1,.77-2,11.33,11.33,0,0,1,1.12-1v0a5.08,5.08,0,0,0-.6.33,3.56,3.56,0,0,1-.33.24l-.05,0c-.2.14-.41.27-.62.39s-.24,0-.2-.15c.59-1.55.45-4.16-1.08-5.14a9.36,9.36,0,0,1-.18,4,8.23,8.23,0,0,1-1.93,3,3.92,3.92,0,0,1,1.6-.29.14.14,0,0,1,.12.2c-.38.88-1.5,2.12-1.11,3.14a4.73,4.73,0,0,1,1.57-.76.14.14,0,0,1,.17.17c-.11.79-.4,1.54-.53,2.33a21.15,21.15,0,0,1-.49,2.7.14.14,0,0,1-.26,0c-.38-1.33-.88-2.74-2.19-3.42a4,4,0,0,0-3.71-.13,6.42,6.42,0,0,1,2.89,1,.14.14,0,0,1,0,.21c-.35.23-.69.47-1,.73,2,.34,2.87,2.67,3.18,4.48a.14.14,0,0,1-.05.13,5,5,0,0,1,.17,2.52.14.14,0,0,1-.25,0,2.49,2.49,0,0,0-1.1-1.13,8.56,8.56,0,0,1-.25,4.41.14.14,0,0,1-.26,0c-.31-1.35-1.7-3.5-3.26-2.67.63.26,1.36.49,1.6,1.17a.14.14,0,0,1-.09.17,4.68,4.68,0,0,1-1,.12,2.31,2.31,0,0,1,.7,1.2,2.46,2.46,0,0,1-.56,1.69,4.48,4.48,0,0,1-3.13,1.9c-1,.07-2.36-.08-2.82-1.18A5,5,0,0,1,51,40.46,4.23,4.23,0,0,1,50.4,42a3.71,3.71,0,0,1-2.6,1.46,2.33,2.33,0,0,1-2.43-1.19,1.9,1.9,0,0,1-.09-.33l0,0a1.58,1.58,0,0,1,.15-1.49q.08-.25.17-.5c-.25.19-.49.4-.76.56a.14.14,0,0,1-.2-.08c-.25-1.33.84-2.3,1.74-3.15a2.05,2.05,0,0,0-.76.2,5.19,5.19,0,0,0-1.29,1.38,14.76,14.76,0,0,0-1,2.89.14.14,0,0,1-.2.08c-1.43-.93-1.47-2.43-1.36-4a5.56,5.56,0,0,0-1,1.57.14.14,0,0,1-.25,0,7.83,7.83,0,0,1-.2-5.66,8.06,8.06,0,0,1,3.2-3.37,9.8,9.8,0,0,0-1.86.69c-.07,0-.19,0-.2-.08a2.13,2.13,0,0,1,1-2.39A6.64,6.64,0,0,1,44.95,28a4.16,4.16,0,0,0-2.32-.3c-.12,0-.24-.12-.13-.23a3.38,3.38,0,0,1,1.41-.8,6.49,6.49,0,0,0-3.22,1,1.58,1.58,0,0,1,1.39.2A.14.14,0,0,1,42,28c-.45.22-1.15.45-1.37.95s-.07,1.06-.19,1.6-.54.79-.91,1.12A9.09,9.09,0,0,0,38,33.43c-.07.1-.27.08-.25-.07a5.45,5.45,0,0,1,1-2.57c-.47.36-.91.77-1.36,1.15-.08.07-.25,0-.23-.1A3.75,3.75,0,0,1,37.95,30a6.68,6.68,0,0,0,1.27-2,6.24,6.24,0,0,0-.56-4.64c-.08-.13.07-.23.19-.19a2.14,2.14,0,0,1,.9.83,4.07,4.07,0,0,0-.38-3.59,6.82,6.82,0,0,0-2-1.77c.21.75.36,1.52.51,2.29a.14.14,0,0,1-.23.13,6.24,6.24,0,0,0-1.37-.85,6.69,6.69,0,0,1,1.19,4.82c-.41,2.4-2.62,4-3,6.37a.14.14,0,0,1-.2.08,1.92,1.92,0,0,1-.66-.87c-.27.79.12,1.64,0,2.47a.14.14,0,0,1-.23.1,3.67,3.67,0,0,1-.56-.71,9.61,9.61,0,0,1-1.75,5.23A5.68,5.68,0,0,1,28,39.83a12.42,12.42,0,0,1-2.3.33,3.79,3.79,0,0,0-2.31.67.14.14,0,0,1-.21,0,2.37,2.37,0,0,1,.4-2.42c-1.13.41-1.78,1.86-2.11,2.92a.14.14,0,0,1-.25,0c-1.16-1.5-.19-3.06,1.06-4.14a10.11,10.11,0,0,0,2.25-2A2.49,2.49,0,0,0,24.87,34a4.69,4.69,0,0,1-4.52,2.46l.92.61s-4.18,4.79-.51,5.3a1.33,1.33,0,0,0,.82,1.22,1.56,1.56,0,0,1,.82-1.63c1.12,1.73,1.43.41,3.06.82a5.85,5.85,0,0,0,6.63-2.35,8.68,8.68,0,0,0,.82-6.63l1.53,3.06s.81-2.65.2-4.39a9,9,0,0,0,1.73.92s-1.73,2.25-1,4.18A13.39,13.39,0,0,1,36.7,35.7c-.4.52-1.15,2.16,2.41,4.81,3.06,3.57,6.63,5.71,11.93,5.61S61.86,41,61.86,41a4.76,4.76,0,0,0,4.08-2.65c.51.51,1.73-.41,1.73-.41s-.9,2,2.56,2.64a1.15,1.15,0,0,1,.54-1.47c.81,2.07,3.31,2.12,5.44,2.25a19.78,19.78,0,0,0,3.58.29C79,41.26,78.05,41,78,40.09a2.79,2.79,0,0,1,.63-1.74c.55-.79.87-1.43.27-2.32a.11.11,0,0,1,0-.07l-.16-.24a.14.14,0,0,1,.12-.2A1.93,1.93,0,0,1,80.5,37,2.32,2.32,0,0,0,80.75,35.7Z"/><path class="cls-12" d="M45.51,28.2a7.14,7.14,0,0,1,.94,0,7,7,0,0,0-2-1.12c-.12-.05-.06-.21,0-.25l.32-.11a3.61,3.61,0,0,0-1.8.62,4.33,4.33,0,0,1,2.51.59A.13.13,0,0,1,45.51,28.2Z"/><path class="cls-4" d="M32.89,30.18c0-.11,0-.17,0-.17S32.89,30.07,32.89,30.18Z"/><path class="cls-4" d="M36.7,35.71l.17-.19A1.26,1.26,0,0,0,36.7,35.71Z"/><path class="cls-3" d="M39.05,36C39,33.43,41,31.44,43.21,30.2a10.1,10.1,0,0,0-1.67,1,6.08,6.08,0,0,1-.13-.95c-.08-.77.46-1.12,1.08-1.4A13.11,13.11,0,0,1,45,28.17a.25.25,0,0,0,.1-.06c-.1-.1-.2-.2-.3-.29a3.49,3.49,0,0,0-1.9-.63,9,9,0,0,1,2.1-.42c.41,0,.81-.07,1.21-.08a4.18,4.18,0,0,0-.7-.1,5.53,5.53,0,0,0-1.59.14,3.1,3.1,0,0,0-1.77.91.14.14,0,0,0,.12,0,4.22,4.22,0,0,1,1.94.25,5.46,5.46,0,0,0-2.54,1,2.05,2.05,0,0,0-.43,2.55,8.43,8.43,0,0,0-2.32,2.92c-1,2.1.16,4.66.72,6.69,0,.15.29,0,.27-.14-.19-1.35-.7-2.61-.85-4A5.55,5.55,0,0,1,39.05,36Z"/><path class="cls-3" d="M62.61,34.07a4.45,4.45,0,0,1,.59,2.2,6.11,6.11,0,0,1-1.42,4.49.23.23,0,0,0,0,.2,4.15,4.15,0,0,0,1.42-1.91,9.88,9.88,0,0,0,.54-1.34,6.93,6.93,0,0,0,.08-1.09,4.44,4.44,0,0,0-1.42-3.16.25.25,0,0,0,.09-.18,1.33,1.33,0,0,0-.07-.32v0a6,6,0,0,0-.4-1.42,4.54,4.54,0,0,0-.84-1.06,2.86,2.86,0,0,0-1.47-1.08,2.82,2.82,0,0,1,.65,0c.41,0,.74.32,1.17.32h0a3.08,3.08,0,0,0-.46-.93,2.57,2.57,0,0,0-.77-.46,5.75,5.75,0,0,0-3.4-.3s.06.07.15.07a5.05,5.05,0,0,1,3.68.93,2.59,2.59,0,0,0-.42-.05,2.83,2.83,0,0,0-1.23.31,4.05,4.05,0,0,1,2.25,2.24,2.51,2.51,0,0,1,.33.54c0,.06,0,.13.07.2a4.06,4.06,0,0,0-1.06-.45,6.67,6.67,0,0,1,.66.66A10.3,10.3,0,0,1,62.61,34.07Z"/><path class="cls-7" d="M64.16,24.93a.14.14,0,0,1-.2-.08c-.28-1.24.65-2,1.37-2.86a.22.22,0,0,0-.2.11h0c-.38.11-.72.3-1.11.38a3.72,3.72,0,0,0,.84-1.91,3.62,3.62,0,0,0,0-.7c-.07-.29-.16-.58-.25-.86-.16-.49-.39-.95-.56-1.43h0l0,.1a6.23,6.23,0,0,1,.49,3.15,5.32,5.32,0,0,1-1.34,2.22.18.18,0,0,0,.13.06,2.18,2.18,0,0,0,.86-.13,2,2,0,0,0-.24.38,4.13,4.13,0,0,0-.24,2.16c0,.29.4.14.52,0a3.35,3.35,0,0,1,1.59-.92.27.27,0,0,0,.14-.16A3.79,3.79,0,0,0,64.16,24.93Z"/><path class="cls-3" d="M65,30a8.26,8.26,0,0,1-.15-3.17,5,5,0,0,1,.46-1.57c.16-.31.34-.61.48-.92h0c-1.46,1.44-1.58,2.94-1.36,5,.34,3.21,2.34,5.76,1.46,9.1-.1.38.46.17.54-.09a7.42,7.42,0,0,0,.11-3.62C66.08,33.16,65.36,31.65,65,30Z"/><path class="cls-7" d="M69.79,24.25c-.12-.07-.17-.25-.24-.37l-.22-.37c-.12-.21-.26-.41-.39-.61s-.19.06-.16.13c.15.27.29.54.43.81a2.21,2.21,0,0,1,.1.24c-.14-.11-.25-.26-.37-.36a1.2,1.2,0,0,0-.67-.32c-.14,0-.39.26-.2.34a2.1,2.1,0,0,1,.83.53.77.77,0,0,0,.76.28C69.77,24.54,69.94,24.34,69.79,24.25Z"/><path class="cls-7" d="M69.81,29.15a5.13,5.13,0,0,0-.93.51A4.07,4.07,0,0,0,69,29a7.29,7.29,0,0,0,0-1.16c0-.15-.22,0-.23.09a10.28,10.28,0,0,1-.11,1.27c-.07.42-.26.81-.35,1.22,0,.23.29.11.33-.05.08-.45.83-.75,1.18-.94C70,29.34,70,29.06,69.81,29.15Z"/><path class="cls-7" d="M71.33,34.88a2.2,2.2,0,0,0-.36,1,2.25,2.25,0,0,0,.07.68c-.1-.13-.18-.28-.26-.39-.22-.34-.36-.72-.57-1.07-.08-.13-.3,0-.24.15.19.36.32.75.51,1.11a2.83,2.83,0,0,0,.62.86c.12.09.29,0,.31-.17a2.57,2.57,0,0,0-.06-.87A2.34,2.34,0,0,1,71.59,35C71.68,34.75,71.41,34.75,71.33,34.88Z"/><path class="cls-3" d="M39,22.48a12.92,12.92,0,0,0-.09-1.77,7.84,7.84,0,0,0-1.11-2l-.25,0c-.05,0-.08.12-.05.16.28.44.57.87.81,1.33a4.43,4.43,0,0,1,.4,1.84c-.56-.16-1-.72-1.38-1.12l-.05,0c-.11-.1-.34.09-.27.22a9.54,9.54,0,0,1,1.24,3.66c.13,1.76-1,3.5-1.93,4.89a3.6,3.6,0,0,0-.46,4c.14.22.5-.06.42-.27-1-2.6,1.45-4.65,2.16-7A5.81,5.81,0,0,0,37.91,22,1.16,1.16,0,0,0,39,22.48Z"/><path class="cls-7" d="M33.27,25.4a23.26,23.26,0,0,1-.66,3.38,3.94,3.94,0,0,0-.12-1.19c0-.12-.26,0-.24.12a3.55,3.55,0,0,1-.07,1.81c-.06.17.19.11.25,0,.89-1.26.94-2.72,1.2-4.21C33.69,25.07,33.32,25.22,33.27,25.4Z"/><path class="cls-7" d="M29.31,34a4,4,0,0,1-.39,1c-.2.34-.23-.14-.24-.31s-.34-.05-.35.1a1.52,1.52,0,0,0,0,.59c.07.24.36.25.56.17a1.21,1.21,0,0,0,.52-.65,2.86,2.86,0,0,0,.23-1C29.66,33.7,29.34,33.9,29.31,34Z"/><path class="cls-7" d="M26.46,30.38a3.42,3.42,0,0,0-.7.32l-.11.09a2.75,2.75,0,0,1,.28-.91,9.42,9.42,0,0,1,.6-.74c.12-.16-.07-.26-.2-.14s-.33.22-.47.37a3.34,3.34,0,0,0-.33.45,4,4,0,0,0-.41,1.49c0,.16.11.22.25.18a.89.89,0,0,0,.36-.28,2.24,2.24,0,0,1,.76-.46C26.69,30.67,26.76,30.28,26.46,30.38Z"/><path class="cls-7" d="M61.8,12.32a2.85,2.85,0,0,0-1.35,2.25c0,.25.28.1.33-.05a3.12,3.12,0,0,1,1.09-1.92C62,12.51,62,12.22,61.8,12.32Z"/><path class="cls-7" d="M41.83,16.51a5.3,5.3,0,0,0-1.12-2.26c-.1-.12-.32.1-.23.22a7.39,7.39,0,0,1,1,2.26C41.53,16.95,41.88,16.69,41.83,16.51Z"/><path class="cls-14" d="M48.75,43.93s-2.46,6.65,2.09,7,3.84-4.39,2.7-6.78a2.66,2.66,0,0,1-2.85-2.36A3.11,3.11,0,0,1,48.75,43.93Z"/><path class="cls-15" d="M51.3,51.06h0l-.46,0a2.82,2.82,0,0,1-2.31-1.24c-1.3-2,.05-5.76.11-5.92l0,0,0,0a3,3,0,0,0,1.88-2.07l.13-.61.11.62A2.52,2.52,0,0,0,53.42,44h.21l0,.07c.82,1.72,1.27,4.24.35,5.71A3,3,0,0,1,51.3,51.06Zm-2.45-7c-.16.45-1.28,3.84-.12,5.65a2.59,2.59,0,0,0,2.12,1.13l.44,0h0a2.74,2.74,0,0,0,2.5-1.15c.87-1.37.44-3.74-.33-5.4h-.06a2.75,2.75,0,0,1-2.73-2A3.32,3.32,0,0,1,48.85,44Z"/><path class="cls-16" d="M53.55,44.14a2.66,2.66,0,0,1-2.85-2.36,3.11,3.11,0,0,1-1.95,2.15l-.07.21c1-.42,1.72.86,2.46,2a1.06,1.06,0,0,1,.16-.63,1,1,0,0,1,1.34-.31c1.26,1,1.8,3.44.63,4.76a3,3,0,0,1-2.6,1l.17,0C55.4,51.26,54.69,46.53,53.55,44.14Z"/><path class="cls-16" d="M51.57,47a8.61,8.61,0,0,1-.49-4.5c0-.19-.24-.09-.27,0a7.67,7.67,0,0,0,.68,4.56C51.56,47.28,51.63,47.15,51.57,47Z"/><ellipse class="cls-17" cx="45.43" cy="23.84" rx="1.22" ry="2.79" transform="translate(-0.04 0.08) rotate(-0.1)"/><ellipse class="cls-18" cx="45.21" cy="22.57" rx="0.44" ry="1" transform="translate(-0.06 0.12) rotate(-0.15)"/><ellipse class="cls-17" cx="58.1" cy="24.12" rx="1.22" ry="2.79" transform="translate(-0.04 0.1) rotate(-0.1)"/><ellipse class="cls-18" cx="57.88" cy="22.88" rx="0.44" ry="1" transform="translate(-0.08 0.21) rotate(-0.21)"/><path class="cls-19" d="M45.19,17.94a2.4,2.4,0,0,0-1.5,1.7c-.08.31.35.22.45,0l.07-.11a1.4,1.4,0,0,1,.91-.59,1.29,1.29,0,0,1,1.24.56c.12.18.41,0,.38-.2C46.62,18.51,46.16,17.71,45.19,17.94Z"/><path class="cls-19" d="M59.25,19.13a1.85,1.85,0,0,0-1.6-.93,1.16,1.16,0,0,0-1.13,1.09c0,.15,0,.19.14.17s.07.07.15,0a2.52,2.52,0,0,0,.31-.22c.16-.12.44-.07.62-.06a2.41,2.41,0,0,1,1.19.25C59.09,19.52,59.3,19.28,59.25,19.13Z"/><path class="cls-3" d="M51.2,37.86c0,.29-.08.58-.12.87s-.06.58-.08.87a8.41,8.41,0,0,0-.05.87l0,.87h0l-.05.36-.08.36-.12.35c-.05.11-.1.23-.16.33a2.68,2.68,0,0,1-.45.6,2.42,2.42,0,0,1-.6.45,3.3,3.3,0,0,1-.7.27l-.37.08-.37,0a5.42,5.42,0,0,1-.74,0l-.36,0-.18,0-.19,0a2.55,2.55,0,0,1-.35-.09c-.12,0-.25-.09-.36-.15l-.33-.2-.29-.26c-.08-.1-.17-.2-.24-.31a3.22,3.22,0,0,1-.19-.34,2.35,2.35,0,0,1-.18-.75,2.41,2.41,0,0,1,.07-.76,2,2,0,0,1,.11-.36,2.06,2.06,0,0,1,.16-.34,3,3,0,0,1,.43-.61,3.91,3.91,0,0,1,.56-.5l.19.28-1.25.78-.3.2a3,3,0,0,0-.28.21l0,0s0,0,0,0a.11.11,0,0,0,0-.07l0,0h-.1v0h0s0-.11,0-.16l.08-.36a4.19,4.19,0,0,1,.59-1.38,2.32,2.32,0,0,1,.52-.54A2,2,0,0,1,46,38a2.1,2.1,0,0,0-1.09.92,4.3,4.3,0,0,0-.48,1.36l-.07.36a1.83,1.83,0,0,1,0,.19v0a.2.2,0,0,1,0,.06l-.06,0h-.11a.15.15,0,0,1-.09-.14.2.2,0,0,1,0-.08l0-.05a2.54,2.54,0,0,1,.3-.25l.3-.22,1.22-.84.19.29a3.42,3.42,0,0,0-.49.46,2.58,2.58,0,0,0-.38.55,1.73,1.73,0,0,0-.13.3,1.51,1.51,0,0,0-.09.32A2,2,0,0,0,45,42a1.92,1.92,0,0,0,.15.62,2.7,2.7,0,0,0,.16.28c.06.09.14.16.2.25l.24.21.28.17a2.62,2.62,0,0,0,.63.22,4.29,4.29,0,0,0,.67.1,5.61,5.61,0,0,0,.68,0l.34,0,.33-.06a2.9,2.9,0,0,0,.62-.24,2.5,2.5,0,0,0,1-.9c.06-.09.11-.2.16-.3l.13-.32.09-.33.07-.34h0l.08-.88c0-.29.06-.58.11-.87s.09-.58.15-.86S51.13,38.15,51.2,37.86Z"/><path class="cls-3" d="M50.79,41.33A3.23,3.23,0,0,0,51,42.42l.11.25.14.24.16.22c.06.07.13.13.19.19a1.47,1.47,0,0,0,.21.17,1.06,1.06,0,0,0,.23.14,2.31,2.31,0,0,0,.49.2,4.77,4.77,0,0,0,.52.12l.53,0,.56,0c.18,0,.35,0,.53-.08a3.62,3.62,0,0,0,.51-.14,3.54,3.54,0,0,0,.49-.21,3.23,3.23,0,0,0,.44-.29,2.35,2.35,0,0,0,.38-.36,2.6,2.6,0,0,0,.3-.42A2.42,2.42,0,0,0,57,42l0-.09.09,0a2.85,2.85,0,0,0,.34-.19l.16-.11a1.19,1.19,0,0,0,.15-.13,2,2,0,0,0,.25-.29,1.78,1.78,0,0,0,.17-.34,1.38,1.38,0,0,0,.08-.36.87.87,0,0,0,0-.35.61.61,0,0,0-.07-.16.92.92,0,0,0-.1-.14l-.14-.11-.16-.09-.65-.36.7,0h.53l.18,0a3.15,3.15,0,0,1,.35.08,2.82,2.82,0,0,1,.34.12L59,39.7a4.11,4.11,0,0,0-.44-.76,3.32,3.32,0,0,0-.28-.34,3.11,3.11,0,0,0-.32-.3,2.15,2.15,0,0,0-.37-.23,1,1,0,0,0-.2-.08,1.68,1.68,0,0,0-.22-.06l-.22,0H56.7a2.22,2.22,0,0,0-.45.07,2.32,2.32,0,0,1,.44-.12l.23,0h.23a1.54,1.54,0,0,1,.23,0,1,1,0,0,1,.23.07,2.28,2.28,0,0,1,.42.22,3.16,3.16,0,0,1,.37.29,4,4,0,0,1,.32.35,4.41,4.41,0,0,1,.51.8l.16.32L59,39.78a2.67,2.67,0,0,0-.3-.09,3.18,3.18,0,0,0-.32-.05l-.16,0h-.48l.06-.33.22.11.19.15a1.28,1.28,0,0,1,.16.2,1,1,0,0,1,.11.22,1.23,1.23,0,0,1,.08.49,1.62,1.62,0,0,1-.09.47,2.06,2.06,0,0,1-.21.42,2.19,2.19,0,0,1-.3.36,1.58,1.58,0,0,1-.17.16l-.19.13a3,3,0,0,1-.4.23l.11-.13a2.45,2.45,0,0,1-.25.56,3.18,3.18,0,0,1-.35.48,3.07,3.07,0,0,1-.43.41,3.73,3.73,0,0,1-.5.32,3.91,3.91,0,0,1-.55.22,3.76,3.76,0,0,1-.57.14c-.19,0-.39,0-.59.07h-.56L53,44.23a5.2,5.2,0,0,1-.56-.15,2.49,2.49,0,0,1-.53-.25,1,1,0,0,1-.24-.17,1.5,1.5,0,0,1-.22-.2c-.06-.07-.13-.14-.19-.22L51.09,43,51,42.73l-.09-.27a3.1,3.1,0,0,1-.1-.56A2.81,2.81,0,0,1,50.79,41.33Z"/><path class="cls-20" d="M46.87,36.15s2.49,2.2,4.48,2.15a5.07,5.07,0,0,0,3.8-2.39c.35-.61-1.36-1.76-3.63-2.15S45.8,34.58,46.87,36.15Z"/><path class="cls-21" d="M53.89,36c-.57-.08-1.47-.53-2,0a6.07,6.07,0,0,1-.72.72c-.68.47-1.17-.18-1.69-.53a5.11,5.11,0,0,0-1.92-.46c-.28-.05-.73-.11-.9-.36a1,1,0,0,0,.16.83s2.49,2.2,4.48,2.15a5.07,5.07,0,0,0,3.8-2.39.29.29,0,0,0,0-.09A2.59,2.59,0,0,1,53.89,36Z"/><path class="cls-22" d="M49.41,37.59a3.08,3.08,0,0,0-1.53-1.23c-.62-.14-.55-.78.57-.36S49.71,37.89,49.41,37.59Z"/><path class="cls-22" d="M51.35,37.86a1.89,1.89,0,0,1,1.52-.9c1.1-.09,1.15-.75,0-.78S50.83,37.83,51.35,37.86Z"/><path class="cls-18" d="M52,34.3a5,5,0,0,0-2.69-.09,5.87,5.87,0,0,0-1.95.71c-.06,0-.27.29-.09.22a10.5,10.5,0,0,1,1.8-.63,7.46,7.46,0,0,1,2.65.06C51.81,34.6,52.11,34.36,52,34.3Z"/><path class="cls-18" d="M53.1,34.51c-.13-.13-.39-.11-.57-.11a.34.34,0,0,0-.21.11s-.13.16,0,.17.36.09.55.1S53.19,34.6,53.1,34.51Z"/><g class="cls-23"><path class="cls-24" d="M49.87,49.89a5.09,5.09,0,0,1-.78-5.11c0-.13-.13-.11-.17,0-.68,1.68-.74,4.05.74,5.33C49.76,50.18,50,50,49.87,49.89Z"/><path class="cls-24" d="M50.27,50.1c-.14,0-.29.27-.12.27S50.44,50.1,50.27,50.1Z"/></g><path class="cls-8" d="M45.61,31.4l-.14.1.25-.27c.53-.57,1.28-1,1.76-1.63.14-.18.29-.36.42-.54a.87.87,0,0,0-.37-.19,7.87,7.87,0,0,0,1.59-.32l.21.08a.13.13,0,0,0,.13,0l.07,0a.17.17,0,0,0,.07-.19c-.14-.38-1.33-.75-2.14-1,.44-.07.88-.17,1.25-.19s.83,0,1.24,0a6.83,6.83,0,0,0-3.71.22.13.13,0,0,0,.08.08c.48.15,1,.21,1.48.36s.75.23,1.13.36.52.19.43.18a.05.05,0,0,0,0,0c-.31,0-.64-.11-.94-.16a4.94,4.94,0,0,0-1.26.09,6.91,6.91,0,0,0-1.18.23,3,3,0,0,0-1.08.94h0a3.37,3.37,0,0,0,1.06-.16c.34,0,.71.1,1,.13-.27.08-.55.16-.8.27a6.82,6.82,0,0,0-1.53,1A4.51,4.51,0,0,0,43,33.43a.1.1,0,0,0,.15.09,2.89,2.89,0,0,0,.54-.39,2.1,2.1,0,0,0-.42,1.7.2.2,0,0,0,.06.11c1.52-2.35,4.24-3.66,6.83-4.74A9.44,9.44,0,0,0,45.61,31.4Z"/><path class="cls-8" d="M47.1,41.81c-.22-.17-.45-.33-.67-.51-.38-.33-.26-.84-.15-1.26,0-.07-.06-.07-.09,0a1.67,1.67,0,0,0-.42,1.45,1.08,1.08,0,0,0,1.18.67C47.05,42.12,47.23,41.9,47.1,41.81Z"/><path class="cls-8" d="M53.86,42.2c-.37-.66-1.49-.4-1.78-1.13,0,0-.08,0-.08,0-.19.93.79,2.18,1.74,1.45C53.83,42.48,53.93,42.32,53.86,42.2Z"/><path class="cls-8" d="M31.59,19.46a5.12,5.12,0,0,0-2.15.75c-.48.23-1.17.68-1.26,1.27,0,.14.14.11.21,0a7.45,7.45,0,0,1,1.41-1,9.73,9.73,0,0,1,1.78-1S31.62,19.47,31.59,19.46Z"/><path class="cls-8" d="M29.61,22c-.37.17-.78.23-1.16.39a4.48,4.48,0,0,0-1.28.8,2.32,2.32,0,0,0-.77,2.3c.05.15.24,0,.29-.06.45-.59.7-1.33,1.19-1.88s1.19-1,1.76-1.51C29.65,22.07,29.64,22,29.61,22Z"/><path class="cls-8" d="M28.64,27.65c-1.31,1.44-.49,3.08-.91,4.8,0,.15.17.08.21,0A4,4,0,0,0,28.48,31c.22-1.13-.33-2.18.23-3.28C28.74,27.63,28.68,27.6,28.64,27.65Z"/><path class="cls-8" d="M35.83,14.46a5.21,5.21,0,0,0-1,.39,4.09,4.09,0,0,0-1,.92c-.14.19,0,.47.21.29s.61-.51.9-.79.59-.47.84-.75C35.89,14.49,35.87,14.44,35.83,14.46Z"/><path class="cls-8" d="M46.4,15A3.54,3.54,0,0,0,45,14.8a3.36,3.36,0,0,0-1.24.6s0,.09,0,.08a10.64,10.64,0,0,1,1.12-.24c.47,0,.93,0,1.4,0C46.36,15.26,46.58,15,46.4,15Z"/><path class="cls-8" d="M48.11,14a1.29,1.29,0,0,0-.36-.3,1.4,1.4,0,0,0-.4-.22s-.08,0,0,.06c.23.2.29.65.63.68C48,14.27,48.18,14.13,48.11,14Z"/><path class="cls-8" d="M52.64,12.88a3.7,3.7,0,0,0-.6.3,1.61,1.61,0,0,0-.42.56c0,.06,0,.1.07.06s.31-.25.48-.35a3.74,3.74,0,0,0,.52-.38C52.78,13,52.8,12.8,52.64,12.88Z"/><path class="cls-8" d="M67.4,23.94c-.43.58-1.41,1.53-.85,2.31.13.18.35,0,.38-.17.07-.35.09-.69.13-1a11.5,11.5,0,0,1,.39-1.09S67.41,23.92,67.4,23.94Z"/><path class="cls-8" d="M71.15,28.08c-.26.55-.42,1.13-.68,1.69a2.58,2.58,0,0,0-.38,1.54c0,.2.27,0,.31-.06.21-.53.38-1.09.56-1.64a12.91,12.91,0,0,0,.27-1.53C71.24,28,71.17,28.05,71.15,28.08Z"/><path class="cls-8" d="M72.36,32.64a6.73,6.73,0,0,0-.27-.7,1.82,1.82,0,0,1-.19-1s0,0-.05,0a2.22,2.22,0,0,0,.21,1.87C72.15,33,72.4,32.77,72.36,32.64Z"/></g></g></g></svg>