<svg xmlns="http://www.w3.org/2000/svg" viewBox="0 0 100 100"><defs><style>.cls-1{isolation:isolate;}.cls-2{fill:#f9d885;}.cls-3{fill:none;}.cls-4{fill:#b6c197;}.cls-5{fill:#c1c99f;opacity:0.2;mix-blend-mode:multiply;}.cls-6{fill:#e5d89e;}.cls-7{fill:#fff;}.cls-8{fill:#e5e8af;}.cls-9{fill:#d1d8b4;}</style></defs><title>Asset 27</title><g class="cls-1"><g id="Layer_2" data-name="Layer 2"><g id="Layer_1-2" data-name="Layer 1"><rect class="cls-2" width="100" height="100"/><path class="cls-3" d="M13,44l-.17.26c.07.41.15.82.25,1.23q.78-.73,1.48-1.48c-.27,0-.54,0-.82,0S13.28,44,13,44Z"/><path class="cls-3" d="M18.1,32.14a33.62,33.62,0,0,1,3.38-.21,46.93,46.93,0,0,0,1.38-6s.1-.13.3-.37A17.29,17.29,0,0,0,19,27.91Q18.62,30.11,18.1,32.14Z"/><path class="cls-3" d="M98.8,99.32c-.67-.89-1.31-1.81-1.91-2.77q-.19.87-.41,1.73A22.49,22.49,0,0,1,98.8,99.32Z"/><path class="cls-3" d="M87.45,61.45l-.24-.07a24.07,24.07,0,0,1,6.53,8.09c.26-.72.54-1.41.84-2.09A43.47,43.47,0,0,1,92.27,62,15.64,15.64,0,0,1,87.45,61.45Z"/><path class="cls-3" d="M71.88,58.42A20,20,0,0,1,77,57.77a16,16,0,0,1,4,.51,19.54,19.54,0,0,1-5.2-6,18.86,18.86,0,0,0-3.35,1A42.59,42.59,0,0,1,71.88,58.42Z"/><path class="cls-3" d="M77.19,87a45.89,45.89,0,0,1-4.84,2.89A38.75,38.75,0,0,0,81,94.08,18.34,18.34,0,0,0,77.19,87Z"/><path class="cls-3" d="M90.89,10.55c0-.1,0-.19,0-.29a9.92,9.92,0,0,0-1-4.3,4,4,0,0,0-.2.53A4,4,0,0,0,90.89,10.55Z"/><path class="cls-3" d="M51.16,9.77a19.35,19.35,0,0,1,3.16,4.86.26.26,0,0,1-.07.3.25.25,0,0,1-.31,0,27.08,27.08,0,0,0-15.21-4.76A25.43,25.43,0,0,0,40,7.74a38.39,38.39,0,0,1-5-2,28.81,28.81,0,0,1-2,4.4,39.8,39.8,0,0,1,11.68,6.78q1.29.31,2.52.69a25.16,25.16,0,0,1,15.5,7.06h0l.11.12q.48.47.94,1c.37.35.77.7,1.19,1.05A53.4,53.4,0,0,0,53.79,9.83C52.91,9.84,52,9.82,51.16,9.77Z"/><path class="cls-3" d="M80,5.8a11.19,11.19,0,0,0-.72,3.86,10.7,10.7,0,0,0,.16,1.83,22,22,0,0,0,2.27.33A9.74,9.74,0,0,1,80,5.8Z"/><path class="cls-3" d="M90.3,5.18a12.6,12.6,0,0,1,3.42,3.63A5.77,5.77,0,0,0,95.38,4.1a4.33,4.33,0,0,0-.84-.34A3.83,3.83,0,0,0,90.3,5.18Z"/><path class="cls-3" d="M75.12,27.21a40.24,40.24,0,0,0-5.76,2.43,27.3,27.3,0,0,0,4.65,2,30.19,30.19,0,0,1,1.62-4.21Z"/><path class="cls-3" d="M28,90.74q.39-2.23.92-4.28a33.78,33.78,0,0,1-3.38.21q-.5,1.63-.87,3.38A31.57,31.57,0,0,0,28,90.74Z"/><path class="cls-3" d="M72.09,25.66a16,16,0,0,1-4.8-5l-.65-.28a45.28,45.28,0,0,1,.75,8.1q.69.44,1.42.85A19.07,19.07,0,0,1,72.09,25.66Z"/><path class="cls-3" d="M24,56.74c0-.25,0-.48,0-.72a18,18,0,0,0-.62,2.21l.55.25C24,57.91,24,57.33,24,56.74Z"/><path class="cls-3" d="M50.84,63.93a26.81,26.81,0,0,1-1,3,30.39,30.39,0,0,0,4.26-16.18c0-.6,0-1.2-.06-1.79a16.76,16.76,0,0,0-4-3.39C52.17,50.52,52.77,56.86,50.84,63.93Z"/><path class="cls-4" d="M95.17,18.08h-.06v0Z"/><path class="cls-4" d="M81.7,11.82a22,22,0,0,1-2.27-.33c.56,3.23,2.62,5.32,5.53,5.32a5.68,5.68,0,0,0,2.31-.48A13.65,13.65,0,0,1,81.7,11.82Z"/><path class="cls-4" d="M98.37,7.8a.25.25,0,0,1-.49-.07,4.7,4.7,0,0,0-2.5-3.62,5.77,5.77,0,0,1-1.67,4.71,11.7,11.7,0,0,1,1.44,3.5c.3,0,.6,0,.92,0h0A25.35,25.35,0,0,1,100,12.3V8.62a18.29,18.29,0,0,1-1.19-2.19A8.3,8.3,0,0,1,98.37,7.8Z"/><path class="cls-4" d="M67.29,20.68a16.77,16.77,0,0,1-1-1.81c.11.51.22,1,.31,1.53Z"/><path class="cls-4" d="M72.09,25.66a19.07,19.07,0,0,0-3.28,3.69l.54.29a40.24,40.24,0,0,1,5.76-2.43A15.78,15.78,0,0,1,72.09,25.66Z"/><path class="cls-4" d="M64.69,11.12A19.6,19.6,0,0,1,68,.22l-.18.06A18.1,18.1,0,0,0,62.15,7.4a46.22,46.22,0,0,1,2.72,6.29A19.91,19.91,0,0,1,64.69,11.12Z"/><path class="cls-5" d="M95.44,73.42a20.7,20.7,0,0,0,2.42-.65,42.3,42.3,0,0,1-3.29-5.39c-.3.68-.58,1.37-.84,2.09A32.71,32.71,0,0,1,95.44,73.42Z"/><path class="cls-5" d="M96.9,96.55c.6,1,1.24,1.88,1.91,2.77a22.49,22.49,0,0,0-2.32-1q-.22.86-.48,1.72h4V96.23c-.91-.7-1.79-1.44-2.64-2.22Q97.17,95.28,96.9,96.55Z"/><path class="cls-5" d="M80.24,99a12.9,12.9,0,0,0-1.49,1h2.73c0-.3.06-.61.07-.92Z"/><path class="cls-6" d="M92.27,62a43.47,43.47,0,0,0,2.31,5.37,42.3,42.3,0,0,0,3.29,5.39,19.9,19.9,0,0,0,2.13-.84V63.5a34.43,34.43,0,0,0-2.3-2.86A13.58,13.58,0,0,1,92.27,62Z"/><path class="cls-6" d="M97.84,0a8.71,8.71,0,0,1,1,6.43A18.29,18.29,0,0,0,100,8.62V0Z"/><path class="cls-4" d="M38.74,43.39a18.53,18.53,0,0,0-9.46,4.68,6.4,6.4,0,0,0,1.3,3,.25.25,0,0,1-.3.39,10.84,10.84,0,0,1-2.75-1.63A19.19,19.19,0,0,0,24,56c0,.24,0,.48,0,.72,0,.59,0,1.17-.09,1.74a17.63,17.63,0,0,0,2.44.89,16.79,16.79,0,0,0,6.39.57,8.49,8.49,0,0,1,7.64-4.86h.09a9.82,9.82,0,0,0,.92-2.22A9,9,0,0,0,38.74,43.39Z"/><path class="cls-4" d="M87.21,61.38l-.91-.28a48.48,48.48,0,0,0,5.64,12.7,22.31,22.31,0,0,0,3.5-.38,32.71,32.71,0,0,0-1.71-3.95A24.07,24.07,0,0,0,87.21,61.38Z"/><path class="cls-4" d="M64.79,75.18c-.23.3-.44.61-.68.91q-.43,2.28-1,4.37c.28,0,.55,0,.83,0a16,16,0,0,1,7.13,1.79A27.07,27.07,0,0,1,64.79,75.18Z"/><path class="cls-4" d="M6.38,90.26a31.82,31.82,0,0,1,2.71,4c.89.45,1.81.87,2.75,1.24A31.61,31.61,0,0,0,6.38,90.26Z"/><path class="cls-4" d="M44,88.57a13.83,13.83,0,0,0-1.55,0,.25.25,0,0,1-.26-.2.25.25,0,0,1,.15-.29c10.13-4.16,16.86-13,16.85-24A22.83,22.83,0,0,0,54,48.94c0,.59.06,1.19.06,1.79a30.39,30.39,0,0,1-4.26,16.18l-.1.25c0,8.86-7.81,17.81-20.83,19.3q-.53,2-.92,4.28A28.75,28.75,0,0,0,44,88.57Z"/><path class="cls-4" d="M77,57.77a20,20,0,0,0-5.09.65,39.92,39.92,0,0,1-1.49,6,26.88,26.88,0,0,0,9.63,7,53.35,53.35,0,0,0,3.92-11.33,18.49,18.49,0,0,1-3-1.83A16,16,0,0,0,77,57.77Z"/><path class="cls-4" d="M13,44c.24,0,.49,0,.74,0s.55,0,.82,0a29.56,29.56,0,0,0,6.89-12.06,33.62,33.62,0,0,0-3.38.21A40.49,40.49,0,0,1,13,44Z"/><path class="cls-4" d="M24.64,90.05q.38-1.75.87-3.38H25A24.78,24.78,0,0,1,9.77,81.62,30.4,30.4,0,0,0,24.24,90Z"/><path class="cls-4" d="M31.14,3.5a26.46,26.46,0,0,1-.84,5.66q1.42.43,2.76.93a28.81,28.81,0,0,0,2-4.4A36.32,36.32,0,0,1,31.14,3.5Z"/><path class="cls-4" d="M.9,11.18,1,11.11l.42-.23A37.33,37.33,0,0,0,.26,5.08L0,5.18v6.61c.3-.2.59-.41.91-.6Z"/><path class="cls-4" d="M58.72,99.56a.26.26,0,0,1,.06-.3A30.4,30.4,0,0,0,61,97.08,10.61,10.61,0,0,0,57.52,100H73.34a8.63,8.63,0,0,0-5.71-4A19.91,19.91,0,0,1,59,99.7.26.26,0,0,1,58.72,99.56Z"/><path class="cls-4" d="M96.9,96.55q.27-1.27.47-2.54A38.22,38.22,0,0,1,93,89.33,36.45,36.45,0,0,1,82.85,88a35.75,35.75,0,0,1-4.78-1.67l-.87.61A18.34,18.34,0,0,1,81,94.08,33.61,33.61,0,0,0,96.46,95.8a.25.25,0,0,1,.28.16.25.25,0,0,1-.11.3c-3.4,2.06-8.84,3.3-15.08,2.81,0,.31,0,.62-.07.92h5.73a11.66,11.66,0,0,1,4.39-.8,10.2,10.2,0,0,1,4,.8H96q.26-.86.48-1.72T96.9,96.55Z"/><path class="cls-4" d="M45.44,17.47c.61,0,1.22,0,1.83.09q-1.23-.38-2.52-.69Z"/><path class="cls-4" d="M72.49,51.24c0,.69,0,1.35-.07,2a18.86,18.86,0,0,1,3.35-1,25.27,25.27,0,0,1-3-13.32,17.31,17.31,0,0,1-1.89-.18A46.1,46.1,0,0,1,72.49,51.24Z"/><path class="cls-4" d="M53.95,15a.25.25,0,0,0,.31,0,.26.26,0,0,0,.07-.3,19.35,19.35,0,0,0-3.16-4.86A42.61,42.61,0,0,1,40,7.74a25.43,25.43,0,0,1-1.27,2.45A27.08,27.08,0,0,1,53.95,15Z"/><path class="cls-4" d="M24.13,0h-2.4a27.49,27.49,0,0,1-1.56,7.22A46.07,46.07,0,0,1,25.59,8,38.62,38.62,0,0,0,24.13,0Z"/><path class="cls-4" d="M90.06,44.13c-2.17,8,4.4,13.4,9.94,12.41V36.68A9.51,9.51,0,0,0,90.06,44.13Z"/><path class="cls-4" d="M100,63.5V59.17a12.63,12.63,0,0,1-2.3,1.47A34.43,34.43,0,0,1,100,63.5Z"/><path class="cls-5" d="M54.08,84.84c2.74,3.31,2.61,8.27.19,12.17A39.63,39.63,0,0,0,63.1,80.46a16,16,0,0,0-3.86.69A35.41,35.41,0,0,1,54.08,84.84Z"/><path class="cls-5" d="M50.84,63.93c1.93-7.07,1.33-13.41-.84-18.38a16.64,16.64,0,0,0-6.92-2.27A29.57,29.57,0,0,1,47.9,59.58a14.59,14.59,0,0,1,1.82,7.5l.1-.17A26.81,26.81,0,0,0,50.84,63.93Z"/><path class="cls-5" d="M67.38,85.83c-.4,1.26-.84,2.44-1.32,3.56.89-.75,1.77-1.52,2.61-2.32C68.21,86.67,67.78,86.26,67.38,85.83Z"/><path class="cls-5" d="M81.58,98.07a15.13,15.13,0,0,0-.57-4,38.75,38.75,0,0,1-8.67-4.2,45.31,45.31,0,0,1-8.26,3.3A25.13,25.13,0,0,1,61,97.08,10.76,10.76,0,0,1,66,95.89a9,9,0,0,1,1.66.15l.75-.54A37.55,37.55,0,0,0,80.24,99a13.75,13.75,0,0,1,1.34-.71C81.58,98.19,81.58,98.13,81.58,98.07Z"/><path class="cls-5" d="M23.36,58.23A17.66,17.66,0,0,0,23,61.86c0,.25,0,.48,0,.72a17.87,17.87,0,0,0,.91-4.1Z"/><path class="cls-5" d="M32.4,74.61c.27,0,.54,0,.82,0s.49,0,.74,0a37.58,37.58,0,0,1,3.11-4.19A37.56,37.56,0,0,0,32.4,74.61Z"/><path class="cls-5" d="M24.14,92.69a18.67,18.67,0,0,1-5.72,4.6,38.15,38.15,0,0,0,8.69.49c.19-2.5.48-4.85.87-7a31.57,31.57,0,0,1-3.33-.68C24.46,90.91,24.29,91.79,24.14,92.69Z"/><path class="cls-5" d="M20.17,7.22l-.42,0c0,.3.08.59.11.89C20,7.79,20.07,7.5,20.17,7.22Z"/><path class="cls-5" d="M71.05,82.2c.42.34.86.66,1.31,1l.15-.17Q71.8,82.57,71.05,82.2Z"/><path class="cls-5" d="M1.67,13c-.54.39-1.09.76-1.67,1.11V25.29A28.58,28.58,0,0,0,1.74,15.16C1.74,14.45,1.71,13.74,1.67,13Z"/><path class="cls-5" d="M75.63,27.4A30.19,30.19,0,0,0,74,31.6a24.25,24.25,0,0,0,4.56,1A36.68,36.68,0,0,1,89.26,31a29.65,29.65,0,0,1,3.3.19A44.5,44.5,0,0,1,95,25.61a35.38,35.38,0,0,0-4.39-.53A15.22,15.22,0,0,1,81,28.31,16.38,16.38,0,0,1,75.63,27.4Z"/><path class="cls-5" d="M52.62,98.43c1.14-3.63-.69-6.85-4-8.58A25.36,25.36,0,0,0,45.45,100h5.72c.51-.43,1-.89,1.5-1.35A.24.24,0,0,1,52.62,98.43Z"/><path class="cls-5" d="M19.89,20.81A71.39,71.39,0,0,1,19,27.91a17.29,17.29,0,0,1,4.14-2.37,20.24,20.24,0,0,1,5.43-4.23A38.15,38.15,0,0,0,19.89,20.81Z"/><path class="cls-5" d="M81,58.28a16.39,16.39,0,0,1,3.12,1.15c.22-1.06.42-2.13.58-3.21a.25.25,0,0,1,.25-.21.25.25,0,0,1,.25.21c.26,1.5.6,3,1,4.41.35.24.7.49,1,.76l.24.07a15.64,15.64,0,0,0,4.81.56,43.35,43.35,0,0,1-1.87-7.25,22.26,22.26,0,0,0-10.86-2.88,19.14,19.14,0,0,0-3.75.38A19.54,19.54,0,0,0,81,58.28Z"/><path class="cls-5" d="M82.34,7.08a.26.26,0,0,1-.31,0A.25.25,0,0,1,82,6.76a4.94,4.94,0,0,0,0-4.81A19,19,0,0,0,80,5.8a9.74,9.74,0,0,0,1.7,6c.77.07,1.57.11,2.4.11a16.93,16.93,0,0,0,6.78-1.21c0-.06,0-.11,0-.17a4,4,0,0,1-1.22-4.06,4,4,0,0,1,.2-.53c-.12-.25-.23-.51-.37-.75a.25.25,0,0,1,.36-.34l.45.31a3.83,3.83,0,0,1,4.24-1.42,4.33,4.33,0,0,1,.84.34A5.55,5.55,0,0,0,93.44.51a.25.25,0,0,1,.21-.44,9.9,9.9,0,0,1,3.81,1.5A13,13,0,0,1,97.39,0H86.14c0,.1,0,.2,0,.29A7.88,7.88,0,0,1,82.34,7.08Z"/><path class="cls-5" d="M0,66.39v8.08a17.21,17.21,0,0,0,3.91.85A28.8,28.8,0,0,1,0,66.39Z"/><path class="cls-5" d="M9.93,48.17a39.87,39.87,0,0,0,3.18-2.7c-.1-.41-.17-.82-.25-1.23A37.72,37.72,0,0,1,9.93,48.17Z"/><path class="cls-5" d="M28.61,16.05a47.77,47.77,0,0,1,16.12.82,39.8,39.8,0,0,0-11.68-6.78A26.39,26.39,0,0,1,28.61,16.05Z"/><path class="cls-5" d="M56.56,9.72c-.92.06-1.84.1-2.77.11A53.4,53.4,0,0,1,65,26.76a25.14,25.14,0,0,0,2.38,1.74,45.28,45.28,0,0,0-.75-8.1C61.9,18.26,58.11,14.78,56.56,9.72Z"/><path class="cls-5" d="M100,15.28V13.11a10.7,10.7,0,0,1-1.23,1.79C99.18,15,99.59,15.16,100,15.28Z"/><path class="cls-4" d="M66.64,20.4c-.09-.51-.2-1-.31-1.53a18,18,0,0,1-1.46-5.17A46.22,46.22,0,0,0,62.15,7.4c-.23.54-.46,1.11-.68,1.74a47.17,47.17,0,0,1-4.91.58C58.11,14.78,61.9,18.26,66.64,20.4Z"/><path class="cls-5" d="M66.64,20.4c-.09-.51-.2-1-.31-1.53a18,18,0,0,1-1.46-5.17A46.22,46.22,0,0,0,62.15,7.4c-.23.54-.46,1.11-.68,1.74a47.17,47.17,0,0,1-4.91.58C58.11,14.78,61.9,18.26,66.64,20.4Z"/><path class="cls-4" d="M93.65.07a.25.25,0,0,0-.21.44A5.55,5.55,0,0,1,95.38,4.1a4.7,4.7,0,0,1,2.5,3.62.25.25,0,0,0,.49.07,8.3,8.3,0,0,0,.44-1.37,15.22,15.22,0,0,1-1.35-4.86A9.9,9.9,0,0,0,93.65.07Z"/><path class="cls-5" d="M93.65.07a.25.25,0,0,0-.21.44A5.55,5.55,0,0,1,95.38,4.1a4.7,4.7,0,0,1,2.5,3.62.25.25,0,0,0,.49.07,8.3,8.3,0,0,0,.44-1.37,15.22,15.22,0,0,1-1.35-4.86A9.9,9.9,0,0,0,93.65.07Z"/><path class="cls-4" d="M68,.22,68.14,0h0l-.32.28Z"/><path class="cls-5" d="M68,.22,68.14,0h0l-.32.28Z"/><path class="cls-4" d="M96.07,12.36h0c-.31,0-.62,0-.92,0a12.26,12.26,0,0,1,0,5.77h.06l-.06,0a12.89,12.89,0,0,1-4.53,7,35.38,35.38,0,0,1,4.39.53A41.14,41.14,0,0,1,100,18V15.28c-.41-.13-.82-.26-1.23-.38A10.7,10.7,0,0,0,100,13.11V12.3A25.35,25.35,0,0,0,96.07,12.36Z"/><path class="cls-5" d="M96.07,12.36h0c-.31,0-.62,0-.92,0a12.26,12.26,0,0,1,0,5.77h.06l-.06,0a12.89,12.89,0,0,1-4.53,7,35.38,35.38,0,0,1,4.39.53A41.14,41.14,0,0,1,100,18V15.28c-.41-.13-.82-.26-1.23-.38A10.7,10.7,0,0,0,100,13.11V12.3A25.35,25.35,0,0,0,96.07,12.36Z"/><path class="cls-4" d="M82,6.76a.25.25,0,0,0,.05.31.26.26,0,0,0,.31,0A7.88,7.88,0,0,0,86.15.29c0-.1,0-.2,0-.29H83.35c-.49.65-.94,1.3-1.37,1.95A4.94,4.94,0,0,1,82,6.76Z"/><path class="cls-5" d="M82,6.76a.25.25,0,0,0,.05.31.26.26,0,0,0,.31,0A7.88,7.88,0,0,0,86.15.29c0-.1,0-.2,0-.29H83.35c-.49.65-.94,1.3-1.37,1.95A4.94,4.94,0,0,1,82,6.76Z"/><path class="cls-4" d="M81.7,11.82a13.65,13.65,0,0,0,5.58,4.51,6.42,6.42,0,0,0,3.6-5.61,16.93,16.93,0,0,1-6.78,1.21C83.27,11.93,82.47,11.89,81.7,11.82Z"/><path class="cls-5" d="M81.7,11.82a13.65,13.65,0,0,0,5.58,4.51,6.42,6.42,0,0,0,3.6-5.61,16.93,16.93,0,0,1-6.78,1.21C83.27,11.93,82.47,11.89,81.7,11.82Z"/><path class="cls-5" d="M95.44,73.42a39.56,39.56,0,0,1,1.83,7.29q1.31,1.4,2.73,2.68v-7.9q-1.12-1.31-2.13-2.72A20.7,20.7,0,0,1,95.44,73.42Z"/><path class="cls-5" d="M95.44,73.42a39.56,39.56,0,0,1,1.83,7.29q1.31,1.4,2.73,2.68v-7.9q-1.12-1.31-2.13-2.72A20.7,20.7,0,0,1,95.44,73.42Z"/><path class="cls-5" d="M81.58,98.24a13.75,13.75,0,0,0-1.34.71l1.31.13C81.56,98.8,81.58,98.53,81.58,98.24Z"/><path class="cls-5" d="M81.58,98.24a13.75,13.75,0,0,0-1.34.71l1.31.13C81.56,98.8,81.58,98.53,81.58,98.24Z"/><path class="cls-7" d="M97.7,60.64a28.42,28.42,0,0,0-7.3-5.88A43.35,43.35,0,0,0,92.27,62,13.58,13.58,0,0,0,97.7,60.64Z"/><path class="cls-6" d="M97.7,60.64a28.42,28.42,0,0,0-7.3-5.88A43.35,43.35,0,0,0,92.27,62,13.58,13.58,0,0,0,97.7,60.64Z"/><path class="cls-7" d="M92.55,31.21A30.09,30.09,0,0,1,100,33V18a41.14,41.14,0,0,0-5,7.61A44.5,44.5,0,0,0,92.55,31.21Z"/><path class="cls-6" d="M92.55,31.21A30.09,30.09,0,0,1,100,33V18a41.14,41.14,0,0,0-5,7.61A44.5,44.5,0,0,0,92.55,31.21Z"/><path class="cls-7" d="M98.81,6.43a8.71,8.71,0,0,0-1-6.43h-.44a13,13,0,0,0,.07,1.57A15.22,15.22,0,0,0,98.81,6.43Z"/><path class="cls-6" d="M98.81,6.43a8.71,8.71,0,0,0-1-6.43h-.44a13,13,0,0,0,.07,1.57A15.22,15.22,0,0,0,98.81,6.43Z"/><path class="cls-7" d="M100,75.49V71.93a19.9,19.9,0,0,1-2.13.84Q98.88,74.18,100,75.49Z"/><path class="cls-6" d="M100,75.49V71.93a19.9,19.9,0,0,1-2.13.84Q98.88,74.18,100,75.49Z"/><path class="cls-4" d="M97.27,80.71a39.56,39.56,0,0,0-1.83-7.29,22.31,22.31,0,0,1-3.5.38A46.41,46.41,0,0,0,97.27,80.71Z"/><path class="cls-5" d="M97.27,80.71a39.56,39.56,0,0,0-1.83-7.29,22.31,22.31,0,0,1-3.5.38A46.41,46.41,0,0,0,97.27,80.71Z"/><path class="cls-4" d="M49.72,67.08v0s0,0,0,.05l.1-.25Z"/><path class="cls-5" d="M49.72,67.08v0s0,0,0,.05l.1-.25Z"/><path class="cls-4" d="M59.24,81.15a16,16,0,0,1,3.86-.69q.58-2.1,1-4.37A37.18,37.18,0,0,1,59.24,81.15Z"/><path class="cls-5" d="M59.24,81.15a16,16,0,0,1,3.86-.69q.58-2.1,1-4.37A37.18,37.18,0,0,1,59.24,81.15Z"/><path class="cls-4" d="M80,71.44a26.88,26.88,0,0,1-9.63-7,38,38,0,0,1-5.6,10.73,27.07,27.07,0,0,0,6.27,7q.74.37,1.46.81A53.25,53.25,0,0,0,80,71.44Z"/><path class="cls-5" d="M80,71.44a26.88,26.88,0,0,1-9.63-7,38,38,0,0,1-5.6,10.73,27.07,27.07,0,0,0,6.27,7q.74.37,1.46.81A53.25,53.25,0,0,0,80,71.44Z"/><path class="cls-4" d="M41.15,43.18a15.44,15.44,0,0,0-2.41.21,9,9,0,0,1,2.65,9.47,9.82,9.82,0,0,1-.92,2.22,8.72,8.72,0,0,1,7.43,4.49,29.57,29.57,0,0,0-4.82-16.29A19.08,19.08,0,0,0,41.15,43.18Z"/><path class="cls-5" d="M41.15,43.18a15.44,15.44,0,0,0-2.41.21,9,9,0,0,1,2.65,9.47,9.82,9.82,0,0,1-.92,2.22,8.72,8.72,0,0,1,7.43,4.49,29.57,29.57,0,0,0-4.82-16.29A19.08,19.08,0,0,0,41.15,43.18Z"/><path class="cls-4" d="M83.93,60.11c.05-.23.11-.45.16-.68A16.39,16.39,0,0,0,81,58.28,18.49,18.49,0,0,0,83.93,60.11Z"/><path class="cls-5" d="M83.93,60.11c.05-.23.11-.45.16-.68A16.39,16.39,0,0,0,81,58.28,18.49,18.49,0,0,0,83.93,60.11Z"/><path class="cls-4" d="M26.35,59.37a17.63,17.63,0,0,1-2.44-.89,17.87,17.87,0,0,1-.91,4.1c.25,7.24,4.21,11.61,9.39,12a37.56,37.56,0,0,1,4.66-4.18A37.58,37.58,0,0,0,34,74.62c4.64-.32,8.22-3.63,8.22-7.52,0-5.85-6.58-8-10.1-3.34a.25.25,0,0,1-.3.08.26.26,0,0,1-.16-.27,10.79,10.79,0,0,1,1.11-3.64A16.79,16.79,0,0,1,26.35,59.37Z"/><path class="cls-5" d="M26.35,59.37a17.63,17.63,0,0,1-2.44-.89,17.87,17.87,0,0,1-.91,4.1c.25,7.24,4.21,11.61,9.39,12a37.56,37.56,0,0,1,4.66-4.18A37.58,37.58,0,0,0,34,74.62c4.64-.32,8.22-3.63,8.22-7.52,0-5.85-6.58-8-10.1-3.34a.25.25,0,0,1-.3.08.26.26,0,0,1-.16-.27,10.79,10.79,0,0,1,1.11-3.64A16.79,16.79,0,0,1,26.35,59.37Z"/><path class="cls-4" d="M93,89.33A38.92,38.92,0,0,1,86.92,78a46.37,46.37,0,0,1-8.86,8.34A35.75,35.75,0,0,0,82.85,88,36.45,36.45,0,0,0,93,89.33Z"/><path class="cls-5" d="M93,89.33A38.92,38.92,0,0,1,86.92,78a46.37,46.37,0,0,1-8.86,8.34A35.75,35.75,0,0,0,82.85,88,36.45,36.45,0,0,0,93,89.33Z"/><path class="cls-4" d="M61,97.08a30.4,30.4,0,0,1-2.26,2.17.25.25,0,0,0,.21.44A19.91,19.91,0,0,0,67.63,96,9,9,0,0,0,66,95.89,10.76,10.76,0,0,0,61,97.08Z"/><path class="cls-5" d="M61,97.08a30.4,30.4,0,0,1-2.26,2.17.25.25,0,0,0,.21.44A19.91,19.91,0,0,0,67.63,96,9,9,0,0,0,66,95.89,10.76,10.76,0,0,0,61,97.08Z"/><path class="cls-4" d="M30.58,51.4a.25.25,0,0,0,0-.31,6.4,6.4,0,0,1-1.3-3,19.92,19.92,0,0,0-1.75,1.78,10.84,10.84,0,0,0,2.75,1.63A.26.26,0,0,0,30.58,51.4Z"/><path class="cls-5" d="M30.58,51.4a.25.25,0,0,0,0-.31,6.4,6.4,0,0,1-1.3-3,19.92,19.92,0,0,0-1.75,1.78,10.84,10.84,0,0,0,2.75,1.63A.26.26,0,0,0,30.58,51.4Z"/><path class="cls-4" d="M81.58,98.24c0,.28,0,.56,0,.84,6.24.49,11.69-.75,15.08-2.81a.25.25,0,0,0,.11-.3.25.25,0,0,0-.28-.16A33.61,33.61,0,0,1,81,94.08a15.13,15.13,0,0,1,.57,4C81.58,98.13,81.58,98.19,81.58,98.24Z"/><path class="cls-5" d="M81.58,98.24c0,.28,0,.56,0,.84,6.24.49,11.69-.75,15.08-2.81a.25.25,0,0,0,.11-.3.25.25,0,0,0-.28-.16A33.61,33.61,0,0,1,81,94.08a15.13,15.13,0,0,1,.57,4C81.58,98.13,81.58,98.19,81.58,98.24Z"/><path class="cls-4" d="M20.17,13.24c0,2.68-.1,5.19-.28,7.57a38.15,38.15,0,0,1,8.69.49A33.22,33.22,0,0,1,45,17.46h.45l-.7-.6a47.77,47.77,0,0,0-16.12-.82,26.39,26.39,0,0,0,4.44-6q-1.34-.5-2.76-.93a21,21,0,0,1-5.5,9.65.25.25,0,0,1-.42-.26A26.06,26.06,0,0,0,25.59,8a46.07,46.07,0,0,0-5.41-.75c-.1.28-.2.57-.31.85A46.26,46.26,0,0,1,20.17,13.24Z"/><path class="cls-5" d="M20.17,13.24c0,2.68-.1,5.19-.28,7.57a38.15,38.15,0,0,1,8.69.49A33.22,33.22,0,0,1,45,17.46h.45l-.7-.6a47.77,47.77,0,0,0-16.12-.82,26.39,26.39,0,0,0,4.44-6q-1.34-.5-2.76-.93a21,21,0,0,1-5.5,9.65.25.25,0,0,1-.42-.26A26.06,26.06,0,0,0,25.59,8a46.07,46.07,0,0,0-5.41-.75c-.1.28-.2.57-.31.85A46.26,46.26,0,0,1,20.17,13.24Z"/><path class="cls-4" d="M86.17,60.62l.13.48.91.28C86.87,61.12,86.52,60.86,86.17,60.62Z"/><path class="cls-5" d="M86.17,60.62l.13.48.91.28C86.87,61.12,86.52,60.86,86.17,60.62Z"/><path class="cls-4" d="M0,47.56v4a31.77,31.77,0,0,1,2.89-7.47C1.9,45.21.93,46.36,0,47.56Z"/><path class="cls-5" d="M0,47.56v4a31.77,31.77,0,0,1,2.89-7.47C1.9,45.21.93,46.36,0,47.56Z"/><path class="cls-4" d="M1.47,10.88,1,11.11l-.14.07h0c-.31.19-.6.4-.91.6v2.35c.57-.35,1.13-.72,1.67-1.11C1.62,12.31,1.56,11.59,1.47,10.88Z"/><path class="cls-5" d="M1.47,10.88,1,11.11l-.14.07h0c-.31.19-.6.4-.91.6v2.35c.57-.35,1.13-.72,1.67-1.11C1.62,12.31,1.56,11.59,1.47,10.88Z"/><path class="cls-4" d="M44,88.57a28.75,28.75,0,0,1-16,2.17c-.39,2.2-.68,4.55-.87,7a45.44,45.44,0,0,0,12.17-2.41.26.26,0,0,1,.31.12.25.25,0,0,1-.08.32,48.89,48.89,0,0,0-5,4.18h11a25.36,25.36,0,0,1,3.18-10.15A11.93,11.93,0,0,0,44,88.57Z"/><path class="cls-5" d="M44,88.57a28.75,28.75,0,0,1-16,2.17c-.39,2.2-.68,4.55-.87,7a45.44,45.44,0,0,0,12.17-2.41.26.26,0,0,1,.31.12.25.25,0,0,1-.08.32,48.89,48.89,0,0,0-5,4.18h11a25.36,25.36,0,0,1,3.18-10.15A11.93,11.93,0,0,0,44,88.57Z"/><path class="cls-4" d="M89.26,31a36.68,36.68,0,0,0-10.69,1.55,19.53,19.53,0,0,0,9.68-1.26.25.25,0,0,1,.3.38c-3.93,5.38-10.42,7.48-15.79,7.24a25.27,25.27,0,0,0,3,13.32,19.14,19.14,0,0,1,3.75-.38,22.26,22.26,0,0,1,10.86,2.88,28.42,28.42,0,0,1,7.3,5.88,12.63,12.63,0,0,0,2.3-1.47V56.54c-5.54,1-12.11-4.45-9.94-12.41A9.51,9.51,0,0,1,100,36.68V33a30.09,30.09,0,0,0-7.45-1.82A29.65,29.65,0,0,0,89.26,31Z"/><path class="cls-5" d="M89.26,31a36.68,36.68,0,0,0-10.69,1.55,19.53,19.53,0,0,0,9.68-1.26.25.25,0,0,1,.3.38c-3.93,5.38-10.42,7.48-15.79,7.24a25.27,25.27,0,0,0,3,13.32,19.14,19.14,0,0,1,3.75-.38,22.26,22.26,0,0,1,10.86,2.88,28.42,28.42,0,0,1,7.3,5.88,12.63,12.63,0,0,0,2.3-1.47V56.54c-5.54,1-12.11-4.45-9.94-12.41A9.51,9.51,0,0,1,100,36.68V33a30.09,30.09,0,0,0-7.45-1.82A29.65,29.65,0,0,0,89.26,31Z"/><path class="cls-4" d="M9.09,94.23a31.82,31.82,0,0,0-2.71-4,31.61,31.61,0,0,1,5.46,5.21,34.19,34.19,0,0,0,6.57,1.82,18.67,18.67,0,0,0,5.72-4.6c.15-.9.32-1.78.51-2.64l-.4-.1A30.4,30.4,0,0,1,9.77,81.62a26,26,0,0,1-5.86-6.3A17.21,17.21,0,0,1,0,74.47V87.21A29.85,29.85,0,0,0,9.09,94.23Z"/><path class="cls-5" d="M9.09,94.23a31.82,31.82,0,0,0-2.71-4,31.61,31.61,0,0,1,5.46,5.21,34.19,34.19,0,0,0,6.57,1.82,18.67,18.67,0,0,0,5.72-4.6c.15-.9.32-1.78.51-2.64l-.4-.1A30.4,30.4,0,0,1,9.77,81.62a26,26,0,0,1-5.86-6.3A17.21,17.21,0,0,1,0,74.47V87.21A29.85,29.85,0,0,0,9.09,94.23Z"/><path class="cls-4" d="M0,4.23v1l.26-.11C.17,4.79.09,4.51,0,4.23Z"/><path class="cls-5" d="M0,4.23v1l.26-.11C.17,4.79.09,4.51,0,4.23Z"/><path class="cls-8" d="M64.69,11.12a19.91,19.91,0,0,0,.18,2.57,18,18,0,0,0,1.46,5.17,16.77,16.77,0,0,0,1,1.81,16,16,0,0,0,4.8,5,15.78,15.78,0,0,0,3,1.55l.51.18a16.38,16.38,0,0,0,5.38.91,15.22,15.22,0,0,0,9.57-3.23,12.89,12.89,0,0,0,4.53-7v0a12.26,12.26,0,0,0,0-5.77,11.7,11.7,0,0,0-1.44-3.5A12.6,12.6,0,0,0,90.3,5.18l-.45-.31a.25.25,0,0,0-.36.34c.14.24.25.5.37.75a9.92,9.92,0,0,1,1,4.3c0,.1,0,.2,0,.29s0,.11,0,.17a6.42,6.42,0,0,1-3.6,5.61,5.68,5.68,0,0,1-2.31.48c-2.91,0-5-2.09-5.53-5.32a10.7,10.7,0,0,1-.16-1.83A11.19,11.19,0,0,1,80,5.8a19,19,0,0,1,2-3.85c.42-.65.88-1.3,1.37-1.95H68.14L68,.22A19.6,19.6,0,0,0,64.69,11.12Z"/><path class="cls-6" d="M87.21,100h8.42a10.2,10.2,0,0,0-4-.8A11.66,11.66,0,0,0,87.21,100Z"/><path class="cls-8" d="M97.27,80.71a46.41,46.41,0,0,1-5.33-6.91A48.48,48.48,0,0,1,86.3,61.1l-.13-.48c-.39-1.45-.73-2.92-1-4.41a.25.25,0,0,0-.25-.21.25.25,0,0,0-.25.21c-.16,1.08-.36,2.15-.58,3.21,0,.23-.11.46-.16.68A53.34,53.34,0,0,1,72.51,83l-.15.17a53.45,53.45,0,0,1-3.69,3.89c-.84.8-1.72,1.57-2.61,2.32a53.35,53.35,0,0,1-5.77,4.21.25.25,0,0,0,.18.46c1.23-.25,2.43-.55,3.62-.89a45.31,45.31,0,0,0,8.26-3.3A45.89,45.89,0,0,0,77.19,87l.87-.61A46.37,46.37,0,0,0,86.92,78,38.92,38.92,0,0,0,93,89.33,38.22,38.22,0,0,0,97.36,94c.85.78,1.72,1.52,2.64,2.22V83.39Q98.59,82.12,97.27,80.71Z"/><path class="cls-8" d="M24.38,18.55a.25.25,0,0,0,.42.26,21,21,0,0,0,5.5-9.65,26.46,26.46,0,0,0,.84-5.66A36.32,36.32,0,0,0,35,5.7a38.39,38.39,0,0,0,5,2,42.61,42.61,0,0,0,11.15,2c.88,0,1.76.07,2.64.06s1.84,0,2.77-.11a47.17,47.17,0,0,0,4.91-.58c.22-.63.44-1.2.68-1.74A18.1,18.1,0,0,1,67.81.28L68.14,0h-44a38.62,38.62,0,0,1,1.46,8A26.06,26.06,0,0,1,24.38,18.55Z"/><path class="cls-8" d="M39.58,95.5a.26.26,0,0,0-.31-.12A45.44,45.44,0,0,1,27.1,97.78a38.15,38.15,0,0,1-8.69-.49,34.19,34.19,0,0,1-6.57-1.82c-.95-.37-1.86-.79-2.75-1.24a29.85,29.85,0,0,1-9.09-7V100H34.46a48.89,48.89,0,0,1,5-4.18A.25.25,0,0,0,39.58,95.5Z"/><path class="cls-9" d="M54.08,84.84a35.41,35.41,0,0,0,5.16-3.7,37.18,37.18,0,0,0,4.87-5.06c.23-.29.45-.6.68-.91a38,38,0,0,0,5.6-10.73,39.92,39.92,0,0,0,1.49-6,42.59,42.59,0,0,0,.54-5.16c0-.67.07-1.34.07-2a46.1,46.1,0,0,0-1.62-12.48,17.31,17.31,0,0,0,1.89.18c5.37.23,11.86-1.87,15.79-7.24a.25.25,0,0,0-.3-.38,19.53,19.53,0,0,1-9.68,1.26,24.25,24.25,0,0,1-4.56-1,27.3,27.3,0,0,1-4.65-2l-.54-.29q-.73-.41-1.42-.85A25.14,25.14,0,0,1,65,26.76c-.42-.35-.82-.7-1.19-1.05s-.62-.66-.94-1l-.11-.12h0a25.16,25.16,0,0,0-15.5-7.06c-.6-.05-1.21-.08-1.83-.09H45a33.22,33.22,0,0,0-16.41,3.85,20.24,20.24,0,0,0-5.43,4.23c-.2.23-.3.37-.3.37a46.93,46.93,0,0,1-1.38,6A29.56,29.56,0,0,1,14.59,44q-.7.75-1.48,1.48a39.87,39.87,0,0,1-3.18,2.7,37.72,37.72,0,0,0,2.94-3.93L13,44A40.49,40.49,0,0,0,18.1,32.14q.53-2,.92-4.23a71.39,71.39,0,0,0,.87-7.09c.18-2.38.28-4.89.28-7.57a46.26,46.26,0,0,0-.3-5.18c0-.29-.08-.59-.11-.89A56.1,56.1,0,0,0,18.32,0H0V4.23c.09.28.17.56.26.85a37.33,37.33,0,0,1,1.21,5.8c.09.72.15,1.44.2,2.15s.08,1.42.08,2.13A28.58,28.58,0,0,1,0,25.29V47.56c.93-1.2,1.9-2.35,2.89-3.49A31.77,31.77,0,0,0,0,51.54V66.39a28.8,28.8,0,0,0,3.91,8.93,26,26,0,0,0,5.86,6.3A24.78,24.78,0,0,0,25,86.68h.48a33.78,33.78,0,0,0,3.38-.21C41.91,85,49.69,76,49.72,67.16c0,0,0,0,0-.05v0a14.59,14.59,0,0,0-1.82-7.5,8.72,8.72,0,0,0-7.43-4.49h-.09a8.49,8.49,0,0,0-7.64,4.86,10.79,10.79,0,0,0-1.11,3.64.26.26,0,0,0,.16.27.25.25,0,0,0,.3-.08c3.51-4.63,10.1-2.51,10.1,3.34,0,3.89-3.58,7.2-8.22,7.52-.24,0-.49,0-.74,0s-.55,0-.82,0c-5.18-.42-9.14-4.79-9.39-12,0-.24,0-.48,0-.72a17.66,17.66,0,0,1,.38-3.63A18,18,0,0,1,24,56a19.19,19.19,0,0,1,3.55-6.16,19.92,19.92,0,0,1,1.75-1.78,18.53,18.53,0,0,1,9.46-4.68,15.44,15.44,0,0,1,2.41-.21,19.08,19.08,0,0,1,1.93.1A16.48,16.48,0,0,1,54,48.94,22.83,22.83,0,0,1,59.19,64c0,11-6.72,19.84-16.85,24a.25.25,0,0,0-.15.29.25.25,0,0,0,.26.2,13.83,13.83,0,0,1,1.55,0,11.93,11.93,0,0,1,4.64,1.28c3.3,1.73,5.12,5,4,8.58a.34.34,0,0,0,.12.3.26.26,0,0,0,.32-.05A12.68,12.68,0,0,0,54.28,97C56.69,93.11,56.83,88.15,54.08,84.84Z"/></g></g></g></svg>