<svg xmlns="http://www.w3.org/2000/svg" viewBox="0 0 100 100"><defs><style>.cls-1{isolation:isolate;}.cls-2{fill:#e5d6b7;}.cls-11,.cls-22,.cls-3{fill:#f9b522;}.cls-4{fill:#6d3303;}.cls-11,.cls-13,.cls-16,.cls-21,.cls-5{opacity:0.5;}.cls-10,.cls-12,.cls-14,.cls-16,.cls-17,.cls-20,.cls-21,.cls-22,.cls-25,.cls-26,.cls-5,.cls-7{mix-blend-mode:multiply;}.cls-12,.cls-14,.cls-16,.cls-6,.cls-7{fill:#cc8c0d;}.cls-7{opacity:0.7;}.cls-8{fill:#d1bdac;}.cls-9{fill:#ffefdf;}.cls-11,.cls-27{mix-blend-mode:screen;}.cls-12{opacity:0.6;}.cls-15{fill:#c18306;}.cls-17{fill:#cc8b09;}.cls-18,.cls-27{fill:#fff;}.cls-19,.cls-21{fill:#c65406;}.cls-20{fill:#7f5203;}.cls-23,.cls-26{fill:#573220;}.cls-24{fill:#e2c5aa;}.cls-25{fill:#a5733d;}</style></defs><title>cheetah</title><g class="cls-1"><g id="Layer_2" data-name="Layer 2"><g id="Layer_1-2" data-name="Layer 1"><rect class="cls-2" width="100" height="100"/><path class="cls-3" d="M60.27,35.33a9.21,9.21,0,0,0,5.53,1.39,9.61,9.61,0,0,0,6.49-4c1.5-2.08,2.56-5.18.68-10.41-1.52-3.12-4.42-8.31-2.42-11a4.35,4.35,0,0,0,.29.65s.22-1.38.73-1.49.4.54.4.54.47-.83.73-.87.25.44.25.44.47-.58.73-.55.07.47.07.47,1.16,0,1.34.44-.43.73-.43.73.65.69.69.95-.32.18-.32.18a1.73,1.73,0,0,1,.29.36c0,.11-.33.14-.33.14s.36.18.4.29-.58.36-.58.36,1.19.24,1.29.53-.44.39-.44.39a26.4,26.4,0,0,1,2.55,9.47c.39,5.4-.3,8.3-3.24,11.29S69,40,66.42,40.13c-.69,0-.83.24-.83.24l-.05-.59-.59.39-.2-.69-.64.93Z"/><path class="cls-4" d="M72.47,34.06s-.67,1.15.33,1.48,1-.67.74-1.22S72.66,33.69,72.47,34.06Z"/><path class="cls-4" d="M68.88,37.48s.41,1-.15,1.19-1.3-.11-.89-.74S68.61,37,68.88,37.48Z"/><path class="cls-4" d="M65.72,36.88s.33,1.33-.22,1.26-1-1.15-.48-1.26S65.72,36.88,65.72,36.88Z"/><path class="cls-4" d="M68.89,35.79s.54.8,1.13.65.26-1.52.26-1.52S69.19,35.64,68.89,35.79Z"/><ellipse class="cls-4" cx="70.36" cy="37.98" rx="0.22" ry="0.33"/><ellipse class="cls-4" cx="67.2" cy="39.3" rx="0.3" ry="0.29"/><path class="cls-4" d="M73.55,31.46s.41.41.12.68-.73.19-.7-.1S73.38,31.24,73.55,31.46Z"/><path class="cls-4" d="M75.68,32.7s.46.34.24.73-.87.24-.77-.2S75.37,32.48,75.68,32.7Z"/><path class="cls-4" d="M77.91,29.43s.1,1.35-.46,1.48-.87-1-.9-1.28S77.88,29.09,77.91,29.43Z"/><path class="cls-4" d="M75.47,27.39s0,1.19-.34,1.4-.89-.26-.85-.94S75.27,26.52,75.47,27.39Z"/><path class="cls-4" d="M76.72,27s0,.7.39.85.46-.68.48-1S77,26.09,76.72,27Z"/><path class="cls-4" d="M71,15.76c.37.75.23.66.6,0s1.29,0,1.54-.46a1.35,1.35,0,0,1,1.63-.54,3.14,3.14,0,0,0,1,.15l0-.09s.54-.1.44-.39-1.29-.53-1.29-.53.62-.25.58-.36-.4-.29-.4-.29.36,0,.33-.14a1.73,1.73,0,0,0-.29-.36s.36.07.32-.18-.69-.95-.69-.95.62-.29.43-.73-1.34-.44-1.34-.44.18-.43-.07-.47-.73.55-.73.55,0-.47-.25-.44S72,11,72,11s.11-.65-.4-.54-.73,1.49-.73,1.49a4.35,4.35,0,0,1-.29-.65c-1,1.42-.75,3.51,0,5.63C70.61,16.15,70.75,15.32,71,15.76Z"/><path class="cls-4" d="M73.09,20.67c.6.11.48-.29,1.12-.77a2.05,2.05,0,0,1,2.12-.37,10.65,10.65,0,0,0,1.17.39c-.25-1-.52-1.85-.78-2.58A3.55,3.55,0,0,0,75,17a6.48,6.48,0,0,1-1.52.23c-1,.06-.49,1.15-1.12,1.06-.4-.05-.75.42-1,.78.36.8.74,1.57,1.09,2.27C72.59,21,72.77,20.62,73.09,20.67Z"/><path class="cls-4" d="M77.9,21.85a7.34,7.34,0,0,0-1.69-.23c-.94-.09-.89.72-1.52.6s-.29.92-.74.66c-.24-.14-.49.08-.68.31a16.2,16.2,0,0,1,.61,2.7c.25-.48.76-1.23,1.38-.81.89.6.54-.77,1.83-.23a4.76,4.76,0,0,0,1.17.36c0-.29,0-.58-.05-.89C78.14,23.46,78,22.64,77.9,21.85Z"/><g class="cls-5"><path class="cls-6" d="M71.07,35.31a11.1,11.1,0,0,0,3.81-12.63c-1.37-3-.91-5.1-3.27-9.66-.54-1.25-.4-2.06.05-2.59h-.09c-.51.11-.73,1.49-.73,1.49a4.35,4.35,0,0,1-.29-.65c-2,2.72.91,7.91,2.42,11,1.88,5.23.82,8.33-.68,10.41a9.61,9.61,0,0,1-6.49,4,6.33,6.33,0,0,1-1.08.05C66.43,37.3,68.34,37.16,71.07,35.31Z"/><path class="cls-6" d="M77.62,20.48c0,.12,0,.27.07.45.84,4,.61,9.43-3,13.77s-10,5.1-11,3a8.14,8.14,0,0,0-.89-1.32,10.42,10.42,0,0,1-2.45-1.1l3.85,5.1.64-.93.2.69.59-.39.05.59s.15-.19.83-.24C69,40,72,38.61,75,35.61s3.63-5.89,3.24-11.29A25.45,25.45,0,0,0,77.62,20.48Z"/></g><path class="cls-7" d="M60.27,35.33a9.21,9.21,0,0,0,5.53,1.39,9.61,9.61,0,0,0,6.49-4c1.5-2.08,2.56-5.18.68-10.41-1.52-3.12-4.42-8.31-2.42-11a4.35,4.35,0,0,0,.29.65s.22-1.38.73-1.49.4.54.4.54.47-.83.73-.87.25.44.25.44.47-.58.73-.55.07.47.07.47,1.16,0,1.34.44-.43.73-.43.73.65.69.69.95-.32.18-.32.18a1.73,1.73,0,0,1,.29.36c0,.11-.33.14-.33.14s.36.18.4.29-.58.36-.58.36,1.19.24,1.29.53-.44.39-.44.39a26.4,26.4,0,0,1,2.55,9.47c.39,5.4-.3,8.3-3.24,11.29S69,40,66.42,40.13c-.69,0-.83.24-.83.24l-.05-.59-.59.39-.2-.69-.64.93Z"/><path class="cls-8" d="M60.92,83.83S60.35,85,60.7,85.6c.15.23.78-1.22.78-1.22Z"/><path class="cls-8" d="M62.93,86.18s-.14.87.2,1,.75-1.39.75-1.39Z"/><path class="cls-8" d="M65.26,86.1s.13.93.38.94.66-.69.55-1.23Z"/><path class="cls-9" d="M60.93,84.55a3.79,3.79,0,0,0-.18.7c0,.26-.13-.14,0-.53S61,84.41,60.93,84.55Z"/><path class="cls-9" d="M63.1,86.49a2.71,2.71,0,0,0,0,.52c0,.19-.12-.07-.15-.36S63.09,86.38,63.1,86.49Z"/><path class="cls-9" d="M65.51,86.42a2.68,2.68,0,0,0,.13.5c.08.17-.13,0-.22-.32S65.49,86.32,65.51,86.42Z"/><path class="cls-3" d="M44.3,36.38s2,.66,5-1.57,4.58-4.09,8.86-1.38c3.07,2.11,3.61,2.59,6.27,6.93s4.93,7,5.53,8.36-.22,4.28-1.1,6.71a44,44,0,0,0-1.5,7.84c0,1.21.39,1.3,1.4.77s1.4-1,2-.34,1.69,1.65,1.45,2.66A45.79,45.79,0,0,1,69.78,75c-1.26,3.29-1.79,4.79-1.64,5.66s.68,3-.48,4.26-3,2.18-3.24.53c-.68.87-1.94,1.89-2.9-.72-.83-.34-1.5-2-.68-3.48a47.78,47.78,0,0,1,2.91-4.07,19.66,19.66,0,0,0,1.6-3.73A10.54,10.54,0,0,1,63,72.37c-1.4-.82-3.12-11.21-3.12-16.73s-2.61-6.32-6.17-9.44S45.29,40.21,44.3,36.38Z"/><g class="cls-5"><path class="cls-6" d="M68.76,64c-1,.53-1.45.43-1.4-.77.06-.65.18-1.64.36-2.74C67.1,63.37,66,66,66.78,66.47s.55-.83,1.55-1.27,2.22-1.17,3,1S68.27,77.73,67.44,79.4a2.87,2.87,0,0,1-4.39.5c-.78-1.11,1.11-1.05,1.78-3.05s1.83-3.22,3.16-5.61,1.55-4.44-.33-1.28-3.21-.31-5.05-7.09,5.32-11.13.29-13.36S58,44,55.93,42.84c-5-3-7.37-5-5.35-8.31a5.48,5.48,0,0,1,3.7-2.44c-1.77.08-3.09,1.33-5,2.73-3,2.23-5,1.57-5,1.57,1,3.83,5.84,6.7,9.4,9.82s6.17,3.92,6.17,9.44S61.59,71.55,63,72.37a10.54,10.54,0,0,0,2.33,1.06,19.66,19.66,0,0,1-1.6,3.73,47.78,47.78,0,0,0-2.91,4.07c-.82,1.45-.15,3.14.68,3.48,1,2.61,2.23,1.6,2.9.72.29,1.65,2.08.73,3.24-.53s.63-3.39.48-4.26.39-2.37,1.64-5.66a45.79,45.79,0,0,0,2.47-8.62c.24-1-.82-2-1.45-2.66S69.78,63.51,68.76,64Z"/></g><path class="cls-4" d="M56.49,33.66s-.63.9,0,1.28,1.2,0,1.15-.7S57.11,32.85,56.49,33.66Z"/><path class="cls-4" d="M55.21,33.28s.17.68,0,.7-.3-.33-.3-.63S55.14,33,55.21,33.28Z"/><path class="cls-4" d="M54,32.88a.84.84,0,0,1,.3.78c-.08.5-.38,1-.65.58a1.47,1.47,0,0,1-.15-1.15C53.53,32.75,53.83,32.71,54,32.88Z"/><path class="cls-4" d="M52.1,35.66s.75.78.65,1.05-.45,1-.88.73a1,1,0,0,1-.55-1.25C51.48,35.51,51.7,35.29,52.1,35.66Z"/><path class="cls-4" d="M53.28,39.47s.13,1.23-.2,1.33-.63-.28-.5-1.08S53.13,38.84,53.28,39.47Z"/><path class="cls-4" d="M50.17,36.86s0,1-.2,1-.88-.4-.6-.78S50.1,36.21,50.17,36.86Z"/><path class="cls-4" d="M54.29,38.84s.12.5-.08.57-.38-.25-.3-.57S54.13,38.57,54.29,38.84Z"/><path class="cls-4" d="M50.17,38.92s.15.38-.1.4-.45-.35-.3-.63S50.15,38.67,50.17,38.92Z"/><path class="cls-4" d="M50.37,40.25a.44.44,0,0,1,0,.6.62.62,0,0,1-.93-.07c-.2-.25.08-.68.3-.73A.6.6,0,0,1,50.37,40.25Z"/><path class="cls-4" d="M57.24,37.92a1.33,1.33,0,0,1-.13,1c-.3.38-.45.15-.75-.15s-.43-.45-.1-.85S57,37.27,57.24,37.92Z"/><path class="cls-4" d="M54.59,41.15a1.08,1.08,0,0,1,.72,1.05c.05.88-.78.78-1.08.13S54,40.9,54.59,41.15Z"/><path class="cls-4" d="M56.19,35.71s.2.35-.05.35S55.89,35.46,56.19,35.71Z"/><path class="cls-4" d="M53.36,35.31s.2.45,0,.45S52.9,35,53.36,35.31Z"/><path class="cls-4" d="M48.37,35.94s.3.65,0,.78-.67-.17-.52-.48S48.27,35.76,48.37,35.94Z"/><path class="cls-4" d="M51.85,33.66s.13.27,0,.33S51.45,33.46,51.85,33.66Z"/><path class="cls-4" d="M56.54,41s.13.48-.1.48S56.06,40.65,56.54,41Z"/><path class="cls-4" d="M58.24,41.6s.22.4-.08.4S57.94,41.38,58.24,41.6Z"/><path class="cls-4" d="M58.32,43.28a2.1,2.1,0,0,1,.08,1.4c-.28.5-1.2.52-1.1-.6S57.92,42.48,58.32,43.28Z"/><path class="cls-4" d="M57.94,46.44s.1.78-.2.78-.45-.5-.35-.8S57.77,45.86,57.94,46.44Z"/><path class="cls-4" d="M61.1,44.81s.65.7.6,1.15-1.85.53-1.63-.43S60.72,44.48,61.1,44.81Z"/><path class="cls-4" d="M61.75,41.47s-.4,1.33.5,1.35,1-.85.55-1.48S62,40.7,61.75,41.47Z"/><path class="cls-4" d="M60.32,38.37s.65.3.55.83-.8,1.05-1.16.73a1.48,1.48,0,0,1-.17-1.48A.51.51,0,0,1,60.32,38.37Z"/><path class="cls-4" d="M59.39,35.13s.05.85-.32.93-.68-.15-.58-.88S59.17,34.28,59.39,35.13Z"/><path class="cls-4" d="M64.68,45.36s.48.9,0,1.35-1-.33-.8-.93S64.51,45.18,64.68,45.36Z"/><path class="cls-4" d="M60.85,48.32s0,1.18-.38,1.2-.65-.6-.48-1.1S60.7,47.67,60.85,48.32Z"/><path class="cls-4" d="M63.91,49.17s.28.83-.17,1-.75-.5-.53-.88S63.71,48.77,63.91,49.17Z"/><path class="cls-4" d="M61.48,36.49s.33,1.05-.3,1.15a.65.65,0,0,1-.73-1C60.7,36.19,61.12,35.56,61.48,36.49Z"/><path class="cls-4" d="M62.3,51.4s.15.37-.1.42-.9-.4-.7-.6A.55.55,0,0,1,62.3,51.4Z"/><path class="cls-4" d="M65.79,52a1.17,1.17,0,0,1,0,1.08c-.25.73-1.28.58-1.08-.5S65.51,51.45,65.79,52Z"/><path class="cls-4" d="M62.38,53.93a.85.85,0,0,1,.05.93c-.27.55-.58.15-.58-.35S62.15,53.68,62.38,53.93Z"/><path class="cls-4" d="M65.08,56.36a1.2,1.2,0,0,1,.75,1.1c0,.78-1.33,1.53-1.58.6S64.41,56.13,65.08,56.36Z"/><path class="cls-4" d="M63.3,56.21a1,1,0,0,1,0,.9c-.25.48-1.08.52-.9-.15S63.1,56,63.3,56.21Z"/><path class="cls-4" d="M61.9,57.61s.08.6-.15.67-.4-.35-.3-.57S61.73,57.36,61.9,57.61Z"/><path class="cls-4" d="M62.88,60.42s.22.37,0,.52-.53.1-.48-.22S62.75,60.24,62.88,60.42Z"/><path class="cls-4" d="M62.73,61.77A2,2,0,0,1,63,62.9c0,.65-.6.72-.9-.08S62,61.07,62.73,61.77Z"/><path class="cls-4" d="M67,48s0,1.6.44,1.74,1.09-.37.69-1.42S67.14,47.11,67,48Z"/><path class="cls-4" d="M68.81,51.57s-.44.91-.07,1.2.8-.44.8-1.12S69.14,51,68.81,51.57Z"/><path class="cls-4" d="M67.94,54.81s.11.8-.33.8S67.54,54.3,67.94,54.81Z"/><path class="cls-4" d="M67.21,59.56s.22,1.09-.4,1.13-.76-.8-.44-1.16S67,59.23,67.21,59.56Z"/><path class="cls-4" d="M64.45,66.25s.62.69.44,1.31-1.38.36-1.34-.55S64,65.85,64.45,66.25Z"/><path class="cls-4" d="M67.3,63.19s0,1.11-.3,1.26-.48-.51-.36-1.17S67.14,62.53,67.3,63.19Z"/><path class="cls-4" d="M67,67.36s.21,1.11-.21,1.11-.45-.75-.39-1.2S66.82,66.76,67,67.36Z"/><path class="cls-4" d="M65.44,70.36s.24,1.26-.3,1.32-.51-.72-.48-1.26S65.17,69.55,65.44,70.36Z"/><path class="cls-4" d="M62.52,44.23s0,.35-.15.34a.24.24,0,0,1-.17-.4C62.35,44,62.47,44,62.52,44.23Z"/><path class="cls-4" d="M65.59,43.4s.17.54-.06.61-.42-.25-.42-.59S65.41,42.91,65.59,43.4Z"/><path class="cls-4" d="M67.29,45s.19.54,0,.65-.4-.23-.42-.54S67.06,44.69,67.29,45Z"/><path class="cls-4" d="M63.59,48s.06.21-.09.23S63.31,47.72,63.59,48Z"/><path class="cls-4" d="M66,61.25s.11.55-.18.56-.45-.37-.37-.62S65.84,60.86,66,61.25Z"/><path class="cls-4" d="M65.94,65.25s.18.49,0,.64-.52-.23-.43-.47S65.74,64.87,65.94,65.25Z"/><path class="cls-4" d="M64.93,63.07s.13.29,0,.3S64.68,62.8,64.93,63.07Z"/><path class="cls-4" d="M70.12,66.68s-.69,1.64,0,2,.87-1.27.83-1.85S70.52,66.17,70.12,66.68Z"/><path class="cls-4" d="M68.48,70.67s-.83,1.42-.29,1.67,1.09-.58,1.09-1.45S68.66,70,68.48,70.67Z"/><path class="cls-4" d="M70.59,70.38a1.28,1.28,0,0,0,0,1.05c.29.4.58-.51.62-1A.33.33,0,1,0,70.59,70.38Z"/><path class="cls-4" d="M68,73.83s-.11.62.33.73.51-.29.47-.8S68,73.18,68,73.83Z"/><path class="cls-4" d="M66.45,74.34s-.15,1.27-.54,1.27-.47-.73-.26-1.24S66.38,73.51,66.45,74.34Z"/><ellipse class="cls-4" cx="68.48" cy="66.28" rx="0.18" ry="0.36"/><ellipse class="cls-4" cx="70.52" cy="65.14" rx="0.22" ry="0.38"/><ellipse class="cls-4" cx="65.38" cy="49.52" rx="0.13" ry="0.24"/><ellipse class="cls-4" cx="67.7" cy="57.8" rx="0.13" ry="0.42"/><path class="cls-4" d="M66.89,73s0,.59-.18.6-.37-.17-.24-.48S66.84,72.81,66.89,73Z"/><path class="cls-3" d="M62.62,80.44a12.09,12.09,0,0,1-.84,1.76c-.57,1-1.19.79-1-.18S62.84,79.21,62.62,80.44Z"/><path class="cls-3" d="M62.75,81.32a4.61,4.61,0,0,0-.61,2.51c.22,1,1.67.66,1.85-.57s.09-2-.27-2.33S63,80.7,62.75,81.32Z"/><path class="cls-3" d="M65.39,81.4A5.53,5.53,0,0,0,64.86,84c.22.88,2.07.48,2.2-.75s-.09-2.15-.53-2.15S65.7,81,65.39,81.4Z"/><g class="cls-10"><path class="cls-6" d="M67.76,82.47c.14,2.15-1.4,3.17-2.52,2.63S65,81.38,65,81.38a3.15,3.15,0,0,0-.34,1.16c-.21,1-.78,3.07-2,2.59s-.92-1.74-.14-3.88c-.54,1-1,2.73-1.73,2.08a1.54,1.54,0,0,1-.36-.51,2.2,2.2,0,0,0,1,1.9c1,2.61,2.23,1.6,2.9.72.29,1.65,2.08.73,3.24-.53s.63-3.39.48-4.26.39-2.37,1.64-5.66c.33-.75.62-1.53.88-2.31-.6,1.49-2,4.76-2.5,6.05A6.46,6.46,0,0,0,67.76,82.47Z"/></g><g class="cls-10"><path class="cls-6" d="M62.2,51.82c.56-.6-.65-1.1-3-2.84A30.12,30.12,0,0,1,55.4,45.4c-.78-.68.68-.78.48-.82S54.58,44,54.77,44s1.4-.39.58-.82A22.58,22.58,0,0,1,49,38.48,2.61,2.61,0,0,1,48,35.63a5.07,5.07,0,0,1-3.72.75c1,3.83,5.84,6.7,9.4,9.82,3.38,3,5.91,3.84,6.15,8.65l1.2.13A11.51,11.51,0,0,1,62.2,51.82Z"/></g><path class="cls-11" d="M53.27,34.94s4.43-1.09,8.64,4.87,4.14,4.65,2.25,1.16-3.12-5.3-5.88-7.12-4.65-1.16-5.88-.15S52.47,35.53,53.27,34.94Z"/><path class="cls-12" d="M44.3,36.38s2,.66,5-1.57,4.58-4.09,8.86-1.38c3.07,2.11,3.61,2.59,6.27,6.93s4.93,7,5.53,8.36-.22,4.28-1.1,6.71a44,44,0,0,0-1.5,7.84c0,1.21.39,1.3,1.4.77s1.4-1,2-.34,1.69,1.65,1.45,2.66A45.79,45.79,0,0,1,69.78,75c-1.26,3.29-1.79,4.79-1.64,5.66s.68,3-.48,4.26-3,2.18-3.24.53c-.68.87-1.94,1.89-2.9-.72-.83-.34-1.5-2-.68-3.48a47.78,47.78,0,0,1,2.91-4.07,19.66,19.66,0,0,0,1.6-3.73A10.54,10.54,0,0,1,63,72.37c-1.4-.82-3.12-11.21-3.12-16.73s-2.61-6.32-6.17-9.44S45.29,40.21,44.3,36.38Z"/><path class="cls-3" d="M45.1,71.15A5.41,5.41,0,0,0,45,74.59c.62,1.49,1.24,1.93,1.45,3.3s7.25,4.93,7.25,4.93.48-2-.34-3.1a14.21,14.21,0,0,1-1.7-3.48,23.19,23.19,0,0,0-1.55-3.78,7,7,0,0,1-.87-2.13A6.08,6.08,0,0,1,45.1,71.15Z"/><g class="cls-13"><path class="cls-14" d="M53.32,79.73a14.21,14.21,0,0,1-1.7-3.48,23.19,23.19,0,0,0-1.55-3.78,7,7,0,0,1-.87-2.13,6.08,6.08,0,0,1-4.1.81A5.41,5.41,0,0,0,45,74.59s-.07-2,1.55-2.15,2.16.58,1.39,1.08a4.65,4.65,0,0,0-1.77,1.93,1.9,1.9,0,0,1-.36.7,4.72,4.72,0,0,1,.65,1.74c.22,1.38,7.25,4.93,7.25,4.93S54.14,80.79,53.32,79.73Z"/></g><path class="cls-4" d="M45.08,73.2a3.33,3.33,0,0,0,0,1.34c.16.56.33.39.6,0s.47-.65.31-1-.28-.69-.56-.64S45.09,73.07,45.08,73.2Z"/><path class="cls-4" d="M46.94,72.49s-.09.36.17.37.27-.3.2-.45S47,72.16,46.94,72.49Z"/><path class="cls-4" d="M46,72.19s.15.33-.15.31-.41-.21-.35-.31S45.91,72,46,72.19Z"/><path class="cls-4" d="M49.39,71.58s.15.38-.15.38a.21.21,0,0,1-.19-.36C49.15,71.53,49.3,71.42,49.39,71.58Z"/><path class="cls-4" d="M47.1,74.95a6.37,6.37,0,0,0-.48.74c-.1.25-.31-.37-.14-.8S47.07,74.5,47.1,74.95Z"/><path class="cls-14" d="M45.1,71.15A5.41,5.41,0,0,0,45,74.59c.62,1.49,1.24,1.93,1.45,3.3s7.25,4.93,7.25,4.93.48-2-.34-3.1a14.21,14.21,0,0,1-1.7-3.48,23.19,23.19,0,0,0-1.55-3.78,7,7,0,0,1-.87-2.13A6.08,6.08,0,0,1,45.1,71.15Z"/><path class="cls-8" d="M45.37,88.36s1,1.66,1.41,1.64.66-1.66.66-1.66Z"/><path class="cls-8" d="M49.26,88.26s.63,1.24.91,1.16.58-1.61.58-1.61Z"/><path class="cls-8" d="M51.93,87.83s.2.91.5.93.6-1,.6-1Z"/><path class="cls-9" d="M46.2,89a4.8,4.8,0,0,0,.53.8c.23.25-.25,0-.56-.43S46.09,88.81,46.2,89Z"/><path class="cls-9" d="M49.77,88.65a3.69,3.69,0,0,0,.37.62c.17.2-.19,0-.41-.34S49.7,88.52,49.77,88.65Z"/><path class="cls-9" d="M52.25,88.21a2.22,2.22,0,0,0,.11.43c.06.14-.11,0-.18-.27S52.23,88.12,52.25,88.21Z"/><path class="cls-8" d="M32.4,77s.9,1.53,1.35,1.53-.18-1.71-.18-1.71Z"/><path class="cls-8" d="M34.77,76.21s.81.81,1.14.81-.27-1.47-.27-1.47Z"/><path class="cls-8" d="M36.68,74.86s.48.66.81.6-.09-1.35-.09-1.35Z"/><path class="cls-3" d="M53.82,82.57c1,1.1.82,2.63.17,4.47s-2.35,1-2.86.57c-1.61,1.81-3.06.39-3.06.39-.2,1-2,1.27-3,.28-1.64-1.75-1.67-2-1.53-3.71.2-2,1.56-3,1.78-4.08s.71-3,1.1-4.36,1.75-2.21,3.31-3.2,5.89-4,5.83-4.39-1.53-1.84-1.53-1.84-.59.71-.68.65,0-.42,0-.42-1,1.13-1.1,1.08-.11-.48-.11-.48-2.94,3.28-3.43,3.77-.85.42-2.72.37c-5.44-.45-8.16-2.58-8.16-2.58l-.17.54a2,2,0,0,1-.31-.78c-.1.1-1.09.82-1.09.82l.24-.78a14,14,0,0,1-2.07-.54l.07.71a1.81,1.81,0,0,1-1.23-1.56,2.44,2.44,0,0,1-.44.85,7.65,7.65,0,0,1,1.87,2.28c1.87-.41,2.82,1.87,2.89,2.75s-.68,2.11-1.36,1.87c-.34.58-1.49,1.6-2.28,1.46-.27.41-.37.51-1.87.44s-1.29-3-1.2-3.46.12-.68-.3-.77a8.27,8.27,0,0,0-2.48-.44,26.84,26.84,0,0,1-3.46,1.73c-1.58.6-2.79-1.36-3-5s3.16-8.36,3.09-9.49S23.66,57,23.74,56.06s2.86-4.67,3.46-5.2,0-.9-.15-1.35.83-1.05.83-1.05-.45.07-.45-.15.6-.53.6-.53l-.6-.45,1.13-.53a4.19,4.19,0,0,1,.53-2s16.34-6.72,18-5.18,7.38,3.6,7.46,3.86-.74.88-.74.88,1,.13,1,.26,0,0-.83.44c.31,0,1.18.75,1.84,1.71a15.31,15.31,0,0,0,3.38,2.81,10.39,10.39,0,0,1,2.55,2.94,15.54,15.54,0,0,0,0,11.06,23.52,23.52,0,0,1,1.8,6c.35,2.41.35,4.48-.09,5-2.24,2.06-9.38,2.72-10.09,2.75a2,2,0,0,0-1.16.45.9.9,0,0,0-.43,1.12A7.13,7.13,0,0,1,52,80.63c0,.44.93.93,1.14,1.5C53.41,82.06,53.82,82.57,53.82,82.57Z"/><path class="cls-9" d="M37.31,40.25s-.38.67-.93,1.72L38,41.4C37.6,40.69,37.31,40.25,37.31,40.25Z"/><path class="cls-9" d="M27.41,59.61a.18.18,0,0,0,.06-.11Z"/><path class="cls-9" d="M33.27,68.66c-.21-.2-.36-.32-.36-.32A2.25,2.25,0,0,0,33.27,68.66Z"/><path class="cls-9" d="M49.15,62.54a14.18,14.18,0,0,0-2.79-1.74c-.55-.41-.27-1.23-.27-1.23l-.55.48s-.2-.41.27-1.77a9.69,9.69,0,0,1-1,1,5.13,5.13,0,0,1,.54-1.77c-1.23-2.59-4.77-5-4.36-7.5.56-2.18-1.74-6.5-3-8.56L36.38,42c-1.45,2.76-4,8.12-3.8,10.65.14,1.09-2,2.11-3.14,4-.54-.68-1.5,0-2.25.68a9.79,9.79,0,0,0,1.43.2s-1.91.82-1.91,2.25c.43,0,.61-.09.69-.17l.06-.11a.18.18,0,0,1-.06.11L26.65,61a5.73,5.73,0,0,0,1.43-.07l-1,.82s2,1,2.52,1.29a1.71,1.71,0,0,0-.48,1.23l.75-.27a1.42,1.42,0,0,0,.48,2,12.88,12.88,0,0,1,2.58,2.29,2.44,2.44,0,0,0,.44-.85,1.81,1.81,0,0,0,1.23,1.56l-.07-.71a14,14,0,0,0,2.07.54l-.24.78s1-.72,1.09-.82a2,2,0,0,0,.31.78l.17-.54s2.72,2.13,8.16,2.58c1.87.06,2.24.11,2.72-.37s3.43-3.77,3.43-3.77,0,.42.11.48,1.1-1.08,1.1-1.08-.11.37,0,.42.68-.65.68-.65C53.15,65.25,50.33,63.63,49.15,62.54Z"/><path class="cls-4" d="M30.33,54.19s-.62.23-.62.77.26.8.62.67S30.59,54.09,30.33,54.19Z"/><path class="cls-4" d="M28.63,54.58s0,.92-.32,1.18-.59,0-.49-.52.25-.92.5-.92A.28.28,0,0,1,28.63,54.58Z"/><path class="cls-4" d="M27.25,53.53a3.51,3.51,0,0,1-.4,1.81c-.47.72-1,.43-.94-.33a3,3,0,0,1,.92-1.88C27.1,53,27.25,53.53,27.25,53.53Z"/><path class="cls-4" d="M28.54,51.77s.1.89-.41,1-.55-.64-.4-1S28.44,50.91,28.54,51.77Z"/><path class="cls-4" d="M29.91,52.43s-.09.62.15.61.38-.45.26-.69S30,52,29.91,52.43Z"/><path class="cls-4" d="M31.8,52.66a1,1,0,0,0-.37.68c0,.45.23.73.66.37a.88.88,0,0,0,.3-1C32.34,52.58,32.12,52.42,31.8,52.66Z"/><path class="cls-4" d="M24.73,56.18s.21.13.19.56-.21.7-.43.73-.38-.43-.3-.79S24.55,56.05,24.73,56.18Z"/><path class="cls-4" d="M25.92,57.93s.11.37,0,.46-.39,0-.38-.3S25.79,57.68,25.92,57.93Z"/><path class="cls-4" d="M29.3,58.07a1.09,1.09,0,0,1-.73.9c-.64.17-.65-.56-.37-.9S29.33,57.41,29.3,58.07Z"/><path class="cls-4" d="M29.9,56.84s.1.27-.16.28-.22-.35-.1-.39S29.89,56.72,29.9,56.84Z"/><path class="cls-4" d="M29,48.42s0,.8-.31.93-.5-.38-.33-.84S28.85,48,29,48.42Z"/><path class="cls-4" d="M29.49,50s.09.63-.2.63-.28-.41-.16-.59S29.45,49.79,29.49,50Z"/><path class="cls-4" d="M30.2,50.23a1.39,1.39,0,0,0,0,.92c.17.5.64.27.75-.5S30.56,49.49,30.2,50.23Z"/><path class="cls-4" d="M25.66,62.38s.72.24.61.82-.88,1.22-1.18.77S24.6,61.88,25.66,62.38Z"/><path class="cls-4" d="M26.52,65.68s.14.73-.11.86-.7-.39-.61-.75S26.18,65,26.52,65.68Z"/><path class="cls-4" d="M24.05,64.89s.09.77-.27.79-.52-.36-.5-.81S23.94,64.1,24.05,64.89Z"/><path class="cls-4" d="M23.51,68.22s.25.63,0,.77-.64-.2-.64-.7S23.33,67.88,23.51,68.22Z"/><path class="cls-4" d="M22.4,66.41s.2.2.11.36a.22.22,0,0,1-.38-.16C22.15,66.36,22.26,66.25,22.4,66.41Z"/><path class="cls-4" d="M22.76,70.68s0,.34-.16.36-.36-.27-.23-.41S22.78,70.59,22.76,70.68Z"/><path class="cls-4" d="M24,70.46s0,1.2.52,1.47.84-.45.54-1.18S24.07,69.55,24,70.46Z"/><path class="cls-4" d="M26.72,72.72a1.21,1.21,0,0,0-.59-.66c-.41-.16-.59,0-.54.41s.18,1,.57.75S26.77,72.92,26.72,72.72Z"/><path class="cls-4" d="M25.86,68.13s-.16,1.27.41,1.38.95-.68.54-1.2S26,67.58,25.86,68.13Z"/><path class="cls-4" d="M28,70.91s.47.45.63.16S27.92,70.37,28,70.91Z"/><path class="cls-4" d="M28.33,65.91s-.23.84.09,1.06.7.07.61-.77S28.53,65.46,28.33,65.91Z"/><path class="cls-4" d="M30.19,67.38s-.16,1,.25,1.2.68-.41.59-1.13S30.44,66.68,30.19,67.38Z"/><path class="cls-4" d="M30.66,71.3a.82.82,0,0,0,.18.84c.36.32.65-.09.45-.66S30.82,70.93,30.66,71.3Z"/><path class="cls-4" d="M29.21,68.13s-.09.41.25.48.25-.27.11-.48S29.23,67.9,29.21,68.13Z"/><path class="cls-4" d="M28.24,63.82s.16.36.34.18S28.22,63.31,28.24,63.82Z"/><path class="cls-4" d="M31.92,65.4s.15.85.63,1.06.55-.44.26-1S31.73,64.74,31.92,65.4Z"/><path class="cls-4" d="M23.23,73.41s.68,0,.8.39-.27.41-.53.29S22.89,73.51,23.23,73.41Z"/><path class="cls-4" d="M30.78,64.21s0,.36.24.27S30.85,63.85,30.78,64.21Z"/><path class="cls-4" d="M27.75,66.37s0,.39-.22.29S27.64,66.12,27.75,66.37Z"/><path class="cls-4" d="M32.14,69.88s.12.29-.07.31S31.8,69.73,32.14,69.88Z"/><path class="cls-4" d="M35.34,53.37s0,.32.21.4.27-.26.14-.46S35.34,53.19,35.34,53.37Z"/><path class="cls-4" d="M39.81,52.16s-.19.77.11,1,.56-.3.46-.86S39.9,51.72,39.81,52.16Z"/><path class="cls-4" d="M45.13,62.69s-.21.75.26,1.09,1-.62.73-1.12S45.28,62,45.13,62.69Z"/><path class="cls-4" d="M48.07,64s-.13.4.12.52.44-.08.34-.36S48.14,63.79,48.07,64Z"/><path class="cls-4" d="M48.73,63.38s.11.55.4.51.09-.36-.05-.55S48.72,63.2,48.73,63.38Z"/><path class="cls-4" d="M47.46,62.14s.08.28.3.28S47.48,61.89,47.46,62.14Z"/><path class="cls-4" d="M49.94,58.18s.36,0,.39.31-.16.62-.36.46S49.6,58.15,49.94,58.18Z"/><path class="cls-4" d="M48.49,56a4.91,4.91,0,0,1,.7,1.64c0,.59-.6.67-1,.48s-1.08-.11-1.08-1.18S47.78,55,48.49,56Z"/><path class="cls-4" d="M50.37,61.65a1.37,1.37,0,0,1,.22.71c0,.31.12.68-.06.77s-1-.34-1.18-.72.09-.65.31-.82A.49.49,0,0,1,50.37,61.65Z"/><path class="cls-4" d="M51.53,60.4a.68.68,0,0,1,.21.58c0,.36-.62,0-.69-.32S51.26,60.15,51.53,60.4Z"/><path class="cls-4" d="M52.22,62.86a2,2,0,0,1,.18.79c0,.43-.48.49-.69.12a1.1,1.1,0,0,1,0-1C51.78,62.53,52,62.52,52.22,62.86Z"/><path class="cls-4" d="M43.47,54.44a.85.85,0,0,1,.64.54c.24.51.05,1.08-.42,1s-.52-.68-.57-.91S43.2,54.39,43.47,54.44Z"/><path class="cls-4" d="M44.84,52.63s-.29.81,0,1,.74-.34.71-.79S45.11,51.88,44.84,52.63Z"/><path class="cls-4" d="M42.52,52.69s0,.41.32.37.15-.35,0-.47S42.45,52.46,42.52,52.69Z"/><path class="cls-4" d="M42.42,50.33a.59.59,0,0,0,.39.76c.58.17.32-.63.09-.91S42.42,50,42.42,50.33Z"/><path class="cls-4" d="M45.41,49.65s-.15.85.47,1.06.69-.88.36-1.32S45.45,49.19,45.41,49.65Z"/><path class="cls-4" d="M41.78,47.28s-.07.49.17.5.27-.4.12-.64S41.76,47.13,41.78,47.28Z"/><path class="cls-4" d="M43.72,45.35a1.46,1.46,0,0,0-.09.95c.17.36.8.34.76-.56S43.91,44.73,43.72,45.35Z"/><path class="cls-4" d="M45.53,47.43c0,.07-.07.15,0,.29s-.25.15,0,.27.58-.05.59-.53-.32-.41-.32-.25S45.51,47.15,45.53,47.43Z"/><path class="cls-4" d="M45.31,43.25s-.07.68.22.8.76.17.61-.53S45.36,42.56,45.31,43.25Z"/><path class="cls-4" d="M47.49,43s-.29.93.19,1.07a.58.58,0,0,0,.71-.85C48.07,42.7,47.65,42.54,47.49,43Z"/><path class="cls-4" d="M48.36,45.73a1.49,1.49,0,0,0,0,1.15.62.62,0,0,0,1.17-.27C49.54,45.88,48.61,44.91,48.36,45.73Z"/><path class="cls-4" d="M51.62,45.18s-.49.63-.32,1,1.3.68,1.3.09S52.18,44.37,51.62,45.18Z"/><path class="cls-4" d="M49.15,50.17a2.41,2.41,0,0,0-.29,1.15c.09.42,1.35.17,1.37-.36S49.46,49.5,49.15,50.17Z"/><path class="cls-4" d="M50.29,48.16a.29.29,0,0,0,.25.34c.29,0,.25-.54,0-.51S50.29,48,50.29,48.16Z"/><path class="cls-4" d="M48.44,52.58s.05.64-.14.64-.42-.34-.34-.69S48.37,52.24,48.44,52.58Z"/><path class="cls-4" d="M49.44,53.18s-.05.76.2.81.39-.34.29-.74S49.47,52.78,49.44,53.18Z"/><path class="cls-4" d="M50.58,44.17s.12.39-.07.39-.29-.29-.19-.41S50.56,44,50.58,44.17Z"/><path class="cls-4" d="M49.71,42.79s0,.41-.2.36-.44-.36-.27-.56S49.59,42.33,49.71,42.79Z"/><path class="cls-4" d="M52.32,51.91s-.31.73.07,1.09.72-.46.63-1S52.47,51.43,52.32,51.91Z"/><path class="cls-4" d="M51.09,54.63s0,1,.44,1.28,1-.19,1-.77-.94-1.11-1.19-1A.41.41,0,0,0,51.09,54.63Z"/><path class="cls-4" d="M54,55.18s-.15,1.06.34,1.14,1-.22.7-.82S54,54.51,54,55.18Z"/><path class="cls-4" d="M54.41,51.53s.07.63.53.58.27-.51-.12-.7S54.36,51.31,54.41,51.53Z"/><path class="cls-4" d="M53.76,47.94s-.08.61.24.68.55-.46.34-.73S53.8,47.58,53.76,47.94Z"/><path class="cls-4" d="M56.51,49.83s-.36,1.11.12,1.43.8-.63.63-1.26S56.66,49.52,56.51,49.83Z"/><path class="cls-4" d="M53.24,56.63s.15.46.41.29S53.32,56.25,53.24,56.63Z"/><path class="cls-4" d="M55.3,58.06s-.46,1,0,1.18.65-.27.65-.94S55.59,57.53,55.3,58.06Z"/><path class="cls-4" d="M57.6,54.41s-.7,1.23-.15,1.67.94.51,1-.19S58.18,53.68,57.6,54.41Z"/><path class="cls-4" d="M56.56,60s.15,1.45.75,1.57.19-1.19-.07-1.57S56.56,59.49,56.56,60Z"/><path class="cls-4" d="M54.82,63.68a3.51,3.51,0,0,0,.17,1.7c.32.49.9.1.87-.92S55.13,62.66,54.82,63.68Z"/><path class="cls-4" d="M49.9,66.87s.39,1.45-.07,1.67-.68-.92-.56-1.5S49.73,66.41,49.9,66.87Z"/><path class="cls-4" d="M51.48,66.1s.15.31,0,.36S51.16,66,51.48,66.1Z"/><path class="cls-4" d="M55.33,60s-.29.29-.53.17-.17-.39.08-.39S55.42,59.9,55.33,60Z"/><path class="cls-4" d="M57.72,64.5s.36.48,0,.48-.51-.29-.41-.43S57.55,64.38,57.72,64.5Z"/><path class="cls-4" d="M55.42,67s.27.46,0,.51-.31-.1-.51-.07-.41-.46-.12-.63S55.42,67,55.42,67Z"/><path class="cls-4" d="M60.55,55.08s-.07,1-.43,1-.49-.73-.34-1.07S60.55,54.53,60.55,55.08Z"/><path class="cls-4" d="M59.42,52.88s.19.46-.15.46S59.22,52.45,59.42,52.88Z"/><path class="cls-4" d="M60.82,53.25s.12.48-.22.46-.2-.48-.07-.65S60.75,53.05,60.82,53.25Z"/><path class="cls-4" d="M58,51.75s0,.24-.12.27S57.77,51.41,58,51.75Z"/><path class="cls-4" d="M59.26,58.12s0,.29-.15.28-.19-.19-.13-.34S59.24,57.9,59.26,58.12Z"/><path class="cls-4" d="M58.55,59.78s.15.22,0,.34-.36-.09-.27-.16,0-.18.05-.27S58.55,59.78,58.55,59.78Z"/><path class="cls-4" d="M60.88,60.83a5.17,5.17,0,0,0,.14.77c.08.27-.38.14-.74-.21a.62.62,0,0,1-.11-.88C60.31,60.3,60.84,60.65,60.88,60.83Z"/><path class="cls-4" d="M60.48,64.65A2.83,2.83,0,0,1,61,65.88c0,.56-.68.78-1,0S59.92,64,60.48,64.65Z"/><path class="cls-4" d="M57.84,67.82s0,.46-.27.44-.31-.46-.19-.58S57.82,67.67,57.84,67.82Z"/><path class="cls-4" d="M61.06,70.17a1.39,1.39,0,0,1,.17,1.28c-.24.8-.9.46-1-.32S60.63,69.68,61.06,70.17Z"/><path class="cls-4" d="M58.18,69.8s.1.7-.34.65-.48-.58-.32-.82A.39.39,0,0,1,58.18,69.8Z"/><path class="cls-4" d="M55.62,71.38s-.44,1.36-1.23,1.19-.27-.9.24-1.5S55.84,70.89,55.62,71.38Z"/><path class="cls-4" d="M54.58,73.82s0,.68-.39.58S54.26,73.39,54.58,73.82Z"/><path class="cls-4" d="M49.81,74.16s-.36,1.07-.9,1-.22-.8.17-1S49.88,73.82,49.81,74.16Z"/><path class="cls-4" d="M47.82,76.51s.39.63.14.87-.29.6-.58.46-.36-.73-.27-1.24S47.58,76.15,47.82,76.51Z"/><path class="cls-4" d="M54.87,74.88s-.7,1-.24,1.09,1-.56.92-1A.36.36,0,0,0,54.87,74.88Z"/><path class="cls-4" d="M58.23,73.77s-.46.9.12,1.11,1-.7.87-1.26S58.43,73.24,58.23,73.77Z"/><path class="cls-4" d="M51.79,75.13s-.17.39.12.44.36-.34.22-.53A.18.18,0,0,0,51.79,75.13Z"/><path class="cls-4" d="M60.6,74.06s-.36,1.4.22,1.28a.74.74,0,0,0,.65-.92C61.4,74,60.8,73.51,60.6,74.06Z"/><path class="cls-4" d="M52.64,71.76s-.34.75-.63.63-.17-.41.15-.63S52.61,71.6,52.64,71.76Z"/><path class="cls-4" d="M50.12,75.73s.22.31.07.39S49.73,75.61,50.12,75.73Z"/><path class="cls-4" d="M57.19,70.5s-.05.41-.31.34S56.95,70.19,57.19,70.5Z"/><path class="cls-4" d="M62.64,72.18s.56.51.51.85-.82,0-.94-.41S62.42,72,62.64,72.18Z"/><path class="cls-4" d="M62.78,66.65s-.94.44-.75,1.19a1.33,1.33,0,0,0,1.09,1.06C63.39,68.88,63.1,67.45,62.78,66.65Z"/><path class="cls-4" d="M53.76,77.16s-.58,0-.73,0-.12-.53.36-.63S54,77,53.76,77.16Z"/><path class="cls-4" d="M62.37,69.22s.05.39-.17.36S62.15,68.88,62.37,69.22Z"/><path class="cls-4" d="M60.11,62.66s.27-.09.3.16-.24.35-.34.19S60,62.65,60.11,62.66Z"/><g class="cls-10"><path class="cls-15" d="M30.32,49.5c-.12.81.6.12.6.12s0,.72,0,1,.54-.26.54-.26a4.43,4.43,0,0,0-.06,1.19c.09.27,1.52.3,2.33-.21-.06.9,1.37.54,1.94.12.21,1.31,1.79.33,1.67-.63,1.58.75,2.45.27,2.06-.12,1.07.54,1.43-.39,1.73-1.67s3.57-7.71,8.24-8.07a11.39,11.39,0,0,1-2.29-1.44c-1.67-1.54-18,5.18-18,5.18a4.45,4.45,0,0,0-.53,1.82C29.31,47.32,30.36,48.51,30.32,49.5Z"/></g><g class="cls-5"><path class="cls-6" d="M34.8,65.57a9.93,9.93,0,0,1,1.14-1.68c-.3,1.09,3,2.8,5.93,3.67s5,0,4.36-3.85c-.43-3.56-.8-3.16-.8-2.76s-.29-.8-.22-1.34c-.8.69-1.05-1.13.25-2.91s.21.72.11,1.1.63,0,1.41-.68,1.8,2.15,5.25,5.75A41.64,41.64,0,0,0,60,69.29c1.74,1.09-2.18-.36-4.43.95s-5.81,3-7.7,4.14a2.6,2.6,0,0,1-.39.19,15.84,15.84,0,0,1,2.27-1.62c1.56-1,5.89-4,5.83-4.39s-1.53-1.84-1.53-1.84-.59.71-.68.65,0-.42,0-.42-1,1.13-1.1,1.08-.11-.48-.11-.48-2.94,3.28-3.43,3.77-.85.42-2.72.37c-5.44-.45-8.16-2.58-8.16-2.58l-.17.54a2,2,0,0,1-.31-.78c-.1.1-1.09.82-1.09.82l.24-.78a14,14,0,0,1-2.07-.54l.07.71a1.81,1.81,0,0,1-1.23-1.56,2.44,2.44,0,0,1-.44.85,7.65,7.65,0,0,1,1.87,2.28c1.87-.41,2.82,1.87,2.89,2.75s-.68,2.11-1.36,1.87c-.34.58-1.49,1.6-2.28,1.46-.27.41-.37.51-1.87.44s-1.29-3-1.2-3.46.12-.68-.3-.77a8.27,8.27,0,0,0-2.48-.44,26.84,26.84,0,0,1-3.46,1.73c-1.58.6-2.79-1.36-3-5a6.55,6.55,0,0,1,0-1.26c.18.88,1.18,5.29,3.69,3.91,2.77-1.54,3-3.47,4.61-2.18s2.62,1.49,3.17,1S31.48,67.2,29.11,66c-2-1-2.46-.82-3.12.1-1.09,1.54-1.14,2.53-1.63,2.43s.42-2.2,1.24-3.86c.72-1.46,2-1,3-.67A3.31,3.31,0,0,1,29,63l-2.6-1.16.93-.58L26.19,61l.81-.81s-1.39-1.68,1.22-2.55H27s.18-.87,1.62-1c-.64.4-.64.64-.64.64l1,.17s-2.8,1.47-.58,3.48C31.93,64.09,34.08,66.29,34.8,65.57Z"/><path class="cls-6" d="M52.12,77.67a2,2,0,0,1,1.16-.45c.71,0,7.85-.69,10.09-2.75.44-.48.44-2.55.09-5a23.52,23.52,0,0,0-1.8-6,15.23,15.23,0,0,1-.72-8.35,14.92,14.92,0,0,0-1.07,3.28c-.73,3.92,1.43,7.43,2.3,11.14s.29,4.65-3.1,5.52-9.23.75-8.85,1.91.75,3.51.08,3.8-.89,0-2.13.08c-2,.18-1.89-4.07-1.89-4.07h0c-.35,1.25-.72,2.73-.9,3.66-.23,1.1-1.59,2.07-1.78,4.08-.14,1.67-.11,2,1.53,3.71,1,1,2.77.71,3-.28,0,0,1.44,1.42,3.06-.39.51.45,2.21,1.27,2.86-.57s.82-3.37-.17-4.47c0,0-.42-.51-.65-.44C53,81.57,52,81.07,52,80.63a7.13,7.13,0,0,0-.34-1.84A.9.9,0,0,1,52.12,77.67Z"/></g><path class="cls-3" d="M45.18,82.06a4.28,4.28,0,0,0-.74,3.3,1.66,1.66,0,0,0,3.3-.24C47.93,82.85,46.58,80.47,45.18,82.06Z"/><path class="cls-3" d="M49,82.78s-.2,3.34.64,3.57,1.55-.53,1.32-2.76S49,81.6,49,82.78Z"/><path class="cls-3" d="M52.29,82.83a4.17,4.17,0,0,1,.12,2.11c-.26,1,.29,1.46.76,1.11a2.06,2.06,0,0,0,.63-2.83C53.25,82.26,52.06,81.84,52.29,82.83Z"/><g class="cls-10"><path class="cls-6" d="M35,72.18c.88,1.53,1.18,2.75.27,3.47s-1.95.19-3-1.45c.27,1.11,1.11,2.1.5,2.25-.88.15-1.53-.69-1.41-2s.46-1.87-.84-2.37-1.68-.57-4.35.88-3.66-.3-3.93-.93c.53,1.78,1.45,2.61,2.55,2.19a26.84,26.84,0,0,0,3.46-1.73,8.27,8.27,0,0,1,2.48.44c.42.09.39.3.3.77s-.29,3.39,1.2,3.46,1.6,0,1.87-.44c.78.14,1.94-.88,2.28-1.46.68.24,1.43-1,1.36-1.87a3.37,3.37,0,0,0-.24-.92C37.63,74.16,36.29,73.88,35,72.18Z"/><path class="cls-6" d="M59,69.22c-1.55-.77-2.81-.87-3.51-1.72a34.53,34.53,0,0,0-5.64-5.11c-2.73-2-3.1-2.18-3.1-3s-.63-.49-.63-.49A4.86,4.86,0,0,0,46.3,58c-1.5.68-1.51,1.24-1.51,1.24l1-.61-.34,1.65.73-.92.2,1.45s2,1.59,3.62,3,1.11,2.76-.15,4.79-2.61,2.76-7.17,1.55-5.52-3-5.52-3,0,1.35-1.26.92-2.08-2.32-2.18-1.74-.34,1.55-1.21.83a25.45,25.45,0,0,0-5.23-2.76c-1.11-.34-1.84.58-2.76,3.39,1.74-4.07,2.47-3,4.07-2.32a15.06,15.06,0,0,1,4.33,3,2.44,2.44,0,0,0,.44-.85,1.81,1.81,0,0,0,1.23,1.56l-.07-.71a14,14,0,0,0,2.07.54l-.24.78s1-.72,1.09-.82a2,2,0,0,0,.31.78l.17-.54s2.72,2.13,8.16,2.58c1.87.06,2.24.11,2.72-.37s3.43-3.77,3.43-3.77,0,.42.11.48,1.1-1.08,1.1-1.08-.11.37,0,.42.68-.65.68-.65,1.47,1.44,1.53,1.84A11.14,11.14,0,0,1,53,70.77a13,13,0,0,0,1.91-1.11C56.51,68.45,57.48,69,59,69.22Z"/></g><g class="cls-10"><path class="cls-6" d="M52.3,86.89c-.87-.19.15-2.28-.63-3.15,0,1.45-.92,3.49-2,3.49s-.72-3.19-1.4-3.44c.24,2.32-.19,4.5-2.47,3.78C43.86,87,43.69,84.68,43.68,84a5.22,5.22,0,0,0-.1.62c-.14,1.67-.11,2,1.53,3.71,1,1,2.77.71,3-.28,0,0,1.44,1.42,3.06-.39.51.45,2.21,1.27,2.86-.57a7.08,7.08,0,0,0,.51-2.83C54.35,85.7,53.11,87.07,52.3,86.89Z"/></g><path class="cls-11" d="M28.36,51.65s-3.67,3.46-2.61,6.57c-1.65-.86-2.33-2.31-.2-4.64S30.1,49.32,28.36,51.65Z"/><path class="cls-11" d="M28.43,66.32a10.78,10.78,0,0,1,3.68,3.24c1.11,1.89.92.19-.44-1.26S28.43,65.49,28.43,66.32Z"/><path class="cls-11" d="M58.86,70.6s-2.47-.14-8.5,3.49c-2.4,2-2.32.58.58-1S57.12,69.08,58.86,70.6Z"/><path class="cls-9" d="M33.14,77.36a5.76,5.76,0,0,0,.6.91c.27.29-.29,0-.64-.5S33,77.18,33.14,77.36Z"/><path class="cls-9" d="M35.4,76.35s.45.43.45.51S35,76.37,35.4,76.35Z"/><path class="cls-9" d="M37.12,75s.34.33.34.39S36.85,75.05,37.12,75Z"/><path class="cls-3" d="M34.9,70.93a2,2,0,0,1,1.85.89c.86,1.16-.21,1.37-.92.82S34.21,71.17,34.9,70.93Z"/><path class="cls-3" d="M34.25,71.93s1.37,1.71,1,2.7-1.79.84-2.52-.69S33,70.78,34.25,71.93Z"/><path class="cls-3" d="M32,73.8a4.1,4.1,0,0,0,.36,1.52c.36.8-.62.76-.76-.22S31.74,73.47,32,73.8Z"/><path class="cls-11" d="M45.5,45.19s1.6-2.54,6,.22c2.83,1.82,4.65,4.36,6,5.81s1,3.27.87,5.3S59,58,59.73,55.42,60,51,57.41,48.82,52,44.75,52.9,44.68s.22-.58-.36-.51-.73-.44-.15-.73-1.89-1.74-3.92-1.24S43.39,46.42,45.5,45.19Z"/><path class="cls-14" d="M52.12,77.67a2,2,0,0,1,1.16-.45c.71,0,7.85-.69,10.09-2.75.44-.48.44-2.55.09-5a23.52,23.52,0,0,0-1.8-6,14.87,14.87,0,0,1-1-6.53c-1,2.32.08,5.73,1.22,8.63s1.89,7.26,1,8.42-5.47,2.13-8,2.42-3.78.53-3.54,1.16c.07.17.15.4.23.65A.89.89,0,0,1,52.12,77.67Z"/><path class="cls-3" d="M25.67,36s-.65.11-.73-.07.14-.76.14-.76a5.47,5.47,0,0,1-2.29-3.74C22.59,29,24,27,25.09,27.14a8.1,8.1,0,0,1,3.52,1.49,6.68,6.68,0,0,0,1.67.91A3.52,3.52,0,0,1,32.83,29a2.16,2.16,0,0,0-.66-.73,4.68,4.68,0,0,1,1.71,1.09c-.15-1,.07-1.2.07-1.2l.62.8s.87-1,1.23-.8-.11,1.05-.11,1.05a4.82,4.82,0,0,1,3,.22c.65.18,1.52-.87,2.07-1.82s2.59-2.8,4.36-2.18c1.34.47,2.43,2.07,2.22,4.43a4.24,4.24,0,0,1-3.67,3.7c.4.25.25.51.25.51l-.62.18.36.47a9.86,9.86,0,0,1,2.11.73,2.13,2.13,0,0,0-.87.25,4.46,4.46,0,0,1,2,.87c-.44,0-.62,0-.62,0a3,3,0,0,1,1.92,2.29,2.47,2.47,0,0,0-1,.33s.36,0,.8.51a8.31,8.31,0,0,0-.87.25,1.86,1.86,0,0,1,.65.65c-1.05-.18-4.65,2.47-7,7.63-.39.92-.58,1.16-1.5,1.43.43.34.51.26.53.43s-.8.24-1.12.17c.58.36.27.39.17.41S37,50.27,37,50.27a2.86,2.86,0,0,1-.28,1c-.18.18-.51-.8-.51-.8a8.64,8.64,0,0,1-1.56.83c-.25,0,.36-1,.36-1a4.65,4.65,0,0,1-2.25.83,1.94,1.94,0,0,0,.58-1.05,7.59,7.59,0,0,1-1.67.58,3.34,3.34,0,0,1,.72-1.23s-1,.11-1.12.4A6.53,6.53,0,0,1,32,49s-.72-.22-1.05,0c.11-.18,0-.55,0-.55s-1.45-2.11-3.41-4.68S23.82,41,23.31,40.94c.47-.76.73-1.09.73-1.09a1.75,1.75,0,0,0-.94.14,2.35,2.35,0,0,1,.51-.94,4.41,4.41,0,0,0-.83.22C23.28,38,24.22,37.23,25.67,36Z"/><path class="cls-4" d="M30.34,30.27s.22-.63.66-.64.34.16.5.14.2.3.18.64-.06,1-.4,1A1,1,0,0,1,30.34,30.27Z"/><path class="cls-4" d="M33.25,30.88s-.28.65,0,.82.66-.56.56-.88S33.35,30.58,33.25,30.88Z"/><path class="cls-4" d="M34.28,29.61s0,.48-.42.48-.32-.43-.08-.55S34.27,29.38,34.28,29.61Z"/><path class="cls-4" d="M35.28,30.8a.37.37,0,0,0-.23.48c.1.38.51.15.51-.15S35.45,30.74,35.28,30.8Z"/><path class="cls-4" d="M36.27,31.25a.45.45,0,0,0,.15.52c.27.17.33-.17.25-.37S36.35,31.06,36.27,31.25Z"/><path class="cls-4" d="M34.43,32.23a1.53,1.53,0,0,0,0,.87c.15.37.5.35.51-.22S34.7,31.69,34.43,32.23Z"/><path class="cls-4" d="M33.12,32.56s0,.53-.25.62-.78-.22-.58-.55S33.1,32.16,33.12,32.56Z"/><path class="cls-4" d="M37.25,30a.65.65,0,0,0,.25.75.72.72,0,0,0,1-.72C38.38,29.61,37.6,29.46,37.25,30Z"/><path class="cls-4" d="M35.67,29.58s-.15.58.15.75.55-.32.55-.65S35.95,29,35.67,29.58Z"/><path class="cls-4" d="M35.92,32.41a1.08,1.08,0,0,0-.13.76c.12.35.55.37.75-.2S36.17,32,35.92,32.41Z"/><path class="cls-4" d="M33,34.08s-.05.49.22.51.33-.29.2-.58S33,33.78,33,34.08Z"/><path class="cls-4" d="M34.7,34.55s-.11.36.09.4.22-.22.16-.32S34.75,34.38,34.7,34.55Z"/><path class="cls-4" d="M34.66,33.78s-.35-.42-.58-.13.13.43.33.42S34.84,33.95,34.66,33.78Z"/><path class="cls-4" d="M36.48,34a.67.67,0,0,0,.07.6c.2.31.38.18.35-.29S36.55,33.66,36.48,34Z"/><path class="cls-4" d="M32,30s-.05.31.16.36S32.08,29.55,32,30Z"/><path class="cls-4" d="M25.69,36.74a.51.51,0,0,0,0,.51c.14.28.34,0,.34-.24S25.83,36.55,25.69,36.74Z"/><path class="cls-4" d="M26.4,37.85a1.3,1.3,0,0,0,0,.48c0,.25.3.2.37-.1S26.53,37.52,26.4,37.85Z"/><path class="cls-4" d="M24.64,38.48a1,1,0,0,0,.23.78c.28.24.75-.11.68-.61S24.82,37.82,24.64,38.48Z"/><path class="cls-4" d="M24.54,37.38s-.37.14-.28.47S25,37.36,24.54,37.38Z"/><path class="cls-4" d="M25.95,40s-.21.48,0,.67.47-.17.45-.48S26.13,39.68,25.95,40Z"/><path class="cls-4" d="M24.51,40.2s-.28.16,0,.53.64.17.5-.21S24.64,40.08,24.51,40.2Z"/><path class="cls-4" d="M26.54,41.71s-.11.26.12.34.37-.1.21-.27S26.53,41.58,26.54,41.71Z"/><path class="cls-4" d="M27,40.08s0,.29.2.29S27.17,39.78,27,40.08Z"/><path class="cls-4" d="M42.45,39s-.12.8.29.8.29-.6.15-.8S42.47,38.82,42.45,39Z"/><path class="cls-4" d="M44.29,38s-.41.41-.15.65.56,0,.53-.39S44.41,37.85,44.29,38Z"/><path class="cls-4" d="M42.64,37.61s-.24.29,0,.34S42.86,37.46,42.64,37.61Z"/><path class="cls-4" d="M44,36s-.17.31.09.43.37-.23.26-.39S44.07,35.83,44,36Z"/><path class="cls-4" d="M44.14,39.37s-.53.31-.47.73.14.25.11.43a.34.34,0,0,0,.5.27.81.81,0,0,0,.39-.86C44.66,39.49,44.42,39.23,44.14,39.37Z"/><path class="cls-4" d="M43,41.67a.62.62,0,0,0-.11.48c0,.32.35.65.67.32s.27-.69,0-.81S43.19,41.46,43,41.67Z"/><path class="cls-4" d="M44.94,42s-.29-.28-.4-.06.12.44.29.33S45,42.06,44.94,42Z"/><path class="cls-4" d="M45.47,40.59s-.1.33,0,.38a.2.2,0,0,0,.26-.2C45.72,40.64,45.6,40.4,45.47,40.59Z"/><path class="cls-4" d="M45.74,38.8s-.39.52.11.66.6-.48.43-.7A.32.32,0,0,0,45.74,38.8Z"/><path class="cls-4" d="M46,37.31s-.11.4.11.42.16-.34.09-.45S46,37.18,46,37.31Z"/><path class="cls-16" d="M48.22,38.94a3,3,0,0,0-1.92-2.29s.18,0,.62,0a4.46,4.46,0,0,0-2-.87,2.13,2.13,0,0,1,.87-.25,9.86,9.86,0,0,0-2.11-.73l-.36-.47.62-.18s.15-.26-.25-.51A4.34,4.34,0,0,0,47.09,31c-1.56,2.45-4.14,1.26-2.89.45,2-1.21,2.67-4.43,1.36-5.08s-2.16-.1-3.17,1-1.86,1.16-.4-.61a4.76,4.76,0,0,1,1.71-1.26,5.46,5.46,0,0,0-2.92,2.21c-.54.94-1.42,2-2.07,1.82a4.82,4.82,0,0,0-3-.22s.47-.87.11-1.05a.25.25,0,0,0-.11,0,1.43,1.43,0,0,1-.21,1.11c1.78.11,4.76.36,6.17,3.34.65,1.45.72,4.21-.84,3.81a14.41,14.41,0,0,1,2.51,1.45A2.8,2.8,0,0,1,46,37.31c-1.54.25-1.69.71-1.69.71a2,2,0,0,1,1.86.7c-.47-.07-1.89.84-1.89.84a7.59,7.59,0,0,1-1.2,2.87c-.8.87-1.89-.55-2.14-1.24-.76-2.07-1.42-3.41-1-4.25s-.65-.44-1.27.11-.62.76-.08,1.67,1.67,3.05-.22,2-4.87-.65-6.21-.07-1.09-.18,0-1.67c.72-1,1.2-1.38,0-1.85-1.66-.63-1.78-.44-.87.29s-.11,1.56-.84,2.87S28.9,44,27.64,42.43s-1.05-2.58-1.05-2.58a8.06,8.06,0,0,0-1.6.29c.29-.73,1.71-1.12,1.71-1.12s-1.05-.76-1.74-.33c.07-.25,1.45-1.31,2.29-.51a4.71,4.71,0,0,1,2.29-1.6c-1.24.43-2.11.14-2-1C28.54,29.9,31.7,29,31.7,29h0a3.32,3.32,0,0,0-1.41.52,6.68,6.68,0,0,1-1.67-.91c-.4-.25-.76-.47-1.1-.66a3.51,3.51,0,0,1,1,1.39c.45,1.46-1.16-.46-1.86-1.06s-2.11-1.46-3,.3.5,3.82,2.67,4.78c.8.45.3,1.16.2,1.71s-1.31-.55-2.26-1.16a9.31,9.31,0,0,1-.81-.54,5.89,5.89,0,0,0,1.63,1.76s-.22.58-.14.76.73.07.73.07c-1.45,1.24-2.4,2-2.9,3.27a4.41,4.41,0,0,1,.83-.22,2.35,2.35,0,0,0-.51.94,1.75,1.75,0,0,1,.94-.14s-.25.33-.73,1.09c.51,0,2.29.44,4.14,2.91s3.41,4.68,3.41,4.68.15.36,0,.55c.33-.26,1.05,0,1.05,0a6.31,6.31,0,0,0-.62.78c.23-.25,1.09-.35,1.09-.35a3.34,3.34,0,0,0-.72,1.23,7.59,7.59,0,0,0,1.67-.58,1.94,1.94,0,0,1-.58,1.05A4.65,4.65,0,0,0,35,50.34s-.62,1-.36,1a8.64,8.64,0,0,0,1.56-.83s.33,1,.51.8a2.86,2.86,0,0,0,.28-1s1.74.51,1.84.49.41,0-.17-.41c.31.07,1.14,0,1.12-.17s-.1-.1-.53-.43c.92-.27,1.11-.51,1.5-1.43,2.4-5.16,6-7.81,7-7.63a1.86,1.86,0,0,0-.65-.65,8.31,8.31,0,0,1,.87-.25c-.44-.54-.8-.51-.8-.51A2.47,2.47,0,0,1,48.22,38.94Z"/><path class="cls-17" d="M29,36.8a25.1,25.1,0,0,1,12.89.08,5.59,5.59,0,0,0-2.12-.79s.27-1.93-.63-1.89-.55,1.69-.55,1.69a25.47,25.47,0,0,0-7.16.12c.2-1.42-.2-1.69-.55-1.65s-.83.7-.47,1.73A4.27,4.27,0,0,0,29,36.8Z"/><path class="cls-9" d="M34.86,41.55c-4.08.15-5.71,2.56-6.28,3.8,1.36,1.84,2.28,3.18,2.28,3.18s.15.36,0,.55c.33-.26,1.05,0,1.05,0a6.31,6.31,0,0,0-.62.78c.23-.25,1.09-.35,1.09-.35a3.34,3.34,0,0,0-.72,1.23,7.59,7.59,0,0,0,1.67-.58,1.94,1.94,0,0,1-.58,1.05A4.65,4.65,0,0,0,35,50.34s-.62,1-.36,1a8.64,8.64,0,0,0,1.56-.83s.33,1,.51.8a2.86,2.86,0,0,0,.28-1s1.74.51,1.84.49.41,0-.17-.41c.31.07,1.14,0,1.12-.17s-.1-.1-.53-.43c.92-.27,1.11-.51,1.5-1.43a21.56,21.56,0,0,1,1.68-3C41.35,42.85,38.76,41.47,34.86,41.55Z"/><path class="cls-3" d="M31.3,49.87l0-.05Z"/><path d="M31.23,35.44c0,.46-.17.82-.36.81s-.34-.38-.33-.84.17-.82.35-.81S31.24,35,31.23,35.44Z"/><ellipse class="cls-18" cx="30.98" cy="35.18" rx="0.15" ry="0.32" transform="matrix(1, -0.04, 0.04, 1, -1.24, 1.13)"/><path d="M39.5,35.26c0,.46-.17.82-.36.81s-.34-.39-.33-.84.17-.82.36-.81S39.5,34.8,39.5,35.26Z"/><ellipse class="cls-18" cx="39.25" cy="35" rx="0.15" ry="0.32" transform="translate(-1.14 1.33) rotate(-1.91)"/><path class="cls-17" d="M30.56,36.81s.53.6.8.87.31.36-.24,1.33-1.62,2.78-1.65,3.7a10.31,10.31,0,0,0,1,3,5.36,5.36,0,0,1,.17-5c1.52-2.53,1.78-2.88,1.52-3.14S30.58,36.51,30.56,36.81Z"/><path class="cls-17" d="M40,36.72a2.2,2.2,0,0,0-.2,2.36A47.5,47.5,0,0,1,41.37,44c-.07.2-1.46-3.86-1.88-4.7s-1-1.26-.81-1.75S40.3,36,40,36.72Z"/><path class="cls-19" d="M23.86,28.92s.57-1.22,1.25-1.11,3.06,2.11,3.15,3.12c-1,.3-1.14.73-1.14.73l.65.24s-1.07.51-.69,1.22c0,0-.28.09-1.77-.89S23.37,30.27,23.86,28.92Z"/><path class="cls-19" d="M45.36,26.81a1.72,1.72,0,0,0-1.31-.4,6.79,6.79,0,0,0-2.42,2.33c-.46.92.33,1,.67,1.32s-.25.61-.25.61a2.43,2.43,0,0,1,.43.4s-.46,0-.37.64C42.24,32.08,46.59,30.52,45.36,26.81Z"/><path class="cls-20" d="M23.9,28.85a2.58,2.58,0,0,1,.4-.68,1.61,1.61,0,0,1,.29-.27.92.92,0,0,1,.39-.14h.11l.1,0,.19,0a2,2,0,0,1,.38.16,2.74,2.74,0,0,1,.33.22l.3.26.29.27L27,29l.28.28.27.28.26.3a3.43,3.43,0,0,1,.24.32,1.2,1.2,0,0,1,.1.17.9.9,0,0,1,.09.19,1.29,1.29,0,0,1,.09.4v0h0a3,3,0,0,0-.65.24,1.64,1.64,0,0,0-.29.19.61.61,0,0,0-.12.12l0,.07a.47.47,0,0,0,0,.07l0,0h.09l.09,0,.09,0,.08,0,.08,0,.08,0,.14.1-.15-.09-.08,0-.08,0-.08,0-.08,0h-.2v0a.47.47,0,0,1,0-.09l0-.08a.84.84,0,0,1,.12-.14,1.73,1.73,0,0,1,.29-.21,3.23,3.23,0,0,1,.66-.27l0,.06a1.2,1.2,0,0,0-.09-.36A1.27,1.27,0,0,0,28,30.4a1.64,1.64,0,0,0-.1-.16c-.07-.11-.15-.2-.23-.3l-.26-.29-.55-.55-.28-.28-.28-.27L26,28.29a3,3,0,0,0-.32-.22,1.77,1.77,0,0,0-.34-.16l-.19,0H25a.78.78,0,0,0-.35.11,1.56,1.56,0,0,0-.3.24A2.92,2.92,0,0,0,23.9,28.85Z"/><path class="cls-20" d="M45.36,26.81a1.81,1.81,0,0,0-.28-.2l-.16-.08-.16-.06-.17,0-.17,0h-.17l-.16,0-.16.06a1,1,0,0,0-.15.07l-.15.09-.14.1-.13.11-.12.12-.22.26h0l-.47.51-.47.5-.22.26a2.33,2.33,0,0,0-.19.28,1.22,1.22,0,0,0-.07.15.89.89,0,0,0,0,.15.65.65,0,0,0,0,.16.59.59,0,0,0,0,.15h0a1.3,1.3,0,0,0,.33.29,3.7,3.7,0,0,1,.38.27l.08.09a.25.25,0,0,1,0,.12.31.31,0,0,1,0,.12.36.36,0,0,1,0,.11.68.68,0,0,1-.06.1l-.08.09a.51.51,0,0,1-.09.07l-.1.06.09-.07.08-.08.07-.09a.54.54,0,0,0,0-.1.36.36,0,0,0,0-.1.31.31,0,0,0,0-.11.17.17,0,0,0,0-.09L42.26,30a3.74,3.74,0,0,0-.38-.25,1.34,1.34,0,0,1-.37-.3h0a.79.79,0,0,1-.05-.36,1,1,0,0,1,0-.18,1.69,1.69,0,0,1,.07-.16,2.61,2.61,0,0,1,.19-.3l.22-.27c.3-.35.63-.67.94-1h0l.23-.27.13-.12.14-.12.15-.1a.81.81,0,0,1,.16-.09,1,1,0,0,1,.17-.07l.18-.05.18,0h.18l.18,0,.17.06.16.07.15.09A1.44,1.44,0,0,1,45.36,26.81Z"/><g class="cls-5"><path class="cls-19" d="M28.25,30.93c-.08-1-2.47-3-3.15-3.12-.52-.09-1,.61-1.16.94l.08-.09s1.11-1.11,2.76,1.21c.66,1.33-1.62,3-3,.62a3.4,3.4,0,0,0,1.55,1.75c1.5,1,1.77.89,1.77.89-.38-.71.69-1.22.69-1.22l-.65-.24S27.25,31.23,28.25,30.93Z"/></g><path class="cls-21" d="M43,28c1-1.33,1.91-1.29,2.33-1.16v0a1.72,1.72,0,0,0-1.31-.4,6.79,6.79,0,0,0-2.42,2.33c-.46.92.33,1,.67,1.32s-.25.61-.25.61a2.43,2.43,0,0,1,.43.4s-.46,0-.37.64c.08.25,2.17-.41,3.06-2.05C43.75,31.22,41.9,29.48,43,28Z"/><path class="cls-22" d="M29.92,33.28a1,1,0,0,1,1.64-.16c-.36-.73-.86-1.15-1.08-.88A7.55,7.55,0,0,0,29.92,33.28Z"/><path class="cls-23" d="M29.89,33.08a1,1,0,0,1,1.64-.16c-.36-.73-.86-1.15-1.07-.88A7.11,7.11,0,0,0,29.89,33.08Z"/><path class="cls-22" d="M38,33a1.32,1.32,0,0,1,2-.16c-.44-.73-1-1.15-1.28-.88A7,7,0,0,0,38,33Z"/><path class="cls-23" d="M37.94,32.75a1.32,1.32,0,0,1,2-.16c-.43-.73-1-1.15-1.28-.87A6.91,6.91,0,0,0,37.94,32.75Z"/><g class="cls-10"><path class="cls-24" d="M41.24,43.57c-.18,3-3,4.43-3.91,3.87s-1.71-1.52-.87-1.71a5.63,5.63,0,0,0,3.4-3.17,10.05,10.05,0,0,0-5-1A7.54,7.54,0,0,0,30.52,43c.45.64,1.79,2.34,3.47,2.66.73.11,0,1.56-.69,1.89s-2.77-1-3.43-4a6.34,6.34,0,0,0-1.29,1.84c1.11,1.49,1.92,2.65,2.19,3a1.15,1.15,0,0,1,.28-.48c.33-.22,1.49,1.82,2.61.94s1.49-1.12,3-.47,2.29,1.31,1.2,1.27c.65.4.29.69-.69.29-.73-.3-.19.55-.33,1.24a4,4,0,0,0,.21-.92s1.74.51,1.84.49.41,0-.17-.41c.31.07,1.14,0,1.12-.17s-.1-.1-.53-.43c.92-.27,1.11-.51,1.5-1.43a21.56,21.56,0,0,1,1.68-3A5.73,5.73,0,0,0,41.24,43.57Z"/></g><path class="cls-25" d="M30.23,45.25a11.37,11.37,0,0,0,2.19,3c.79.35,1.95-.68,2.25-1.16A3.6,3.6,0,0,0,35,45.33c.18,1,0,1.34,1.14,2s2.21,1.29,3,.61,2.21-2.32,2.27-3.89a3.62,3.62,0,0,1-.59,2.16c-.72,1.2-1.55,2.12-2.08,2.23a5.05,5.05,0,0,1-2.93-1.11c-.59-.46-.85-.17-1.11.13a3.47,3.47,0,0,1-1.95,1C32.09,48.48,30.64,46.62,30.23,45.25Z"/><path d="M32,46l-.26.09-.68.27-.45.2-.49.24-.52.27-.52.3-.51.31-.49.32-.44.32c-.14.1-.27.2-.39.29l-.33.25-.24.2-.21.18.19-.2.23-.22.31-.28c.12-.1.24-.21.38-.31s.28-.23.43-.34.31-.23.48-.33.33-.22.51-.32.35-.21.53-.3l.53-.26c.17-.09.34-.15.5-.22L31,46.3l.39-.13.31-.09Z"/><path d="M32.83,46.42l-.19.07-.22.08-.28.11-.34.12-.37.14-.81.32-.41.16-.39.17-.7.29-.5.19-.19.07.18-.1.48-.24.69-.33.39-.18.41-.16.82-.3.38-.13.35-.1.52-.13Z"/><path d="M32.38,47.25l-.17.14-.45.34-.64.47-.75.53-.76.52-.67.44-.48.3-.18.11.17-.13.45-.35.64-.47.75-.53L31,48.1l.67-.44.48-.3Z"/><path d="M32.88,47.25l-.15.16-.4.4-.57.56-.67.63-.68.61-.6.52-.44.37-.16.13.15-.16.4-.4.57-.56.67-.63.68-.61.61-.52.43-.36Z"/><path d="M37.56,47.23l.22.07.56.2.79.3.9.38.88.41c.28.13.53.28.75.39l.16.08.14.09.22.14.19.13-.2-.1-.23-.12-.3-.14-.36-.17-.41-.18-.43-.19-.45-.2-.89-.39-.77-.35Z"/><path d="M38,46.82l.21,0,.55.12.77.19c.28.07.58.17.88.25l.44.14.43.14L42,48l.52.21.19.09-.21-.06L42,48.06l-.75-.25-.43-.13-.44-.13-.44-.14-.43-.13-.76-.23-.54-.17Z"/><path d="M38.69,46.42h.24l.63,0h1.91l1,0,.89,0,.63,0,.24,0H44l-.63,0H41.47l-1,0-.89,0-.63,0Z"/><path d="M38.44,45.79h.28l.75,0c.31,0,.67,0,1,.08l.59.07.61.09.6.12.58.14c.19,0,.36.11.53.16s.32.12.47.17a3.69,3.69,0,0,1,.38.18l.15.08.13.08.24.16L44.55,47,44.42,47l-.16-.07-.39-.15c-.15,0-.3-.11-.47-.15l-.53-.14-.57-.13-.3-.06-.3-.05-.6-.1L40.5,46l-1-.13-.74-.08Z"/><path class="cls-23" d="M31.77,41.43A8.41,8.41,0,0,1,33.41,41a9.83,9.83,0,0,1,3.56,0c2,.33,3.63,1.08,1.58,2.88-1.76,1.46-2.48,2-3.92,1.64-1.1-.26-4.5-2-3.78-3.29A1.86,1.86,0,0,1,31.77,41.43Z"/><path class="cls-26" d="M36.48,45.29A1.72,1.72,0,0,1,37.11,44c.65-.43.76-1-.13-.76s-1.13.64-.92,1.16S36.48,45.29,36.48,45.29Z"/><path class="cls-26" d="M33.66,45.08a1.64,1.64,0,0,0-.92-1c-.67-.23-.5-.52,0-.46s.92.9,1.06,1.49Z"/><g class="cls-5"><path class="cls-23" d="M37.39,41c.95.25,2,.63,1.87,1-.3.63-2.64.73-3.2,1.34a1.73,1.73,0,0,1-2.38.19c-.82-.64-1.13-.34-2.37-.72-.39-.12-.52-.32-.51-.54-.47,1.29,2.77,2.92,3.83,3.17,1.44.35,2.16-.19,3.92-1.64C40.46,42.12,39.17,41.35,37.39,41Z"/></g><path class="cls-27" d="M38.23,41.6c0,.07-.21.08-.42,0s-.35-.17-.32-.25.22-.08.42,0S38.26,41.53,38.23,41.6Z"/><path class="cls-27" d="M31.68,41.73a11.45,11.45,0,0,1,5.2-.33C37.78,41.6,35.67,40.24,31.68,41.73Z"/><path class="cls-18" d="M31.82,36a23.75,23.75,0,0,1,6.6-.07A12.44,12.44,0,0,0,31.82,36Z"/><path class="cls-3" d="M31.3,49.87l0-.05Z"/><path class="cls-11" d="M32.88,40.25s.19-4.2,2.24-4.25,2.19,4.25,2.19,4.25S35.86,39.55,32.88,40.25Z"/><path class="cls-11" d="M29.89,30.83a7,7,0,0,0-1.4,5.32C27.6,34.93,28.12,32.27,29.89,30.83Z"/></g></g></g></svg>