<svg xmlns="http://www.w3.org/2000/svg" viewBox="0 0 100 100"><defs><style>.cls-1{isolation:isolate;}.cls-2{fill:#e5cab7;}.cls-3,.cls-6,.cls-7{fill:#d36d22;}.cls-13,.cls-4,.cls-6{opacity:0.5;}.cls-13,.cls-18,.cls-28,.cls-4,.cls-5,.cls-6,.cls-9{mix-blend-mode:multiply;}.cls-14,.cls-26,.cls-29,.cls-7{mix-blend-mode:screen;}.cls-8{fill:#dc7a1f;}.cls-15,.cls-9{fill:#e5880c;}.cls-10,.cls-13,.cls-14{fill:#fba31d;}.cls-11{fill:#ce7b0d;}.cls-12{fill:#a55d07;}.cls-16,.cls-29{fill:#eb8c3c;}.cls-17{fill:#fcedd8;}.cls-18,.cls-19{fill:#fadbbf;}.cls-20,.cls-26{fill:#eb383b;}.cls-21,.cls-28{fill:#d32932;}.cls-22{fill:#fff;}.cls-23{fill:#bf7008;}.cls-24{fill:#e2ad6d;}.cls-25{fill:#ce6719;}.cls-27{fill:#eabc96;}.cls-30{fill:none;}</style></defs><title>chicken</title><g class="cls-1"><g id="Layer_2" data-name="Layer 2"><g id="Layer_1-2" data-name="Layer 1"><rect class="cls-2" width="100" height="100"/><path class="cls-3" d="M57.05,41.55s1.5-8.37,5.75-11.83C66.53,27,82.09,23,86,20.37c.42-.24-.32,2.86-3.6,5,2.8-.68,6.26-.47,6.52.44s-1.8,2.42-1.8,2.42,3.28.32,3.39,1.47-5.31,3.45-5.31,3.45,1.71.47,1.83.8S85.54,35,85.54,35,89,35.83,89,38.22c0,.56-1.36,1.89-4,3,1.92.24,2.8,1.06,3,1.45s-2.6,2.45-5.37,3c0,0,1.68.74,1.83,1.21s-1.71,1-1.71,1,2.72,1.68,2.66,3.22c-.06.53-3.69,2.54-6.55,1.89,2,1.18,2,1.42,2,1.6s-1.68,1.18-4.1.59c1.77,2.33,1.29,4.22,1.21,4.42s-2.38-.84-2.78-1.27c.46,1.85.18,4.83-.45,5.34a4.34,4.34,0,0,1-2-1.72s-.58,4.4-3,4.76c-.51.05-1.14-2.61-1.14-2.61s-.78,2.48-2.38,3c-.4.13-.3-2.25-.3-2.25s-1.67,4.15-3.29,4.5c-.4.07-1.75-3.26-1.34-6.12S67.45,55.41,57.05,41.55Z"/><g class="cls-4"><path class="cls-3" d="M68.51,36.27c3.43-1.63,1.81-2,.76-2,4.44-1.57,10.2-5.49,5.23-5.62C80.15,26.12,84.68,23,86,20.37h0c.42-.24-.32,2.86-3.6,5,2.8-.68,6.26-.47,6.52.44s-1.8,2.42-1.8,2.42,3.28.32,3.39,1.47-5.31,3.45-5.31,3.45,1.71.47,1.83.8S85.54,35,85.54,35,89,35.83,89,38.22c0,.56-1.36,1.89-4,3,1.92.24,2.8,1.06,3,1.45s-2.6,2.45-5.37,3c0,0,1.68.74,1.83,1.21s-1.71,1-1.71,1,2.72,1.68,2.66,3.22c-.06.53-3.69,2.54-6.55,1.89,2,1.18,2,1.42,2,1.6s-1.68,1.18-4.1.59c1.77,2.33,1.29,4.22,1.21,4.42s-2.38-.84-2.78-1.27c.46,1.85.18,4.83-.45,5.34a4.34,4.34,0,0,1-2-1.72s-.58,4.4-3,4.76c-.51.05-1.14-2.61-1.14-2.61s-.78,2.48-2.38,3c-.4.13-.3-2.25-.3-2.25s-1.67,4.15-3.29,4.5c-.4.07-1.75-3.26-1.34-6.12s6.23-7.82-4.17-21.68c0,0,1.5-8.37,5.75-11.83a10.64,10.64,0,0,1,1.5-.88s-4.81,4.45-3.5,8.09C61.7,38.91,65.47,37.72,68.51,36.27Z"/></g><g class="cls-5"><path class="cls-3" d="M63.65,39.82l.43-.1c.27-.05.66-.14,1.14-.2.24,0,.5-.07.77-.09a5.3,5.3,0,0,1,.88,0,1.41,1.41,0,0,1,.48.12.38.38,0,0,1,.22.26v.06s0,.05,0,.08a.4.4,0,0,1,0,.07l0,.07a2.68,2.68,0,0,1-.54.84,7.44,7.44,0,0,1-.69.68c-.24.21-.49.4-.73.57a10.19,10.19,0,0,1-1.41.85c-.21.11-.42.2-.6.27l-.47.18-.31.1-.11,0,.1,0,.3-.13c.25-.11.61-.3,1-.53a13.66,13.66,0,0,0,1.34-.9c.24-.18.47-.38.7-.58a7.52,7.52,0,0,0,.66-.66A2.56,2.56,0,0,0,67.3,40v-.09s0,0,0,0v-.06h0l0,0,0,0,0,0a1.23,1.23,0,0,0-.39-.1,6.15,6.15,0,0,0-.84,0l-.77,0-1.15.1Z"/><path class="cls-3" d="M69.76,39.26l.25,0c.16,0,.39,0,.67,0l.45,0a2.53,2.53,0,0,1,.51.09.73.73,0,0,1,.28.14l.07.08,0,.05v0a.39.39,0,0,1,0,.1.48.48,0,0,1,0,.09,1.44,1.44,0,0,1-.31.51,3.25,3.25,0,0,1-.42.39,3.8,3.8,0,0,1-.46.3,4.1,4.1,0,0,1-.88.38,3.59,3.59,0,0,1-.66.13l-.19,0H69l.24-.07a6.13,6.13,0,0,0,.62-.22,5.74,5.74,0,0,0,.82-.43c.14-.09.28-.2.42-.3a3.37,3.37,0,0,0,.38-.36,1.25,1.25,0,0,0,.27-.41v0a.19.19,0,0,0,0,0v0h0l0,0a.56.56,0,0,0-.18-.1,3.05,3.05,0,0,0-.46-.11l-.44-.06L70,39.29Z"/><path class="cls-3" d="M76.5,38h.23L77,38a.81.81,0,0,1,.34.12.34.34,0,0,1,.08.09l0,.07h0v0h0v.1l0,.05-.07.09a2.3,2.3,0,0,1-.33.33,4.14,4.14,0,0,1-.39.29l-.43.26-.45.22-.45.18a4.84,4.84,0,0,1-.83.21l-.34,0h-.49l.22,0L74.1,40l.32-.09.37-.12.41-.16.43-.19.43-.22.41-.24c.13-.09.27-.17.38-.26a3.09,3.09,0,0,0,.32-.27c.1-.11.15-.14.06-.22a.78.78,0,0,0-.27-.14L76.72,38Z"/><path class="cls-3" d="M75.56,34.2a4.46,4.46,0,0,1,.56-.1l.57,0h.57l.29,0,.29,0,.28.06.28.07.14,0,.14.05.27.11.26.13a2.62,2.62,0,0,1,.25.15,1.7,1.7,0,0,1,.24.17l.23.19h0a.25.25,0,0,1,0,.22.68.68,0,0,1-.06.13,1.4,1.4,0,0,1-.15.19,4.3,4.3,0,0,1-.33.3,8.17,8.17,0,0,1-.71.51c-.24.16-.5.31-.75.45a7.75,7.75,0,0,1-.79.38l.73-.47.7-.51c.23-.17.46-.35.67-.54a3.54,3.54,0,0,0,.3-.29,1.19,1.19,0,0,0,.12-.15l0,0v0s0,0,0,0l0,0-.21-.17a1.59,1.59,0,0,0-.22-.16c-.08,0-.15-.11-.23-.15l-.24-.13-.25-.1-.13-.05-.13,0-.26-.08-.27-.06-.27-.05-.28,0-.28,0-.28,0h-.56Z"/><path class="cls-3" d="M80.2,38.85a2,2,0,0,1,.43,0l.21,0,.23.07a1.21,1.21,0,0,1,.24.11.6.6,0,0,1,.22.22v0h0v0a.28.28,0,0,1,0,.13.35.35,0,0,1-.1.17.82.82,0,0,1-.24.15,1.87,1.87,0,0,1-.44.13,2,2,0,0,1-.43,0l.39-.18a3.85,3.85,0,0,0,.37-.19.62.62,0,0,0,.16-.13.1.1,0,0,0,0-.05h0a.39.39,0,0,0-.13-.13L81,39.18l-.2-.09L80.6,39Z"/><path class="cls-3" d="M77.57,42.18l.3.07a6.07,6.07,0,0,1,.76.25,4.56,4.56,0,0,1,.49.22l.26.14.26.17a2.62,2.62,0,0,1,.25.21l.12.12.11.13.05.07,0,.07,0,.08,0,0v0h0v0h0v0a.32.32,0,0,1,0,.09.24.24,0,0,1,0,.07l0,.06-.06.09-.07.08a2.31,2.31,0,0,1-.58.38,5.64,5.64,0,0,1-.6.24,7,7,0,0,1-1.1.29,4.48,4.48,0,0,1-.8.08h-.3l.3,0a6.65,6.65,0,0,0,.77-.17,11.1,11.1,0,0,0,1.06-.36c.19-.07.38-.16.57-.25A2.17,2.17,0,0,0,80,44L80,44l0,0v0h0a.22.22,0,0,0,0,0L80,43.77l0-.06,0-.06a2.5,2.5,0,0,0-.43-.43,5.57,5.57,0,0,0-.48-.33l-.46-.25c-.29-.15-.54-.26-.72-.34Z"/><path class="cls-3" d="M70.83,45.43l.16.23c.1.15.23.37.37.65s.14.29.21.46a2,2,0,0,1,.15.56.65.65,0,0,1,0,.17.42.42,0,0,1,0,.1v0h0l0,0-.06,0-.05,0-.09,0h-.17a3,3,0,0,1-.63-.1c-.2-.05-.4-.11-.59-.18s-.38-.14-.55-.22a9,9,0,0,1-1-.46,6,6,0,0,1-.63-.4l-.16-.13-.06,0,.25.13.67.31c.28.12.61.25,1,.39l.55.19.58.17a2.91,2.91,0,0,0,.57.1h.23v0h0l0,0a.53.53,0,0,0,0-.12,2.23,2.23,0,0,0-.11-.51c-.05-.16-.11-.32-.16-.46s-.21-.52-.28-.68Z"/><path class="cls-3" d="M73,48.58h.19a3.12,3.12,0,0,1,.5.07,2.64,2.64,0,0,1,.69.25,1.76,1.76,0,0,1,.35.25,1.48,1.48,0,0,1,.28.35,1.32,1.32,0,0,1,.14.43V50a.15.15,0,0,1,0,0v0a.19.19,0,0,1,0,0v0a.36.36,0,0,1,0,.08.41.41,0,0,1-.19.2,1.06,1.06,0,0,1-.4.11,2.39,2.39,0,0,1-.35,0,3.51,3.51,0,0,1-.51-.06l-.19,0h.19l.5,0,.32-.05a1.09,1.09,0,0,0,.31-.11.18.18,0,0,0,.08-.09v0h0V50a1,1,0,0,0-.12-.34,1.23,1.23,0,0,0-.23-.29,2,2,0,0,0-.29-.23,3.51,3.51,0,0,0-.61-.31l-.47-.16Z"/><path class="cls-3" d="M70.58,52a3.13,3.13,0,0,1,.35.57l.07.15.06.16a3.4,3.4,0,0,1,.1.32c0,.05,0,.11,0,.17a1.57,1.57,0,0,1,0,.17,1.29,1.29,0,0,1,0,.17v.17l0,.18a1.12,1.12,0,0,1,0,.18.94.94,0,0,1,0,.17l-.07.17h0a.2.2,0,0,1-.08.08l-.05,0h-.11l-.05,0a.85.85,0,0,1-.15-.09,2.25,2.25,0,0,1-.24-.21c-.15-.15-.29-.3-.42-.45s-.26-.32-.38-.48-.24-.33-.35-.51l.44.42.44.43c.15.14.29.28.44.41l.23.18.11.06h0s0,0,0,0h0l.05-.14a1.83,1.83,0,0,0,.08-.3l0-.15v-.16a1.33,1.33,0,0,0,0-.16,1.35,1.35,0,0,0,0-.16c0-.05,0-.11,0-.16l0-.16c0-.05,0-.1,0-.16s0-.1,0-.16l0-.16A5.9,5.9,0,0,0,70.58,52Z"/><path class="cls-3" d="M69.28,54.08a7.87,7.87,0,0,1,.07.87c0,.13,0,.27,0,.42s0,.31,0,.48,0,.17,0,.26a.78.78,0,0,1-.1.28l0,0h0l0,0h0l-.08,0H69a.48.48,0,0,1-.16-.06,1.46,1.46,0,0,1-.24-.16,4,4,0,0,1-.38-.37,4.7,4.7,0,0,1-.32-.4,4.25,4.25,0,0,1-.46-.78,2.37,2.37,0,0,1-.19-.61,1.33,1.33,0,0,1,0-.18v-.06l0,.06a1.38,1.38,0,0,0,.05.17,3,3,0,0,0,.27.56,5.84,5.84,0,0,0,.51.71c.1.12.21.25.32.37a3.75,3.75,0,0,0,.36.34l.19.14.08,0h0a.77.77,0,0,0,.07-.19c0-.08,0-.15,0-.23,0-.31.07-.62.1-.87C69.24,54.42,69.28,54.08,69.28,54.08Z"/><path class="cls-3" d="M66.57,57.74a5.73,5.73,0,0,1-.35.64l-.2.29c-.07.1-.15.21-.24.32l-.14.16-.15.16a1.46,1.46,0,0,1-.39.28l-.06,0H65a.3.3,0,0,1-.2,0,.3.3,0,0,1-.07-.06l0-.07a.61.61,0,0,1,0-.13,1.44,1.44,0,0,1,0-.45,3.87,3.87,0,0,1,.2-.73,3.42,3.42,0,0,1,.22-.48l.08-.13,0,0a1.8,1.8,0,0,0-.06.19c0,.12-.08.3-.13.5a6.58,6.58,0,0,0-.12.72,1.52,1.52,0,0,0,0,.38c0,.05,0,.1,0,.1H65l0,0a1.2,1.2,0,0,0,.32-.22l.29-.28.26-.28.23-.26Z"/><path class="cls-3" d="M63.74,43.84a2.28,2.28,0,0,1,.47-.05h.23a1.49,1.49,0,0,1,.26,0A.78.78,0,0,1,65,44l0,0,0,0h0v0h0v0a.22.22,0,0,1,0,.05.19.19,0,0,1,0,.09.38.38,0,0,1-.13.16,1.41,1.41,0,0,1-.26.16l-.25.11a4,4,0,0,1-.46.15,3.11,3.11,0,0,1-.47.09s.16-.1.41-.23l.42-.22.23-.12.21-.14,0-.05s0,0,0,0v0h0v0h0a.66.66,0,0,0-.19-.1L64.41,44l-.22-.05Z"/></g><path class="cls-3" d="M79.44,45.31h0Z"/><path class="cls-6" d="M79.44,45.31a2.22,2.22,0,0,1,2.28,1.1c.63,1.36-6,1.81-2.62,1.9s5.06,2.35,2.26,2.89-7.51-1.81-5.61.54.54,3.71-2.08,1.9c.18,6.33-2.35,6.15-3.16,2.44-.54,5.34-3.8,7.05-2.89,5.06s1.08-7.41.18-5.24-3,3.25-2,.45C66.88,52.1,64.44,47,65.53,46s2-1.81-.53-2.08c1.74-1,3.24-4.16,1.31-2.34s-4.13,2.07-6.12-1.09a6.9,6.9,0,0,1,.09-7.69l0,0a29.85,29.85,0,0,0-3.2,8.76c10.39,13.86,4.57,18.82,4.17,21.68s.94,6.2,1.34,6.12c1.62-.35,3.29-4.5,3.29-4.5s-.1,2.38.3,2.25c1.6-.56,2.38-3,2.38-3s.63,2.66,1.14,2.61c2.38-.35,3-4.76,3-4.76a4.34,4.34,0,0,0,2,1.72c.63-.51.91-3.49.45-5.34.4.43,2.71,1.47,2.78,1.27s.56-2.09-1.21-4.42c2.42.59,4-.41,4.1-.59s0-.41-2-1.6c2.86.65,6.49-1.36,6.55-1.89.06-1.54-2.66-3.22-2.66-3.22s1.8-.68,1.71-1-1.83-1.21-1.83-1.21c2.78-.5,5.52-2.57,5.37-3a1,1,0,0,0-.17-.27C85.92,44.45,80.15,45.22,79.44,45.31Z"/><path class="cls-7" d="M69.24,27.75s10.7-4.51,13.1-5.17S70.11,28.84,69.24,27.75Z"/><path class="cls-7" d="M67.05,29.11a8.46,8.46,0,0,0-3.92,3.84c-1,2.53-1.74-.35.26-2.35S69.41,28.06,67.05,29.11Z"/><path class="cls-3" d="M39.86,77s.49,6.4,3.82,5.82c1,1.7,3.79,2.84,3.89-.72,1,1.76,2.81,3.46,2.91-1,1.27,1.18,2.52.59,2.58-.43,1.5,2.06,2.06,1.6,2.09-1.14,0,0,2.71,2.16,3.69,1.9.59-.26.39-1.47.39-1.47s.78.62,1.34.39.36-2.65.36-2.65.33.55.65.52,1.86-3.6-4.57-9.22a34.33,34.33,0,0,0-4.74,6.6C51.79,76.45,39.86,77,39.86,77Z"/><g class="cls-4"><path class="cls-3" d="M61.22,76.18c-.49.44-1.62-1.57-1.62-1.57s1.13,3.14.59,3.77-1.62-1.22-1.62-1.22.25,2.45-.69,2.79-3.38-2.35-3.38-2.35.49,1.52-.15,1.76-2-2.45-.64-4.36a2.42,2.42,0,0,1,3.19-.88s-.83-2.21-.34-2.8,1.32.74,1.32.74-.54-1.91.54-1.67h0c-.42-.43-.9-.88-1.42-1.34a34.33,34.33,0,0,0-4.74,6.6C51.79,76.45,39.86,77,39.86,77a13.46,13.46,0,0,0,.81,3.52c0-.45-.22-2.49.7-2.71s1.47,2.4,1.47,2.4.44-2.3,1.72-2.5,2.3,2.4,2.3,2.4,0-2.11.88-2,1.81,2.35,1.76,4.22-2.25-1.17-2.25-1.17-.1,2.2-1.42,2.11-2.65-2-2.65-2,0,2-1.83.52a2.3,2.3,0,0,0,2.34,1.05c1,1.7,3.79,2.84,3.89-.72,1,1.76,2.81,3.46,2.91-1,1.27,1.18,2.52.59,2.58-.43,1.5,2.06,2.06,1.6,2.09-1.14,0,0,2.71,2.16,3.69,1.9.59-.26.39-1.47.39-1.47s.78.62,1.34.39.36-2.65.36-2.65.33.55.65.52,1.06-1.8-.73-4.82C61,74,61.64,75.8,61.22,76.18Z"/></g><path class="cls-8" d="M56,86.1c-.75-.51-1.21,0-1.78.34a12.86,12.86,0,0,0-2.6,1.7,2.75,2.75,0,0,1-.3.32,2.62,2.62,0,0,1,1.9-.38,8.88,8.88,0,0,0,4.38-.88l.17.19-.08-.13S56.76,86.6,56,86.1Z"/><path class="cls-9" d="M56,86.1c-.75-.51-1.21,0-1.78.34a12.86,12.86,0,0,0-2.6,1.7,2.75,2.75,0,0,1-.3.32,2.62,2.62,0,0,1,1.9-.38,8.88,8.88,0,0,0,4.38-.88l.17.19-.08-.13S56.76,86.6,56,86.1Z"/><path class="cls-10" d="M65.06,85.28c-1.54-2.48-2.32-2.84-3.37-1.7-.82-3.07-2.65-2.65-3.5-1.41-1.8-1.76-3.53-.62-4.44.85a19.31,19.31,0,0,1-1.6-6.63l-2.32.69A66.84,66.84,0,0,0,52,83.77c.1.33-.07.39-1,1.34-2,1.8-2,3.63-1.93,4.05s.75.36,1.76-.33l.58-.38a2.75,2.75,0,0,0,.3-.32,12.86,12.86,0,0,1,2.6-1.7c.57-.38,1-.85,1.78-.34s1.68,1.16,1.68,1.16l.08.13c.52.59,2.15,2.36,2.65,2.36.82,0,.69-1.54.69-1.54s1.24,1.21,1.5,1-.1-2.25-.1-2.25a28.81,28.81,0,0,0,3.3,2C66.79,89.36,66.6,87.76,65.06,85.28Z"/><g class="cls-4"><path class="cls-11" d="M50.41,79.2l0-.09a2.65,2.65,0,0,1,.14-.23l.11-.15a1.87,1.87,0,0,1,.14-.15,2.15,2.15,0,0,1,.34-.29l.2-.12.21-.08a1.26,1.26,0,0,1,.2,0H52l.15,0,.11,0,.1,0H52l-.17,0a1.51,1.51,0,0,0-.18.05l-.19.08-.18.11-.17.13-.16.14-.27.26-.18.2Z"/><path class="cls-11" d="M51,81a.68.68,0,0,1,0-.09,2.38,2.38,0,0,1,.09-.24l.08-.15.1-.16a1.44,1.44,0,0,1,.13-.17c0-.06.1-.1.15-.16l.17-.14a1.34,1.34,0,0,1,.18-.1,1,1,0,0,1,.19-.07.82.82,0,0,1,.17,0h.15l.11,0,.1,0h-.21l-.14,0a1.14,1.14,0,0,0-.16.05,1.39,1.39,0,0,0-.16.08,1.67,1.67,0,0,0-.16.1l-.15.13-.14.14-.07.07-.06.08c-.08.1-.15.2-.21.29l-.13.21Z"/><path class="cls-11" d="M51.36,82.23l0-.09a2.36,2.36,0,0,1,.11-.23l.08-.15.11-.15A2.4,2.4,0,0,1,52,81.3l.16-.14.17-.12.17-.09.16-.06.14,0H53l-.09,0-.1,0-.13.05-.14.08-.15.1-.15.12L52,81.4l-.14.14-.13.15-.22.27-.15.2Z"/><path class="cls-11" d="M51.93,83.64a.59.59,0,0,1,0-.09,1.81,1.81,0,0,1,.1-.22l.08-.14.1-.15a1.94,1.94,0,0,1,.28-.28l.17-.11.18-.09.17-.05.16,0h.14l-.13,0-.14,0-.15.07-.16.09a1.33,1.33,0,0,0-.15.11l-.14.12-.13.13-.11.13-.1.12-.14.19Z"/><path class="cls-11" d="M49.21,87.67l.09,0,.25,0h.17l.19,0,.2,0,.2.07a1.1,1.1,0,0,1,.19.11.85.85,0,0,1,.16.13l.07.07.05.08,0,.07,0,.07a1,1,0,0,1,.05.13l0,.11,0,.09,0-.08,0-.1-.07-.12,0-.06-.05-.06-.06-.07-.07-.06L50.5,88,50.42,88a1.27,1.27,0,0,0-.17-.09l-.18-.07-.18-.05-.18,0-.16,0-.24,0Z"/><path class="cls-11" d="M50.08,86.08l.13,0,.34,0h.36L51,86l.28.05a2.73,2.73,0,0,1,.28.1,1.57,1.57,0,0,1,.25.14l.12.08.1.1a1.06,1.06,0,0,1,.17.2l.07.1.05.1a1.37,1.37,0,0,1,.08.18l0,.15,0,.13-.06-.12-.07-.13c0-.05-.07-.1-.1-.16l-.06-.09-.08-.09a1.24,1.24,0,0,0-.18-.17l-.1-.08-.11-.07a1.35,1.35,0,0,0-.24-.13,2.69,2.69,0,0,0-.26-.1L51,86.13l-.12,0h-.12l-.23,0h-.47Z"/><path class="cls-11" d="M54.85,83.71a1.57,1.57,0,0,1,.06-.17,2.83,2.83,0,0,1,.23-.43l.19-.26a2.41,2.41,0,0,1,.25-.27,2.27,2.27,0,0,1,.31-.24,2.33,2.33,0,0,1,.36-.19,2.07,2.07,0,0,1,.39-.11A1.89,1.89,0,0,1,57,82a2.11,2.11,0,0,1,.37,0l.17,0,.15,0,.26.09.19.08.16.08-.17-.06-.46-.13-.15,0-.16,0H57a2.15,2.15,0,0,0-.37,0,1.92,1.92,0,0,0-.37.11,2.34,2.34,0,0,0-.64.4,3.12,3.12,0,0,0-.46.49,4.16,4.16,0,0,0-.26.4Z"/><path class="cls-11" d="M55.64,85.32l.1-.16a4.76,4.76,0,0,1,.29-.4,5.06,5.06,0,0,1,.47-.52,3.84,3.84,0,0,1,.3-.26l.34-.23a2.67,2.67,0,0,1,.37-.18,1.9,1.9,0,0,1,.39-.11,1.64,1.64,0,0,1,.38,0l.17,0,.16,0a1.37,1.37,0,0,1,.26.1l.19.11.15.11L59,83.75l-.19-.09-.26-.08-.15,0h-.16a1.85,1.85,0,0,0-.35,0,2.31,2.31,0,0,0-.36.11,2.52,2.52,0,0,0-.35.17,4.33,4.33,0,0,0-.63.46,6.37,6.37,0,0,0-.49.48l-.32.37Z"/><path class="cls-11" d="M57.05,86.82l.05-.15a3.17,3.17,0,0,1,.18-.38,3,3,0,0,1,.34-.49,2.34,2.34,0,0,1,.24-.24,1.89,1.89,0,0,1,.61-.35,1.64,1.64,0,0,1,.34-.07,1.46,1.46,0,0,1,.32,0l.28.05.23.08.17.07.14.08-.15-.05-.17-.05-.23-.05-.27,0-.3,0a1.72,1.72,0,0,0-.31.07,1.5,1.5,0,0,0-.3.14,2.2,2.2,0,0,0-.51.41,3.36,3.36,0,0,0-.36.45c-.09.14-.17.26-.22.35Z"/><path class="cls-11" d="M51.54,84.51h.32l.22,0,.12,0,.13,0a2.41,2.41,0,0,1,.28.1l.14.07.07,0,.07,0L53,85l.12.11a2,2,0,0,1,.22.24.82.82,0,0,1,.09.13l.08.13a2.55,2.55,0,0,1,.12.27l0,.06,0,.06,0,.12a1.12,1.12,0,0,1,0,.21l0,.17c0,.09,0,.15,0,.15l0-.14,0-.16a1.76,1.76,0,0,0-.07-.2l0-.12,0-.06,0-.06c0-.08-.08-.16-.14-.25a2.8,2.8,0,0,0-.18-.24,1.85,1.85,0,0,0-.21-.22l-.11-.1L52.81,85c-.08-.06-.17-.1-.26-.16l-.26-.12-.12,0-.12,0-.21-.06-.16,0Z"/><path class="cls-11" d="M58.73,88.39a2,2,0,0,1,.19-.37,1.92,1.92,0,0,1,.66-.65,1.26,1.26,0,0,1,.24-.1,1,1,0,0,1,.25,0h.12l.11,0,.11,0,.09,0,.15.08.11.08.09.07-.1-.05-.12-.05-.16-.05-.19,0h-.21a1.15,1.15,0,0,0-.44.14l-.2.13-.18.15a3.57,3.57,0,0,0-.29.3l-.19.24Z"/><path class="cls-11" d="M61,87.76a.82.82,0,0,1,.17-.22l.11-.09.13-.08.15-.06.17,0h.17l.16,0,.15,0,.13.05a.81.81,0,0,1,.17.11l.06,0-.07,0-.08,0-.1,0-.12,0-.14,0h-.15l-.15,0-.15,0-.14,0-.13.06-.11.06-.16.11Z"/><path class="cls-11" d="M60.21,85.78a1.47,1.47,0,0,1,.27-.24,1.71,1.71,0,0,1,.32-.18l.2-.07.21,0h.22a1.15,1.15,0,0,1,.21,0l.19,0,.09,0,.08,0,.13.07.09.06.08.06-.09,0-.1,0-.14,0-.16,0-.18,0h-.3l-.1,0-.2,0-.19.06-.17.07-.15.07-.22.12Z"/><path class="cls-11" d="M59.41,84.1l.06-.09a2,2,0,0,1,.19-.23l.15-.13a1.4,1.4,0,0,1,.18-.13l.21-.12.23-.09a1.25,1.25,0,0,1,.25,0h.12l.12,0,.11,0,.1,0,.1,0,.08.05a.8.8,0,0,1,.13.1l.09.09.08.08-.09-.06-.1-.07a1,1,0,0,0-.14-.07l-.08,0-.09,0a.92.92,0,0,0-.2,0h-.22a1.08,1.08,0,0,0-.22,0l-.22.07-.2.1a2.85,2.85,0,0,0-.33.23l-.13.1-.09.08Z"/><path class="cls-11" d="M58.69,82.95a1.89,1.89,0,0,1,.29-.39l.17-.16.1-.08.11-.07.12-.07.13-.06A1.46,1.46,0,0,1,59.9,82L60,82h.29l.14,0a1.78,1.78,0,0,1,.25.09,1.22,1.22,0,0,1,.21.12.82.82,0,0,1,.16.11l.11.1.1.09-.11-.07-.13-.08a1.29,1.29,0,0,0-.17-.09l-.1,0-.11,0-.24-.07-.13,0h-.27l-.13,0a1.39,1.39,0,0,0-.26.07l-.24.11-.21.13-.18.14-.14.13-.1.1Z"/><path class="cls-11" d="M62,84.47l0-.09a1.44,1.44,0,0,1,.16-.22l.12-.13.15-.13a1.71,1.71,0,0,1,.19-.11l.1,0,.11,0a1.3,1.3,0,0,1,.22-.05,1.29,1.29,0,0,1,.22,0h.2a1,1,0,0,1,.18,0l.14,0,.11,0,.09,0-.1,0-.11,0-.15,0h-.36l-.2,0-.2.05-.1,0-.09,0-.18.09-.16.11-.13.11-.19.18Z"/><path class="cls-11" d="M62.5,86.52a1.33,1.33,0,0,1,0-.14,2.71,2.71,0,0,1,.11-.35,2.6,2.6,0,0,1,.24-.46,2.09,2.09,0,0,1,.18-.23,1.69,1.69,0,0,1,.23-.21,1.47,1.47,0,0,1,.26-.16,1.34,1.34,0,0,1,.28-.1,1.23,1.23,0,0,1,.27,0h.25l.2,0,.15,0,.13.05-.13,0-.15,0-.2,0h-.23l-.25.05-.13,0-.13.06a1.48,1.48,0,0,0-.24.15,2.55,2.55,0,0,0-.66.83c-.07.13-.12.24-.15.32Z"/><path class="cls-11" d="M63.44,87.61a.87.87,0,0,1,0-.12l0-.14a1.66,1.66,0,0,1,.08-.17,1.71,1.71,0,0,1,.11-.19,2.12,2.12,0,0,1,.15-.2l.1-.09,0,0,.05,0,.11-.08.12-.07a1.58,1.58,0,0,1,.26-.11,2.41,2.41,0,0,1,.26-.06h.25a1.4,1.4,0,0,1,.22,0l.18,0,.14,0,.12,0H65.6l-.14,0h-.4l-.24,0-.24.06a1.67,1.67,0,0,0-.24.1l-.11.06-.1.08a2.18,2.18,0,0,0-.19.16c-.05.06-.11.12-.16.18l-.13.17a2.14,2.14,0,0,0-.16.28Z"/><path class="cls-11" d="M64.72,88.41a1,1,0,0,1,.1-.28,1.25,1.25,0,0,1,.17-.26l.13-.12.15-.11.17-.08a.79.79,0,0,1,.17,0,.87.87,0,0,1,.17,0h.15l.12,0,.09,0,.08,0h-.43l-.15,0-.15,0-.15.07-.14.09-.12.1-.11.11-.09.11A2.32,2.32,0,0,0,64.72,88.41Z"/><path class="cls-11" d="M53.89,83.36l.12,0,.13.07.17.1.18.15.09.09.09.1a2.63,2.63,0,0,1,.16.23l.14.25c0,.09.08.18.1.27a2.64,2.64,0,0,1,.07.27l0,.25c0,.08,0,.16,0,.23s0,.07,0,.1,0,.06,0,.09v.15c0,.08,0,.13,0,.13s0,0,0-.13l0-.15c0-.06,0-.12,0-.19l0-.22L55,85c0-.08-.05-.17-.08-.25s-.07-.17-.1-.25l-.13-.24a2.58,2.58,0,0,0-.15-.22l-.08-.1-.08-.09-.16-.16-.15-.12L54,83.43Z"/><path class="cls-11" d="M54.35,86.5l.09.06.26.13.18.07.2.07.22.06.23,0,.23,0L56,87h.81l-.11,0a2.46,2.46,0,0,1-.29,0l-.2,0h-.45l-.24,0a2.81,2.81,0,0,1-.46-.13l-.2-.09-.17-.1a2.17,2.17,0,0,1-.24-.18Z"/><path class="cls-11" d="M52.85,87.41l.09,0,.1,0,.13.05.16.05.17.06.19.05.2,0,.2,0,.19,0,.18,0h.16l.25,0H55l-.09,0-.25,0h-.56l-.2,0-.2,0-.19-.07-.17-.07-.15-.08L53,87.54l-.09-.07Z"/></g><g class="cls-5"><path class="cls-12" d="M58.21,82.16l0,.06.13.17c.11.15.26.36.44.63s.18.28.27.43.2.32.29.49l.29.54.15.28L60,85l.26.57c.09.19.16.38.23.57l.2.53.09.25.07.24c.18.61.28,1,.28,1s-.18-.38-.42-1L60.59,87l-.11-.24c-.08-.16-.16-.34-.23-.52s-.16-.36-.25-.55l-.27-.56-.13-.28-.14-.28-.27-.54-.26-.51-.23-.45Z"/><path class="cls-12" d="M61.69,83.53a4.13,4.13,0,0,1,.26.52c0,.08.07.17.1.26s.07.19.1.3.07.21.1.32.06.22.09.33l.07.34c0,.11,0,.22.05.33s0,.21,0,.31a2.56,2.56,0,0,1,0,.28c0,.35,0,.58,0,.58s-.07-.22-.15-.56c0-.17-.09-.36-.14-.57s-.1-.43-.15-.65S62,85.1,62,85s0-.22-.07-.32-.09-.4-.13-.57-.07-.31-.09-.41Z"/></g><path class="cls-9" d="M62,84.47c.52,2.2.61,4,.35,4.12S61.78,88.06,61,86a7.59,7.59,0,0,0-2.48-3.27s2.53,5.93,1.83,6S58.64,87,57.62,85.8s-2.16-1.18-3.73-.13a43.06,43.06,0,0,1-4,2.79c-.58.28-.79-.1-.83-.58A2.94,2.94,0,0,0,49,89.17c.1.42.75.36,1.76-.33l.58-.38a2.75,2.75,0,0,0,.3-.32,12.86,12.86,0,0,1,2.6-1.7c.57-.38,1-.85,1.78-.34s1.68,1.16,1.68,1.16l.08.13c.52.59,2.15,2.36,2.65,2.36.82,0,.69-1.54.69-1.54s1.24,1.21,1.5,1-.1-2.25-.1-2.25a28.81,28.81,0,0,0,3.3,2c.42.17.62,0,.6-.49C65.44,88.6,63.33,86.32,62,84.47Z"/><path class="cls-13" d="M65.83,86.66a.59.59,0,0,1-.69,0,5.75,5.75,0,0,1-1.91-1.87c-.26-.35-.89-1.32-.67-1.85a1.71,1.71,0,0,0-.82.55,5.76,5.76,0,0,1,.41,2.77.07.07,0,0,1-.11,0,15,15,0,0,1-1.57-2.27c-.37-.6-1.11-1.31-1-2.09a.7.7,0,0,1,.65-.68,1.79,1.79,0,0,0-1.88.89L58.06,82a4.72,4.72,0,0,1,.69,1,.06.06,0,0,1,.08,0,3.45,3.45,0,0,1,.3.68h0a.06.06,0,0,1,0,0c.11.35.2.7.34,1a2.92,2.92,0,0,1,.37,1.31.45.45,0,0,1-.63.42,2.93,2.93,0,0,1-1-.92c-.31-.38-.58-.79-.88-1.18s-.6-.65-.88-1a2.29,2.29,0,0,1-.61-1.26c0-.44.37-.66.77-.7a1.61,1.61,0,0,1,.88.15c-1.53-.88-2.93.14-3.72,1.41a.89.89,0,0,1-1.59-.33c-.84-2-1.18-3.83-.45-4,.4-.12.76.63,1,1.33a18.79,18.79,0,0,1-.55-3.59l-2.32.69A66.84,66.84,0,0,0,52,83.77c.08.28,0,.37-.68,1,.38-.3.79-.55,1-.5.56.13.21,1.11-.71,1.91-.76.66-2.24,1.66-2.31,1.12A3.46,3.46,0,0,0,49,89.17c.1.42.75.36,1.76-.33l.58-.38a2.75,2.75,0,0,0,.3-.32,12.86,12.86,0,0,1,2.6-1.7c.57-.38,1-.85,1.78-.34s1.68,1.16,1.68,1.16l.08.13c.52.59,2.15,2.36,2.65,2.36.82,0,.69-1.54.69-1.54s1.24,1.21,1.5,1-.1-2.25-.1-2.25a28.81,28.81,0,0,0,3.3,2C66.59,89.28,66.63,88.33,65.83,86.66Z"/><path class="cls-14" d="M57.25,81.79s.91.39,2.15,3.48C59.17,83.93,58.29,81.88,57.25,81.79Z"/><path class="cls-14" d="M60.15,81.59s.86.49,1.75,3.7C61.82,83.93,61.18,81.8,60.15,81.59Z"/><path class="cls-14" d="M62.9,83.16s.87.23,2.4,2.87C64.92,84.84,63.86,83.1,62.9,83.16Z"/><path class="cls-10" d="M30.92,77.71s.53,3.94-.79,5.84A2.36,2.36,0,0,0,27,83.42c-1.53-.86-3.39-1-4.35,1-.94-.12-3,1.37-3.75,3.63-.33,1.2.45,1.1,1.06.75a3.17,3.17,0,0,1,1-.41s-.08,1.3.53,1.35c.37.06,1.33-1.43,2.45-1.79-.23.86-.41,1.92.06,2.06s1.57-1.1,2.79-2,2.63-1.92,3.83-1.26a17.67,17.67,0,0,1,3,2.3c.84.72,1.31.9,1.43.43a5,5,0,0,0-1.43-3.82c-1.12-1.22-1-1.61-.73-2.47A27.83,27.83,0,0,0,34.14,78Z"/><g class="cls-4"><path class="cls-11" d="M31,78.94l.13,0,.33.11.22.06.25.07.27.06.28,0,.28,0h.53l.23,0,.19,0,.15,0,.13,0-.12.06-.14.07-.19.06-.23.05-.26,0h-.29l-.29,0-.29-.05-.27-.07-.25-.08-.22-.09L31.09,79Z"/><path class="cls-11" d="M31,80.39l.1.06.27.15.19.08.21.09.23.07.24.06.12,0,.12,0,.24,0h.43l.17,0,.13,0,.11,0-.11,0-.13.05-.17.05-.1,0-.11,0-.24,0h-.38l-.13,0L32,81l-.24-.09a2.82,2.82,0,0,1-.39-.21A2,2,0,0,1,31,80.39Z"/><path class="cls-11" d="M30.73,82l.09.07.11.07.15.08.18.08.21.07.23.05.24,0h.69l.2,0,.29,0h.11l-.11,0-.12,0-.16,0-.2,0-.22,0H31.9l-.25,0-.23-.06a1.77,1.77,0,0,1-.39-.19l-.14-.1-.1-.09Z"/><path class="cls-11" d="M30.34,83.19l.08.08a2,2,0,0,0,.23.18l.16.1.19.1.21.08.22.06.23,0h.44l.19,0,.16,0,.13,0,.11,0-.1,0-.12.05-.16.05-.19,0-.22,0h-.24l-.25,0-.24-.07a1.42,1.42,0,0,1-.22-.1l-.19-.12-.16-.13a1.59,1.59,0,0,1-.2-.22A.56.56,0,0,1,30.34,83.19Z"/><path class="cls-11" d="M29.21,83l.14.1.15.13a2.28,2.28,0,0,1,.19.18l.2.23c.07.08.14.18.21.28l.09.16a1.2,1.2,0,0,1,.09.17,2.67,2.67,0,0,1,.15.35c0,.06,0,.12.06.18l0,.19a2.25,2.25,0,0,1,0,.37,2,2,0,0,1,0,.35,1.94,1.94,0,0,1,0,.31,1.82,1.82,0,0,1-.05.25l-.06.19-.06.16,0-.17,0-.19c0-.07,0-.16,0-.25a1.54,1.54,0,0,0,0-.3,2.57,2.57,0,0,0,0-.33,2.66,2.66,0,0,0-.06-.35l0-.18-.06-.17a2.58,2.58,0,0,0-.14-.34c0-.11-.11-.21-.17-.32s-.12-.2-.18-.28l-.18-.24-.17-.19-.14-.14Z"/><path class="cls-11" d="M31,86.91a1.28,1.28,0,0,1,0-.15,2.65,2.65,0,0,1,0-.4,2.68,2.68,0,0,1,.05-.57,2,2,0,0,1,.1-.31,1.68,1.68,0,0,1,.16-.3,1.52,1.52,0,0,1,.22-.26,1.41,1.41,0,0,1,.27-.2l.14-.07.14-.05.27-.07.23,0h.33l-.15,0-.17,0-.22,0-.25.08-.13.06-.13.07a1.49,1.49,0,0,0-.24.19,1.53,1.53,0,0,0-.2.24,2,2,0,0,0-.25.57,3,3,0,0,0-.09.55c0,.16,0,.3,0,.4S31,86.91,31,86.91Z"/><path class="cls-11" d="M32.08,87.65a.79.79,0,0,1,0-.12,2.23,2.23,0,0,1,0-.32,2.09,2.09,0,0,1,.05-.21,1.73,1.73,0,0,1,.08-.23,2.09,2.09,0,0,1,.11-.23,2.37,2.37,0,0,1,.15-.22,1.55,1.55,0,0,1,.19-.19l.1-.08.11-.07.11-.06.11,0,.1,0,.1,0,.18,0h.26l-.12,0-.13,0-.17.05-.09,0-.1,0a1.07,1.07,0,0,0-.2.11l-.1.07-.09.08a1.21,1.21,0,0,0-.17.18,1.91,1.91,0,0,0-.15.2c0,.07-.09.14-.12.21s-.07.14-.09.21,0,.13-.07.2-.07.23-.08.3Z"/><path class="cls-11" d="M32.92,88.4a.7.7,0,0,1,0-.1,2.45,2.45,0,0,1,.1-.24,2.07,2.07,0,0,1,.19-.32l.13-.16.16-.15a1.76,1.76,0,0,1,.17-.13l.18-.1.09,0,.09,0,.17,0,.15,0h.21l-.1,0-.11,0-.14,0-.16.06-.08,0-.08,0-.17.11a1.29,1.29,0,0,0-.16.13l-.15.14-.13.15-.12.15-.1.14-.14.21Z"/><path class="cls-11" d="M26.54,83.77h.18a3.21,3.21,0,0,1,1.12.32,2.6,2.6,0,0,1,.34.2,2.26,2.26,0,0,1,.31.27,2.08,2.08,0,0,1,.25.32,1.8,1.8,0,0,1,.17.36,1,1,0,0,1,.05.18,1.21,1.21,0,0,1,0,.18,2.24,2.24,0,0,1,0,.32,2.26,2.26,0,0,1,0,.28c0,.08,0,.15,0,.21l0,.18v-.18c0-.06,0-.13,0-.21s0-.17,0-.27a2.36,2.36,0,0,0,0-.31,1.24,1.24,0,0,0,0-.17l0-.08,0-.08a2,2,0,0,0-.17-.33,1.88,1.88,0,0,0-.24-.3,2.22,2.22,0,0,0-.29-.26,3.17,3.17,0,0,0-.32-.2,3.63,3.63,0,0,0-.61-.27l-.46-.13Z"/><path class="cls-11" d="M25.24,85.34l.15,0h.4l.26,0,.14,0,.15.05.14.07.14.09a1.65,1.65,0,0,1,.26.22A1.55,1.55,0,0,1,27,86l.1.14a2.94,2.94,0,0,1,.15.29l.1.28.05.26,0,.12v.11c0,.07,0,.12,0,.17s0,.15,0,.15l0-.15,0-.17,0-.1,0-.11-.07-.25-.11-.27c0-.09-.1-.17-.15-.27l-.19-.25a1.61,1.61,0,0,0-.24-.2l-.13-.09-.13-.07-.13-.06L26,85.46l-.25-.07-.22,0h-.32Z"/><path class="cls-11" d="M24.32,87.17a2.05,2.05,0,0,1,.43,0,2.12,2.12,0,0,1,.45,0,1.52,1.52,0,0,1,.49.17,1,1,0,0,1,.21.17.89.89,0,0,1,.16.21.93.93,0,0,1,.08.23,1.12,1.12,0,0,1,0,.21,1.35,1.35,0,0,1,0,.18,1.37,1.37,0,0,1,0,.14l0,.11s0,0,0-.12a1.24,1.24,0,0,0,0-.13c0-.05,0-.11,0-.17a1.6,1.6,0,0,0,0-.2,1,1,0,0,0-.09-.2.95.95,0,0,0-.34-.32,1.38,1.38,0,0,0-.22-.11l-.23-.07a3.34,3.34,0,0,0-.43-.07l-.31,0Z"/><path class="cls-11" d="M21,88.33l.07-.06.2-.13.15-.07.17-.06a1.26,1.26,0,0,1,.4,0,1.09,1.09,0,0,1,.2,0l.1,0,.09,0a.59.59,0,0,1,.16.1l.07.05.05.06a.84.84,0,0,1,.09.11l.05.09,0,.08-.06-.06-.07-.07-.1-.08-.06,0-.07,0-.15-.08-.08,0-.09,0a1,1,0,0,0-.18,0h-.18l-.18,0a2.32,2.32,0,0,0-.32.08l-.12,0-.1,0Z"/><path class="cls-11" d="M21.31,86.63l.13-.06a2.3,2.3,0,0,1,.36-.11,2.19,2.19,0,0,1,.54-.05,1.59,1.59,0,0,1,.61.14,1.4,1.4,0,0,1,.27.17l.06.05.06.06.1.12a1.34,1.34,0,0,1,.15.25,1.79,1.79,0,0,1,.1.24,1.44,1.44,0,0,1,.05.21c0,.06,0,.12,0,.16V88l0-.14a3,3,0,0,0-.13-.35,1.82,1.82,0,0,0-.11-.22,1.62,1.62,0,0,0-.16-.22,1.3,1.3,0,0,0-.2-.2,1.18,1.18,0,0,0-.25-.15,1.38,1.38,0,0,0-.28-.1l-.29,0a2.49,2.49,0,0,0-.52,0l-.37.06Z"/><path class="cls-11" d="M22.64,84.46l.13,0a2.3,2.3,0,0,1,.33.1l.21.09.22.13a2.5,2.5,0,0,1,.22.16l.11.09.1.1a2.74,2.74,0,0,1,.19.22l.08.12.07.12a1.9,1.9,0,0,1,.12.23,1.3,1.3,0,0,1,.08.22,1.23,1.23,0,0,1,.05.19l0,.15,0,.13,0-.12-.05-.14c0-.05-.05-.11-.08-.17a2,2,0,0,0-.1-.2c0-.07-.08-.14-.13-.21s-.1-.15-.16-.21a2.22,2.22,0,0,0-.18-.2l-.1-.1-.1-.09-.21-.17-.21-.14-.2-.11-.3-.15Z"/><path class="cls-11" d="M23.49,83.33h.26l.18,0,.21,0a1.91,1.91,0,0,1,.23.08l.12.06.11.07a1.77,1.77,0,0,1,.21.16l.18.2.15.21.11.21c0,.07.05.14.08.2a.84.84,0,0,1,.05.17l0,.14,0,.12,0-.11-.05-.13a1.32,1.32,0,0,0-.07-.16l-.09-.18-.12-.2L24.9,84l-.18-.18a2,2,0,0,0-.2-.16l-.1-.07-.11-.06-.21-.1-.2-.06a1.79,1.79,0,0,0-.31-.06Z"/><path class="cls-11" d="M19,87.74a1,1,0,0,1,.26,0,1.13,1.13,0,0,1,.27,0,1,1,0,0,1,.3.12A.77.77,0,0,1,20,88L20,88l0,.07a.57.57,0,0,1,.07.13.47.47,0,0,1,0,.13.61.61,0,0,1,0,.11s0,.06,0,.08,0,.07,0,.07l0-.07,0-.08a.66.66,0,0,0,0-.1.46.46,0,0,0-.05-.11.64.64,0,0,0-.07-.11l0-.05-.05,0L19.77,88l-.13-.07-.13-.05-.25-.07Z"/><path class="cls-11" d="M20.14,85.91h.08l.21.05.13.06.14.08a1.24,1.24,0,0,1,.14.11l.12.14a1.16,1.16,0,0,1,.1.16c0,.05,0,.11.07.16a1.6,1.6,0,0,1,0,.16.74.74,0,0,1,0,.15.58.58,0,0,1,0,.12v.09l0-.09a.83.83,0,0,0,0-.12s0-.09,0-.13L21,86.72,21,86.58a.93.93,0,0,0-.09-.14l-.11-.13-.12-.11-.12-.09L20.4,86l-.19-.1Z"/></g><g class="cls-5"><path class="cls-12" d="M24,87.92a6.78,6.78,0,0,1,.24-.84c0-.12.09-.26.15-.4s.11-.29.19-.43.14-.3.22-.45.17-.3.26-.45.19-.29.29-.44.21-.27.31-.4.22-.24.32-.35l.31-.29c.1-.09.2-.15.29-.22a1.44,1.44,0,0,1,.24-.14L27,83.4l-.18.15a1.71,1.71,0,0,0-.2.18L26.4,84l-.27.31-.28.37-.28.41c-.09.14-.19.28-.27.43s-.18.29-.26.44l-.24.43-.22.41-.19.37Z"/><path class="cls-12" d="M21,88.41s0-.07,0-.2,0-.14,0-.23,0-.18,0-.29,0-.22,0-.34,0-.25.08-.38a4.07,4.07,0,0,1,.11-.4c0-.13.1-.27.15-.4s.12-.26.18-.39.14-.24.21-.36.15-.22.22-.32a3,3,0,0,1,.22-.27c.07-.08.13-.16.19-.22l.16-.16.14-.13-.1.16-.12.18c-.05.07-.09.15-.15.24s-.12.18-.17.29l-.18.33-.18.36c-.05.12-.12.25-.17.38s-.11.25-.15.38l-.07.19-.06.19c0,.12-.07.24-.11.36s-.06.23-.08.33C21,88.13,21,88.41,21,88.41Z"/></g><g class="cls-4"><path class="cls-10" d="M35.06,88.77l-.09,0a2.9,2.9,0,0,1-1-1.26c-.33-.54-.83-.92-1.19-1.44-.19-.27-.5-.78-.23-1.1a.59.59,0,0,1,.37-.19,1.6,1.6,0,0,1,0-1.6A27.83,27.83,0,0,0,34.14,78l-3.22-.31A15.4,15.4,0,0,1,31,80.66c.09-.5.38-1.61,1.1-1.58.92,0,.62,2.95,0,4.39s-1.48.69-1.94.09A2.36,2.36,0,0,0,27,83.42a4.24,4.24,0,0,0-1.91-.58.5.5,0,0,1,.13.52,4.89,4.89,0,0,1-1,1.2c-.48.48-.8,1.07-1.25,1.57-.3.34-1,1.28-1.45,1.31s0-1.09.08-1.37a13.74,13.74,0,0,1,.94-1.67,2.13,2.13,0,0,0-1,.31c.21.22,0,.66-.22.88s-.51.65-.77,1a3.14,3.14,0,0,1-.83.86.4.4,0,0,1-.58-.07,5.59,5.59,0,0,0-.27.68c-.33,1.2.45,1.1,1.06.75a3.17,3.17,0,0,1,1-.41s-.08,1.3.53,1.35c.37.06,1.33-1.43,2.45-1.79-.23.86-.41,1.92.06,2.06s1.57-1.1,2.79-2,2.63-1.92,3.83-1.26a17.67,17.67,0,0,1,3,2.3c.84.72,1.31.9,1.43.43A2.25,2.25,0,0,0,35.06,88.77Zm-6.89-4c-1.08.82-2.85,3.08-3.36,2.73s.52-2.17,1.2-3c0,0,1.34-1.58,2.21-1.48S29.25,84,28.17,84.79Z"/></g><path class="cls-14" d="M27.36,83.61a10.78,10.78,0,0,0-2.23,2.8C24.42,87.89,25.07,84.73,27.36,83.61Z"/><path class="cls-14" d="M24.33,83.06a10.81,10.81,0,0,0-2.23,2.8C21.38,87.34,22,84.18,24.33,83.06Z"/><path class="cls-14" d="M21.61,84.86a7.29,7.29,0,0,0-1.68,1.75C19.36,87.56,20,85.47,21.61,84.86Z"/><g class="cls-5"><path class="cls-15" d="M31.37,86.06c-2.5-2.6-6.62,3.62-7.21,3.13s.73-3.72,2.39-5.42c-2.16.48-4.23,5.22-5,5.05s-.53-1.45.06-3.1c-1,1.35-2,3.16-2.54,2.67a.59.59,0,0,1-.17-.45l0,.08c-.33,1.2.45,1.1,1.06.75a3.17,3.17,0,0,1,1-.41s-.08,1.3.53,1.35c.37.06,1.33-1.43,2.45-1.79-.23.86-.41,1.92.06,2.06s1.57-1.1,2.79-2,2.63-1.92,3.83-1.26a17.67,17.67,0,0,1,3,2.3c.84.72,1.31.9,1.43.43a1.6,1.6,0,0,0,0-.38C34.57,89.53,33.4,88.17,31.37,86.06Z"/></g><path class="cls-3" d="M28.31,38.21S26.18,39.39,20.86,42,14,46.23,13.72,47.67A14.25,14.25,0,0,0,16.77,58c-2-.52-3.7-.13-3.84.22s2.48,1.92,2.48,1.92a7.75,7.75,0,0,0-5.71,3.35c-.52.92-.26,1.18,1.52,1.4a11.45,11.45,0,0,0,5-.22,9.57,9.57,0,0,1-1.87.83s1.66,1,4.53-.3a2.93,2.93,0,0,0-.31,2.61,4.2,4.2,0,0,0,2.88-1.39l0,.61,1.35-1S12.47,53.31,25.74,43.18C28.42,41.22,31.21,36.71,28.31,38.21Z"/><g class="cls-4"><path class="cls-3" d="M28.31,38.21S26.18,39.39,20.86,42l-1.37.69.07,0s4.38-2.42,5.52-2S21.38,45,18.62,49c-2.22,3.37-3.23,2.63-2.76.34s1.82-3.1.81-2.89-2.56,3.64-.88,7c.61,1.21,1.14-.47,1.55-.74s-.61,2.56.2,5.12,2.49,5.46.94,6.47-1.55.67-.74-.27-1-.14-4.31-.07-4.24-.27-2.09-2.29l.17-.17a7,7,0,0,0-1.81,1.9c-.52.92-.26,1.18,1.52,1.4a11.45,11.45,0,0,0,5-.22,9.57,9.57,0,0,1-1.87.83s1.66,1,4.53-.3a2.93,2.93,0,0,0-.31,2.61,4.2,4.2,0,0,0,2.88-1.39l0,.61,1.35-1S12.47,53.31,25.74,43.18C28.42,41.22,31.21,36.71,28.31,38.21Z"/></g><path class="cls-16" d="M27.92,41S13.37,49.5,19.56,61.7C23,68.41,26.63,70.76,26.86,72s1.47,4.94,3.73,6.33c.38.23.57-.6.57-.6s.15.9.79,1S33.08,78,33.08,78s-.08.34.19.34.68-.38.68-.38-.08.45.22.53A10.07,10.07,0,0,0,37,77.05,28.63,28.63,0,0,0,46,76.73c2.22,1.09,3.88,1.57,3.7.48,1.09.61,1.13.22,1.13-.3.92.92,1.08.69,1.21.23a21.24,21.24,0,0,1,3.38-5.75c2.29-2.91,6.27-7.48,8.17-12.45s-.26-8.69-1.76-11-4.38-7.84-4.38-7.84Z"/><g class="cls-4"><path class="cls-16" d="M26,43.77c-.48,2.14,1.42,1.35,2.85.55-.63,3.33,1.5,3.33,3.64,2.22.24,4.12,2.3,4,4.36,2,2.3,3.4,3.09.55,4-.63,1.5,3.56,3.72,1,4.83-.47,3.17,4.59,6.1,1.66,5.7-1.58C54.14,49.71,54,45,54,45c2.14,2.45,3.25-1.11,3.25-2.37A8,8,0,0,0,59.58,44c-1.1-2-2.07-3.87-2.07-3.87L27.92,41a24.65,24.65,0,0,0-3.43,2.55C25.47,43.09,26.22,42.93,26,43.77Z"/></g><path class="cls-17" d="M26.65,39.58a18.41,18.41,0,0,1,2.63-4.9,56,56,0,0,0,5.82-7.83c2.06-3.4,4.12-8.2,8.19-8.5s5.46,2.73,7.27,6.55A124.52,124.52,0,0,0,58.15,38.6c2.11,3.76,1.91,4.38.77,3.81a9,9,0,0,1-2.27-1.91s.1,3.81-1.13,4.33-2.16-1.24-2.16-1.24.26,1.44-.21,1.7-2.94-1.85-2.94-1.85.46,4.07-1.24,4.79C48.15,48.54,46,45.4,46,45.4s-1.6,2.84-3.5,2.89c-.72,0-.67-2.63-.67-2.63a24.42,24.42,0,0,1-2.74,2.94c-.63.36-.78-2.19-.78-2.19s-1.62,2.33-3.22,2.27c-.49-.07-1.5-2.45-1-3.76-1.73,1.37-3.14,1.5-3.63,1.37a4.49,4.49,0,0,1,.33-3.72c-2.61,1-3.86.65-3.86.65s.13-3,1.6-4.35A13.62,13.62,0,0,0,26.65,39.58Z"/><path class="cls-18" d="M38,23.9s1.07-.51,1.69-.17c-.29-1-.08-1.79.36-1.79s.62,1.22.47,1.76a5.21,5.21,0,0,1,5.24-.1c-.36-1-.21-1.95.28-2s.83,1,.7,1.69a2.68,2.68,0,0,1,1.44.46s-3.08-.49-2.74,1.3a5.61,5.61,0,0,0-5.34.13C40.72,24.63,39.88,23.73,38,23.9Z"/><g class="cls-5"><path class="cls-19" d="M58.15,38.6a125.28,125.28,0,0,1-6.77-12c.47,1.11,1.46,3.54,2.28,6,1.11,3.4.65,4.12-2,1.63,1,5.88.13,4.18-2,.65s-2-5.49-.52-6.4,1-2-.25-1.69a2.83,2.83,0,0,1-3.15-.86c-.85-1-3.4-1.5-5.16-.13s-2.61.33-3.73,1.18-.91,2.22,1.63,3.59-.52,4.9-2,6.67-4.77,3.53-5.23,2.55,2.68-5.69,2-5.16-3.07,3.6-2.94,1.44c.09-1.53,1.77-4.45,2.73-6-1.38,1.93-2.71,3.5-3.7,4.63a18.41,18.41,0,0,0-2.63,4.9,13.62,13.62,0,0,1,1.87-.71c-1.47,1.31-1.6,4.35-1.6,4.35s1.24.36,3.86-.65a4.49,4.49,0,0,0-.33,3.72c.49.13,1.9,0,3.63-1.37-.46,1.31.56,3.69,1,3.76,1.6.07,3.22-2.27,3.22-2.27s.14,2.55.78,2.19a24.42,24.42,0,0,0,2.74-2.94s-.05,2.63.67,2.63c1.91-.05,3.5-2.89,3.5-2.89s2.11,3.14,2.94,2.84c1.7-.72,1.24-4.79,1.24-4.79s2.47,2.11,2.94,1.85.21-1.7.21-1.7.93,1.75,2.16,1.24,1.13-4.33,1.13-4.33a9,9,0,0,0,2.27,1.91C60.05,43,60.26,42.36,58.15,38.6Z"/></g><path class="cls-20" d="M41.08,31.69s.22,1.79-1.88,4.3c-1.53,1.82-2.83,3.89-.88,5.3,1.88,1,3.3.27,3.77-.47a2.21,2.21,0,0,0,3,1.12c1.62-.62,3.47-2.56,3.56-4.15s-1.2-2.45-1.85-3.12-1.27-2.06-.47-4.71C46.35,30,43.73,34.81,41.08,31.69Z"/><g class="cls-5"><path class="cls-21" d="M40.66,33.8c.64-.89.68-.81,1.53-.08s2.29,0,3-1.06.57-.64.8.08A7.44,7.44,0,0,1,46.35,30s-2.62,4.86-5.27,1.74A4.55,4.55,0,0,1,40.53,34Z"/><path class="cls-21" d="M47.14,35l.11.15a3.12,3.12,0,0,1-.51,4.63c-.94.77-2.8,1.66-4,.55s0-3.27,0-3.27a2.75,2.75,0,0,0-1.15,2c-.13,1.36-1.66,2.51-3,1.06s.38-3.74.38-3.74l0,0c-1.39,1.73-2.39,3.61-.58,4.92,1.88,1,3.3.27,3.77-.47a2.21,2.21,0,0,0,3,1.12c1.62-.62,3.47-2.56,3.56-4.15A3.57,3.57,0,0,0,47.14,35Z"/></g><path d="M40.41,23c0,.46-.16.83-.35.82s-.34-.39-.34-.85.16-.83.35-.83S40.42,22.52,40.41,23Z"/><ellipse class="cls-22" cx="40.16" cy="22.72" rx="0.15" ry="0.33" transform="translate(-0.89 1.65) rotate(-2.33)"/><path d="M46.58,22.57c.06.46,0,.85-.24.87s-.39-.34-.45-.79,0-.85.24-.87S46.52,22.11,46.58,22.57Z"/><ellipse class="cls-22" cx="46.3" cy="22.34" rx="0.15" ry="0.33" transform="translate(-3.24 8.6) rotate(-10.26)"/><path class="cls-10" d="M38.57,26.32a1.61,1.61,0,0,0-2,1c-.45.9,0,1.82,1.43,2.16a8.6,8.6,0,0,1,3.28,2.69c.84,1.2,2.83,1.74,3.76.11a13.8,13.8,0,0,1,3.92-4.32c1.21-.7,1.49-1.63.39-2.3s-2.3.31-2.89.22S45,23.06,42.88,23.29c-1.06.23-2,.67-3.53,2.5C39,26.26,38.87,26.35,38.57,26.32Z"/><g class="cls-5"><path class="cls-23" d="M37.95,29.43a1.84,1.84,0,0,1,.36-.07,2.35,2.35,0,0,1,.36,0l.36.05.18,0,.17.05.17.07.17.08.32.19c.1.07.21.14.3.22l.14.12.14.12.55.47c.09.08.18.16.28.23l.28.22.28.22.3.2.3.19.31.19-.16,0c.41-.53.81-1.07,1.24-1.59l.34-.38.18-.18.19-.17a4.86,4.86,0,0,1,.4-.32,3.68,3.68,0,0,1,.44-.27l.23-.11.12-.05.12,0,.48-.16.47-.16.47-.18.45-.22a2.77,2.77,0,0,0,.42-.27,1.59,1.59,0,0,0,.34-.36,1.19,1.19,0,0,0,.18-.46,1.19,1.19,0,0,1-.14.49,1.6,1.6,0,0,1-.32.39,2.73,2.73,0,0,1-.41.31,5,5,0,0,1-.45.25l-.46.21-.47.19-.47.18-.11,0-.11.05-.22.11a3.91,3.91,0,0,0-.41.26c-.13.1-.26.2-.38.31l-.18.17-.17.18-.33.37c-.21.25-.42.52-.62.79l-.62.8-.07.09-.09-.06L42.48,32l-.3-.2-.3-.21-.29-.23-.29-.23c-.1-.07-.18-.16-.27-.24l-.53-.49-.27-.24c-.09-.08-.18-.15-.27-.22l-.3-.19-.15-.09-.16-.07-.17-.07L39,29.5l-.35-.08-.36,0A1.74,1.74,0,0,0,37.95,29.43Z"/><path class="cls-23" d="M48.7,26.38s0,.07.06.17l0,.15,0,.08,0,.08.07.15,0,.07,0,.06,0,.06,0,0,0,0H49a.34.34,0,0,1-.13,0l-.08,0-.08-.07a.53.53,0,0,1-.12-.2.62.62,0,0,1,0-.22.59.59,0,0,1,0-.19A.44.44,0,0,1,48.7,26.38Z"/></g><g class="cls-5"><path class="cls-24" d="M45.48,24.13l.09-.1.11-.1.16-.12.2-.12a2.32,2.32,0,0,1,.24-.11l.13,0,.14,0,.29-.05h.29l.28,0,.26.05a1.49,1.49,0,0,1,.23.07l.19.07.14.07.12.06-.13,0-.14,0-.19,0-.22,0-.25,0h-.27l-.28,0a2.28,2.28,0,0,0-.28,0l-.13,0-.13,0-.24.09-.21.1-.3.17Z"/><path class="cls-24" d="M37.66,24.06A1.94,1.94,0,0,1,38,23.9a2.53,2.53,0,0,1,.42-.09l.24,0H39a1.7,1.7,0,0,1,.25,0l.12,0,.12,0,.11,0,.1.05.09.05.08.06.14.11.09.1.08.08L40,24.32l-.11-.07-.15-.08-.18-.08-.1,0-.11,0-.11,0-.11,0-.24,0h-.47l-.22,0-.2,0-.29.06Z"/></g><g class="cls-5"><path class="cls-25" d="M24.77,46a1.45,1.45,0,0,1,0,.17s0,.1,0,.15v.07H25a.82.82,0,0,1,.17,0l0,0-.1.08-.08,0-.1,0h-.13l-.08,0a.21.21,0,0,1-.07-.05.27.27,0,0,1-.07-.15.49.49,0,0,1,0-.07v-.06a.5.5,0,0,1,.22-.29Z"/><path class="cls-25" d="M28.6,48s0,.12.06.29l.05.28a1.39,1.39,0,0,0,0,.14.22.22,0,0,0,0,.09h.05l.13,0,.26-.11.27-.12a1.12,1.12,0,0,1-.19.24,1.14,1.14,0,0,1-.25.19.66.66,0,0,1-.18.08h-.11a.26.26,0,0,1-.16-.07.43.43,0,0,1-.11-.21.84.84,0,0,1,0-.19,1.38,1.38,0,0,1,0-.31A1.19,1.19,0,0,1,28.6,48Z"/><path class="cls-25" d="M24.7,50s0,.18,0,.45,0,.29,0,.45,0,.16,0,.25a2,2,0,0,0,0,.24.3.3,0,0,0,0,.06h0l.21,0,.22-.08.2-.08.42-.16a2.38,2.38,0,0,1-.34.29l-.18.12-.22.12-.13.05-.15,0h-.2l0,0a.4.4,0,0,1-.08-.18,2,2,0,0,1,0-.55,3.69,3.69,0,0,1,.08-.45A3,3,0,0,1,24.7,50Z"/><path class="cls-25" d="M36.51,49.89a1.23,1.23,0,0,1,.1.18c0,.05.05.12.08.18l0,.09,0,0h0l0,0h0l0,0,.08-.06.16-.12a1.08,1.08,0,0,1,.18-.1.81.81,0,0,1-.07.2,1,1,0,0,1-.11.18l-.08.09-.06,0h0l0,0,0,0h-.09l-.06,0,0-.05a.34.34,0,0,1,0-.08.76.76,0,0,1,0-.12.91.91,0,0,1,0-.21A.73.73,0,0,1,36.51,49.89Z"/><path class="cls-25" d="M32.1,52.53s0,.14.06.35l0,.16,0,.18a1,1,0,0,0,.06.17.2.2,0,0,0,.07.1h.11l.16,0,.16-.08.15-.08.31-.18a1.34,1.34,0,0,1-.21.29l-.13.12-.16.12a.76.76,0,0,1-.22.09h-.26l0,0a.42.42,0,0,1-.17-.23.88.88,0,0,1,0-.22,1.59,1.59,0,0,1,0-.38A1.49,1.49,0,0,1,32.1,52.53Z"/><path class="cls-25" d="M28.47,54.93s0,.11.08.26,0,.17.08.25l0,.06,0,.05a.14.14,0,0,0,0,0h.06a.36.36,0,0,0,.09-.06,1.36,1.36,0,0,0,.16-.19l.16-.22a.82.82,0,0,1,0,.28.73.73,0,0,1-.12.28.47.47,0,0,1-.15.14l-.11,0h-.14a.36.36,0,0,1-.18-.17.72.72,0,0,1-.05-.18,1,1,0,0,1,0-.3A1,1,0,0,1,28.47,54.93Z"/><path class="cls-25" d="M21.21,55.56a2.06,2.06,0,0,1,.08.25c0,.07,0,.16.06.25l0,.13a.88.88,0,0,0,0,.12v0h0s0,0,0,0h0l0,0,.09-.08.08-.09.18-.18a.88.88,0,0,1-.05.26l0,.12a.75.75,0,0,1-.08.13l-.07.07,0,0,0,0h-.17a.21.21,0,0,1-.07-.06.36.36,0,0,1-.06-.1,1,1,0,0,1-.05-.32,1.52,1.52,0,0,1,0-.27A1.09,1.09,0,0,1,21.21,55.56Z"/><path class="cls-25" d="M39.69,53.53l0,.12c0,.08,0,.19.07.32a1.81,1.81,0,0,0,.14.4.23.23,0,0,0,.11.11h.06c.06,0,.06,0,.08,0a1,1,0,0,0,.18-.15l.16-.18.27-.36.27-.36a2.24,2.24,0,0,1-.14.44,2.69,2.69,0,0,1-.22.42,1.68,1.68,0,0,1-.16.22,1.1,1.1,0,0,1-.23.2.56.56,0,0,1-.17.06H40l-.1,0a.36.36,0,0,1-.15-.12.59.59,0,0,1-.08-.14,1,1,0,0,1-.07-.26,1.47,1.47,0,0,1,0-.23A1.7,1.7,0,0,1,39.69,53.53Z"/><path class="cls-25" d="M36.33,59s0,.11.1.27l.1.26.06.13,0,.06,0,0,0,0h.1l.06,0a1.17,1.17,0,0,0,.22-.14l.22-.18a.76.76,0,0,1-.1.28l-.08.12a.67.67,0,0,1-.13.12l-.09,0-.06,0h-.19l-.07,0-.05,0,0,0,0,0a.6.6,0,0,1,0-.09,1,1,0,0,1,0-.18,1.32,1.32,0,0,1,0-.3A1.12,1.12,0,0,1,36.33,59Z"/><path class="cls-25" d="M45.19,53.42a2.1,2.1,0,0,1,.14.18l.13.17.06.06h-.05l.06-.07.06-.1.12-.18a1.44,1.44,0,0,1,.15-.17.9.9,0,0,1,0,.23,1.06,1.06,0,0,1-.05.22.86.86,0,0,1-.05.13.55.55,0,0,1-.1.13l-.07,0h0a.19.19,0,0,1-.17-.05.42.42,0,0,1-.1-.13.81.81,0,0,1-.07-.23A.74.74,0,0,1,45.19,53.42Z"/><path class="cls-25" d="M48.27,49.37a2.35,2.35,0,0,1,.13.25l.12.25.06.13,0,.05s0,0,0,0h0l0,0,.07-.12.13-.24a2.4,2.4,0,0,1,.14-.24,1.16,1.16,0,0,1,0,.29,1.3,1.3,0,0,1-.06.29.75.75,0,0,1-.07.17l0,0a.22.22,0,0,1-.05.05l-.08,0h-.11a.26.26,0,0,1-.12-.1.61.61,0,0,1-.05-.09,1.15,1.15,0,0,1-.06-.17,1.51,1.51,0,0,1,0-.29A1.23,1.23,0,0,1,48.27,49.37Z"/><path class="cls-25" d="M50.77,50.3l.19.28.19.27.11.12,0,0h0a.36.36,0,0,0,.08-.1l.08-.15.14-.3c.08-.18.15-.3.15-.3a1.49,1.49,0,0,1,0,.34,1.77,1.77,0,0,1-.07.34,1.2,1.2,0,0,1-.08.2.47.47,0,0,1-.17.2.26.26,0,0,1-.1,0h-.11a.34.34,0,0,1-.13-.08.74.74,0,0,1-.13-.18,1,1,0,0,1-.08-.17,1.49,1.49,0,0,1-.05-.16A1.43,1.43,0,0,1,50.77,50.3Z"/><path class="cls-25" d="M48,58.54a1.72,1.72,0,0,1,.12.17l.1.17a1.45,1.45,0,0,0,.1.17l0,0,0,0h.06l.07,0L48.6,59l.05,0V59a.41.41,0,0,1,0,.07l0,.08a.34.34,0,0,1-.07.09.3.3,0,0,1-.13.08.27.27,0,0,1-.19,0,.37.37,0,0,1-.12-.11A.72.72,0,0,1,48,59a.83.83,0,0,1,0-.21A.66.66,0,0,1,48,58.54Z"/><path class="cls-25" d="M54.86,56.06l.29.21.14.09.14.06h0a.57.57,0,0,0,0-.16c0-.13,0-.27,0-.4s0-.26,0-.37,0-.37,0-.37a2.11,2.11,0,0,1,.12.35,2.81,2.81,0,0,1,.07.37,2,2,0,0,1,0,.44.74.74,0,0,1-.06.25l0,0,0,0a.3.3,0,0,1-.1.06h-.1l-.08,0a.59.59,0,0,1-.19-.13l-.13-.14A1.34,1.34,0,0,1,54.86,56.06Z"/><path class="cls-25" d="M54.14,47.27l.2.06.17.05h0l0,0h0v0l-.06-.2c0-.07,0-.13-.05-.19a1.16,1.16,0,0,1,0-.21.77.77,0,0,1,.16.14,1.15,1.15,0,0,1,.13.17.94.94,0,0,1,.1.23.46.46,0,0,1,0,.08.29.29,0,0,1,0,.06v0a.17.17,0,0,1,0,.07h0l0,0h0l0,0h-.07l-.08,0a.53.53,0,0,1-.18-.15A.62.62,0,0,1,54.14,47.27Z"/><path class="cls-25" d="M56.37,48.28l.34.19.33.2.17.08s0,0,0,0h0l0,0h0l0,0s0,0,0,0v0a2.08,2.08,0,0,0,0-.21L57,48.33c0-.14-.07-.27-.09-.38s-.07-.38-.07-.38a2.29,2.29,0,0,1,.21.33,3.21,3.21,0,0,1,.17.36c0,.07.05.14.08.21a1.82,1.82,0,0,1,.05.24.54.54,0,0,1,0,.07.3.3,0,0,1,0,.11l0,.05h0l0,0h-.08a.23.23,0,0,1-.11,0,.84.84,0,0,1-.22-.13,2.24,2.24,0,0,1-.3-.27A2.18,2.18,0,0,1,56.37,48.28Z"/><path class="cls-25" d="M59.76,52.14l.09.08.23.2.15.13.16.12,0,0h0a1.21,1.21,0,0,0,0-.21c0-.16,0-.32,0-.48s0-.3,0-.43,0-.42,0-.42a2.91,2.91,0,0,1,.16.39,3.85,3.85,0,0,1,.12.42,3.17,3.17,0,0,1,.08.5,1,1,0,0,1,0,.28v0l0,0,0,0h0l0,0,0,0-.08,0a.31.31,0,0,1-.18-.07.94.94,0,0,1-.18-.17L60,52.51A2,2,0,0,1,59.76,52.14Z"/><path class="cls-25" d="M59.41,55.83l.09.11.22.29.15.19.17.18,0,0s0,0,0,0h0s0,0,0,0l0,0a1.48,1.48,0,0,0,.06-.26c0-.19,0-.39.06-.57s0-.36,0-.51,0-.5,0-.5l.06.13a2.08,2.08,0,0,1,.1.36,3.53,3.53,0,0,1,.05.52,3.27,3.27,0,0,1,0,.61,1.36,1.36,0,0,1-.08.32.38.38,0,0,1-.05.09l0,0,0,0h-.08a.24.24,0,0,1-.14,0l-.07-.06a1.17,1.17,0,0,1-.18-.24,2.34,2.34,0,0,1-.12-.22A2.78,2.78,0,0,1,59.41,55.83Z"/></g><g class="cls-4"><path class="cls-16" d="M41.3,72.41c-14,.54-23-14.79-23-14.79h-.08a14,14,0,0,0,1.37,4.07C23,68.41,26.63,70.76,26.86,72s1.47,4.94,3.73,6.33c.38.23.57-.6.57-.6s.15.9.79,1S33.08,78,33.08,78s-.08.34.19.34.68-.38.68-.38-.08.45.22.53A10.07,10.07,0,0,0,37,77.05,28.63,28.63,0,0,0,46,76.73c2.22,1.09,3.88,1.57,3.7.48,1.09.61,1.13.22,1.13-.3.92.92,1.08.69,1.21.23a21.24,21.24,0,0,1,3.38-5.75c2.29-2.91,6.27-7.48,8.17-12.45a10.87,10.87,0,0,0,.73-3.34C63.09,62.78,53.77,71.94,41.3,72.41Z"/></g><g class="cls-5"><path class="cls-25" d="M52.79,74.28c-.84,1.72-1.35,2.6-2.1,1.09,0,.42-.21,1.55-1.47,1.09.13,1.18-2.94.17-4.12-1.09s-.25,1-1.39,1c-7.1.5-11.35-1.89-10.21-1s2,1.05,1.3,1.55-1.22.34-1.22-.38c-.8,1-1.85.84-2.19-.55-.46,1.22-.84,1.43-2-.21-1.76-2.77,1.09-2.56-.29-3.32a22.36,22.36,0,0,1-5.91-5.14c2,2.57,3.54,3.82,3.69,4.59.23,1.21,1.47,4.94,3.73,6.33.38.23.57-.6.57-.6s.15.9.79,1S33.08,78,33.08,78s-.08.34.19.34.68-.38.68-.38-.08.45.22.53A10.07,10.07,0,0,0,37,77.05,28.63,28.63,0,0,0,46,76.73c2.22,1.09,3.88,1.57,3.7.48,1.09.61,1.13.22,1.13-.3.92.92,1.08.69,1.21.23a21.24,21.24,0,0,1,3.38-5.75c.81-1,1.84-2.28,2.92-3.68l-.1.1C55.86,70.16,53.63,72.55,52.79,74.28Z"/></g><path class="cls-7" d="M15.81,60.5s-3.59.54-4.62,2.61C10.54,64.24,10.87,60.33,15.81,60.5Z"/><g class="cls-4"><path class="cls-10" d="M49.3,25.62c-1.09-.67-2.3.31-2.89.22-.44-.06-1-1.56-2.15-2.23a6.94,6.94,0,0,1,1.65,2.92c.68-.5,2.16-.59,2.3.09s-.27,1.35-2,1.58-2.57,1.49-3.43,3.2c-1.76-1.71-2.93-3.07-4-2.84s-1.94-.18-1.85-1.17,1.8-1.31,2.44-.45a3.91,3.91,0,0,1,1-2.27,11.92,11.92,0,0,0-1,1.12c-.39.48-.48.56-.79.53a1.61,1.61,0,0,0-2,1c-.45.9,0,1.82,1.43,2.16a6.23,6.23,0,0,1,2,1.33c.19-.38,1.65.9,2.31,1.44s.79.6,1.51-.64c1.13-1.81,2.79-2.45,2.75-2S45.41,31,45,31.89a6.05,6.05,0,0,1-.42.84,2.2,2.2,0,0,0,.38-.5,13.8,13.8,0,0,1,3.92-4.32C50.12,27.21,50.4,26.29,49.3,25.62Z"/></g><path class="cls-14" d="M43.08,23.51a4.49,4.49,0,0,0-3.22,3.43C39.58,26.3,40.29,23.76,43.08,23.51Z"/><path class="cls-14" d="M38.76,26.8s-1.29-.25-1.4.89C37.25,28.09,36.75,26.12,38.76,26.8Z"/><path class="cls-26" d="M39.66,37.17a2.72,2.72,0,0,0-.52,2.29C39.47,40.76,37.38,38.21,39.66,37.17Z"/><path class="cls-26" d="M43.91,37.23a2.72,2.72,0,0,0-.52,2.29C43.72,40.83,41.63,38.28,43.91,37.23Z"/><g class="cls-5"><path class="cls-27" d="M58.15,38.6q-.83-1.31-1.58-2.54c.64,1.42,2,4.62.94,4.06-1.37-.72-1.37-1.63-1.37-1.63s-.26,5.1-1.11,4.84S52.8,40.5,52.8,40.5a28.57,28.57,0,0,1-.33,3.4c-1.18-.13-2.94-2-2.94-2a10.5,10.5,0,0,1-.92,4.84,33.91,33.91,0,0,1-2.48-3.53,7.61,7.61,0,0,1-3.27,3.46s-.52-.65-.26-3.33a15.07,15.07,0,0,1-3.4,3.6A8.1,8.1,0,0,1,39.4,44a8.74,8.74,0,0,1-4,2.87,6.89,6.89,0,0,1-.13-3.79,8.63,8.63,0,0,1-4.12,1.7s-.33-1.31,1.31-4a6.63,6.63,0,0,1-4.31,1.18A11.2,11.2,0,0,1,30,37.82c-1.91.68-2.34.09-2.22-.81a23.64,23.64,0,0,0-1.12,2.56,13.62,13.62,0,0,1,1.87-.71c-1.47,1.31-1.6,4.35-1.6,4.35s1.24.36,3.86-.65a4.49,4.49,0,0,0-.33,3.72c.49.13,1.9,0,3.63-1.37-.46,1.31.56,3.69,1,3.76,1.6.07,3.22-2.27,3.22-2.27s.14,2.55.78,2.19a24.42,24.42,0,0,0,2.74-2.94s-.05,2.63.67,2.63c1.91-.05,3.5-2.89,3.5-2.89s2.11,3.14,2.94,2.84c1.7-.72,1.24-4.79,1.24-4.79s2.47,2.11,2.94,1.85.21-1.7.21-1.7.93,1.75,2.16,1.24,1.13-4.33,1.13-4.33a9,9,0,0,0,2.27,1.91C60.05,43,60.26,42.36,58.15,38.6Z"/></g><path class="cls-18" d="M41.62,19.62c2-1.18,5.58-1.25,7.74,2.89a3.45,3.45,0,0,0,.26.42c-1.44-2.84-3-4.85-6.32-4.59a5.43,5.43,0,0,0-2.6.91C41.21,19.05,41.6,19.08,41.62,19.62Z"/><path class="cls-20" d="M41.77,19.19s.28-.66-1.22-2.25-1.92-5.81.56-6.75,3.85,1.88,3.8,3.14c1.64-2.39,4.31-1.08,3.24,2.86,1.08-.52,1.69.89.7,2.3,1-.19,1.08,2.3-.19,2.77C47.82,19.61,44.59,17,41.77,19.19Z"/><path class="cls-28" d="M46.78,18.52c-1.14-1.35-1.47-1.8-3-1.53s-4.11-1.91-3.4-4.67a2.58,2.58,0,0,1,2.78-2,2.38,2.38,0,0,0-2-.09c-2.49.94-2.06,5.16-.56,6.75s1.22,2.25,1.22,2.25c2.81-2.2,6,.42,6.89,2.06a1.17,1.17,0,0,0,.27-.15A28.51,28.51,0,0,1,46.78,18.52Z"/><g class="cls-5"><path class="cls-21" d="M49.11,16.33a.75.75,0,0,0-1-.14l0-.18a6,6,0,0,1-.4.81A1.71,1.71,0,0,1,49.11,16.33Z"/><path class="cls-21" d="M47,12.16A2.16,2.16,0,0,0,45,13.28a2.85,2.85,0,0,1-.12.84A3.77,3.77,0,0,1,47,12.16Z"/></g><path class="cls-22" d="M43,10.9s1.41.56,1.37,2.85C44.42,14.68,45.35,11.38,43,10.9Z"/><path class="cls-22" d="M47.49,12.77s1,1,.05,2.93C47.21,16.5,49.27,14.08,47.49,12.77Z"/><path class="cls-22" d="M48.91,16.48a1.52,1.52,0,0,1-.3,1.71C48.33,18.62,49.79,17.44,48.91,16.48Z"/><path class="cls-29" d="M23.58,46.35s-5.47,5.73-2.34,13C19,57.64,17.94,50.52,23.58,46.35Z"/><path class="cls-30" d="M52.7,80c.08.34.18.69.29,1C53,80.9,52.86,80.45,52.7,80Z"/><path class="cls-10" d="M53,81.05v0Z"/><path class="cls-29" d="M21.66,60.78s.48,1.23.69.69S21.38,59.89,21.66,60.78Z"/><path class="cls-22" d="M37.66,24.21a2.54,2.54,0,0,1,2.46.39A1.82,1.82,0,0,0,37.66,24.21Z"/><path class="cls-22" d="M45.91,24.23A2.36,2.36,0,0,1,48.37,24,1.64,1.64,0,0,0,45.91,24.23Z"/><path class="cls-22" d="M38,22.64S35.74,27.11,32.53,32C31,34.64,36.26,24.65,38,22.64Z"/><path class="cls-7" d="M20,43.2s-4.56,2-5.34,5.52C14,51.9,12.2,45.54,20,43.2Z"/></g></g></g></svg>