<svg xmlns="http://www.w3.org/2000/svg" viewBox="0 0 100 100"><defs><style>.cls-1{isolation:isolate;}.cls-2{fill:#e5c4b7;}.cls-3{fill:#3a3438;}.cls-10,.cls-12,.cls-15,.cls-4,.cls-6{mix-blend-mode:multiply;}.cls-5{fill:#63230d;}.cls-10,.cls-12,.cls-18,.cls-6{opacity:0.5;}.cls-16,.cls-7{fill:#5d2e17;}.cls-11,.cls-12,.cls-17,.cls-18,.cls-8{fill:#a35129;}.cls-10,.cls-9{fill:#ce6f49;}.cls-11{opacity:0.3;}.cls-11,.cls-16,.cls-17,.cls-18{mix-blend-mode:screen;}.cls-13{fill:#5b2710;}.cls-14{fill:#fff;}.cls-15{fill:#7a3d1e;}</style></defs><title>horse</title><g class="cls-1"><g id="Layer_2" data-name="Layer 2"><g id="Layer_1-2" data-name="Layer 1"><rect class="cls-2" width="100" height="100"/><path class="cls-3" d="M62,80.54a17.73,17.73,0,0,0-2,3.66c-.47,1.31.36,1.47,1.78,1.83S65,86,65.2,84.83s.05-4.18-1.1-4.6A2.32,2.32,0,0,0,62,80.54Z"/><path class="cls-3" d="M44.55,70.45s1.1-3.24,2.35-3.3,2.77,1.31,3.19,3.19c.37,1.68.16,2-.47,2.67s-2.51,1.83-4,1.36S44.18,71.91,44.55,70.45Z"/><path class="cls-3" d="M51.4,84.46a20.63,20.63,0,0,0-2.2,3.77c-.37,1,.31,1.31,1.57,1.67s4.6-.37,4.6-1,.16-4-1.31-4.71A2.63,2.63,0,0,0,51.4,84.46Z"/><path class="cls-3" d="M70.18,82.18a5,5,0,0,0-1.32,3c-.21,1.57.51,1.91,2.53,1.88s2.79-.41,2.94-1.45A5.81,5.81,0,0,0,74,82.32C73.52,81.73,71.6,80.3,70.18,82.18Z"/><g class="cls-4"><path class="cls-3" d="M54.06,84.15a2.63,2.63,0,0,0-2.67.31,24.45,24.45,0,0,0-1.94,3.17h0s1.57-2.42,2.1-1,1,.57,1.21.25.6-.5.82.71-1.38,2.9-4.5,1.31c.09.53.71.75,1.65,1,1.26.37,4.6-.37,4.6-1S55.53,84.83,54.06,84.15Z"/></g><g class="cls-4"><path class="cls-3" d="M64.11,80.23a2.32,2.32,0,0,0-2.09.31,18.52,18.52,0,0,0-1.43,2.33h0s1.21-1.28,1.49-1.21.43.64.43.64a3.63,3.63,0,0,1,1-.32c.28,0,.78.57.82,1.92s-2.88,2.31-4.41.71h0c-.16.95.63,1.11,1.89,1.44,1.41.36,3.29-.05,3.45-1.2S65.25,80.64,64.11,80.23Z"/></g><g class="cls-4"><path class="cls-3" d="M74,82.32c-.45-.59-2.37-2-3.79-.14A4.8,4.8,0,0,0,69,84.37c.25-.34,1.09-1.4,1.77-1.43s.68,1,1.28.25,1.25-.07,1.28,1.07-1,3.4-4.46,1.85c.2.78,1,1,2.51.94,2,0,2.79-.41,2.94-1.45A5.81,5.81,0,0,0,74,82.32Z"/></g><g class="cls-4"><path class="cls-3" d="M50.09,70.34c-.42-1.88-1.93-3.24-3.19-3.19s-2.35,3.3-2.35,3.3c-.37,1.47-.37,3.45,1.1,3.92a2.93,2.93,0,0,0,1.75-.06c-.58-.25-1.09-.63-.63-1.09.86-.86.72-.88-.37-1.27s-.44-2.71.88-3,2.73,1.15,2.54,3.87C50.28,72.28,50.42,71.83,50.09,70.34Z"/></g><path class="cls-5" d="M58.14,61.14A6.37,6.37,0,0,0,60.81,68c1.78,1.26,2.51.73,2.25,3.19s-.52,7-.89,8.05-.84,2.2-.84,2.2a4.39,4.39,0,0,0,1.2-.63c.57,1,.78,1.41.89.47.73.52.63.68.52-.68,1.31.16.94-.1.21-.68s-1-1,.52-4.87,3.71-7.32,2.46-8-2.35-2.4-.42-7.43c-.31-3.66-.89-6.64-2.46-5.81S58.14,61.14,58.14,61.14Z"/><g class="cls-6"><path class="cls-5" d="M64.16,79.91c-.73-.58-1-1,.52-4.87s3.71-7.32,2.46-8-2.35-2.4-.42-7.43c-.31-3.66-.89-6.64-2.46-5.81s-6.12,7.32-6.12,7.32A6.27,6.27,0,0,0,59.69,67v0s-1.08-2.93.35-3.73,2.16-3.35,3.75-3.91,1.2,2.48.64,4.39-.32,3,1.2,4.15.24,2.24-1,6.15-1.8,5.07-1.67,6,0,1-.27.41-.56,0-.93.37a.18.18,0,0,1-.26,0l-.23.55a4.39,4.39,0,0,0,1.2-.63c.57,1,.78,1.41.89.47.73.52.63.68.52-.68C65.25,80.75,64.89,80.49,64.16,79.91Z"/></g><path class="cls-7" d="M70.24,35.45s1.89-3.49,2.88-3.27a15.27,15.27,0,0,1,6.15,4.1c1.61,2,1.27,2.49.88,3.55s-.55,2.6,1.66,4.54c-.44.61-1.55.11-1.55.11s1.77,3.6.67,5.65-1.88,3.1-1.38,4.32,1.11,1.88,2.11,1.11c-.94,1.83-1.27,2.22-2.27,1.5,1.17,1.72,1.11,3-.72,4.49-1.55,1.16-1.83,1.33-1.39,2.22l.55,1.11s-2.38-1.16-2.1-1.88.66-1.66.66-1.66a2.63,2.63,0,0,1-1.11.33c1.27-1.44,1.22-1.94,1-2.49s-1.44-2.55-1.44-2.55S79,47.75,76.45,43.76A92.22,92.22,0,0,0,70.24,35.45Z"/><g class="cls-6"><path class="cls-7" d="M81.53,55.79c-.75,1.15-2,.7-3,.17,1,1.86.93,3.81-.51,4.53a2.22,2.22,0,0,0-.42-2.75c-.84-.84-1.35-2,.58-6.25,2.45-5.74.45-10.31.52-9.09s-.26,3-.52.77c-.13-2.71-5.24-7.26-6-9.39a1.42,1.42,0,0,1,0-1.12,14.53,14.53,0,0,0-2,2.79,92.22,92.22,0,0,1,6.21,8.31c2.55,4-1.61,12.85-1.61,12.85s1.22,2,1.44,2.55.28,1.05-1,2.49a2.63,2.63,0,0,0,1.11-.33s-.39.94-.66,1.66,2.1,1.88,2.1,1.88l-.55-1.11c-.44-.89-.17-1.05,1.39-2.22,1.83-1.44,1.88-2.77.72-4.49C80.33,57.74,80.68,57.42,81.53,55.79Z"/></g><path class="cls-8" d="M26,21.43s-.94,1.48-1.68,2.69-3.7.94-1,3.83a31,31,0,0,0-3.63,13.38c-1.07-.13-1,.46-.76,1.28-.91-.22-.93.28-.53.74A5.53,5.53,0,0,0,22,45c.1.48,1.74.56,4.33-.11,1.64-.6,2.12-1.12,2.24-2.48a5.41,5.41,0,0,1,2.15-4.23,56.31,56.31,0,0,1,5.19-3.51A24.69,24.69,0,0,1,38,40.38c.64,2.93.61,4.28.05,5.27-1.86,3.3-3,5.59-2.87,6.23a14.35,14.35,0,0,0,.53,1.54s-3.67,5.75-4.37,11.29c-.48,2.93-.47,3.22,1,3.88,3,1.38,7.5,3.6,9.59,4.65a13.07,13.07,0,0,0,4.71,1.7c-.34-.39-1.34-1.45-1.26-1.64a4.33,4.33,0,0,1,1-.7A11.43,11.43,0,0,1,44.56,72,15.6,15.6,0,0,1,45,69.56a7.09,7.09,0,0,1-2.38,1.82c-1.08.32-1.24.16-3-1.48a51.54,51.54,0,0,0-4-3.27s6.47-4.15,7.58-6.54a10.82,10.82,0,0,0,2.2.92c2.64,2.87,3.55,3.91,5.67,6.11S54.95,71.5,55,72.3s-1.08,7.35-2,8.94-2.28,3.11-2.44,4.59c.88-.76.92-.92.92-.92a10.72,10.72,0,0,0,.84,1.88c.16,0,.72-1.32.92-1.36s.64.76.8.8,0-1.21-.07-1.69c1,.25,1.08.19,1.14.11s-1.43-1-.95-2.25,2.43-5,3.43-7.82,1.24-3.23,0-5c-1-1.68-.2-5.63.56-7.54,0,0,2.07-.21,2.24-.68s2.15-4.91,4.47-7.13c-.2,2.66-.27,3.4,1.31,5.38a73.83,73.83,0,0,1,5.69,7.86c1.17,2,.85,2.87.59,5.16s-1.18,8.44-2.68,9.7c-.33.33,1,.08,1.45-.46.49,1.09.46,1.31,1.26-.14,1.55,1.09,2.23,1.31,1.85.47s-1-1.47-1.25-2.08S73,79,73.33,77.62s1.87-6.1,2.68-7.91,1.06-2,.16-2.5-4-3.36-1.33-10c2.56-6.34,5-10.17,1.17-15.92s-9-8.79-11-8.46c-2.92.48-4.15,3.14-6.7,4.58-3,1.12-6.92,2.13-7.93,1.44a4.26,4.26,0,0,0-2.45-3.24c1.22,0,1.49-.59,1.49-.59s-1.6-.21-1.54-1.71.11-4.68-.75-5.53a11.85,11.85,0,0,0-1.76-1.44,8.64,8.64,0,0,0,.8-1.07c.16-.32-.69,0-1.22-.37s-.71-1.06-.8-2.45c-.11-1.76-2.39-4.15-3.67-5.59a39.25,39.25,0,0,0-.56-4c-.41-2-.24-2.93-.51-2.93a25.55,25.55,0,0,0-3.84,3.55,4.87,4.87,0,0,0-1.24,1.93,4.59,4.59,0,0,0-2.45-1.31c-1.29-.11-3.79,1.64-4.71.37a19.24,19.24,0,0,0-4.33-2.1c-.4,0-.54,4.6,0,5.89s1.53,1.21,2.15,1.42S25.61,20.91,26,21.43Z"/><path class="cls-9" d="M25.79,19.26s.08-.16-.66-.53a2.26,2.26,0,0,1-1.49-2.56,6.08,6.08,0,0,0,.11-2s2.78,1,2.51,3A8.43,8.43,0,0,0,25.79,19.26Z"/><path class="cls-9" d="M25.79,19.22a.16.16,0,0,0,0,0A.08.08,0,0,0,25.79,19.22Z"/><path class="cls-10" d="M26.27,17.16c.27-2-2.51-3-2.51-3a6.08,6.08,0,0,1-.11,2,3,3,0,0,0,0,.43l.06-.08a6.22,6.22,0,0,1,.64-1.59c.24-.18,1.45.79,1.45,2.22s-.84,1.74-1.85.59a2.92,2.92,0,0,0,1.22,1c.53.27.63.43.66.49A9.13,9.13,0,0,1,26.27,17.16Z"/><g class="cls-6"><path class="cls-8" d="M34.29,15.48c-.26.67.12,1.13.39,2.29s.72,1.34.63,2.33-.85,2-.72,1.26c.44-1.12.13-2.42,0-2s-.22.32-1.52,1.13S29.7,23,29.21,22.17c-.54.9-.76,2.78-1.25,2.2a12.4,12.4,0,0,1-2.33-3.9c-.31-.63-.64-.71-.64-.71a7.24,7.24,0,0,1-1.25-.38c1.8.44,2.24-.95,2.32-2s.78-1.71-.2-2.88a14.38,14.38,0,0,0-1.47-1.49,19.3,19.3,0,0,1,2.75,1.49c.52.72,1.54.47,2.57.14A3.92,3.92,0,0,1,34.29,15.48Z"/></g><path class="cls-11" d="M25.7,24s1.59,2,2.42.71a4.44,4.44,0,0,1,4.83-1.76c2.33.48.42,3.43,2.09,4.79s.92,4.15-2.33,3.27c-1.5-.4.11,1.66-3.08,3.55a8.16,8.16,0,0,0-4.18,5.1c-.68,1.63-1.49.71-2.24.32s-2.33,1.27-2.13-1.6,2.24-10,7-10.4c-2.68-.24-3.35.31-3.35.31s-.51-.8.67-1.91c.45-.42-1.86.57-1.58-.4S25.22,23.06,25.7,24Z"/><g class="cls-4"><path class="cls-8" d="M39.56,13.61c.48,2.8-.49,5.48-2.19,6.57-1,.55,2.43.49,3.35,7.25.55,6,3.53,11.62,7.24,12.29.48.24-.18-.36,0-.36a13.48,13.48,0,0,0,3.41,1.76c1,.31-.61-1.34,1-1.34s7.69-1.91,9.39-3.14.21-.21-1-.11c-.52,0-.36-.48.16-1.23a13.61,13.61,0,0,1-2.66,2.13c-3,1.12-6.92,2.13-7.93,1.44a4.26,4.26,0,0,0-2.45-3.24c1.22,0,1.49-.59,1.49-.59s-1.6-.21-1.54-1.71.11-4.68-.75-5.53a11.85,11.85,0,0,0-1.76-1.44,8.64,8.64,0,0,0,.8-1.07c.16-.32-.69,0-1.22-.37s-.71-1.06-.8-2.45c-.11-1.76-2.39-4.15-3.67-5.59a39.25,39.25,0,0,0-.56-4c-.41-2-.24-2.93-.51-2.93h0A13.73,13.73,0,0,0,39.56,13.61Z"/></g><path class="cls-7" d="M27.72,16.34c-1.28.19-1.55.8-1.76,1.73a3,3,0,0,0,.11,2.23,2.61,2.61,0,0,1,.48-1.22s-.83,1.73-.11,2.87A17.62,17.62,0,0,0,28,24s.93-2.87,1.95-3.46a2.22,2.22,0,0,0-.32,1.36A27.32,27.32,0,0,0,33,20a2.84,2.84,0,0,0,1.35-2.74,4.87,4.87,0,0,1,0-2,1.39,1.39,0,0,0-.06.18,4.59,4.59,0,0,0-2.45-1.31c-1.29-.11-3.79,1.64-4.71.37l-.07,0A1.93,1.93,0,0,0,27.72,16.34Z"/><path class="cls-7" d="M38.51,20.21A11,11,0,0,1,41.23,27c.48,4.88,2.42,10.73,6.25,12.09a2.13,2.13,0,0,1-.57-1.28,14,14,0,0,0,3.78,2.51,3.36,3.36,0,0,1-.34-1.46,4.26,4.26,0,0,0-2.45-3.24c1.22,0,1.49-.59,1.49-.59s-1.6-.21-1.54-1.71.11-4.68-.75-5.53a11.85,11.85,0,0,0-1.76-1.44,8.64,8.64,0,0,0,.8-1.07c.16-.32-.69,0-1.22-.37s-.71-1.06-.8-2.45c-.11-1.76-2.39-4.15-3.67-5.59A5.06,5.06,0,0,1,38.51,20.21Z"/><path class="cls-12" d="M24.08,25.8s.66-1.27,2.07,0c-.66-1.32-1.09-1.75-1.61-1S24.08,25.8,24.08,25.8Z"/><path class="cls-12" d="M29.31,25.31A2.41,2.41,0,0,1,32,24.68c.4.11-1-1.18-1.27-1.1S28.91,25.31,29.31,25.31Z"/><path class="cls-13" d="M24,25.54s.66-1.27,2.07,0c-.66-1.32-1.09-1.76-1.61-1S24,25.54,24,25.54Z"/><path class="cls-13" d="M29.29,25.05a2.41,2.41,0,0,1,2.65-.63c.4.11-1-1.18-1.27-1.1S28.89,25.05,29.29,25.05Z"/><path class="cls-12" d="M26.22,27.47c0,.46-.19.84-.41.85s-.39-.37-.39-.83.19-.84.41-.85S26.23,27,26.22,27.47Z"/><path d="M26.16,27.47c0,.38-.16.7-.34.7s-.33-.3-.32-.69.16-.7.34-.7S26.16,27.09,26.16,27.47Z"/><path class="cls-14" d="M26.06,27.25c0,.15,0,.28-.13.29s-.16-.11-.16-.26,0-.28.13-.28S26.06,27.1,26.06,27.25Z"/><path class="cls-12" d="M31.92,27.61c0,.47-.19.86-.42.87s-.4-.38-.4-.85.19-.86.42-.87S31.93,27.14,31.92,27.61Z"/><path d="M31.85,27.61c0,.38-.16.7-.34.71s-.33-.31-.32-.69.16-.7.34-.71S31.85,27.23,31.85,27.61Z"/><path class="cls-14" d="M31.75,27.39c0,.15,0,.28-.13.29s-.16-.11-.16-.26,0-.28.13-.28S31.74,27.24,31.75,27.39Z"/><path class="cls-12" d="M24.19,29.22l.08-.05.24-.15.38-.21c.15-.07.32-.16.51-.23s.4-.15.63-.23.47-.14.72-.2a7.37,7.37,0,0,1,.79-.14L28,28l.42,0a8.14,8.14,0,0,1,.83,0h.2l.2,0,.39.06.19,0,.18,0,.35.09c.11,0,.23.05.33.09l.31.12a5.16,5.16,0,0,1,.52.21l.38.2.33.18-.36-.12-.4-.15-.25-.07-.28-.08a5.64,5.64,0,0,0-.63-.15l-.35-.07-.18,0-.19,0a7.49,7.49,0,0,0-.77-.07,7.09,7.09,0,0,0-.8,0H28l-.4,0c-.26,0-.52.07-.77.1l-.36.08-.35.07c-.23.06-.44.11-.63.17-.39.11-.71.23-.93.32l-.26.11Z"/><path class="cls-9" d="M35.91,19.26a3.7,3.7,0,0,1,.39-4.41c1.84-2.48,2.48-3.27,2.23-1.14S38.14,18.37,35.91,19.26Z"/><g class="cls-6"><path class="cls-7" d="M34.37,17.31a4.87,4.87,0,0,1,0-2,1.39,1.39,0,0,0-.06.18,4.59,4.59,0,0,0-2.45-1.31c-1.29-.11-3.79,1.64-4.71.37l0,0c.71,1.11,2.25.63,3.64.14A2.33,2.33,0,0,1,33.82,17c-.07,1.73-2,3.05-3.53,3.83a4.07,4.07,0,0,1,.34-1.49s-2.95,1.73-3,3.35c-1.83-1.56-.41-4.71-.41-4.71a1.42,1.42,0,0,0-1.15,1.09,3,3,0,0,1,0-1.36c0,.11-.06.22-.08.33a3,3,0,0,0,.11,2.23,2.61,2.61,0,0,1,.48-1.22s-.83,1.73-.11,2.87A17.62,17.62,0,0,0,28,24s.93-2.87,1.95-3.46a2.22,2.22,0,0,0-.32,1.36A27.32,27.32,0,0,0,33,20,2.84,2.84,0,0,0,34.37,17.31Z"/></g><g class="cls-6"><path class="cls-9" d="M36.31,14.85a5.69,5.69,0,0,0-.46.73h0a9.16,9.16,0,0,1,2-2c.67-.28.05,3-1,4.27s-1.45.28-1.48-.78v0a3.37,3.37,0,0,0,.51,2.22c2.23-.89,2.38-3.42,2.62-5.55S38.14,12.37,36.31,14.85Z"/></g><g class="cls-6"><path class="cls-8" d="M76.16,67.21c-.91-.48-4-3.36-1.33-10,2.56-6.34,5-10.17,1.17-15.92a26.47,26.47,0,0,0-2.32-3l.12.15c3.43,4.47,3.27,8.38,1.68,13.18S71,62,68.2,59,66.37,50.46,67,46.87s-1.68-.64-2.88,4.47S59.66,58,59.34,55.17s-2.8-7-3.51-6.07,1.76,4.87,1.52,9.58-3.27,8.3-7,4.39-4.39-5.91-3.91-9.26-.56-5.27-1.6-1.12-3.59,5.59-6,2.4-1.89-5.3-1-7.11,2.31-1.53,1.47-6.3S37,34.46,37.74,33.77c4.49-4.77-.88-6.85-.69-7.59s.19-1.62-.09-1.25c-.84,1.53-1.11,2,.32,3.1s2,2.73.14,4.4-2.59,1.25-2.18.83c1.16-.65,1.34-2.41.7-1.76a1.92,1.92,0,0,1-2.78.28c-.28.51.28,1.48,1.06,1.67-.37,1.34-2.13,2-3.93,2.87s-3.47,2.13-3.38,4S25.17,42.4,24,41s-3.51.48-3.51-.64c.24-7.66,4.07-11.81,4.07-11.81-1.6,0,.64-2.24.08-1.84s-.8.48-1.68-.4a1.38,1.38,0,0,1-.42-.88c-.43.44-.43,1.11.85,2.48a31,31,0,0,0-3.63,13.38c-1.07-.13-1,.46-.76,1.28-.91-.22-.93.28-.53.74A5.53,5.53,0,0,0,22,45c.1.48,1.74.56,4.33-.11,1.64-.6,2.12-1.12,2.24-2.48a5.41,5.41,0,0,1,2.15-4.23,56.31,56.31,0,0,1,5.19-3.51A24.69,24.69,0,0,1,38,40.38c.64,2.93.61,4.28.05,5.27-1.86,3.3-3,5.59-2.87,6.23a14.35,14.35,0,0,0,.53,1.54s-3.67,5.75-4.37,11.29c-.48,2.93-.47,3.22,1,3.88,3,1.38,7.5,3.6,9.59,4.65a13.07,13.07,0,0,0,4.71,1.7c-.34-.39-1.34-1.45-1.26-1.64a4.33,4.33,0,0,1,1-.7A11.43,11.43,0,0,1,44.56,72,15.6,15.6,0,0,1,45,69.56a7.09,7.09,0,0,1-2.38,1.82c-1.08.32-1.24.16-3-1.48a51.54,51.54,0,0,0-4-3.27s6.47-4.15,7.58-6.54a10.82,10.82,0,0,0,2.2.92c2.64,2.87,3.55,3.91,5.67,6.11S54.95,71.5,55,72.3s-1.08,7.35-2,8.94-2.28,3.11-2.44,4.59c.88-.76.92-.92.92-.92a10.72,10.72,0,0,0,.84,1.88c.16,0,.72-1.32.92-1.36s.64.76.8.8,0-1.21-.07-1.69c1,.25,1.08.19,1.14.11s-1.43-1-.95-2.25,2.43-5,3.43-7.82,1.24-3.23,0-5c-1-1.68-.2-5.63.56-7.54,0,0,2.07-.21,2.24-.68s2.15-4.91,4.47-7.13c-.2,2.66-.27,3.4,1.31,5.38a73.83,73.83,0,0,1,5.69,7.86c1.17,2,.85,2.87.59,5.16s-1.18,8.44-2.68,9.7c-.33.33,1,.08,1.45-.46.49,1.09.46,1.31,1.26-.14,1.55,1.09,2.23,1.31,1.85.47s-1-1.47-1.25-2.08S73,79,73.33,77.62s1.87-6.1,2.68-7.91S77.07,67.69,76.16,67.21Z"/></g><path class="cls-15" d="M19.8,42.18s-.08-.22.1-.21.21.13.17.72-.06,1.07.39,1,.68-.49.34-1-.82-1.08-1-1S19.73,42.35,19.8,42.18Z"/><path class="cls-15" d="M22.87,41.88s.08.37.15.35,0-.54.2-.48a.85.85,0,0,1,.57.9c0,.62.05,1,.35.86s.71-.19.41-.7a3.08,3.08,0,0,0-1.08-1.2C22.92,41.26,22.84,41.36,22.87,41.88Z"/><path class="cls-15" d="M35.69,32.18l-.11.09-.14.12-.16.12c-.06,0-.12.08-.19.12a1.92,1.92,0,0,1-.2.1l-.11,0-.11,0h-.22a1.52,1.52,0,0,1-.22,0,1.64,1.64,0,0,1-.2-.08l-.18-.1a4.27,4.27,0,0,1-.36-.25.74.74,0,0,0,.05.12,1.29,1.29,0,0,0,.2.28,1.36,1.36,0,0,0,.17.16,1.14,1.14,0,0,0,.22.14l.13.05.14,0a.5.5,0,0,0,.15,0h0a1.82,1.82,0,0,1,0,.25c0,.1,0,.21-.09.34l-.08.19,0,.1-.06.1-.12.21-.16.21a4.46,4.46,0,0,1-.92.78,14.1,14.1,0,0,1-1.26.71c-.46.24-1,.48-1.44.77a7,7,0,0,0-1.45,1,3.85,3.85,0,0,0-1,1.56,6,6,0,0,0-.24,1.83c0,.3,0,.59,0,.87a1.91,1.91,0,0,1-.18.77,1.33,1.33,0,0,1-.54.51,6.11,6.11,0,0,1-.71.33c-.48.21-.94.35-1.36.51l-.31.11-.31.09-.56.17c-.35.11-.66.19-.91.26l-.59.16L22,45l.21,0,.6-.11c.26-.05.57-.11.93-.2l.58-.14.31-.07.32-.1c.43-.14.91-.27,1.39-.46a6.19,6.19,0,0,0,.75-.33A1.55,1.55,0,0,0,27.7,43a2.23,2.23,0,0,0,.23-.88c0-.3,0-.6,0-.89a5.64,5.64,0,0,1,.23-1.72A3.55,3.55,0,0,1,29.11,38a7,7,0,0,1,1.37-1c.48-.29,1-.55,1.42-.8a11.79,11.79,0,0,0,1.25-.77,4.11,4.11,0,0,0,.91-.86l.15-.22.12-.23.05-.11,0-.11.07-.2a2.55,2.55,0,0,0,.09-.61h.14a.65.65,0,0,0,.15,0L35,33l.13-.07.12-.08.19-.18.14-.18a.68.68,0,0,0,.09-.16l.06-.13a1,1,0,0,0,0-.12Z"/><path class="cls-14" d="M25.41,28.57a7.27,7.27,0,0,1,6-.12A6.24,6.24,0,0,0,25.41,28.57Z"/><path class="cls-16" d="M28.45,17.29a5.9,5.9,0,0,0-1.08,4.13A3,3,0,0,1,28.45,17.29Z"/><path class="cls-16" d="M28,16.8s-1,0-1.6,1.38C26.12,17.22,27.3,16.48,28,16.8Z"/><path class="cls-16" d="M27.8,15.3s.7.58,2.68-.35C30,15.77,28.33,16.47,27.8,15.3Z"/><g class="cls-6"><path class="cls-7" d="M50.34,38.89c0-.13-.06-.25-.1-.38-2.6.16-4.34-3.33-4.34-3.33a4.05,4.05,0,0,0,.44,1.65c-2.87-1.13-2.69-5.12-2.69-5.12a2.36,2.36,0,0,0,2.08.09c-2-.52-3.73-3.12-3.65-6.25s-2.34-5.47-1-6.25c.72-.43,1.67.45,2.38,1.34a27,27,0,0,0-3-3.73,5.06,5.06,0,0,1-1.94,3.31A11,11,0,0,1,41.23,27c.48,4.88,2.42,10.73,6.25,12.09a2.13,2.13,0,0,1-.57-1.28,14,14,0,0,0,3.78,2.51A3.36,3.36,0,0,1,50.34,38.89Z"/></g><path class="cls-16" d="M42.16,20.31a4.39,4.39,0,0,1,1.65,3.47C43.77,24.79,44.82,21.16,42.16,20.31Z"/><path class="cls-16" d="M45.13,27.17s2.13.22,2.34,5.32C47.9,28.45,46.72,27.17,45.13,27.17Z"/><path class="cls-16" d="M74,33.38s4.63,1.92,5.11,5.91C79.86,37.61,78,34.26,74,33.38Z"/><path class="cls-16" d="M80.24,46.2s1.05,3-.57,5.06A3.9,3.9,0,0,0,80.24,46.2Z"/><path class="cls-11" d="M41.3,33.51s1.42,5.6,6.91,6.8c2.09.77,4.06,2.31,4.28,1.1S59.3,39.33,63,37c2.63-1.76-1.65-1,0-2.42s6.7-.33,10.32,4.72,1,13.06-2.41,13.83-2.42-5.38-3.07-8.78S64.6,48,63.14,50.52c-1.76,3.07-2.2,1.65-4.72-1.65S54,47,55.12,50.74s1.21,9.22-2.19,9.77-5.74-4.15-5.27-10.1C48,46.24,46,47.78,44.48,51S38,53.7,39.76,48.76s2-5.81.77-9C38.33,34,40.42,32.09,41.3,33.51Z"/><path class="cls-17" d="M48.23,51.26a13.32,13.32,0,0,0,4.51,11C53.78,63.52,46,59.93,48.23,51.26Z"/><path class="cls-17" d="M68.71,45.59s-2,6.48.23,12.49C69.4,59.93,65,54.38,68.71,45.59Z"/><path class="cls-18" d="M23.2,40c-.64-.32-1.6.21-1.6.21s-.26-6.89,4.5-11.59A4.88,4.88,0,0,1,29.61,28c1.83.49.14,3.28-1.91,5.26S24.41,39.83,23.2,40Z"/><path class="cls-18" d="M28,27.95a19.34,19.34,0,0,0-5.51,12c-.16.88-1.12-.08.48-4.71S28.21,27.07,28,27.95Z"/><path class="cls-17" d="M55.86,73.35s-.8,2.84-1.82,6.14A15.21,15.21,0,0,1,55.86,73.35Z"/><path class="cls-17" d="M34.63,68.92s2.21,1.3,6,3.29C39.68,72.1,33.83,69.2,34.63,68.92Z"/><g class="cls-6"><path class="cls-8" d="M76.16,67.21c-.91-.48-4-3.36-1.33-10C76.95,52,79,48.48,77.46,44.16h0c1.41,4.3-1.14,9.07-3.63,13.64s.94,9.41-.87,8.6-4.37-4.1-6.45-7.86.07-11.69-.33-11.36-1,3.43-1.34,5-1.35,3-2.89,5-3,3.29-3,1-.8-5.58-2.35-7.32c2.82,7.32.54,12.77-.27,15.19-.88,2.63-2.62,2-6.39-1.48s-5.31-7.19-4.57-11.09C44,56,44,59.23,42.7,58.76c-3.29-1.07-5.24-5.07-5.24-5.07a6.46,6.46,0,0,0,2.24,4c1.91,1.38,1.49,2.77-.32,4.37s-6.39,5-6.17,2.34c.64-5.75,3.83-8.41,2.55-11,0,0-3.67,5.75-4.37,11.29-.48,2.93-.47,3.22,1,3.88l1.65.77c-.09-.11-1-1.28.49-1.36s4.58,3.05,6.83,4.26,4.9.72,3.61,1c-1.06.26-1.19-.07-.45,1.1a7.5,7.5,0,0,0,2.17.53c-.34-.39-1.34-1.45-1.26-1.64a4.33,4.33,0,0,1,1-.7A11.43,11.43,0,0,1,44.56,72,15.6,15.6,0,0,1,45,69.56a7.09,7.09,0,0,1-2.38,1.82c-1.08.32-1.24.16-3-1.48a51.54,51.54,0,0,0-4-3.27s6.47-4.15,7.58-6.54a10.82,10.82,0,0,0,2.2.92c2.64,2.87,3.55,3.91,5.67,6.11S54.95,71.5,55,72.3a13.86,13.86,0,0,1-.26,2.21.19.19,0,0,1,0-.05c.8-2,.84-4,1.91-3.71s.72,2.71-1.08,6.55-2.71,5-2.52,6.46,0,1.16-.36.6-.24.72-.44,1S52,84.52,52,84c0-.33-.44-.06-.91.27a4.51,4.51,0,0,0-.53,1.57c.88-.76.92-.92.92-.92a10.72,10.72,0,0,0,.84,1.88c.16,0,.72-1.32.92-1.36s.64.76.8.8,0-1.21-.07-1.69c1,.25,1.08.19,1.14.11s-1.43-1-.95-2.25,2.43-5,3.43-7.82,1.24-3.23,0-5c-1-1.68-.2-5.63.56-7.54,0,0,2.07-.21,2.24-.68s2.15-4.91,4.47-7.13c-.2,2.66-.27,3.4,1.31,5.38a73.83,73.83,0,0,1,5.69,7.86c1.17,2,.85,2.87.59,5.16,0,.32-.09.72-.15,1.17l0,0s.56-4,1.52-4.08,0,3.26-1.08,6.64S71.9,80.2,71,81.05a2.12,2.12,0,0,1-.58.42,2.87,2.87,0,0,1-.63.86c-.33.33,1,.08,1.45-.46.49,1.09.46,1.31,1.26-.14,1.55,1.09,2.23,1.31,1.85.47s-1-1.47-1.25-2.08S73,79,73.33,77.62s1.87-6.1,2.68-7.91S77.07,67.69,76.16,67.21Z"/></g><path class="cls-17" d="M73.44,71.59s-1,3.88-1.57,6.55C71.38,80,72.11,74.2,73.44,71.59Z"/><path class="cls-17" d="M65.57,35.29s4.18.56,8.06,7.9C74.35,44.55,72.43,36.17,65.57,35.29Z"/><path class="cls-14" d="M51.24,86.74a5.09,5.09,0,0,0-.44,2.16c0,.39-.54.26-.4-.14S51.06,86.09,51.24,86.74Z"/><path class="cls-14" d="M62.1,82.43a5.08,5.08,0,0,0-.45,2.16c0,.39-.54.26-.4-.14S61.92,81.78,62.1,82.43Z"/><path class="cls-14" d="M47.53,72.75A5.12,5.12,0,0,0,49.59,72c.33-.2.51.31.1.41S47.08,73.25,47.53,72.75Z"/><path class="cls-14" d="M71.36,83.87A5.05,5.05,0,0,0,70.92,86c0,.39-.54.27-.4-.13S71.19,83.21,71.36,83.87Z"/></g></g></g></svg>