<svg xmlns="http://www.w3.org/2000/svg" viewBox="0 0 100 100"><defs><style>.cls-1{isolation:isolate;}.cls-2{fill:#e5b7d8;}.cls-3,.cls-4,.cls-9{fill:#3a3438;}.cls-13,.cls-4{mix-blend-mode:screen;}.cls-11,.cls-14,.cls-5,.cls-7,.cls-9{mix-blend-mode:multiply;}.cls-6{fill:#fff;}.cls-7{opacity:0.5;}.cls-13,.cls-8{fill:#d8d2d5;}.cls-10,.cls-11{fill:#f79797;}.cls-12{fill:#eb566c;}.cls-14{fill:#a59da2;}</style></defs><title>panda</title><g class="cls-1"><g id="Layer_2" data-name="Layer 2"><g id="Layer_1-2" data-name="Layer 1"><rect class="cls-2" width="100" height="100"/><path class="cls-3" d="M27.75,20.44s-2-2.79-4.85-1-2.9,5-1.21,6.46C24,23.86,27.75,20.44,27.75,20.44Z"/><path class="cls-4" d="M26.67,19.91s-1.91-2-4.37.17c-1.4,1.18-1.35,3.7,1,2.58S27.34,20.64,26.67,19.91Z"/><g class="cls-5"><path class="cls-3" d="M27.4,20c-.74.77-3.09,3.11-4.83,3.6-1.29.36-1.88-.27-1.9-1.28a3.53,3.53,0,0,0,1,3.53c2.32-2,6.06-5.45,6.06-5.45A3.68,3.68,0,0,0,27.4,20Z"/></g><path class="cls-6" d="M26,19.57a4.21,4.21,0,0,0-4.24,2C22,20.19,24.18,18.42,26,19.57Z"/><path class="cls-3" d="M23.87,60.33s-.81,2.85-1.63,4.88S21,69.46,22,70.16s1.8,2.5,0,2.85a1.79,1.79,0,0,1-1.57.41c-.64.87-2.62.41-4.07-1.1A26.24,26.24,0,0,1,10,53.71c.58-7.79,1.92-12.61,2.85-14.47C12.89,39.24,15.1,55,23.87,60.33Z"/><path d="M18.74,71.17a2.43,2.43,0,0,1,.53.06,2.07,2.07,0,0,1,1.06.54,1.34,1.34,0,0,1,.19.28,1.06,1.06,0,0,1,.11.31,1.12,1.12,0,0,1,0,.3,1.39,1.39,0,0,1,0,.26,1.48,1.48,0,0,1-.07.21,1.21,1.21,0,0,1-.07.15l-.07.13,0-.14a1.55,1.55,0,0,0,0-.16c0-.06,0-.13,0-.21a1.68,1.68,0,0,0,0-.25,1.2,1.2,0,0,0,0-.27,1,1,0,0,0-.1-.26,1.21,1.21,0,0,0-.17-.24,1.61,1.61,0,0,0-.23-.2l-.25-.16a3.47,3.47,0,0,0-.49-.21l-.36-.12Z"/><path d="M20.88,70.87a2,2,0,0,1,.45.11,2.06,2.06,0,0,1,.43.21,1.43,1.43,0,0,1,.41.39,1,1,0,0,1,.16.56.72.72,0,0,1,0,.14.82.82,0,0,1,0,.13,1.16,1.16,0,0,1-.08.22,1.67,1.67,0,0,1-.18.29L22,73l.05-.11a2.64,2.64,0,0,0,.12-.31,1.61,1.61,0,0,0,0-.21.6.6,0,0,0,0-.11.61.61,0,0,0,0-.12.86.86,0,0,0-.15-.46,1.51,1.51,0,0,0-.35-.36,2.94,2.94,0,0,0-.39-.25L21,70.93Z"/><g class="cls-7"><path class="cls-3" d="M23.87,60.33c-8.77-5.35-11-21.09-11-21.09C12,41.1,10.62,45.92,10,53.71a26.24,26.24,0,0,0,6.28,18.59c1.45,1.51,3.43,2,4.07,1.1A1.79,1.79,0,0,0,22,73c1.8-.35.93-2.15,0-2.85a2,2,0,0,1-.52-1.79c-.5,1.62-1.64,2-4.3.66-5.86-4-6-14.92-4.59-17.22s2,2.48,5.26,6.1,4.62,4.81,4.36,7.53l.09-.22C23.06,63.18,23.87,60.33,23.87,60.33Z"/></g><path class="cls-4" d="M17.49,71.45s2.57,0,1.78,1.51c-.53.76.76,1,1.11,0S19.78,70.95,17.49,71.45Z"/><path class="cls-4" d="M19.68,71s1.7,0,1.47,1.55c-.14,1.09,1,.69,1-.23S21.66,70.9,19.68,71Z"/><path class="cls-4" d="M21.4,70.75s1.33-.08,1.19,1.21c-.09.91.34.65.34-.11S22.64,70.65,21.4,70.75Z"/><path class="cls-6" d="M23.42,60.92s-5.86-2.83-9.63-15.18c-2.2-8.9-1.47-10.57,2.62-15.28,4.82-4.61,9.11-8,11.83-10.68s4.4-3.45,8.27-2.3a25.89,25.89,0,0,1,6.39,2.83s12.14-.52,17.17,3C53.56,24.38,23.42,60.92,23.42,60.92Z"/><path class="cls-8" d="M42.89,20.3a30.72,30.72,0,0,0-6.39-2.83c-5.75-1.84-7.25,1.9-8.86,2.87,2-1.38,4.92-5,9.63-1.66,3.47,2.44-4.36,1.65-5.18,3.53s9.07-1.77,13.78-.35-13.29,9.56-22,28.36C22.12,54,7.63,39.68,20.83,26.4c-1.4,1.24-2.89,2.58-4.43,4.06-4.08,4.71-4.81,6.39-2.62,15.28,3.77,12.35,9.63,15.18,9.63,15.18S53.56,24.38,60.06,23.34C55,19.78,42.89,20.3,42.89,20.3Z"/><path class="cls-3" d="M84.84,45.18S73.81,21.82,59,23c-10,.67-15.68,4.71-27.89,19.43C25,51.24,20.72,59.23,24.38,66.34S34,79.33,38.8,82.12c2.69,1.54,4,.87,4.8.17a2.14,2.14,0,0,0,2.52,0A1.29,1.29,0,0,0,48,81.09c0-1.12-1.39-1.2-2.44-1.7S43.41,74,42.83,71.45s-.66-4.18,1.32-4.84c2.71,1.47,12,2.82,23.39-.06-1.41,2.06-2,3.35-1.18,4.71C68,73.91,68.3,75.61,70,78.32s2.71,3.3,4.12,3.47a4.41,4.41,0,0,0,2.47-.41A2.47,2.47,0,0,0,78.84,81a1.2,1.2,0,0,0,1.83-.94c.06-.82-1.29-1.29-1.94-1.59s-1.65-1.65.59-4.12,5.36-5,8.09-8.89S92.44,59.39,84.84,45.18Z"/><g class="cls-7"><path class="cls-3" d="M84.84,45.18S76.4,27.3,64.37,23.6a18.29,18.29,0,0,1,5.73,3.56c5.43,5.09.51,5.26-2.88,4.41s-13.41,6.62-19,13.24-3.51,6.77-1.82,11,0,4.43-3.78,7.31-2.54,7.3,0,13.24c1.19,2.38-.8,2.87-2.27,2.18S16.79,60.66,35.56,37.19c-1.39,1.57-2.86,3.3-4.45,5.21C25,51.24,20.72,59.23,24.38,66.34S34,79.33,38.8,82.12c2.69,1.54,4,.87,4.8.17a2.14,2.14,0,0,0,2.52,0A1.29,1.29,0,0,0,48,81.09c0-1.12-1.39-1.2-2.44-1.7S43.41,74,42.83,71.45s-.66-4.18,1.32-4.84c2.71,1.47,12,2.82,23.39-.06-1.41,2.06-2,3.35-1.18,4.71C68,73.91,68.3,75.61,70,78.32s2.71,3.3,4.12,3.47a4.41,4.41,0,0,0,2.47-.41A2.47,2.47,0,0,0,78.84,81a1.2,1.2,0,0,0,1.83-.94c.06-.82-1.29-1.29-1.94-1.59A1.64,1.64,0,0,1,78,76.41c-.57,1.1-.88,1.82-2,1.9s-3-.84-4-3.8-2.62-5.91,2-9,8-5.49,10.9-6.34,3.46,4.39,1.77,7.1l-.58.92c.42-.53.84-1.07,1.25-1.66C90.14,61.6,92.44,59.39,84.84,45.18Z"/></g><path class="cls-9" d="M67.89,67.75c2.53-1.69,4.39-2.62,5.49-4.22-3,1.77-4.39,2.54-11.15,2.87s-16.64.17-13.6-2c2.45-2.28,2.11-2.79,2.11-3.72s-2.11,3.3-7.18,5.24c-2.28.76-1.37,3.17-.73,5.56-.58-2.59-.66-4.18,1.32-4.84,2.71,1.47,12,2.82,23.39-.06-1.29,1.88-1.88,3.11-1.36,4.34A3.88,3.88,0,0,1,67.89,67.75Z"/><path class="cls-3" d="M47,66.79s-1.78,1.9.3,3.2c1.3.89,1.72,2.43-.12,2.31-.53.71-1.48.06-1.66.36-1.54,1.13-2.79.42-3.5-1.78S41.31,64.6,47,66.79Z"/><path class="cls-9" d="M47,66.79s-1.78,1.9.3,3.2c1.3.89,1.72,2.43-.12,2.31-.53.71-1.48.06-1.66.36-1.54,1.13-2.79.42-3.5-1.78S41.31,64.6,47,66.79Z"/><path d="M44.45,70.82a1.29,1.29,0,0,1,.44,0l.21,0a1.31,1.31,0,0,1,.23.08,1.12,1.12,0,0,1,.44.35.84.84,0,0,1,.17.57.92.92,0,0,1-.05.26.89.89,0,0,1-.09.2,1,1,0,0,1-.1.15l-.09.1-.09.08,0-.12c0-.07,0-.18.07-.29s0-.12,0-.19a1.24,1.24,0,0,0,0-.2.77.77,0,0,0,0-.19.64.64,0,0,0-.1-.17,1.24,1.24,0,0,0-.31-.29,3.54,3.54,0,0,0-.35-.21Z"/><path d="M46.11,70.64l.1,0a1,1,0,0,1,.29,0l.19,0a1.19,1.19,0,0,1,.21.08,1,1,0,0,1,.2.15.83.83,0,0,1,.17.2,1.08,1.08,0,0,1,.1.24,1.36,1.36,0,0,1,0,.24c0,.08,0,.15,0,.22l-.05.19a.6.6,0,0,1-.06.15l-.06.11-.06.09s0,0,0-.11,0-.16,0-.27,0-.11,0-.17,0-.12,0-.18,0-.11-.05-.17a1.64,1.64,0,0,0-.08-.16.78.78,0,0,0-.11-.14,1.34,1.34,0,0,0-.13-.12l-.15-.1-.14-.09-.24-.11Z"/><path class="cls-4" d="M43.67,71a1.74,1.74,0,0,1,1.05,1.84c-.19.45,1.12-.19.68-1.2S43.67,71,43.67,71Z"/><path class="cls-4" d="M45.42,70.73a1.18,1.18,0,0,1,1.09,1.2c-.07.6.75.56.75-.19A1.3,1.3,0,0,0,45.42,70.73Z"/><path class="cls-4" d="M46.81,70.44a1.24,1.24,0,0,1,1,1.72C48.43,72,48.73,70.86,46.81,70.44Z"/><path class="cls-3" d="M57.84,37.63s2.65-5.53-1.16-7.15-9.61,2.83-9.47,8.73C47.3,41.77,52.59,46.6,57.84,37.63Z"/><g class="cls-5"><path class="cls-3" d="M56.68,30.48a5.3,5.3,0,0,0-4.39.33c1.67-.37,4.28-.67,5.21.84.78,1.37-.1,4.34-.63,2.44s-2.24-2.83-5.41-.63S48,39,50.73,39.85c1.8.44.15,2.58-1.75,1.37s-1.9-3.41-1-5.75a4,4,0,0,0,.14-.42,9,9,0,0,0-.93,4.17c.09,2.55,5.39,7.38,10.63-1.58C57.84,37.63,60.49,32.11,56.68,30.48Z"/></g><path class="cls-10" d="M51.75,33.83s3.68-2.57,4.37-.41c.58,1.84.1,6.2-3.56,6.4S47.79,36.47,51.75,33.83Z"/><g class="cls-5"><path class="cls-10" d="M56.12,33.42c-.41-1.29-1.89-.89-3-.37,1-.12,1.92.15,1.95,1.59.05,3.06-5.85,6.55-5.69,2-.5,1.78.8,3.27,3.2,3.13C56.22,39.62,56.71,35.26,56.12,33.42Z"/></g><path class="cls-4" d="M53.82,31.66s-5.26,1.88-5.37,6.09c-.11,1.44-1.61-1.22.94-4.15S56,30.39,53.82,31.66Z"/><path class="cls-6" d="M51.24,32.38a7,7,0,0,0-3,4.71C47.87,35.65,49.11,33.42,51.24,32.38Z"/><path class="cls-3" d="M74.42,36.15s-.88-3.62,2.37-5.25,8.68,1,8.92,6.82c0,5.34-4.5,6.13-6.83,4.27C77.53,40.42,75,36.75,74.42,36.15Z"/><g class="cls-5"><path class="cls-3" d="M82.51,40.49C83,40,84.74,39,83,35.12s-7.31-.91-5.32-3.54c.84-1.1,2.17-1.08,3.45-.68a5.36,5.36,0,0,0-4.37,0c-3.25,1.62-2.37,5.25-2.37,5.25.6.6,3.11,4.27,4.46,5.85,2.32,1.86,6.78,1.07,6.83-4.27a8.32,8.32,0,0,0-.7-3.08h0C87.26,41.17,82.05,40.95,82.51,40.49Z"/></g><path class="cls-10" d="M82.61,35.76s-1-2.47-3.35-1.71-1.41,5,.59,5.89S84.08,39.11,82.61,35.76Z"/><path class="cls-11" d="M81.44,39.22c-2.2.46-3.57-3.89-2.11-4.89a2,2,0,0,1,2-.05,2.4,2.4,0,0,0-2.12-.22c-2.36.77-1.41,5,.59,5.89s4-.64,3-3.61C82.91,36.62,83.49,38.79,81.44,39.22Z"/><path class="cls-4" d="M80.43,32a5.55,5.55,0,0,1,3.84,4.28c.44,2.21,1.85-.66-.8-3.58S78.62,31.45,80.43,32Z"/><path class="cls-6" d="M81.65,31.78a6.06,6.06,0,0,1,2.87,3.52C84.79,34.51,83.54,32.29,81.65,31.78Z"/><path class="cls-6" d="M50.21,47s-3.12-1-3.93,1.08A2,2,0,0,1,48,48a2.23,2.23,0,0,0-1.49,2.1,1.76,1.76,0,0,1,1.09-.68s-3.12,3.19,3.8,9.29a48.89,48.89,0,0,0,10.17,5.36,6.76,6.76,0,0,0,7.12-.14,22.9,22.9,0,0,0,14.64-6.3c3.32-3.59,3.12-6.1,1.9-6.71a1.79,1.79,0,0,1,1.29.34s.47-1.37-1.9-1.69c1.35-.32,1.58-.09,1.58-.09a3,3,0,0,0-3.67-.74,88.93,88.93,0,0,0-4.41-8c-2.55-4.27-5-6.32-10.54-7s-9.33,3.06-11.28,5.76S50.9,46.59,50.21,47Z"/><path class="cls-8" d="M69.44,62.48c4.7-2.56,5.3-4.87,4.1-8.69,0,0-2-6.29-7.22-7.05s-9.77,6.62-9.94,9.51c-.1,1.62,1.61,4.69,4.26,5.8A1.87,1.87,0,0,0,61,63.89l.51.18a6.76,6.76,0,0,0,7.12-.14S69.87,63.33,69.44,62.48Z"/><path class="cls-3" d="M64.6,58.57s.23,1.94-.69,2.86a3,3,0,0,1-3.27.63,4.7,4.7,0,0,0,2.87.17c.49-.14.66.59,1.31.19s.87-.16,1.41.19a3.69,3.69,0,0,0,3.21-.12c-1.4.31-3.56.17-4.34-1C64.64,60.63,64.81,58.82,64.6,58.57Z"/><path class="cls-3" d="M57.83,41.08c-2,1.36-4.2,4-4.37,6.56A3.35,3.35,0,0,0,56.31,51c1.88.26,3.23-.89,4.43-2.18,2.24-2.41,2.77-7.24.63-8.45C60.38,39.87,58.77,40.45,57.83,41.08Z"/><path class="cls-3" d="M69.95,42.28a8.67,8.67,0,0,0,2.59,7.6c3.26,2.73,9.09,1,5.81-5.1-3-4.47-5.54-5.32-6.75-4.92A2.7,2.7,0,0,0,69.95,42.28Z"/><path class="cls-4" d="M59,46.1c-.37.88-1,1.46-1.32,1.3s-.35-1,0-1.88,1-1.46,1.32-1.3S59.41,45.22,59,46.1Z"/><path d="M58.82,46c-.24.58-.63,1-.86.85s-.23-.66,0-1.24.63-1,.86-.85S59.06,45.42,58.82,46Z"/><ellipse class="cls-6" cx="58.64" cy="45.54" rx="0.44" ry="0.21" transform="translate(-4 85.39) rotate(-70.3)"/><path class="cls-4" d="M74.52,45.76c.32.87.29,1.67-.07,1.8s-.92-.48-1.24-1.34-.29-1.67.07-1.79S74.2,44.89,74.52,45.76Z"/><path d="M74.31,45.83c.22.58.2,1.13,0,1.21s-.62-.32-.84-.91-.2-1.13,0-1.21S74.09,45.24,74.31,45.83Z"/><ellipse class="cls-6" cx="73.87" cy="45.62" rx="0.21" ry="0.44" transform="translate(-12.02 32.94) rotate(-23.3)"/><path class="cls-8" d="M59.94,39.37a3.17,3.17,0,0,1,2.33.28c.28.23-.19-1.21-.65-1.16A6.65,6.65,0,0,0,59.94,39.37Z"/><path class="cls-8" d="M69.81,39.46a2.59,2.59,0,0,1,3-.93c.33.09-.84-1.31-1.49-1.07A3.14,3.14,0,0,0,69.81,39.46Z"/><path class="cls-3" d="M59.94,39.17a3.16,3.16,0,0,1,2.33.28c.28.23-.19-1.21-.65-1.17A6.66,6.66,0,0,0,59.94,39.17Z"/><path class="cls-3" d="M69.81,39.26a2.59,2.59,0,0,1,3-.93c.33.09-.84-1.3-1.49-1.07A3.15,3.15,0,0,0,69.81,39.26Z"/><g class="cls-5"><path class="cls-8" d="M86.48,51.26s.47-1.37-1.9-1.69c1.35-.32,1.58-.09,1.58-.09a3,3,0,0,0-3.67-.74,88.93,88.93,0,0,0-4.41-8,16.34,16.34,0,0,0-3.4-4.26A21.86,21.86,0,0,1,77.26,40a30.91,30.91,0,0,1,3.52,6.54c1.15,2.36.12,2.6-.54,3.75,2.24-1.69,3.69-1,3.69-1s-1.09.42-1.21,1.15a1.59,1.59,0,0,1,2,.24,2.88,2.88,0,0,0-1.57.42c.85-.18,2,1.51-.24,4s-8.35,3.15-8.35,1.94-.42-4.54-2.72-6.53c5,8.1-3.69,8.35-2.66,7.38,2-2-4.78-3.51-7.74-2.66s1.93,3.33-1,2.36C57,56.54,57.19,54.06,58.77,51c-3.08,3.51-2.3,6.83-7.2,4.11-5.5-3.27-.67-5.38-.67-5.38a3,3,0,0,0-2,.18C49,48.8,51,48.26,51,48.26s-.36-.36-1.69-.12a4.34,4.34,0,0,1,3.51-.79c-1-1-1.81-.48.21-2.91,1.68-2.33,4-5.33,4.93-6.92a17.83,17.83,0,0,0-1.71,2c-2,2.69-5.36,7.06-6,7.45,0,0-3.12-1-3.93,1.08A2,2,0,0,1,48,48a2.23,2.23,0,0,0-1.49,2.1,1.76,1.76,0,0,1,1.09-.68s-3.12,3.19,3.8,9.29a48.89,48.89,0,0,0,10.17,5.36,6.76,6.76,0,0,0,7.12-.14,22.9,22.9,0,0,0,14.64-6.3c3.32-3.59,3.12-6.1,1.9-6.71A1.79,1.79,0,0,1,86.48,51.26Z"/></g><path class="cls-12" d="M64.65,60.73a2.68,2.68,0,0,1-.71,1c-.34.24.54.75,1,.27S64.68,61.65,64.65,60.73Z"/><path class="cls-3" d="M62.07,54.72a21,21,0,0,1,6,.64c3.18.93.7,3.66-3.23,3.23S58.94,54.93,62.07,54.72Z"/><g class="cls-5"><path class="cls-3" d="M63.83,57.27c-2.13-.48-3-1.18-3.23-1.8-.36,1,1.5,2.82,4.27,3.12,3,.33,5.17-1.2,4.58-2.35C68.67,57.15,66.7,57.92,63.83,57.27Z"/></g><path class="cls-6" d="M61.17,55.41a16.48,16.48,0,0,1,6,.21C68.47,55.91,65.44,54.12,61.17,55.41Z"/><ellipse class="cls-6" cx="68.24" cy="55.77" rx="0.13" ry="0.35" transform="translate(-10.39 95.57) rotate(-66.11)"/><path class="cls-4" d="M56.52,47.24a2,2,0,0,1,2,.89A1.39,1.39,0,0,0,56.52,47.24Z"/><path class="cls-4" d="M75.6,47.37a2,2,0,0,0-2,.89A1.39,1.39,0,0,1,75.6,47.37Z"/><path class="cls-13" d="M65,47.45s-5,2-5.81,6.54C58.42,51.86,61.29,47.53,65,47.45Z"/><path class="cls-14" d="M82.65,57.49a23.35,23.35,0,0,1-13.24,5.87s.61-.61,0-.88c-.58,1.37-3.31,2-4.88,1.91s-3.41-.82-4-2c-.21.89.07,1.3-4.16-1.09-8.6-4.51-9.7-9.49-8.8-11.82,0,0-3.12,3.19,3.8,9.29a48.89,48.89,0,0,0,10.17,5.36,6.76,6.76,0,0,0,7.12-.14,22.9,22.9,0,0,0,14.64-6.3c3.32-3.59,3.12-6.1,1.9-6.71C86.44,52.61,85.38,55,82.65,57.49Z"/><g class="cls-5"><path d="M40.48,80.34a3.6,3.6,0,0,1,.87-.5,3.29,3.29,0,0,1,.48-.16,2.73,2.73,0,0,1,.51-.08h.26l.26,0,.26.06.25.09.23.14a1.68,1.68,0,0,1,.21.17l.1.09.09.1a2.21,2.21,0,0,1,.15.22h0l.05.13a.58.58,0,0,1,0,.13,1.08,1.08,0,0,1,0,.26v.13a1,1,0,0,1,0,.13.77.77,0,0,1,0,.12,1.21,1.21,0,0,1,0,.12,1.75,1.75,0,0,1-.11.22l-.13.2-.15.19-.17.17a3.64,3.64,0,0,0,.21-.41c0-.07.06-.14.08-.21s0-.14.06-.21a1.08,1.08,0,0,0,0-.11.76.76,0,0,0,0-.11,1,1,0,0,0,0-.1V81a1,1,0,0,0,0-.2.44.44,0,0,0,0-.09l0-.09h0a2.08,2.08,0,0,0-.14-.18l-.16-.16a1.25,1.25,0,0,0-.18-.13l-.19-.11L43,80,42.8,80l-.23,0h-.46l-.23,0-.47.09A8.21,8.21,0,0,0,40.48,80.34Z"/><path d="M44.21,79.52a2.5,2.5,0,0,1,.69,0l.33,0a2.48,2.48,0,0,1,.37.1,1.75,1.75,0,0,1,.72.47,1.24,1.24,0,0,1,.24.39,1,1,0,0,1,.06.22,1.24,1.24,0,0,1,0,.21,1.48,1.48,0,0,1,0,.39,1.77,1.77,0,0,1-.11.33l-.06.14-.07.12-.12.18-.11.15.05-.18c0-.06,0-.13.06-.2s0-.17.06-.26a.9.9,0,0,0,0-.15,1.54,1.54,0,0,0,0-.16,1.77,1.77,0,0,0,0-.33,1.14,1.14,0,0,0-.09-.32,1.06,1.06,0,0,0-.18-.29,1.47,1.47,0,0,0-.27-.23,2.19,2.19,0,0,0-.31-.18,4.48,4.48,0,0,0-.62-.24l-.46-.13Z"/></g><g class="cls-5"><path d="M73.92,79.58l.21-.12a4,4,0,0,1,.58-.26,3.5,3.5,0,0,1,.41-.13,3.13,3.13,0,0,1,.47-.09,2.53,2.53,0,0,1,.53,0,1.38,1.38,0,0,1,.27,0l.14,0,.13,0,.13.06.12.08.06,0h0l0,0,.09.09.1.1.09.12a1.12,1.12,0,0,1,.12.26.89.89,0,0,1,0,.54,1.27,1.27,0,0,1-.21.4,1.77,1.77,0,0,1-.25.27l-.22.17-.15.09-.05,0,.16-.17.17-.21a2.22,2.22,0,0,0,.18-.29,1.23,1.23,0,0,0,.13-.36.69.69,0,0,0,0-.38.88.88,0,0,0-.1-.17L77,79.72l-.08-.08-.1-.08,0,0h0l0,0-.09-.06-.1,0-.11,0-.11,0a1.18,1.18,0,0,0-.23,0,2.83,2.83,0,0,0-.47,0l-.45,0-.4.07-.61.14Z"/><path d="M77.18,78.82a2.57,2.57,0,0,1,.65-.11h.32a2.3,2.3,0,0,1,.36,0l.19,0,.19.07a1.32,1.32,0,0,1,.37.23l.08.08,0,0,0,0h0l0,0,0,.08,0,0,0,.06,0,.12s0,.08,0,.11a1,1,0,0,1,0,.22,1.2,1.2,0,0,1-.11.37,1.36,1.36,0,0,1-.17.29,1.59,1.59,0,0,1-.17.21l-.15.15-.14.11.09-.15.1-.18.11-.23a2.53,2.53,0,0,0,.1-.28,1.34,1.34,0,0,0,0-.3.7.7,0,0,0,0-.15l0-.07,0-.06v0l0,0-.05-.08h0l0,0L79,79.35a1.21,1.21,0,0,0-.28-.18,2.06,2.06,0,0,0-.32-.12L78.12,79l-.3-.05-.46-.06Z"/></g><path class="cls-4" d="M49.05,27.52s-11.89,7.06-17.42,20C30.22,50.83,32.45,36,49.05,27.52Z"/><path class="cls-4" d="M40.83,80.28s2.53-.45,2,1.18c-.39.84.93.87,1.08-.21S43,79.38,40.83,80.28Z"/><path class="cls-4" d="M43.88,79.68s1.78,0,1.54,1.63c-.15,1.15,1,.72,1-.24S46,79.56,43.88,79.68Z"/><path class="cls-4" d="M46.5,79.94s1,.4.64,1.31.48.83.7.16S47.55,80.1,46.5,79.94Z"/><path class="cls-4" d="M56.76,25.57a15,15,0,0,1,9.11.64C63.58,23.57,58,24.51,56.76,25.57Z"/><path class="cls-4" d="M73.89,79.76s2.48-.63,2,.86c-.22.77,1.27.54,1.36-.36S75.56,78.67,73.89,79.76Z"/><path class="cls-4" d="M77.41,79s1.49.18,1.13,1.17.63.63.81-.27S78.18,78.67,77.41,79Z"/><path class="cls-4" d="M79.39,79s.88.36.58,1.1.41.77.58.14S80.16,79.11,79.39,79Z"/><path class="cls-4" d="M36.46,62.84a75.69,75.69,0,0,1,6.15,13.53C45.28,84.21,41.22,65.49,36.46,62.84Z"/><path class="cls-4" d="M86.08,64.26a77.62,77.62,0,0,1-7.14,9.63C77.28,76.38,85.88,68.4,86.08,64.26Z"/></g></g></g></svg>